<?xml version="1.0" encoding="UTF-8"?><svg id="Capa_1" xmlns="http://www.w3.org/2000/svg" viewBox="0 0 909 400"><defs><style>.cls-1{fill:#fff;}</style></defs><g id="Grupo_74"><path id="Trazado_341" class="cls-1" d="M37.18,199.96c0-21.8,.19-43.59-.13-65.39-.08-5.74,1.57-7.51,7.32-7.28,10.89,.44,21.82,.27,32.73,.06,4.15-.08,5.75,1.12,5.74,5.52-.13,44.95-.13,89.9,0,134.85,0,3.93-1.4,5.18-5.25,5.11-11.45-.18-22.92-.36-34.36,.06-5.52,.21-6.18-2.16-6.13-6.74,.18-22.06,.08-44.13,.08-66.2"/><path id="Trazado_342" class="cls-1" d="M174.48,200.08c0,22.06-.12,44.13,.1,66.19,.05,4.79-.97,6.81-6.27,6.62-11.16-.4-22.36-.33-33.53,0-4.81,.14-5.92-1.62-5.91-6.12,.14-44.4,.13-88.8-.03-133.2-.03-5.31,1.95-6.37,6.69-6.25,10.9,.28,21.82,.35,32.72-.02,5.22-.18,6.39,1.75,6.34,6.59-.21,22.06-.1,44.13-.1,66.19"/><path id="Trazado_343" class="cls-1" d="M377.83,167.75c0-13.15,.35-24.04-.12-34.87-.34-7.72,4.87-5.54,8.74-5.62,4-.08,8.81-1.82,8.65,5.73-.41,19.06-.21,38.14-.07,57.21,.03,4.04-1.05,5.45-5.44,5.85-7.32,1.61-14.73-2.33-17.49-9.31-5.15-10.45-11.8-20.17-18.71-31.75,0,12.35-.5,23.26,.17,34.1,.46,7.38-3.6,6.94-8.48,6.84-4.64-.1-8.91,.95-8.66-6.65,.58-17.69,.04-35.41,.32-53.11,.04-2.97-2.62-8.47,2.71-8.59,5.6-.13,12.54-3.75,16.85,3.84,6.56,11.54,13.49,22.85,21.5,36.35"/><path id="Trazado_344" class="cls-1" d="M871.95,237.93c.06,19.9-16.02,36.09-35.92,36.15-19.9,.06-36.09-16.02-36.15-35.92,.37-19.9,16.8-35.73,36.7-35.36,19.29,.36,34.87,15.84,35.35,35.13m-17.7,.25c.61-10.12-7.11-18.82-17.23-19.43-10.12-.61-18.82,7.11-19.43,17.23-.04,.65-.04,1.3-.01,1.95-.02,11.48,7.48,20.02,17.81,20.28,10.78,.27,18.8-8.24,18.86-20.03"/><path id="Trazado_345" class="cls-1" d="M475.4,161.12c-.22-19.2,15.16-34.95,34.36-35.17,.55,0,1.1,0,1.65,.02,19.5-.4,35.63,15.08,36.03,34.58,0,.28,0,.56,0,.83,.01,19.73-15.96,35.73-35.69,35.74-.06,0-.12,0-.18,0-19.41,.57-35.6-14.71-36.16-34.11-.02-.62-.02-1.25,0-1.87m54.4,.19c.57-10.26-7.28-19.05-17.54-19.62-.31-.02-.62-.03-.93-.03-10.45,.09-18.85,8.64-18.76,19.09,0,.14,0,.28,0,.42-.47,10.58,7.65,19.58,18.22,20.21,10.5,0,19.03-8.5,19.03-19.01,0-.37-.01-.74-.03-1.1"/><path id="Trazado_346" class="cls-1" d="M445.15,238.09c.37,19.42-15.08,35.47-34.5,35.84-.34,0-.68,0-1.03,0-19.75,.42-36.11-15.26-36.52-35.02,0-.3,0-.61,0-.91,.04-19.5,15.88-35.28,35.38-35.24,.27,0,.55,0,.82,.01,19.2-.59,35.25,14.5,35.83,33.7,.02,.54,.02,1.08,.01,1.62m-54.39-.97c-1.34,10.22,5.86,19.59,16.08,20.93,10.22,1.34,19.59-5.86,20.93-16.08,.13-.98,.18-1.98,.15-2.97,.83-10.48-6.99-19.64-17.47-20.47-.08,0-.16-.01-.25-.02-10.2-.52-18.89,7.32-19.41,17.51-.02,.37-.03,.73-.02,1.1"/><path id="Trazado_347" class="cls-1" d="M209.28,161.43c0-9.25,.22-18.5-.09-27.73-.16-4.74,.87-6.97,6.23-6.62,7.32,.47,14.71-.13,22.04,.27,18.82,1.02,25.89,14.35,15.7,29.91-2.02,3.1-.23,3.32,1.31,4.77,7.82,6.44,8.94,17.99,2.5,25.81-2.58,3.13-6.12,5.32-10.08,6.22-11.15,3.44-22.73,1.31-34.1,1.72-4.4,.16-3.46-3.3-3.5-5.82-.08-9.52-.03-19.03-.03-28.55m23.07,19.85c5.58,.22,10.84,.12,11.12-6.75,.28-6.99-4.98-7.1-10.11-7.48-4.99-.36-7.58,.84-7.15,6.56,.34,4.56-.47,9.24,6.12,7.65m-5.62-33.28c-1.31,4.69,1.18,5.82,5.68,5.71,4.58-.12,8.47-.79,8.28-6.42-.17-5.29-4.19-5.34-8.24-5.61-4.6-.3-6.76,1.19-5.72,6.32"/><path id="Trazado_348" class="cls-1" d="M761.24,272.02l-2.13,.49c-11.76,2.51-19.87-1.23-23.39-13.31-.99-2.23-2.11-4.41-3.37-6.5-1.39-3.19-3.98-3.26-6.8-3.01-4.05,.35-2.46,3.5-2.62,5.62-.32,2.71-.32,5.44,0,8.15,1.13,7.43-1.66,9.84-9.23,9.45-5.71-.29-8.13-1.09-7.96-7.55,.45-17.95,.45-35.9,0-53.87-.14-6.26,1.84-8.01,7.87-7.54,7.04,.55,14.16,.03,21.24,.24,8.46-.57,16.32,4.43,19.38,12.34,3.89,8.15,2.21,17.87-4.18,24.25-3.62,3.55-3.27,5.64-.99,9.37,4.22,6.89,7.9,14.1,12.2,21.9m-38.41-45.24c.32,3.88-1.86,9.03,5.76,8.48,6.05-.44,10.24-2.35,10.21-8.85-.03-6.42-4.66-7.39-10.05-7.95-7.61-.78-5.71,4.32-5.91,8.31"/><path id="Trazado_349" class="cls-1" d="M208.96,238.29c0-9.25,.52-18.53-.16-27.72-.57-7.73,4.17-6.38,8.7-6.56,4.98-.2,9.57-.35,8.24,6.89-.11,1.08-.11,2.17-.03,3.26,0,17.6,0,17.32,17.35,17.58,6.12,.1,8.55-1.55,7.73-7.73-.22-2.98-.24-5.98-.07-8.96,0-11.99,0-11.86,12.28-11.06,3.36,.21,4.86,1.02,4.84,4.65-.12,19.85-.13,39.7-.03,59.54,.03,6.81-5.06,4.45-8.16,4.31-3.28-.15-8.94,3.03-8.93-4.37,0-4.89,0-9.79,0-14.68,0-1.36,.5-3.1-.15-4.02-5.41-7.58-13.28-1.79-19.87-3.37-3.91-.94-5.22,1.49-5.03,5.22,.21,4.07-.39,8.21,.14,12.24,.99,7.46-1.75,9.72-9.27,9.43-5.97-.23-8.11-1.48-7.72-7.72,.56-8.94,.14-17.92,.14-26.91"/><path id="Trazado_350" class="cls-1" d="M264.41,195.85c7.64-22.42,14.82-44,22.4-65.44,2.19-6.17,8.01-2.44,12.14-3.09,2.99-.47,6.45-1.08,7.94,3.4,6.77,20.34,13.68,40.64,20.72,60.9,1.19,3.43,.18,4.09-3.1,4.31-7.97,.53-15.34,.73-15.94-10.23-.17-3.08-2.19-4.7-5.61-4.37-2.43,.31-4.9,.31-7.33,0-6.99-1.08-11.54,.9-12.17,8.7-.38,4.63-2.93,6.49-7.69,5.91-3.78-.24-7.58-.26-11.37-.08m32.28-51.82c-2.07,7.21-3.81,12.93-5.32,18.7-.44,1.61-2.03,4.26,.55,4.85,3.17,.72,6.47,.69,9.62-.11,2.19-.59,.83-3.27,.38-4.95-1.53-5.76-3.23-11.47-5.25-18.49"/><path id="Trazado_351" class="cls-1" d="M698.24,272.66c-3.07-.18-6.15-.16-9.22,.07-6.22,.92-9.89-1.14-10.43-7.75-.48-5.92-4-7.7-9.51-6.83-1.62,.27-3.27,.27-4.9,0-6.94-1.21-10.43,1.59-11.6,8.57-.81,4.87-13.65,8.69-17.27,5.49-1.53-1.35-.56-3-.07-4.44,6.76-19.82,13.77-39.56,20.23-59.48,1.78-5.49,5.62-4.49,9.1-4.11,4.03,.44,9.4-2.9,11.66,3.86,7.06,21.13,14.35,42.19,22.01,64.61m-38.96-28.27c2.11,.2,3.69,.31,5.25,.51,6.28,.83,9-.77,6.15-7.65-1.86-5.37-3.42-10.84-4.69-16.38l-6.72,23.53"/><path id="Trazado_352" class="cls-1" d="M443.32,125.95c7.03,.33,13.88,2.33,19.97,5.84,4.23,2.46,5.32,4.99,2.01,8.93-2.59,3.09-3.04,9.11-9.93,4.59-7.53-5.61-17.92-5.33-25.13,.69-6.38,5.93-8.34,15.23-4.91,23.23,4.73,12.21,18.63,16.45,30.5,7.97,7.23-5.16,8.31,.34,11.42,3.93,4.37,5.04,.31,7.06-3.06,9.33-13.52,9.04-31.22,8.78-44.47-.65-15.52-12.24-18.18-34.75-5.93-50.27,7.1-9,18.08-14.06,29.54-13.6"/><path id="Trazado_353" class="cls-1" d="M605.67,202.78c5.36,.28,10.63,1.56,15.52,3.78,9.25,4.37,9.18,5.55,4.06,14.2-3.38,5.68-6.02,2.12-9.11,.58-7.74-4.55-17.49-3.83-24.48,1.79-6.12,6.18-7.84,15.47-4.33,23.43,3.94,9.82,15.09,14.59,24.91,10.65,1.88-.75,3.63-1.8,5.19-3.11,7.83-5.84,8.67,.54,11.84,4.19,4.67,5.38-.5,7.06-3.55,9.11-13.58,9.01-31.34,8.61-44.49-1.01-15.4-12.4-17.83-34.93-5.43-50.32,7.24-8.99,18.37-13.94,29.89-13.29"/><path id="Trazado_354" class="cls-1" d="M316.94,237.55c0-9.25,.13-18.5-.06-27.75-.08-3.91,.63-6.02,5.28-5.84,8.16,.34,16.35-.16,24.51,.17,12.77,.53,21.11,9.84,21.24,23.2,.13,13.77-8.31,23.31-21.28,24.09-12.8,.77-13.29,.79-12.73,13.6,.31,7.05-2.58,7.91-8.45,7.77-5.46-.14-9.28-.03-8.67-7.52,.74-9.18,.17-18.48,.17-27.73m16.82-9.04c.38,3.23-2.5,9.15,6.21,8.64,6.48-.38,10.65-2.52,10.79-9.18,.14-6.56-3.62-9.11-10.28-9.62-8.18-.63-6.94,4.37-6.73,10.16"/><path id="Trazado_355" class="cls-1" d="M516.3,238.16c0-9.53,.16-19.06-.08-28.59-.1-4.21,1.22-5.71,5.56-5.6,10.9,.26,21.81,.31,32.71,0,6.79-.19,4.53,4.54,4.81,7.87,.28,3.55,.75,7.3-5.01,6.84-4.61-.36-9.27,.05-13.9-.11-4.39-.15-7.58-.29-7.57,6.12,0,6.41,3.29,6.31,7.64,6.12,1.9-.09,3.84,.17,5.72-.05,5.53-.67,8.26,.5,8.28,7.23,0,6.65-2.53,8.01-8.16,7.29-1.88-.24-3.83,.16-5.71-.07-5.25-.65-7.71,.61-7.75,6.83-.04,6.3,3.02,6.37,7.5,6.16,4.08-.19,8.24,.39,12.24-.14,7.09-.93,8.8,2.09,8.38,8.66-.28,4.49-1.29,6.2-6.03,6.07-11.17-.31-22.36-.24-33.53-.03-3.93,.07-5.25-1.29-5.17-5.16,.2-9.8,.07-19.61,.06-29.41"/><path id="Trazado_356" class="cls-1" d="M478.31,204.03c8.18,0,16.37,.25,24.53-.08,6.69-.27,4.74,4.41,4.91,7.79,.18,3.45,.9,7.14-4.95,6.99-5.04-.11-12.11-2.58-14.69,1.25-2.58,3.83-1.04,10.44-1.08,15.84-.09,10.35-.4,20.71,.09,31.04,.36,7.58-4.66,5.83-8.65,5.74-3.84-.09-9.07,2.19-8.85-5.53,.39-13.88-.1-27.78,.21-41.66,.12-5.22-1.25-7.65-6.76-6.85-1.9,.15-3.81,.17-5.72,.04-7.64-.02-11.06-5.36-8.24-12.49,1.18-3,3.53-2.01,5.47-2.03,7.9-.12,15.81-.05,23.72-.05"/><path id="Trazado_357" class="cls-1" d="M300.73,238.73c0,9.26-.44,18.55,.14,27.77,.38,6.33-2.99,6.7-7.43,6.09-3.85-.52-9.69,2.84-9.53-5.62,.36-19.06,.36-38.12,0-57.19-.17-8.44,5.61-5.18,9.49-5.68,4.37-.54,7.87-.42,7.5,6.02-.57,9.5-.15,19.06-.15,28.59"/><path id="Trazado_358" class="cls-1" d="M771.68,237.55c0-9.49,.22-18.99-.07-28.48-.22-7.31,5.03-4.89,8.45-4.87,3.41,.02,8.57-2.52,8.48,4.81-.23,19.53-.23,39.05,0,58.58,.09,7.3-5.01,4.9-8.44,4.89-3.42-.01-8.69,2.45-8.49-4.85,.26-10.03,.07-20.07,.07-30.11"/></g></svg>