<?xml version="1.0" encoding="UTF-8"?><svg id="Capa_1" xmlns="http://www.w3.org/2000/svg" viewBox="0 0 909 400"><defs><style>.cls-1{fill:#fff;}</style></defs><g id="lN0aLd.tif"><g><path class="cls-1" d="M119.56,259.31c4.55,0,9.09-.02,13.64,0,.77,0,1.58-.13,2.3,.3-4.49,.01-8.99,.02-13.48,.03-2.23,0-2.1-.14-2.1,2.1,0,16.5,0,33.01,0,49.51-.12,.02-.23,.03-.35,.05,0-17.33,0-34.65,0-51.98Z"/><path class="cls-1" d="M353.37,89.53c-.03,.1-.05,.21-.08,.31-2.32,0-4.64-.02-6.96-.02,0-.1-.02-.19-.06-.29,2.37,0,4.73,0,7.1,0Z"/><path class="cls-1" d="M282.08,312.64c0-.09,0-.19,0-.28,1.69-.06,3.38,.15,5.07-.1,.11,.05,.23,.09,.34,.14,0,.08,0,.16,0,.25h-5.41Z"/><path class="cls-1" d="M333.1,312.34c0,.1,0,.2,0,.29h-5.41c0-.1,0-.2,0-.29,1.8,0,3.61,0,5.41,0Z"/><path class="cls-1" d="M640.57,312.64c0-.1,0-.2,0-.29,1.8,0,3.61,0,5.41,0,0,.1,0,.2,0,.29h-5.41Z"/><path class="cls-1" d="M525.54,91.27c1.09,.08,1.81,.66,2.22,1.72,.97,2.52,1.98,5.02,2.96,7.53,16.19,41.67,32.37,83.35,48.54,125.03,.25,.65,.85,1.35,.27,2.05-.63,.77-1.44,.2-2.19,.11-4.39-.55-6.78-3.16-8.52-7.14-17.9-40.73-35.92-81.41-53.91-122.1-1.03-2.33-1.01-2.3,1.29-3.26,2.59-1.08,5.15-2.24,7.72-3.37,.51-.23,1.01-.51,1.63-.56Z"/><path class="cls-1" d="M505.58,98.78c1.06,.07,1.76,.56,2.18,1.45,.62,1.32,1.25,2.64,1.87,3.96,18.41,39.1,36.82,78.19,55.23,117.29,.19,.41,.42,.8,.56,1.23,.3,.93-.26,1.63-1.21,1.41-4.29-1-8.05-2.68-10.13-7.01-2-4.15-4.26-8.17-6.41-12.25-17.66-33.64-35.32-67.28-52.98-100.92-1.32-2.51-1.27-2.64,1.56-3.15,2.71-.49,5.4-1.06,8.07-1.76,.43-.11,.88-.18,1.25-.26Z"/><path class="cls-1" d="M479.02,102.53c1.63-.07,3.27-.09,4.89-.24,1.43-.13,2.3,.43,2.98,1.67,3.65,6.65,7.35,13.28,11.02,19.91,17.05,30.78,34.09,61.56,51.14,92.33,.25,.44,.53,.87,.72,1.34,.36,.89-.23,1.68-1.14,1.38-4.34-1.4-8.43-2.86-11.08-7.25-21.39-35.41-42.95-70.73-64.45-106.07-.23-.38-.49-.76-.69-1.16-.56-1.11-.22-1.7,1.05-1.75,1.52-.06,3.04-.06,4.56-.08,.34,0,.67-.03,1.01-.05,0-.01,0-.03,0-.04Z"/><path class="cls-1" d="M450.62,101.77c3.48,.2,6.97,.38,10.45,.62,1.7,.11,2.89,1.06,3.78,2.49,2.51,4,5.06,7.98,7.6,11.96,19.61,30.76,39.22,61.53,58.83,92.29,.3,.47,.6,.95,.89,1.43,.24,.41,.33,.83-.02,1.25-.35,.41-.8,.36-1.24,.24-.32-.09-.63-.24-.94-.37-1.6-.68-3.21-1.36-4.81-2.05-2.49-1.07-4.5-2.73-6.05-4.96-23.12-33.44-46.23-66.88-69.35-100.31-.13-.19-.26-.37-.38-.56-.31-.47-.68-.95-.39-1.55,.35-.71,1.02-.55,1.63-.48Z"/><path class="cls-1" d="M425.76,99.32c3.81,.4,7.27,.81,10.75,1.12,2.08,.18,3.53,1.21,4.71,2.87,4.18,5.86,8.41,11.68,12.62,17.52,19.13,26.55,38.25,53.11,57.37,79.66,.33,.46,.66,.91,.95,1.39,.22,.36,.2,.77-.07,1.11-.27,.35-.67,.39-1.07,.3-.22-.05-.42-.14-.63-.23-2.66-1.21-5.33-2.39-7.97-3.64-2.13-1.02-3.7-2.69-5.13-4.54-8.43-10.9-16.88-21.78-25.31-32.67-15.52-20.06-31.03-40.12-46.55-60.18-.14-.18-.28-.35-.41-.53-.36-.49-.9-.94-.55-1.64,.35-.71,1.04-.53,1.3-.52Z"/><path class="cls-1" d="M400.22,95.9c2.74,.39,5.63,.8,8.53,1.21,1,.14,2,.34,3.01,.44,1.75,.16,3.02,1.04,4.09,2.38,4.03,5.06,8.09,10.1,12.14,15.15,20.02,24.91,40.04,49.82,60.05,74.73,.39,.48,.78,.96,1.16,1.45,.3,.38,.44,.79,.13,1.24-.35,.5-.84,.51-1.35,.33-.32-.11-.62-.25-.93-.39-2.57-1.15-5.11-2.33-7.7-3.43-2.39-1.02-4.31-2.57-5.99-4.53-10.83-12.65-21.71-25.27-32.55-37.92-13.73-16.02-27.45-32.06-41.17-48.09-.18-.21-.37-.43-.55-.64-.4-.44-.68-.93-.37-1.52,.3-.56,.84-.45,1.51-.42Z"/><path class="cls-1" d="M372.8,91.54c3.17,.5,6.33,.99,9.5,1.5,.72,.11,1.43,.32,2.16,.39,2.27,.22,3.95,1.37,5.43,3.05,11.73,13.29,23.49,26.55,35.25,39.81,12.62,14.23,25.24,28.45,37.86,42.68,.37,.42,.75,.84,1.08,1.3,.24,.34,.23,.76-.01,1.11-.26,.37-.65,.44-1.05,.33-.43-.12-.85-.28-1.26-.46-2.69-1.14-5.36-2.32-8.06-3.44-2.86-1.18-5.28-2.95-7.39-5.19-7.05-7.51-14.12-14.99-21.17-22.49-17.42-18.52-34.84-37.05-52.26-55.58-.35-.37-.7-.74-1.03-1.12-.35-.39-.64-.8-.34-1.36,.3-.55,.79-.56,1.32-.53Z"/><path class="cls-1" d="M346.34,89.81c2.32,0,4.64,.02,6.96,.02,1.4,.08,2.81,.18,4.21,.22,2.23,.06,3.95,1.06,5.46,2.64,4.21,4.38,8.45,8.72,12.69,13.08,13.91,14.33,27.82,28.65,41.72,42.98,6.07,6.26,12.12,12.53,18.18,18.8,.27,.28,.55,.57,.81,.86,.36,.42,.53,.87,.15,1.37-.37,.49-.85,.48-1.36,.27-.31-.13-.62-.26-.93-.39-3.12-1.27-6.23-2.57-9.37-3.79-2.66-1.04-4.99-2.56-7.03-4.55-14.25-13.91-28.49-27.82-42.74-41.74-9.37-9.16-18.74-18.32-28.11-27.49-.28-.28-.6-.52-.83-.84-.38-.52-.4-1.04,.19-1.45Z"/><path class="cls-1" d="M331.83,89.85c.84,0,1.69-.04,2.53,0,1.78,.11,3.16,1.01,4.42,2.21,7.69,7.34,15.4,14.66,23.11,21.98,14.48,13.75,28.97,27.5,43.45,41.24,.49,.46,.97,.93,1.44,1.42,.35,.36,.44,.78,.2,1.23-.26,.48-.7,.54-1.17,.43-.33-.07-.64-.21-.95-.32-3.63-1.35-7.26-2.71-10.89-4.06-2.4-.89-4.52-2.23-6.42-3.95-20.95-18.94-41.91-37.87-62.86-56.8-.25-.23-.49-.46-.75-.68-.44-.38-.83-.78-.68-1.43,.17-.71,.8-.74,1.34-.79,1.91-.17,3.81-.3,5.72-.43,.5-.03,1.01,0,1.52,0v-.06Z"/><path class="cls-1" d="M244.15,301.26v-2.07c0-12.54,0-25.09,0-37.63,0-.45,.02-.9,0-1.35-.03-.66,.31-.88,.93-.87,1.07,.02,2.14,.03,3.21,0,.68-.02,.89,.34,.88,.94,0,.39,0,.79,0,1.18,0,15.69,0,31.39,0,47.08,0,.39,0,.79,0,1.18,0,.52-.23,.85-.78,.91-.06,0-.11,.01-.17,.03q-3.02,.9-4.84-1.73c-9.17-13.22-18.35-26.44-27.52-39.65-.25-.35-.51-.69-1.07-.99,0,.58,0,1.17,0,1.75,.02,12.94,.03,25.88,.05,38.81,0,.39,0,.79,0,1.18-.03,1.25-.03,1.26-1.34,1.28-.9,.01-1.8-.02-2.7,0-.69,.02-1.07-.2-1.01-.96,.03-.34,0-.67,0-1.01,0-15.69,0-31.39,0-47.08,0-.28,.03-.57,0-.84-.09-.78,.26-1.1,1.02-1.21,.94-.14,1.89-.34,2.79-.63,.9-.28,1.41-.06,1.94,.74,1.67,2.54,3.44,5.01,5.17,7.51,7.36,10.64,14.72,21.28,22.08,31.92,.31,.45,.54,.99,1.35,1.48Z"/><path class="cls-1" d="M333.1,312.34c-1.8,0-3.61,0-5.41,0-2.24-.5-4.51-.89-6.64-1.85-5.45-2.46-9.31-6.53-11.5-12.01-3.8-9.51-3.66-19.03,1.04-28.21,4.37-8.54,13.26-12.82,22.63-11.74,9.04,1.04,15.15,6.01,18.45,14.28,3.48,8.75,3.34,17.61-.56,26.22-3.28,7.24-8.91,11.7-16.87,13.04-.39,.06-.76,.19-1.14,.28Zm-20.66-27.21c-.06,4.75,.81,9.28,3.1,13.49,3.89,7.17,11.61,10.53,19.49,8.44,5.66-1.5,9.29-5.27,11.54-10.51,1.12-2.61,1.7-5.35,1.93-8.17,.48-5.84-.3-11.45-3.21-16.63-3.78-6.74-11.34-10-18.87-8.18-4.89,1.18-8.45,4.07-10.87,8.42-2.27,4.08-3.14,8.51-3.1,13.14Z"/><path class="cls-1" d="M645.97,312.34c-1.8,0-3.61,0-5.41,0-.88-.18-1.76-.35-2.64-.55-7.46-1.77-12.65-6.34-15.49-13.31-3.87-9.49-3.66-19.02,1.03-28.21,4.37-8.56,13.28-12.82,22.62-11.75,9.05,1.04,15.14,6.01,18.45,14.28,3.49,8.75,3.34,17.61-.56,26.21-3.28,7.24-8.9,11.71-16.86,13.04-.39,.06-.76,.19-1.14,.28Zm15.51-25.41c0-6.76-1.12-11.37-3.4-15.31-3.85-6.66-11.3-9.86-18.77-8.07-5.15,1.24-8.81,4.35-11.21,8.99-2.7,5.23-3.19,10.84-2.6,16.59,.34,3.39,1.31,6.61,2.96,9.6,3.91,7.07,11.57,10.39,19.39,8.33,5.72-1.51,9.38-5.33,11.61-10.65,1.46-3.47,1.97-7.13,2.01-9.48Z"/><path class="cls-1" d="M119.91,311.24c0-16.5,0-33.01,0-49.51,0-2.24-.13-2.1,2.1-2.1,4.49,0,8.99-.02,13.48-.03,3.89,.33,7.38,1.54,9.94,4.65,4.71,5.72,3.28,14.43-2.96,18.37-.56,.36-1.15,.68-1.9,1.13,.84,.34,1.54,.59,2.21,.89,3.66,1.66,6.46,4.13,7.32,8.23,1.47,7.04-.9,14.47-9.58,17.31-1.72,.56-3.48,.98-5.28,1.05-5.11,.2-10.23,.18-15.34,.02Zm5.31-14.72c0,2.98,0,5.95,0,8.93,0,1.36,.03,1.37,1.43,1.38,2.08,.01,4.16,.05,6.24,0,2.26-.06,4.48-.37,6.57-1.29,3.09-1.36,5.17-3.6,5.63-7.02,.73-5.45-1.2-9.55-6.66-11.3-.86-.27-1.72-.48-2.61-.62-3.24-.53-6.51-.16-9.76-.28-.86-.03-.83,.54-.83,1.12,0,3.03,0,6.06,0,9.09Zm0-23.57c0,2.59-.01,5.17,0,7.76,0,1.24,.03,1.27,1.17,1.28,2.31,0,4.61,0,6.92-.04,1.36-.02,2.67-.35,3.94-.84,3.84-1.48,6.01-5.23,5.59-9.61-.36-3.78-2.84-6.34-6.95-7.17-3.29-.66-6.62-.24-9.93-.34-.75-.02-.75,.51-.75,1.03,0,2.64,0,5.29,0,7.93Z"/><path class="cls-1" d="M312.13,91.88c2.23,.02,3.83,.82,5.28,2.1,5.64,5,11.31,9.98,16.97,14.97,13.35,11.75,26.7,23.5,40.05,35.26,.51,.45,1.01,.9,1.52,1.34,.43,.38,.59,.86,.31,1.36-.29,.53-.81,.54-1.34,.38-.32-.1-.64-.21-.96-.31-3.05-.97-6.11-1.93-9.16-2.9-3.37-1.07-6.41-2.73-9.11-5-17.19-14.44-34.38-28.9-51.57-43.35-.22-.18-.45-.34-.64-.55-.77-.81-.61-1.68,.45-1.89,2.81-.56,5.62-1.15,8.21-1.42Z"/><path class="cls-1" d="M385.38,285.24c0-7.87,0-15.74,0-23.62,0-.34,0-.67,0-1.01,.04-1.22,.04-1.26,1.2-1.26,4.9,0,9.8-.08,14.69,.04,3.67,.09,7.25,.79,10.68,2.2,6.53,2.69,10.96,7.36,13.16,14.05,2.06,6.27,2.14,12.63,.13,18.9-2.85,8.89-9.2,13.99-18.16,16.04-2.31,.53-4.66,.77-7.03,.76-4.33-.02-8.67,0-13,0-1.74,0-1.67,.12-1.67-1.63,0-8.15,0-16.31,0-24.46Zm5.19-.04c0,2.48,0,4.95,0,7.43,0,4.27,.02,8.55-.01,12.82,0,.84,.22,1.25,1.13,1.19,.9-.05,1.8,0,2.7-.01,3.49-.06,6.98,.2,10.45-.39,7.57-1.3,12.94-5.26,15.25-12.78,1.14-3.69,1.32-7.49,.94-11.35-.97-10.02-7.64-16.77-17.6-17.79-2.98-.31-5.96-.22-8.94-.26-1.01-.01-2.03,.02-3.04,0-.66-.02-.92,.27-.88,.91,.02,.39,0,.79,0,1.18,0,6.36,0,12.71,0,19.07Z"/><path class="cls-1" d="M711.87,310.23c-1.78,.58-3.5,.82-5.19,1.2-.72,.16-.81-.46-1.02-.89-1.77-3.64-3.51-7.29-5.28-10.93-1.11-2.27-2.18-4.56-3.41-6.77-1.63-2.94-4.01-4.44-7.37-4.47-1.37-.01-1.4-.06-1.38-1.39,.01-.94-.4-2.11,.2-2.77,.62-.69,1.81-.24,2.74-.27,2.09-.07,4.16-.32,6.13-1.05,5.86-2.18,8.16-9.52,4.61-14.69-1.23-1.79-3-2.85-5.05-3.47-1.24-.38-2.53-.6-3.82-.63-2.64-.07-5.29-.01-7.94-.06-.82-.02-1.13,.29-1.07,1.08,.03,.45,0,.9,0,1.35,0,14.29,0,28.57,0,42.86,0,2.25,.14,2.03-1.98,1.99-1.05-.02-2.36,.49-3.07-.26-.64-.67-.21-1.93-.21-2.93-.01-15.52-.01-31.05,0-46.57,0-2.53-.29-2.19,2.28-2.2,3.83-.02,7.66-.01,11.49,0,2.26,0,4.49,.31,6.65,1,7.2,2.29,10.14,7.8,9.47,14.8-.55,5.76-3.78,9.58-9.12,11.7-.41,.16-.89,.19-1.28,.59,.67,.63,1.35,1.25,2,1.89,.85,.83,1.56,1.78,2.11,2.83,3.09,5.81,6.17,11.62,9.25,17.43,.08,.15,.13,.31,.27,.65Z"/><path class="cls-1" d="M155.9,311.23c.02-.82,.41-1.46,.67-2.12,6.26-16.01,12.53-32.01,18.82-48.01,.96-2.44,.48-2.02,2.96-2.06,.62-.01,1.24,0,1.86,0,1.18,.02,1.26-.31,1.91,1.35,3.67,9.36,7.38,18.71,11.07,28.06,2.72,6.9,5.44,13.79,8.15,20.7,.24,.62,.59,1.21,.64,2.04-1.65,.3-3.31,.11-4.95,.11-.56,0-.63-.57-.79-.97-1.02-2.62-2.03-5.24-3.05-7.86-.87-2.25-1.79-4.49-2.6-6.76-.3-.83-.74-1.12-1.6-1.12-6.81,.03-13.62,.04-20.43-.01-1.03,0-1.34,.5-1.64,1.3-1.78,4.73-3.61,9.44-5.37,14.18-.34,.91-.75,1.39-1.8,1.29-1.27-.13-2.57,.09-3.86-.12Zm23.03-45.68c-.49,.25-.52,.67-.66,1.03-2.8,7.29-5.59,14.57-8.39,21.86-.1,.26-.21,.52-.29,.79-.11,.41,.07,.65,.49,.67,.34,.02,.67,.02,1.01,.02,5.18,0,10.35,0,15.53,0,.34,0,.68,0,1.01-.02,.42-.02,.62-.25,.5-.66-.11-.38-.26-.74-.4-1.11-1.71-4.4-3.42-8.79-5.13-13.19-1.22-3.13-2.45-6.26-3.67-9.39Z"/><path class="cls-1" d="M582.68,311.33c-1.47,0-2.82-.07-4.16,.02-.99,.07-1.37-.37-1.69-1.22-1.77-4.67-3.61-9.32-5.4-13.99-.7-1.83-.68-1.54-2.3-1.54-6.47,0-12.94,0-19.42,0-1.48,0-1.5-.27-2.16,1.48-1.74,4.63-3.52,9.24-5.3,13.85-.57,1.47-.27,1.38-2.03,1.39-1.18,0-2.35,0-3.5,0-.29-.64,.08-1.07,.25-1.51,6.43-16.42,12.89-32.84,19.32-49.26,.74-1.88,.63-1.53,2.3-1.51,1.22,.02,2.65-.48,3.61,.26,.88,.68,.99,2.09,1.43,3.18,6.16,15.62,12.32,31.25,18.48,46.88,.22,.57,.55,1.1,.56,1.95Zm-23-45.61c-.13,0-.27,0-.4,0-3.07,8.01-6.14,16.01-9.23,24.07,3.28,.35,17.64,.21,18.93-.19-3.1-7.97-6.2-15.92-9.3-23.88Z"/><path class="cls-1" d="M437.29,285.29c0-7.82,0-15.63,0-23.45,0-.34,0-.67,0-1.01,.02-1.46,.02-1.48,1.49-1.48,8.11,0,16.21,0,24.32,0,1.4,0,1.41,.02,1.43,1.37,.01,.84-.02,1.69,0,2.53,.01,.57-.23,.82-.8,.8-.39-.02-.79,0-1.18,0-6.02,0-12.05,0-18.07,0-.39,0-.79,0-1.18,0-.48,0-.73,.22-.72,.71,0,.28,0,.56,0,.84,0,4.84,0,9.67,0,14.51,0,1.62,.01,1.63,1.7,1.64,4.67,0,9.34,0,14.02,0,1.64,0,1.63,.01,1.88,1.59,.09,.55,.21,1.1,.28,1.66,.19,1.51,.17,1.54-1.31,1.54-2.93,.01-5.85,0-8.78,0-2.14,0-4.28-.01-6.42,0-1.33,.01-1.36,.03-1.36,1.27-.01,5.85-.01,11.7,0,17.54,0,1.23,.03,1.26,1.37,1.26,6.42,0,12.83,0,19.25,0,2.21,0,2.03-.24,2.04,1.94q0,2.75-2.74,2.75c-7.71,0-15.42,0-23.14,0-.39,0-.79-.02-1.18,0-.66,.04-.91-.28-.89-.91,.02-.39,0-.79,0-1.18,0-7.99,0-15.97,0-23.96Z"/><path class="cls-1" d="M722.69,285.25c0-7.87,0-15.75,0-23.62,0-.39,.04-.79,0-1.18-.1-.92,.36-1.13,1.19-1.12,8.28,.02,16.55,0,24.83,.02,1.21,0,1.22,.03,1.25,1.21,.02,.9-.01,1.8,0,2.7,0,.58-.26,.81-.82,.79-.39-.01-.79,0-1.18,0-6.14,0-12.27,0-18.41,0-1.54,0-1.55,.01-1.55,1.58,0,4.84,0,9.67,0,14.51,0,1.58,.02,1.6,1.56,1.6,4.73,0,9.46,0,14.19,0,1.55,0,1.56,.01,1.81,1.51,.07,.39,.09,.78,.15,1.17q.35,2.13-1.72,2.13c-4.84,0-9.68,0-14.52,0-1.45,0-1.47,.02-1.47,1.5,0,5.68,0,11.36,0,17.04,0,1.52,.02,1.53,1.61,1.53,6.36,0,12.72,0,19.08,0,.39,0,.79,0,1.18,0,.45,0,.78,.15,.78,.66,0,1.12,0,2.25,0,3.37,0,.4-.2,.63-.61,.65-.39,.02-.79,.02-1.18,.02-8.11,0-16.21,0-24.32,0-.23,0-.45-.02-.68,0-.82,.08-1.3-.17-1.19-1.11,.05-.39,0-.79,0-1.18,0-7.93,0-15.86,0-23.79Z"/><path class="cls-1" d="M293.74,95.92c1.85-.07,3.37,.67,4.77,1.82,5.65,4.64,11.32,9.26,16.98,13.9,9.96,8.17,19.91,16.36,29.87,24.54,.35,.29,.69,.58,1.01,.89,.37,.36,.41,.79,.18,1.23-.21,.39-.58,.51-1,.47-.06,0-.11,0-.17-.02-4.05-1.14-8.27-1.67-12.2-3.25-2.26-.91-4.35-2.09-6.26-3.6-13.36-10.5-26.73-20.99-40.08-31.49-.58-.46-1.52-.78-1.34-1.76,.18-.97,1.17-.95,1.88-1.18,1.44-.47,2.92-.83,4.37-1.28,.66-.2,1.32-.27,2-.27Z"/><path class="cls-1" d="M492.12,259.34c1.46,0,2.86,.05,4.26-.02,.89-.05,1.29,.32,1.58,1.12,1.45,3.9,2.94,7.78,4.42,11.67,3.91,10.24,7.81,20.48,11.72,30.72,.18,.47,.38,.93,.57,1.4,.72-.12,.69-.74,.85-1.16,4.29-11.29,8.57-22.6,12.85-33.9,1.09-2.89,2.24-5.76,3.27-8.68,.32-.91,.78-1.22,1.72-1.17,1.29,.08,2.58,.02,3.94,.02,.17,.71-.2,1.23-.41,1.77-5.39,13.82-10.8,27.64-16.2,41.46-1.02,2.62-2.09,5.22-3.04,7.86-.35,.97-.86,1.32-1.84,1.22-.67-.07-1.35,0-2.03-.01-1.38-.01-1.39,0-1.91-1.34-3.39-8.63-6.78-17.26-10.17-25.9-3.1-7.9-6.19-15.8-9.29-23.7-.14-.36-.35-.71-.31-1.36Z"/><path class="cls-1" d="M287.15,312.25c-1.69,.25-3.38,.04-5.07,.1-1.74-.47-3.54-.62-5.24-1.24-5.98-2.17-10.39-6.14-12.9-11.92-4.11-9.48-4.06-19.07,.49-28.39,4.21-8.62,13.06-13.22,23.06-12.36,3.82,.33,7.38,1.45,10.69,3.38,1.89,1.1,1.46,.95,.8,2.4-.44,.96-.92,1.91-1.44,2.97-.84-.48-1.57-.89-2.29-1.3-4.37-2.46-9.03-3.46-13.99-2.45-6.1,1.25-10.21,4.98-12.64,10.62-2.03,4.71-2.4,9.68-1.94,14.73,.19,2.13,.63,4.22,1.32,6.25,3.28,9.65,11.98,14.4,21.92,11.99,2.55-.62,4.87-1.73,7.11-3.03,.43-.25,.81-.62,1.5-.75,.53,1.12,1.06,2.28,1.63,3.41,.35,.69-.17,.9-.58,1.17-2.65,1.76-5.52,3.01-8.61,3.78-.6,.15-1.21,.23-1.82,.34-.68,.02-1.39-.2-2,.3Z"/><path class="cls-1" d="M758.93,308.7c.6-1.51,1.27-2.97,2.08-4.36,1.53,.6,2.97,1.25,4.45,1.74,3.41,1.12,6.91,1.59,10.47,.82,5.77-1.24,8.74-6.18,7.15-11.84-.58-2.04-1.93-3.53-3.61-4.74-1.93-1.39-4.06-2.4-6.23-3.35-2.06-.91-4.09-1.87-6.06-2.97-1.78-.99-3.45-2.13-4.82-3.66-5.58-6.24-3.29-16.46,4.47-20.04,2.02-.93,4.15-1.44,6.35-1.55,3.81-.18,7.52,.31,11.04,1.87q1.49,.66,.77,2.21c-.33,.71-.71,1.41-1,2.14-.28,.71-.65,.75-1.29,.43-2.39-1.23-4.96-1.78-7.63-1.93-1.87-.1-3.71,.08-5.46,.78-5.4,2.14-6.72,9.28-2.45,13.22,1.12,1.04,2.41,1.86,3.77,2.53,1.91,.95,3.85,1.85,5.78,2.76,2.24,1.06,4.43,2.2,6.43,3.68,3.64,2.68,5.6,6.16,5.46,10.8-.07,2.27-.18,4.48-1.2,6.56-2.13,4.32-5.71,6.76-10.3,7.67-6.15,1.22-12.08,.3-17.72-2.45-.15-.07-.26-.2-.45-.34Z"/><path class="cls-1" d="M277.66,101.43c2.11,.08,3.6,.76,4.98,1.82,7,5.39,14.02,10.75,21.03,16.13,4.64,3.56,9.27,7.14,13.9,10.72,.35,.27,.74,.53,1.01,.88,.55,.69,.17,1.5-.73,1.55-.39,.02-.78-.07-1.17-.14-2.54-.47-5.1-.87-7.62-1.45-3.48-.8-6.74-2.2-9.63-4.32-9.3-6.82-18.57-13.68-27.85-20.53-.27-.2-.56-.39-.77-.65-.42-.51-.47-1.17,.12-1.45,2.26-1.09,4.48-2.36,6.72-2.55Z"/><path class="cls-1" d="M616.81,311.1c-.52,.34-1.04,.22-1.54,.22-7.59,0-15.19,0-22.78,0-.28,0-.56-.02-.84,0-.57,.03-.83-.22-.8-.79,.02-.39,0-.79,0-1.18,0-16.02,0-32.03,0-48.05,0-.22,0-.45,0-.67,.03-1.26,.03-1.26,1.34-1.28,.96-.01,1.91,.03,2.87-.01,.74-.03,1.01,.3,.97,1-.03,.45,0,.9,0,1.35,0,14.16,0,28.32,0,42.48,0,.39,0,.79,0,1.18,.03,1.25,.04,1.28,1.35,1.28,5.51,.01,11.03,0,16.54,0,.39,0,.79,.03,1.18,0,.76-.07,1.11,.22,1.19,1.02,.12,1.17,.35,2.32,.53,3.46Z"/><path class="cls-1" d="M264.07,107.79c1.48,.07,2.81,.43,3.99,1.28,7.7,5.56,15.39,11.12,23.09,16.67,.14,.1,.28,.2,.41,.3,.41,.33,.77,.7,.54,1.28-.25,.64-.8,.74-1.39,.64-3.65-.59-7.38-.76-10.92-1.95-2.3-.78-4.49-1.78-6.48-3.16-4.98-3.46-9.96-6.92-14.94-10.39-.28-.19-.57-.37-.81-.6-.56-.55-.61-1.21,.04-1.56,2.05-1.12,4.04-2.48,6.48-2.51Z"/><path class="cls-1" d="M263.7,125.34c-6.52,.06-12.22-2.65-17.51-6.48-.94-.68-.98-1.35-.07-2,.91-.65,1.86-1.28,2.87-1.74,2.07-.96,4.22-.89,6.12,.34,4,2.6,7.9,5.34,11.85,8.01,.39,.26,.74,.57,.72,1.06-.02,.68-.48,1.01-1.12,.99-.9-.02-1.79-.11-2.87-.19Z"/><path class="cls-1" d="M287.15,312.25c.61-.5,1.32-.28,2-.3-.49,.37-1.12,.24-1.66,.43-.11-.05-.23-.09-.34-.14Z"/></g></g></svg>