<?xml version="1.0" encoding="UTF-8"?><svg id="Capa_1" xmlns="http://www.w3.org/2000/svg" viewBox="0 0 1229 400"><defs><style>.cls-1{fill:#fff;}</style></defs><g id="rjrtLB"><g><path class="cls-1" d="M779.85,254.89c-4.03-2.33-5.21-5.91-5.13-10.41,.24-13.43-1.2-26.86-.2-40.3,.44-5.91,1.29-11.73,3.5-17.26,3.7-9.28,11.96-14.49,21.95-13.92,4.44,.25,7.79,2.69,10.75,5.7,6.73,6.84,11.64,15,16.31,23.28,5.69,10.07,10.71,20.53,17.32,30.07,1.3,1.88,2.83,3.61,4.35,5.32,4.78,5.4,10.89,2.08,12.99-2.03,1.26-2.45,1.91-5.08,2.22-7.83,1.4-12.37-.65-24.65-.96-36.97-.08-2.95-.26-5.9-.26-8.84,0-4.98,2.66-7.94,7.09-8.05,4.41-.1,7.67,3.07,7.84,7.88,.3,8.41,.55,16.82,.67,25.23,.1,6.99,.25,13.97-.48,20.96-1.33,12.69-5.21,23.45-19.18,27.17h-8.53c-8.09-4.05-13.34-10.93-18.33-18.14-7.37-10.64-12.5-22.51-18.97-33.65-2.53-4.35-5.05-8.71-8.5-12.41-3.97-4.24-9.08-3.82-12.49,.9-.98,1.35-1.56,2.87-2.02,4.45-1.68,5.76-1.59,11.67-1.4,17.56,.35,10.59,.77,21.18,1.41,31.75,.26,4.25-.97,7.41-4.69,9.53h-5.25Z"/><path class="cls-1" d="M717.2,254.26c-13.83-1.01-27.33-3.31-39.65-10.15-9.9-5.49-17.31-13.25-19.65-24.55-2.71-13.12,2.34-23.84,12.29-32.24,8.33-7.04,18.46-10.16,29.02-12.03,14.33-2.54,28.7-2.46,43.1-.61,.22,.03,.44,.05,.65,.09,4.2,.82,6.59,3.24,6.22,6.32-.36,3.02-3.8,5.14-7.93,4.61-4.78-.61-9.56-1.09-14.36-1.27-10.55-.4-21,.2-31.07,3.64-9,3.08-16.39,8.14-20.36,17.26-1.03,2.37-.85,3.2,2.03,3.17,12.57-.11,25.15-.05,37.72-.01,5.27,.01,7.78,3.43,6.31,8.41-.84,2.85-2.77,3.92-5.65,3.91-12.47-.05-24.93-.04-37.4-.02-.92,0-2.2-.5-2.7,.43-.5,.93,.56,1.78,1.12,2.52,7.15,9.54,17.22,14.11,28.46,16.71,15.95,3.68,31.83,3.45,47.7-.56,4.85-1.23,8.62,.2,9.52,3.31,.88,3.04-1.71,6.19-6.54,7.66-5.03,1.53-10.16,2.56-15.44,2.73-1.48,.05-3-.03-4.07,1.3h-3.94c-.32-.8-1.03-.66-1.66-.66-4.58,0-9.15,.02-13.73,.03Z"/><path class="cls-1" d="M919.28,254.32c-3.93-.28-7.85-.62-11.66-1.68-5.87-1.63-8.37-4.79-8.41-10.88-.08-12.35-.05-24.71-.02-37.06,.01-4.63,2.51-7.4,6.49-7.38,4.13,.01,6.7,2.86,6.71,7.62,.04,11.15,.07,22.3-.04,33.45-.02,2.37,.52,3.42,3.08,3.74,15.75,1.94,31.25,1.58,45.99-5.03,8.64-3.87,14.62-10.09,16.23-19.92,1.06-6.48-1.49-11.56-5.64-16.05-7.67-8.29-17.58-12.25-28.43-14.42-15.5-3.11-30.84-2.65-46.09,1.43-.84,.22-1.71,.41-2.57,.43-2.42,.04-4.69-.51-5.75-2.94-1.12-2.58,.06-4.62,1.97-6.39,1.84-1.71,4.13-2.51,6.47-3,24.08-4.97,47.78-4.18,70.82,5.11,6.13,2.47,11.64,6.05,16.18,10.94,13.01,14.02,12.28,31.32-.1,44.75-8.2,8.9-19.12,12.75-30.62,15.19-3.2,.68-6.48,.94-9.7,1.56-1.19,.23-2.67-.24-3.53,1.11h-4.6c-5.57-1.13-11.21-.32-16.81-.57Z"/><path class="cls-1" d="M162.13,254.89c-1.62-1.39-3.7-.79-5.54-1.25-2.11-.53-4.32-.74-6.37-1.42-4.75-1.57-7.12-4.81-7.15-9.82-.07-12.67-.07-25.35-.03-38.03,.01-4.35,2.62-7.08,6.5-7.06,4.01,.02,6.67,2.83,6.69,7.31,.05,11.25,.08,22.51-.04,33.76-.02,2.36,.51,3.43,3.05,3.75,14.61,1.86,29.01,1.48,42.98-3.68,6.36-2.35,11.94-5.9,15.75-11.74,5.86-8.97,5.02-18.29-2.43-25.99-7.84-8.1-17.72-11.98-28.59-14.11-15.41-3.03-30.62-2.46-45.74,1.57-3.53,.94-6.47,.3-8.61-2.85v-3.94c4.92-5.48,11.76-6.23,18.37-7,18.4-2.16,36.64-1.44,54.45,4.28,6.92,2.22,13.46,5.26,19.08,9.91,20.62,17.03,16.01,41.92-3.72,54.78-9.55,6.22-20.35,8.8-31.48,10.29-1.64,.22-3.48-.14-4.84,1.24h-4.6c-4.6-.87-9.19-.85-13.79,0h-3.94Z"/><path class="cls-1" d="M400.42,254.89c-13.14-4.21-21.88-13.89-30.05-24.23-10.89-13.77-19.76-28.81-27.4-44.59-1.4-2.89-2.06-5.82-.28-8.74,1.58-2.6,3.97-4.01,7.09-3.94,3.55,.07,5.45,2.26,6.85,5.22,7.25,15.34,15.58,30.06,25.69,43.72,3.58,4.84,7.45,9.44,12.17,13.24,6.27,5.06,10.77,5.16,17.11,.3,6.23-4.78,10.93-10.97,15.43-17.3,8.95-12.59,16.62-25.95,23.03-39.98,2.94-6.45,9.82-6.63,13.44-2.09,2.33,2.91,1.94,6.08,.43,9.26-6.64,13.94-14.48,27.18-23.55,39.68-3.21,4.43-6.61,8.69-10.31,12.73-6.84,7.48-14.25,14.08-24.4,16.72h-5.25Z"/><path class="cls-1" d="M557.97,254.89c-17.16-5.55-26.91-19.42-36.78-33.02-7.84-10.8-14.35-22.45-20.28-34.41-.19-.39-.37-.79-.55-1.19-2.54-5.61-1.31-10.06,3.37-12.21,4.44-2.03,7.92-.21,10.71,5.53,8.42,17.34,17.76,34.11,30.23,48.95,3.1,3.69,6.52,7.06,10.8,9.44,3.46,1.92,6.84,1.91,10.27-.02,5.76-3.24,9.99-8.11,13.97-13.2,10.83-13.83,19.47-29.01,27.08-44.78,2.95-6.12,6.52-8.08,11.1-5.84,4.68,2.28,5.79,6.72,2.87,12.62-9.76,19.77-21.02,38.56-36.4,54.59-5.96,6.21-12.7,11.2-21.15,13.54h-5.25Z"/><path class="cls-1" d="M350.53,254.89c-5.1-4.2-6.62-10.56-9.6-16.02-7.54-13.83-15.35-27.46-25.62-39.51-2.7-3.17-5.68-6.05-9.11-8.44-4.46-3.11-8.88-3.21-13.39-.11-7.16,4.93-12.33,11.71-17.26,18.67-8.6,12.15-16,25.03-22.33,38.5-1.45,3.08-3.23,5.58-6.42,6.92h-2.63c-7.11-3.64-8.27-6.76-4.7-14.14,8.7-17.95,19.03-34.88,32.19-49.96,4.97-5.7,10.43-10.89,17.14-14.57,7.35-4.04,14.62-3.76,21.79,.46,6.29,3.7,11.52,8.64,16.29,14.09,13.11,14.99,23.31,31.87,32.11,49.64,3.73,7.54,2.72,10.52-4.53,14.49h-3.94Z"/><path class="cls-1" d="M1106.77,254.89c-3.7-2.83-5.17-7.1-7.16-11.03-7.92-15.62-16.59-30.78-27.89-44.28-2.68-3.2-5.63-6.11-9.08-8.49-4.96-3.41-8.65-3.55-13.63-.23-7.44,4.95-12.61,12.05-17.66,19.2-8.15,11.54-15.14,23.77-21.25,36.5-1.57,3.26-3.14,6.41-6.39,8.33h-4.6c-6.08-4.79-6.8-7.39-3.34-14.42,8.81-17.89,19.09-34.86,32.3-49.9,4.77-5.44,10-10.38,16.34-14.02,7.75-4.46,15.39-4.19,22.93,.46,9.67,5.97,16.88,14.46,23.58,23.4,10.12,13.5,18.68,27.94,25.77,43.25,.13,.28,.39,.49,.58,.73v3.94c-.93,3.44-3.68,5.07-6.56,6.56h-3.94Z"/><path class="cls-1" d="M1110.71,254.89c2.88-1.49,5.63-3.12,6.56-6.56,0,2.19,.85,5.23-.24,6.32-1.09,1.09-4.14,.24-6.32,.24Z"/><path class="cls-1" d="M919.28,254.32c5.6,.24,11.24-.56,16.81,.57h-17.07c.14-.17,.23-.35,.26-.57Z"/><path class="cls-1" d="M717.2,254.26c4.58-.01,9.15-.03,13.73-.03,.63,0,1.34-.14,1.66,.66h-15.75c.12-.21,.24-.42,.37-.63Z"/><path class="cls-1" d="M166.07,254.89c4.6-.85,9.19-.87,13.79,0h-13.79Z"/><path class="cls-1" d="M646.61,213.9c0,10.93,0,21.86,0,32.78,0,3.08-1.04,5.57-4.02,6.9-2.84,1.26-5.56,.87-8.06-.9-2.17-1.54-2.83-3.85-2.83-6.33-.04-21.75-.08-43.49,0-65.24,.02-5.03,3.13-7.9,7.76-7.77,4.32,.12,7.1,3.19,7.12,8.11,.06,10.82,.02,21.64,.02,32.45Z"/><path class="cls-1" d="M489.26,214.06c0,10.6,.02,21.19,0,31.79-.01,5.57-2.56,8.48-7.29,8.42-4.65-.05-7.46-3.17-7.46-8.42-.02-21.41-.03-42.82-.01-64.23,0-5.28,2.61-8.19,7.2-8.24,4.77-.06,7.52,2.85,7.55,8.25,.06,10.81,.02,21.63,.02,32.44Z"/></g></g></svg>