<?xml version="1.0" encoding="UTF-8"?><svg id="Capa_1" xmlns="http://www.w3.org/2000/svg" viewBox="0 0 909 400"><defs><style>.cls-1{fill:#fff;}</style></defs><g id="sj83tF"><g><path class="cls-1" d="M112.27,266.43c-1.1-1.61,.35-2.63,.96-3.75,3.02-5.47,6.33-10.79,9.19-16.33,8.03-15.54,21.68-23.89,37.41-29.67,.95-.35,1.9-.72,2.85-1.09,1.52-.45,3.05-.89,4.57-1.34,.51-.1,1.02-.2,1.53-.3,3.59-.65,7.18-1.3,10.76-1.95,.52-.05,1.04-.11,1.56-.16,.64,0,1.28,.09,1.91,.01,15.21-1.98,30.36-1.13,45.52,.73,16.5,2.03,32.72,5.85,49.26,7.61,3.43,.36,6.88,.67,10.32,.86,3.41,.19,6.84,.44,10.24-.38-20.34-1.46-39.62-7.69-59.17-12.64-10.52-2.66-21.02-5.49-31.93-6.14-1.5-.61-3.05-.62-4.63-.48-6.63-1.11-13.29-.65-19.9-.02-12.76,1.23-25.34,3.34-36.95,9.25-.43-.54-2.85,.93-1.46-1.45,3.36-5.75,6.68-11.51,10.07-17.24,8.2-13.86,21.41-19.38,36.42-22.25,17.59-3.37,34.68-.5,51.74,3.38,16.84,3.83,33.57,8.17,50.8,10.16,29.96,3.46,57.54-2.66,82.51-19.87,1.2-.83,2.14-2.78,4.19-1.8l-.09-.02c-9.64,16.74-19.28,33.48-28.9,50.23-8.1,14.09-16.37,28.08-24.22,42.31-7.96,14.42-20.73,19.82-36.31,20.24-15.3,.41-30-3.03-44.55-7.33-14.59-4.31-28.7-10.28-43.77-12.98-3.5-.63-6.95-1.71-10.57-1.41-2.4-.98-4.93-.92-7.45-1.02-.78-.05-1.56-.11-2.34-.16-11.63-.83-23.17-.43-34.56,2.3-.6,.16-1.21,.33-1.81,.49,0,0-.3-.13-.3-.13l-.24,.22c-11.58,2.22-22.52,6.17-32.73,12.11h.03Z"/><path class="cls-1" d="M414.34,132.97c20.88,.05,41.77,.06,62.65,.18,10.2,.06,20.2,1.44,29.47,6.03,14.77,7.32,22.24,19.45,23.15,35.77,.95,17.04-4.8,30.88-19.55,40.28-2.33,1.48-.72,2.45,.05,3.59,9.49,13.97,18.99,27.93,28.49,41.9,.34,.5,.65,1.03,.97,1.55-.91,1.14-2.02,.69-2.93,.66-10.87-.26-21.78,.79-32.62-.77-7.54-1.09-13.26-4.78-17.35-11.34-5-8.03-10.43-15.79-15.57-23.74-1.03-1.59-2.14-2.2-4.03-2.1-3.32,.17-6.68,.26-9.99-.02-3.14-.26-4.15,.65-4.08,3.93,.22,10.12-.02,20.24,.14,30.36,.05,3.02-.9,3.82-3.88,3.77-10.5-.18-21.01-.03-31.52-.07-1.31,0-2.87,.63-3.87-.89,.05-1.15,.15-2.3,.15-3.44,0-40.36,0-80.72,.02-121.08,0-1.52,.2-3.05,.31-4.57Zm38.73,47.03h-.06c0,3.46,.11,6.92-.04,10.37-.11,2.52,.84,3.31,3.33,3.2,4.48-.19,8.96-.1,13.45-.05,4.24,.05,8.46,.05,12.52-1.37,5.44-1.91,8.28-5.92,8.3-11.6,.02-6.15-2.33-9.57-7.95-11.74-2.42-.94-4.93-1.41-7.49-1.43-6.53-.05-13.07,.08-19.6-.05-2.14-.04-2.58,.75-2.5,2.68,.14,3.32,.04,6.66,.04,9.99Z"/><path class="cls-1" d="M586.61,215.1c.05,.53,.1,1.06,.15,1.59-.2,.82,0,1.55,.49,2.22,1.19,8.44,6.84,14.41,15.14,16.01,9.07,1.75,17.54-1.54,21.63-8.55,2.14-3.67,3.42-7.65,3.24-11.99,.18-1,.51-2,.51-3-.01-25.66-.06-51.31-.11-76.97,.75-1.28,2.02-.9,3.11-.9,12.01-.03,24.03,.04,36.04-.06,2.29-.02,3.16,.53,3.05,2.96-.15,3.43,.12,6.87,.21,10.31-.08,.76-.24,1.51-.24,2.27-.01,22.32-.01,44.64-.01,66.96-1.13,9.06-3.37,17.73-8,25.76-8.08,14.02-21.19,20.08-36.11,23.38-3.73,.83-7.54,1.26-11.32,1.88-4.94,.33-9.88,.29-14.82,0-6.94-1.02-13.83-2.22-20.46-4.64-14.58-5.31-24.43-15.27-29.66-29.86-.43-1.19-.93-2.35-1.4-3.53,.13-.27,.08-.5-.13-.71-.17-.52-.33-1.04-.5-1.56-.67-4.91-1.6-9.8-1.6-14.79,.02-26.06,0-52.12,0-78.18,.48-.11,.96-.23,1.45-.34,11.63,.05,23.26,.28,34.89,.05,3.55-.07,4.15,1.02,4.13,4.27-.14,22.88-.09,45.76-.06,68.64,0,2.93,.23,5.86,.36,8.78Z"/><path class="cls-1" d="M743.85,132.25c17.7-.1,34.2,4.05,48.96,14.23,2.29,1.58,3.1,2.74,1.16,5.27-2.48,3.24-4.53,6.81-6.75,10.26-6.26,9.74-13.17,11.83-23.89,7.12-5.28-2.32-10.63-4.44-16.41-5.14-4.24-.51-8.44-.36-12.48,1.23-2.58,1.01-4.22,2.8-4.61,5.63-.4,2.99,1.61,4.38,3.74,5.66,4.35,2.6,9.21,3.77,14.08,4.88,9.87,2.24,19.57,4.98,28.64,9.61,20.27,10.35,26.25,32.35,14.25,51.73-8.31,13.42-20.92,20.12-35.79,22.81-26.31,4.75-50.62-.39-72.54-16.03-2.54-1.82-2.93-3.06-.74-5.56,3.45-3.94,6.58-8.18,9.63-12.45,4.1-5.73,9.65-7.2,16.23-6,3.96,.72,7.47,2.62,11.02,4.38,6.97,3.47,14.2,5.9,22.12,5.34,2.16-.15,4.38-.41,6.4-1.1,3.16-1.08,5.6-3.02,5.97-6.76,.38-3.89-1.59-6.34-4.77-7.99-6.34-3.27-13.43-4.04-20.22-5.82-8.19-2.15-16.37-4.37-23.68-8.77-21.27-12.8-23.78-41.28-5.22-57.95,10.7-9.62,23.64-13.42,37.6-14.55,2.42-.2,4.86-.03,7.3-.03Z"/><path class="cls-1" d="M308.72,166.59c-3.53-9.6-11.08-13.29-19.5-15.97-7.34-2.33-14.45-5.24-20.8-9.69-10.21-7.14-14.25-17.53-15.74-30.09,13.49,9.22,28.26,14.48,42.01,21.77,6.7,3.56,13.07,7.57,17.41,14.7,7.41-15.03,21.09-21.29,35.15-27.01,12.67-5.16,25.71-9.48,37.53-16.56,3.83-2.3,7.55-4.79,11.37-7.22,.73,1-.09,1.87-.38,2.72-6.85,20.33-20.92,33.22-41.13,39.72-6.45,2.07-12.94,4.04-19.43,5.98-11.52,3.44-19.83,10.84-26.48,21.66Z"/><path class="cls-1" d="M842,150.42c-.07,9.51-7.72,16.92-17.27,16.75-9.01-.17-16.4-7.9-16.23-16.99,.17-9.5,7.58-16.86,16.85-16.73,9.37,.13,16.72,7.63,16.65,16.97Zm-16.76-14.18c-7.79,.06-14.1,6.5-14.01,14.3,.09,7.54,6.6,13.98,14.05,13.87,7.68-.11,13.98-6.36,14.02-13.94,.05-7.85-6.32-14.3-14.07-14.24Z"/><path class="cls-1" d="M599.58,266.96c4.94,.29,9.88,.33,14.82,0-4.94,1.93-9.88,2.1-14.82,0Z"/><path class="cls-1" d="M587.25,218.9c-.49-.67-.69-1.4-.49-2.22,1.36,.48,1.58,1.2,.49,2.22Z"/><path class="cls-1" d="M547.94,228.23c.21,.21,.25,.44,.13,.71-.11-.15-.23-.3-.31-.47-.02-.04,.12-.16,.18-.24Z"/><path class="cls-1" d="M380.08,161.58c-.14-.21-.28-.42-.42-.64,.08-.02,.15-.04,.23-.06,.02,.22,.04,.44,.08,.67,.02,0,.11,.03,.11,.03Z"/><path class="cls-1" d="M112.25,266.41l-.57-.21c.43-.6,.38,.16,.59,.21,0,0-.02,0-.02,0Z"/><path class="cls-1" d="M832.79,158.95c-2.68,.8-4.68,.71-5.94-1.94-.49-1.02-1.26-1.92-2-2.79-.54-.65-1.41-.67-2.13-.48-1.44,.38-.88,1.66-.89,2.57-.02,1.6,.16,3.12-2.21,3.06-2.28-.06-1.84-1.65-1.85-2.97-.04-4.09-.03-8.18-.03-12.26,0-1.32,.02-2.63,1.95-2.54,2.8,.13,5.66-.14,8.38,.36,4.22,.77,6.39,5.88,3.44,8.8-2.81,2.78-1.33,4.37,.22,6.47,.36,.48,.63,1.03,1.06,1.73Zm-8.5-13.75c-1.41-.36-2.7-.12-2.57,2.38,.09,1.71,.16,3.08,2.4,2.78,1.81-.25,4.21,.14,4.37-2.5,.15-2.37-1.79-2.69-4.2-2.66Z"/></g></g></svg>