<?xml version="1.0" encoding="UTF-8"?><svg xmlns="http://www.w3.org/2000/svg" xmlns:xlink="http://www.w3.org/1999/xlink" viewBox="0 0 1330 1080"><defs><style>.cls-1{fill:none;}.cls-2{fill:url(#linear-gradient);}.cls-3{clip-path:url(#clippath);}.cls-4{fill:url(#radial-gradient);opacity:.5;}.cls-4,.cls-5{mix-blend-mode:lighten;}.cls-6{opacity:.1;}.cls-7{fill:#fff;}.cls-8{fill:#e5e5e5;}.cls-9{fill:#999;}.cls-10{fill:#cecece;}.cls-11{fill:#ccc;}.cls-12{fill:#dbdbdb;}.cls-13{fill:#e0e0e0;}.cls-14{fill:#adadad;}.cls-15{fill:#c6c6c6;}.cls-16{fill:#1e1e1e;}.cls-17{fill:#9b9b9b;}.cls-18,.cls-19{fill:#2d2d2d;}.cls-20{clip-path:url(#clippath-2);}.cls-5{fill:url(#linear-gradient-2);opacity:.8;}.cls-21{fill:#c9c9c9;opacity:.2;}.cls-22{fill:url(#linear-gradient-8);}.cls-23{fill:url(#linear-gradient-9);}.cls-24{fill:url(#linear-gradient-3);}.cls-25{fill:url(#linear-gradient-4);}.cls-26{fill:url(#linear-gradient-6);}.cls-27{fill:url(#linear-gradient-7);}.cls-28{fill:url(#linear-gradient-5);}.cls-29,.cls-19,.cls-30{opacity:.3;}.cls-31{fill:url(#linear-gradient-10);}.cls-32{isolation:isolate;}.cls-33{fill:#4f4f4f;opacity:.51;}.cls-30{fill:#5b5b5b;}.cls-34{fill:#707070;}.cls-34,.cls-35,.cls-36{opacity:.4;}.cls-35{fill:#afafaf;}.cls-36{fill:#b7b7b7;}</style><linearGradient id="linear-gradient" x1="212.27" y1="508.34" x2="1189.71" y2="508.34" gradientUnits="userSpaceOnUse"><stop offset="0" stop-color="#c5c5c5"/><stop offset=".09" stop-color="#b6b6b6"/><stop offset=".34" stop-color="#959595"/><stop offset=".59" stop-color="#7e7e7e"/><stop offset=".81" stop-color="#6f6f6f"/><stop offset="1" stop-color="#6b6b6b"/></linearGradient><linearGradient id="linear-gradient-2" x1="837.13" y1="646.62" x2="564.29" y2="284.54" gradientUnits="userSpaceOnUse"><stop offset="0" stop-color="#b5b5b5"/><stop offset=".1" stop-color="#919191"/><stop offset=".24" stop-color="#6a6a6a"/><stop offset=".38" stop-color="#494949"/><stop offset=".52" stop-color="#303030"/><stop offset=".67" stop-color="#1e1e1e"/><stop offset=".82" stop-color="#131313"/><stop offset="1" stop-color="#101010"/></linearGradient><radialGradient id="radial-gradient" cx="652.04" cy="457.15" fx="652.04" fy="457.15" r="765.05" gradientUnits="userSpaceOnUse"><stop offset="0" stop-color="#b5b5b5"/><stop offset=".1" stop-color="#919191"/><stop offset=".24" stop-color="#6a6a6a"/><stop offset=".38" stop-color="#494949"/><stop offset=".52" stop-color="#303030"/><stop offset=".67" stop-color="#1e1e1e"/><stop offset=".82" stop-color="#131313"/><stop offset="1" stop-color="#101010"/></radialGradient><clipPath id="clippath"><path class="cls-4" d="M532.17,735.46l-298.94-172.64c-13.34-7.7-11.67-21.15,3.74-30.04L817.21,197.86c15.4-8.89,38.7-9.86,52.04-2.16l298.94,172.64c13.34,7.7,11.67,21.15-3.74,30.04l-580.24,334.91c-15.4,8.89-38.7,9.86-52.04,2.16Z"/></clipPath><linearGradient id="linear-gradient-3" x1="121.32" y1="806.68" x2="258.73" y2="886.02" gradientUnits="userSpaceOnUse"><stop offset="0" stop-color="#c5c5c5"/><stop offset=".25" stop-color="#b3b3b3"/><stop offset=".75" stop-color="#848484"/><stop offset="1" stop-color="#6b6b6b"/></linearGradient><linearGradient id="linear-gradient-4" x1="104.09" y1="836.67" x2="277.28" y2="836.67" gradientUnits="userSpaceOnUse"><stop offset="0" stop-color="#ebebeb"/><stop offset=".32" stop-color="#d8d8d8"/><stop offset=".69" stop-color="#c9c9c9"/><stop offset="1" stop-color="#c5c5c5"/></linearGradient><linearGradient id="linear-gradient-5" x1="121.32" y1="698.2" x2="258.73" y2="777.54" xlink:href="#linear-gradient-3"/><linearGradient id="linear-gradient-6" y1="728.19" x2="277.28" y2="728.19" xlink:href="#linear-gradient-4"/><clipPath id="clippath-2"><polygon class="cls-1" points="932.27 780.12 969.28 801.45 1116.65 716.36 1116.65 552.73 932.27 659.18 932.27 780.12"/></clipPath><linearGradient id="linear-gradient-7" x1="205.25" y1="356.62" x2="342.67" y2="435.95" xlink:href="#linear-gradient-3"/><linearGradient id="linear-gradient-8" x1="188.02" y1="386.61" x2="361.21" y2="386.61" xlink:href="#linear-gradient-4"/><linearGradient id="linear-gradient-9" x1="205.25" y1="248.13" x2="342.67" y2="327.47" xlink:href="#linear-gradient-3"/><linearGradient id="linear-gradient-10" x1="188.02" y1="278.12" x2="361.21" y2="278.12" xlink:href="#linear-gradient-4"/></defs><g class="cls-32"><g id="Capa_1"><g><path class="cls-12" d="M554.91,839.26c-8.88,0-17.36-1.79-23.68-5.44l-309.98-178.97c-6.22-3.59-9.64-8.59-9.64-14.07,0-6.57,4.92-13.19,13.5-18.14L816.3,281.31c16.08-9.28,40.5-10.28,54.45-2.23l309.99,178.97c6.21,3.59,9.64,8.59,9.64,14.06,0,6.58-4.92,13.19-13.5,18.14l-591.21,341.33c-8.79,5.07-20.06,7.67-30.76,7.67Zm-23.01-6.6c13.57,7.84,37.4,6.84,53.1-2.23l591.21-341.33c8.15-4.71,12.83-10.9,12.83-16.99,0-4.98-3.19-9.57-8.97-12.91l-309.99-178.97c-13.57-7.84-37.4-6.84-53.11,2.23L225.77,623.8c-8.15,4.71-12.83,10.9-12.83,16.98,0,4.99,3.19,9.57,8.97,12.91l309.99,178.97Z"/><g><path class="cls-2" d="M1189.71,389.45l-44.53,7.67-274.76-158.63c-13.78-7.96-37.86-6.96-53.78,2.23L290.99,544.19l-78.71,13.55v27.91s.03,0,.03,0c-.04,5.09,2.99,9.95,9.27,13.58l309.99,178.97c13.78,7.96,37.86,6.96,53.78-2.23l591.2-341.33c8.57-4.95,12.98-11.26,13.12-17.27h.04v-27.92Z"/><path class="cls-16" d="M531.56,750.1l-309.99-178.97c-13.78-7.96-12.06-21.86,3.86-31.05L816.64,198.75c15.92-9.19,39.99-10.19,53.78-2.23l309.99,178.97c13.78,7.96,12.06,21.86-3.86,31.05l-591.2,341.33c-15.92,9.19-39.99,10.19-53.78,2.23Z"/><path class="cls-7" d="M1176.54,406.54l-591.2,341.33c-15.92,9.19-39.99,10.19-53.78,2.23l-309.99-178.97c-5.53-3.19-8.52-7.34-9.14-11.76-.85,5.73,2.12,11.33,9.14,15.38l309.99,178.97c13.78,7.96,37.86,6.96,53.78-2.23l591.2-341.33c9.53-5.5,13.93-12.69,13-19.29-.82,5.52-5.19,11.16-13,15.67Z"/><path class="cls-33" d="M532.17,743.17l-298.94-172.64c-13.34-7.7-11.67-21.15,3.74-30.04L817.21,205.57c15.4-8.89,38.7-9.86,52.04-2.16l298.94,172.64c13.34,7.7,11.67,21.15-3.74,30.04l-580.24,334.91c-15.4,8.89-38.7,9.86-52.04,2.16Z"/></g><path class="cls-5" d="M554.77,741.59c-8.65,0-16.91-1.74-23.08-5.3l-298.94-172.64c-6.12-3.53-9.49-8.46-9.48-13.89,0-6.48,4.82-12.98,13.22-17.83L816.73,197.03c15.64-9.03,39.42-10,53-2.16l298.94,172.64c6.12,3.53,9.48,8.46,9.48,13.88,0,6.48-4.82,12.98-13.23,17.83l-580.24,334.91c-8.54,4.93-19.52,7.46-29.92,7.46Zm-22.11-6.97c13.04,7.53,35.96,6.56,51.07-2.16l580.24-334.91c7.79-4.5,12.26-10.39,12.26-16.16,0-4.7-3.03-9.04-8.52-12.21l-298.94-172.64c-13.05-7.54-35.96-6.57-51.08,2.16L237.45,533.61c-7.79,4.49-12.26,10.39-12.26,16.16,0,4.71,3.03,9.04,8.52,12.22l298.94,172.64Z"/><g class="cls-29"><path class="cls-4" d="M532.17,735.46l-298.94-172.64c-13.34-7.7-11.67-21.15,3.74-30.04L817.21,197.86c15.4-8.89,38.7-9.86,52.04-2.16l298.94,172.64c13.34,7.7,11.67,21.15-3.74,30.04l-580.24,334.91c-15.4,8.89-38.7,9.86-52.04,2.16Z"/><g class="cls-3"><g><path class="cls-8" d="M969.34,567.13l-4.31-.56c-.46-.34-.96-.66-1.5-.97l-332.63-192.05c-8.59-4.96-23.61-4.34-33.53,1.39l-194.05,112.03c-2.59,1.49-4.56,3.19-5.93,4.96l-2.28-.67v6.71h.02c.02,3.13,1.91,6.12,5.78,8.35l332.63,192.04c8.59,4.96,23.61,4.34,33.53-1.39l194.05-112.04c5.55-3.2,8.32-7.32,8.2-11.2h.01s0-6.63,0-6.63Z"/><path class="cls-11" d="M733.55,691.65l-332.63-192.05c-8.59-4.96-7.52-13.63,2.41-19.36l194.05-112.04c9.92-5.73,24.94-6.35,33.53-1.39l332.63,192.04c8.59,4.96,7.52,13.63-2.41,19.36l-194.05,112.04c-9.92,5.73-24.94,6.35-33.53,1.39Z"/></g><g><path class="cls-7" d="M514.22,516.7l-41.07-23.71c-3.82-2.21-3.34-6.06,1.07-8.61h0c4.41-2.55,11.09-2.82,14.91-.62l41.07,23.71c3.82,2.21,3.34,6.06-1.07,8.61h0c-4.41,2.55-11.09,2.82-14.91,.62Z"/><path class="cls-7" d="M590,560.46l-41.07-23.71c-3.82-2.21-3.34-6.06,1.07-8.61h0c4.41-2.55,11.09-2.82,14.91-.62l41.07,23.71c3.82,2.21,3.34,6.06-1.07,8.61h0c-4.41,2.55-11.09,2.82-14.91,.62Z"/><path class="cls-7" d="M665.78,604.21l-41.07-23.71c-3.82-2.21-3.34-6.06,1.07-8.61h0c4.41-2.55,11.09-2.82,14.91-.62l41.07,23.71c3.82,2.21,3.34,6.06-1.07,8.61h0c-4.41,2.55-11.09,2.82-14.91,.62Z"/><path class="cls-7" d="M741.57,647.97l-41.07-23.71c-3.82-2.21-3.34-6.06,1.07-8.61h0c4.41-2.55,11.09-2.82,14.91-.62l41.07,23.71c3.82,2.21,3.34,6.06-1.07,8.61h0c-4.41,2.55-11.09,2.82-14.91,.62Z"/></g></g></g><path class="cls-34" d="M1104.34,397c-4.56,2.63-11.96,2.63-16.52,0-4.56-2.63-4.56-6.91,0-9.54,4.56-2.63,11.96-2.63,16.52,0,4.56,2.63,4.56,6.91,0,9.54Z"/><path class="cls-34" d="M1041.27,351.05l32.35,18.68c3.95,2.28,3.46,6.27-1.11,8.9h0c-4.56,2.63-11.47,2.92-15.42,.64l-32.35-18.68c-3.95-2.28-3.46-6.27,1.11-8.9h0c4.56-2.63,11.47-2.92,15.42-.64Z"/><path class="cls-34" d="M859.49,243.86l32.35,18.68c3.95,2.28,3.46,6.27-1.11,8.9h0c-4.56,2.63-11.47,2.92-15.42,.64l-32.35-18.68c-3.95-2.28-3.46-6.27,1.11-8.9h0c4.56-2.63,11.47-2.92,15.42-.64Z"/><path class="cls-13" d="M1104.34,385.41c-4.56,2.63-11.96,2.63-16.52,0-4.56-2.63-4.56-6.91,0-9.54,4.56-2.63,11.96-2.63,16.52,0,4.56,2.63,4.56,6.91,0,9.54Z"/><path class="cls-13" d="M1041.27,339.45l32.35,18.68c3.95,2.28,3.46,6.27-1.11,8.9h0c-4.56,2.63-11.47,2.92-15.42,.64l-32.35-18.68c-3.95-2.28-3.46-6.27,1.11-8.9h0c4.56-2.63,11.47-2.92,15.42-.64Z"/><path class="cls-13" d="M859.49,232.26l32.35,18.68c3.95,2.28,3.46,6.27-1.11,8.9h0c-4.56,2.63-11.47,2.92-15.42,.64l-32.35-18.68c-3.95-2.28-3.46-6.27,1.11-8.9h0c4.56-2.63,11.47-2.92,15.42-.64Z"/><g><g class="cls-29"><path class="cls-24" d="M277.28,851.76v-15.09s-4.17-2.32-4.17-2.32c-1.18,7.12-9.56,11.81-16.57,12.79l-47.72,27.91-20.83,7.52-66.48-34.31,1.54-.89c-5.68-2.65-8.74-8.73-11.82-14.26l-4.48,2.67-2.66,.75v15.48h0c0,2.96,1.95,5.91,5.85,8.16l66.6,38.45c7.8,4.5,20.49,4.5,28.29,0l66.6-38.45c3.84-2.21,5.78-5.11,5.85-8.02,0-.13,0-.26,0-.39h0Z"/><path class="cls-19" d="M256.54,847.14l-47.72,27.91-18.13,6.55v20.4c5.12,0,10.24-1.13,14.14-3.38l66.6-38.45c3.84-2.21,5.78-5.11,5.85-8.02,0-.13,0-.26,0-.39h0s0-15.09,0-15.09l-3.81-2.12h-.4c-1.3,7.01-9.59,11.62-16.53,12.59Z"/><path class="cls-25" d="M176.54,883.29l-66.6-38.45c-7.8-4.5-7.8-11.83,0-16.33l66.6-38.45c7.8-4.5,20.49-4.5,28.29,0l66.6,38.45c7.8,4.5,7.8,11.83,0,16.33l-66.6,38.45c-7.8,4.5-20.49,4.5-28.29,0Z"/><g class="cls-29"><path class="cls-17" d="M176.54,883.29l-66.6-38.45c-7.8-4.5-7.8-11.83,0-16.33l66.6-38.45c7.8-4.5,20.49-4.5,28.29,0l66.6,38.45c7.8,4.5,7.8,11.83,0,16.33l-66.6,38.45c-7.8,4.5-20.49,4.5-28.29,0Z"/></g></g><g><path class="cls-15" d="M190.68,827.35c-4.55,0-9.09-1-12.55-3l-66.6-38.45c-3.46-2-5.36-4.69-5.36-7.59s1.91-5.59,5.36-7.58l66.6-38.46c6.92-3.99,18.18-3.99,25.11,0l66.6,38.46c3.46,2,5.36,4.69,5.36,7.59s-1.9,5.59-5.36,7.59l-66.6,38.45c-3.46,2-8.01,3-12.55,3Zm0-96.92c-4.34,0-8.67,.95-11.97,2.86l-66.6,38.46c-3.08,1.78-4.78,4.11-4.78,6.57s1.7,4.8,4.78,6.58l66.6,38.45c6.6,3.81,17.34,3.81,23.94,0l66.6-38.45c3.08-1.78,4.78-4.11,4.78-6.57s-1.7-4.79-4.78-6.57l-66.6-38.46c-3.3-1.91-7.64-2.86-11.97-2.86Z"/><g><path class="cls-35" d="M277.28,763.55v-22.81l-4.17-2.32c-1.18,7.12-9.56,11.81-16.57,12.79l-47.72,27.91-20.83,7.52-66.48-34.31,1.54-.89c-5.68-2.65-8.74-8.73-11.82-14.26l-4.48,2.67-2.66,.75v23.19h0c0,2.96,1.95,5.91,5.85,8.16l66.6,38.45c7.8,4.5,20.49,4.5,28.29,0l66.6-38.45c3.84-2.21,5.78-5.11,5.85-8.02,0-.13,0-.26,0-.39h0Z"/><g><path class="cls-28" d="M277.28,743.28v-15.09l-4.17-2.32c-1.18,7.12-9.56,11.81-16.57,12.79l-47.72,27.91-20.83,7.52-66.48-34.31,1.54-.89c-5.68-2.65-8.74-8.73-11.82-14.26l-4.48,2.67-2.66,.75v15.48h0c0,2.96,1.95,5.91,5.85,8.16l66.6,38.45c7.8,4.5,20.49,4.5,28.29,0l66.6-38.45c3.84-2.21,5.78-5.11,5.85-8.02,0-.13,0-.26,0-.39h0Z"/><path class="cls-30" d="M256.54,738.66l-47.72,27.91-18.13,6.55v20.4c5.12,0,10.24-1.13,14.14-3.38l66.6-38.45c3.84-2.21,5.78-5.11,5.85-8.02,0-.13,0-.26,0-.39h0s0-15.09,0-15.09l-3.81-2.12h-.4c-1.3,7.01-9.59,11.62-16.53,12.59Z"/><path class="cls-26" d="M176.54,774.81l-66.6-38.45c-7.8-4.5-7.8-11.83,0-16.33l66.6-38.45c7.8-4.5,20.49-4.5,28.29,0l66.6,38.45c7.8,4.5,7.8,11.83,0,16.33l-66.6,38.45c-7.8,4.5-20.49,4.5-28.29,0Z"/><path class="cls-9" d="M190.68,767.82c-4.11,0-8.21-.9-11.34-2.71h0l-52.04-30.04c-3.14-1.81-4.86-4.26-4.86-6.89s1.73-5.07,4.86-6.89l52.03-30.04c6.25-3.61,16.42-3.61,22.68,0l52.03,30.04c3.14,1.81,4.86,4.26,4.86,6.88,0,2.63-1.72,5.08-4.86,6.89l-52.03,30.04c-3.13,1.81-7.23,2.71-11.34,2.71Zm0-78.12c-3.89,0-7.79,.86-10.76,2.57l-52.04,30.04c-2.76,1.59-4.28,3.68-4.28,5.87s1.52,4.28,4.28,5.88l52.04,30.04c5.93,3.43,15.58,3.43,21.51,0l52.03-30.04c2.76-1.59,4.28-3.68,4.28-5.88,0-2.19-1.52-4.28-4.28-5.87l-52.04-30.04c-2.97-1.71-6.86-2.57-10.76-2.57Z"/><path class="cls-7" d="M271.43,736.36l-66.6,38.45c-7.8,4.5-20.49,4.5-28.29,0l-66.6-38.45c-3.49-2.01-5.41-4.59-5.78-7.23-.46,3.26,1.47,6.62,5.78,9.11l66.6,38.45c7.8,4.5,20.49,4.5,28.29,0l66.6-38.45c4.31-2.49,6.24-5.84,5.78-9.11-.37,2.64-2.29,5.21-5.78,7.22Z"/></g></g></g></g><g><path class="cls-36" d="M722.1,600.83l-258.39-149.18c-6.68-3.85-5.84-10.59,1.87-15.04l150.74-87.03c7.71-4.45,19.37-4.93,26.05-1.08l258.39,149.18c6.68,3.85,5.84,10.59-1.87,15.04l-150.74,87.03c-7.71,4.45-19.37,4.93-26.05,1.08Z"/><path class="cls-13" d="M969.34,381.66l-4.31-.56c-.46-.34-.96-.66-1.5-.97l-332.63-192.04c-8.59-4.96-23.61-4.34-33.53,1.39l-194.05,112.04c-2.59,1.49-4.56,3.19-5.93,4.96l-2.28-.67v6.71h.02c.02,3.13,1.91,6.12,5.78,8.35l332.63,192.05c8.59,4.96,23.61,4.34,33.53-1.39l194.05-112.04c5.55-3.2,8.32-7.32,8.2-11.2h.01s0-6.63,0-6.63Z"/><path class="cls-14" d="M733.55,506.18l-332.63-192.04c-8.59-4.96-7.52-13.63,2.41-19.36l194.05-112.04c9.92-5.73,24.94-6.35,33.53-1.39l332.63,192.05c8.59,4.96,7.52,13.63-2.41,19.36l-194.05,112.04c-9.92,5.73-24.94,6.35-33.53,1.39Z"/><polygon class="cls-18" points="787.23 493.16 423.47 283.15 462.08 260.85 825.84 470.87 787.23 493.16"/></g><g><g class="cls-6"><path class="cls-8" d="M958.13,795c0-37.55,26.36-83.2,58.88-101.98,16.29-9.4,31.03-10.28,41.69-4.09h0s11.13,6.51,11.13,6.51l-3.23,.3c5.87,7.18,9.29,17.77,9.29,31.27,0,37.55-26.36,83.2-58.88,101.98-11.17,6.45-21.62,8.89-30.52,7.79l.25,2.98-11.3-6.61s-.09-.05-.14-.08l-.46-.27h.03c-10.35-6.28-16.73-19.33-16.73-37.8Z"/><ellipse class="cls-10" cx="1028.26" cy="767.59" rx="83.27" ry="48.07" transform="translate(-150.63 1274.27) rotate(-60)"/></g><path class="cls-21" d="M1024.45,880.89c-51.55,0-103.09-11.33-142.33-33.98-38.12-22.01-59.12-51.31-59.12-82.51s21-60.5,59.13-82.51c78.49-45.31,206.18-45.3,284.66,0,38.13,22.01,59.12,51.32,59.12,82.51s-21,60.5-59.13,82.51c-39.24,22.66-90.79,33.98-142.33,33.98Zm0-231.83c-51.34,0-102.66,11.28-141.75,33.85-37.75,21.8-58.54,50.74-58.54,81.5s20.79,59.7,58.54,81.5c78.15,45.12,205.33,45.13,283.49,0,37.75-21.79,58.54-50.74,58.54-81.5s-20.79-59.7-58.54-81.5c-39.07-22.56-90.41-33.84-141.74-33.84Z"/><path class="cls-21" d="M1024.46,836.87c-32.01,0-64.02-7.04-88.39-21.1h0c-23.72-13.69-36.78-31.94-36.78-51.37,0-19.43,13.06-37.68,36.79-51.37,48.74-28.13,128.04-28.13,176.78,0,23.72,13.7,36.78,31.94,36.78,51.37s-13.06,37.68-36.79,51.37c-24.37,14.07-56.38,21.1-88.39,21.1Zm0-143.8c-31.8,0-63.6,6.99-87.8,20.97-23.35,13.48-36.2,31.37-36.2,50.36,0,19,12.86,36.88,36.2,50.35h0c48.42,27.96,127.19,27.96,175.61,0,23.35-13.48,36.2-31.36,36.2-50.36s-12.86-36.88-36.2-50.36c-24.21-13.98-56-20.97-87.81-20.97Z"/><g class="cls-20"><g><path class="cls-8" d="M958.13,795c0-37.55,26.36-83.2,58.88-101.98,16.29-9.4,31.03-10.28,41.69-4.09h0s11.13,6.51,11.13,6.51l-3.23,.3c5.87,7.18,9.29,17.77,9.29,31.27,0,37.55-26.36,83.2-58.88,101.98-11.17,6.45-21.62,8.89-30.52,7.79l.25,2.98-11.3-6.61s-.09-.05-.14-.08l-.46-.27h.03c-10.35-6.28-16.73-19.33-16.73-37.8Z"/><ellipse class="cls-10" cx="1028.26" cy="767.59" rx="83.27" ry="48.07" transform="translate(-150.63 1274.27) rotate(-60)"/></g></g></g><g><g class="cls-29"><path class="cls-27" d="M361.21,401.7v-15.09s-4.17-2.32-4.17-2.32c-1.18,7.12-9.56,11.81-16.57,12.79l-47.72,27.91-20.83,7.52-66.48-34.31,1.54-.89c-5.68-2.65-8.74-8.73-11.82-14.26l-4.48,2.67-2.66,.75v15.48h0c0,2.96,1.95,5.91,5.85,8.16l66.6,38.45c7.8,4.5,20.49,4.5,28.29,0l66.6-38.45c3.84-2.21,5.78-5.11,5.85-8.02,0-.13,0-.26,0-.39h0Z"/><path class="cls-19" d="M340.47,397.07l-47.72,27.91-18.13,6.55v20.4c5.12,0,10.24-1.13,14.14-3.38l66.6-38.45c3.84-2.21,5.78-5.11,5.85-8.02,0-.13,0-.26,0-.39h0s0-15.09,0-15.09l-3.81-2.12h-.4c-1.3,7.01-9.59,11.62-16.53,12.59Z"/><path class="cls-22" d="M260.48,433.22l-66.6-38.45c-7.8-4.5-7.8-11.83,0-16.33l66.6-38.45c7.8-4.5,20.49-4.5,28.29,0l66.6,38.45c7.8,4.5,7.8,11.83,0,16.33l-66.6,38.45c-7.8,4.5-20.49,4.5-28.29,0Z"/><g class="cls-29"><path class="cls-17" d="M260.48,433.22l-66.6-38.45c-7.8-4.5-7.8-11.83,0-16.33l66.6-38.45c7.8-4.5,20.49-4.5,28.29,0l66.6,38.45c7.8,4.5,7.8,11.83,0,16.33l-66.6,38.45c-7.8,4.5-20.49,4.5-28.29,0Z"/></g></g><g><path class="cls-15" d="M274.62,377.28c-4.55,0-9.09-1-12.55-3l-66.6-38.45c-3.46-2-5.36-4.69-5.36-7.59s1.91-5.59,5.36-7.58l66.6-38.46c6.92-3.99,18.18-3.99,25.11,0l66.6,38.46c3.46,2,5.36,4.69,5.36,7.59s-1.9,5.59-5.36,7.59l-66.6,38.45c-3.46,2-8.01,3-12.55,3Zm0-96.92c-4.34,0-8.67,.95-11.97,2.86l-66.6,38.46c-3.08,1.78-4.78,4.11-4.78,6.57s1.7,4.8,4.78,6.58l66.6,38.45c6.6,3.81,17.34,3.81,23.94,0l66.6-38.45c3.08-1.78,4.78-4.11,4.78-6.57s-1.7-4.79-4.78-6.57l-66.6-38.46c-3.3-1.91-7.64-2.86-11.97-2.86Z"/><g><path class="cls-35" d="M361.21,313.49v-22.81l-4.17-2.32c-1.18,7.12-9.56,11.81-16.57,12.79l-47.72,27.91-20.83,7.52-66.48-34.31,1.54-.89c-5.68-2.65-8.74-8.73-11.82-14.26l-4.48,2.67-2.66,.75v23.19h0c0,2.96,1.95,5.91,5.85,8.16l66.6,38.45c7.8,4.5,20.49,4.5,28.29,0l66.6-38.45c3.84-2.21,5.78-5.11,5.85-8.02,0-.13,0-.26,0-.39h0Z"/><g><path class="cls-23" d="M361.21,293.21v-15.09l-4.17-2.32c-1.18,7.12-9.56,11.81-16.57,12.79l-47.72,27.91-20.83,7.52-66.48-34.31,1.54-.89c-5.68-2.65-8.74-8.73-11.82-14.26l-4.48,2.67-2.66,.75v15.48h0c0,2.96,1.95,5.91,5.85,8.16l66.6,38.45c7.8,4.5,20.49,4.5,28.29,0l66.6-38.45c3.84-2.21,5.78-5.11,5.85-8.02,0-.13,0-.26,0-.39h0Z"/><path class="cls-30" d="M340.47,288.59l-47.72,27.91-18.13,6.55v20.4c5.12,0,10.24-1.13,14.14-3.38l66.6-38.45c3.84-2.21,5.78-5.11,5.85-8.02,0-.13,0-.26,0-.39h0s0-15.09,0-15.09l-3.81-2.12h-.4c-1.3,7.01-9.59,11.62-16.53,12.59Z"/><path class="cls-31" d="M260.48,324.74l-66.6-38.45c-7.8-4.5-7.8-11.83,0-16.33l66.6-38.45c7.8-4.5,20.49-4.5,28.29,0l66.6,38.45c7.8,4.5,7.8,11.83,0,16.33l-66.6,38.45c-7.8,4.5-20.49,4.5-28.29,0Z"/><path class="cls-9" d="M274.62,317.76c-4.11,0-8.21-.9-11.34-2.71h0l-52.04-30.04c-3.14-1.81-4.86-4.26-4.86-6.89s1.73-5.07,4.86-6.89l52.03-30.04c6.25-3.61,16.42-3.61,22.68,0l52.03,30.04c3.14,1.81,4.86,4.26,4.86,6.88,0,2.63-1.72,5.08-4.86,6.89l-52.03,30.04c-3.13,1.81-7.23,2.71-11.34,2.71Zm0-78.12c-3.89,0-7.79,.86-10.76,2.57l-52.04,30.04c-2.76,1.59-4.28,3.68-4.28,5.87s1.52,4.28,4.28,5.88l52.04,30.04c5.93,3.43,15.58,3.43,21.51,0l52.03-30.04c2.76-1.59,4.28-3.68,4.28-5.88,0-2.19-1.52-4.28-4.28-5.87l-52.04-30.04c-2.97-1.71-6.86-2.57-10.76-2.57Z"/><path class="cls-7" d="M355.37,286.29l-66.6,38.45c-7.8,4.5-20.49,4.5-28.29,0l-66.6-38.45c-3.49-2.01-5.41-4.59-5.78-7.23-.46,3.26,1.47,6.62,5.78,9.11l66.6,38.45c7.8,4.5,20.49,4.5,28.29,0l66.6-38.45c4.31-2.49,6.24-5.84,5.78-9.11-.37,2.64-2.29,5.21-5.78,7.22Z"/></g></g></g></g></g></g></g></svg>