<?xml version="1.0" encoding="UTF-8"?><svg xmlns="http://www.w3.org/2000/svg" xmlns:xlink="http://www.w3.org/1999/xlink" viewBox="0 0 1330 1080"><defs><style>.cls-1{fill:url(#linear-gradient);}.cls-2{fill:url(#_ÂÁ_Ï_ÌÌ_È_ËÂÌÚ_55);}.cls-3{fill:#fff;}.cls-4{fill:#bcbcbc;}.cls-5{fill:#bfbfbf;}.cls-6{fill:#42e8e0;}.cls-7{fill:#9b9b9b;}.cls-8{fill:#474747;}.cls-9{fill:#777;}.cls-10{fill:#cecece;mix-blend-mode:lighten;}.cls-11{fill:url(#linear-gradient-3);}.cls-12{fill:url(#linear-gradient-4);}.cls-13{fill:url(#linear-gradient-2);}.cls-14{fill:url(#linear-gradient-5);}.cls-15{opacity:.15;}.cls-16,.cls-17{opacity:.6;}.cls-18{opacity:.51;}.cls-19{isolation:isolate;}.cls-20{fill:url(#_ÂÁ_Ï_ÌÌ_È_ËÂÌÚ_251);}.cls-17{fill:#666;}.cls-21{fill:url(#_ÂÁ_Ï_ÌÌ_È_ËÂÌÚ_2);}.cls-22{fill:#4b4b4c;opacity:.3;}.cls-23{fill:#b5b5b5;opacity:.4;}</style><linearGradient id="_ÂÁ_Ï_ÌÌ_È_ËÂÌÚ_2" x1="-188.17" y1="2017.34" x2="53.02" y2="2017.34" gradientTransform="translate(-1188.28 -324.41) rotate(150) scale(1 -.87) skewX(-26.56)" gradientUnits="userSpaceOnUse"><stop offset="0" stop-color="#c0bff6"/><stop offset=".29" stop-color="#c4c3f6"/><stop offset=".64" stop-color="#d2d2f9"/><stop offset="1" stop-color="#e9e9fd"/></linearGradient><linearGradient id="_ÂÁ_Ï_ÌÌ_È_ËÂÌÚ_251" x1="-808.03" y1="647.66" x2="-587.46" y2="647.66" gradientTransform="translate(-20.88) rotate(-180) scale(1 -1)" gradientUnits="userSpaceOnUse"><stop offset=".35" stop-color="#bcbeff"/><stop offset=".44" stop-color="#b5b7fc"/><stop offset=".57" stop-color="#a2a6f5"/><stop offset=".72" stop-color="#848ae8"/><stop offset=".88" stop-color="#5a63d8"/><stop offset=".89" stop-color="#5761d7"/></linearGradient><linearGradient id="linear-gradient" x1="-876.15" y1="647.66" x2="-590.7" y2="647.66" gradientTransform="translate(-20.88) rotate(-180) scale(1 -1)" gradientUnits="userSpaceOnUse"><stop offset="0" stop-color="#a0a0a0"/><stop offset=".03" stop-color="#999"/><stop offset=".21" stop-color="#787878"/><stop offset=".4" stop-color="#5e5e5e"/><stop offset=".59" stop-color="#4b4b4b"/><stop offset=".78" stop-color="#404040"/><stop offset="1" stop-color="#3d3d3d"/></linearGradient><linearGradient id="_ÂÁ_Ï_ÌÌ_È_ËÂÌÚ_55" x1="-233.92" y1="1976.23" x2="16.54" y2="1976.23" gradientTransform="translate(-1188.28 -324.41) rotate(150) scale(1 -.87) skewX(-26.56)" gradientUnits="userSpaceOnUse"><stop offset="0" stop-color="#e9e9fd"/><stop offset=".36" stop-color="#d2d2f9"/><stop offset=".71" stop-color="#c4c3f6"/><stop offset="1" stop-color="#c0bff6"/></linearGradient><linearGradient id="linear-gradient-2" x1="-233.92" y1="1976.23" x2="16.54" y2="1976.23" gradientTransform="translate(-1188.28 -324.41) rotate(150) scale(1 -.87) skewX(-26.56)" xlink:href="#linear-gradient"/><linearGradient id="linear-gradient-3" x1="-2193.49" y1="315.7" x2="-1764.47" y2="315.7" gradientTransform="translate(-1152.55) rotate(-180) scale(1 -1)" xlink:href="#linear-gradient"/><linearGradient id="linear-gradient-4" x1="-2193.48" y1="425.72" x2="-2119.82" y2="425.72" gradientTransform="translate(-1152.55) rotate(-180) scale(1 -1)" xlink:href="#linear-gradient"/><linearGradient id="linear-gradient-5" x1="1574.1" y1="42.73" x2="1117.75" y2="939.55" gradientTransform="translate(2254.85) rotate(-180) scale(1 -1)" gradientUnits="userSpaceOnUse"><stop offset="0" stop-color="#a0a0a0"/><stop offset=".03" stop-color="#999"/><stop offset=".21" stop-color="#787878"/><stop offset=".4" stop-color="#5e5e5e"/><stop offset=".59" stop-color="#4b4b4b"/><stop offset=".78" stop-color="#404040"/><stop offset="1" stop-color="#3d3d3d"/></linearGradient></defs><g class="cls-19"><g id="Capa_1"><g><g><path class="cls-5" d="M609.92,813.37l-202.43-116.87c-2.8-1.61-4.41-3.82-4.41-6.04,0-1.9,1.15-3.61,3.23-4.81l201.12-116.85c4.41-2.55,12.1-2.25,17.14,.67l202.43,116.87c2.8,1.62,4.41,3.82,4.41,6.05,0,1.9-1.15,3.6-3.24,4.81l-201.12,116.85h0c-2.01,1.16-4.69,1.72-7.5,1.72-3.36,0-6.9-.81-9.65-2.4Zm217.43-117.6c1.56-.9,2.41-2.1,2.41-3.38,0-1.62-1.31-3.3-3.58-4.61l-202.43-116.87c-4.6-2.65-11.54-2.95-15.49-.67l-201.12,116.85c-1.55,.9-2.41,2.1-2.41,3.38,0,1.62,1.31,3.3,3.58,4.61l202.43,116.87c4.59,2.65,11.55,2.96,15.49,.68l201.12-116.85Z"/><path class="cls-21" d="M627.24,768.34l193.53-112.47c4.06-2.34,3.55-6.44-1.14-9.15l-196.53-113.47c-4.69-2.71-11.78-3-15.84-.66l-193.53,112.47c-4.06,2.34-3.55,6.44,1.14,9.15l196.53,113.47c4.69,2.71,11.78,3,15.84,.66Z"/><path class="cls-23" d="M403.92,634.52l69.02-4.5,134.91-78.62c4.18-2.41,11.49-2.11,16.32,.68l151.97,87.74,54.45-3.55v37.99h-.05c0,1.54-.88,3.01-2.77,4.11l-201.12,116.85c-4.18,2.41-11.49,2.11-16.32-.68l-202.43-116.87c-2.56-1.48-3.87-3.36-3.95-5.16h-.04s0-37.99,0-37.99Z"/><path class="cls-20" d="M403.92,608.87l69.02-4.5,134.91-78.62c4.18-2.41,11.49-2.11,16.32,.68l151.97,87.74,54.45-3.55v37.99h-.05c0,1.54-.88,3.01-2.77,4.11l-201.12,116.85c-4.18,2.41-11.49,2.11-16.32-.68l-202.43-116.87c-2.56-1.48-3.87-3.36-3.95-5.16h-.04s0-37.99,0-37.99Z"/><path class="cls-1" d="M403.92,608.87l69.02-4.5,134.91-78.62c4.18-2.41,11.49-2.11,16.32,.68l151.97,87.74,54.45-3.55v37.99h-.05c0,1.54-.88,3.01-2.77,4.11l-201.12,116.85c-4.18,2.41-11.49,2.11-16.32-.68l-202.43-116.87c-2.56-1.48-3.87-3.36-3.95-5.16h-.04s0-37.99,0-37.99Z"/><path class="cls-2" d="M626.65,731.27l201.12-116.85c4.18-2.41,3.66-6.63-1.17-9.42l-202.43-116.87c-4.83-2.79-12.14-3.09-16.32-.68l-201.12,116.85c-4.18,2.41-3.66,6.63,1.17,9.42l202.43,116.87c4.83,2.79,12.14,3.09,16.32,.68Z"/><path class="cls-13" d="M626.65,731.27l201.12-116.85c4.18-2.41,3.66-6.63-1.17-9.42l-202.43-116.87c-4.83-2.79-12.14-3.09-16.32-.68l-201.12,116.85c-4.18,2.41-3.66,6.63,1.17,9.42l202.43,116.87c4.83,2.79,12.14,3.09,16.32,.68Z"/><path class="cls-3" d="M407.9,610.27l202.43,116.87c4.83,2.79,12.14,3.09,16.32,.68l201.12-116.85c1.2-.69,1.96-1.53,2.4-2.44,1,2.14,.23,4.37-2.4,5.89l-201.12,116.85c-4.18,2.41-11.49,2.11-16.32-.68l-202.43-116.87c-3.45-1.99-4.66-4.71-3.57-6.98,.59,1.26,1.78,2.49,3.57,3.53Z"/></g><ellipse class="cls-22" cx="615.18" cy="604.38" rx="91.46" ry="52.81"/><g><path class="cls-11" d="M611.99,342.38l46.47-275.69-3.74-1.57,5.61-3.22v.03c1.08-.73,2.62-.68,4.32,.3l371.38,214.42c3.05,1.76,5.36,6.28,4.82,9.43l-46.84,277.88c-.25,1.45-.96,2.41-1.96,2.83h0s-5.49,3.18-5.49,3.18l-.94-5.13,.31,.1-369.13-213.12c-3.05-1.76-5.36-6.28-4.82-9.43Z"/><path class="cls-12" d="M1033.97,284.18l6.11-2.7c.69,1.56,1.02,3.21,.79,4.6l-46.84,277.88c-.25,1.45-.96,2.41-1.96,2.83h0s-5.49,3.18-5.49,3.18l-.94-5.13,.31,.1-18.68-10.78,66.7-269.96Z"/><path class="cls-8" d="M610.99,355.16l371.38,214.42c2.87,1.66,5.32,.7,5.83-2.27l46.84-277.88c.54-3.16-1.77-7.67-4.82-9.43L658.83,65.57c-2.87-1.66-5.32-.7-5.83,2.27l-46.84,277.88c-.54,3.16,1.77,7.67,4.82,9.43Z"/><g class="cls-18"><polygon class="cls-9" points="657.58 70.74 1030.7 286.07 983.58 564.66 610.7 349.47 657.58 70.74"/></g><g class="cls-16"><polygon class="cls-14" points="657.58 70.74 1030.7 286.07 983.58 564.66 610.7 349.47 657.58 70.74"/></g></g><g><path class="cls-4" d="M964.98,298.81c-2.76-1.59-4.46-5.2-3.81-8.04,.32-1.37,1.13-2.4,2.28-2.9,1.28-.55,2.86-.39,4.33,.46,2.76,1.59,4.46,5.2,3.81,8.04h0c-.32,1.37-1.13,2.4-2.29,2.9-.5,.22-1.04,.32-1.6,.32-.88,0-1.82-.26-2.72-.78Zm5.39-2.73c.54-2.35-.9-5.34-3.22-6.68-1.12-.64-2.28-.78-3.2-.4-.78,.34-1.34,1.07-1.56,2.04-.54,2.34,.9,5.34,3.22,6.68,1.12,.65,2.29,.79,3.2,.39,.78-.34,1.34-1.06,1.57-2.04h0Z"/><path class="cls-4" d="M979.84,307.39c-2.76-1.59-4.46-5.2-3.81-8.04,.32-1.37,1.13-2.4,2.28-2.9,1.28-.55,2.85-.39,4.33,.46,2.76,1.59,4.46,5.2,3.81,8.04h0c-.32,1.37-1.13,2.4-2.29,2.9-.5,.22-1.04,.32-1.6,.32-.88,0-1.82-.26-2.72-.78Zm5.39-2.73c.54-2.34-.9-5.34-3.22-6.68-1.12-.65-2.28-.79-3.2-.4-.78,.34-1.34,1.07-1.56,2.04-.54,2.34,.9,5.34,3.22,6.68,1.12,.65,2.29,.78,3.2,.39,.78-.34,1.34-1.06,1.57-2.04h0Z"/><path class="cls-4" d="M1000.7,313.38c-.6,2.6-3.15,3.51-5.69,2.05-2.54-1.47-4.11-4.76-3.51-7.36,.6-2.6,3.15-3.51,5.69-2.05,2.54,1.47,4.11,4.76,3.51,7.36Z"/></g><polygon class="cls-4" points="715.79 149.42 707.84 144.83 708.45 141.16 716.4 145.75 715.79 149.42"/><polygon class="cls-4" points="727.34 156.09 719.39 151.5 720.01 147.83 727.95 152.42 727.34 156.09"/><polygon class="cls-4" points="704.35 142.82 686.92 132.76 687.54 129.09 704.97 139.15 704.35 142.82"/><g><path class="cls-4" d="M902.58,401.51l-179.16-103.43c-10.77-6.22-16.79-21.23-13.42-33.45,1.68-6.09,5.38-10.59,10.43-12.65,4.9-2.01,10.49-1.46,15.71,1.56l179.16,103.44c10.77,6.22,16.79,21.23,13.42,33.45-1.68,6.09-5.38,10.59-10.43,12.65-1.94,.79-3.98,1.19-6.07,1.19-3.19,0-6.48-.93-9.64-2.75Zm-181.52-148.01c-4.56,1.87-7.91,5.97-9.46,11.56-3.18,11.55,2.49,25.71,12.65,31.58l179.16,103.43c4.77,2.75,9.84,3.28,14.26,1.46,4.56-1.87,7.91-5.97,9.46-11.56,3.19-11.54-2.49-25.71-12.65-31.58l-179.16-103.44c-2.9-1.68-5.91-2.52-8.82-2.52-1.87,0-3.7,.35-5.44,1.06Z"/><g><path class="cls-4" d="M874.88,368.25c-3.35-1.93-5.97-6.48-5.97-10.35,0-2.02,.72-3.55,2.04-4.32,1.32-.76,3.01-.62,4.76,.39,3.35,1.93,5.97,6.48,5.97,10.34,0,2.02-.72,3.55-2.04,4.32-.56,.32-1.19,.49-1.86,.49-.91,0-1.89-.29-2.9-.87Zm-3.1-13.23c-.78,.45-1.21,1.48-1.21,2.88,0,3.28,2.31,7.28,5.14,8.92,1.22,.7,2.32,.84,3.11,.39,.78-.45,1.21-1.48,1.21-2.88,0-3.28-2.31-7.28-5.15-8.91-.75-.43-1.45-.65-2.07-.65-.38,0-.73,.09-1.04,.26Z"/><path class="cls-4" d="M851.61,354.81c-3.35-1.93-5.97-6.48-5.97-10.35,0-2.02,.72-3.55,2.04-4.32,1.32-.76,3.01-.62,4.76,.39,3.35,1.93,5.97,6.48,5.97,10.34,0,2.02-.72,3.55-2.04,4.32-.56,.32-1.19,.49-1.86,.49-.9,0-1.89-.29-2.9-.87Zm-3.1-13.23c-.78,.45-1.21,1.48-1.21,2.88,0,3.28,2.31,7.28,5.14,8.92,1.22,.7,2.32,.83,3.11,.39,.78-.45,1.21-1.48,1.21-2.88,0-3.28-2.31-7.28-5.15-8.91-.75-.43-1.45-.65-2.07-.65-.38,0-.73,.09-1.04,.26Z"/><path class="cls-4" d="M828.34,341.38c-3.35-1.93-5.97-6.48-5.97-10.35,0-2.02,.72-3.55,2.04-4.32,1.32-.76,3.01-.62,4.76,.39,3.35,1.93,5.97,6.48,5.97,10.34,0,2.02-.72,3.55-2.04,4.32-.56,.32-1.19,.49-1.86,.49-.9,0-1.89-.29-2.9-.87Zm-3.1-13.23c-.78,.45-1.21,1.48-1.21,2.88,0,3.28,2.31,7.28,5.14,8.92,1.22,.7,2.32,.84,3.11,.39,.78-.45,1.21-1.48,1.21-2.88,0-3.28-2.31-7.28-5.15-8.91-.75-.43-1.45-.65-2.07-.65-.38,0-.73,.09-1.04,.26Z"/><path class="cls-4" d="M805.07,327.94c-3.35-1.93-5.97-6.48-5.97-10.35,0-2.02,.72-3.55,2.04-4.32,1.32-.76,3-.62,4.76,.39,3.35,1.93,5.97,6.48,5.97,10.34,0,2.02-.72,3.55-2.04,4.32-.56,.32-1.19,.49-1.86,.49-.9,0-1.89-.29-2.9-.87Zm-3.1-13.23c-.78,.45-1.21,1.48-1.21,2.88,0,3.28,2.31,7.28,5.14,8.92,1.22,.7,2.32,.84,3.11,.39,.78-.45,1.21-1.48,1.21-2.88,0-3.28-2.31-7.28-5.15-8.91-.75-.43-1.45-.65-2.07-.65-.38,0-.73,.09-1.04,.26Z"/><path class="cls-4" d="M781.8,314.51c-3.35-1.93-5.97-6.48-5.97-10.35,0-2.02,.72-3.55,2.04-4.32s3-.62,4.76,.39c3.35,1.93,5.97,6.48,5.97,10.34,0,2.02-.72,3.55-2.04,4.32-.56,.32-1.19,.49-1.86,.49-.9,0-1.89-.29-2.9-.87Zm-3.1-13.23c-.78,.45-1.22,1.48-1.22,2.88,0,3.28,2.31,7.28,5.14,8.92,1.22,.7,2.32,.84,3.11,.39,.78-.45,1.22-1.48,1.22-2.88,0-3.28-2.31-7.28-5.15-8.91-.75-.43-1.45-.65-2.07-.65-.38,0-.73,.09-1.04,.26Z"/><path class="cls-4" d="M758.53,301.07c-3.35-1.93-5.97-6.48-5.97-10.35,0-2.02,.72-3.55,2.04-4.32,1.32-.76,3.01-.62,4.76,.39,3.35,1.93,5.97,6.48,5.97,10.34,0,2.02-.72,3.55-2.04,4.32-.56,.32-1.19,.49-1.86,.49-.91,0-1.89-.29-2.9-.87Zm-3.11-13.23c-.78,.45-1.22,1.47-1.22,2.88,0,3.28,2.31,7.28,5.15,8.92,1.22,.7,2.32,.83,3.1,.39,.78-.45,1.21-1.48,1.21-2.88,0-3.28-2.31-7.28-5.14-8.91-.75-.43-1.46-.65-2.07-.65-.39,0-.74,.09-1.04,.26Z"/></g></g><g><g class="cls-15"><polygon class="cls-6" points="248.68 745.02 293.29 719.26 293.29 737.56 248.68 763.31 204.07 737.56 204.07 719.26 248.68 745.02"/><polygon class="cls-5" points="248.68 763.31 293.29 737.56 293.29 719.26 248.68 745.02 248.68 763.31"/><polygon class="cls-7" points="204.07 737.56 248.68 763.31 248.68 745.02 204.07 719.26 204.07 737.56"/><polygon class="cls-5" points="248.68 745.02 293.29 719.26 248.68 693.51 204.07 719.26 248.68 745.02"/><polygon class="cls-3" points="248.68 745.02 293.29 719.26 293.29 721.5 248.68 747.25 204.07 721.5 204.07 719.26 248.68 745.02"/></g><g class="cls-15"><polygon class="cls-17" points="248.68 741.26 286.7 719.31 248.68 697.36 210.66 719.31 248.68 741.26"/><g><polygon class="cls-6" points="248.68 717 293.29 691.24 293.29 709.54 248.68 735.29 204.07 709.54 204.07 691.24 248.68 717"/><polygon class="cls-5" points="248.68 735.29 293.29 709.54 293.29 691.24 248.68 717 248.68 735.29"/><polygon class="cls-7" points="204.07 709.54 248.68 735.29 248.68 717 204.07 691.24 204.07 709.54"/><polygon class="cls-5" points="248.68 717 293.29 691.24 248.68 665.49 204.07 691.24 248.68 717"/><polygon class="cls-3" points="248.68 717 293.29 691.24 293.29 693.48 248.68 719.23 204.07 693.48 204.07 691.24 248.68 717"/></g></g><g class="cls-15"><polygon class="cls-17" points="248.68 713.14 286.7 691.19 248.68 669.24 210.66 691.19 248.68 713.14"/><g><polygon class="cls-6" points="248.68 688.88 293.29 663.12 293.29 681.42 248.68 707.17 204.07 681.42 204.07 663.12 248.68 688.88"/><polygon class="cls-5" points="248.68 707.17 293.29 681.42 293.29 663.12 248.68 688.88 248.68 707.17"/><polygon class="cls-7" points="204.07 681.42 248.68 707.17 248.68 688.88 204.07 663.12 204.07 681.42"/><polygon class="cls-5" points="248.68 688.88 293.29 663.12 248.68 637.37 204.07 663.12 248.68 688.88"/><polygon class="cls-3" points="248.68 688.88 293.29 663.12 293.29 665.36 248.68 691.11 204.07 665.36 204.07 663.12 248.68 688.88"/></g></g><g><path class="cls-10" d="M185.28,640.85l-.4-.23,63.68-36.77,.13-.08,63.41,36.61,.4,.23-63.67,36.76-.13,.08-63.41-36.6Zm63.41-36.46l-62.74,36.22,62.74,36.22,62.73-36.22-62.73-36.22Z"/><g><polygon class="cls-6" points="248.68 609.06 293.29 583.31 293.29 601.6 248.68 627.36 204.07 601.6 204.07 583.31 248.68 609.06"/><polygon class="cls-5" points="248.68 627.36 293.29 601.6 293.29 583.31 248.68 609.06 248.68 627.36"/><polygon class="cls-7" points="204.07 601.6 248.68 627.36 248.68 609.06 204.07 583.31 204.07 601.6"/><polygon class="cls-5" points="248.68 609.06 293.29 583.31 248.68 557.55 204.07 583.31 248.68 609.06"/><polygon class="cls-3" points="248.68 609.06 293.29 583.31 293.29 585.54 248.68 611.3 204.07 585.54 204.07 583.31 248.68 609.06"/></g><g><polygon class="cls-17" points="248.68 605.3 286.71 583.35 248.68 561.4 210.66 583.35 248.68 605.3"/><g><polygon class="cls-6" points="248.68 581.04 293.29 555.29 293.29 573.58 248.68 599.34 204.07 573.58 204.07 555.29 248.68 581.04"/><polygon class="cls-5" points="248.68 599.34 293.29 573.58 293.29 555.29 248.68 581.04 248.68 599.34"/><polygon class="cls-7" points="204.07 573.58 248.68 599.34 248.68 581.04 204.07 555.29 204.07 573.58"/><polygon class="cls-5" points="248.68 581.04 293.29 555.29 248.68 529.53 204.07 555.29 248.68 581.04"/><polygon class="cls-3" points="248.68 581.04 293.29 555.29 293.29 557.52 248.68 583.28 204.07 557.52 204.07 555.29 248.68 581.04"/></g></g><g><polygon class="cls-17" points="248.68 577.18 286.71 555.23 248.68 533.28 210.66 555.23 248.68 577.18"/><g><polygon class="cls-6" points="248.68 552.92 293.29 527.17 293.29 545.46 248.68 571.22 204.07 545.46 204.07 527.17 248.68 552.92"/><polygon class="cls-5" points="248.68 571.22 293.29 545.46 293.29 527.17 248.68 552.92 248.68 571.22"/><polygon class="cls-7" points="204.07 545.46 248.68 571.22 248.68 552.92 204.07 527.17 204.07 545.46"/><polygon class="cls-5" points="248.68 552.92 293.29 527.17 248.68 501.41 204.07 527.17 248.68 552.92"/><polygon class="cls-3" points="248.68 552.92 293.29 527.17 293.29 529.4 248.68 555.16 204.07 529.4 204.07 527.17 248.68 552.92"/></g></g></g></g><g><g class="cls-15"><polygon class="cls-6" points="744.19 1000.27 788.8 974.51 788.8 992.81 744.19 1018.56 699.58 992.81 699.58 974.51 744.19 1000.27"/><polygon class="cls-5" points="744.19 1018.56 788.8 992.81 788.8 974.51 744.19 1000.27 744.19 1018.56"/><polygon class="cls-7" points="699.58 992.81 744.19 1018.56 744.19 1000.27 699.58 974.51 699.58 992.81"/><polygon class="cls-5" points="744.19 1000.27 788.8 974.51 744.19 948.76 699.58 974.51 744.19 1000.27"/><polygon class="cls-3" points="744.19 1000.27 788.8 974.51 788.8 976.75 744.19 1002.5 699.58 976.75 699.58 974.51 744.19 1000.27"/></g><g class="cls-15"><polygon class="cls-17" points="744.19 996.51 782.21 974.56 744.19 952.61 706.17 974.56 744.19 996.51"/><g><polygon class="cls-6" points="744.19 972.25 788.8 946.49 788.8 964.79 744.19 990.54 699.58 964.79 699.58 946.49 744.19 972.25"/><polygon class="cls-5" points="744.19 990.54 788.8 964.79 788.8 946.49 744.19 972.25 744.19 990.54"/><polygon class="cls-7" points="699.58 964.79 744.19 990.54 744.19 972.25 699.58 946.49 699.58 964.79"/><polygon class="cls-5" points="744.19 972.25 788.8 946.49 744.19 920.74 699.58 946.49 744.19 972.25"/><polygon class="cls-3" points="744.19 972.25 788.8 946.49 788.8 948.73 744.19 974.48 699.58 948.73 699.58 946.49 744.19 972.25"/></g></g><g class="cls-15"><polygon class="cls-17" points="744.19 968.39 782.21 946.44 744.19 924.49 706.17 946.44 744.19 968.39"/><g><polygon class="cls-6" points="744.19 944.13 788.8 918.37 788.8 936.67 744.19 962.42 699.58 936.67 699.58 918.37 744.19 944.13"/><polygon class="cls-5" points="744.19 962.43 788.8 936.67 788.8 918.37 744.19 944.13 744.19 962.43"/><polygon class="cls-7" points="699.58 936.67 744.19 962.43 744.19 944.13 699.58 918.37 699.58 936.67"/><polygon class="cls-5" points="744.19 944.13 788.8 918.37 744.19 892.62 699.58 918.37 744.19 944.13"/><polygon class="cls-3" points="744.19 944.13 788.8 918.37 788.8 920.61 744.19 946.36 699.58 920.61 699.58 918.37 744.19 944.13"/></g></g><g><path class="cls-10" d="M680.78,896.1l-.4-.23,63.68-36.77,.13-.08,63.41,36.61,.4,.23-63.67,36.76-.13,.08-63.41-36.6Zm63.41-36.46l-62.74,36.22,62.74,36.22,62.73-36.22-62.73-36.22Z"/><g><polygon class="cls-6" points="744.19 864.31 788.8 838.56 788.8 856.85 744.19 882.61 699.58 856.85 699.58 838.56 744.19 864.31"/><polygon class="cls-5" points="744.19 882.61 788.8 856.85 788.8 838.56 744.19 864.31 744.19 882.61"/><polygon class="cls-7" points="699.58 856.85 744.19 882.61 744.19 864.31 699.58 838.56 699.58 856.85"/><polygon class="cls-5" points="744.19 864.31 788.8 838.56 744.19 812.8 699.58 838.56 744.19 864.31"/><polygon class="cls-3" points="744.19 864.31 788.8 838.56 788.8 840.79 744.19 866.55 699.58 840.79 699.58 838.56 744.19 864.31"/></g><g><polygon class="cls-17" points="744.19 860.55 782.21 838.6 744.19 816.65 706.17 838.6 744.19 860.55"/><g><polygon class="cls-6" points="744.19 836.29 788.8 810.54 788.8 828.83 744.19 854.59 699.58 828.83 699.58 810.54 744.19 836.29"/><polygon class="cls-5" points="744.19 854.59 788.8 828.83 788.8 810.54 744.19 836.29 744.19 854.59"/><polygon class="cls-7" points="699.58 828.83 744.19 854.59 744.19 836.29 699.58 810.54 699.58 828.83"/><polygon class="cls-5" points="744.19 836.29 788.8 810.54 744.19 784.78 699.58 810.54 744.19 836.29"/><polygon class="cls-3" points="744.19 836.29 788.8 810.54 788.8 812.77 744.19 838.53 699.58 812.77 699.58 810.54 744.19 836.29"/></g></g><g><polygon class="cls-17" points="744.19 832.44 782.21 810.48 744.19 788.53 706.17 810.48 744.19 832.44"/><g><polygon class="cls-6" points="744.19 808.17 788.8 782.42 788.8 800.71 744.19 826.47 699.58 800.71 699.58 782.42 744.19 808.17"/><polygon class="cls-5" points="744.19 826.47 788.8 800.71 788.8 782.42 744.19 808.17 744.19 826.47"/><polygon class="cls-7" points="699.58 800.71 744.19 826.47 744.19 808.17 699.58 782.42 699.58 800.71"/><polygon class="cls-5" points="744.19 808.17 788.8 782.42 744.19 756.66 699.58 782.42 744.19 808.17"/><polygon class="cls-3" points="744.19 808.17 788.8 782.42 788.8 784.65 744.19 810.41 699.58 784.65 699.58 782.42 744.19 808.17"/></g></g></g></g><g><g class="cls-15"><polygon class="cls-6" points="1081.32 760.31 1125.93 734.56 1125.93 752.85 1081.32 778.61 1036.71 752.85 1036.71 734.56 1081.32 760.31"/><polygon class="cls-5" points="1081.32 778.61 1125.93 752.85 1125.93 734.56 1081.32 760.31 1081.32 778.61"/><polygon class="cls-7" points="1036.71 752.85 1081.32 778.61 1081.32 760.31 1036.71 734.56 1036.71 752.85"/><polygon class="cls-5" points="1081.32 760.31 1125.93 734.56 1081.32 708.8 1036.71 734.56 1081.32 760.31"/><polygon class="cls-3" points="1081.32 760.31 1125.93 734.56 1125.93 736.79 1081.32 762.55 1036.71 736.79 1036.71 734.56 1081.32 760.31"/></g><g class="cls-15"><polygon class="cls-17" points="1081.32 756.55 1119.34 734.6 1081.32 712.65 1043.3 734.6 1081.32 756.55"/><g><polygon class="cls-6" points="1081.32 732.29 1125.93 706.54 1125.93 724.83 1081.32 750.59 1036.71 724.83 1036.71 706.54 1081.32 732.29"/><polygon class="cls-5" points="1081.32 750.59 1125.93 724.83 1125.93 706.54 1081.32 732.29 1081.32 750.59"/><polygon class="cls-7" points="1036.71 724.83 1081.32 750.59 1081.32 732.29 1036.71 706.54 1036.71 724.83"/><polygon class="cls-5" points="1081.32 732.29 1125.93 706.54 1081.32 680.78 1036.71 706.54 1081.32 732.29"/><polygon class="cls-3" points="1081.32 732.29 1125.93 706.54 1125.93 708.77 1081.32 734.53 1036.71 708.77 1036.71 706.54 1081.32 732.29"/></g></g><g class="cls-15"><polygon class="cls-17" points="1081.32 728.44 1119.34 706.48 1081.32 684.53 1043.3 706.48 1081.32 728.44"/><g><polygon class="cls-6" points="1081.32 704.17 1125.93 678.42 1125.93 696.71 1081.32 722.47 1036.71 696.71 1036.71 678.42 1081.32 704.17"/><polygon class="cls-5" points="1081.32 722.47 1125.93 696.71 1125.93 678.42 1081.32 704.17 1081.32 722.47"/><polygon class="cls-7" points="1036.71 696.71 1081.32 722.47 1081.32 704.17 1036.71 678.42 1036.71 696.71"/><polygon class="cls-5" points="1081.32 704.17 1125.93 678.42 1081.32 652.66 1036.71 678.42 1081.32 704.17"/><polygon class="cls-3" points="1081.32 704.17 1125.93 678.42 1125.93 680.65 1081.32 706.41 1036.71 680.65 1036.71 678.42 1081.32 704.17"/></g></g><g><path class="cls-10" d="M1017.91,656.15l-.4-.23,63.68-36.77,.13-.08,63.41,36.61,.4,.23-63.67,36.76-.13,.08-63.41-36.6Zm63.41-36.46l-62.74,36.22,62.74,36.22,62.73-36.22-62.73-36.22Z"/><g><polygon class="cls-6" points="1081.32 624.36 1125.93 598.6 1125.93 616.9 1081.32 642.65 1036.71 616.9 1036.71 598.6 1081.32 624.36"/><polygon class="cls-5" points="1081.32 642.65 1125.93 616.9 1125.93 598.6 1081.32 624.36 1081.32 642.65"/><polygon class="cls-7" points="1036.71 616.9 1081.32 642.65 1081.32 624.36 1036.71 598.6 1036.71 616.9"/><polygon class="cls-5" points="1081.32 624.36 1125.93 598.6 1081.32 572.85 1036.71 598.6 1081.32 624.36"/><polygon class="cls-3" points="1081.32 624.36 1125.93 598.6 1125.93 600.84 1081.32 626.59 1036.71 600.84 1036.71 598.6 1081.32 624.36"/></g><g><polygon class="cls-17" points="1081.32 620.6 1119.34 598.65 1081.32 576.7 1043.3 598.65 1081.32 620.6"/><g><polygon class="cls-6" points="1081.32 596.34 1125.93 570.58 1125.93 588.88 1081.32 614.63 1036.71 588.88 1036.71 570.58 1081.32 596.34"/><polygon class="cls-5" points="1081.32 614.63 1125.93 588.88 1125.93 570.58 1081.32 596.34 1081.32 614.63"/><polygon class="cls-7" points="1036.71 588.88 1081.32 614.63 1081.32 596.34 1036.71 570.58 1036.71 588.88"/><polygon class="cls-5" points="1081.32 596.34 1125.93 570.58 1081.32 544.83 1036.71 570.58 1081.32 596.34"/><polygon class="cls-3" points="1081.32 596.34 1125.93 570.58 1125.93 572.81 1081.32 598.57 1036.71 572.82 1036.71 570.58 1081.32 596.34"/></g></g><g><polygon class="cls-17" points="1081.32 592.48 1119.34 570.53 1081.32 548.58 1043.3 570.53 1081.32 592.48"/><g><polygon class="cls-6" points="1081.32 568.22 1125.93 542.46 1125.93 560.76 1081.32 586.51 1036.71 560.76 1036.71 542.46 1081.32 568.22"/><polygon class="cls-5" points="1081.32 586.51 1125.93 560.76 1125.93 542.46 1081.32 568.22 1081.32 586.51"/><polygon class="cls-7" points="1036.71 560.76 1081.32 586.51 1081.32 568.22 1036.71 542.46 1036.71 560.76"/><polygon class="cls-5" points="1081.32 568.22 1125.93 542.46 1081.32 516.71 1036.71 542.46 1081.32 568.22"/><polygon class="cls-3" points="1081.32 568.22 1125.93 542.46 1125.93 544.7 1081.32 570.45 1036.71 544.7 1036.71 542.46 1081.32 568.22"/></g></g></g></g><g><g class="cls-15"><polygon class="cls-6" points="467.16 519.64 511.77 493.88 511.77 512.18 467.16 537.93 422.55 512.18 422.55 493.88 467.16 519.64"/><polygon class="cls-5" points="467.16 537.94 511.77 512.18 511.77 493.88 467.16 519.64 467.16 537.94"/><polygon class="cls-7" points="422.55 512.18 467.16 537.94 467.16 519.64 422.55 493.88 422.55 512.18"/><polygon class="cls-5" points="467.16 519.64 511.77 493.88 467.16 468.13 422.55 493.88 467.16 519.64"/><polygon class="cls-3" points="467.16 519.64 511.77 493.88 511.77 496.12 467.16 521.87 422.55 496.12 422.55 493.88 467.16 519.64"/></g><g class="cls-15"><polygon class="cls-17" points="467.16 515.88 505.18 493.93 467.16 471.98 429.14 493.93 467.16 515.88"/><g><polygon class="cls-6" points="467.16 491.62 511.77 465.86 511.77 484.16 467.16 509.91 422.55 484.16 422.55 465.86 467.16 491.62"/><polygon class="cls-5" points="467.16 509.91 511.77 484.16 511.77 465.86 467.16 491.62 467.16 509.91"/><polygon class="cls-7" points="422.55 484.16 467.16 509.91 467.16 491.62 422.55 465.86 422.55 484.16"/><polygon class="cls-5" points="467.16 491.62 511.77 465.86 467.16 440.11 422.55 465.86 467.16 491.62"/><polygon class="cls-3" points="467.16 491.62 511.77 465.86 511.77 468.1 467.16 493.85 422.55 468.1 422.55 465.86 467.16 491.62"/></g></g><g class="cls-15"><polygon class="cls-17" points="467.16 487.76 505.18 465.81 467.16 443.86 429.14 465.81 467.16 487.76"/><g><polygon class="cls-6" points="467.16 463.5 511.77 437.74 511.77 456.04 467.16 481.79 422.55 456.04 422.55 437.74 467.16 463.5"/><polygon class="cls-5" points="467.16 481.8 511.77 456.04 511.77 437.74 467.16 463.5 467.16 481.8"/><polygon class="cls-7" points="422.55 456.04 467.16 481.8 467.16 463.5 422.55 437.74 422.55 456.04"/><polygon class="cls-5" points="467.16 463.5 511.77 437.74 467.16 411.99 422.55 437.74 467.16 463.5"/><polygon class="cls-3" points="467.16 463.5 511.77 437.74 511.77 439.98 467.16 465.73 422.55 439.98 422.55 437.74 467.16 463.5"/></g></g><g><path class="cls-10" d="M403.75,415.47l-.4-.23,63.68-36.77,.13-.08,63.41,36.61,.4,.23-63.67,36.76-.13,.08-63.41-36.6Zm63.41-36.46l-62.74,36.22,62.74,36.22,62.73-36.22-62.73-36.22Z"/><g><polygon class="cls-6" points="467.16 383.68 511.77 357.93 511.77 376.22 467.16 401.98 422.55 376.22 422.55 357.93 467.16 383.68"/><polygon class="cls-5" points="467.16 401.98 511.77 376.22 511.77 357.93 467.16 383.68 467.16 401.98"/><polygon class="cls-7" points="422.55 376.22 467.16 401.98 467.16 383.68 422.55 357.93 422.55 376.22"/><polygon class="cls-5" points="467.16 383.68 511.77 357.93 467.16 332.17 422.55 357.93 467.16 383.68"/><polygon class="cls-3" points="467.16 383.68 511.77 357.93 511.77 360.16 467.16 385.92 422.55 360.16 422.55 357.93 467.16 383.68"/></g><g><polygon class="cls-17" points="467.16 379.92 505.18 357.97 467.16 336.02 429.14 357.97 467.16 379.92"/><g><polygon class="cls-6" points="467.16 355.66 511.77 329.91 511.77 348.2 467.16 373.96 422.55 348.2 422.55 329.91 467.16 355.66"/><polygon class="cls-5" points="467.16 373.96 511.77 348.2 511.77 329.91 467.16 355.66 467.16 373.96"/><polygon class="cls-7" points="422.55 348.2 467.16 373.96 467.16 355.66 422.55 329.91 422.55 348.2"/><polygon class="cls-5" points="467.16 355.66 511.77 329.91 467.16 304.15 422.55 329.91 467.16 355.66"/><polygon class="cls-3" points="467.16 355.66 511.77 329.91 511.77 332.14 467.16 357.9 422.55 332.14 422.55 329.91 467.16 355.66"/></g></g><g><polygon class="cls-17" points="467.16 351.81 505.18 329.85 467.16 307.9 429.14 329.85 467.16 351.81"/><g><polygon class="cls-6" points="467.16 327.54 511.77 301.79 511.77 320.08 467.16 345.84 422.55 320.08 422.55 301.79 467.16 327.54"/><polygon class="cls-5" points="467.16 345.84 511.77 320.08 511.77 301.79 467.16 327.54 467.16 345.84"/><polygon class="cls-7" points="422.55 320.08 467.16 345.84 467.16 327.54 422.55 301.79 422.55 320.08"/><polygon class="cls-5" points="467.16 327.54 511.77 301.79 467.16 276.03 422.55 301.79 467.16 327.54"/><polygon class="cls-3" points="467.16 327.54 511.77 301.79 511.77 304.02 467.16 329.78 422.55 304.02 422.55 301.79 467.16 327.54"/></g></g></g></g></g></g></g></svg>