<?xml version="1.0" encoding="UTF-8"?><svg xmlns="http://www.w3.org/2000/svg" xmlns:xlink="http://www.w3.org/1999/xlink" viewBox="0 0 1330 1080"><defs><style>.cls-1{fill:url(#linear-gradient);}.cls-2{fill:#b2b2b2;}.cls-3{fill:#c9c9c9;}.cls-4{fill:#2d2d2d;}.cls-5{fill:#777;}.cls-6,.cls-7,.cls-8,.cls-9{fill:#919191;}.cls-6,.cls-7,.cls-8,.cls-9,.cls-10{mix-blend-mode:lighten;}.cls-7,.cls-10,.cls-11,.cls-12,.cls-13{opacity:.5;}.cls-8{opacity:.3;}.cls-9{opacity:.15;}.cls-10{fill:url(#linear-gradient-5);}.cls-14{fill:url(#linear-gradient-3);}.cls-15{fill:url(#linear-gradient-4);}.cls-16{fill:url(#linear-gradient-2);}.cls-17{fill:url(#linear-gradient-6);}.cls-18{fill:url(#linear-gradient-7);}.cls-19{isolation:isolate;}.cls-11{fill:#474747;}.cls-12{fill:#262626;}.cls-13{fill:#38025b;}.cls-20{fill:#2b2b2b;opacity:.8;}</style><linearGradient id="linear-gradient" x1="296.66" y1="824.73" x2="1033.34" y2="824.73" gradientUnits="userSpaceOnUse"><stop offset="0" stop-color="#545454"/><stop offset=".23" stop-color="#474747"/><stop offset=".51" stop-color="#c1c1c1"/><stop offset=".78" stop-color="#c6c6c6"/><stop offset="1" stop-color="#c6c6c6"/></linearGradient><linearGradient id="linear-gradient-2" x1="323.51" y1="627.86" x2="1023.27" y2="627.86" gradientUnits="userSpaceOnUse"><stop offset="0" stop-color="#292929"/><stop offset=".22" stop-color="#313131"/><stop offset=".57" stop-color="#484848"/><stop offset="1" stop-color="#6d6d6d"/></linearGradient><linearGradient id="linear-gradient-3" x1="-413.13" y1="1506.64" x2="-83.06" y2="1220.79" gradientTransform="translate(2237.54 -245.64) rotate(30) skewX(-30)" xlink:href="#linear-gradient-2"/><linearGradient id="linear-gradient-4" x1="416.38" y1="203.65" x2="892.82" y2="313.17" gradientUnits="userSpaceOnUse"><stop offset="0" stop-color="#474747"/><stop offset=".34" stop-color="#4f4f4f"/><stop offset=".87" stop-color="#666"/><stop offset="1" stop-color="#6d6d6d"/></linearGradient><linearGradient id="linear-gradient-5" x1="665.16" y1="541.16" x2="665.16" y2="-613" gradientUnits="userSpaceOnUse"><stop offset="0" stop-color="#bfbfbf"/><stop offset=".21" stop-color="gray"/><stop offset=".41" stop-color="#494949"/><stop offset=".59" stop-color="#212121"/><stop offset=".73" stop-color="#090909"/><stop offset=".81" stop-color="#000"/></linearGradient><linearGradient id="linear-gradient-6" x1="200.86" y1="333.34" x2="677.3" y2="442.86" xlink:href="#linear-gradient-4"/><linearGradient id="linear-gradient-7" x1="4347.34" y1="1919.16" x2="3840.85" y2="2140.31" gradientTransform="translate(4174.21 4809.21) rotate(-150) skewX(30)" xlink:href="#linear-gradient-4"/></defs><g class="cls-19"><g id="Capa_1"><g><path class="cls-1" d="M662.42,1038c-14.36,0-28.08-2.9-38.31-8.8l-311.72-179.97c-10.14-5.86-15.73-14.03-15.73-23.01,0-10.74,8-21.52,21.94-29.57l299.29-172.79c25.98-14.99,65.46-16.6,88-3.58l311.72,179.97c10.14,5.86,15.73,14.03,15.73,23.01,0,10.74-8,21.52-21.94,29.57l-299.29,172.79c-14.19,8.19-32.41,12.39-49.69,12.39Zm5.16-423.52c-16.73,0-34.38,4.08-48.15,12.03l-299.29,172.79c-12.97,7.49-20.4,17.3-20.4,26.91,0,7.84,5.04,15.07,14.2,20.36l311.72,179.97c21.7,12.54,59.8,10.93,84.93-3.59l299.29-172.79c12.97-7.49,20.4-17.3,20.4-26.91,0-7.84-5.04-15.07-14.2-20.35l-311.72-179.97c-9.81-5.67-22.98-8.44-36.78-8.44Z"/><g><g><path class="cls-20" d="M635.35,974.82l-230.33-132.98c-16.38-9.45-14.32-25.97,4.59-36.89l221.14-127.68c18.91-10.92,47.51-12.1,63.89-2.65l230.33,132.98c16.38,9.46,14.32,25.97-4.59,36.89l-221.14,127.68c-18.91,10.92-47.51,12.1-63.89,2.65Z"/><path class="cls-16" d="M952.19,417.72h-121.04l-134.74-77.79c-17.35-10.02-47.66-8.76-67.7,2.81l-129.87,74.98h-120.97v339.03h.04c-.49,6.78,3.29,13.32,11.63,18.14l244.06,140.91c17.35,10.02,47.66,8.76,67.7-2.81l234.33-135.29c10.41-6.01,15.95-13.62,16.49-20.95h.09V417.72Z"/><path class="cls-6" d="M408.52,417.72h-30.65v339.03h.04c-.35,4.81,1.5,9.49,5.55,13.53-2.59-3.45-3.77-7.26-3.48-11.15h-.04V420.1h30.97c-.76-.82-1.57-1.62-2.39-2.38Z"/><path class="cls-3" d="M913.44,417.72c-.22,.68-.45,1.36-.7,2.04h37.26v339.03h-.09c-.33,4.54-2.6,9.19-6.74,13.5,5.51-4.86,8.53-10.27,8.92-15.54h.09V417.72h-38.74Z"/><polygon class="cls-7" points="463.36 817.5 463.36 424.27 419.4 424.27 419.4 792.13 463.36 817.5"/><polygon class="cls-8" points="490.35 833.09 490.35 450.68 478.34 450.68 478.34 826.15 490.35 833.09"/><polygon class="cls-9" points="511.84 845.5 511.84 455.29 499.83 455.29 499.83 838.56 511.84 845.5"/><path class="cls-14" d="M633.58,576.76l-244.06-140.91c-17.35-10.02-15.18-27.52,4.86-39.09l234.33-135.29c20.04-11.57,50.35-12.82,67.7-2.81l244.06,140.91c17.35,10.02,15.18,27.52-4.86,39.09l-234.33,135.29c-20.04,11.57-50.35,12.82-67.7,2.81Z"/><path class="cls-6" d="M636.27,576.76l-244.06-140.91c-17.35-10.02-15.18-27.52,4.86-39.09l234.33-135.29c9.93-5.73,22.37-8.91,34.52-9.47-12.98,.17-26.54,3.31-37.2,9.47l-234.33,135.29c-20.04,11.57-22.21,29.07-4.86,39.09l244.06,140.91c8.76,5.06,20.81,7.22,33.18,6.66-11.41,.15-22.38-1.97-30.5-6.66Z"/><path class="cls-3" d="M940.47,399.58l-244.06-140.91c-8.77-5.06-20.85-7.23-33.24-6.65,11.27-.09,22.09,2.02,30.11,6.65l244.06,140.91c17.35,10.02,15.18,27.52-4.86,39.09l-234.33,135.29c-9.91,5.72-22.33,8.9-34.46,9.46,13.1-.11,26.81-3.24,37.59-9.46l234.33-135.29c20.04-11.57,22.21-29.07,4.86-39.09Z"/><path class="cls-3" d="M641.61,536.12l-181.7-104.9c-12.92-7.46-11.3-20.49,3.62-29.1l174.45-100.72c14.92-8.61,37.48-9.55,50.4-2.09l181.7,104.9c12.92,7.46,11.3,20.49-3.62,29.1l-174.45,100.72c-14.92,8.61-37.48,9.55-50.4,2.09Z"/><path class="cls-2" d="M463.53,421.72l174.45-100.72c14.92-8.61,37.48-9.55,50.4-2.09l181.7,104.9c1.69,.98,3.12,2.05,4.31,3.2,6.95-7.84,5.73-17-4.31-22.8l-181.7-104.9c-12.92-7.46-35.48-6.52-50.4,2.09l-174.45,100.72c-12.97,7.49-15.87,18.3-7.93,25.9,1.99-2.24,4.61-4.39,7.93-6.3Z"/><g><g><path class="cls-3" d="M708.25,600.82l206.45-119.41c1.89-1.09,3.42-4.02,3.42-6.53v-3.39c0-2.52-1.53-3.68-3.42-2.58l-206.45,119.41c-1.89,1.09-3.42,4.02-3.42,6.53v3.39c0,2.52,1.53,3.68,3.42,2.58Z"/><path class="cls-5" d="M910.17,478.83c1.89-1.09,3.42-4.02,3.42-6.53v-2.75l1.1-.63c1.89-1.09,3.42,.07,3.42,2.58v3.39c0,2.52-1.53,5.44-3.42,6.53l-206.45,119.41c-1.89,1.09-3.42-.07-3.42-2.58v-.63l205.35-118.78Z"/></g><g><path class="cls-3" d="M708.25,637.15l206.45-119.41c1.89-1.09,3.42-4.02,3.42-6.53v-3.39c0-2.52-1.53-3.67-3.42-2.58l-206.45,119.41c-1.89,1.09-3.42,4.02-3.42,6.53v3.39c0,2.52,1.53,3.67,3.42,2.58Z"/><path class="cls-5" d="M910.17,515.16c1.89-1.09,3.42-4.02,3.42-6.53v-2.75l1.1-.63c1.89-1.09,3.42,.07,3.42,2.58v3.39c0,2.52-1.53,5.44-3.42,6.53l-206.45,119.41c-1.89,1.09-3.42-.07-3.42-2.58v-.63l205.35-118.78Z"/></g><g><path class="cls-3" d="M708.25,673.49l206.45-119.41c1.89-1.09,3.42-4.02,3.42-6.53v-3.39c0-2.52-1.53-3.68-3.42-2.58l-206.45,119.41c-1.89,1.09-3.42,4.02-3.42,6.53v3.39c0,2.52,1.53,3.68,3.42,2.58Z"/><path class="cls-5" d="M910.17,551.49c1.89-1.09,3.42-4.02,3.42-6.53v-2.75l1.1-.64c1.89-1.09,3.42,.07,3.42,2.58v3.39c0,2.52-1.53,5.44-3.42,6.53l-206.45,119.41c-1.89,1.09-3.42-.07-3.42-2.58v-.63l205.35-118.78Z"/></g><g><path class="cls-3" d="M708.25,709.82l206.45-119.41c1.89-1.09,3.42-4.02,3.42-6.53v-3.39c0-2.52-1.53-3.68-3.42-2.58l-206.45,119.41c-1.89,1.09-3.42,4.02-3.42,6.53v3.39c0,2.52,1.53,3.68,3.42,2.58Z"/><path class="cls-5" d="M910.17,587.83c1.89-1.09,3.42-4.02,3.42-6.53v-2.75l1.1-.63c1.89-1.09,3.42,.07,3.42,2.58v3.39c0,2.52-1.53,5.44-3.42,6.53l-206.45,119.41c-1.89,1.09-3.42-.07-3.42-2.58v-.63l205.35-118.78Z"/></g><g><path class="cls-3" d="M708.25,746.15l206.45-119.41c1.89-1.09,3.42-4.02,3.42-6.53v-3.39c0-2.52-1.53-3.68-3.42-2.58l-206.45,119.41c-1.89,1.09-3.42,4.02-3.42,6.53v3.39c0,2.52,1.53,3.68,3.42,2.58Z"/><path class="cls-5" d="M910.17,624.16c1.89-1.09,3.42-4.02,3.42-6.53v-2.75l1.1-.63c1.89-1.09,3.42,.07,3.42,2.58v3.39c0,2.52-1.53,5.44-3.42,6.53l-206.45,119.41c-1.89,1.09-3.42-.07-3.42-2.58v-.63l205.35-118.78Z"/></g><g><path class="cls-3" d="M708.25,782.49l206.45-119.41c1.89-1.09,3.42-4.02,3.42-6.53v-3.39c0-2.52-1.53-3.68-3.42-2.58l-206.45,119.41c-1.89,1.09-3.42,4.02-3.42,6.53v3.39c0,2.52,1.53,3.68,3.42,2.58Z"/><path class="cls-5" d="M910.17,660.49c1.89-1.09,3.42-4.02,3.42-6.53v-2.75l1.1-.64c1.89-1.09,3.42,.07,3.42,2.58v3.39c0,2.52-1.53,5.44-3.42,6.53l-206.45,119.41c-1.89,1.09-3.42-.07-3.42-2.58v-.63l205.35-118.78Z"/></g><g><path class="cls-3" d="M708.25,818.82l206.45-119.41c1.89-1.09,3.42-4.02,3.42-6.53v-3.39c0-2.52-1.53-3.68-3.42-2.58l-206.45,119.41c-1.89,1.09-3.42,4.02-3.42,6.53v3.39c0,2.52,1.53,3.68,3.42,2.58Z"/><path class="cls-5" d="M910.17,696.83c1.89-1.09,3.42-4.02,3.42-6.53v-2.75l1.1-.63c1.89-1.09,3.42,.07,3.42,2.58v3.39c0,2.52-1.53,5.44-3.42,6.53l-206.45,119.41c-1.89,1.09-3.42-.07-3.42-2.58v-.63l205.35-118.78Z"/></g><g><path class="cls-3" d="M708.25,855.15l206.45-119.41c1.89-1.09,3.42-4.02,3.42-6.53v-3.39c0-2.52-1.53-3.68-3.42-2.58l-206.45,119.41c-1.89,1.09-3.42,4.02-3.42,6.53v3.39c0,2.52,1.53,3.68,3.42,2.58Z"/><path class="cls-5" d="M910.17,733.16c1.89-1.09,3.42-4.02,3.42-6.53v-2.75l1.1-.63c1.89-1.09,3.42,.07,3.42,2.58v3.39c0,2.52-1.53,5.44-3.42,6.53l-206.45,119.41c-1.89,1.09-3.42-.07-3.42-2.58v-.63l205.35-118.78Z"/></g><g><path class="cls-3" d="M708.25,891.49l206.45-119.41c1.89-1.09,3.42-4.02,3.42-6.53v-3.39c0-2.52-1.53-3.68-3.42-2.58l-206.45,119.41c-1.89,1.09-3.42,4.02-3.42,6.53v3.39c0,2.52,1.53,3.68,3.42,2.58Z"/><path class="cls-5" d="M910.17,769.49c1.89-1.09,3.42-4.02,3.42-6.53v-2.75l1.1-.64c1.89-1.09,3.42,.07,3.42,2.58v3.39c0,2.52-1.53,5.44-3.42,6.53l-206.45,119.41c-1.89,1.09-3.42-.07-3.42-2.58v-.63l205.35-118.78Z"/></g></g><g><g><circle class="cls-3" cx="665" cy="606.73" r="5.54"/><path class="cls-5" d="M665,610.19c-2.7,0-4.95-1.94-5.44-4.5-.06,.34-.1,.68-.1,1.04,0,3.06,2.48,5.54,5.54,5.54s5.54-2.48,5.54-5.54c0-.36-.04-.7-.1-1.04-.49,2.56-2.73,4.5-5.44,4.5Z"/></g><g><path class="cls-3" d="M670.54,643.06c0,3.06-2.48,5.54-5.54,5.54s-5.54-2.48-5.54-5.54,2.48-5.54,5.54-5.54,5.54,2.48,5.54,5.54Z"/><path class="cls-5" d="M665,646.53c-2.7,0-4.95-1.94-5.44-4.5-.06,.34-.1,.68-.1,1.04,0,3.06,2.48,5.54,5.54,5.54s5.54-2.48,5.54-5.54c0-.36-.04-.7-.1-1.04-.49,2.56-2.73,4.5-5.44,4.5Z"/></g><g><circle class="cls-3" cx="665" cy="679.4" r="5.54"/><path class="cls-5" d="M665,682.86c-2.7,0-4.95-1.94-5.44-4.5-.06,.34-.1,.68-.1,1.04,0,3.06,2.48,5.54,5.54,5.54s5.54-2.48,5.54-5.54c0-.36-.04-.7-.1-1.04-.49,2.56-2.73,4.5-5.44,4.5Z"/></g><g><circle class="cls-3" cx="665" cy="715.73" r="5.54"/><path class="cls-5" d="M665,719.19c-2.7,0-4.95-1.94-5.44-4.5-.06,.34-.1,.68-.1,1.04,0,3.06,2.48,5.54,5.54,5.54s5.54-2.48,5.54-5.54c0-.36-.04-.7-.1-1.04-.49,2.56-2.73,4.5-5.44,4.5Z"/></g><g><circle class="cls-3" cx="665" cy="752.06" r="5.54"/><path class="cls-5" d="M665,755.53c-2.7,0-4.95-1.94-5.44-4.5-.06,.34-.1,.68-.1,1.04,0,3.06,2.48,5.54,5.54,5.54s5.54-2.48,5.54-5.54c0-.36-.04-.7-.1-1.04-.49,2.56-2.73,4.5-5.44,4.5Z"/></g><g><circle class="cls-3" cx="665" cy="788.4" r="5.54"/><path class="cls-5" d="M665,791.86c-2.7,0-4.95-1.94-5.44-4.5-.06,.34-.1,.68-.1,1.04,0,3.06,2.48,5.54,5.54,5.54s5.54-2.48,5.54-5.54c0-.36-.04-.7-.1-1.04-.49,2.56-2.73,4.5-5.44,4.5Z"/></g><g><circle class="cls-3" cx="665" cy="824.73" r="5.54"/><path class="cls-5" d="M665,828.19c-2.7,0-4.95-1.94-5.44-4.5-.06,.34-.1,.68-.1,1.04,0,3.06,2.48,5.54,5.54,5.54s5.54-2.48,5.54-5.54c0-.36-.04-.7-.1-1.04-.49,2.56-2.73,4.5-5.44,4.5Z"/></g><g><circle class="cls-3" cx="665" cy="861.06" r="5.54"/><path class="cls-5" d="M665,864.52c-2.7,0-4.95-1.94-5.44-4.5-.06,.34-.1,.68-.1,1.04,0,3.06,2.48,5.54,5.54,5.54s5.54-2.48,5.54-5.54c0-.36-.04-.7-.1-1.04-.49,2.56-2.73,4.5-5.44,4.5Z"/></g><g><circle class="cls-3" cx="665" cy="897.39" r="5.54"/><path class="cls-5" d="M665,900.86c-2.7,0-4.95-1.94-5.44-4.5-.06,.34-.1,.68-.1,1.04,0,3.06,2.48,5.54,5.54,5.54s5.54-2.48,5.54-5.54c0-.36-.04-.7-.1-1.04-.49,2.56-2.73,4.5-5.44,4.5Z"/></g></g></g><path class="cls-4" d="M585.77,844.26c-1.11,0-2.3-.35-3.49-1.04l-8.27-4.77c-4.49-2.59-8.15-9.55-8.15-15.5v-222.99c0-3.3,1.13-5.84,3.09-6.98,1.67-.97,3.77-.82,5.9,.41l8.27,4.77c4.49,2.59,8.15,9.55,8.15,15.5v222.99c0,3.3-1.12,5.84-3.09,6.98-.73,.42-1.54,.64-2.41,.64Zm-10.92-7.27l8.27,4.77c1.59,.92,3.08,1.05,4.22,.41,1.43-.83,2.25-2.84,2.25-5.52v-222.99c0-5.41-3.28-11.72-7.31-14.04l-8.27-4.77c-1.59-.92-3.09-1.06-4.22-.41-1.43,.83-2.25,2.84-2.25,5.52v222.99c0,5.41,3.28,11.71,7.31,14.04h0Z"/><path class="cls-4" d="M448.25,766.06c-1.11,0-2.3-.35-3.49-1.04l-8.27-4.77c-4.49-2.6-8.15-9.55-8.15-15.5v-222.99c0-3.3,1.12-5.85,3.09-6.98,1.68-.97,3.77-.82,5.9,.41l8.27,4.77c4.49,2.6,8.15,9.55,8.15,15.5v223c0,3.3-1.12,5.84-3.09,6.98-.73,.42-1.54,.64-2.4,.64Zm-10.92-7.27l8.27,4.77c1.59,.92,3.08,1.06,4.22,.41,1.43-.83,2.25-2.84,2.25-5.52v-223c0-5.41-3.28-11.71-7.31-14.04l-8.27-4.77c-1.59-.92-3.09-1.06-4.22-.41-1.43,.83-2.25,2.84-2.25,5.52v222.99c0,5.41,3.28,11.72,7.31,14.04h0Z"/><path class="cls-4" d="M517.01,805.15c-1.11,0-2.3-.35-3.5-1.04l-8.26-4.77c-4.49-2.59-8.15-9.55-8.15-15.5v-223c0-3.3,1.12-5.85,3.09-6.98,1.67-.97,3.77-.83,5.9,.41l8.26,4.77c4.5,2.59,8.15,9.55,8.15,15.5v222.99c0,3.3-1.12,5.84-3.09,6.98-.73,.42-1.54,.63-2.4,.63Zm-14.41-250.23c-.57,0-1.1,.13-1.57,.4-1.43,.83-2.25,2.84-2.25,5.52v223c0,5.41,3.28,11.72,7.31,14.04l8.26,4.77c1.59,.92,3.08,1.06,4.22,.41,1.43-.83,2.25-2.84,2.25-5.52v-222.99c0-5.42-3.28-11.72-7.31-14.04l-8.26-4.77c-.93-.54-1.84-.81-2.65-.81Z"/></g><polygon class="cls-12" points="883.64 366.49 875.83 408.95 916.36 385.71 883.64 366.49"/><g><path class="cls-15" d="M670.82,161.3l-9.45,5.48,9.45,10.77v79.91c0,17.45,10.61,37.72,23.69,45.27l173.91,100.41c.18,.11,.36,.18,.54,.28l5.61,6.4,8.83-5.15c.12-.06,.24-.14,.36-.21l.84-.49-.02-.03c4.63-3.1,7.53-9.6,7.53-18.71v-96.17l-221.3-127.77Z"/><path class="cls-3" d="M661.37,166.78l221.3,127.77v96.17c0,17.45-10.61,25.47-23.69,17.91l-173.91-100.41c-13.09-7.56-23.69-27.82-23.69-45.27v-96.17Z"/></g><polygon class="cls-11" points="656.15 540.7 613.79 565.33 423.65 455.56 463.04 432.93 656.15 540.7"/><path class="cls-10" d="M878.95-613H451.36V416.48h.27c-.97,5.48,1.73,10.87,8.45,14.75l181.69,104.9c12.92,7.46,35.48,6.52,50.4-2.09l174.44-100.71c8.35-4.82,12.37-11.01,12.17-16.84h.17V-613Z"/><g><path class="cls-17" d="M455.29,290.99l-9.45,5.48,9.45,10.77v79.91c0,17.45,10.61,37.72,23.69,45.27l173.91,100.41c.18,.11,.36,.18,.54,.28l5.61,6.4,8.83-5.15c.12-.06,.24-.14,.37-.21l.84-.49-.02-.03c4.63-3.1,7.53-9.6,7.53-18.71v-96.17l-221.3-127.77Z"/><path class="cls-18" d="M445.84,296.47l221.3,127.77v96.17c0,17.45-10.61,25.47-23.69,17.91l-173.91-100.41c-13.09-7.56-23.69-27.82-23.69-45.27v-96.17Z"/></g><path class="cls-13" d="M917.01,386.09l-33.37-19.6,33.37,19.6Z"/></g></g></g></svg>