<?xml version="1.0" encoding="UTF-8"?><svg id="Capa_1" xmlns="http://www.w3.org/2000/svg" xmlns:xlink="http://www.w3.org/1999/xlink" viewBox="0 0 1330 1080"><defs><style>.cls-1{fill:url(#linear-gradient);}.cls-2,.cls-3,.cls-4{fill:#f6b185;}.cls-5{fill:#fff;}.cls-6{fill:#c4c3c2;}.cls-7{fill:url(#linear-gradient-8);}.cls-8{fill:url(#linear-gradient-9);}.cls-9{fill:url(#linear-gradient-3);}.cls-10{fill:url(#linear-gradient-4);}.cls-11{fill:url(#linear-gradient-2);}.cls-12{fill:url(#linear-gradient-6);}.cls-13{fill:url(#linear-gradient-7);}.cls-14{fill:url(#linear-gradient-5);}.cls-15{fill:url(#radial-gradient);}.cls-16{fill:url(#linear-gradient-14);}.cls-17{fill:url(#linear-gradient-18);}.cls-18{fill:url(#linear-gradient-22);}.cls-19{fill:url(#linear-gradient-20);}.cls-20{fill:url(#linear-gradient-21);}.cls-21{fill:url(#linear-gradient-23);}.cls-22{fill:url(#linear-gradient-15);}.cls-23{fill:url(#linear-gradient-19);}.cls-24{fill:url(#linear-gradient-16);}.cls-25{fill:url(#linear-gradient-17);}.cls-26{fill:url(#linear-gradient-13);}.cls-27{fill:url(#linear-gradient-12);}.cls-28{fill:url(#linear-gradient-10);}.cls-29{fill:url(#linear-gradient-11);}.cls-30{fill:url(#linear-gradient-27);}.cls-31{fill:url(#linear-gradient-24);}.cls-32{fill:url(#linear-gradient-26);}.cls-33{fill:url(#linear-gradient-35);}.cls-34{fill:url(#linear-gradient-34);}.cls-35{fill:url(#linear-gradient-25);}.cls-36{fill:url(#linear-gradient-28);}.cls-37{fill:url(#linear-gradient-29);}.cls-38{fill:url(#linear-gradient-33);}.cls-39{fill:url(#linear-gradient-30);}.cls-40{fill:url(#linear-gradient-32);}.cls-41{fill:url(#linear-gradient-31);}.cls-3{opacity:.8;}.cls-4{opacity:.4;}</style><linearGradient id="linear-gradient" x1="542.7" y1="496.06" x2="553.66" y2="496.06" gradientUnits="userSpaceOnUse"><stop offset="0" stop-color="#f6b185"/><stop offset=".02" stop-color="#f6af81"/><stop offset=".49" stop-color="#fa8d3c"/><stop offset=".83" stop-color="#fd7810"/><stop offset="1" stop-color="#ff7000"/></linearGradient><linearGradient id="linear-gradient-2" x1="590.25" y1="415.08" x2="633.7" y2="415.08" xlink:href="#linear-gradient"/><linearGradient id="linear-gradient-3" x1="602.94" y1="415.08" x2="621" y2="415.08" xlink:href="#linear-gradient"/><linearGradient id="linear-gradient-4" x1="477.48" y1="538.73" x2="692.15" y2="538.73" gradientUnits="userSpaceOnUse"><stop offset="0" stop-color="#f2f2f2"/><stop offset=".28" stop-color="#b4b4b4"/><stop offset=".62" stop-color="#6f6f6f"/><stop offset=".87" stop-color="#434343"/><stop offset="1" stop-color="#333"/></linearGradient><linearGradient id="linear-gradient-5" x1="495.78" y1="477.52" x2="800.2" y2="477.52" xlink:href="#linear-gradient-4"/><linearGradient id="linear-gradient-6" x1="553.22" y1="477.54" x2="740.96" y2="477.54" xlink:href="#linear-gradient-4"/><linearGradient id="linear-gradient-7" y1="424.74" y2="424.74" xlink:href="#linear-gradient-4"/><linearGradient id="linear-gradient-8" x1="495.78" y1="363.53" x2="800.2" y2="363.53" xlink:href="#linear-gradient-4"/><linearGradient id="linear-gradient-9" x1="559.3" y1="363.53" x2="736.68" y2="363.53" xlink:href="#linear-gradient-4"/><linearGradient id="linear-gradient-10" y1="310.76" y2="310.76" xlink:href="#linear-gradient-4"/><linearGradient id="linear-gradient-11" x1="495.78" y1="249.55" x2="800.2" y2="249.55" xlink:href="#linear-gradient-4"/><linearGradient id="linear-gradient-12" x1="253.33" y1="668.42" x2="467.99" y2="668.42" xlink:href="#linear-gradient-4"/><linearGradient id="linear-gradient-13" x1="271.63" y1="607.2" x2="576.05" y2="607.2" xlink:href="#linear-gradient-4"/><linearGradient id="linear-gradient-14" x1="329.07" y1="607.22" x2="516.81" y2="607.22" xlink:href="#linear-gradient-4"/><linearGradient id="linear-gradient-15" x1="218.59" y1="554.43" x2="433.26" y2="554.43" xlink:href="#linear-gradient-4"/><linearGradient id="linear-gradient-16" x1="236.89" y1="493.22" x2="541.31" y2="493.22" xlink:href="#linear-gradient-4"/><linearGradient id="linear-gradient-17" x1="300.41" y1="493.22" x2="477.79" y2="493.22" xlink:href="#linear-gradient-4"/><linearGradient id="linear-gradient-18" x1="149.11" y1="405.71" x2="363.78" y2="405.71" xlink:href="#linear-gradient-4"/><linearGradient id="linear-gradient-19" x1="167.41" y1="344.5" x2="471.83" y2="344.5" xlink:href="#linear-gradient-4"/><radialGradient id="radial-gradient" cx="153.35" cy="273.63" fx="153.35" fy="273.63" r="329.6" gradientUnits="userSpaceOnUse"><stop offset="0" stop-color="#3d3d3d"/><stop offset="1" stop-color="#8f8f8f"/></radialGradient><linearGradient id="linear-gradient-20" x1="700.82" y1="668.29" x2="915.49" y2="668.29" xlink:href="#linear-gradient-4"/><linearGradient id="linear-gradient-21" x1="719.12" y1="607.08" x2="1023.54" y2="607.08" xlink:href="#linear-gradient-4"/><linearGradient id="linear-gradient-22" x1="776.57" y1="607.1" x2="964.31" y2="607.1" xlink:href="#linear-gradient-4"/><linearGradient id="linear-gradient-23" x1="874.52" y1="554.3" x2="1089.18" y2="554.3" xlink:href="#linear-gradient-4"/><linearGradient id="linear-gradient-24" x1="892.82" y1="493.09" x2="1197.24" y2="493.09" xlink:href="#linear-gradient-4"/><linearGradient id="linear-gradient-25" x1="956.34" y1="493.09" x2="1133.71" y2="493.09" xlink:href="#linear-gradient-4"/><linearGradient id="linear-gradient-26" x1="700.82" y1="440.32" x2="915.49" y2="440.32" xlink:href="#linear-gradient-4"/><linearGradient id="linear-gradient-27" x1="719.12" y1="379.11" x2="1023.54" y2="379.11" xlink:href="#linear-gradient-4"/><linearGradient id="linear-gradient-28" x1="476.67" y1="797.98" x2="691.34" y2="797.98" xlink:href="#linear-gradient-4"/><linearGradient id="linear-gradient-29" x1="494.97" y1="736.76" x2="799.39" y2="736.76" xlink:href="#linear-gradient-4"/><linearGradient id="linear-gradient-30" x1="552.41" y1="736.78" x2="740.16" y2="736.78" xlink:href="#linear-gradient-4"/><linearGradient id="linear-gradient-31" x1="476.67" y1="683.99" x2="691.34" y2="683.99" xlink:href="#linear-gradient-4"/><linearGradient id="linear-gradient-32" x1="494.97" y1="622.78" x2="799.39" y2="622.78" xlink:href="#linear-gradient-4"/><linearGradient id="linear-gradient-33" x1="558.49" y1="622.78" x2="735.87" y2="622.78" xlink:href="#linear-gradient-4"/><linearGradient id="linear-gradient-34" x1="476.67" y1="570.01" x2="691.34" y2="570.01" xlink:href="#linear-gradient-4"/><linearGradient id="linear-gradient-35" x1="494.97" y1="508.79" x2="799.39" y2="508.79" xlink:href="#linear-gradient-4"/></defs><path class="cls-1" d="M553.66,496.06c0,3.03-2.45,5.48-5.48,5.48s-5.48-2.45-5.48-5.48,2.45-5.48,5.48-5.48,5.48,2.45,5.48,5.48Z"/><path class="cls-11" d="M633.7,415.08c0,12-9.73,21.72-21.72,21.72s-21.72-9.73-21.72-21.72,9.73-21.72,21.72-21.72,21.72,9.73,21.72,21.72Z"/><circle class="cls-9" cx="611.97" cy="415.08" r="9.03"/><g><rect class="cls-6" x="1097.17" y="624.33" width="1.87" height="36.66"/><rect class="cls-6" x="1097.17" y="669.59" width="1.87" height="11.75"/></g><g><rect class="cls-6" x="199.22" y="596.86" width="1.87" height="36.66"/><rect class="cls-6" x="199.22" y="641.94" width="1.87" height="10.47"/><rect class="cls-6" x="199.22" y="661.19" width="1.87" height="10.47"/></g><g><rect class="cls-6" x="450.65" y="142" width="1.87" height="36.66"/><rect class="cls-6" x="450.65" y="187.07" width="1.87" height="10.47"/><rect class="cls-6" x="450.65" y="206.32" width="1.87" height="10.47"/><rect class="cls-6" x="450.65" y="225.57" width="1.87" height="29.72"/></g><g><rect class="cls-6" x="869.5" y="916.42" width="1.87" height="11.75"/><rect class="cls-6" x="869.5" y="823.12" width="1.87" height="37.18"/></g><g><rect class="cls-6" x="1123.5" y="456.73" width="1.87" height="11.75"/><g><rect class="cls-6" x="1123.5" y="411.48" width="1.87" height="36.66"/><rect class="cls-6" x="1123.5" y="363.43" width="1.87" height="37.18"/><rect class="cls-6" x="1123.5" y="308.22" width="1.87" height="37.18"/></g></g><g><circle class="cls-4" cx="901.36" cy="689.16" r="14.36"/><circle class="cls-3" cx="901.36" cy="689.16" r="7.06"/></g><g><path class="cls-4" d="M537.28,382.89c0,6.13-4.97,11.11-11.11,11.11s-11.11-4.97-11.11-11.11,4.97-11.11,11.11-11.11,11.11,4.97,11.11,11.11Z"/><circle class="cls-3" cx="526.18" cy="382.89" r="5.46"/></g><path class="cls-2" d="M901.67,499.8c0,1.86-1.51,3.37-3.37,3.37s-3.37-1.51-3.37-3.37,1.51-3.37,3.37-3.37,3.37,1.51,3.37,3.37Z"/><path class="cls-6" d="M442.88,770.6c0,1.86-1.51,3.37-3.37,3.37s-3.37-1.51-3.37-3.37,1.51-3.37,3.37-3.37,3.37,1.51,3.37,3.37Z"/><g><g><path class="cls-6" d="M647.7,668.01c-6.83,0-13.65-1.5-18.84-4.5l-126.72-73.16c-5.26-3.03-8.15-7.14-8.15-11.56s2.9-8.53,8.15-11.56l126.05-73.3c10.4-6,27.31-6,37.7,0l126.72,73.16c5.26,3.03,8.15,7.14,8.15,11.56s-2.9,8.53-8.15,11.56l-126.05,73.3c-5.2,3-12.02,4.5-18.85,4.5Zm-.67-176.26c-6.4,0-12.8,1.41-17.67,4.22l-126.05,73.3c-4.5,2.6-6.98,5.98-6.98,9.52s2.48,6.93,6.97,9.52l126.72,73.16c9.74,5.63,25.59,5.62,35.34,0l126.05-73.3c4.5-2.6,6.98-5.98,6.98-9.52s-2.48-6.92-6.97-9.52l-126.72-73.16c-4.87-2.81-11.27-4.22-17.67-4.22Z"/><g><path class="cls-10" d="M800.2,538.66h0l-.02-60.76-76.78,10.24-57.49-33.19c-10.08-5.82-26.43-5.82-36.52,0l-8.95,5.69-124.66,16.63v61.86h.05c.14,3.7,2.61,7.37,7.51,10.2l126.72,73.16c10.08,5.82,26.43,5.82,36.52,0l126.05-73.3c4.88-2.82,7.35-6.48,7.5-10.18h.06v-.36Z"/><path class="cls-14" d="M792.64,466.91l-126.72-73.16c-10.08-5.82-26.43-5.82-36.52,0l-126.06,73.3c-10.08,5.82-10.08,15.26,0,21.08l126.72,73.16c10.08,5.82,26.43,5.82,36.52,0l126.05-73.3c10.08-5.82,10.08-15.26,0-21.08Z"/><path class="cls-5" d="M792.64,484.31l-126.05,73.3c-10.08,5.82-26.43,5.82-36.52,0l-126.72-73.16c-4.23-2.44-6.66-5.52-7.34-8.7-.94,4.4,1.49,9,7.34,12.38l126.72,73.16c10.08,5.82,26.43,5.82,36.52,0l126.05-73.3c5.86-3.38,8.29-7.98,7.34-12.38-.68,3.18-3.11,6.26-7.34,8.7Z"/><g><polygon class="cls-5" points="683.62 577.51 677.62 580.97 677.62 574.04 683.62 570.58 683.62 577.51"/><polygon class="cls-5" points="696.17 570.26 690.17 573.72 690.17 566.8 696.17 563.33 696.17 570.26"/><polygon class="cls-5" points="708.72 563.01 702.72 566.48 702.72 559.55 708.72 556.09 708.72 563.01"/><polygon class="cls-5" points="698.46 582.98 692.46 586.44 692.46 579.51 698.46 576.05 698.46 582.98"/><polygon class="cls-5" points="709.51 576.59 703.51 580.06 703.51 573.13 709.51 569.67 709.51 576.59"/><polygon class="cls-5" points="748.98 539.77 742.98 543.24 742.98 536.31 748.98 532.84 748.98 539.77"/><polygon class="cls-5" points="783.55 519.81 777.55 523.27 777.55 516.35 783.55 512.88 783.55 519.81"/><polygon class="cls-5" points="721.27 555.77 715.27 559.23 715.27 552.3 721.27 548.84 721.27 555.77"/></g></g><path class="cls-12" d="M640.82,530.38l-85.26-49.22c-3.47-2-3.03-5.5,.97-7.81l83.31-48.1c4-2.31,10.05-2.56,13.52-.56l85.26,49.22c3.47,2,3.03,5.5-.97,7.81l-83.31,48.1c-4,2.31-10.05,2.56-13.52,.56Z"/><path class="cls-5" d="M607.28,583.66l-70.35-40.62c-1.68-.97-3.04-3.57-3.04-5.81v-5.22c0-2.24,1.36-3.27,3.04-2.3l70.35,40.62c1.68,.97,3.04,3.57,3.04,5.81v5.22c0,2.24-1.36,3.27-3.04,2.3Z"/><g><path class="cls-13" d="M800.2,424.68h0l-.02-60.76-76.78,10.24-57.49-33.19c-10.08-5.82-26.43-5.82-36.52,0l-8.95,5.69-124.66,16.63v61.86h.05c.14,3.7,2.61,7.37,7.51,10.2l126.72,73.16c10.08,5.82,26.43,5.82,36.52,0l126.05-73.3c4.88-2.82,7.35-6.48,7.5-10.18h.06v-.36Z"/><path class="cls-7" d="M792.64,352.92l-126.72-73.16c-10.08-5.82-26.43-5.82-36.52,0l-126.06,73.3c-10.08,5.82-10.08,15.26,0,21.08l126.72,73.16c10.08,5.82,26.43,5.82,36.52,0l126.05-73.3c10.08-5.82,10.08-15.26,0-21.08Z"/><path class="cls-8" d="M732.27,357.35l-73.84-42.63c-5.88-3.39-15.4-3.39-21.28,0l-73.45,42.71c-5.88,3.39-5.88,8.89,0,12.28l73.84,42.63c5.88,3.39,15.4,3.39,21.28,0l73.45-42.71c5.88-3.39,5.88-8.89,0-12.28Z"/><path class="cls-5" d="M792.64,370.32l-126.05,73.3c-10.08,5.82-26.43,5.82-36.52,0l-126.72-73.16c-4.23-2.44-6.66-5.52-7.34-8.7-.94,4.4,1.49,9,7.34,12.38l126.72,73.16c10.08,5.82,26.43,5.82,36.52,0l126.05-73.3c5.86-3.38,8.29-7.98,7.34-12.38-.68,3.18-3.11,6.26-7.34,8.7Z"/><g><polygon class="cls-5" points="683.62 463.52 677.62 466.99 677.62 460.06 683.62 456.59 683.62 463.52"/><polygon class="cls-5" points="696.17 456.28 690.17 459.74 690.17 452.81 696.17 449.35 696.17 456.28"/><polygon class="cls-5" points="708.72 449.03 702.72 452.49 702.72 445.57 708.72 442.1 708.72 449.03"/><polygon class="cls-5" points="698.46 468.99 692.46 472.45 692.46 465.53 698.46 462.06 698.46 468.99"/><polygon class="cls-5" points="709.51 462.61 703.51 466.07 703.51 459.15 709.51 455.68 709.51 462.61"/><polygon class="cls-5" points="748.98 425.79 742.98 429.25 742.98 422.32 748.98 418.86 748.98 425.79"/><polygon class="cls-5" points="783.55 405.83 777.55 409.29 777.55 402.36 783.55 398.9 783.55 405.83"/><polygon class="cls-5" points="721.27 441.78 715.27 445.25 715.27 438.32 721.27 434.86 721.27 441.78"/></g></g><g><path class="cls-28" d="M800.2,310.69h0l-.02-60.76-76.78,10.24-57.49-33.19c-10.08-5.82-26.43-5.82-36.52,0l-8.95,5.69-124.66,16.63v61.86h.05c.14,3.7,2.61,7.37,7.51,10.2l126.72,73.16c10.08,5.82,26.43,5.82,36.52,0l126.05-73.3c4.88-2.82,7.35-6.48,7.5-10.18h.06v-.36Z"/><path class="cls-29" d="M792.64,238.94l-126.72-73.16c-10.08-5.82-26.43-5.82-36.52,0l-126.06,73.3c-10.08,5.82-10.08,15.26,0,21.08l126.72,73.16c10.08,5.82,26.43,5.82,36.52,0l126.05-73.3c10.08-5.82,10.08-15.26,0-21.08Z"/><path class="cls-5" d="M792.64,256.34l-126.05,73.3c-10.08,5.82-26.43,5.82-36.52,0l-126.72-73.16c-4.23-2.44-6.66-5.52-7.34-8.7-.94,4.4,1.49,9,7.34,12.38l126.72,73.16c10.08,5.82,26.43,5.82,36.52,0l126.05-73.3c5.86-3.38,8.29-7.98,7.34-12.38-.68,3.18-3.11,6.26-7.34,8.7Z"/><g><polygon class="cls-5" points="683.62 349.54 677.62 353 677.62 346.07 683.62 342.61 683.62 349.54"/><polygon class="cls-5" points="696.17 342.29 690.17 345.75 690.17 338.83 696.17 335.36 696.17 342.29"/><polygon class="cls-5" points="708.72 335.04 702.72 338.51 702.72 331.58 708.72 328.12 708.72 335.04"/><polygon class="cls-5" points="698.46 355.01 692.46 358.47 692.46 351.54 698.46 348.08 698.46 355.01"/><polygon class="cls-5" points="709.51 348.63 703.51 352.09 703.51 345.16 709.51 341.7 709.51 348.63"/><polygon class="cls-5" points="748.98 311.8 742.98 315.27 742.98 308.34 748.98 304.88 748.98 311.8"/><polygon class="cls-5" points="783.55 291.84 777.55 295.3 777.55 288.38 783.55 284.91 783.55 291.84"/><polygon class="cls-5" points="721.27 327.8 715.27 331.26 715.27 324.34 721.27 320.87 721.27 327.8"/></g></g></g><g><path class="cls-6" d="M423.55,797.7c-6.83,0-13.65-1.5-18.85-4.5l-126.72-73.16c-5.26-3.04-8.15-7.14-8.15-11.56s2.9-8.53,8.15-11.56l126.05-73.3c10.39-6,27.31-6,37.7,0l126.72,73.16c5.26,3.04,8.15,7.14,8.15,11.56s-2.9,8.53-8.15,11.56l-126.05,73.3c-5.2,3-12.03,4.5-18.85,4.5Zm-.67-176.27c-6.4,0-12.8,1.41-17.67,4.22l-126.05,73.3c-4.5,2.6-6.98,5.98-6.98,9.53s2.48,6.92,6.97,9.52l126.72,73.16c9.74,5.62,25.6,5.62,35.34,0l126.05-73.3c4.5-2.6,6.98-5.98,6.98-9.53s-2.48-6.92-6.97-9.52l-126.72-73.16c-4.87-2.81-11.27-4.22-17.67-4.22Z"/><g><path class="cls-27" d="M576.05,668.35h0l-.02-60.76-76.78,10.24-57.49-33.19c-10.08-5.82-26.43-5.82-36.52,0l-8.95,5.69-124.66,16.63v61.86h.05c.14,3.7,2.61,7.37,7.51,10.2l126.72,73.16c10.08,5.82,26.43,5.82,36.52,0l126.05-73.3c4.88-2.82,7.35-6.48,7.5-10.18h.06v-.36Z"/><path class="cls-26" d="M568.49,596.6l-126.72-73.16c-10.08-5.82-26.43-5.82-36.52,0l-126.06,73.3c-10.08,5.82-10.08,15.26,0,21.08l126.72,73.16c10.08,5.82,26.43,5.82,36.52,0l126.05-73.3c10.08-5.82,10.08-15.26,0-21.08Z"/><path class="cls-5" d="M568.49,614l-126.05,73.3c-10.08,5.82-26.43,5.82-36.52,0l-126.72-73.16c-4.23-2.44-6.66-5.52-7.34-8.7-.94,4.4,1.49,9,7.34,12.38l126.72,73.16c10.08,5.82,26.43,5.82,36.52,0l126.05-73.3c5.86-3.38,8.29-7.98,7.34-12.38-.68,3.18-3.11,6.26-7.34,8.7Z"/><g><polygon class="cls-5" points="459.47 707.19 453.47 710.66 453.47 703.73 459.47 700.27 459.47 707.19"/><polygon class="cls-5" points="472.02 699.95 466.02 703.41 466.02 696.48 472.02 693.02 472.02 699.95"/><polygon class="cls-5" points="484.57 692.7 478.57 696.17 478.57 689.24 484.57 685.77 484.57 692.7"/><polygon class="cls-5" points="474.31 712.66 468.31 716.13 468.31 709.2 474.31 705.74 474.31 712.66"/><polygon class="cls-5" points="485.36 706.28 479.36 709.75 479.36 702.82 485.36 699.36 485.36 706.28"/><polygon class="cls-5" points="524.83 669.46 518.83 672.92 518.83 666 524.83 662.53 524.83 669.46"/><polygon class="cls-5" points="559.4 649.5 553.4 652.96 553.4 646.03 559.4 642.57 559.4 649.5"/><polygon class="cls-5" points="497.12 685.46 491.12 688.92 491.12 681.99 497.12 678.53 497.12 685.46"/></g></g><path class="cls-16" d="M416.67,660.07l-85.26-49.22c-3.47-2-3.03-5.5,.97-7.81l83.31-48.1c4-2.31,10.05-2.56,13.52-.56l85.26,49.22c3.47,2,3.03,5.5-.97,7.81l-83.31,48.1c-4,2.31-10.05,2.56-13.52,.56Z"/><path class="cls-5" d="M383.13,713.35l-70.35-40.62c-1.68-.97-3.04-3.57-3.04-5.81v-5.22c0-2.24,1.36-3.27,3.04-2.3l70.35,40.62c1.68,.97,3.04,3.57,3.04,5.81v5.22c0,2.24-1.36,3.27-3.04,2.3Z"/><g><path class="cls-22" d="M541.31,554.36h0l-.02-60.76-76.78,10.24-57.49-33.19c-10.08-5.82-26.43-5.82-36.52,0l-8.95,5.69-124.66,16.63v61.86h.05c.14,3.7,2.61,7.37,7.51,10.2l126.72,73.16c10.08,5.82,26.43,5.82,36.52,0l126.05-73.3c4.88-2.82,7.35-6.48,7.5-10.18h.06v-.36Z"/><path class="cls-24" d="M533.75,482.61l-126.72-73.16c-10.08-5.82-26.43-5.82-36.52,0l-126.06,73.3c-10.08,5.82-10.08,15.26,0,21.08l126.72,73.16c10.08,5.82,26.43,5.82,36.52,0l126.05-73.3c10.08-5.82,10.08-15.26,0-21.08Z"/><path class="cls-25" d="M473.38,487.04l-73.84-42.63c-5.88-3.39-15.4-3.39-21.28,0l-73.45,42.71c-5.88,3.39-5.88,8.89,0,12.28l73.84,42.63c5.88,3.39,15.4,3.39,21.28,0l73.45-42.71c5.88-3.39,5.88-8.89,0-12.28Z"/><path class="cls-5" d="M533.75,500.01l-126.05,73.3c-10.08,5.82-26.43,5.82-36.52,0l-126.72-73.16c-4.23-2.44-6.66-5.52-7.34-8.7-.94,4.4,1.49,9,7.34,12.38l126.72,73.16c10.08,5.82,26.43,5.82,36.52,0l126.05-73.3c5.86-3.38,8.29-7.98,7.34-12.38-.68,3.18-3.11,6.26-7.34,8.7Z"/><g><polygon class="cls-5" points="424.73 593.21 418.73 596.67 418.73 589.75 424.73 586.28 424.73 593.21"/><polygon class="cls-5" points="437.28 585.96 431.28 589.43 431.28 582.5 437.28 579.04 437.28 585.96"/><polygon class="cls-5" points="449.83 578.72 443.83 582.18 443.83 575.25 449.83 571.79 449.83 578.72"/><polygon class="cls-5" points="439.57 598.68 433.57 602.14 433.57 595.21 439.57 591.75 439.57 598.68"/><polygon class="cls-5" points="450.62 592.3 444.62 595.76 444.62 588.83 450.62 585.37 450.62 592.3"/><polygon class="cls-5" points="490.09 555.47 484.09 558.94 484.09 552.01 490.09 548.55 490.09 555.47"/><polygon class="cls-5" points="524.66 535.51 518.66 538.98 518.66 532.05 524.66 528.59 524.66 535.51"/><polygon class="cls-5" points="462.38 571.47 456.38 574.93 456.38 568.01 462.38 564.54 462.38 571.47"/></g></g><g><path class="cls-17" d="M471.83,405.64h0l-.02-60.76-76.78,10.24-57.49-33.19c-10.08-5.82-26.43-5.82-36.52,0l-8.95,5.69-124.66,16.63v61.86h.05c.14,3.7,2.61,7.37,7.51,10.2l126.72,73.16c10.08,5.82,26.43,5.82,36.52,0l126.05-73.3c4.88-2.82,7.35-6.48,7.5-10.18h.06v-.36Z"/><path class="cls-23" d="M464.27,333.89l-126.72-73.16c-10.08-5.82-26.43-5.82-36.52,0l-126.06,73.3c-10.08,5.82-10.08,15.26,0,21.08l126.72,73.16c10.08,5.82,26.43,5.82,36.52,0l126.05-73.3c10.08-5.82,10.08-15.26,0-21.08Z"/><path class="cls-15" d="M464.27,333.89l-126.72-73.16c-10.08-5.82-26.43-5.82-36.52,0l-126.06,73.3c-10.08,5.82-10.08,15.26,0,21.08l126.72,73.16c10.08,5.82,26.43,5.82,36.52,0l126.05-73.3c10.08-5.82,10.08-15.26,0-21.08Z"/><path class="cls-6" d="M319.84,404.56c-4.65,0-9.3-1.04-12.92-3.14l-83.96-48.48c-3.76-2.17-5.83-5.16-5.83-8.41s2.07-6.24,5.83-8.41l83.52-48.57c7.25-4.19,18.6-4.18,25.84,0l83.97,48.48c3.76,2.17,5.83,5.16,5.83,8.41s-2.07,6.24-5.83,8.41l-83.52,48.57c-3.63,2.09-8.28,3.14-12.93,3.14Zm-.44-116.84c-4.08,0-8.17,.9-11.27,2.69l-83.52,48.57c-2.71,1.56-4.19,3.53-4.19,5.56s1.49,4,4.19,5.56l83.96,48.48c6.22,3.59,16.33,3.59,22.55,0l83.52-48.57c2.71-1.56,4.19-3.53,4.19-5.56s-1.49-4-4.19-5.56l-83.97-48.48c-3.11-1.79-7.19-2.69-11.27-2.69Z"/><path class="cls-5" d="M464.27,351.29l-126.05,73.3c-10.08,5.82-26.43,5.82-36.52,0l-126.72-73.16c-4.23-2.44-6.66-5.52-7.34-8.7-.94,4.4,1.49,9,7.34,12.38l126.72,73.16c10.08,5.82,26.43,5.82,36.52,0l126.05-73.3c5.86-3.38,8.29-7.98,7.34-12.38-.68,3.18-3.11,6.26-7.34,8.7Z"/><g><polygon class="cls-5" points="355.25 444.49 349.25 447.95 349.25 441.02 355.25 437.56 355.25 444.49"/><polygon class="cls-5" points="367.8 437.24 361.81 440.7 361.81 433.78 367.8 430.31 367.8 437.24"/><polygon class="cls-5" points="380.35 429.99 374.36 433.46 374.36 426.53 380.35 423.07 380.35 429.99"/><polygon class="cls-5" points="370.09 449.95 364.09 453.42 364.09 446.49 370.09 443.03 370.09 449.95"/><polygon class="cls-5" points="381.14 443.57 375.15 447.04 375.15 440.11 381.14 436.65 381.14 443.57"/><polygon class="cls-5" points="420.61 406.75 414.61 410.21 414.61 403.29 420.61 399.82 420.61 406.75"/><polygon class="cls-5" points="455.19 386.79 449.19 390.25 449.19 383.33 455.19 379.86 455.19 386.79"/><polygon class="cls-5" points="392.91 422.75 386.91 426.21 386.91 419.28 392.91 415.82 392.91 422.75"/></g></g></g><g><path class="cls-6" d="M871.04,797.57c-6.83,0-13.65-1.5-18.84-4.5l-126.72-73.16c-5.26-3.04-8.15-7.14-8.15-11.56s2.9-8.53,8.15-11.57l126.05-73.29c10.39-6,27.31-6,37.7,0l126.73,73.16c5.26,3.04,8.15,7.14,8.15,11.56s-2.89,8.53-8.15,11.56l-126.05,73.3c-5.2,3-12.02,4.5-18.85,4.5Zm-.67-176.26c-6.4,0-12.8,1.41-17.67,4.22l-126.05,73.29c-4.5,2.6-6.98,5.98-6.98,9.53,0,3.55,2.48,6.92,6.97,9.52l126.72,73.16c9.74,5.62,25.59,5.62,35.34,0l126.05-73.3c4.5-2.6,6.98-5.98,6.98-9.52s-2.48-6.92-6.97-9.52l-126.72-73.16c-4.87-2.81-11.27-4.22-17.67-4.22Z"/><g><path class="cls-19" d="M1023.54,668.22h0l-.02-60.76-76.78,10.24-57.49-33.19c-10.08-5.82-26.43-5.82-36.52,0l-8.95,5.69-124.66,16.63v61.86h.05c.14,3.7,2.61,7.37,7.51,10.2l126.72,73.16c10.08,5.82,26.43,5.82,36.52,0l126.05-73.3c4.88-2.82,7.35-6.48,7.5-10.18h.06v-.36Z"/><path class="cls-20" d="M1015.98,596.47l-126.72-73.16c-10.08-5.82-26.43-5.82-36.52,0l-126.05,73.3c-10.08,5.82-10.08,15.26,0,21.08l126.72,73.16c10.08,5.82,26.43,5.82,36.52,0l126.06-73.3c10.08-5.82,10.08-15.26,0-21.08Z"/><path class="cls-5" d="M1015.98,613.87l-126.05,73.3c-10.08,5.82-26.43,5.82-36.52,0l-126.72-73.16c-4.23-2.44-6.66-5.52-7.34-8.7-.94,4.4,1.49,9,7.34,12.38l126.72,73.16c10.08,5.82,26.43,5.82,36.52,0l126.05-73.3c5.86-3.38,8.29-7.98,7.34-12.38-.68,3.18-3.11,6.26-7.34,8.7Z"/><g><polygon class="cls-5" points="906.96 707.07 900.96 710.53 900.96 703.6 906.96 700.14 906.96 707.07"/><polygon class="cls-5" points="919.51 699.82 913.52 703.28 913.52 696.36 919.51 692.89 919.51 699.82"/><polygon class="cls-5" points="932.07 692.57 926.07 696.04 926.07 689.11 932.07 685.65 932.07 692.57"/><polygon class="cls-5" points="921.8 712.53 915.8 716 915.8 709.07 921.8 705.61 921.8 712.53"/><polygon class="cls-5" points="932.85 706.15 926.86 709.62 926.86 702.69 932.85 699.23 932.85 706.15"/><polygon class="cls-5" points="972.32 669.33 966.32 672.79 966.32 665.87 972.32 662.4 972.32 669.33"/><polygon class="cls-5" points="1006.9 649.37 1000.9 652.83 1000.9 645.91 1006.9 642.44 1006.9 649.37"/><polygon class="cls-5" points="944.62 685.33 938.62 688.79 938.62 681.86 944.62 678.4 944.62 685.33"/></g></g><path class="cls-18" d="M864.16,659.94l-85.26-49.22c-3.47-2-3.03-5.5,.97-7.81l83.31-48.1c4-2.31,10.05-2.56,13.52-.56l85.26,49.22c3.47,2,3.03,5.5-.97,7.81l-83.31,48.1c-4,2.31-10.05,2.56-13.52,.56Z"/><path class="cls-5" d="M830.62,713.22l-70.35-40.62c-1.68-.97-3.04-3.57-3.04-5.81v-5.22c0-2.24,1.36-3.27,3.04-2.3l70.35,40.62c1.68,.97,3.04,3.57,3.04,5.81v5.22c0,2.24-1.36,3.27-3.04,2.3Z"/><g><path class="cls-21" d="M1197.24,554.24h0l-.02-60.76-76.78,10.24-57.49-33.19c-10.08-5.82-26.43-5.82-36.52,0l-8.95,5.69-124.66,16.63v61.86h.05c.14,3.7,2.61,7.37,7.51,10.2l126.72,73.16c10.08,5.82,26.43,5.82,36.52,0l126.05-73.3c4.88-2.82,7.35-6.48,7.5-10.18h.06v-.36Z"/><path class="cls-31" d="M1189.67,482.48l-126.72-73.16c-10.08-5.82-26.43-5.82-36.52,0l-126.05,73.3c-10.08,5.82-10.08,15.26,0,21.08l126.72,73.16c10.08,5.82,26.43,5.82,36.52,0l126.06-73.3c10.08-5.82,10.08-15.26,0-21.08Z"/><path class="cls-35" d="M1129.31,486.91l-73.84-42.63c-5.88-3.39-15.4-3.39-21.28,0l-73.45,42.71c-5.88,3.39-5.88,8.89,0,12.28l73.84,42.63c5.88,3.39,15.4,3.39,21.28,0l73.45-42.71c5.88-3.39,5.88-8.89,0-12.28Z"/><path class="cls-5" d="M1189.67,499.88l-126.05,73.3c-10.08,5.82-26.43,5.82-36.52,0l-126.72-73.16c-4.23-2.44-6.66-5.52-7.34-8.7-.94,4.4,1.49,9,7.34,12.38l126.72,73.16c10.08,5.82,26.43,5.82,36.52,0l126.05-73.3c5.86-3.38,8.29-7.98,7.34-12.38-.68,3.18-3.11,6.26-7.34,8.7Z"/><g><polygon class="cls-5" points="1080.66 593.08 1074.66 596.55 1074.66 589.62 1080.66 586.15 1080.66 593.08"/><polygon class="cls-5" points="1093.21 585.84 1087.21 589.3 1087.21 582.37 1093.21 578.91 1093.21 585.84"/><polygon class="cls-5" points="1105.76 578.59 1099.76 582.05 1099.76 575.13 1105.76 571.66 1105.76 578.59"/><polygon class="cls-5" points="1095.5 598.55 1089.5 602.01 1089.5 595.09 1095.5 591.62 1095.5 598.55"/><polygon class="cls-5" points="1106.55 592.17 1100.55 595.63 1100.55 588.71 1106.55 585.24 1106.55 592.17"/><polygon class="cls-5" points="1146.01 555.35 1140.02 558.81 1140.02 551.88 1146.01 548.42 1146.01 555.35"/><polygon class="cls-5" points="1180.59 535.39 1174.59 538.85 1174.59 531.92 1180.59 528.46 1180.59 535.39"/><polygon class="cls-5" points="1118.31 571.34 1112.31 574.81 1112.31 567.88 1118.31 564.42 1118.31 571.34"/></g></g><g><path class="cls-32" d="M1023.54,440.25h0l-.02-60.76-76.78,10.24-57.49-33.19c-10.08-5.82-26.43-5.82-36.52,0l-8.95,5.69-124.66,16.63v61.86h.05c.14,3.7,2.61,7.37,7.51,10.2l126.72,73.16c10.08,5.82,26.43,5.82,36.52,0l126.05-73.3c4.88-2.82,7.35-6.48,7.5-10.18h.06v-.36Z"/><path class="cls-30" d="M1015.98,368.5l-126.72-73.16c-10.08-5.82-26.43-5.82-36.52,0l-126.05,73.3c-10.08,5.82-10.08,15.26,0,21.08l126.72,73.16c10.08,5.82,26.43,5.82,36.52,0l126.06-73.3c10.08-5.82,10.08-15.26,0-21.08Z"/><path class="cls-5" d="M1015.98,385.9l-126.05,73.3c-10.08,5.82-26.43,5.82-36.52,0l-126.72-73.16c-4.23-2.44-6.66-5.52-7.34-8.7-.94,4.4,1.49,9,7.34,12.38l126.72,73.16c10.08,5.82,26.43,5.82,36.52,0l126.05-73.3c5.86-3.38,8.29-7.98,7.34-12.38-.68,3.18-3.11,6.26-7.34,8.7Z"/><g><polygon class="cls-5" points="906.96 479.1 900.96 482.56 900.96 475.63 906.96 472.17 906.96 479.1"/><polygon class="cls-5" points="919.51 471.85 913.52 475.31 913.52 468.39 919.51 464.92 919.51 471.85"/><polygon class="cls-5" points="932.07 464.6 926.07 468.07 926.07 461.14 932.07 457.68 932.07 464.6"/><polygon class="cls-5" points="921.8 484.57 915.8 488.03 915.8 481.1 921.8 477.64 921.8 484.57"/><polygon class="cls-5" points="932.85 478.18 926.86 481.65 926.86 474.72 932.85 471.26 932.85 478.18"/><polygon class="cls-5" points="972.32 441.36 966.32 444.83 966.32 437.9 972.32 434.43 972.32 441.36"/><polygon class="cls-5" points="1006.9 421.4 1000.9 424.86 1000.9 417.94 1006.9 414.47 1006.9 421.4"/><polygon class="cls-5" points="944.62 457.36 938.62 460.82 938.62 453.89 944.62 450.43 944.62 457.36"/></g></g></g><g><path class="cls-6" d="M646.89,927.26c-6.83,0-13.65-1.5-18.84-4.5l-126.72-73.16c-5.26-3.04-8.15-7.14-8.15-11.56s2.9-8.53,8.15-11.56l126.05-73.3c10.4-6,27.31-6,37.7,0l126.72,73.16c5.26,3.04,8.15,7.14,8.15,11.56s-2.9,8.53-8.15,11.56l-126.05,73.3c-5.2,3-12.02,4.5-18.85,4.5Zm-.67-176.27c-6.4,0-12.8,1.41-17.67,4.22l-126.05,73.3c-4.5,2.6-6.98,5.98-6.98,9.53s2.48,6.92,6.97,9.52l126.72,73.16c9.74,5.62,25.59,5.62,35.34,0l126.05-73.3c4.5-2.6,6.98-5.98,6.98-9.53s-2.48-6.92-6.97-9.52l-126.72-73.16c-4.87-2.81-11.27-4.22-17.67-4.22Z"/><path class="cls-6" d="M759.85,829.66l-99.26-57.31c-7.9-4.56-20.7-4.56-28.6,0l-98.73,57.41c-7.9,4.56-7.9,11.95,0,16.51l99.26,57.31c7.9,4.56,20.7,4.56,28.6,0l98.73-57.41c7.9-4.56,7.9-11.95,0-16.51Z"/><g><path class="cls-36" d="M799.39,797.91h0l-.02-60.76-76.78,10.24-57.49-33.19c-10.08-5.82-26.43-5.82-36.52,0l-8.95,5.69-124.66,16.63v61.86h.05c.14,3.7,2.61,7.37,7.51,10.2l126.72,73.16c10.08,5.82,26.43,5.82,36.52,0l126.05-73.3c4.88-2.82,7.35-6.48,7.5-10.18h.06v-.36Z"/><path class="cls-37" d="M791.83,726.15l-126.72-73.16c-10.08-5.82-26.43-5.82-36.52,0l-126.05,73.3c-10.08,5.82-10.08,15.26,0,21.08l126.72,73.16c10.08,5.82,26.43,5.82,36.52,0l126.06-73.3c10.08-5.82,10.08-15.26,0-21.08Z"/><path class="cls-5" d="M791.83,743.55l-126.06,73.3c-10.08,5.82-26.43,5.82-36.52,0l-126.72-73.16c-4.23-2.44-6.66-5.52-7.34-8.7-.94,4.4,1.49,9,7.34,12.38l126.72,73.16c10.08,5.82,26.43,5.82,36.52,0l126.06-73.3c5.86-3.38,8.29-7.98,7.34-12.38-.68,3.18-3.11,6.26-7.34,8.7Z"/><g><polygon class="cls-5" points="682.81 836.75 676.81 840.22 676.81 833.29 682.81 829.83 682.81 836.75"/><polygon class="cls-5" points="695.36 829.51 689.36 832.97 689.36 826.04 695.36 822.58 695.36 829.51"/><polygon class="cls-5" points="707.91 822.26 701.91 825.72 701.91 818.8 707.91 815.33 707.91 822.26"/><polygon class="cls-5" points="697.65 842.22 691.65 845.69 691.65 838.76 697.65 835.29 697.65 842.22"/><polygon class="cls-5" points="708.7 835.84 702.7 839.31 702.7 832.38 708.7 828.91 708.7 835.84"/><polygon class="cls-5" points="748.17 799.02 742.17 802.48 742.17 795.56 748.17 792.09 748.17 799.02"/><polygon class="cls-5" points="782.74 779.06 776.75 782.52 776.75 775.59 782.74 772.13 782.74 779.06"/><polygon class="cls-5" points="720.46 815.02 714.46 818.48 714.46 811.55 720.46 808.09 720.46 815.02"/></g></g><path class="cls-39" d="M640.01,789.63l-85.26-49.22c-3.47-2-3.03-5.5,.97-7.81l83.31-48.1c4-2.31,10.05-2.56,13.52-.56l85.26,49.22c3.47,2,3.03,5.5-.97,7.81l-83.31,48.1c-4,2.31-10.05,2.56-13.52,.56Z"/><path class="cls-5" d="M606.47,842.91l-70.35-40.62c-1.68-.97-3.04-3.57-3.04-5.81v-5.22c0-2.24,1.36-3.27,3.04-2.3l70.35,40.62c1.68,.97,3.04,3.57,3.04,5.81v5.22c0,2.24-1.36,3.27-3.04,2.3Z"/><g><path class="cls-41" d="M799.39,683.92h0l-.02-60.76-76.78,10.24-57.49-33.19c-10.08-5.82-26.43-5.82-36.52,0l-8.95,5.69-124.66,16.63v61.86h.05c.14,3.7,2.61,7.37,7.51,10.2l126.72,73.16c10.08,5.82,26.43,5.82,36.52,0l126.05-73.3c4.88-2.82,7.35-6.48,7.5-10.18h.06v-.36Z"/><path class="cls-40" d="M791.83,612.17l-126.72-73.16c-10.08-5.82-26.43-5.82-36.52,0l-126.05,73.3c-10.08,5.82-10.08,15.26,0,21.08l126.72,73.16c10.08,5.82,26.43,5.82,36.52,0l126.06-73.3c10.08-5.82,10.08-15.26,0-21.08Z"/><path class="cls-38" d="M731.46,616.6l-73.84-42.63c-5.88-3.39-15.4-3.39-21.28,0l-73.45,42.71c-5.88,3.39-5.88,8.89,0,12.28l73.84,42.63c5.88,3.39,15.4,3.39,21.28,0l73.45-42.71c5.88-3.39,5.88-8.89,0-12.28Z"/><path class="cls-5" d="M791.83,629.57l-126.06,73.3c-10.08,5.82-26.43,5.82-36.52,0l-126.72-73.16c-4.23-2.44-6.66-5.52-7.34-8.7-.94,4.4,1.49,9,7.34,12.38l126.72,73.16c10.08,5.82,26.43,5.82,36.52,0l126.06-73.3c5.86-3.38,8.29-7.98,7.34-12.38-.68,3.18-3.11,6.26-7.34,8.7Z"/><g><polygon class="cls-5" points="682.81 722.77 676.81 726.23 676.81 719.31 682.81 715.84 682.81 722.77"/><polygon class="cls-5" points="695.36 715.52 689.36 718.99 689.36 712.06 695.36 708.6 695.36 715.52"/><polygon class="cls-5" points="707.91 708.28 701.91 711.74 701.91 704.81 707.91 701.35 707.91 708.28"/><polygon class="cls-5" points="697.65 728.24 691.65 731.7 691.65 724.77 697.65 721.31 697.65 728.24"/><polygon class="cls-5" points="708.7 721.86 702.7 725.32 702.7 718.39 708.7 714.93 708.7 721.86"/><polygon class="cls-5" points="748.17 685.03 742.17 688.5 742.17 681.57 748.17 678.11 748.17 685.03"/><polygon class="cls-5" points="782.74 665.07 776.75 668.54 776.75 661.61 782.74 658.15 782.74 665.07"/><polygon class="cls-5" points="720.46 701.03 714.46 704.49 714.46 697.57 720.46 694.1 720.46 701.03"/></g></g><g><path class="cls-34" d="M799.39,569.94h0l-.02-60.76-76.78,10.24-57.49-33.19c-10.08-5.82-26.43-5.82-36.52,0l-8.95,5.69-124.66,16.63v61.86h.05c.14,3.7,2.61,7.37,7.51,10.2l126.72,73.16c10.08,5.82,26.43,5.82,36.52,0l126.05-73.3c4.88-2.82,7.35-6.48,7.5-10.18h.06v-.36Z"/><path class="cls-33" d="M791.83,498.19l-126.72-73.16c-10.08-5.82-26.43-5.82-36.52,0l-126.05,73.3c-10.08,5.82-10.08,15.26,0,21.08l126.72,73.16c10.08,5.82,26.43,5.82,36.52,0l126.06-73.3c10.08-5.82,10.08-15.26,0-21.08Z"/><path class="cls-5" d="M791.83,515.59l-126.06,73.3c-10.08,5.82-26.43,5.82-36.52,0l-126.72-73.16c-4.23-2.44-6.66-5.52-7.34-8.7-.94,4.4,1.49,9,7.34,12.38l126.72,73.16c10.08,5.82,26.43,5.82,36.52,0l126.06-73.3c5.86-3.38,8.29-7.98,7.34-12.38-.68,3.18-3.11,6.26-7.34,8.7Z"/><g><polygon class="cls-5" points="682.81 608.78 676.81 612.25 676.81 605.32 682.81 601.86 682.81 608.78"/><polygon class="cls-5" points="695.36 601.54 689.36 605 689.36 598.07 695.36 594.61 695.36 601.54"/><polygon class="cls-5" points="707.91 594.29 701.91 597.76 701.91 590.83 707.91 587.36 707.91 594.29"/><polygon class="cls-5" points="697.65 614.25 691.65 617.72 691.65 610.79 697.65 607.33 697.65 614.25"/><polygon class="cls-5" points="708.7 607.87 702.7 611.34 702.7 604.41 708.7 600.94 708.7 607.87"/><polygon class="cls-5" points="748.17 571.05 742.17 574.51 742.17 567.59 748.17 564.12 748.17 571.05"/><polygon class="cls-5" points="782.74 551.09 776.75 554.55 776.75 547.62 782.74 544.16 782.74 551.09"/><polygon class="cls-5" points="720.46 587.05 714.46 590.51 714.46 583.58 720.46 580.12 720.46 587.05"/></g></g></g></g><g><rect class="cls-6" x="1057.39" y="694.63" width="2.36" height="251.88" transform="translate(-181.36 1327) rotate(-60)"/><path class="cls-6" d="M1259.61,831.12l-69.7-40.24c-6.36-3.67-14.78-6.08-23.73-6.78l-74.81-5.88c-9.29-.73-18.07-3.24-24.72-7.09l-69.7-40.24,1.18-2.04,69.7,40.24c6.35,3.67,14.78,6.08,23.73,6.78l74.81,5.88c9.29,.73,18.07,3.25,24.73,7.09l69.7,40.24-1.18,2.04Z"/><path class="cls-6" d="M1074.49,938l-69.7-40.24c-6.79-3.92-11.25-9.16-12.57-14.74l-10.18-43.19c-1.17-4.95-5.23-9.65-11.46-13.24l-69.7-40.24,1.18-2.04,69.7,40.24c6.79,3.92,11.26,9.16,12.57,14.74l10.18,43.19c1.17,4.95,5.23,9.65,11.46,13.24l69.7,40.24-1.18,2.04Z"/><path class="cls-6" d="M1120.77,911.28l-74.29-42.89c-3.78-2.18-6.82-4.73-9.03-7.57l-29.92-38.47c-2.02-2.6-4.83-4.94-8.35-6.97l-74.29-42.89,1.18-2.04,74.29,42.89c3.78,2.18,6.82,4.73,9.03,7.57l29.92,38.47c2.02,2.59,4.83,4.94,8.35,6.97l74.29,42.89-1.18,2.04Z"/><path class="cls-6" d="M1213.33,857.84l-74.29-42.89c-3.55-2.05-7.69-3.7-12.3-4.9l-66.63-17.28c-4.81-1.25-9.14-2.97-12.89-5.13l-74.29-42.89,1.18-2.04,74.29,42.89c3.56,2.06,7.7,3.7,12.3,4.9l66.63,17.28c4.82,1.25,9.15,2.97,12.89,5.13l74.29,42.89-1.18,2.04Z"/></g><g><rect class="cls-6" x="52.37" y="792.64" width="260.16" height="2.36" transform="translate(-372.07 197.21) rotate(-29.96)"/><rect class="cls-6" x="84.59" y="811.24" width="260.16" height="2.36" transform="translate(-377.05 215.78) rotate(-29.96)"/><rect class="cls-6" x="116.81" y="829.84" width="260.16" height="2.36" transform="translate(-382.03 234.36) rotate(-29.96)"/><rect class="cls-6" x="149.03" y="848.44" width="260.16" height="2.36" transform="translate(-387.02 252.94) rotate(-29.96)"/></g></svg>