<?xml version="1.0" encoding="UTF-8"?><svg id="Capa_1" xmlns="http://www.w3.org/2000/svg" xmlns:xlink="http://www.w3.org/1999/xlink" viewBox="0 0 1330 1080"><defs><style>.cls-1{fill:url(#_ÂÁ_Ï_ÌÌ_È_ËÂÌÚ_142-2);}.cls-2{fill:url(#_ÂÁ_Ï_ÌÌ_È_ËÂÌÚ_142-3);}.cls-3{fill:url(#_ÂÁ_Ï_ÌÌ_È_ËÂÌÚ_142-4);}.cls-4{fill:url(#linear-gradient);opacity:.2;}.cls-5{fill:#eaeaea;}.cls-6{fill:#fff;}.cls-7{fill:#fcc29f;}.cls-8{fill:#666;}.cls-9{fill:#939393;}.cls-10{fill:#ccc;}.cls-11{fill:#dbdbdb;}.cls-12{fill:#d3d3d3;}.cls-13{fill:url(#linear-gradient-8);}.cls-14{fill:url(#linear-gradient-9);}.cls-15{fill:url(#linear-gradient-3);}.cls-16{fill:url(#linear-gradient-4);}.cls-17{fill:url(#linear-gradient-2);}.cls-18{fill:url(#linear-gradient-6);}.cls-19{fill:url(#linear-gradient-7);}.cls-20{fill:url(#linear-gradient-5);}.cls-21{fill:url(#linear-gradient-11);opacity:.3;}.cls-22{opacity:.5;}.cls-23{fill:url(#linear-gradient-14);}.cls-24{fill:url(#linear-gradient-18);}.cls-25{fill:url(#linear-gradient-22);}.cls-26{fill:url(#linear-gradient-20);}.cls-27{fill:url(#linear-gradient-21);}.cls-28{fill:url(#linear-gradient-23);}.cls-29{fill:url(#linear-gradient-15);}.cls-30{fill:url(#linear-gradient-19);}.cls-31{fill:url(#linear-gradient-16);}.cls-32{fill:url(#linear-gradient-17);}.cls-33{fill:url(#linear-gradient-13);}.cls-34{fill:url(#linear-gradient-12);}.cls-35{fill:url(#linear-gradient-10);}.cls-36{fill:url(#linear-gradient-27);}.cls-37{fill:url(#linear-gradient-24);}.cls-38{fill:url(#linear-gradient-26);}.cls-39{fill:url(#linear-gradient-25);}.cls-40{fill:url(#linear-gradient-28);}.cls-41{fill:url(#linear-gradient-29);}.cls-42{fill:url(#_ÂÁ_Ï_ÌÌ_È_ËÂÌÚ_165);}.cls-43{fill:url(#_ÂÁ_Ï_ÌÌ_È_ËÂÌÚ_142);}</style><linearGradient id="linear-gradient" x1="245.72" y1="688.27" x2="1072.33" y2="688.27" gradientUnits="userSpaceOnUse"><stop offset="0" stop-color="#292929"/><stop offset=".22" stop-color="#313131"/><stop offset=".57" stop-color="#484848"/><stop offset="1" stop-color="#6d6d6d"/></linearGradient><linearGradient id="_ÂÁ_Ï_ÌÌ_È_ËÂÌÚ_142" x1="-1671.06" y1="143.23" x2="-945.8" y2="-99.64" gradientTransform="translate(1773.58 1278.87) rotate(30) scale(1 .87) skewX(-26.56)" gradientUnits="userSpaceOnUse"><stop offset="0" stop-color="#6f2482"/><stop offset="1" stop-color="#812c85"/></linearGradient><linearGradient id="linear-gradient-2" x1="1013.01" y1="779.25" x2="591.28" y2="535.43" gradientUnits="userSpaceOnUse"><stop offset="0" stop-color="#747474"/><stop offset="1" stop-color="#adadad"/></linearGradient><linearGradient id="linear-gradient-3" x1="994.46" y1="783.14" x2="722.4" y2="625.85" gradientUnits="userSpaceOnUse"><stop offset="0" stop-color="#cbcbcb"/><stop offset=".39" stop-color="#b1b1b1"/><stop offset="1" stop-color="#8d8d8d"/></linearGradient><linearGradient id="linear-gradient-4" x1="13.44" y1="382.64" x2="706.94" y2="722.61" xlink:href="#linear-gradient"/><linearGradient id="linear-gradient-5" x1="245.33" y1="556.94" x2="1072.72" y2="556.94" xlink:href="#linear-gradient"/><linearGradient id="_ÂÁ_Ï_ÌÌ_È_ËÂÌÚ_142-2" x1="-1682.72" y1="61.2" x2="-1032.52" y2="-156.54" xlink:href="#_ÂÁ_Ï_ÌÌ_È_ËÂÌÚ_142"/><linearGradient id="linear-gradient-6" x1="569.93" y1="566.58" x2="1182.25" y2="672.15" xlink:href="#linear-gradient-2"/><linearGradient id="linear-gradient-7" x1="81.38" y1="367.21" x2="701.47" y2="671.2" xlink:href="#linear-gradient"/><linearGradient id="linear-gradient-8" x1="288.14" y1="524.24" x2="1029.9" y2="524.24" xlink:href="#linear-gradient"/><linearGradient id="linear-gradient-9" x1="-1565.15" y1="-55.2" x2="-789.39" y2="-314.99" gradientTransform="translate(1773.58 1278.87) rotate(30) scale(1 .87) skewX(-26.56)" xlink:href="#linear-gradient-3"/><linearGradient id="linear-gradient-10" x1="543.06" y1="491.19" x2="774.96" y2="491.19" xlink:href="#linear-gradient-3"/><linearGradient id="linear-gradient-11" x1="594.22" y1="513.89" x2="745.89" y2="468.49" gradientUnits="userSpaceOnUse"><stop offset="0" stop-color="#cbcbcb"/><stop offset="1" stop-color="#d0d0d0"/></linearGradient><linearGradient id="_ÂÁ_Ï_ÌÌ_È_ËÂÌÚ_142-3" x1="-1650.11" y1="-174.04" x2="-1367.06" y2="-268.83" xlink:href="#_ÂÁ_Ï_ÌÌ_È_ËÂÌÚ_142"/><linearGradient id="linear-gradient-12" x1="843" y1="425.85" x2="580.84" y2="274.28" gradientUnits="userSpaceOnUse"><stop offset=".35" stop-color="#cbcbcb"/><stop offset=".6" stop-color="#b1b1b1"/><stop offset="1" stop-color="#8d8d8d"/></linearGradient><linearGradient id="linear-gradient-13" x1="332.59" y1="208.05" x2="711.58" y2="393.85" xlink:href="#linear-gradient-2"/><linearGradient id="linear-gradient-14" x1="497.58" y1="225.24" x2="820.49" y2="225.24" xlink:href="#linear-gradient"/><linearGradient id="linear-gradient-15" x1="497.6" y1="270.51" x2="820.47" y2="270.51" xlink:href="#linear-gradient-3"/><linearGradient id="_ÂÁ_Ï_ÌÌ_È_ËÂÌÚ_142-4" x1="-1800.5" y1="-377.21" x2="-1596.48" y2="-445.54" xlink:href="#_ÂÁ_Ï_ÌÌ_È_ËÂÌÚ_142"/><linearGradient id="linear-gradient-16" x1="629.15" y1="218.82" x2="825.99" y2="252.75" gradientUnits="userSpaceOnUse"><stop offset="0" stop-color="#cbcbcb"/><stop offset=".08" stop-color="#bebebe"/><stop offset=".35" stop-color="#9a9a9a"/><stop offset=".6" stop-color="gray"/><stop offset=".82" stop-color="#707070"/><stop offset="1" stop-color="#6b6b6b"/></linearGradient><linearGradient id="linear-gradient-17" x1="470.21" y1="152.88" x2="675.8" y2="253.66" gradientUnits="userSpaceOnUse"><stop offset="0" stop-color="#cbcbcb"/><stop offset=".17" stop-color="#acacac"/><stop offset=".41" stop-color="#888"/><stop offset=".64" stop-color="#6e6e6e"/><stop offset=".84" stop-color="#5e5e5e"/><stop offset="1" stop-color="#595959"/></linearGradient><linearGradient id="linear-gradient-18" x1="-1827.48" y1="-404.2" x2="-1623.46" y2="-472.52" gradientTransform="translate(1773.58 1278.87) rotate(30) scale(1 .87) skewX(-26.56)" xlink:href="#linear-gradient-17"/><linearGradient id="linear-gradient-19" x1="-1793.5" y1="-415.58" x2="-1657.4" y2="-461.16" gradientTransform="translate(1773.58 1278.87) rotate(30) scale(1 .87) skewX(-26.56)" gradientUnits="userSpaceOnUse"><stop offset=".27" stop-color="#b3b3b3"/><stop offset=".33" stop-color="#a5a5a5"/><stop offset=".53" stop-color="#818181"/><stop offset=".71" stop-color="#676767"/><stop offset=".87" stop-color="#575757"/><stop offset="1" stop-color="#525252"/></linearGradient><linearGradient id="linear-gradient-20" x1="569.5" y1="220.19" x2="744.35" y2="161.63" gradientUnits="userSpaceOnUse"><stop offset=".27" stop-color="#cbcbcb"/><stop offset=".33" stop-color="#bebebe"/><stop offset=".52" stop-color="#9a9a9a"/><stop offset=".71" stop-color="gray"/><stop offset=".87" stop-color="#707070"/><stop offset="1" stop-color="#6b6b6b"/></linearGradient><linearGradient id="linear-gradient-21" x1="570.25" y1="199.04" x2="674.52" y2="164.12" xlink:href="#linear-gradient-20"/><linearGradient id="linear-gradient-22" x1="531.25" y1="366.16" x2="612.43" y2="366.16" xlink:href="#linear-gradient-16"/><linearGradient id="linear-gradient-23" x1="531.25" y1="366.16" x2="580.9" y2="366.16" xlink:href="#linear-gradient-16"/><linearGradient id="linear-gradient-24" x1="803.85" y1="300.22" x2="882.89" y2="300.22" xlink:href="#linear-gradient-12"/><linearGradient id="linear-gradient-25" x1="973.91" y1="460.3" x2="1067.31" y2="460.3" xlink:href="#linear-gradient-12"/><linearGradient id="_ÂÁ_Ï_ÌÌ_È_ËÂÌÚ_165" x1="-3847.53" y1="1495.43" x2="-3737.79" y2="1458.69" gradientTransform="translate(-3740.84 1467.52) rotate(150) scale(1 -1) skewX(-30)" gradientUnits="userSpaceOnUse"><stop offset="0" stop-color="#c5468f"/><stop offset="1" stop-color="#f88b93"/></linearGradient><linearGradient id="linear-gradient-26" x1="918.36" y1="389.68" x2="1158.76" y2="389.68" xlink:href="#linear-gradient"/><linearGradient id="linear-gradient-27" x1="717.71" y1="375.21" x2="821.71" y2="375.21" xlink:href="#linear-gradient-12"/><linearGradient id="linear-gradient-28" x1="828.55" y1="246.58" x2="1055.77" y2="246.58" xlink:href="#linear-gradient-12"/><linearGradient id="linear-gradient-29" x1="749.35" y1="579.04" x2="918.7" y2="237.37" xlink:href="#linear-gradient"/></defs><path class="cls-4" d="M623.86,919.32l-365.03-210.75c-19.42-11.21-16.99-30.8,5.44-43.75l354.13-204.46c22.43-12.95,56.36-14.36,75.78-3.14l365.03,210.75c19.42,11.21,16.99,30.8-5.44,43.75l-354.13,204.46c-22.43,12.95-56.35,14.36-75.78,3.14Z"/><g class="cls-22"><g><path class="cls-6" d="M376.67,730.57l.25,.42c.35-.11,.78-.11,1.1,.11l91.14,52.61c.64,.35,.85,1.17,.5,1.77-.11,.18-.25,.32-.39,.42-.07,.04-.11,.07-.18,.11"/><line class="cls-6" x1="464.98" y1="784.31" x2="377.8" y2="734"/></g><g><path class="cls-6" d="M350.94,718.5l-21.48-12.42c-7.36-4.25-11.43-10.19-11.43-16.74,0-7.82,5.8-15.64,15.92-21.48l291.05-168.03c18.75-10.83,47.27-11.99,63.58-2.58l299.96,173.19c7.39,4.25,11.43,10.23,11.43,16.74,0,7.82-5.77,15.64-15.89,21.48l-291.05,168.03c-10.23,5.91-23.39,8.95-35.88,8.95-10.37,0-20.31-2.09-27.7-6.37l-22.64-13.06"/><path class="cls-6" d="M604.49,863.46s.04-.07,.04-.11c.35-.6,1.13-.81,1.77-.46l24.48,14.15c15.57,8.99,42.95,7.82,61-2.58l291.01-168.06c9.31-5.34,14.61-12.35,14.61-19.21,0-5.55-3.61-10.72-10.12-14.47l-300-173.19c-15.57-9.02-42.95-7.85-61,2.58l-291.05,168.03c-9.27,5.34-14.58,12.35-14.58,19.21,0,5.55,3.61,10.72,10.12,14.47l24.24,14.01c.64,.35,.85,1.17,.5,1.77-.11,.18-.25,.35-.42,.46l.07,.11"/></g><g><path class="cls-6" d="M490.31,797.65c0-.07,.04-.11,.07-.18,.35-.64,1.13-.85,1.77-.5l91.14,52.65c.64,.35,.85,1.17,.5,1.77-.25,.42-.67,.67-1.13,.67-.07,0-.18,0-.25-.04"/><line class="cls-6" x1="578.83" y1="850.05" x2="492.75" y2="800.34"/></g></g><g><path class="cls-7" d="M883.15,493.9c-9.62-4.43-13.83-15.82-9.4-25.44,4.43-9.62,15.82-13.83,25.44-9.4,9.62,4.43,13.83,15.82,9.4,25.44-4.43,9.62-15.82,13.83-25.44,9.4Z"/><path class="cls-7" d="M414.81,535.64c-6.17-2.84-8.87-10.14-6.03-16.31,2.84-6.17,10.14-8.87,16.31-6.03,6.17,2.84,8.87,10.14,6.03,16.31-2.84,6.17-10.14,8.87-16.31,6.03Z"/><path class="cls-7" d="M444.19,505.66c-3.53-1.63-5.08-5.81-3.45-9.34,1.63-3.53,5.81-5.08,9.34-3.45s5.08,5.81,3.45,9.34c-1.63,3.53-5.81,5.08-9.34,3.45Z"/><path class="cls-7" d="M849.92,452.41c-4.18-1.92-6-6.87-4.08-11.04,1.92-4.18,6.87-6,11.04-4.08,4.18,1.92,6,6.87,4.08,11.04-1.92,4.18-6.87,6-11.04,4.08Z"/><path class="cls-7" d="M842.41,516.62c-4.17-1.92-6-6.87-4.08-11.04,1.92-4.18,6.87-6,11.04-4.08,4.17,1.92,6,6.87,4.08,11.04-1.92,4.18-6.87,6-11.04,4.08Z"/></g><g><g><path class="cls-43" d="M623.83,823.94l-365.38-210.95c-19.44-11.23-17-30.83,5.45-43.79l354.47,243.01c22.45-12.96,56.41-14.37,75.85-3.14l365.38-236.71c19.44,11.23,17,30.83-5.45,43.79l-354.47,204.65c-22.45,12.96-56.41,14.37-75.85,3.14Z"/><path class="cls-17" d="M1072.72,556.94h-413.7v274.48c14.23-.34,28.99-3.88,40.66-10.62l354.47-204.65c11.66-6.73,17.87-15.26,18.47-23.47h.1v-35.73Z"/><path class="cls-15" d="M1054.15,609.66l-354.47,204.65c-11.67,6.73-26.42,10.28-40.65,10.62v6.49c14.23-.34,28.99-3.88,40.65-10.62l354.47-204.65c11.66-6.73,17.87-15.26,18.47-23.47h.1v-6.49h-.1c-.6,8.21-6.81,16.74-18.47,23.47Z"/><path class="cls-16" d="M245.33,556.94v35.73h.1c-.55,7.6,3.68,14.93,13.02,20.32l365.38,210.95c9.34,5.39,22.04,7.79,35.2,7.48v-274.48H245.33Z"/><path class="cls-20" d="M623.83,788.21l-365.38-210.95c-19.44-11.22-17-30.83,5.45-43.79l354.47-204.65c22.45-12.96,56.41-14.37,75.85-3.14l365.38,210.95c19.44,11.22,17,30.83-5.45,43.79l-354.47,204.65c-22.45,12.96-56.41,14.37-75.85,3.14Z"/><path class="cls-10" d="M263.9,539.66l354.47-204.65c22.45-12.96,56.41-14.37,75.85-3.14l365.38,210.95c7.52,4.34,11.73,9.94,12.81,15.91,1.41-8.23-2.74-16.29-12.81-22.11l-365.38-210.95c-19.44-11.22-53.4-9.82-75.85,3.14l-354.47,204.65c-13.77,7.95-19.97,18.4-18.25,27.88,1.31-7.65,7.44-15.44,18.25-21.69Z"/><path class="cls-12" d="M1054.15,574.67l-354.47,204.65c-22.45,12.96-56.41,14.37-75.85,3.14l-365.38-210.95c-7.63-4.41-11.84-10.11-12.84-16.19-1.33,8.17,2.84,16.16,12.84,21.94l365.38,210.95c19.44,11.23,53.4,9.82,75.85-3.14l354.47-204.65c13.64-7.87,19.84-18.19,18.29-27.6-1.25,7.7-7.39,15.56-18.29,21.86Z"/></g><g><path class="cls-1" d="M627.47,760.98l-327.56-189.12c-17.43-10.06-15.24-27.64,4.88-39.26l317.78-126.88c20.13-11.62,50.57-12.88,68-2.82l327.56,132.52c17.43,10.06,15.24,27.64-4.88,39.26l-317.78,183.47c-20.13,11.62-50.57,12.88-68,2.82Z"/><path class="cls-18" d="M1029.9,524.24h-370.88v243.44c12.76-.31,25.99-3.48,36.45-9.52l317.78-183.47c10.46-6.04,16.02-13.68,16.56-21.04h.09v-29.41Z"/><path class="cls-19" d="M288.14,524.24v29.41h.09c-.5,6.81,3.3,13.38,11.68,18.22l327.56,189.12c8.37,4.83,19.76,6.99,31.55,6.7v-243.44H288.14Z"/><path class="cls-13" d="M627.47,731.57l-327.56-189.12c-17.43-10.06-15.24-27.64,4.88-39.26l317.78-183.47c20.13-11.62,50.57-12.88,68-2.82l327.56,189.12c17.43,10.06,15.24,27.64-4.88,39.26l-317.78,183.47c-20.13,11.62-50.57,12.88-68,2.82Z"/><path class="cls-10" d="M304.79,509.39l317.78-183.47c20.13-11.62,50.57-12.88,68-2.82l327.56,189.12c6.57,3.8,10.35,8.66,11.43,13.87,1.39-7.46-2.3-14.79-11.43-20.06l-327.56-189.12c-17.43-10.06-47.88-8.8-68,2.82l-317.78,183.47c-12.54,7.24-18.1,16.79-16.31,25.39,1.27-6.78,6.73-13.66,16.31-19.2Z"/><path class="cls-14" d="M649.15,589.1l-102.47-59.16c-5.45-3.15-4.77-8.65,1.53-12.28l99.41-57.4c6.3-3.63,15.82-4.03,21.27-.88l102.47,59.16c5.45,3.15,4.77,8.65-1.53,12.28l-99.41,57.39c-6.3,3.64-15.82,4.03-21.27,.88Z"/><path class="cls-8" d="M546.68,529.93l.44,.26c.36-.25,.68-.51,1.08-.74l99.41-57.39c6.3-3.63,15.82-4.03,21.27-.88l102.02,58.9c5.21-3.61,5.55-8.59,.44-11.54l-102.47-59.16c-5.45-3.15-14.98-2.75-21.27,.88l-99.41,57.39c-6.3,3.64-6.98,9.13-1.53,12.28Z"/><path class="cls-35" d="M548.21,518.98l99.41-57.39c6.3-3.63,15.82-4.03,21.27-.88l102.47,59.16c2.19,1.27,3.32,2.92,3.55,4.66,.31-2.23-.81-4.41-3.55-5.99l-102.47-59.16c-5.45-3.15-14.98-2.75-21.27,.88l-99.41,57.39c-3.7,2.14-5.4,4.91-5.12,7.48,.34-2.17,2.05-4.38,5.12-6.15Z"/><path class="cls-12" d="M1013.25,539.53l-317.78,183.47c-20.13,11.62-50.57,12.88-68,2.82l-327.56-189.12c-6.69-3.86-10.46-8.83-11.47-14.14-1.31,7.4,2.41,14.66,11.47,19.89l327.56,189.12c17.43,10.06,47.88,8.8,68-2.82l317.78-183.47c12.4-7.16,17.97-16.58,16.35-25.12-1.21,6.84-6.69,13.79-16.35,19.37Z"/></g></g><g><path class="cls-21" d="M775.41,431.72h-232.75v92.21l.07,.05c-.14,2.12,1.02,4.16,3.63,5.66l102.78,59.34c5.47,3.16,15.02,2.76,21.34-.88l99.71-57.57c3.26-1.88,4.98-4.26,5.15-6.56l.08-.04v-92.21Z"/><g><g><g><path class="cls-2" d="M645.3,504.16l-142.6-82.33c-7.59-4.38-6.64-12.03,2.13-17.09l138.34-79.87c8.76-5.06,22.01-5.61,29.6-1.23l142.6,82.33c7.59,4.38,6.64,12.03-2.13,17.09l-138.34,79.87c-8.76,5.06-22.01,5.61-29.6,1.23Z"/><path class="cls-34" d="M820.49,225.24h-161.45V507.07c5.55-.13,11.31-1.52,15.87-4.14l138.34-79.87c4.55-2.63,6.98-5.95,7.21-9.16h.04V225.24Z"/><path class="cls-11" d="M817.42,225.24v186.27h-.04c-.23,3.21-2.66,6.53-7.21,9.16l-138.34,79.87c-3.72,2.15-8.24,3.42-12.8,3.9v2.63c5.55-.13,11.31-1.52,15.87-4.14l138.34-79.87c4.55-2.63,6.98-5.95,7.21-9.16h.04V225.24h-3.07Z"/><path class="cls-33" d="M497.58,225.24v188.66h.04c-.22,2.96,1.44,5.83,5.08,7.93l142.6,82.33c3.64,2.1,8.6,3.04,13.74,2.92V225.24h-161.45Z"/><path class="cls-23" d="M645.3,315.5l-142.6-82.33c-7.59-4.38-6.64-12.03,2.13-17.09l138.34-79.87c8.76-5.06,22.01-5.61,29.6-1.23l142.6,82.33c7.59,4.38,6.64,12.03-2.13,17.09l-138.34,79.87c-8.76,5.06-22.01,5.61-29.6,1.23Z"/><path class="cls-29" d="M813.24,229.97l-138.34,79.87c-8.76,5.06-22.01,5.61-29.6,1.23l-142.6-82.33c-2.53-1.46-4.08-3.28-4.74-5.25-1.14,3.57,.38,7.16,4.74,9.68l142.6,82.33c7.59,4.38,20.84,3.83,29.6-1.23l138.34-79.87c5.84-3.37,8.19-7.9,6.87-11.84-.85,2.64-3.14,5.26-6.87,7.41Z"/></g><g><path class="cls-3" d="M649.14,289.03l-102.78-59.34c-5.47-3.16-4.78-8.67,1.53-12.32l99.72-57.57c6.31-3.65,15.87-4.04,21.34-.88l102.78,59.34c5.47,3.16,4.78,8.67-1.53,12.32l-99.71,57.57c-6.32,3.65-15.87,4.04-21.34,.88Z"/><path class="cls-31" d="M775.41,196.98h-116.38v94.15c4-.1,8.15-1.09,11.44-2.99l99.71-57.57c3.28-1.89,5.03-4.29,5.2-6.6h.03v-26.99Z"/><path class="cls-32" d="M542.66,196.98v26.99h.03c-.16,2.14,1.04,4.2,3.66,5.72l102.78,59.34c2.63,1.52,6.2,2.19,9.9,2.1v-94.15h-116.38Z"/><path class="cls-24" d="M649.14,262.04l-102.78-59.34c-5.47-3.16-4.78-8.67,1.53-12.32l99.72-57.57c6.31-3.65,15.87-4.04,21.34-.88l102.78,59.34c5.47,3.16,4.78,8.67-1.53,12.32l-99.71,57.57c-6.32,3.65-15.87,4.04-21.34,.88Z"/><path class="cls-5" d="M547.89,193.92l99.71-57.57c6.32-3.65,15.87-4.04,21.34-.88l102.78,59.34c1.75,1.01,2.8,2.28,3.31,3.63,.94-2.63-.09-5.31-3.31-7.17l-102.78-59.34c-5.47-3.16-15.02-2.76-21.34,.88l-99.71,57.57c-4.29,2.48-5.92,5.81-4.84,8.69,.66-1.84,2.25-3.65,4.84-5.15Z"/><path class="cls-5" d="M770.19,199.67l-99.71,57.57c-6.32,3.65-15.87,4.04-21.34,.88l-102.78-59.34c-1.68-.97-2.71-2.18-3.24-3.47-1.09,2.7-.07,5.48,3.24,7.39l102.78,59.34c5.47,3.16,15.02,2.76,21.34-.88l99.71-57.57c4.37-2.52,5.98-5.93,4.78-8.85-.71,1.76-2.29,3.49-4.78,4.93Z"/><path class="cls-30" d="M652.43,240.38l-68.57-39.59c-3.65-2.11-3.19-5.79,1.02-8.22l66.52-38.4c4.21-2.43,10.59-2.7,14.23-.59l68.57,39.59c3.65,2.11,3.19,5.79-1.02,8.22l-66.52,38.4c-4.21,2.43-10.59,2.7-14.23,.59Z"/><path class="cls-26" d="M583.87,200.8l12.77,7.37,54.78-31.62c4.21-2.43,10.59-2.7,14.23-.59l55.8,32.22,11.74-6.78c4.21-2.43,4.67-6.11,1.02-8.22l-68.57-39.59c-3.65-2.11-10.02-1.84-14.23,.59l-66.52,38.4c-4.21,2.43-4.67,6.11-1.02,8.22Z"/></g><path class="cls-27" d="M659.04,152.18c-2.67,.06-5.44,.73-7.63,1.99l-66.52,38.4c-4.21,2.43-4.67,6.11-1.02,8.22l12.77,7.37,54.78-31.62c2.19-1.26,4.96-1.93,7.63-1.99v-22.37Z"/></g><polygon class="cls-25" points="531.25 351.28 571.84 421.41 612.43 398.15 598.31 390 598.31 341.47 545.37 310.91 545.37 359.44 531.25 351.28"/><polygon class="cls-28" points="547.48 358.48 554.94 355.12 554.94 316.43 545.37 310.91 545.37 354.84 545.37 359.44 545.37 359.44 531.25 351.28 571.84 421.41 580.9 416.22 547.48 358.48"/></g></g><g><path class="cls-37" d="M866.43,184.29v6.3l-26.74-6.3-22.11,15.19,.88,162.52-5.31,37.38-9.31,16.76,57.39-33.22,.02-.1c.73-.37,1.48-.67,2.2-1.09,12.17-7.02,19.43-19.6,19.43-33.64V192.8c-5.39-3.03-10.69-6.23-16.46-8.51Z"/><g><g><path class="cls-39" d="M1067.31,406.4l-93.38,35.57-.02,63.05,.06-.02c.06,2.22,1.65,4.55,4.82,6.38,5.89,3.4,14.8,3.77,19.91,.83l65.18-37.63c2.28-1.32,3.35-3.08,3.38-4.92l.06-.02v-63.23Z"/><path class="cls-42" d="M998.69,449.03l65.18-37.63c5.1-2.95,4.46-8.09-1.43-11.49h0c-5.89-3.4-14.8-3.77-19.91-.83l-65.18,37.63c-5.1,2.95-4.46,8.09,1.43,11.49h0c5.89,3.4,14.8,3.77,19.91,.83Z"/></g><g><path class="cls-38" d="M1083.91,317.35l-129.52,37.5v88.08l.06-.02c-.14,1.76,1.05,3.66,3.59,5.12l20.59,11.89c4.4,2.54,11.06,2.82,14.87,.62l87.84-50.46c1.68-.97,2.47-2.26,2.52-3.61l.05-.02v-89.1Z"/><path class="cls-9" d="M993.49,371.87l87.84-50.46c3.81-2.2,3.33-6.05-1.07-8.59l-20.59-11.89c-4.4-2.54-11.06-2.82-14.87-.62l-87.84,50.46c-3.81,2.2-3.33,6.05,1.07,8.59l20.59,11.89c4.4,2.54,11.06,2.82,14.87,.62Z"/></g></g><path class="cls-36" d="M821.71,361.05l-37.92-21.89c-2.78-1.61-6.1-1.37-8.62,.27h-.02s-57.44,33.25-57.44,33.25l26.82,23.97,40.47,15.71,23.66-11.72,5.4-24.99,7.65,4.42v-19.01Z"/><g><path class="cls-40" d="M1029.38,201.08l-104.68-57.15c-11.64-6.72-25.42-6.93-37.24-.79l-.1-.03-.99,.57c-.17,.09-.35,.16-.52,.26-.17,.1-.32,.22-.49,.33l-56.82,32.84,46.01,13.79,102.17,59.27,13.86,42.75,3.24,61.54,57.75-33.39v-.04c2.49-1.41,4.19-4.06,4.19-7.13v-67.07c0-18.82-10.12-36.36-26.38-45.74Z"/><path class="cls-41" d="M786.74,420.18c-6.67,0-13.34-1.76-19.43-5.27l-49.06-28.33c-3.94-2.27-5.29-7.31-3.01-11.24,2.27-3.94,7.3-5.29,11.24-3.01l49.06,28.33c7,4.04,15.38,4.05,22.39,0,7.01-4.05,11.19-11.3,11.19-19.39V210.75c0-14.05,7.26-26.62,19.43-33.64,12.16-7.02,26.68-7.02,38.85,0l104.68,57.15c16.26,9.39,26.38,26.92,26.38,45.74v67.07c0,4.55-3.68,8.23-8.23,8.23s-8.23-3.68-8.23-8.23v-67.07c0-12.96-6.97-25.03-18.19-31.51l-104.68-57.15c-6.97-4.03-15.34-4.02-22.35,.02-7.01,4.05-11.19,11.29-11.19,19.39v170.52c0,14.05-7.26,26.62-19.43,33.64-6.08,3.51-12.75,5.27-19.42,5.27Z"/></g></g></svg>