<?xml version="1.0" encoding="UTF-8"?><svg id="Capa_1" xmlns="http://www.w3.org/2000/svg" viewBox="0 0 909 400"><defs><style>.cls-1{fill:#fff;}</style></defs><g id="KNBA46"><g><path class="cls-1" d="M545.78,199.59c0,1.05,0,2.09,0,3.14,.05,23.24,.11,46.48,.16,69.71,0,2.74-.12,2.85-2.85,2.85-8.71,0-17.42-.06-26.13,.01-1.8,.02-2.27-.51-2.27-2.33,.06-41.03,.04-82.05,.04-123.08,0-3.09,0-3.1,3.1-3.1,7.9-.01,15.79,.02,23.69-.05,1.87-.02,3.18,.6,4.29,2.11,17.32,23.39,34.68,46.75,52.04,70.12,.62,.83,1.24,1.68,2.55,2.47,0-1.24,0-2.15,0-3.06-.11-22.8-.22-45.6-.33-68.4-.01-2.98,.22-3.21,3.18-3.21,8.46,0,16.92,0,25.38,0,2.48,0,2.8,.31,2.8,2.82,0,40.96-.02,81.93-.03,122.89,0,2.55-.26,2.8-2.79,2.8-8.08,0-16.17-.03-24.25,.02-1.68,.01-2.83-.59-3.8-1.92-16.6-22.67-33.22-45.33-49.84-67.99-1.47-2-2.97-3.99-4.46-5.98-.16,.05-.32,.11-.49,.16Z"/><path class="cls-1" d="M338.17,205.99c4.39,1.86,8.28,4.21,11.69,7.29,7.87,7.09,10.88,16.1,10.49,26.46-.65,17.16-13.47,30.94-31.93,34.08-7.14,1.22-14.32,1.45-21.53,1.45-15.42,0-30.83,.02-46.25,.02-3,0-3.19-.2-3.19-3.19,0-40.72,0-81.44,0-122.15,0-2.98,.19-3.17,3.22-3.16,17.55,.02,35.09,.04,52.64,.06,7.53,0,14.96,.77,21.65,4.48,11.65,6.47,18.95,15.97,18.72,29.81-.17,10.06-4.74,17.98-13.33,23.44-.68,.43-1.36,.87-2.19,1.41Zm-49.35,29.23s.02,0,.04,0c0,4.13,.04,8.27-.02,12.4-.02,1.18,.29,1.72,1.56,1.7,7.95-.11,15.92,.38,23.86-.31,7.71-.67,13.57-6.95,13.49-14.3-.08-7.41-5.99-13.38-13.78-13.99-7.51-.58-15.03-.18-22.55-.34-2.23-.05-2.6,.37-2.6,2.62,0,4.07,0,8.14,0,12.22Zm.07-50.71s-.03,0-.04,0c0,3.44,.03,6.89-.02,10.33-.02,1.41,.46,2.02,1.97,2,5.76-.08,11.53-.03,17.29-.1,2.99-.04,5.83-.81,8.43-2.28,3.53-2,5.51-5.03,5.64-9.13,.19-6.31-4.29-11.34-11.12-12.25-6.73-.89-13.52-.16-20.27-.42-1.53-.06-1.93,.47-1.9,1.88,.07,3.32,.02,6.64,.02,9.96Z"/><path class="cls-1" d="M679.06,194.58c1.13-.37,1.62-1.12,2.21-1.72,14.47-14.59,28.94-29.17,43.35-43.8,1.62-1.64,3.32-2.33,5.63-2.31,10.65,.09,21.31,.03,31.96,.04,.66,0,1.36-.16,2.12,.26-.65,1.2-1.68,2-2.57,2.9-16.44,16.51-32.89,33-49.34,49.49-1.89,1.9-1.89,2.18-.23,4.41,17.03,22.91,34.05,45.83,51.05,68.75,.54,.73,1.24,1.39,1.5,2.35-.86,.43-1.73,.33-2.59,.33-10.15,.01-20.3-.03-30.46,.07-2.05,.02-3.38-.7-4.55-2.33-11.78-16.28-23.6-32.52-35.41-48.77-1.81-2.49-1.81-2.51-3.95-.2-1.79,1.93-3.6,3.84-5.62,5.53-2.27,1.9-3.28,4.27-3.13,7.27,.6,12.14,.09,24.3,.3,36.45,.03,1.61-.52,2.02-2.02,2.01-8.9-.04-17.8-.04-26.7,.01-1.95,.01-2.26-1.04-2.25-2.63,.04-8.9,.04-17.79,.05-26.69,.02-32.2,.02-64.4,.05-96.6,0-2.76-.41-2.53,2.48-2.53,8.77,0,17.55,.04,26.32-.04,1.51-.01,1.83,.44,1.82,1.88-.05,14.72-.03,29.44-.03,44.16,0,.49,0,.99,0,1.71Z"/><path class="cls-1" d="M484.05,275.29c-4.82,0-9.65-.07-14.47,.03-1.84,.04-2.83-.53-3.45-2.35-1.78-5.2-3.78-10.33-5.61-15.51-.61-1.72-1.57-2.45-3.45-2.44-15.47,.05-30.95,.06-46.43,0-1.94,0-2.94,.69-3.57,2.53-1.85,5.31-3.9,10.55-5.78,15.85-.5,1.41-1.28,1.92-2.76,1.92-9.77-.06-19.55-.04-29.32-.05-2.45,0-2.46-.02-1.5-2.38,16.08-39.61,32.17-79.22,48.26-118.83,.73-1.8,1.46-3.59,2.13-5.41,.54-1.47,1.56-1.92,3.05-1.91,8.4,.04,16.79,.05,25.19-.01,1.7-.01,2.65,.65,3.27,2.19,3.35,8.35,6.74,16.69,10.13,25.02,12.89,31.73,25.78,63.47,38.67,95.2,.61,1.51,1.17,3.04,1.81,4.52,.53,1.21,.29,1.64-1.11,1.62-5.01-.07-10.02-.03-15.04-.03v.02Zm-34.82-47.45c-5.11-14.21-10.19-28.32-15.43-42.89-5.26,14.61-10.33,28.68-15.45,42.89h30.88Z"/><path class="cls-1" d="M179.83,184.7c-1.29,2.41-1.96,4.82-2.81,7.16-3.91,10.75-7.79,21.5-11.63,32.27-.69,1.94-1.82,3.27-3.65,4.27-15.35,8.43-29.38,18.63-41.54,31.29-.38,.4-.73,.87-1.48,.99,.18-1.41,.87-2.6,1.37-3.83,14.59-35.84,29.21-71.66,43.78-107.5,.78-1.92,1.97-2.63,4.01-2.61,8.08,.07,16.17,.09,24.25,0,1.95-.02,2.93,.74,3.64,2.48,14.8,36.5,29.64,72.98,44.47,109.46,2.02,4.98,4,9.98,6.08,14.93,.51,1.23,.38,1.67-1.02,1.67-10.09-.02-20.18,0-30.27,.01-1.7,0-2.36-1.07-2.87-2.46-4.17-11.45-8.35-22.9-12.53-34.35-6.22-17.02-12.43-34.04-18.65-51.06-.31-.86-.71-1.69-1.15-2.74Z"/><path class="cls-1" d="M191.5,222.45c-5.9,4.18-11.19,8.85-16.08,13.98-9.73,10.2-17.87,21.62-25.31,33.52-2.52,4.02-5.2,5.73-10.04,5.44-8.18-.48-16.41-.19-24.62-.23-.31,0-.63-.02-.94-.03-1.34-.01-1.36-.56-.58-1.43,2.54-2.85,5.03-5.75,7.65-8.53,13.44-14.34,28.71-26.25,46.53-34.72,6.79-3.23,13.8-5.9,21.03-7.99,.6-.17,1.21-.29,1.82-.4,.08-.01,.19,.13,.53,.39Z"/></g></g></svg>