<?xml version="1.0" encoding="UTF-8"?><svg id="Capa_1" xmlns="http://www.w3.org/2000/svg" viewBox="0 0 909 400"><defs><style>.cls-1{fill:#fff;}</style></defs><g id="EnzVlK.tif"><g><path class="cls-1" d="M364.94,238.44c33-18.81,38.66-16.32,50.51,17.48,3.33,9.49,2.45,24.1,17.09,24.29,15.16,.19,16.72-14.57,21.63-24.86,2.44-5.1,4.44-10.52,5.75-16,1.77-7.44,5.64-12.46,13.51-12.35,7.94,.11,11.2,6.1,13.68,12.79,3.57,9.64,6.88,19.47,11.52,28.6,7.87,15.49,13.56,15.71,24.23,1.49,5.89-7.86,10.29-16.5,13.65-25.88,3.14-8.76,7.95-17.15,19.17-17.94,11.05-.77,17.24,6.51,21.97,14.61,4.4,7.52,6.86,16.14,10.94,23.87,2.29,4.33,3.27,11.68,8.68,11.7,5.82,.02,5.95-7.39,7.65-11.9,3.09-8.18,5.95-16.49,8.07-24.96,2.43-9.68,8.33-13.33,17.95-13.3,43.02,.16,86.03,.06,129.05,.08,8.38,0,16.28,1.52,16.42,11.97,.13,9.78-7.68,11.1-15.22,11.7-10.3,.82-20.61,1.38-30.93,2.06,3.38,30.27-7.09,49.81-29.36,55.23-26.63,6.48-49.26-11.78-50.04-40.1-.12-4.29,4.37-10.65-4.58-12.03-8.12-1.26-11.22,3.6-13.02,9.98-2.96,10.5-6.85,20.61-13.27,29.48-12.27,16.93-28.9,17.67-43.07,2.36-8.24-8.9-11.71-20.47-17.57-30.82q-48.14,54.36-86.67,16.11c-24.38,39.1-71.25,35.93-84.77-20.26-10.21,7.77-13.07,19.67-18.69,29.69-4.23,7.54-6.28,17.42-18.05,15.74-12.72-1.81-11.71-12.37-12.33-24.09-26.49,20.26-55.39,28.61-86.57,26.6-44.94-2.89-85.25-16.62-106.89-59.81-19.53-38.98-16.43-78.75,7.53-114.91,24.64-37.2,61.95-51.39,105.75-49.99,6.19,.2,12.38,1.22,18.51,2.2,9.13,1.46,16.39,5.93,15.04,16.11-1.37,10.32-9.36,12.93-18.7,10.96-14.94-3.16-29.69-2.96-44.69,.09-40.16,8.18-67.51,41.44-68.73,84.3-1.14,39.82,24.54,70.97,65.97,80.08,29.73,6.53,58.89,6.19,85.7-9.98,17.88-10.78,27.97-26.19,27.25-48.56-1.22-37.69-.72-75.43-1.16-113.15-.12-10.38,.02-21.59,13.28-22.02,13.57-.44,13.92,10.64,13.88,21.11-.18,43.35-.08,86.7-.08,132.21Zm340.68,26.63c-.97-8.18-4.42-14.71-13.02-14.61-10.79,.13-15.14,8.32-15.2,17.58-.05,7.4,3.76,14.39,12.79,14.19,10.9-.25,14.26-8.12,15.43-17.16Z"/><path class="cls-1" d="M488.53,203.06c-1.56,10.05-6.22,15.42-15.61,15.14-9.34-.28-14.86-6.41-14.75-14.72,.12-9.07,6.03-15.56,16.12-14.92,9.29,.59,12.73,7.41,14.24,14.49Z"/></g></g></svg>