<?xml version="1.0" encoding="UTF-8"?><svg id="Capa_1" xmlns="http://www.w3.org/2000/svg" viewBox="0 0 1229 400"><defs><style>.cls-1{fill:#fff;}</style></defs><g id="aneBjR.tif"><g><path class="cls-1" d="M1026.98,261.87c-2.14,1.54-4.49,.26-6.73,.41-3.22,.21-6.47,.03-9.7,.02-1.8-.98-1.3-2.7-1.3-4.21-.01-24.92-.02-49.83,.01-74.75,0-2.57-.34-5.16,.53-7.71,.35-1.03,.4-2.34-1.3-2.54,0-.89,0-1.78-.01-2.68,1.42-3.16,4.02-3.43,7.16-3.51,4.31-.12,8.51,1.07,12.81,.63,0,0-.06-.04-.06-.04,.25,.31,.49,.62,.74,.93,8.1,11.05,16.19,22.1,24.31,33.14,6.77,9.21,13.56,18.39,20.67,28.04,1.17-3.39,.03-6.3,.53-9.09,.97-1.06,.56-2.37,.56-3.57,.03-15.57,.07-31.15-.03-46.72-.02-2.53,.73-3.34,3.28-3.26,4.87,.17,9.74,.02,14.61,0,1,2.86,.36,5.81,.38,8.7,.12,17.11,.08,34.23,.09,51.34,0,11.03-.05,22.06,.05,33.09,.02,1.97-.63,2.48-2.51,2.44-5.2-.11-10.41-.13-15.61-.03-1.81,.04-2.25-1.3-2.99-2.33-13.31-18.47-26.58-36.96-39.86-55.45-1.32-1.83-2.59-3.69-3.96-5.48-.65-.85-1.43-1.26-1.79,.29-2.38,.9-1.39,3.01-1.11,4.33,.52,2.47,.5,4.9,.5,7.35,.02,15.62,0,31.24,.03,46.85,0,1.28-.53,2.73,.72,3.8Z"/><path class="cls-1" d="M521.58,164.43c14.44,1.34,25.27,7.72,30.82,21.68,.83,2.09,.42,2.75-1.62,3.23-4.39,1.04-8.76,2.18-13.08,3.46-1.72,.51-2.5-.02-3.37-1.43-5.97-9.58-16.21-13.09-27.22-9.63-4.59,1.45-7.38,4.25-7.85,9.07-.46,4.65,1.71,8.45,6.35,10.57,6.42,2.93,13.37,4.08,20.25,5.41,8.44,1.62,16.44,4.36,22.23,11.02,9.86,11.34,8.75,36.91-11.44,43.31-15.93,5.05-31.68,4.9-46.48-3.77-6.48-3.8-10.22-9.95-12.37-17.1-.51-1.69-.1-2.1,1.42-2.51,4.8-1.28,9.56-2.67,14.33-4.06,1.14-.33,1.83-.36,2.25,1.07,2.51,8.66,9.32,11.8,17.41,12.67,6.08,.65,12.21,.65,17.56-3.32,5.41-4.01,5.4-14.21-.9-17.51-5.33-2.79-11.15-3.52-16.89-4.72-6.98-1.46-13.89-3.11-20.17-6.7-10.71-6.13-14.03-15.7-12.64-27.29,1.25-10.42,7.4-17.12,17.02-20.88,4.13-1.61,8.42-2.51,12.88-2.53,3.84,.81,7.68,.87,11.51-.04Z"/><path class="cls-1" d="M962.47,166.95c5.19,12.78,10.41,25.55,15.58,38.34,7.15,17.69,14.28,35.4,21.39,53.11,.49,1.23,1.24,2.41,1.12,3.86-5.97,0-11.92-.05-17.87,.04-1.42,.02-2.25-.22-2.76-1.68-1.8-5.17-4.17-10.15-5.42-15.51-.24-1.01-1.23-1.28-1.47-2.16,.03-.19,.12-.54,.09-.55-.29-.1-.61-.21-.92-.21-14.1,0-28.19-.04-42.29,.02-2.8,.01-3.86,2.52-2.42,5.38-1.49,4-3.07,7.96-4.43,12-.69,2.05-1.97,2.86-4,2.86-5.53,0-11.06,0-17.14,0,1.98-5,3.77-9.57,5.6-14.13,10.74-26.72,21.5-53.44,32.25-80.16,.16-.4,.42-.76,.64-1.14,7.35-.03,14.69-.05,22.04-.08Zm-11.37,58.98s0,.09,0,.14c4.3,0,8.59,0,12.89,0,1.74,0,2.78-.36,1.92-2.53-4.43-11.2-8.75-22.44-13.12-33.66-.31-.8-.34-1.97-1.53-1.94-.95,.03-1.06,1.05-1.33,1.75-4.39,11.21-8.77,22.43-13.17,33.64-.84,2.14-.05,2.72,2.13,2.65,4.07-.14,8.15-.04,12.22-.04Z"/><path class="cls-1" d="M680.55,248.93c0,.11,.02,.24-.02,.34-1.65,4.3-3.31,8.59-4.97,12.88-4.84,.09-9.68,.18-14.52,.26-1.69,.03-3.39,0-5.49,0,2.62-6.62,5.15-13.07,7.73-19.49,9.21-22.94,18.43-45.88,27.65-68.81,.42-1.04,.96-2.03,1.45-3.04,2.21-4.45,6.16-4.52,10.32-4.07,.45,.05,.9-.03,1.35,.01,4.44,.38,9.18-.8,13.08,2.47,0,0-.05,.02-.05,.03-.49,1.31-.27,2.34,1.15,2.89,0,0-.03-.05-.03-.05-.01,.79-.22,1.66,.79,2.06,0,0-.06-.08-.06-.08,.77,2.88-.42,6.53,3.25,8.28,0,0,.03,.03,.03,.03,.06,.74-.1,1.58,.85,1.94,0,0-.05-.08-.05-.07-.06,.87-.23,1.79,.96,2.09,5.98,14.71,11.97,29.41,17.93,44.13,3.85,9.5,7.58,19.04,11.52,28.5,1.09,2.61,.54,3.27-2.2,3.18-4.75-.15-9.51-.17-14.25,.04-2.19,.1-3.12-.68-3.8-2.65-1.7-4.89-3.63-9.7-5.47-14.53-.4-1.05-.68-2.2-2.07-2.41-.67-.83-1.62-.65-2.5-.65-12.39,0-24.79,0-37.18,0-.88,0-1.83-.17-2.47,.7l-.19,.14s-.22-.06-.22-.06c-3.5,.88-3.12,3.37-2.51,5.96Zm9.72-22.88c.13,2.93,2.2,1.87,3.69,1.67,1.08-.15,2.14-1.1,3.15-1.03,7,.54,14.1-1.43,21.04,.94,.8,.27,.56-.98,.69-1.57,2.06-.42,.91-1.64,.57-2.54-4.25-11.12-8.52-22.23-12.82-33.33-.34-.89-.51-2.25-1.73-2.25-1.06,0-1.12,1.3-1.43,2.09-4.4,11.19-8.78,22.39-13.11,33.6-.28,.73-1.12,1.59-.05,2.41Z"/><path class="cls-1" d="M608.72,264.28c-18-.69-32.25-6.74-41.75-21.17-16.82-25.55-9.4-69.03,29.47-77.7,20.87-4.65,42.79,2.18,54.04,19.95,3.58,5.66,3.61,5.65-2.86,7.4-3.49,.94-7.05,1.65-10.45,2.82-2.03,.69-2.94,.13-4.12-1.47-10.03-13.58-30.48-16.58-43.84-6.23-9.33,7.23-11.92,17.45-11.33,28.66,.57,10.95,4.71,20.15,14.54,25.94,12.52,7.38,33.47,4.9,42.2-10.64,.93-1.65,1.86-2.23,3.76-1.67,4.55,1.34,9.12,2.61,13.75,3.65,2.27,.51,2.37,1.35,1.44,3.21-7.72,15.35-20.21,24.09-37.14,26.65-2.9,.44-5.86,.47-7.71,.6Z"/><path class="cls-1" d="M345.45,262.44c-.21,.07-.43,.1-.65,.09-8.21,.48-16.42,1.12-24.63,.07,0,0,.08,.06,.08,.06-.7-1.22-1.87-.68-2.88-.75-12.76-3.25-22.28-10.8-28.35-22.27-7.47-14.13-8.52-29.09-3.07-44.05,6.92-18.98,21.19-28.95,41.15-31.18,3.83,.98,7.67,.84,11.51,.1,16.43,1.47,29.07,8.96,37.44,23.31,1.4,2.39,1.61,3.71-1.75,4.36-4.3,.84-8.55,2.06-12.72,3.43-2.1,.69-3.11,.23-4.39-1.5-11.42-15.44-35.26-16.64-47.74-2.48-12.21,13.85-9.42,39.58,5.39,49.75,13.76,9.45,33.47,5.76,43.2-8.34,1.83-2.66,3.36-3.42,6.41-2.36,3.92,1.37,8,2.35,12.06,3.26,1.73,.39,2.36,.71,1.45,2.56-6.66,13.49-16.88,22.58-31.86,25.88-.26-.31-.47-.24-.65,.09Z"/><path class="cls-1" d="M416.57,244.1l.17-.03s.11,.13,.11,.13c.08,.76-.04,1.95,.94,1.89,3.33-.21,6.58,1.85,9.94,.34,.91,0,1.81,0,2.72-.01,.22,1.2,1.09,1.04,2.02,1.13,2.43,.24,4.18-1.53,6.33-1.91,2.15-.38,3.41-1.37,3.92-3.42,.57-.49,1.13-.98,1.7-1.47,2.78-.17,3.51-1.71,2.83-4.19,0,0-.04,0-.04,0,1.58,.32,1.4-.92,1.75-1.84,2.81-7.32,2.68-14.98,2.56-22.61-.22-14.14,.68-28.29-.62-42.41-.22-2.39,1.25-3.12,3.2-2.56,2.06,.59,3.93,.33,5.97-.03,5.93-1.04,7.87,.63,7.79,6.57-.29,20.26,.72,40.54-.6,60.79-.03,.31-.06,.62-.09,.93-1.42,.09-2.07,1.09-2.76,2.16-1.23,1.89,.5,3.66,.13,5.5-4.13,10.12-11.89,16.3-22.13,19.23-9.82,2.81-19.8,2.92-29.62-.44-2.03-2.17-4.5-3.37-7.51-3.37,0,0,0,0,0,0-.26-1.88-1.8-1.89-3.17-2.14l-.14-.1c-.15-3.07-2.34-3.98-4.86-4.54,0,0,.01,0,.01,0-.21-.24-.43-.47-.64-.71-.16-.03-.22-.13-.16-.29,.25-1.18-.26-2.09-.78-3.15-1.48-2.99-3.79-5.39-4.79-8.8-2.52-8.62-2.93-17.42-3.09-26.25-.2-11.26-.04-22.52-.07-33.77,0-1.2,.38-2.49-.49-3.59-.01-1.82-.03-3.63-.04-5.45,.65-.98,1.09-1.83,2.62-2.16,3.62-.79,7.22-.47,10.82-.51,3.55-.03,4.79,1.32,4.79,4.85,0,16.48,0,32.97,0,49.45,0,4.87,1,9.64,2.38,14.22,.6,1.98,1.68,4.72,4.6,5.22,.19,.19,.37,.38,.56,.57-.32,2.29,1.13,2.32,2.75,2.13,0,0-.05-.03-.05-.03,.34,.22,.69,.44,1.03,.66Z"/><path class="cls-1" d="M823.22,166.93c.36,1.12,.35,2.24,.02,3.36-.41-.34-1-1.43-1.02,.16-.05,3.16-.04,6.32,0,9.48,.02,1.84-.81,2.68-2.66,2.66-8.49-.08-16.98-.06-25.47-.26-1.16-.03-1.71,.23-2.58,.89-2.83,2.13-.5,4.55-.51,6.75-.12,24.14-.08,48.29-.09,72.43-4.95,.04-9.91-.02-14.86,.17-2.25,.09-2.86-.66-2.84-2.83,.1-12.16,.07-24.32,.08-36.48,0-12.05,.02-24.09-.03-36.14,0-1.28,.5-2.73-.71-3.82-.1-.6-.27-.91-1.06-.9-7.01,.11-14.02,.16-21.03,.19-2.14,0-4.43,.32-6.39-.31-1.77-.57,.11-3.28-1.51-4.44-.36-2.92-.25-5.84,0-8.76,.84-2.02,2.5-2.08,4.4-2.08,25.42,.02,50.84-.02,76.26-.05Z"/><path class="cls-1" d="M849.42,166.25c.44,0,.88,0,1.33,0,.51,3.17-.94,6.5,.84,9.55,.09,1.34,.24,2.68,.24,4.02,.02,20.02,0,40.05,.02,60.07,0,1.67,.18,3.35,.28,5.02,1.36,2.71,3.84,1.35,5.66,1.22,12.03-.89,24.04-.93,36.05,.12,2.25,.2,3.18,1.35,3.17,3.5-.02,3.26-.06,6.52,.03,9.78,.04,1.26-.38,2.16-1.37,2.86-18.64-.01-37.29,0-55.93-.06-2.01,0-4.06,.52-6.04-.24,.02-30.1,.1-60.21,0-90.31-.01-3.37,1.68-4.64,4.36-4.65,3.44-.01,6.96-.81,10.38,.55,1.44,.57,.77-.84,.98-1.41Z"/><path class="cls-1" d="M84.31,175.81c.07,.64,.14,1.29,.21,1.93-.83,.44-1.14,1.27-.86,2,1.27,3.34,.13,6.63-.05,9.94-.08,1.45-1.15,2.83-.57,4.27,2.35,5.89,.86,11.67-.37,17.46-.16,.76-.62,1.49-.02,2.22,.54,.65,2.23,.51,1.48,2.02-.67,1.35-2,.59-3.03,.78-4.46-2.86-8.89-5.75-13.38-8.57-1.97-1.24-3.02-2.88-3.1-5.24-.17-4.83,.07-9.65,.36-14.47,.06-1.06,.43-1.81,1.5-2.39,3.72-2.05,6.89-5,10.82-6.71,1.32-.57,1.5-2.3,3-2.54,.56-.04,1.03-.21,1.23-.81,.43-.28,.85-.55,1.28-.83,.26,.69,.82,.91,1.5,.93Z"/><path class="cls-1" d="M363.82,117.91c0,8.3,.03,16.61-.04,24.91,0,1.12,.86,2.96-1.52,2.99-2.3,.03-1.64-1.7-1.65-2.91-.05-9.25-.09-18.5-.03-27.75,0-1.07-.66-2.65,1.13-3.12,1.67-.44,2.67,.44,3.63,1.76,5.7,7.85,11.47,15.64,17.23,23.44,.64,.86,1.34,1.68,2.51,3.15,0-8.33,0-15.82,0-23.31,0-1.13,.03-2.26,0-3.38-.03-1.07,.34-1.69,1.53-1.74,1.36-.05,1.73,.6,1.72,1.85-.03,10.04-.02,20.08-.03,30.12,0,.78,.05,1.66-1.01,1.86-1.21,.23-2.19-.08-2.96-1.14-3.19-4.37-6.43-8.7-9.62-13.06-3.4-4.63-6.78-9.28-10.16-13.92-.24,.08-.49,.17-.73,.25Z"/><path class="cls-1" d="M223.16,179.55c2.85,1.72,5.68,3.47,8.55,5.16,1.07,.63,1.49,1.46,1.69,2.69,.89,5.39,.48,10.79,.35,16.19-.06,2.34-1.04,4.18-3.51,5.19-2.59,1.06-4.49,3.37-7.22,4.26-1.77-2.06-1.18-4.77-1.17-6.94,.04-6.58-1.31-13.25,.74-19.77,.2-.63-.18-1.62-.61-2.23-1.43-2.05-2.2-3.79,1.18-4.54Z"/><path class="cls-1" d="M309.91,128.06c1.82,1.09,4.07,1.54,5.43,3.52,3.56,5.21,.82,12.25-5.66,13.66-5.34,1.17-10.82,.42-16.24,.52-1.44,.03-1.43-.85-1.49-1.99-.46-8.89-.27-17.79-.1-26.68,.1-5.07,.31-5.07,5.42-5.08,2.6,0,5.2-.05,7.81,0,4.07,.08,8.07,2.42,8.99,5.48,.98,3.26,.75,7.3-3.85,9.77-.14,.07-.16,.37-.31,.78Zm-15.06,8.03c0,1.8,.02,3.6,0,5.4-.02,1.08,.34,1.72,1.54,1.69,3.94-.13,7.93,.49,11.83-.36,3.58-.78,5.47-3.05,5.56-6.26,.09-3.26-1.97-5.92-5.38-6.87-2.09-.58-4.25-.5-6.4-.49q-7.13,0-7.14,6.9Zm-.12-15.11c0,1.35,0,2.7,0,4.05,0,.92-.04,1.97,1.28,1.91,3.82-.17,7.71,.63,11.45-.65,2.84-.97,4.02-3.1,3.91-6.01-.1-2.89-1.8-4.62-4.43-5.25-1.84-.44-3.81-.46-5.72-.47-6.33-.05-6.33-.01-6.49,6.41Z"/><path class="cls-1" d="M453.05,111.36c10.63,0,18.17,7.27,18.22,17.57,.05,9.81-8,17.67-17.99,17.57-10-.1-17.47-7.69-17.43-17.7,.04-9.91,7.47-17.44,17.19-17.43Zm.7,2.82c-8.88-.05-14.84,5.89-14.88,14.83-.04,8.4,6.03,14.5,14.51,14.58,8.28,.08,14.57-5.92,14.71-14.05,.15-9.05-5.7-15.32-14.34-15.37Z"/><path class="cls-1" d="M79.92,244.75c-7.29-10.42-11.52-21.23-14.18-33.68,6.56,3.74,11.93,7.72,17.27,11.73,.6,.45,.73,1.12,.65,1.82-.69,6.55-1.87,13-3.75,20.13Z"/><path class="cls-1" d="M93.71,226.04c-4.47-1.95-6.23-5.04-5.47-10.1,1.77-11.74,.97-23.58,.66-35.38-.01-.45,.14-.95,0-1.34-2.73-7.22,1.23-11.26,6.91-14.49,.67,2.81-1.29,5.87,.83,8.54-2.54,6.96-4.37,14-4.35,21.54,.01,6.42,.71,12.69,2.07,18.92-1.55,.3-1.23,1.23-.79,2.25,.34,.79,1.26,1.71,.66,2.45-1.99,2.47-.88,5.04-.52,7.6Z"/><path class="cls-1" d="M80.1,148.37c1.65,6.44,2.74,12.61,3.55,18.85,.16,1.23-.12,2.27-1.1,3-5.23,3.87-10.47,7.74-16.23,11.08-.17-6.38,7.19-25.4,13.79-32.92Z"/><path class="cls-1" d="M146.85,260.43c4.31-.31,8.62-.67,12.92,.09,0,.21,.01,.41,.03,.62,0,4.04-.03,8.08-.02,12.12,0,2.06-1.52,4.12,.03,6.17-2.64,1.16-5.44,1.17-8.25,1.21-1.53-.97-3.61-.3-5.08-1.76-.26-.99,3.44-1.46,.71-2.64-1.78-.77-1.68-1.8-1.69-3.13-.03-3.04,.67-6.35-.3-9.05-.9-2.51,.1-2.88,1.66-3.64Z"/><path class="cls-1" d="M413.87,143.39c5.01,.18,9.06-1.71,11.97-5.76,.97-1.35,2.11-2.01,3.32-.98,1.19,1.02-.3,2.03-.84,2.8-4.66,6.61-14.86,8.91-22.57,5.18-7.7-3.72-11.49-12.73-8.92-21.18,2.49-8.19,10.24-13.02,19.21-12.02,5.1,.57,9.32,2.64,12.18,6.99,.52,.79,1.88,1.82,.4,2.86-1.34,.95-2.21,.09-3-1.08-2.81-4.18-6.82-5.84-11.82-6.07-7.37-.34-14.55,5.82-14.57,14.53-.02,8.63,5.96,14.69,14.64,14.73Z"/><path class="cls-1" d="M206.08,166.71c4.31,2.13,5.74,5.06,5.09,10.24-1.61,12.87-1.46,25.85-.18,38.79,.68,6.82,.57,7.15-5.59,10.54,0-.68-.29-1.54,.03-2,2.14-3.13,.39-4.12-2.98-4.34,2.6-1.27,3.3-4.73,2.04-7.59,2.08-9.65,3-19.33,.63-29.07,2.09-2.35,2.04-5.09,1.05-7.74-1.13-3-1.74-5.87-.1-8.83Z"/><path class="cls-1" d="M338.26,135.55c-.34,0-.69,.05-1.02,0-6.6-1.15-10.62,1.35-11.82,8.09-.16,.88-.44,2.11-1.8,2.13-1.11,.02-2.52,.35-1.65-1.69,4.39-10.22,8.75-20.44,13.06-30.69,.41-.98,.9-1.46,1.95-1.45,1.34,0,2.46,.32,3.03,1.68,4.3,10.14,8.6,20.28,12.87,30.43,.22,.52,.87,1.39-.17,1.65-.91,.23-2.08,.45-2.63-.82-.85-1.96-1.84-3.88-2.49-5.9-.75-2.35-2.01-3.52-4.62-3.19-1.55,.2-3.15,.04-4.72,.04,0-.09,0-.18,0-.27Zm-.81-21.13c-2.52,6.01-4.51,11.07-6.78,16.02-1.15,2.5-.22,2.79,1.98,2.67,2.36-.13,4.73-.02,7.09-.02,5.34,0,5.37-.01,3.42-4.87-1.73-4.3-3.54-8.56-5.71-13.8Z"/><path class="cls-1" d="M99.36,237.21c4.73,4.04,9.25,8.29,12.86,13.4-.13,.64-.1,1.75-.42,1.86-2.62,.89-2.91,1.89-.7,3.76,.81,.68,.53,2.02-.92,2.14-1.29,.11-2.22,.36-2.09,1.91-2.95,.52-5.89,1.05-8.84,1.57-.38-1.5-.77-3.01-1.14-4.51-.58-2.38,4.31-.79,2.69-3.36-.87-1.38-3.01-2.19-2.18-4.21,1.72-4.15-.4-8.44,.74-12.57Z"/><path class="cls-1" d="M197.77,239.45c2.31-2.42,4.49-4.99,7.4-6.78,2.16-.17,2.11,1.22,2.26,2.8,.49,5.43-1.22,10.85-.07,16.29,.13,.6-.03,1.41-.37,1.92-.91,1.38-.67,2.73-.25,4.14,0,0,.02-.03,.02-.03-.64,0-1.19,.16-1.39,.86-1.56,1.99-3.13,3.96-6.14,3.14,.5-6.03-1.31-12.04-.05-18.09,.32-1.54,.07-3.17-1.42-4.25Z"/><path class="cls-1" d="M467.26,234.48c1.32-20.25,.31-40.53,.6-60.79,.08-5.93-1.86-7.61-7.79-6.57-2.04,.36-3.91,.62-5.97,.03-1.95-.56-3.42,.18-3.2,2.56,1.3,14.12,.4,28.27,.62,42.41,.12,7.63,.24,15.29-2.56,22.61-.35,.92-.17,2.16-1.75,1.84,2.46-5.83,3.06-11.92,3.02-18.19-.11-16.03,0-32.06-.07-48.09-.01-3.09,.56-4.75,4.3-4.38,4.04,.41,8.15,.15,12.23,.07,1.81-.04,2.6,.43,2.59,2.45-.1,18.39-.03,36.78-.19,55.17-.03,3.66-.3,7.41-1.83,10.88Z"/><path class="cls-1" d="M199.23,154.78c-3.64-3.78-7.29-7.56-10.93-11.34,2.56-3.44,1.02-6.89,.05-10.35,3.35-.94,6.75-1.58,10.21-1.95,.8,1.97,2.47,3.36,1.66,6.23-.54,1.92-.12,4.22-1.36,6.23-.76,1.22-.22,2.34,1.08,3.1,.84,.49,2.33,1.58,1.54,2.15-2.21,1.6-1.3,4.05-2.25,5.92Z"/><path class="cls-1" d="M206.73,257.82c-.42-1.41-.67-2.76,.25-4.14,.34-.51,.5-1.33,.37-1.92-1.16-5.44,.56-10.85,.07-16.29-.14-1.59-.1-2.98-2.26-2.8,2.19-2.03,4.39-4.07,6.56-6.08,.86,.84,1.1,1.59,1.07,2.39-.23,5.73,2.02,11.02,3.01,16.53,.31,1.71,.03,2.79-.93,3.92-2.52,2.98-5.12,5.89-8.14,8.39Z"/><path class="cls-1" d="M146.85,260.43c-1.56,.75-2.56,1.13-1.66,3.64,.97,2.71,.27,6.01,.3,9.05,.01,1.33-.09,2.36,1.69,3.13,2.73,1.18-.96,1.65-.71,2.64,1.47,1.46,3.55,.79,5.08,1.76-3.46,.66-6.84-.48-10.27-.44-2.11,.03-2.45-1.98-3.37-3.28,.03-1.1,.59-2.6-.33-3.19-2.3-1.45-2.34-4.18-4.22-5.98,2.28,.01,2.86-.04,3.04-.41,.33-.64,.24-1.27-.18-1.88-2.31-3.38-2.31-3.42,1.74-4.17,1.2-.22,2.45-.18,3.68-.25,1.67-.78,3.41-.98,5.22-.62Z"/><path class="cls-1" d="M197.77,239.45c1.49,1.08,1.74,2.71,1.42,4.25-1.27,6.05,.55,12.06,.05,18.09-3.18-.69-6.35-1.37-9.53-2.06,.75-3.46-1.43-6-2.77-8.8,0,0,0,.05,0,.05,.23-.32,.46-.63,.69-.95,2.23-2.63,4.23-5.44,7.14-7.45,1.17-.81,2.02-2.07,3.01-3.13Z"/><path class="cls-1" d="M153.71,112.78c1.59,.24,3.33-.87,4.79,.53-.22,.82,.15,1.58-.31,2.53-1.78,3.69-1.54,7.71-.8,11.55,.43,2.24-.04,3.67-1.68,4.96-.92,0-1.84,0-2.76,0-.51-.19-1.05-.61-1.52-.54-2.89,.42-3.3-1.08-3.28-3.52,.03-3.67-.02-7.28,2.81-10.55-1.34-.09-2.11-.16-2.88-.2-.8-.04-1.64-.05-1.8-1.08-.15-.94,.59-1.15,1.2-1.68,1.84-1.6,3.81-2.4,6.24-2Z"/><path class="cls-1" d="M220.94,219.76c3.24-2.75,6.67-5.19,10.66-7.03,.85,3.14-.64,5.59-1.4,8.1-2.13,6.97-4.84,13.71-9.25,19.63-.4,.53-.73,1.27-1.54,1.01-.79-.25-.74-1.01-.66-1.7,.66-1.29,1.59-2.68,1.22-4.06-.52-1.94-.32-2.94,1.86-3.24,.84-.12,1.33-.98,.7-1.81-2.55-3.36-3.22-6.95-1.6-10.9Zm.31,14.8c-.03,.09-.09,.19-.09,.28,0,.03,.15,.06,.23,.09,.03-.09,.09-.19,.09-.28,0-.03-.15-.06-.23-.09Z"/><path class="cls-1" d="M223.07,155.45c4.52,7.56,7.56,15.64,9.18,25.23-5.38-3.54-10.28-6.19-14.26-10.2,2.65-.88,1.58-3.18,1.92-4.96,.65-3.48,.45-7.23,3.16-10.07Z"/><path class="cls-1" d="M223.16,179.55c-3.38,.75-2.61,2.5-1.18,4.54,.42,.61,.81,1.6,.61,2.23-2.05,6.52-.7,13.19-.74,19.77-.01,2.17-.6,4.88,1.17,6.94-.26,.23-.52,.47-.78,.7-1.32,.23-2.65,.46-3.98,.68h0c-.13-.97,1.31-2.17-.41-2.9-1.79-.76-1.5-1.95-1.2-3.58,1.18-6.38,1.42-12.82,.42-19.28-.29-1.86-1.02-4.74,.29-5.47,3.5-1.94,1.11-2.82-.19-4.12-.56-.56-1.21-1.23-.65-2.04,.51-.74,1.22,0,1.84,.04,.45,.03,.9,0,1.35,.01,1.26,.67,2.52,1.33,3.45,2.45Z"/><path class="cls-1" d="M208.74,137.17c2.63,1.9,4.55,4.5,6.77,6.8,.76,.78,.65,1.78,.44,2.85-1.14,5.73-2.23,11.47-3.25,17.22-.35,1.96-1.14,2.07-2.3,.71-.62-.72-1.87-1-1.78-2.28,.1-.14,.21-.28,.31-.41-.13,.11-.27,.22-.4,.32-1.51,.11-2.04-1.01-2.62-2.07,3.58-.83,3.81-1.24,2.05-4.21-.39-.66-.7-1.25-.21-1.82,1.45-1.67,.84-3.64,.99-5.51,.17-2.06-.65-4.3,1.09-6.1,.15-.15,.07-.85-.07-.9-2.62-1.05-.51-3.12-1.04-4.61Z"/><path class="cls-1" d="M790.91,262.39c0-24.14-.03-48.29,.09-72.43,.01-2.2-2.32-4.61,.51-6.75,.87-.66,1.42-.92,2.58-.89,8.49,.2,16.98,.18,25.47,.26,1.85,.02,2.68-.81,2.66-2.66-.04-3.16-.04-6.32,0-9.48,.02-1.59,.62-.51,1.02-.16,.06,3.37,0,6.76,.21,10.12,.15,2.33-.61,3.1-3.01,3.06-8.26-.13-16.52,.07-24.78-.11-2.72-.06-3.41,.77-3.4,3.41,.09,24.23,.07,48.46-.01,72.69,0,.95,1.27,2.97-1.34,2.93Z"/><path class="cls-1" d="M110.15,144.71c-2.42,3.01-5.19,5.66-8.15,8.14-.72-1.92-4.36-2.84-2.09-5.77,1.28-1.65,1.41-3.47,1.38-5.42-.05-3.49-.02-6.99-.02-10.48,2.66,.98,5.65,.39,8.23,1.75-2.35,4.06,.08,7.87,.64,11.78Z"/><path class="cls-1" d="M218.27,214.42c1.33-.23,2.65-.46,3.98-.68-1.83,2.2-4.46,3.21-7.22,5.33-.31-4.8-.71-8.87-.82-12.95-.27-9.52-.28-19.04,.59-28.54,.1-1.08-.43-2.62,.57-3.13,1.25-.64,2.09,.95,3.13,1.52,.47,.26,.82,.75,1.22,1.13-.45,0-.9,.01-1.35-.01-.62-.04-1.33-.78-1.84-.04-.56,.81,.08,1.48,.65,2.04,1.3,1.29,3.69,2.18,.19,4.12-1.3,.72-.57,3.61-.29,5.47,1,6.46,.76,12.89-.42,19.28-.3,1.63-.58,2.82,1.2,3.58,1.72,.73,.28,1.93,.41,2.89-.05,.1-.1,.19-.15,.29,.05-.1,.1-.19,.16-.29Z"/><path class="cls-1" d="M91.01,257.18c-2.18-2.08-4.44-4.09-6.51-6.27-1.28-1.35-1.58-2.94-1.11-4.95,1.47-6.28,2.65-12.64,3.97-19.14,1.25,.34,2.36,1.09,3.11,2.37,.69,2.89-.6,5.64-.63,8.41-.06,6.53-.76,13.15,1.17,19.58Z"/><path class="cls-1" d="M412.29,240.76c-2.92-.5-4-3.24-4.6-5.22-1.38-4.58-2.38-9.35-2.38-14.22-.01-16.48,0-32.97,0-49.45,0-3.53-1.24-4.88-4.79-4.85-3.6,.03-7.2-.28-10.82,.51-1.53,.33-1.97,1.18-2.62,2.16-.59-2.79,.07-4.09,3.39-3.81,4.04,.34,8.13,.16,12.19-.03,2.78-.13,3.88,.5,3.85,3.67-.16,17.22-.03,34.44-.03,51.65,0,7.11,1.21,13.84,5.81,19.58Z"/><path class="cls-1" d="M117.37,263.1c3.26-1.49,5.67-1.13,7.65,2.37,1.97,3.5,4.67,6.59,7.04,9.88,.71,.99,1.5,1.96,1.54,3.68-5.7-.91-11.02-2.45-16.05-4.99,2.08-1.9,4.16-3.81,1.48-6.72-.6-.65-.58-1.17-.05-1.74,2.67-2.9-.13-2.26-1.61-2.48Z"/><path class="cls-1" d="M155.71,132.35c1.64-1.29,2.12-2.72,1.68-4.96-.74-3.84-.99-7.87,.8-11.55,.46-.95,.09-1.71,.31-2.53,1.73-.16,2.7,.39,3.5,2.18,1.24,2.8,3.11,5.32,4.71,7.96-.84,.75-.24,2.83-2.05,2.55-3.46-.53-2.09,1.86-1.82,3.13,.18,.87,1.19,1.58,1.03,2.7-2.69,.67-5.44,.36-8.16,.5Z"/><path class="cls-1" d="M86.28,140.38c.14-.18,.28-.36,.42-.54,1.46,.08,2.3-.53,2.29-2.07,0,0-.03,.08-.03,.08,.25-.25,.5-.5,.74-.75,0,0-.06,.04-.06,.04,.24,.02,.49,.03,.73,.05,1.86,.21,1.19,1.34,.64,2.13-1.41,2.02-1.34,4.18-1.4,6.54-.09,3.64,1.3,7.22,.65,10.73-.53,2.84,.2,3.97,2.85,4.29l.11,.11c-.37,.41-.68,.91-1.13,1.2-1.63,1.05-2.6,4.05-4.55,3.16-1.05-.48-.95-3.63-1.24-5.59-.23-1.55-1.02-3.02-.71-4.65,.39-4.1-.99-7.99-1.45-11.99,0,0-.05,.03-.05,.03,1.61,.19,1.55-.89,1.5-1.96,0,0-.02,.05-.02,.05,.23-.29,.46-.57,.7-.86Z"/><path class="cls-1" d="M134.47,120.89c.44-.55,.88-1.11,1.32-1.66,.28,.41,.56,1.16,1.14,.53,.52-.57-.23-1.15-.4-1.73,1.26-3.59,3.12-6.39,7.6-5.76-.28,.73-.35,1.72-.88,2.14-2.87,2.3-1.86,3.26,1.58,3.47-.98,1.38-2.33,2.37-1.88,3.76,.82,2.55,.52,5.14,.43,7.69-.06,1.72,.84,2.37,2.07,2.99-3.2,.47-6.33-.51-9.51-.46,.49-1.23,.96-2.46,1.47-3.68,1.56-3.71,.76-5.71-2.95-7.3Z"/><path class="cls-1" d="M119.58,129.86c-5.63-.19-10.98-1.91-17.42-2.8,5.31-3.86,10.24-6.5,15.46-8.62,.43,2.02,2.59,1.37,3.82,2.4-.71,.75-1.45,1.4-2.03,2.17-.54,.71-.63,1.69,.44,1.85,2.99,.43,1.12,2.25,1.15,3.53h0c-.96,.03-1.34,.61-1.43,1.47Zm-.97-1.85c.01-.81-.46-.94-.88-.9-.38,.04-.96,.23-1.05,.49-.21,.6,.41,.7,.81,.7,.38,0,.76-.19,1.11-.29Z"/><path class="cls-1" d="M119.58,129.86c.08-.87,.47-1.44,1.43-1.47,.09,.05,.19,.1,.28,.15-.09-.05-.19-.1-.28-.16-.03-1.28,1.84-3.1-1.15-3.53-1.07-.15-.98-1.14-.44-1.85,.58-.77,1.32-1.42,2.03-2.17-1.23-1.03-3.39-.39-3.82-2.4,5.14-1.67,9.98-4.45,15.63-4.26l-.04-.04c-.1,3.41-3.04,5.24-4.5,7.89-1.27,2.32-3.04,4.37-4.69,6.46-1.12,1.43-2.38,2.83-4.45,1.36Zm5.68-7.98c-.36-.09-.67-.25-.95-.21-.51,.06-1.43,.16-.76,.9,.49,.54,1.21-.03,1.71-.68Z"/><path class="cls-1" d="M129.84,257.05c-3.61,1.08-6.36,.71-8.6-3.06-2-3.38-5.09-6.13-7.69-9.15,.11-1.01-.47-2.35,1.22-2.63,.63,.86,.99,1.88,2.15,2.37,4.56,1.89,9.08,3.89,13.61,5.85-.56,1.15-1.37,2.38,.86,2.61,.99,.1,2.49,.08,2.13,1.41-.34,1.25-1.8,1.49-3.13,1.07-.53-.17-.76-1.29-1.6-.49-.13,.94,.85,1.29,1.05,2.04Z"/><path class="cls-1" d="M164.27,256.57c-8.75-.01-17.51-.02-26.26-.04,.62-1.02,1.62-1.34,2.72-1.47,.61,.62,1.23,1.05,2.22,0h-2.21c1.55-.69,1.37-1.38,0-2.07,9.37,.31,18.7,.15,27.75-2.77,1.12,.83,.63,3.34,3.08,2.84,.75-.15,1.7,0,1.65,1.14-.04,.94-.72,1.36-1.58,1.47-2.45,.31-4.91,.6-7.36,.89Zm-6.57-2.03c-1.53-.27-3.06-.58-4.6-.79-.55-.08-1.18,.09-1.28,.8-.14,.91,.52,1.09,1.24,1.19,1.63,.23,3.05-.56,4.65-1.19Z"/><path class="cls-1" d="M208.74,137.17c.52,1.48-1.58,3.56,1.04,4.61,.13,.05,.21,.75,.07,.9-1.74,1.8-.92,4.04-1.09,6.1-.16,1.87,.45,3.84-.99,5.51-.49,.56-.17,1.16,.21,1.82,1.76,2.97,1.54,3.38-2.05,4.21,0,0,.08,0,.08,0-.24-.61-.76-.74-1.34-.77-.48-.41-.96-.82-1.44-1.23,1.59-8.67,1.52-17.34,.11-26.02,2.49,.87,3.88,2.95,5.41,4.87Z"/><path class="cls-1" d="M91.76,135c2.35-1.69,3.74-4.96,7.42-4.44-1.29,.58-2.02,1.33-2.05,2.99-.04,2.72,.88,5.61-1.05,8.14-.44,.58-.06,1.3,.73,1.57,.76,.26,1.02,.74,.93,1.54-.48,4.05-.68,8.1,.21,12.12-1.31,1.12-2.62,2.23-3.93,3.35,0,0-.28-.04-.27-.04,1.04-2.45-1.19-4.37-.89-7.01,.62-5.43,1.04-10.99,.29-16.51-.12-.91-.42-1.48-1.41-1.48l.04-.25Z"/><path class="cls-1" d="M203.33,132.3c1.41,8.68,1.48,17.36-.11,26.02-1.33-1.18-2.66-2.36-3.99-3.54,.94-1.87,.04-4.32,2.25-5.92,.78-.57-.7-1.66-1.54-2.15-1.3-.76-1.83-1.88-1.08-3.1,1.24-2.01,.82-4.32,1.36-6.23,.81-2.87-.86-4.26-1.66-6.23,1.87-.77,3.65-1.15,4.77,1.16Z"/><path class="cls-1" d="M145.47,132.33c-1.24-.62-2.13-1.28-2.07-2.99,.08-2.55,.39-5.14-.43-7.69-.45-1.4,.9-2.38,1.88-3.76-3.45-.21-4.45-1.17-1.58-3.47,.53-.42,.6-1.41,.88-2.14,3.2,.1,6.45-.91,9.58,.5-2.43-.4-4.39,.4-6.24,2-.6,.53-1.35,.74-1.2,1.68,.16,1.03,1,1.04,1.8,1.08,.77,.04,1.54,.1,2.88,.2-2.83,3.27-2.77,6.88-2.81,10.55-.02,2.44,.39,3.94,3.28,3.52,.47-.07,1.01,.35,1.52,.54-2.49,0-4.99-.01-7.48-.02Z"/><path class="cls-1" d="M178.81,117.71c6.19,1.91,11.49,5.54,17.74,9.12-5.62,1.26-10.53,2.72-15.72,2.84-2.89-1.21,.48-1.27,.34-2.19-.74-1.07-4.66-1.28-1.95-3.64,2.28-1.99,2.63-2.97,.02-4.58-.33-.21-.29-1.01-.43-1.54Z"/><path class="cls-1" d="M178.81,117.71c.13,.53,.09,1.34,.43,1.54,2.61,1.61,2.26,2.6-.02,4.58-2.72,2.37,1.21,2.57,1.95,3.64,.14,.92-3.23,.98-.34,2.19-3.25,.83-5.45-.77-6.98-3.31-1.31-2.17-3.64-3.73-3.93-6.5-.23-.31-.47-.62-.7-.92,0,0,0,.08,0,.08-.58-2.11-.47-3.76,2.4-3.57,.16-.08,.29-.05,.4,.08,.59,2.29,2.42,1.01,3.71,1.28,1.21-.3,2.02,.75,3.09,.91Z"/><path class="cls-1" d="M179,274.75c-4.14,1.88-8.4,3.34-13.92,4.21,2.88-4.21,5.23-7.67,7.62-11.1,.96-1.38,2.04-2.69,3.04-4.05,.78-1.06,1.61-1.94,3.1-1.31-.37,2.13-.39,4.27-1.2,6.4-.75,1.97-1.14,4.39,1.37,5.85Z"/><path class="cls-1" d="M159.81,279.43c-1.55-2.05-.02-4.11-.03-6.17,0-4.04,.01-8.08,.02-12.12,1.29,.23,2.58,.57,3.88,.67,3.22,.22,4.71,1.88,4.37,5.03-2.47,4.38-4.87,8.81-8.25,12.6Z"/><path class="cls-1" d="M97.94,156.93c-.88-4.03-.69-8.07-.21-12.12,.1-.79-.17-1.28-.93-1.54-.78-.27-1.17-.99-.73-1.57,1.93-2.54,1.01-5.42,1.05-8.14,.02-1.66,.76-2.41,2.05-2.99,.7,.2,1.4,.41,2.1,.61,0,3.49-.04,6.99,.02,10.48,.03,1.95-.11,3.78-1.38,5.42-2.27,2.93,1.37,3.85,2.09,5.77-1.06,1.65-2.5,2.93-4.06,4.08Z"/><path class="cls-1" d="M164.27,256.57c2.45-.3,4.91-.58,7.36-.89,.86-.11,1.54-.53,1.58-1.47,.05-1.15-.9-1.29-1.65-1.14-2.45,.5-1.95-2.02-3.08-2.84,3.89-1.8,7.79-3.61,11.68-5.41,.61,1.5,2.08,2.96-.3,4.4-.84,.51-.06,1.6,.29,2.38-2.57,5.61-6.92,7.15-12.7,5.58-1.04-.28-2.25,.27-3.19-.6Z"/><path class="cls-1" d="M93.11,231.45c1.37,1.31,3.21,2.11,4.2,3.83-2.7,5.63-.69,11.76-1.84,17.55,2.79,2.75,.65,5.27-.37,7.84-1.32-.73-2.66-1.44-3.41-2.85,1.1-.02,2.19-.02,1.31-1.65-.4-.73-1.57-1.38-.84-2.33,1.63-2.15,.69-4.57,.96-6.85,.61-5.18-1.32-10.36-.02-15.54Z"/><path class="cls-1" d="M155.78,136.11c6.16-.43,12.32-.86,18.48-1.28,.64-.04,1.02,.37,1.29,.89-.99,.47-1.95,1.17-2.99,1.35-2.56,.45-1.74,1.42-.48,2.44,1.11,.89,2.05,1.53,.05,2.56-1.41,.73,.6,1.38,.29,2.18-4.33-1.97-8.97-2.94-13.54-4.15,.44-.05,.88-.09,1.32-.16,.91-.14,2.2-.05,2.18-1.19,0-.35-.69-2.09-2.5-1.69-1.24,.27-2.72-.59-4.1-.95Z"/><path class="cls-1" d="M117.37,263.1c1.48,.22,4.28-.42,1.61,2.48-.53,.57-.55,1.09,.05,1.74,2.68,2.9,.6,4.82-1.48,6.72-.22-.06-.45-.11-.67-.17-.24-.17-.49-.34-.73-.51-2.75-.51-4.91-2.35-7.47-3.29,.24-.22,.47-.6,.73-.62,1.38-.14,3.57,1.14,3.83-1.05,.22-1.84-2.21-1.45-3.37-1.67-2.56-.48-.53-1.41-.43-2.15,2.61-.71,5.14-1.79,7.94-1.48Z"/><path class="cls-1" d="M95.11,260.67c1.01-2.57,3.16-5.09,.37-7.84,1.15-5.8-.86-11.92,1.84-17.55,.68,.65,1.37,1.29,2.05,1.94-1.13,4.13,.99,8.42-.73,12.57-.84,2.01,1.3,2.83,2.18,4.21,1.62,2.56-3.27,.98-2.69,3.36,.37,1.51,.76,3.01,1.14,4.51-1.86,1.25-3.12,.43-4.15-1.19Z"/><path class="cls-1" d="M179,274.75c-2.51-1.46-2.11-3.89-1.37-5.85,.81-2.12,.83-4.26,1.2-6.4,2.03,.25,4.06,.49,6.1,.74,.4,2.74-.44,5.78,2.04,7.99-2.53,1.45-4.99,3.07-7.96,3.52Z"/><path class="cls-1" d="M129.85,135.65c3.65-.03,7.32-.3,10.87,.9,.19,3.46,3.56,1.42,4.93,2.82-5.47,.87-10.93,1.82-16.27,3.33-.44,.04-.87,.07-1.31,.11-.09,.18-.22,.3-.41,.36,.43-2.59-1.94-5.99,2.19-7.52Z"/><path class="cls-1" d="M129.85,135.65c-4.12,1.53-1.76,4.93-2.18,7.52-2.72,1.73-5.61,3.15-8.64,4.27,.68-1.72-.63-2.54-1.59-3.53,1.25-3.31,4.02-5.52,6.2-8.11,1.71-2.03,4.1-.7,6.2-.15Z"/><path class="cls-1" d="M187.08,149.22c5.21,4.97,10.41,9.94,15.62,14.9-1.85,1.13-1.08,3.81-2.93,4.93-3.8-6.4-8.34-12.19-14.14-16.94,.49-.97,.97-1.93,1.46-2.9Z"/><path class="cls-1" d="M849.42,166.25c-.21,.56,.46,1.98-.98,1.41-3.42-1.36-6.93-.56-10.38-.55-2.69,.01-4.38,1.28-4.36,4.65,.11,30.1,.03,60.21,0,90.31-1.43-.66-.82-1.95-.83-2.96-.05-29.83-.01-59.66-.13-89.49-.01-3.02,.86-3.86,3.81-3.64,4.27,.32,8.57,.2,12.86,.27Z"/><path class="cls-1" d="M223.07,155.45c-2.71,2.84-2.51,6.59-3.16,10.07-.33,1.77,.73,4.07-1.92,4.96-1.69-.63-2.55-1.65-2.16-3.6,.93-4.74,1.73-9.5,2.61-14.25,.16-.87,.24-2.05,1.24-2.23,1.1-.19,1.21,1.11,1.65,1.81,.66,1.03,1.17,2.16,1.75,3.25Z"/><path class="cls-1" d="M81.1,216.44c1.03-.19,2.36,.56,3.03-.78,.75-1.51-.94-1.37-1.48-2.02-.6-.72-.14-1.45,.02-2.22,1.22-5.79,2.72-11.57,.37-17.46-.58-1.45,.49-2.82,.57-4.27,.18-3.31,1.32-6.6,.05-9.94-.28-.73,.03-1.56,.86-2,1.61,10,1.26,20.07,.89,30.13-.09,2.35-.3,4.7-.47,7.05-.09,1.19,.41,2.89-.86,3.32-1.04,.35-2.2-.78-2.97-1.79Z"/><path class="cls-1" d="M93.11,231.45c-1.3,5.18,.63,10.36,.02,15.54-.27,2.28,.68,4.7-.96,6.85-.73,.96,.44,1.6,.84,2.33,.88,1.63-.21,1.62-1.31,1.65,0,0,.06-.01,.06-.01-.25-.23-.5-.46-.75-.69,0,0,0,.07,0,.07-1.92-6.43-1.23-13.05-1.17-19.58,.03-2.77,1.32-5.53,.63-8.41,.88,.75,1.76,1.5,2.64,2.26Z"/><path class="cls-1" d="M387.11,175.15c.87,1.1,.49,2.39,.49,3.59,.03,11.26-.13,22.52,.07,33.77,.16,8.83,.56,17.62,3.09,26.25,1,3.41,3.31,5.81,4.79,8.8,.52,1.05,1.03,1.97,.78,3.15-5.52-5.99-7.95-13.44-8.63-21.19-1.58-18.09-.6-36.24-.58-54.37Z"/><path class="cls-1" d="M134.47,120.89c3.72,1.59,4.52,3.58,2.95,7.3-.51,1.22-.98,2.45-1.47,3.68-2.69-.02-6.48,.79-7.63-1.2-1.12-1.94,2.24-4.15,3.59-6.27,.77-1.22,1.7-2.34,2.56-3.5Z"/><path class="cls-1" d="M201.45,229.46c-4.76,4.72-9.51,9.45-14.27,14.17-1.14-.65-.96-2.02-1.59-2.94,5.23-4.12,9.11-9.41,12.93-14.76,2.1,.25,1.27,2.91,2.93,3.53Z"/><path class="cls-1" d="M110.15,144.71c-.55-3.91-2.98-7.72-.64-11.78,3.06-.12,6,.72,9.31,1.1-1.87,4.56-5.81,7.2-8.67,10.68Z"/><path class="cls-1" d="M220.94,219.76c-1.63,3.95-.96,7.55,1.6,10.9,.63,.82,.14,1.69-.7,1.81-2.19,.3-2.39,1.31-1.86,3.24,.37,1.38-.55,2.77-1.22,4.06-1.73-4.78-2.25-9.84-2.87-14.81-.35-2.85,3.13-3.65,5.06-5.21Z"/><path class="cls-1" d="M199.76,169.06c1.86-1.12,1.09-3.8,2.94-4.93,1.25,.7,2.6,1.29,3.38,2.59-1.64,2.96-1.03,5.83,.1,8.83,.99,2.65,1.04,5.4-1.05,7.74-1.63-4.8-3.2-9.63-5.37-14.23Z"/><path class="cls-1" d="M1008.49,173.09c1.69,.2,1.65,1.51,1.3,2.54-.87,2.55-.53,5.14-.53,7.71-.03,24.92-.02,49.83-.01,74.75,0,1.51-.5,3.23,1.3,4.21-1.25,.34-2.27,.34-2.24-1.4,.03-1.58,0-3.15,0-4.73,0-25.9,0-51.79,0-77.69,0-1.8,.11-3.59,.17-5.39Z"/><path class="cls-1" d="M114.77,242.2c-1.69,.28-1.11,1.62-1.22,2.63-5.01-4.87-10.03-9.74-15.04-14.61,.93-1.61,.98-3.26-.22-4.7-1.13-1.35-1.17-2.84-1-4.42,.85,1.3,1.85,2.53,2.53,3.92,3.46,7.06,9.04,12.26,14.95,17.18Z"/><path class="cls-1" d="M201.45,229.46c-1.66-.61-.83-3.28-2.93-3.53,2.85-4.15,3.77-9.14,5.97-13.57,1.26,2.85,.56,6.31-2.04,7.59,3.36,.22,5.12,1.21,2.98,4.34-.31,.46-.03,1.32-.03,2-1.22,1.18-2.12,2.75-3.95,3.18Z"/><path class="cls-1" d="M141.64,261.05c-1.23,.08-2.48,.03-3.68,.25-4.04,.75-4.04,.79-1.74,4.17,.42,.61,.5,1.23,.18,1.88-.18,.36-.76,.42-3.04,.41,1.88,1.8,1.92,4.53,4.22,5.98,.93,.58,.37,2.09,.33,3.19-3.09-4.4-6.18-8.79-9.25-13.2-.57-.82-1.27-2.39,.14-2.35,4.3,.14,8.53-2.06,12.83-.33Z"/><path class="cls-1" d="M172.42,144.25c.31-.8-1.7-1.45-.29-2.18,1.99-1.03,1.06-1.67-.05-2.56-1.26-1.01-2.08-1.99,.48-2.44,1.04-.18,2-.89,2.99-1.35,0,0-.1,.03-.1,.03,.32,.24,.64,.48,.97,.71,1.48,1.04,2.31,2.57,3.14,4.11-.66,.4-1,1.4-.63,1.65,3.47,2.27,.23,3.26-.82,4.66-.68-.33-1.36-.66-2.03-.99-.24-.18-.47-.35-.71-.53l.04,.04c-.28-.63-.82-.72-1.42-.69l.05,.04c-.27-.67-.81-.75-1.43-.65l-.18,.16Z"/><path class="cls-1" d="M823.22,166.93c-25.42,.03-50.84,.07-76.26,.05-1.91,0-3.56,.06-4.4,2.08-.64-2.44,.41-3.04,2.78-3.03,25.08,.07,50.17,.03,75.25,.05,.93,0,2.1-.48,2.64,.85Z"/><path class="cls-1" d="M145.66,139.37c-1.38-1.41-4.74,.63-4.93-2.83,.46,0,.93,0,1.39,0,2.04,1.02,4.08,1.09,6.1-.07,2.52-.12,5.04-.24,7.57-.35,1.38,.36,2.87,1.22,4.1,.95,1.81-.4,2.5,1.34,2.5,1.69,.02,1.14-1.27,1.05-2.18,1.19-.44,.07-.88,.11-1.32,.16-1.53-.1-3.06-.21-4.59-.31-.64-.71-1.44-.52-2.23-.39-2.14,0-4.27-.02-6.41-.03Z"/><path class="cls-1" d="M895.67,262.37c.99-.7,1.4-1.59,1.37-2.86-.09-3.26-.05-6.52-.03-9.78,.01-2.15-.92-3.31-3.17-3.5-12.02-1.04-24.02-1.01-36.05-.12-1.83,.14-4.3,1.49-5.66-1.22,14.16,0,28.33,.05,42.49-.07,2.47-.02,3.4,.51,3.26,3.14-.23,4.16-.12,8.35-.03,12.52,.03,1.66-.51,2.32-2.16,1.88Z"/><path class="cls-1" d="M188.35,133.09c.97,3.45,2.51,6.91-.05,10.35-2.2-2.37-4.48-4.67-6.58-7.13-.95-1.12-1.47-2.53,1.01-2.5,1.91,.02,3.67-1.1,5.62-.72Z"/><path class="cls-1" d="M97.29,221.1c-.16,1.59-.13,3.07,1,4.42,1.2,1.44,1.15,3.08,.22,4.7-1.35-1.15-2.71-2.3-4.06-3.45-.24-.27-.48-.54-.72-.81,0,0-.01,.08-.01,.08-.36-2.56-1.46-5.12,.52-7.6,.6-.74-.32-1.66-.66-2.45-.44-1.02-.76-1.95,.79-2.25,1.55,2.23,2.02,4.88,2.92,7.36Z"/><path class="cls-1" d="M186.96,271.23c-2.47-2.21-1.64-5.26-2.04-7.99,3.14,.66,6.28,1.32,9.42,1.97,.53,.11,1.29,.03,1.22,.76-.04,.45-.51,1.01-.95,1.24-2.53,1.39-5.1,2.69-7.66,4.02Z"/><path class="cls-1" d="M140.73,255.06c-1.11,.12-2.1,.45-2.72,1.47-2.68,.8-5.43,.6-8.17,.52-.2-.75-1.18-1.1-1.05-2.04,.83-.81,1.07,.32,1.6,.49,1.33,.43,2.79,.19,3.13-1.07,.36-1.34-1.14-1.31-2.13-1.41-2.23-.23-1.42-1.46-.86-2.61,3.4,.86,6.8,1.72,10.2,2.57,1.37,.69,1.55,1.38,0,2.07h0Z"/><path class="cls-1" d="M1093.05,166.95c-4.87,.02-9.75,.16-14.61,0-2.54-.09-3.3,.72-3.28,3.26,.1,15.57,.06,31.15,.03,46.72,0,1.2,.41,2.5-.56,3.57-.05-17.44-.1-34.88-.15-52.32,0-.99-.18-2.12,1.4-2.11,5.53,.05,11.05,.09,16.58,.17,.2,0,.39,.47,.59,.72Z"/><path class="cls-1" d="M163.87,131.84c.16-1.12-.85-1.84-1.03-2.7-.27-1.27-1.64-3.66,1.82-3.13,1.82,.28,1.21-1.81,2.05-2.55,2.03,2.18,3.78,4.56,5.18,7.24-2.7,1.31-5.37,1.15-8.02,1.15Z"/><path class="cls-1" d="M108.1,260.29c-.14-1.54,.8-1.79,2.09-1.91,1.45-.13,1.73-1.46,.92-2.14-2.21-1.87-1.93-2.87,.7-3.76,.31-.11,.29-1.21,.42-1.86,1.61,1.06,3.02,2.28,4.05,3.96,.73,1.2,2.92,1.93,2.22,3.39-.39,.82-2.59,1.17-3.93,1.08-2.32-.15-4.34,.66-6.46,1.24Z"/><path class="cls-1" d="M186.93,250.93c1.34,2.8,3.52,5.34,2.77,8.8-2.97-.29-7.76,.15-8.26-1.88-.55-2.26,2.93-5.06,5.49-6.92Z"/><path class="cls-1" d="M1026.98,261.87c-1.24-1.08-.71-2.52-.72-3.8-.04-15.62-.02-31.24-.03-46.85,0-2.46,.02-4.89-.5-7.35-.28-1.32-1.27-3.43,1.11-4.33,.45,20.78,.61,41.56,.15,62.34Z"/><path class="cls-1" d="M178.1,146.87c1.05-1.4,4.29-2.39,.82-4.66-.37-.24-.03-1.25,.63-1.65,3.26,2.24,5.1,5.7,7.53,8.65-.49,.97-.97,1.93-1.46,2.9-2.51-1.75-5.01-3.5-7.52-5.24Z"/><path class="cls-1" d="M96.65,173.28c-2.12-2.67-.17-5.73-.83-8.54,2.04-1.75,4.09-3.49,6.13-5.24,.98,1.17,.06,2.37,.08,3.56-1.36,3.64-3.64,6.79-5.38,10.22Z"/><path class="cls-1" d="M717.13,169.48c-3.89-3.27-8.64-2.08-13.08-2.47-.45-.04-.91,.04-1.35-.01-4.16-.45-8.11-.38-10.32,4.07q1.63-5.07,6.88-5.07c4.42,0,8.85,.23,13.25-.06,2.89-.19,4.2,.89,4.62,3.53Z"/><path class="cls-1" d="M927.51,247.6c-1.44-2.87-.38-5.37,2.42-5.38,14.1-.06,28.19-.03,42.29-.02,.31,0,.62,.1,.92,.21,.03,.01-.06,.36-.09,.55-13,.01-26,.19-39-.06-3.8-.07-5.98,.9-6.54,4.71Z"/><path class="cls-1" d="M102.02,163.05c-.01-1.19,.9-2.39-.08-3.56,3.16-3.18,6.32-6.36,9.47-9.53,.5,.73,1,1.45,1.5,2.18-4.1,3.18-7.32,7.22-10.89,10.92Z"/><path class="cls-1" d="M185.59,240.69c.63,.93,.44,2.29,1.59,2.94-2.34,2.65-4.68,5.3-7.02,7.96-.35-.78-1.13-1.87-.29-2.38,2.38-1.44,.91-2.9,.3-4.4,1.85-1.32,3.28-3.19,5.43-4.12Z"/><path class="cls-1" d="M109.44,264.58c-.1,.74-2.14,1.67,.43,2.15,1.16,.22,3.59-.17,3.37,1.67-.26,2.2-2.44,.91-3.83,1.05-.26,.03-.49,.41-.73,.62-1.97-1.19-3.94-2.39-6.16-3.74,2.33-1.74,4.58-1.93,6.92-1.76Z"/><path class="cls-1" d="M112.92,152.14c-.5-.73-1-1.45-1.5-2.18,1.87-2.16,3.72-4.33,6.03-6.05,.96,.98,2.27,1.81,1.58,3.53,0,0,0-.06,0-.06-.24,.18-.47,.37-.71,.55-1.8,1.4-3.6,2.81-5.41,4.21Z"/><path class="cls-1" d="M1028.44,167.53c-4.29,.44-8.5-.75-12.81-.63-3.14,.09-5.74,.35-7.16,3.51q-.33-4.43,4.06-4.42c4.16,.01,8.33,.04,12.49,0,1.42-.01,2.67,.16,3.42,1.53Z"/><path class="cls-1" d="M683.46,242.89c.64-.87,1.59-.7,2.47-.7,12.39,0,24.79,0,37.18,0,.88,0,1.83-.18,2.5,.65-14.05,.02-28.1,.04-42.16,.05Z"/><path class="cls-1" d="M168.05,266.83c.34-3.15-1.15-4.8-4.37-5.03-1.3-.09-2.59-.44-3.88-.67-.01-.21-.02-.41-.03-.62,4.06-.41,7.99,.5,12.42,.97-1.28,2.22-1.96,4.31-4.15,5.34Z"/><path class="cls-1" d="M320.17,262.59c8.21,1.05,16.42,.41,24.63-.07-6.82,2.59-13.84,1.71-20.81,1.03-1.25-.12-2.72,0-3.83-.96Z"/><path class="cls-1" d="M742.56,177.81c1.62,1.16-.26,3.87,1.51,4.44,1.96,.63,4.24,.32,6.39,.31,7.01-.03,14.02-.08,21.03-.19,.8-.01,.97,.3,1.06,.9-9.28,.04-18.57,.05-27.85,.17-1.76,.02-2.5-.5-2.31-2.27,.12-1.11,.12-2.24,.17-3.36Z"/><path class="cls-1" d="M442.71,242.22c-.51,2.05-1.77,3.04-3.92,3.42-2.15,.38-3.9,2.15-6.33,1.91-.93-.09-1.8,.07-2.02-1.13,4.48-.26,8.59-1.61,12.27-4.2Z"/><path class="cls-1" d="M962.47,166.95c-7.35,.02-14.69,.05-22.04,.08,.16-.86,.81-.99,1.51-.99,6.31,0,12.62,0,18.92,0,.69,0,1.36,.11,1.6,.92Z"/><path class="cls-1" d="M171.61,115.45c-2.87-.19-2.98,1.46-2.4,3.57-1.98-1.1-2.42-3.28-3.97-5.22,2.56,.17,4.59,.4,6.37,1.65Z"/><path class="cls-1" d="M84.14,143.12c.46,4,1.84,7.89,1.45,11.99-.84-3.31-1.69-6.62-2.51-9.94-.23-.94-.14-1.8,1.05-2.05Z"/><path class="cls-1" d="M464.53,243.06c.37-1.84-1.36-3.6-.13-5.5,.69-1.06,1.35-2.06,2.76-2.16-.21,2.78-1.22,5.29-2.63,7.65Z"/><path class="cls-1" d="M427.72,246.43c-3.36,1.5-6.6-.56-9.94-.34-.98,.06-.86-1.12-.94-1.89,3.48,1.45,7.12,2.13,10.87,2.23Z"/><path class="cls-1" d="M722.17,182.61c-3.67-1.75-2.47-5.4-3.25-8.28,1.65,2.54,2.38,5.44,3.25,8.28Z"/><path class="cls-1" d="M851.58,175.8c-1.78-3.05-.33-6.39-.84-9.55,2.02,3.03,.88,6.34,.84,9.55Z"/><path class="cls-1" d="M405.27,258.47c3.01,0,5.48,1.21,7.51,3.37-2.76-.55-5.25-1.71-7.51-3.37Z"/><path class="cls-1" d="M397.11,251.69c2.52,.56,4.7,1.47,4.86,4.54-2.03-1.08-3.61-2.63-4.86-4.54Z"/><path class="cls-1" d="M680.55,248.93c-.61-2.59-.99-5.09,2.51-5.96-.84,1.99-1.67,3.98-2.51,5.96Z"/><path class="cls-1" d="M148.21,136.46c-2.02,1.17-4.05,1.09-6.1,.07,2.02-.78,4.06-.58,6.1-.07Z"/><path class="cls-1" d="M338.61,164.5c-3.84,.74-7.68,.89-11.51-.1,3.84-.33,7.68-.5,11.51,.1Z"/><path class="cls-1" d="M521.58,164.43c-3.83,.91-7.67,.84-11.51,.04,3.84-.59,7.67-.38,11.51-.04Z"/><path class="cls-1" d="M447.24,236.56c.67,2.48-.06,4.02-2.83,4.19,.94-1.4,1.89-2.8,2.83-4.19Z"/><path class="cls-1" d="M402.1,256.33c1.37,.25,2.91,.26,3.17,2.14-1.23-.46-2.39-1.01-3.17-2.14Z"/><path class="cls-1" d="M415.59,243.47c-1.62,.19-3.07,.16-2.75-2.13,.92,.71,1.83,1.42,2.75,2.13Z"/><path class="cls-1" d="M88.99,137.77c0,1.53-.83,2.15-2.29,2.07,.61-.86,1.23-1.7,2.29-2.07Z"/><path class="cls-1" d="M175.72,116.8c-1.29-.26-3.12,1.01-3.71-1.28,1.27,.32,2.62,.44,3.71,1.28Z"/><path class="cls-1" d="M718.23,172.39c-1.42-.56-1.64-1.58-1.15-2.89,.38,.96,.76,1.93,1.15,2.89Z"/><path class="cls-1" d="M136.53,118.04c.17,.58,.92,1.16,.4,1.73-.57,.62-.85-.12-1.14-.53,.02-.54,.24-.95,.74-1.19Z"/><path class="cls-1" d="M84.31,175.81c-.68-.03-1.23-.25-1.5-.93,.33-.47,.82-.84,1.31-.51,.44,.3,.44,.92,.19,1.44Z"/><path class="cls-1" d="M85.6,141.2c.05,1.07,.11,2.15-1.5,1.96,.08-.97,.64-1.58,1.5-1.96Z"/><path class="cls-1" d="M317.38,261.9c1.01,.06,2.17-.48,2.88,.75-1.01-.07-2.06,.03-2.88-.75Z"/><path class="cls-1" d="M723.96,186.59c-1.19-.3-1.03-1.22-.96-2.09,.72,.52,.7,1.37,.96,2.09Z"/><path class="cls-1" d="M723.05,184.57c-.95-.35-.79-1.2-.85-1.94,.86,.39,.74,1.21,.85,1.94Z"/><path class="cls-1" d="M718.98,174.41c-1.01-.4-.8-1.27-.79-2.06,.72,.51,.67,1.32,.79,2.06Z"/><path class="cls-1" d="M81.53,175.7c-.19,.59-.67,.76-1.23,.81,.2-.59,.69-.72,1.23-.81Z"/><path class="cls-1" d="M205.37,258.65c.2-.7,.75-.85,1.39-.86-.46,.29-.92,.57-1.39,.86Z"/><path class="cls-1" d="M204.66,159.55c.58,.03,1.09,.17,1.34,.77-.58-.02-1.11-.14-1.34-.77Z"/><path class="cls-1" d="M396.48,250.99c.21,.24,.43,.47,.64,.71-.42-.05-.64-.28-.64-.71Z"/><path class="cls-1" d="M187.61,250.03c-.23,.32-.46,.63-.69,.95,.23-.32,.46-.63,.69-.95Z"/><path class="cls-1" d="M93.72,225.96c.24,.27,.48,.54,.72,.81-.24-.27-.48-.54-.72-.81Z"/><path class="cls-1" d="M94.01,160.28c-.26,.24-.53,.47-.79,.71,0,0-.11-.11-.11-.11,.21-.21,.42-.42,.62-.63l.28,.04Z"/><path class="cls-1" d="M91.01,257.12c.25,.23,.5,.46,.75,.69-.25-.23-.5-.46-.75-.69Z"/><path class="cls-1" d="M86.28,140.38c-.23,.29-.46,.57-.7,.86,.23-.29,.46-.57,.7-.86Z"/><path class="cls-1" d="M133.26,114.18c.04-.06,.09-.12,.13-.18-.06,.05-.11,.1-.17,.15,0,0,.04,.04,.04,.04Z"/><path class="cls-1" d="M89.7,137.1c-.25,.25-.5,.5-.74,.75,.25-.25,.5-.5,.74-.75Z"/><path class="cls-1" d="M90.37,137.19c-.24-.02-.49-.03-.73-.05,.22-.24,.44-.48,.67-.73,0,0,.11,.11,.11,.11,0,.22-.02,.44-.05,.66Z"/><path class="cls-1" d="M176.41,136.46c-.32-.24-.64-.48-.97-.71,.32,.24,.64,.48,.97,.71Z"/><path class="cls-1" d="M90.3,136.41c.24-.21,.49-.42,.73-.63l.06,.06c-.23,.23-.45,.45-.68,.68l-.11-.11Z"/><path class="cls-1" d="M1029.12,168.42c-.25-.31-.49-.62-.74-.93,.25,.31,.49,.62,.74,.93Z"/><path class="cls-1" d="M345.45,262.44c.17-.33,.38-.39,.65-.09-.21,.03-.43,.06-.65,.09Z"/><path class="cls-1" d="M91.04,135.79c.24-.26,.48-.52,.73-.79,0,0-.04,.25-.04,.25-.21,.2-.42,.4-.63,.6l-.06-.06Z"/><path class="cls-1" d="M416.57,244.1c-.34-.22-.69-.44-1.03-.66,.34,.22,.69,.44,1.03,.66Z"/><path class="cls-1" d="M169.21,118.94c.23,.31,.47,.62,.7,.92-.23-.31-.47-.62-.7-.92Z"/><path class="cls-1" d="M116.15,273.37c.24,.17,.49,.34,.73,.51-.24-.17-.49-.34-.73-.51Z"/><path class="cls-1" d="M690.26,226.05c9.52,0,19.05,0,28.57,0-.13,.59,.11,1.84-.69,1.57-6.94-2.37-14.04-.39-21.04-.94-1.01-.08-2.07,.87-3.15,1.03-1.49,.21-3.56,1.26-3.69-1.67Z"/><path class="cls-1" d="M221.25,234.55c.08,.03,.23,.06,.23,.09,0,.09-.05,.19-.09,.28-.08-.03-.23-.06-.23-.09,0-.09,.05-.19,.09-.28Z"/><path class="cls-1" d="M208.54,162.39c.13-.11,.27-.22,.4-.32-.1,.14-.21,.27-.31,.41,0,0-.09-.09-.09-.09Z"/><path class="cls-1" d="M218.27,214.42c-.05,.1-.1,.19-.16,.29,.05-.1,.1-.19,.15-.29,0,0,0,0,0,0Z"/><path class="cls-1" d="M91.09,135.85c.21-.2,.42-.4,.63-.6,.99,0,1.29,.56,1.41,1.48,.75,5.52,.33,11.08-.29,16.51-.3,2.64,1.93,4.56,.89,7.01-.21,.21-.42,.42-.62,.63-2.65-.32-3.39-1.45-2.85-4.29,.66-3.51-.74-7.09-.65-10.73,.06-2.36-.01-4.52,1.4-6.54,.55-.79,1.22-1.91-.64-2.13,.02-.22,.04-.44,.05-.66,.23-.23,.45-.45,.68-.68Z"/><path class="cls-1" d="M118.61,128.01c-.35,.1-.73,.29-1.11,.29-.41,0-1.02-.09-.81-.7,.09-.26,.67-.45,1.05-.49,.41-.04,.89,.09,.88,.9Z"/><path class="cls-1" d="M125.26,121.88c-.5,.66-1.22,1.22-1.71,.68-.67-.73,.25-.84,.76-.9,.28-.03,.59,.13,.95,.21Z"/><path class="cls-1" d="M121.01,128.39c.09,.05,.19,.1,.28,.16-.09-.05-.19-.1-.28-.15,0,0,0,0,0,0Z"/><path class="cls-1" d="M157.7,254.54c-1.59,.63-3.02,1.43-4.65,1.19-.72-.1-1.37-.28-1.24-1.19,.11-.71,.73-.87,1.28-.8,1.54,.21,3.07,.52,4.6,.79Z"/><path class="cls-1" d="M140.74,255.06h2.21c-.99,1.06-1.61,.62-2.22,0,0,0,0,0,0,0Z"/><path class="cls-1" d="M129.39,142.7c-.4,.51-.82,.73-1.31,.11,.44-.04,.87-.07,1.31-.11Z"/><path class="cls-1" d="M174.04,144.74c-.54-.09-1.18,.06-1.43-.65,.62-.1,1.16-.02,1.43,.65Z"/><path class="cls-1" d="M175.4,145.39c-.55-.07-1.12-.1-1.42-.69,.6-.03,1.14,.06,1.42,.69Z"/><path class="cls-1" d="M176.07,145.88c-.24-.18-.47-.35-.71-.53,.24,.18,.47,.35,.71,.53Z"/><path class="cls-1" d="M154.3,139.79c-.79,.13-1.6,.34-2.23-.39,.79-.13,1.59-.32,2.23,.39Z"/><path class="cls-1" d="M119.03,147.38c-.24,.18-.47,.37-.71,.55,.24-.18,.47-.37,.71-.55Z"/></g></g></svg>