<?xml version="1.0" encoding="UTF-8"?><svg id="Capa_1" xmlns="http://www.w3.org/2000/svg" viewBox="0 0 1041 400"><defs><style>.cls-1{fill:#fff;}</style></defs><g id="HWHdLn.tif"><g><path class="cls-1" d="M348.04,270.28c-5.13,0-10.27,.01-15.4,0-3.26,0-4.82-1.35-5.03-4.61-.81-12.61-3.5-24.79-9.03-36.17-15.23-31.36-40.07-50.51-74.36-56.88-43.92-8.16-88.08,13.99-108.2,53.83-6.22,12.32-9.57,25.41-10.42,39.16-.2,3.13-1.83,4.67-5,4.67-10.32,.01-20.65,.01-30.97,0-3.4,0-5.21-1.89-5.03-5.3,1.61-31.47,12.31-59.47,32.6-83.62,20.82-24.78,47.24-40.55,78.83-47.57,16.69-3.71,33.56-4.2,50.51-1.87,55.33,7.63,100.91,46.76,116.64,100.19,3.19,10.84,4.9,21.92,5.44,33.18,.15,3.07-1.7,4.96-4.84,4.98-5.24,.03-10.49,0-15.73,0Z"/><path class="cls-1" d="M474.92,239c.82-3.12,1.65-6.24,2.45-9.36,6.78-26.39,13.57-52.78,20.29-79.19,.4-1.58,1.04-2.11,2.67-2.11,11.43,.06,22.86,.03,34.29,.03,2.51,0,2.64,.09,2.81,2.52,.88,12.76,1.73,25.52,2.6,38.28,.95,13.86,1.91,27.72,2.85,41.57,.72,10.61,1.41,21.23,2.11,31.85,.11,1.7,.22,3.41,.34,5.12,.07,1.05-.44,1.53-1.47,1.53-7.51,0-15.02,0-22.53,0-1.27,0-1.53-.74-1.58-1.82-.27-6.44-.59-12.89-.88-19.33-.75-16.91-1.49-33.82-2.22-50.73-.37-8.59-.74-17.19-1.1-25.78-.02-.58-.05-1.17-.37-1.82-.2,.59-.44,1.17-.6,1.76-8.76,31.84-17.53,63.69-26.23,95.55-.49,1.78-1.24,2.33-3.05,2.31-8.23-.09-16.45-.09-24.68,0-1.67,.02-2.3-.61-2.7-2.13-8.48-32.04-17-64.06-25.51-96.09-.12-.47-.27-.93-.71-1.4-.11,1.31-.23,2.63-.31,3.94-.98,16.45-1.96,32.91-2.93,49.36-.71,12.11-1.4,24.22-2.1,36.32-.16,2.7-.38,5.39-.51,8.09-.06,1.35-.71,1.79-2,1.79-6.13-.04-12.26-.06-18.38,.01-1.56,.02-2.05-.53-1.95-2.03,.54-7.7,1.01-15.4,1.53-23.1,.61-9.02,1.24-18.04,1.85-27.06,.74-10.89,1.49-21.78,2.22-32.67,.71-10.61,1.41-21.23,2.11-31.85,.33-4.97,.14-4.17,4.39-4.18,11.37-.04,22.75,.02,34.12-.05,1.7,0,2.4,.57,2.81,2.21,7.16,29.02,14.37,58.03,21.58,87.04,.12,.48,.29,.94,.43,1.41,.13,0,.26,0,.39,0Z"/><path class="cls-1" d="M297.94,270.49c-4.97,0-9.94,0-14.9,0-3.87,0-5.27-1.24-5.76-5.04-2.86-22.43-19.13-39.67-41.29-43.75-27.82-5.12-54.3,13.07-59.32,40.78-.21,1.14-.31,2.29-.45,3.44-.36,2.93-1.98,4.54-4.9,4.55-10.54,.04-21.09,.05-31.63,0-3.32-.02-5-1.8-4.79-5.14,1-16.14,5.98-31,15.09-44.35,13.71-20.08,32.47-33.09,56.23-38.44,51.86-11.68,101.46,22.08,110.85,71.95,.66,3.51,1.02,7.08,1.36,10.64,.33,3.46-1.43,5.32-4.92,5.35-5.19,.04-10.38,.01-15.57,.01Z"/><path class="cls-1" d="M615.48,213.04c-.17-4.32,.3-8.55-1.82-12.4-1.5-2.73-4.14-3.87-7.01-4.51-6.65-1.48-13.41-1.35-20.11-.77-7.24,.62-14.43,1.81-21.64,2.77-1.64,.22-1.96,.01-1.97-1.67-.01-5.07,.02-10.15-.02-15.22,0-1.14,.41-1.72,1.54-1.93,16.88-3.01,33.84-4.29,50.89-1.88,3.93,.56,7.88,1.78,11.52,3.39,9.81,4.33,14.37,12.4,15.16,22.82,.1,1.26,.09,2.54,.09,3.8,0,19.69-.01,39.37,.03,59.06,0,1.71-.45,2.36-2.27,2.55-15.55,1.67-31.12,2.73-46.77,1.8-7.68-.46-15.28-1.34-22.33-4.77-7.95-3.88-12.21-10.38-13.45-18.98-.64-4.45-.67-8.91,.4-13.31,1.97-8.1,7.42-13.04,14.86-16.1,5.77-2.37,11.84-3.56,18.02-3.91,7.6-.44,15.22-.51,22.83-.74,.6-.02,1.19,0,2.05,0Zm0,28.62c0-3.03-.07-6.06,.03-9.08,.05-1.43-.37-1.97-1.82-1.95-6.17,.12-12.35-.03-18.51,.3-7.18,.39-10.34,3.75-10.67,10.66-.26,5.56,1.87,9.19,6.4,10.7,1.14,.38,2.34,.66,3.53,.79,6.61,.73,13.2,.4,19.79-.33,1.01-.11,1.27-.58,1.26-1.51-.04-3.19-.01-6.39-.01-9.58Z"/><path class="cls-1" d="M854.5,271.34c-8.75-.3-17.18-1.74-25.06-5.61-10.9-5.36-18.06-13.96-21.47-25.55-3.34-11.34-3.34-22.78,.27-34.04,4.48-13.98,14.06-23.12,28.04-27.38,12.97-3.96,26.07-3.9,38.87,.72,15.2,5.49,24.07,16.64,27.19,32.32,2.25,11.34,1.61,22.54-3.42,33.14-6.54,13.78-17.71,21.79-32.47,24.9-3.92,.83-7.97,1.01-11.96,1.5Zm21.51-44.77c-.25-8.3-.46-13.96-2.34-19.41-2.18-6.3-6.39-10.42-13.04-11.52-3.12-.52-6.39-.63-9.55-.41-8.5,.61-13.84,5.05-16.2,13.23-2.11,7.31-2.08,14.82-1.46,22.3,.26,3.16,.89,6.34,1.81,9.37,1.96,6.5,6.35,10.69,13.12,11.81,3.28,.54,6.72,.66,10.04,.37,8.13-.7,13.6-5.09,15.56-13.03,1.23-4.99,1.66-10.17,2.05-12.72Z"/><path class="cls-1" d="M226.56,312.29c-23.01-.02-41.67-18.5-41.64-41.25,.03-22.69,18.79-41.13,41.82-41.1,22.88,.04,41.58,18.56,41.59,41.19,0,22.7-18.75,41.17-41.76,41.15Z"/><path class="cls-1" d="M709.19,270.91c-8.95,.18-17.74-.67-26.18-3.88-15.9-6.04-25.01-17.68-27.94-34.24-1.66-9.37-1.4-18.69,2.13-27.67,5.75-14.64,16.74-23.25,31.73-27.12,9.1-2.35,18.37-2.3,27.63-1.46,4.82,.43,9.6,1.35,14.4,1.98,1.24,.16,1.65,.72,1.64,1.94-.05,4.8,0,9.59-.03,14.39,0,1.72-.4,2.01-2.12,1.8-7.73-.96-15.5-1.69-23.27-.78-3.75,.44-7.54,1.17-11.12,2.34-7.03,2.3-11.43,7.32-13.15,14.5-1.66,6.91-1.66,13.89,0,20.8,2.24,9.3,8.65,14.25,17.65,16.27,8.45,1.89,16.99,1.59,25.53,.85,1.92-.17,3.84-.42,5.75-.64,1.03-.12,1.55,.29,1.55,1.38-.01,5.02-.02,10.03,0,15.05,0,1.34-.92,1.59-1.93,1.83-7.33,1.74-14.78,2.49-22.3,2.66Z"/><path class="cls-1" d="M770.54,185.26c1.44-.72,2.66-1.32,3.86-1.95,9.32-4.81,19.28-6.4,29.66-6,1.13,.04,1.61,.54,1.61,1.61,.03,6.29,.05,12.57,.09,18.86,.01,1.41-.84,1.58-1.96,1.6-4.52,.11-9.06,.12-13.57,.42-5.25,.35-10.37,1.4-15.16,3.74-1.34,.66-1.87,1.47-1.87,3.04,.06,20.02,.04,40.04,.04,60.05q0,2.71-2.78,2.71c-7.23,0-14.47,0-21.7,0-1.97,0-2.19-.21-2.2-2.18,0-29.01,0-58.01,0-87.02,0-2,.21-2.2,2.16-2.2,6.57,0,13.14,.03,19.71-.03,1.62-.02,2.17,.61,2.1,2.15-.08,1.64-.02,3.28-.02,5.19Z"/></g></g></svg>