<?xml version="1.0" encoding="UTF-8"?><svg id="Capa_1" xmlns="http://www.w3.org/2000/svg" viewBox="0 0 909 400"><defs><style>.cls-1{fill:#fff;}</style></defs><g id="sVqXJF.tif"><g><path class="cls-1" d="M527.17,183.47c.02-38,32.34-65.67,66.35-56.79,25.86,6.75,44.4,35.69,40.54,63.27-4.44,31.74-26.89,52.99-55.13,52.19-28.71-.82-51.77-26.96-51.76-58.67Zm29.51,.96c-.14,18.25,10.11,31.99,23.98,32.12,13.94,.13,24.59-13.55,24.59-31.58,0-17.73-11.09-32.18-24.54-31.97-13.28,.2-23.89,14.09-24.03,31.44Z"/><path class="cls-1" d="M514.91,161.47c-9.01-2.88-17.12-6.24-25.56-8.03-26.88-5.73-46.54,11.55-43.75,37.93,1.91,18.01,21.02,31.46,38.34,26.32,2.52-.75,5.07-5.45,5.41-8.57,.67-6.06-.47-12.3-.33-18.46,.05-2.14,1.08-5.44,2.63-6.18,9.26-4.43,26.26,2.11,26.9,13.94,1.88,35.07-11.02,48.52-46.33,45.96-47.7-3.45-71.77-47.9-48.15-89.63,10.56-18.65,28.9-25.41,48.83-27.8,7.86-.94,16.34-.29,24.03,1.66,15.46,3.92,21.75,16,17.99,32.87Z"/><path class="cls-1" d="M305.31,154.31c0,16.47-.32,31.66,.12,46.82,.25,8.59,6.26,12.83,14.2,12.9,6.65,.05,13.31-1.62,20.02-2.54,5.85,15.74-1.04,27.4-17.7,29.61-23.82,3.16-44.65-12.51-46.04-36.31-1.43-24.55-1.67-49.21-1.36-73.8,.21-16.29,13.18-27.9,28.9-26.92v23.75h36.09c5.57,16.05-.17,24.65-15.84,25.31-6.13,.26-12.24,.79-18.4,1.2Z"/><path class="cls-1" d="M592.08,259.6c3.16,18.88,3.87,34.19-13.72,46.41-24.36,16.93-49.11,29.31-79.57,21.88-23.15-5.64-41.16-19.93-53.88-39.08-4.35-6.55-.69-18.42-.69-30.52,49.77,48.34,98.64,48.76,147.86,1.31Z"/><path class="cls-1" d="M408.93,216.01c3.98,17.31-3.23,25.88-19.74,24.18-18.52-1.91-29.41-13.62-29.56-32.11-.18-23-.21-46-.25-69.01,0-2.51,.33-5.02,.49-7.36,18.09-3.83,27.06,2.17,28.01,19.51,.78,14.19,1,28.51,0,42.67-1.25,17.75,2.7,21.48,21.05,22.11Z"/><path class="cls-1" d="M629.79,114.72c-31.6-29.2-63.07-28.97-94.42,.86-4.03-11.27-2.45-19.13,5.71-27.16,29.88-29.41,63.75-20.56,87.4,4.11,4.08,4.26,2.87,13.6,4.1,20.59-.93,.53-1.86,1.06-2.79,1.59Z"/><path class="cls-1" d="M374.12,89.66c9.31,.25,17.16,7.79,17.18,16.51,.02,8.97-8.64,16.89-18.17,16.6-9.13-.27-17.24-8.09-17.23-16.62,0-9,8.56-16.74,18.22-16.49Z"/></g></g></svg>