<svg id="Capa_1" data-name="Capa 1" xmlns="http://www.w3.org/2000/svg" viewBox="0 0 1080 331"><defs><style>.cls-1{fill:#fff;}</style></defs><g id="KNBA46"><path class="cls-1" d="M646.69,154v3.13q.07,34.86.16,69.72c0,2.74-.12,2.85-2.85,2.85-8.71,0-17.42-.06-26.13,0-1.8,0-2.27-.51-2.27-2.32q.09-61.54,0-123.09c0-3.08,0-3.09,3.1-3.1,7.89,0,15.79,0,23.68,0a4.79,4.79,0,0,1,4.3,2.11q26,35.07,52,70.11a8.21,8.21,0,0,0,2.56,2.47V172.8L701,104.41c0-3,.23-3.22,3.18-3.22h25.38c2.48,0,2.8.32,2.8,2.82q0,61.45,0,122.9c0,2.55-.27,2.8-2.79,2.8-8.09,0-16.17,0-24.25,0a4.27,4.27,0,0,1-3.8-1.92q-24.9-34-49.85-68c-1.47-2-3-4-4.45-6Z"/><path class="cls-1" d="M439.08,160.41a41.2,41.2,0,0,1,11.7,7.29c7.87,7.09,10.88,16.1,10.49,26.46-.65,17.16-13.47,30.93-31.93,34.08a127.25,127.25,0,0,1-21.53,1.45l-46.25,0c-3,0-3.19-.2-3.19-3.18q0-61.08,0-122.16c0-3,.19-3.16,3.22-3.16l52.64.06c7.52,0,15,.77,21.65,4.48,11.65,6.47,18.95,16,18.71,29.81-.17,10.06-4.73,18-13.32,23.44C440.59,159.43,439.92,159.87,439.08,160.41Zm-49.35,29.23h0c0,4.14,0,8.27,0,12.4,0,1.18.29,1.72,1.55,1.7,8-.11,15.92.39,23.87-.3a14.49,14.49,0,0,0,13.49-14.31c-.08-7.41-6-13.38-13.78-14-7.51-.58-15-.18-22.55-.33-2.22-.05-2.59.36-2.6,2.62Zm.07-50.71h0c0,3.44,0,6.89,0,10.33,0,1.41.46,2,2,2,5.76-.08,11.52,0,17.29-.1a17.27,17.27,0,0,0,8.43-2.28,10.36,10.36,0,0,0,5.64-9.13c.18-6.31-4.29-11.34-11.13-12.25s-13.51-.15-20.27-.41c-1.53-.06-1.92.47-1.89,1.88C389.85,132.29,389.8,135.61,389.8,138.93Z"/><path class="cls-1" d="M780,149a5.34,5.34,0,0,0,2.22-1.72q21.69-21.89,43.35-43.81a7.21,7.21,0,0,1,5.64-2.31c10.65.09,21.3,0,32,0a3.82,3.82,0,0,1,2.12.25,13.29,13.29,0,0,1-2.57,2.9Q838,129.12,813.35,153.84c-1.9,1.9-1.89,2.18-.23,4.41q25.53,34.37,51,68.75a7.27,7.27,0,0,1,1.5,2.35,5.45,5.45,0,0,1-2.6.34c-10.15,0-20.3,0-30.45.06a5,5,0,0,1-4.55-2.32Q810.4,203,792.65,178.65c-1.81-2.49-1.81-2.5-3.95-.2a62.4,62.4,0,0,1-5.62,5.53,8.37,8.37,0,0,0-3.13,7.27c.6,12.15.09,24.3.3,36.45,0,1.61-.52,2-2,2q-13.35-.06-26.7,0c-1.95,0-2.26-1-2.25-2.63q0-13.33,0-26.68,0-48.3,0-96.6c0-2.76-.41-2.53,2.48-2.53,8.77,0,17.55,0,26.32,0,1.51,0,1.83.44,1.82,1.88,0,14.72,0,29.44,0,44.16Z"/><path class="cls-1" d="M585,229.71c-4.83,0-9.65-.06-14.48,0A3,3,0,0,1,567,227.4c-1.78-5.2-3.78-10.32-5.61-15.51a3.18,3.18,0,0,0-3.45-2.44q-23.22.08-46.43,0A3.26,3.26,0,0,0,508,212c-1.85,5.31-3.9,10.56-5.78,15.86a2.5,2.5,0,0,1-2.76,1.91c-9.77-.05-19.55,0-29.32-.05-2.45,0-2.46,0-1.51-2.37q24.13-59.41,48.26-118.83c.73-1.8,1.46-3.59,2.13-5.41a2.78,2.78,0,0,1,3-1.91q12.6.06,25.19,0a3.07,3.07,0,0,1,3.27,2.19q5,12.53,10.13,25Q580,176,599.3,223.57c.62,1.5,1.17,3,1.82,4.52.53,1.22.29,1.65-1.12,1.63-5-.07-10,0-15,0Zm-34.82-47.44C545,168.05,540,154,534.72,139.37l-15.45,42.9Z"/><path class="cls-1" d="M280.74,139.12a50.92,50.92,0,0,0-2.81,7.16q-5.87,16.11-11.63,32.27a7.4,7.4,0,0,1-3.65,4.27,171.61,171.61,0,0,0-41.54,31.29,2.42,2.42,0,0,1-1.47,1,15.3,15.3,0,0,1,1.37-3.83q21.88-53.76,43.78-107.5a3.73,3.73,0,0,1,4-2.61c8.09.07,16.17.09,24.25,0a3.38,3.38,0,0,1,3.64,2.48q22.21,54.74,44.47,109.46c2,5,4,10,6.08,14.93.52,1.23.38,1.68-1,1.67q-15.13,0-30.27,0c-1.7,0-2.36-1.07-2.87-2.45q-6.24-17.19-12.53-34.35-9.32-25.53-18.65-51.06C281.58,141,281.18,140.16,280.74,139.12Z"/><path class="cls-1" d="M292.41,176.87a109.87,109.87,0,0,0-16.07,14c-9.73,10.2-17.87,21.62-25.31,33.52-2.51,4-5.2,5.73-10,5.44-8.18-.48-16.41-.19-24.62-.23l-.94,0c-1.34,0-1.35-.56-.58-1.43,2.55-2.85,5-5.75,7.65-8.53,13.44-14.34,28.71-26.25,46.53-34.73a140.17,140.17,0,0,1,21-8c.6-.17,1.21-.28,1.82-.4C292,176.47,292.07,176.61,292.41,176.87Z"/></g></svg>