<svg id="Capa_1" data-name="Capa 1" xmlns="http://www.w3.org/2000/svg" viewBox="0 0 1080 331"><defs><style>.cls-1{fill:#fff;}</style></defs><g id="lN0aLd.tif"><path class="cls-1" d="M205.47,223.72c4.55,0,9.09,0,13.64,0a4.22,4.22,0,0,1,2.3.3l-13.48,0c-2.23,0-2.1-.14-2.1,2.1v49.51l-.36,0Z"/><path class="cls-1" d="M439.28,53.94c0,.11,0,.21-.07.32l-7,0a1.5,1.5,0,0,0-.06-.29Z"/><path class="cls-1" d="M368,277.06v-.28a45.16,45.16,0,0,0,5.07-.11l.34.14v.25Z"/><path class="cls-1" d="M419,276.76v.3h-5.4c0-.1,0-.2,0-.3Z"/><path class="cls-1" d="M726.48,277.06v-.3h5.41c0,.1,0,.2,0,.3Z"/><path class="cls-1" d="M611.45,55.69a2.43,2.43,0,0,1,2.22,1.72c1,2.51,2,5,3,7.52l48.54,125c.25.65.84,1.35.27,2s-1.44.2-2.2.1c-4.38-.55-6.77-3.16-8.52-7.13q-26.84-61.11-53.91-122.1c-1-2.33-1-2.3,1.3-3.26,2.59-1.09,5.15-2.24,7.72-3.37A4.79,4.79,0,0,1,611.45,55.69Z"/><path class="cls-1" d="M591.49,63.2a2.38,2.38,0,0,1,2.18,1.45l1.87,4q27.63,58.65,55.23,117.29a8.47,8.47,0,0,1,.56,1.23c.3.93-.26,1.63-1.2,1.41-4.3-1-8.06-2.68-10.14-7-2-4.15-4.26-8.17-6.4-12.25l-53-100.92c-1.32-2.51-1.28-2.64,1.56-3.15s5.41-1.06,8.07-1.76C590.68,63.34,591.12,63.27,591.49,63.2Z"/><path class="cls-1" d="M564.93,67c1.63-.08,3.27-.09,4.89-.24a2.78,2.78,0,0,1,3,1.67c3.65,6.65,7.35,13.28,11,19.91L635,180.63a12.16,12.16,0,0,1,.71,1.33c.37.9-.23,1.68-1.14,1.39-4.34-1.41-8.43-2.87-11.08-7.25Q591.38,123,559,70c-.24-.38-.49-.75-.7-1.15-.56-1.11-.22-1.7,1.05-1.75,1.52-.06,3-.06,4.56-.09.34,0,.68,0,1,0Z"/><path class="cls-1" d="M536.54,66.19c3.48.2,7,.39,10.44.62a4.72,4.72,0,0,1,3.79,2.49c2.51,4,5.06,8,7.59,12l58.84,92.3c.3.47.6.95.88,1.43a1,1,0,0,1,0,1.24,1.07,1.07,0,0,1-1.24.24,6.33,6.33,0,0,1-.94-.37l-4.81-2a13.94,13.94,0,0,1-6.05-5L535.68,68.78c-.13-.19-.26-.37-.38-.56-.32-.47-.68-1-.39-1.55S535.93,66.12,536.54,66.19Z"/><path class="cls-1" d="M511.67,63.74c3.81.4,7.27.81,10.75,1.12a6.18,6.18,0,0,1,4.71,2.87c4.18,5.86,8.41,11.68,12.62,17.52q28.68,39.82,57.37,79.66c.33.46.66.91,1,1.39a1,1,0,0,1-.07,1.11,1,1,0,0,1-1.07.3,4.32,4.32,0,0,1-.63-.24c-2.66-1.21-5.33-2.39-8-3.64a14.61,14.61,0,0,1-5.13-4.54q-12.63-16.35-25.31-32.67L511.34,66.43l-.42-.53c-.36-.49-.9-.94-.55-1.64A1.12,1.12,0,0,1,511.67,63.74Z"/><path class="cls-1" d="M486.13,60.32l8.53,1.21c1,.14,2,.34,3,.44a5.72,5.72,0,0,1,4.1,2.38q6,7.59,12.14,15.14,30,37.38,60.05,74.74c.39.48.77,1,1.15,1.45a1,1,0,0,1,.13,1.24,1,1,0,0,1-1.35.33c-.32-.11-.62-.25-.93-.39-2.57-1.15-5.11-2.33-7.7-3.43a16.1,16.1,0,0,1-6-4.54Q543,129.92,526.71,111q-20.6-24-41.17-48.09c-.18-.21-.36-.43-.55-.64a1.25,1.25,0,0,1-.37-1.51C484.92,60.18,485.46,60.28,486.13,60.32Z"/><path class="cls-1" d="M458.72,56l9.5,1.49c.72.12,1.43.32,2.15.39a8.1,8.1,0,0,1,5.43,3q17.59,19.94,35.25,39.82l37.86,42.68a14.47,14.47,0,0,1,1.08,1.29,1,1,0,0,1,0,1.12.93.93,0,0,1-1.06.33,11.15,11.15,0,0,1-1.26-.46c-2.69-1.14-5.37-2.32-8.07-3.44A21.14,21.14,0,0,1,532.2,137Q521.64,125.78,511,114.55L458.77,59c-.35-.37-.7-.74-1-1.12s-.65-.8-.34-1.36S458.19,55.93,458.72,56Z"/><path class="cls-1" d="M432.25,54.23l7,0c1.4.07,2.8.18,4.21.22a7.65,7.65,0,0,1,5.46,2.63c4.2,4.38,8.45,8.73,12.68,13.08q20.87,21.5,41.72,43,9.12,9.39,18.19,18.8c.27.28.55.57.8.86a1,1,0,0,1,.15,1.37,1,1,0,0,1-1.36.28c-.31-.13-.62-.27-.93-.39-3.13-1.27-6.23-2.58-9.37-3.8a20.57,20.57,0,0,1-7-4.55L461,84,432.88,56.52a7.31,7.31,0,0,1-.83-.84A.91.91,0,0,1,432.25,54.23Z"/><path class="cls-1" d="M417.74,54.27c.85,0,1.69,0,2.53,0a6.92,6.92,0,0,1,4.42,2.21q11.54,11,23.11,22l43.45,41.25q.74.69,1.44,1.41a1,1,0,0,1,.2,1.24,1,1,0,0,1-1.17.43,8.16,8.16,0,0,1-1-.32l-10.89-4.06a19.62,19.62,0,0,1-6.42-4Q442,86.06,410.59,57.67c-.25-.23-.49-.46-.75-.68-.44-.38-.83-.78-.68-1.43s.8-.75,1.34-.8c1.91-.17,3.82-.3,5.72-.43.51,0,1,0,1.52,0Z"/><path class="cls-1" d="M330.06,265.68V226c0-.45,0-.9,0-1.35,0-.67.31-.88.93-.87q1.61,0,3.21,0c.68,0,.89.34.88.94,0,.39,0,.78,0,1.18V273c0,.4,0,.79,0,1.18a.79.79,0,0,1-.78.91.51.51,0,0,0-.17,0c-3,.9-3,.89-4.83-1.73L301.78,233.7a3,3,0,0,0-1.07-1v1.76q0,19.41.05,38.81v1.18c0,1.26,0,1.27-1.34,1.29-.9,0-1.81,0-2.71,0-.69,0-1.07-.21-1-1,0-.34,0-.67,0-1V226.7a7.85,7.85,0,0,0,0-.84c-.1-.78.26-1.1,1-1.21a16.79,16.79,0,0,0,2.79-.63,1.48,1.48,0,0,1,1.94.74c1.67,2.54,3.44,5,5.17,7.51q11,16,22.08,31.92A4,4,0,0,0,330.06,265.68Z"/><path class="cls-1" d="M419,276.76H413.6a33.31,33.31,0,0,1-6.63-1.85,21.6,21.6,0,0,1-11.5-12c-3.79-9.51-3.66-19,1-28.21,4.37-8.54,13.26-12.82,22.63-11.75,9,1,15.15,6,18.44,14.29a32.34,32.34,0,0,1-.56,26.21,21.5,21.5,0,0,1-16.86,13C419.77,276.55,419.39,276.67,419,276.76Zm-20.66-27.21a27.07,27.07,0,0,0,3.1,13.49,16.82,16.82,0,0,0,19.49,8.44c5.65-1.5,9.28-5.27,11.53-10.51a25.86,25.86,0,0,0,1.93-8.17,28.26,28.26,0,0,0-3.21-16.63A16.84,16.84,0,0,0,412.32,228a16.47,16.47,0,0,0-10.87,8.41A26.17,26.17,0,0,0,398.35,249.55Z"/><path class="cls-1" d="M731.89,276.76h-5.41c-.88-.18-1.77-.35-2.64-.55a21.33,21.33,0,0,1-15.49-13.31c-3.86-9.49-3.66-19,1-28.21,4.38-8.56,13.29-12.82,22.63-11.75,9,1,15.14,6,18.45,14.29a32.34,32.34,0,0,1-.57,26.21,21.5,21.5,0,0,1-16.86,13C732.64,276.54,732.27,276.67,731.89,276.76Zm15.51-25.4c0-6.76-1.12-11.37-3.4-15.31A16.85,16.85,0,0,0,725.23,228,16.53,16.53,0,0,0,714,237c-2.7,5.23-3.18,10.84-2.6,16.59a24.92,24.92,0,0,0,3,9.6,16.82,16.82,0,0,0,19.4,8.33c5.72-1.51,9.37-5.33,11.61-10.65A27,27,0,0,0,747.4,251.36Z"/><path class="cls-1" d="M205.83,275.66V226.15c0-2.24-.13-2.1,2.1-2.1l13.48,0c3.89.32,7.39,1.53,10,4.64a12.48,12.48,0,0,1-3,18.37c-.56.36-1.15.69-1.89,1.13.83.34,1.53.59,2.21.89,3.66,1.66,6.46,4.13,7.32,8.23,1.46,7-.91,14.47-9.58,17.31a19.64,19.64,0,0,1-5.28,1.05C216.06,275.84,210.94,275.82,205.83,275.66Zm5.31-14.72c0,3,0,5.95,0,8.92,0,1.36,0,1.37,1.43,1.38,2.07,0,4.15.05,6.23,0a17.21,17.21,0,0,0,6.57-1.29c3.09-1.36,5.18-3.6,5.63-7,.73-5.45-1.2-9.55-6.66-11.3a19.42,19.42,0,0,0-2.61-.62c-3.25-.53-6.51-.16-9.76-.28-.87,0-.84.54-.83,1.12Zm0-23.58c0,2.59,0,5.17,0,7.76,0,1.24,0,1.28,1.17,1.28,2.31,0,4.62,0,6.93,0a11.4,11.4,0,0,0,3.94-.84,9,9,0,0,0,5.59-9.61c-.36-3.78-2.84-6.34-7-7.17-3.3-.66-6.63-.24-9.94-.34-.75,0-.74.51-.74,1Z"/><path class="cls-1" d="M398,56.3a7.55,7.55,0,0,1,5.28,2.1q8.46,7.5,17,15l40,35.26,1.52,1.34a1,1,0,0,1,.3,1.36c-.29.53-.81.54-1.33.39l-1-.31-9.16-2.9a26.53,26.53,0,0,1-9.11-5Q415.79,81.84,390,60.15a8.3,8.3,0,0,1-.64-.54c-.77-.82-.61-1.68.45-1.89C392.64,57.16,395.45,56.57,398,56.3Z"/><path class="cls-1" d="M471.29,249.66V226c0-.34,0-.67,0-1,0-1.23,0-1.26,1.21-1.26,4.89,0,9.79-.08,14.69,0a29.7,29.7,0,0,1,10.67,2.2A22.05,22.05,0,0,1,511,240.05a30,30,0,0,1,.12,18.9c-2.85,8.89-9.2,14-18.16,16.05a30.71,30.71,0,0,1-7,.75H473c-1.74,0-1.67.12-1.67-1.63Zm5.19,0V257c0,4.28,0,8.55,0,12.83,0,.84.23,1.25,1.14,1.19s1.8,0,2.7,0c3.48-.06,7,.2,10.45-.4,7.57-1.29,12.94-5.26,15.25-12.78a28.89,28.89,0,0,0,.94-11.34c-1-10-7.64-16.77-17.6-17.8-3-.31-6-.22-8.94-.26-1,0-2,0-3,0-.66,0-.92.27-.88.91,0,.39,0,.79,0,1.18Z"/><path class="cls-1" d="M797.79,274.65c-1.79.58-3.51.82-5.2,1.2-.72.16-.81-.46-1-.89-1.76-3.64-3.51-7.29-5.28-10.93-1.1-2.28-2.18-4.56-3.41-6.78a7.94,7.94,0,0,0-7.37-4.46c-1.37,0-1.4-.07-1.38-1.39,0-.94-.4-2.11.2-2.77s1.81-.24,2.74-.27a19.58,19.58,0,0,0,6.13-1.05,9.85,9.85,0,0,0,4.61-14.69,9,9,0,0,0-5-3.47,14.27,14.27,0,0,0-3.82-.63c-2.65-.07-5.29,0-7.94-.07-.82,0-1.13.3-1.07,1.08,0,.45,0,.9,0,1.35q0,21.44,0,42.86c0,2.25.15,2-2,2-1,0-2.35.49-3.07-.26s-.21-1.93-.21-2.93q0-23.3,0-46.57c0-2.54-.29-2.19,2.28-2.2q5.74,0,11.49,0a21.74,21.74,0,0,1,6.65,1c7.2,2.3,10.13,7.8,9.47,14.8-.55,5.76-3.78,9.59-9.12,11.7a3.14,3.14,0,0,0-1.28.59c.67.63,1.35,1.25,2,1.89a11.71,11.71,0,0,1,2.12,2.83q4.63,8.71,9.25,17.43C797.6,274.15,797.65,274.31,797.79,274.65Z"/><path class="cls-1" d="M241.81,275.65a6,6,0,0,1,.67-2.12q9.41-24,18.83-48c1-2.44.47-2,3-2.06q.93,0,1.86,0c1.17,0,1.26-.32,1.91,1.34q5.5,14,11.07,28.07,4.08,10.33,8.15,20.69a6.25,6.25,0,0,1,.64,2.05,26.54,26.54,0,0,1-5,.1c-.56,0-.63-.56-.78-1q-1.53-3.93-3.05-7.86c-.88-2.25-1.79-4.49-2.61-6.76a1.44,1.44,0,0,0-1.6-1.11c-6.81,0-13.62,0-20.43,0-1,0-1.33.5-1.63,1.3-1.78,4.73-3.62,9.44-5.38,14.18-.33.91-.74,1.39-1.79,1.29C244.4,275.64,243.1,275.86,241.81,275.65Zm23-45.68c-.49.25-.53.67-.66,1q-4.2,10.92-8.39,21.86a7.47,7.47,0,0,0-.29.79c-.11.41.07.64.49.67s.68,0,1,0h15.53c.34,0,.68,0,1,0s.63-.25.51-.66a11.39,11.39,0,0,0-.41-1.11q-2.56-6.59-5.13-13.19Q266.68,234.68,264.84,230Z"/><path class="cls-1" d="M668.59,275.75c-1.47,0-2.82-.07-4.16,0-1,.07-1.37-.37-1.69-1.21-1.77-4.68-3.61-9.33-5.4-14-.7-1.82-.68-1.53-2.3-1.54H635.63c-1.49,0-1.51-.27-2.17,1.48-1.74,4.63-3.52,9.24-5.29,13.86-.57,1.46-.28,1.38-2,1.39h-3.51c-.28-.64.09-1.07.25-1.51L642.21,225c.73-1.88.63-1.53,2.3-1.51,1.22,0,2.65-.48,3.61.27s1,2.08,1.42,3.18Q658.8,250.35,668,273.8A4.88,4.88,0,0,1,668.59,275.75Zm-23-45.62h-.4L636,254.2c3.28.35,17.65.21,18.93-.19Z"/><path class="cls-1" d="M523.21,249.7V226.26c0-.34,0-.68,0-1,0-1.46,0-1.47,1.49-1.48H549c1.4,0,1.4,0,1.42,1.36,0,.85,0,1.69,0,2.53,0,.58-.23.83-.8.81-.4,0-.79,0-1.19,0H529.21a.63.63,0,0,0-.72.71c0,.28,0,.56,0,.84,0,4.84,0,9.67,0,14.51,0,1.62,0,1.63,1.69,1.64h14c1.64,0,1.63,0,1.88,1.59.09.56.21,1.11.28,1.66.19,1.51.18,1.54-1.31,1.54-2.93,0-5.85,0-8.78,0h-6.42c-1.33,0-1.36,0-1.36,1.27q0,8.77,0,17.55c0,1.23,0,1.25,1.37,1.26h19.25c2.21,0,2-.24,2,1.95,0,2.75,0,2.75-2.74,2.75H525.27c-.39,0-.78,0-1.18,0-.66,0-.91-.28-.88-.91,0-.39,0-.79,0-1.18Z"/><path class="cls-1" d="M808.6,249.67V226.05a11.61,11.61,0,0,0,0-1.18c-.1-.92.36-1.12,1.19-1.12q12.4,0,24.82,0c1.21,0,1.23,0,1.25,1.21,0,.9,0,1.8,0,2.7,0,.58-.27.81-.82.8H815.46c-1.54,0-1.55,0-1.55,1.58q0,7.26,0,14.51c0,1.58,0,1.6,1.56,1.6h14.19c1.55,0,1.56,0,1.81,1.5.07.39.09.79.16,1.17C832,251,832,251,829.91,251H815.38c-1.45,0-1.47,0-1.47,1.49q0,8.52,0,17c0,1.51,0,1.52,1.61,1.53h20.26c.46,0,.78.15.79.66v3.38a.57.57,0,0,1-.61.64c-.39,0-.78,0-1.18,0H810.46c-.22,0-.45,0-.67,0-.82.08-1.31-.17-1.19-1.11a11.61,11.61,0,0,0,0-1.18Z"/><path class="cls-1" d="M379.65,60.34a7,7,0,0,1,4.77,1.81c5.65,4.65,11.32,9.26,17,13.9l29.87,24.54c.34.28.69.57,1,.89a1,1,0,0,1,.18,1.23.94.94,0,0,1-1,.47.47.47,0,0,1-.17,0c-4.05-1.14-8.27-1.67-12.2-3.25a25.4,25.4,0,0,1-6.27-3.6q-20-15.75-40.07-31.49c-.59-.46-1.53-.78-1.34-1.76s1.17-1,1.88-1.18c1.44-.47,2.91-.83,4.36-1.28A6.47,6.47,0,0,1,379.65,60.34Z"/><path class="cls-1" d="M578,223.76c1.46,0,2.86.05,4.26,0a1.4,1.4,0,0,1,1.58,1.12c1.45,3.9,3,7.78,4.43,11.67q5.85,15.35,11.72,30.71c.18.47.38.93.57,1.4.72-.12.69-.74.85-1.16q6.45-16.94,12.85-33.9c1.09-2.89,2.24-5.76,3.27-8.67a1.48,1.48,0,0,1,1.72-1.17c1.29.08,2.58,0,3.94,0a2.77,2.77,0,0,1-.41,1.77q-8.09,20.73-16.19,41.46c-1,2.62-2.1,5.22-3,7.86a1.54,1.54,0,0,1-1.85,1.22c-.67-.07-1.35,0-2,0-1.37,0-1.38,0-1.91-1.34q-5.09-12.95-10.16-25.89Q583,237,578.34,225.12A2.68,2.68,0,0,1,578,223.76Z"/><path class="cls-1" d="M373.06,276.67a45.16,45.16,0,0,1-5.07.11c-1.73-.47-3.54-.63-5.24-1.25a21.42,21.42,0,0,1-12.9-11.92,32.63,32.63,0,0,1,.49-28.38c4.2-8.62,13.05-13.23,23.05-12.36a25.27,25.27,0,0,1,10.69,3.38c1.88,1.1,1.46.95.8,2.4-.44,1-.92,1.91-1.44,3l-2.29-1.3a19.78,19.78,0,0,0-14-2.45c-6.1,1.25-10.22,5-12.64,10.62a29.71,29.71,0,0,0-1.94,14.72,26.85,26.85,0,0,0,1.32,6.26c3.28,9.65,12,14.4,21.93,12a26.42,26.42,0,0,0,7.11-3,4.16,4.16,0,0,1,1.49-.75c.53,1.11,1.06,2.28,1.63,3.41.35.69-.17.9-.57,1.17a27.53,27.53,0,0,1-8.61,3.79c-.6.15-1.21.22-1.82.33S373.67,276.17,373.06,276.67Z"/><path class="cls-1" d="M844.84,273.12a33.49,33.49,0,0,1,2.08-4.36c1.53.6,3,1.25,4.46,1.74a19.74,19.74,0,0,0,10.47.82c5.77-1.24,8.74-6.17,7.14-11.84a8.73,8.73,0,0,0-3.61-4.73,33.6,33.6,0,0,0-6.22-3.35c-2.06-.91-4.09-1.88-6.06-3a18.35,18.35,0,0,1-4.82-3.66c-5.58-6.24-3.29-16.45,4.47-20a16.92,16.92,0,0,1,6.35-1.54,23.76,23.76,0,0,1,11,1.87c1.49.66,1.49.66.77,2.21-.33.71-.71,1.4-1,2.14s-.65.75-1.28.42a18.7,18.7,0,0,0-7.63-1.92,12.75,12.75,0,0,0-5.47.78,8,8,0,0,0-2.45,13.22,15.66,15.66,0,0,0,3.77,2.53c1.91.95,3.85,1.85,5.78,2.76a37.91,37.91,0,0,1,6.43,3.68,12.29,12.29,0,0,1,5.46,10.8,15.51,15.51,0,0,1-1.2,6.56,13.88,13.88,0,0,1-10.3,7.67,27.42,27.42,0,0,1-17.73-2.45A3.11,3.11,0,0,1,844.84,273.12Z"/><path class="cls-1" d="M363.57,65.85a8.25,8.25,0,0,1,5,1.82q10.49,8.08,21,16.13,7,5.34,13.9,10.72a5.32,5.32,0,0,1,1,.88.91.91,0,0,1-.72,1.55,5.14,5.14,0,0,1-1.17-.15c-2.55-.47-5.1-.87-7.62-1.45A25.88,25.88,0,0,1,385.35,91Q371.4,80.8,357.5,70.5a4.41,4.41,0,0,1-.78-.65c-.42-.5-.47-1.17.12-1.45C359.11,67.31,361.32,66,363.57,65.85Z"/><path class="cls-1" d="M702.73,275.52a2.48,2.48,0,0,1-1.54.22H678.41c-.28,0-.56,0-.85,0-.56,0-.82-.22-.8-.79,0-.39,0-.79,0-1.18v-48c0-.22,0-.45,0-.67,0-1.26,0-1.27,1.34-1.28,1,0,1.91,0,2.87,0,.74,0,1,.29,1,1,0,.45,0,.9,0,1.35v42.49c0,.39,0,.78,0,1.18,0,1.25,0,1.27,1.35,1.28h16.54c.4,0,.79,0,1.18,0,.77-.07,1.12.22,1.19,1C702.31,273.23,702.55,274.39,702.73,275.52Z"/><path class="cls-1" d="M350,72.21a7.1,7.1,0,0,1,4,1.29l23.09,16.67c.14.1.28.19.41.3.41.33.77.7.54,1.28s-.79.74-1.39.65c-3.65-.59-7.38-.76-10.93-2a25.61,25.61,0,0,1-6.48-3.16L344.27,76.89a6.06,6.06,0,0,1-.81-.6c-.56-.55-.61-1.21,0-1.57C345.56,73.6,347.54,72.24,350,72.21Z"/><path class="cls-1" d="M349.61,89.76c-6.52.06-12.22-2.65-17.51-6.48-.93-.68-1-1.35-.06-2a18.25,18.25,0,0,1,2.86-1.75,6.11,6.11,0,0,1,6.13.35c4,2.59,7.9,5.33,11.85,8A1.26,1.26,0,0,1,353.6,89a1,1,0,0,1-1.12,1C351.59,89.92,350.69,89.83,349.61,89.76Z"/><path class="cls-1" d="M373.06,276.67c.61-.5,1.32-.28,2-.3-.49.38-1.12.24-1.66.44Z"/></g></svg>