<svg id="Capa_1" data-name="Capa 1" xmlns="http://www.w3.org/2000/svg" viewBox="0 0 1080 331"><defs><style>.cls-1{fill:#fff;}</style></defs><g id="aneBjR.tif"><path class="cls-1" d="M987.89,231.29c-2.15,1.53-4.49.25-6.73.4-3.22.22-6.47,0-9.7,0-1.8-1-1.3-2.7-1.3-4.21q0-37.38,0-74.75c0-2.57-.34-5.17.53-7.71.35-1,.39-2.34-1.3-2.54,0-.9,0-1.79,0-2.68,1.41-3.16,4-3.43,7.16-3.51,4.31-.12,8.51,1.06,12.81.63l-.07,0,.74.93q12.15,16.56,24.31,33.13c6.77,9.21,13.56,18.4,20.67,28,1.17-3.39,0-6.3.53-9.09,1-1.07.56-2.37.56-3.57,0-15.57.07-31.15,0-46.72,0-2.53.73-3.35,3.28-3.26,4.86.17,9.74,0,14.61,0,1,2.86.36,5.82.38,8.71.12,17.11.08,34.22.09,51.34,0,11,0,22.06,0,33.09,0,2-.63,2.48-2.51,2.44-5.2-.11-10.41-.13-15.61,0-1.81,0-2.25-1.3-3-2.33q-20-27.71-39.86-55.45c-1.32-1.83-2.59-3.69-4-5.48-.65-.85-1.42-1.26-1.79.28-2.37.9-1.38,3-1.1,4.33a35.79,35.79,0,0,1,.5,7.36c0,15.61,0,31.23,0,46.85C987.17,228.76,986.65,230.21,987.89,231.29Z"/><path class="cls-1" d="M482.49,133.85c14.45,1.35,25.27,7.73,30.82,21.68.83,2.09.42,2.75-1.62,3.24-4.39,1-8.76,2.18-13.08,3.46-1.72.51-2.5,0-3.38-1.43-6-9.58-16.21-13.1-27.22-9.63-4.59,1.45-7.37,4.25-7.85,9.07-.45,4.65,1.71,8.45,6.36,10.57,6.42,2.93,13.37,4.09,20.25,5.41,8.43,1.62,16.44,4.36,22.23,11,9.87,11.34,8.76,36.91-11.43,43.31-15.93,5-31.69,4.9-46.48-3.77-6.48-3.8-10.22-9.95-12.38-17.1-.51-1.69-.1-2.1,1.42-2.51,4.8-1.27,9.56-2.67,14.33-4.06,1.14-.34,1.83-.36,2.24,1.07,2.51,8.65,9.32,11.79,17.41,12.66,6.08.65,12.21.65,17.56-3.32s5.41-14.21-.89-17.51c-5.33-2.8-11.16-3.52-16.89-4.73-7-1.46-13.89-3.11-20.17-6.7-10.71-6.13-14-15.71-12.64-27.29,1.25-10.41,7.4-17.12,17-20.87A35.25,35.25,0,0,1,471,133.89,26,26,0,0,0,482.49,133.85Z"/><path class="cls-1" d="M923.38,136.37q7.8,19.17,15.58,38.34,10.72,26.53,21.39,53.11c.49,1.22,1.24,2.41,1.12,3.86-6,0-11.92-.06-17.87,0-1.41,0-2.24-.22-2.75-1.68-1.81-5.17-4.18-10.15-5.42-15.51-.24-1-1.23-1.28-1.48-2.15a2.43,2.43,0,0,0,.09-.55,2.86,2.86,0,0,0-.91-.2c-14.1,0-28.2,0-42.29,0-2.81,0-3.86,2.52-2.42,5.39-1.49,4-3.08,8-4.43,12a3.75,3.75,0,0,1-4,2.86H862.85c2-5,3.77-9.57,5.6-14.13q16.13-40.08,32.26-80.16a10.59,10.59,0,0,1,.63-1.14Zm-11.37,59v.14H924.9c1.74,0,2.78-.36,1.92-2.54-4.43-11.2-8.76-22.44-13.13-33.66-.31-.8-.33-2-1.52-1.94-.95,0-1.06,1.05-1.34,1.75q-6.58,16.82-13.16,33.64c-.84,2.15,0,2.73,2.12,2.65C903.86,195.25,907.94,195.35,912,195.35Z"/><path class="cls-1" d="M641.46,218.35a1.27,1.27,0,0,1,0,.34q-2.48,6.44-5,12.88l-14.52.26c-1.69,0-3.39,0-5.48,0,2.62-6.62,5.15-13.07,7.73-19.49q13.8-34.41,27.65-68.81c.42-1,1-2,1.45-3,2.21-4.45,6.16-4.52,10.32-4.07.44.05.9,0,1.35,0,4.44.38,9.18-.8,13.08,2.47l-.06,0c-.49,1.31-.27,2.34,1.15,2.89l0-.05c0,.79-.23,1.66.78,2.06l0-.08c.77,2.88-.43,6.53,3.24,8.29l0,0c.06.75-.1,1.59.85,1.94l-.05-.07c-.07.87-.23,1.79,1,2.09q9,22.05,17.93,44.12c3.85,9.5,7.58,19,11.52,28.5,1.09,2.61.54,3.27-2.19,3.18-4.75-.16-9.51-.17-14.26,0-2.19.09-3.11-.68-3.8-2.65-1.7-4.89-3.63-9.7-5.47-14.54-.4-1-.68-2.2-2.07-2.4-.67-.83-1.62-.65-2.5-.65q-18.59,0-37.18,0c-.88,0-1.83-.17-2.47.7l-.19.13-.22-.05C640.47,213.26,640.84,215.76,641.46,218.35Zm9.72-22.89c.13,2.94,2.2,1.88,3.69,1.67,1.08-.15,2.13-1.1,3.15-1,7,.54,14.1-1.43,21,.93.8.28.56-1,.69-1.57,2.06-.42.91-1.64.57-2.54q-6.37-16.68-12.82-33.32c-.35-.89-.51-2.25-1.73-2.25-1.06,0-1.12,1.3-1.43,2.09q-6.6,16.78-13.11,33.6C650.94,193.79,650.11,194.64,651.18,195.46Z"/><path class="cls-1" d="M569.63,233.7c-18-.69-32.26-6.75-41.76-21.17-16.81-25.55-9.4-69,29.48-77.7,20.87-4.65,42.79,2.17,54,19.95,3.58,5.66,3.61,5.65-2.86,7.4-3.48.94-7,1.65-10.45,2.82-2,.69-2.94.13-4.12-1.47-10-13.57-30.48-16.57-43.84-6.23-9.33,7.23-11.92,17.45-11.33,28.66.57,11,4.71,20.15,14.54,25.94,12.53,7.38,33.47,4.91,42.21-10.64.93-1.65,1.85-2.23,3.75-1.67,4.55,1.34,9.13,2.61,13.75,3.65,2.27.51,2.37,1.35,1.44,3.21-7.72,15.35-20.21,24.09-37.14,26.64C574.44,233.53,571.48,233.56,569.63,233.7Z"/><path class="cls-1" d="M306.37,231.86a2,2,0,0,1-.65.08c-8.21.48-16.42,1.12-24.63.07l.08.06c-.71-1.23-1.87-.69-2.88-.75a42.87,42.87,0,0,1-28.35-22.27A52.56,52.56,0,0,1,246.87,165c6.92-19,21.19-28.95,41.14-31.18a25.89,25.89,0,0,0,11.52.09c16.43,1.48,29.06,9,37.43,23.31,1.4,2.4,1.61,3.71-1.74,4.36A107.69,107.69,0,0,0,322.49,165c-2.09.69-3.1.23-4.38-1.5-11.43-15.44-35.26-16.63-47.74-2.48-12.21,13.85-9.42,39.58,5.39,49.75,13.76,9.44,33.48,5.75,43.2-8.35,1.83-2.66,3.36-3.42,6.41-2.36a108.17,108.17,0,0,0,12.05,3.26c1.74.39,2.36.72,1.45,2.56C332.22,219.38,322,228.47,307,231.77,306.75,231.46,306.54,231.53,306.37,231.86Z"/><path class="cls-1" d="M377.48,213.52l.17,0,.11.13c.08.76,0,1.95.94,1.89,3.33-.21,6.58,1.84,9.93.34h2.72c.22,1.2,1.09,1,2,1.13,2.43.24,4.19-1.53,6.34-1.91s3.41-1.37,3.92-3.42l1.69-1.47c2.78-.17,3.51-1.71,2.84-4.19h-.05c1.59.32,1.41-.92,1.76-1.83,2.8-7.33,2.68-15,2.56-22.61-.21-14.14.69-28.29-.62-42.41-.22-2.39,1.25-3.12,3.2-2.56a12.68,12.68,0,0,0,6,0c5.93-1,7.87.63,7.79,6.57-.29,20.26.71,40.54-.6,60.79,0,.31-.06.62-.1.93-1.41.09-2.07,1.09-2.76,2.15-1.23,1.9.5,3.66.13,5.5-4.13,10.12-11.9,16.3-22.13,19.23a48.57,48.57,0,0,1-29.62-.45,10,10,0,0,0-7.51-3.37h0c-.26-1.89-1.79-1.89-3.16-2.15l-.14-.1c-.15-3.07-2.34-4-4.86-4.54h0l-.63-.71c-.17,0-.22-.13-.17-.29a4.69,4.69,0,0,0-.77-3.14c-1.48-3-3.8-5.4-4.79-8.8-2.53-8.63-2.94-17.43-3.09-26.25-.2-11.26,0-22.52-.07-33.78,0-1.2.38-2.49-.49-3.58,0-1.82,0-3.64,0-5.46A3.83,3.83,0,0,1,350.6,137c3.62-.78,7.22-.47,10.82-.5s4.79,1.32,4.79,4.85q0,24.72,0,49.45A49.38,49.38,0,0,0,368.6,205c.6,2,1.68,4.72,4.6,5.22l.56.57c-.32,2.29,1.13,2.32,2.75,2.14l-.06,0Z"/><path class="cls-1" d="M784.13,136.34a5.58,5.58,0,0,1,0,3.36c-.41-.34-1-1.42-1,.17,0,3.16,0,6.32,0,9.47,0,1.85-.81,2.68-2.66,2.66-8.49-.08-17-.06-25.47-.26a3.52,3.52,0,0,0-2.58.89c-2.83,2.13-.49,4.55-.5,6.75-.12,24.14-.09,48.28-.09,72.43-5,0-9.91,0-14.86.17-2.24.08-2.86-.66-2.84-2.84.1-12.16.07-24.32.08-36.48s0-24.09,0-36.14c0-1.28.5-2.73-.71-3.82-.09-.6-.26-.91-1.06-.9-7,.11-14,.16-21,.19-2.14,0-4.42.31-6.38-.31-1.78-.57.1-3.28-1.52-4.45a42,42,0,0,1,0-8.76c.83-2,2.49-2.08,4.4-2.08Q746,136.42,784.13,136.34Z"/><path class="cls-1" d="M810.33,135.67h1.32c.51,3.17-.94,6.5.84,9.56.09,1.34.24,2.67.25,4q0,30,0,60.07c0,1.68.18,3.35.28,5,1.36,2.7,3.83,1.35,5.66,1.21a224.81,224.81,0,0,1,36,.12c2.26.2,3.19,1.35,3.17,3.5,0,3.26-.06,6.52,0,9.78a3.07,3.07,0,0,1-1.37,2.85q-28,0-55.93-.06c-2,0-4.06.52-6-.24,0-30.1.1-60.21,0-90.31,0-3.38,1.68-4.64,4.37-4.65,3.44,0,6.95-.81,10.37.54C810.79,137.65,810.12,136.23,810.33,135.67Z"/><path class="cls-1" d="M45.22,145.23l.21,1.93a1.59,1.59,0,0,0-.86,2c1.27,3.34.13,6.62,0,9.93-.08,1.45-1.15,2.83-.57,4.28,2.35,5.89.86,11.67-.37,17.46-.16.77-.62,1.49,0,2.22s2.23.51,1.48,2c-.67,1.35-2,.6-3,.79-4.45-2.87-8.89-5.76-13.37-8.58A6,6,0,0,1,25.53,172c-.17-4.83.07-9.65.36-14.47a2.63,2.63,0,0,1,1.5-2.39c3.72-2.05,6.89-5,10.82-6.71,1.32-.57,1.5-2.3,3-2.54a1.2,1.2,0,0,0,1.23-.81l1.28-.83A1.48,1.48,0,0,0,45.22,145.23Z"/><path class="cls-1" d="M324.73,87.33c0,8.3,0,16.6,0,24.91,0,1.12.86,3-1.52,3s-1.64-1.7-1.65-2.92c0-9.25-.09-18.49,0-27.74,0-1.07-.66-2.65,1.13-3.13s2.67.44,3.63,1.76c5.69,7.85,11.47,15.64,17.23,23.45.64.86,1.34,1.68,2.51,3.15V86.48c0-1.12,0-2.25,0-3.38s.34-1.69,1.53-1.74c1.36,0,1.73.61,1.73,1.86,0,10,0,20.08,0,30.12,0,.77.06,1.65-1,1.86a2.75,2.75,0,0,1-3-1.14c-3.18-4.37-6.42-8.7-9.62-13.06q-5.1-6.94-10.16-13.92Z"/><path class="cls-1" d="M184.07,149c2.85,1.73,5.68,3.48,8.56,5.16a3.41,3.41,0,0,1,1.69,2.69c.88,5.39.47,10.79.34,16.19a5.28,5.28,0,0,1-3.51,5.19c-2.58,1.05-4.49,3.37-7.22,4.25-1.77-2.06-1.18-4.76-1.17-6.94,0-6.57-1.31-13.24.74-19.76a3,3,0,0,0-.61-2.23C181.46,151.47,180.69,149.72,184.07,149Z"/><path class="cls-1" d="M270.82,97.47c1.82,1.1,4.07,1.54,5.43,3.53a8.8,8.8,0,0,1-5.66,13.66c-5.34,1.17-10.82.43-16.24.53-1.43,0-1.42-.85-1.48-2-.46-8.89-.27-17.79-.1-26.68.1-5.07.31-5.07,5.42-5.08,2.61,0,5.21-.05,7.81,0,4.07.08,8.07,2.42,9,5.48,1,3.26.74,7.3-3.86,9.77C271,96.77,271,97.07,270.82,97.47Zm-15.06,8c0,1.8,0,3.6,0,5.4,0,1.08.34,1.72,1.54,1.68,3.94-.13,7.93.49,11.83-.36,3.58-.78,5.47-3,5.55-6.26a6.85,6.85,0,0,0-5.37-6.87,23.28,23.28,0,0,0-6.4-.49C255.77,98.61,255.77,98.61,255.76,105.51Zm-.11-15.11v4c0,.92,0,2,1.27,1.91,3.82-.17,7.71.63,11.46-.65,2.84-1,4-3.1,3.91-6a5.26,5.26,0,0,0-4.43-5.24,25.37,25.37,0,0,0-5.72-.48C255.81,83.94,255.81,84,255.65,90.4Z"/><path class="cls-1" d="M414,80.78c10.63,0,18.17,7.27,18.22,17.56a17.58,17.58,0,0,1-18,17.57,17.22,17.22,0,0,1-17.42-17.7C396.81,88.3,404.24,80.77,414,80.78Zm.7,2.81c-8.88,0-14.84,5.89-14.88,14.84,0,8.4,6,14.49,14.51,14.58,8.28.08,14.57-5.92,14.71-14.05C429.15,89.91,423.31,83.65,414.66,83.59Z"/><path class="cls-1" d="M40.83,214.17c-7.29-10.42-11.52-21.23-14.17-33.69a160.43,160.43,0,0,1,17.27,11.74,1.85,1.85,0,0,1,.65,1.82A130.29,130.29,0,0,1,40.83,214.17Z"/><path class="cls-1" d="M54.63,195.46c-4.47-1.94-6.23-5-5.47-10.09,1.77-11.74,1-23.58.67-35.39a4.61,4.61,0,0,0,0-1.34c-2.73-7.22,1.23-11.26,6.91-14.49.66,2.81-1.29,5.88.83,8.55-2.54,7-4.37,14-4.35,21.53a89,89,0,0,0,2.07,18.93c-1.55.3-1.23,1.23-.79,2.25.34.79,1.26,1.71.66,2.45C53.16,190.34,54.27,192.9,54.63,195.46Z"/><path class="cls-1" d="M41,117.79a155.87,155.87,0,0,1,3.55,18.84,3,3,0,0,1-1.1,3,175.06,175.06,0,0,1-16.24,11.08C27.06,144.33,34.41,125.3,41,117.79Z"/><path class="cls-1" d="M107.77,229.85c4.31-.31,8.62-.66,12.92.09,0,.21,0,.41,0,.62,0,4,0,8.08,0,12.12,0,2.06-1.52,4.12,0,6.17-2.64,1.16-5.45,1.18-8.25,1.22-1.53-1-3.61-.3-5.08-1.76-.26-1,3.44-1.46.71-2.64-1.78-.77-1.68-1.8-1.69-3.13,0-3,.67-6.34-.31-9C105.2,231,106.2,230.61,107.77,229.85Z"/><path class="cls-1" d="M374.78,112.81a13.33,13.33,0,0,0,12-5.75c1-1.35,2.11-2,3.32-1s-.3,2-.84,2.8c-4.66,6.6-14.86,8.9-22.57,5.18a17.71,17.71,0,0,1-8.92-21.18c2.49-8.19,10.24-13,19.21-12,5.1.56,9.32,2.63,12.18,7,.52.79,1.88,1.83.41,2.87s-2.22.09-3-1.08c-2.8-4.18-6.81-5.84-11.82-6.07-7.37-.34-14.55,5.82-14.57,14.53S366.1,112.77,374.78,112.81Z"/><path class="cls-1" d="M167,136.13c4.31,2.13,5.74,5.06,5.09,10.24a173.48,173.48,0,0,0-.17,38.79c.67,6.82.56,7.15-5.59,10.54,0-.68-.29-1.54,0-2,2.14-3.14.39-4.13-3-4.34,2.6-1.28,3.3-4.74,2-7.59,2.09-9.65,3-19.33.63-29.07,2.09-2.35,2.05-5.1,1.05-7.75C166,142,165.35,139.1,167,136.13Z"/><path class="cls-1" d="M299.17,105a5.66,5.66,0,0,1-1,0c-6.6-1.16-10.62,1.35-11.82,8.09-.16.88-.44,2.1-1.81,2.13-1.1,0-2.52.35-1.64-1.69q6.58-15.33,13.06-30.7a1.91,1.91,0,0,1,1.95-1.45c1.34,0,2.46.32,3,1.68q6.45,15.21,12.88,30.43c.21.52.87,1.4-.17,1.66s-2.09.45-2.64-.82c-.85-2-1.84-3.87-2.49-5.9-.75-2.35-2-3.52-4.61-3.19a35.51,35.51,0,0,1-4.73,0Zm-.81-21.14c-2.52,6-4.51,11.08-6.78,16-1.15,2.5-.22,2.79,2,2.67,2.35-.13,4.73,0,7.09,0,5.34,0,5.37,0,3.42-4.87C302.35,93.33,300.53,89.07,298.36,83.83Z"/><path class="cls-1" d="M60.27,206.63A74.91,74.91,0,0,1,73.13,220c-.13.64-.1,1.75-.41,1.85-2.63.89-2.91,1.9-.7,3.77.81.68.52,2-.92,2.14-1.29.11-2.23.36-2.09,1.91l-8.84,1.57c-.38-1.5-.77-3-1.14-4.51-.58-2.38,4.31-.8,2.68-3.36-.87-1.38-3-2.19-2.17-4.21C61.26,215.05,59.14,210.76,60.27,206.63Z"/><path class="cls-1" d="M158.68,208.87c2.31-2.43,4.49-5,7.39-6.78,2.16-.17,2.12,1.21,2.26,2.8.49,5.44-1.22,10.85-.07,16.29a2.75,2.75,0,0,1-.37,1.92,4.56,4.56,0,0,0-.25,4.14l0,0c-.64,0-1.19.16-1.39.86-1.56,2-3.13,4-6.14,3.14.5-6-1.31-12,0-18.09A3.92,3.92,0,0,0,158.68,208.87Z"/><path class="cls-1" d="M428.17,203.9c1.31-20.25.31-40.53.6-60.79.08-5.94-1.86-7.61-7.79-6.57a12.68,12.68,0,0,1-6,0c-1.95-.56-3.42.17-3.2,2.56,1.31,14.12.41,28.27.62,42.41.12,7.63.24,15.28-2.56,22.61-.35.91-.17,2.15-1.76,1.83,2.46-5.82,3.07-11.92,3-18.19-.1-16,0-32.06-.06-48.09,0-3.08.56-4.75,4.29-4.38a101.81,101.81,0,0,0,12.23.08c1.81,0,2.61.43,2.6,2.45-.1,18.39,0,36.78-.19,55.17A27.14,27.14,0,0,1,428.17,203.9Z"/><path class="cls-1" d="M160.14,124.2l-10.93-11.34c2.56-3.44,1-6.89,0-10.35a63.22,63.22,0,0,1,10.21-2c.8,2,2.47,3.36,1.66,6.23-.54,1.92-.12,4.23-1.36,6.24-.76,1.22-.22,2.34,1.08,3.1.83.49,2.32,1.58,1.54,2.15C160.18,119.88,161.08,122.33,160.14,124.2Z"/><path class="cls-1" d="M167.64,227.24a4.56,4.56,0,0,1,.25-4.14,2.75,2.75,0,0,0,.37-1.92c-1.15-5.44.56-10.85.07-16.29-.14-1.59-.1-3-2.26-2.8l6.57-6.08a3,3,0,0,1,1.07,2.38c-.24,5.73,2,11,3,16.53a4.25,4.25,0,0,1-.93,3.93A66.6,66.6,0,0,1,167.64,227.24Z"/><path class="cls-1" d="M107.77,229.85c-1.57.76-2.57,1.13-1.67,3.64,1,2.71.27,6,.31,9,0,1.33-.09,2.36,1.69,3.13,2.73,1.18-1,1.65-.71,2.64,1.47,1.46,3.55.78,5.08,1.76-3.46.66-6.84-.49-10.27-.44-2.11,0-2.45-2-3.38-3.28,0-1.1.6-2.61-.33-3.19-2.3-1.45-2.34-4.17-4.22-6,2.28,0,2.86,0,3-.4a1.72,1.72,0,0,0-.18-1.88c-2.3-3.39-2.3-3.43,1.74-4.18a32,32,0,0,1,3.68-.25A8.23,8.23,0,0,1,107.77,229.85Z"/><path class="cls-1" d="M158.68,208.87a3.92,3.92,0,0,1,1.41,4.25c-1.26,6,.55,12.06,0,18.09l-9.53-2.06c.75-3.46-1.43-6-2.77-8.8v.05l.69-1c2.23-2.63,4.24-5.44,7.15-7.46A21.22,21.22,0,0,0,158.68,208.87Z"/><path class="cls-1" d="M114.63,82.2c1.59.24,3.33-.87,4.79.53-.22.82.15,1.58-.31,2.53-1.78,3.68-1.54,7.71-.8,11.55.43,2.24,0,3.67-1.68,5h-2.77c-.5-.19-1-.6-1.51-.54-2.89.42-3.3-1.08-3.28-3.52,0-3.66,0-7.28,2.81-10.55-1.34-.09-2.11-.16-2.89-.2s-1.64,0-1.8-1.08.6-1.15,1.2-1.68A7.26,7.26,0,0,1,114.63,82.2Z"/><path class="cls-1" d="M181.86,189.18a45.82,45.82,0,0,1,10.66-7c.85,3.14-.64,5.59-1.4,8.09-2.14,7-4.84,13.71-9.26,19.63-.39.54-.73,1.28-1.54,1s-.74-1-.65-1.7c.66-1.29,1.59-2.68,1.22-4.06-.53-1.94-.32-2.94,1.86-3.24a1.07,1.07,0,0,0,.7-1.81C180.9,196.72,180.23,193.12,181.86,189.18Zm.3,14.79a.74.74,0,0,0-.08.28s.15.06.23.09a.74.74,0,0,0,.08-.28S182.24,204,182.16,204Z"/><path class="cls-1" d="M184,124.87a71.25,71.25,0,0,1,9.18,25.23c-5.38-3.53-10.29-6.19-14.26-10.2,2.65-.88,1.58-3.18,1.92-5C181.48,131.46,181.28,127.71,184,124.87Z"/><path class="cls-1" d="M184.07,149c-3.38.75-2.61,2.5-1.18,4.55a3,3,0,0,1,.61,2.23c-2.05,6.52-.7,13.19-.74,19.76,0,2.18-.6,4.88,1.17,6.94l-.78.7-4,.69h0c-.13-1,1.31-2.17-.41-2.9s-1.51-1.94-1.21-3.58a57.18,57.18,0,0,0,.42-19.27c-.29-1.86-1-4.75.29-5.47,3.5-1.94,1.1-2.82-.19-4.12-.57-.56-1.21-1.22-.65-2s1.22,0,1.84,0c.45,0,.9,0,1.35,0A10.8,10.8,0,0,1,184.07,149Z"/><path class="cls-1" d="M169.65,106.59c2.63,1.9,4.55,4.51,6.78,6.81a3,3,0,0,1,.44,2.85q-1.71,8.58-3.25,17.21c-.35,2-1.14,2.07-2.3.71-.62-.72-1.87-1-1.78-2.28l.31-.41-.39.32c-1.51.12-2.05-1-2.62-2.06,3.58-.84,3.81-1.24,2-4.22-.39-.65-.7-1.25-.21-1.81,1.44-1.67.84-3.64,1-5.51.17-2.06-.64-4.3,1.1-6.1a1,1,0,0,0-.07-.9C168.07,110.15,170.18,108.08,169.65,106.59Z"/><path class="cls-1" d="M751.82,231.81c0-24.15,0-48.29.09-72.43,0-2.2-2.33-4.62.5-6.75a3.52,3.52,0,0,1,2.58-.89c8.49.2,17,.18,25.47.26,1.85,0,2.68-.81,2.66-2.66,0-3.15,0-6.31,0-9.47,0-1.59.62-.51,1-.17.05,3.38,0,6.76.21,10.13.15,2.33-.61,3.1-3,3.06-8.26-.13-16.52.07-24.78-.11-2.73-.06-3.41.77-3.4,3.41q.14,36.34,0,72.68C753.15,229.82,754.43,231.85,751.82,231.81Z"/><path class="cls-1" d="M71.06,114.13a58.53,58.53,0,0,1-8.15,8.13c-.71-1.92-4.36-2.84-2.08-5.76a8.09,8.09,0,0,0,1.38-5.43c-.05-3.49,0-7,0-10.48,2.66,1,5.66.39,8.23,1.76C68.07,106.41,70.51,110.22,71.06,114.13Z"/><path class="cls-1" d="M179.18,183.84l4-.69c-1.82,2.2-4.45,3.22-7.22,5.33-.31-4.79-.7-8.87-.82-12.95A238.45,238.45,0,0,1,175.7,147c.1-1.08-.42-2.62.57-3.13,1.25-.63,2.09,1,3.13,1.53a6.82,6.82,0,0,1,1.22,1.13c-.45,0-.9,0-1.35,0-.62,0-1.33-.78-1.84,0s.08,1.48.65,2c1.29,1.3,3.69,2.18.19,4.12-1.3.72-.58,3.61-.29,5.47a57.18,57.18,0,0,1-.42,19.27c-.3,1.64-.58,2.83,1.21,3.58s.28,1.93.41,2.9l-.16.28Z"/><path class="cls-1" d="M51.92,226.6c-2.18-2.08-4.44-4.09-6.51-6.27a5,5,0,0,1-1.11-5c1.48-6.28,2.65-12.63,4-19.14a5,5,0,0,1,3.1,2.37c.7,2.88-.6,5.64-.62,8.41C50.69,213.55,50,220.17,51.92,226.6Z"/><path class="cls-1" d="M373.2,210.18c-2.92-.5-4-3.24-4.6-5.22a49.38,49.38,0,0,1-2.38-14.21q0-24.74,0-49.45c0-3.53-1.24-4.88-4.79-4.85s-7.2-.28-10.82.5a3.83,3.83,0,0,0-2.62,2.16c-.59-2.78.07-4.09,3.39-3.81a93.57,93.57,0,0,0,12.19,0c2.78-.12,3.88.5,3.85,3.68-.16,17.21,0,34.43,0,51.65C367.39,197.71,368.6,204.44,373.2,210.18Z"/><path class="cls-1" d="M78.29,232.52c3.26-1.49,5.67-1.13,7.64,2.38s4.68,6.59,7,9.87a5.92,5.92,0,0,1,1.54,3.68,54.27,54.27,0,0,1-16-5c2.07-1.9,4.16-3.82,1.48-6.72a1.11,1.11,0,0,1,0-1.74C82.57,232.11,79.76,232.75,78.29,232.52Z"/><path class="cls-1" d="M116.63,101.77c1.64-1.29,2.11-2.72,1.68-5-.74-3.84-1-7.87.8-11.55.46-1,.09-1.71.31-2.53,1.73-.16,2.7.39,3.49,2.18a74.72,74.72,0,0,0,4.71,8c-.84.74-.23,2.83-2.05,2.55-3.46-.53-2.09,1.86-1.82,3.13.19.87,1.19,1.58,1,2.7C122.1,101.93,119.35,101.62,116.63,101.77Z"/><path class="cls-1" d="M47.19,109.8l.42-.54c1.46.08,2.3-.53,2.29-2.07l0,.08.74-.75-.06,0,.73,0c1.86.21,1.19,1.34.64,2.13-1.41,2-1.34,4.17-1.4,6.54-.09,3.64,1.3,7.22.64,10.72-.53,2.85.21,4,2.86,4.29l.11.12a6.47,6.47,0,0,1-1.13,1.2c-1.63,1-2.6,4-4.55,3.16-1.06-.48-1-3.63-1.24-5.59-.23-1.55-1-3-.7-4.65.39-4.1-1-8-1.46-12l0,0c1.61.19,1.55-.89,1.5-2l0,0Z"/><path class="cls-1" d="M95.39,90.31l1.32-1.66c.28.42.56,1.16,1.13.54s-.23-1.15-.4-1.73c1.27-3.59,3.12-6.39,7.61-5.76-.28.72-.35,1.71-.88,2.13-2.87,2.3-1.86,3.26,1.58,3.47-1,1.39-2.33,2.37-1.88,3.77.82,2.55.52,5.13.44,7.69-.06,1.71.83,2.37,2.07,3-3.2.47-6.33-.51-9.51-.46.49-1.23,1-2.46,1.47-3.68C99.9,93.9,99.1,91.9,95.39,90.31Z"/><path class="cls-1" d="M80.5,99.28c-5.64-.19-11-1.91-17.42-2.8a70.47,70.47,0,0,1,15.46-8.62c.43,2,2.59,1.37,3.82,2.4a27.11,27.11,0,0,0-2,2.17c-.53.7-.63,1.69.44,1.84,3,.43,1.13,2.26,1.15,3.54h0C81,97.84,80.58,98.41,80.5,99.28Zm-1-1.85c0-.81-.46-.94-.87-.9s-1,.23-1.05.49c-.21.61.41.7.82.7A4.06,4.06,0,0,0,79.52,97.43Z"/><path class="cls-1" d="M80.5,99.28c.08-.87.46-1.44,1.42-1.47l.28.15-.28-.15c0-1.28,1.84-3.11-1.15-3.54-1.07-.15-1-1.14-.44-1.84a27.11,27.11,0,0,1,2-2.17c-1.23-1-3.39-.39-3.82-2.4,5.14-1.67,10-4.45,15.63-4.26l0,0c-.1,3.41-3,5.24-4.49,7.9A50.32,50.32,0,0,1,85,97.92C83.82,99.34,82.57,100.74,80.5,99.28Zm5.68-8a3.2,3.2,0,0,0-1-.22c-.51.06-1.43.16-.76.9C85,92.52,85.67,92,86.18,91.3Z"/><path class="cls-1" d="M90.75,226.47c-3.61,1.07-6.36.71-8.59-3.06-2-3.39-5.09-6.13-7.7-9.16.12-1-.47-2.35,1.22-2.63.64.86,1,1.88,2.16,2.37,4.56,1.89,9.07,3.88,13.61,5.84-.56,1.15-1.38,2.38.85,2.61,1,.1,2.49.08,2.13,1.41s-1.8,1.5-3.13,1.07c-.53-.17-.77-1.29-1.6-.49C89.57,225.37,90.55,225.72,90.75,226.47Z"/><path class="cls-1" d="M125.18,226l-26.26,0a3.34,3.34,0,0,1,2.72-1.47c.61.62,1.23,1.05,2.22,0h-2.21c1.55-.69,1.37-1.38,0-2.07,9.37.31,18.7.15,27.75-2.77,1.12.83.63,3.34,3.07,2.84.75-.15,1.7,0,1.65,1.14,0,.94-.72,1.36-1.57,1.47C130.09,225.41,127.64,225.69,125.18,226Zm-6.57-2c-1.53-.28-3.06-.59-4.6-.8-.55-.07-1.18.09-1.29.8-.13.91.52,1.09,1.24,1.19C115.59,225.39,117,224.59,118.61,224Z"/><path class="cls-1" d="M169.65,106.59c.53,1.49-1.58,3.56,1,4.61a1,1,0,0,1,.07.9c-1.74,1.8-.93,4-1.1,6.1-.15,1.87.45,3.84-1,5.51-.49.56-.18,1.16.21,1.81,1.77,3,1.54,3.38-2,4.22h.07a1.32,1.32,0,0,0-1.33-.77l-1.45-1.23a75.54,75.54,0,0,0,.11-26C166.73,102.59,168.13,104.66,169.65,106.59Z"/><path class="cls-1" d="M52.67,104.42c2.35-1.69,3.74-5,7.42-4.44A3,3,0,0,0,58,103c0,2.72.88,5.61-1,8.15-.44.58-.05,1.3.73,1.57a1.25,1.25,0,0,1,.93,1.53,36.06,36.06,0,0,0,.2,12.13l-3.93,3.35-.28,0c1-2.45-1.19-4.37-.89-7A66.53,66.53,0,0,0,54,106.14c-.12-.91-.42-1.47-1.41-1.47Z"/><path class="cls-1" d="M164.24,101.72a75.54,75.54,0,0,1-.11,26l-4-3.54c.94-1.87,0-4.32,2.25-5.92.78-.57-.71-1.66-1.54-2.15-1.3-.76-1.84-1.88-1.08-3.1,1.24-2,.82-4.32,1.36-6.24.81-2.87-.86-4.25-1.66-6.23C161.34,99.79,163.12,99.41,164.24,101.72Z"/><path class="cls-1" d="M106.38,101.75c-1.24-.62-2.13-1.28-2.07-3,.08-2.56.38-5.14-.44-7.69-.45-1.4.9-2.38,1.88-3.77-3.44-.21-4.45-1.17-1.58-3.47.53-.42.6-1.41.88-2.13,3.19.09,6.45-.91,9.58.5a7.26,7.26,0,0,0-6.24,2c-.6.53-1.35.75-1.2,1.68s1,1.05,1.8,1.08,1.55.11,2.89.2c-2.83,3.27-2.77,6.89-2.81,10.55,0,2.44.39,3.94,3.28,3.52.47-.06,1,.35,1.51.54Z"/><path class="cls-1" d="M139.73,87.13c6.19,1.91,11.49,5.54,17.73,9.12-5.61,1.25-10.52,2.72-15.72,2.84-2.88-1.22.49-1.27.34-2.19-.74-1.07-4.66-1.28-1.94-3.64,2.28-2,2.63-3,0-4.59C139.82,88.47,139.86,87.66,139.73,87.13Z"/><path class="cls-1" d="M139.73,87.13c.13.53.09,1.34.42,1.54,2.62,1.61,2.27,2.6,0,4.59-2.72,2.36,1.2,2.57,1.94,3.64.15.92-3.22,1-.34,2.19-3.24.82-5.45-.77-7-3.31-1.31-2.17-3.64-3.73-3.93-6.5l-.7-.92v.07c-.58-2.11-.47-3.76,2.4-3.56a.28.28,0,0,1,.4.08c.6,2.28,2.42,1,3.72,1.27C137.84,85.92,138.65,87,139.73,87.13Z"/><path class="cls-1" d="M139.91,244.17A51.71,51.71,0,0,1,126,248.38c2.88-4.21,5.23-7.67,7.61-11.1,1-1.39,2-2.69,3-4.05.78-1.06,1.61-1.95,3.1-1.31-.37,2.13-.39,4.27-1.2,6.4C137.8,240.28,137.4,242.71,139.91,244.17Z"/><path class="cls-1" d="M120.72,248.85c-1.55-2,0-4.11,0-6.17,0-4,0-8.08,0-12.12a36.8,36.8,0,0,0,3.87.66c3.22.23,4.72,1.88,4.38,5C126.5,240.63,124.09,245.06,120.72,248.85Z"/><path class="cls-1" d="M58.85,126.35a36.06,36.06,0,0,1-.2-12.13,1.25,1.25,0,0,0-.93-1.53c-.78-.27-1.17-1-.73-1.57,1.93-2.54,1-5.43,1-8.15a3,3,0,0,1,2.05-3l2.1.61c0,3.5,0,7,0,10.48a8.09,8.09,0,0,1-1.38,5.43c-2.28,2.92,1.37,3.84,2.08,5.76A16,16,0,0,1,58.85,126.35Z"/><path class="cls-1" d="M125.18,226c2.46-.3,4.91-.58,7.37-.9.85-.11,1.53-.53,1.57-1.47,0-1.15-.9-1.29-1.65-1.14-2.44.5-1.95-2-3.07-2.84l11.68-5.41c.61,1.5,2.08,3-.3,4.4-.84.51-.06,1.6.29,2.38-2.57,5.61-6.92,7.15-12.7,5.58C127.34,226.3,126.12,226.86,125.18,226Z"/><path class="cls-1" d="M54,200.86c1.37,1.32,3.21,2.11,4.2,3.84-2.7,5.63-.69,11.75-1.84,17.55,2.79,2.75.65,5.27-.36,7.84a7.59,7.59,0,0,1-3.41-2.85c1.1,0,2.19,0,1.31-1.65-.4-.73-1.57-1.37-.84-2.33,1.63-2.15.69-4.57,1-6.85C54.65,211.22,52.72,206.05,54,200.86Z"/><path class="cls-1" d="M116.69,105.53l18.48-1.28a1.35,1.35,0,0,1,1.29.89,12.87,12.87,0,0,1-3,1.35c-2.56.45-1.74,1.42-.48,2.44,1.11.89,2,1.53.06,2.56-1.41.73.6,1.38.29,2.18-4.33-2-9-3-13.55-4.15.44-.06.89-.1,1.32-.17.91-.14,2.2,0,2.18-1.19a2.06,2.06,0,0,0-2.5-1.68C119.55,106.75,118.06,105.88,116.69,105.53Z"/><path class="cls-1" d="M78.29,232.52c1.47.23,4.28-.41,1.61,2.49a1.11,1.11,0,0,0,0,1.74c2.68,2.9.59,4.82-1.48,6.72l-.68-.17-.73-.51c-2.75-.52-4.91-2.36-7.47-3.29.24-.22.47-.6.73-.63,1.38-.14,3.57,1.14,3.83-1.05.21-1.84-2.22-1.45-3.37-1.67-2.57-.48-.53-1.41-.43-2.15C73,233.29,75.49,232.21,78.29,232.52Z"/><path class="cls-1" d="M56,230.09c1-2.57,3.15-5.09.36-7.84,1.15-5.8-.86-11.92,1.84-17.55l2.05,1.93c-1.13,4.13,1,8.42-.73,12.57-.84,2,1.3,2.83,2.17,4.21,1.63,2.56-3.26,1-2.68,3.36.37,1.5.76,3,1.14,4.51C58.31,232.53,57.05,231.71,56,230.09Z"/><path class="cls-1" d="M139.91,244.17c-2.51-1.46-2.11-3.89-1.37-5.85.81-2.13.83-4.27,1.2-6.4l6.1.74c.39,2.73-.44,5.78,2,8C145.34,242.1,142.89,243.72,139.91,244.17Z"/><path class="cls-1" d="M90.77,105.07c3.65,0,7.32-.3,10.87.89.19,3.46,3.55,1.42,4.93,2.83a140.89,140.89,0,0,0-16.27,3.33l-1.31.11a.64.64,0,0,1-.41.36C89,110,86.64,106.6,90.77,105.07Z"/><path class="cls-1" d="M90.77,105.07c-4.13,1.53-1.76,4.92-2.19,7.52A45.29,45.29,0,0,1,80,116.86c.68-1.72-.63-2.54-1.59-3.53,1.25-3.31,4-5.52,6.2-8.11C86.28,103.19,88.67,104.52,90.77,105.07Z"/><path class="cls-1" d="M148,118.64l15.62,14.9c-1.84,1.13-1.07,3.81-2.93,4.93a63.08,63.08,0,0,0-14.15-16.93Z"/><path class="cls-1" d="M810.33,135.67c-.21.56.46,2-1,1.4-3.42-1.35-6.93-.56-10.37-.54-2.69,0-4.38,1.27-4.37,4.65.11,30.1,0,60.21,0,90.31-1.43-.66-.82-2-.83-3,0-29.83,0-59.66-.13-89.49,0-3,.86-3.86,3.81-3.64C801.74,135.72,806,135.6,810.33,135.67Z"/><path class="cls-1" d="M184,124.87c-2.71,2.84-2.51,6.59-3.16,10.07-.34,1.78.73,4.08-1.92,5-1.69-.63-2.55-1.65-2.16-3.6.92-4.74,1.72-9.51,2.6-14.25.16-.88.24-2.06,1.24-2.23s1.2,1.11,1.65,1.8C182.89,122.66,183.41,123.78,184,124.87Z"/><path class="cls-1" d="M42,185.86c1-.19,2.36.56,3-.79.75-1.51-.94-1.37-1.48-2s-.14-1.45,0-2.22c1.23-5.79,2.72-11.57.37-17.46-.58-1.45.49-2.83.57-4.28.18-3.31,1.32-6.59,0-9.93a1.59,1.59,0,0,1,.86-2c1.61,10,1.26,20.06.89,30.12-.09,2.35-.3,4.7-.48,7.05-.09,1.19.41,2.89-.86,3.32C44,188,42.78,186.87,42,185.86Z"/><path class="cls-1" d="M54,200.86c-1.3,5.19.63,10.36,0,15.55-.27,2.28.67,4.7-1,6.85-.73,1,.44,1.6.84,2.33.88,1.63-.21,1.62-1.31,1.65l.06,0-.75-.68v.06c-1.92-6.43-1.23-13-1.16-19.58,0-2.77,1.32-5.53.62-8.41Z"/><path class="cls-1" d="M348,144.57c.87,1.09.49,2.38.49,3.58,0,11.26-.13,22.52.07,33.78.15,8.82.56,17.62,3.09,26.25,1,3.4,3.31,5.81,4.79,8.8a4.69,4.69,0,0,1,.77,3.14c-5.52-6-8-13.43-8.62-21.18C347,180.85,348,162.69,348,144.57Z"/><path class="cls-1" d="M95.39,90.31c3.71,1.59,4.51,3.59,3,7.3-.51,1.22-1,2.45-1.47,3.68-2.69,0-6.48.79-7.63-1.2s2.24-4.16,3.59-6.27C93.6,92.6,94.53,91.48,95.39,90.31Z"/><path class="cls-1" d="M162.37,198.88l-14.28,14.17c-1.14-.65-1-2-1.58-2.94,5.23-4.12,9.11-9.41,12.93-14.76C161.54,195.6,160.71,198.27,162.37,198.88Z"/><path class="cls-1" d="M71.06,114.13c-.55-3.91-3-7.72-.64-11.78,3.06-.13,6,.72,9.31,1.1C77.86,108,73.92,110.65,71.06,114.13Z"/><path class="cls-1" d="M181.86,189.18c-1.63,3.94-1,7.54,1.59,10.9a1.07,1.07,0,0,1-.7,1.81c-2.18.3-2.39,1.3-1.86,3.24.37,1.38-.56,2.77-1.22,4.06-1.73-4.78-2.26-9.84-2.87-14.81C176.45,191.53,179.93,190.73,181.86,189.18Z"/><path class="cls-1" d="M160.68,138.47c1.86-1.12,1.09-3.8,2.93-4.93,1.26.7,2.6,1.29,3.38,2.59-1.64,3-1,5.83.1,8.83,1,2.65,1,5.4-1.05,7.75A134.12,134.12,0,0,0,160.68,138.47Z"/><path class="cls-1" d="M969.4,142.51c1.69.2,1.65,1.5,1.3,2.54-.87,2.54-.53,5.14-.53,7.71q-.06,37.37,0,74.75c0,1.51-.5,3.23,1.3,4.21-1.25.33-2.27.34-2.24-1.41,0-1.57,0-3.15,0-4.72q0-38.85,0-77.7C969.23,146.1,969.34,144.3,969.4,142.51Z"/><path class="cls-1" d="M75.68,211.62c-1.69.28-1.1,1.62-1.22,2.63l-15-14.61a3.86,3.86,0,0,0-.22-4.7,5.44,5.44,0,0,1-1-4.42,37.9,37.9,0,0,1,2.53,3.92C64.19,201.5,69.78,206.69,75.68,211.62Z"/><path class="cls-1" d="M162.37,198.88c-1.66-.61-.83-3.28-2.93-3.53,2.85-4.15,3.77-9.14,6-13.57,1.26,2.85.56,6.31-2,7.59,3.36.21,5.11,1.2,3,4.34-.31.45,0,1.31,0,2C165.1,196.88,164.19,198.45,162.37,198.88Z"/><path class="cls-1" d="M102.55,230.47a32,32,0,0,0-3.68.25c-4,.75-4,.79-1.74,4.18a1.72,1.72,0,0,1,.18,1.88c-.18.36-.76.41-3,.4,1.88,1.81,1.92,4.53,4.22,6,.93.58.37,2.09.33,3.19-3.08-4.4-6.18-8.79-9.25-13.2-.56-.82-1.27-2.39.15-2.35C94,231,98.24,228.74,102.55,230.47Z"/><path class="cls-1" d="M133.34,113.67c.31-.8-1.7-1.45-.29-2.18,2-1,1-1.67-.06-2.56-1.26-1-2.08-2,.48-2.44a12.87,12.87,0,0,0,3-1.35l-.1,0,1,.72a11,11,0,0,1,3.14,4.11c-.66.4-1,1.4-.63,1.64,3.47,2.28.23,3.26-.82,4.66l-2-1-.71-.53,0,0c-.27-.63-.81-.72-1.41-.69l0,0c-.27-.67-.81-.75-1.43-.65Z"/><path class="cls-1" d="M784.13,136.34q-38.13,0-76.26,0c-1.91,0-3.57.06-4.4,2.08-.65-2.44.41-3,2.77-3,25.09.07,50.17,0,75.25.05C782.42,135.49,783.6,135,784.13,136.34Z"/><path class="cls-1" d="M106.57,108.79c-1.38-1.41-4.74.63-4.93-2.83H103a6.1,6.1,0,0,0,6.1-.08l7.57-.35c1.37.35,2.86,1.22,4.1,1a2.06,2.06,0,0,1,2.5,1.68c0,1.14-1.27,1-2.18,1.19-.43.07-.88.11-1.32.17l-4.58-.31c-.64-.71-1.44-.52-2.24-.39Z"/><path class="cls-1" d="M856.58,231.79a3.07,3.07,0,0,0,1.37-2.85c-.09-3.26-.05-6.52,0-9.78,0-2.15-.91-3.3-3.17-3.5a224.81,224.81,0,0,0-36-.12c-1.83.14-4.3,1.49-5.66-1.21,14.16,0,28.32,0,42.49-.08,2.46,0,3.4.51,3.25,3.14-.23,4.16-.12,8.35,0,12.52C858.78,231.57,858.24,232.23,856.58,231.79Z"/><path class="cls-1" d="M149.26,102.51c1,3.46,2.51,6.91,0,10.35-2.21-2.37-4.49-4.67-6.58-7.13-.95-1.11-1.46-2.52,1-2.49C145.55,103.26,147.31,102.14,149.26,102.51Z"/><path class="cls-1" d="M58.2,190.52a5.44,5.44,0,0,0,1,4.42,3.86,3.86,0,0,1,.22,4.7l-4.06-3.45-.72-.81v.08c-.36-2.56-1.47-5.12.52-7.6.6-.74-.32-1.66-.66-2.45-.44-1-.76-1.95.79-2.25C56.83,185.38,57.3,188,58.2,190.52Z"/><path class="cls-1" d="M147.87,240.65c-2.47-2.21-1.64-5.26-2-8l9.42,2c.53.11,1.29,0,1.22.76a2,2,0,0,1-.94,1.24C153,238,150.43,239.32,147.87,240.65Z"/><path class="cls-1" d="M101.64,224.48A3.34,3.34,0,0,0,98.92,226c-2.68.8-5.43.6-8.17.52-.2-.75-1.18-1.1-1-2,.83-.8,1.07.32,1.6.49,1.33.43,2.79.19,3.13-1.07s-1.13-1.31-2.13-1.41c-2.23-.23-1.41-1.46-.85-2.61l10.2,2.58c1.37.69,1.55,1.38,0,2.07Z"/><path class="cls-1" d="M1054,136.37c-4.87,0-9.75.17-14.61,0-2.55-.09-3.3.73-3.28,3.26.1,15.57.06,31.15,0,46.72,0,1.2.41,2.5-.56,3.57q-.07-26.16-.14-52.32c0-1-.19-2.13,1.4-2.11,5.52,0,11,.08,16.58.17C1053.57,135.66,1053.77,136.12,1054,136.37Z"/><path class="cls-1" d="M124.78,101.26c.16-1.12-.84-1.83-1-2.7-.27-1.27-1.64-3.66,1.82-3.13,1.82.28,1.21-1.81,2.05-2.55a32.8,32.8,0,0,1,5.18,7.24C130.11,101.42,127.43,101.26,124.78,101.26Z"/><path class="cls-1" d="M69,229.71c-.14-1.55.8-1.8,2.09-1.91,1.44-.13,1.73-1.46.92-2.14-2.21-1.87-1.93-2.88.7-3.77.31-.1.28-1.21.41-1.85a12.73,12.73,0,0,1,4.05,4c.73,1.2,2.92,1.93,2.22,3.4-.39.82-2.59,1.16-3.93,1.08C73.15,228.32,71.13,229.12,69,229.71Z"/><path class="cls-1" d="M147.84,220.35c1.34,2.8,3.52,5.34,2.77,8.8-3-.29-7.76.15-8.26-1.88C141.8,225,145.28,222.21,147.84,220.35Z"/><path class="cls-1" d="M987.89,231.29c-1.24-1.08-.72-2.53-.72-3.81,0-15.62,0-31.24,0-46.85a35.79,35.79,0,0,0-.5-7.36c-.28-1.32-1.27-3.43,1.1-4.33C988.19,189.72,988.35,210.5,987.89,231.29Z"/><path class="cls-1" d="M139,116.29c1-1.4,4.29-2.38.82-4.66-.37-.24,0-1.24.63-1.64,3.26,2.23,5.1,5.69,7.52,8.65l-1.46,2.9Z"/><path class="cls-1" d="M57.56,142.7c-2.12-2.67-.17-5.74-.83-8.55l6.13-5.24c1,1.17.06,2.38.08,3.56C61.58,136.11,59.3,139.26,57.56,142.7Z"/><path class="cls-1" d="M678.05,138.9c-3.9-3.27-8.64-2.09-13.08-2.47-.45,0-.91,0-1.35,0-4.16-.45-8.11-.38-10.32,4.07,1.63-5.07,1.63-5.07,6.88-5.07,4.42,0,8.85.23,13.25-.06C676.32,135.17,677.63,136.26,678.05,138.9Z"/><path class="cls-1" d="M888.42,217c-1.44-2.87-.39-5.37,2.42-5.39,14.09,0,28.19,0,42.29,0a2.86,2.86,0,0,1,.91.2,2.43,2.43,0,0,1-.09.55c-13,0-26,.19-39-.06C891.16,212.24,889,213.2,888.42,217Z"/><path class="cls-1" d="M62.94,132.47c0-1.18.9-2.39-.08-3.56l9.47-9.53,1.5,2.18C69.73,124.73,66.51,128.77,62.94,132.47Z"/><path class="cls-1" d="M146.51,210.11c.63.93.44,2.29,1.58,2.94l-7,8c-.35-.78-1.13-1.87-.29-2.38,2.38-1.44.91-2.9.3-4.4C142.93,212.91,144.36,211,146.51,210.11Z"/><path class="cls-1" d="M70.35,234c-.1.74-2.14,1.67.43,2.15,1.15.22,3.58-.17,3.37,1.67-.26,2.19-2.45.91-3.83,1.05-.26,0-.49.41-.73.63l-6.16-3.74A9.5,9.5,0,0,1,70.35,234Z"/><path class="cls-1" d="M73.83,121.56l-1.5-2.18a39.2,39.2,0,0,1,6-6c1,1,2.27,1.81,1.59,3.53v-.06l-.71.55Z"/><path class="cls-1" d="M989.36,137c-4.3.43-8.5-.75-12.81-.63-3.14.08-5.75.35-7.16,3.51-.33-4.44-.33-4.43,4.05-4.42,4.17,0,8.33,0,12.49,0C987.35,135.4,988.6,135.58,989.36,137Z"/><path class="cls-1" d="M644.38,212.31c.64-.87,1.59-.7,2.47-.7q18.58,0,37.18,0c.88,0,1.83-.18,2.5.65Z"/><path class="cls-1" d="M129,236.25c.34-3.15-1.16-4.8-4.38-5a36.8,36.8,0,0,1-3.87-.66c0-.21,0-.41,0-.62,4.06-.41,8,.5,12.42,1C131.84,233.12,131.15,235.22,129,236.25Z"/><path class="cls-1" d="M281.09,232c8.21,1.05,16.42.41,24.63-.07-6.82,2.59-13.84,1.71-20.81,1C283.66,232.85,282.19,233,281.09,232Z"/><path class="cls-1" d="M703.47,147.23c1.62,1.17-.26,3.88,1.52,4.45,2,.62,4.24.32,6.38.31,7,0,14-.08,21-.19.8,0,1,.3,1.06.9-9.28.05-18.56.05-27.84.17-1.76,0-2.51-.5-2.32-2.27C703.42,149.48,703.42,148.35,703.47,147.23Z"/><path class="cls-1" d="M403.63,211.64c-.51,2.05-1.78,3-3.92,3.42s-3.91,2.15-6.34,1.91c-.93-.1-1.8.07-2-1.13A23.31,23.31,0,0,0,403.63,211.64Z"/><path class="cls-1" d="M923.38,136.37l-22,.08c.16-.86.82-1,1.52-1h18.92C922.48,135.45,923.14,135.56,923.38,136.37Z"/><path class="cls-1" d="M132.52,84.87c-2.87-.2-3,1.45-2.4,3.56-2-1.1-2.42-3.27-4-5.22C128.71,83.38,130.74,83.61,132.52,84.87Z"/><path class="cls-1" d="M45.05,112.54c.46,4,1.85,7.89,1.46,12-.84-3.31-1.7-6.62-2.51-9.94C43.77,113.65,43.86,112.79,45.05,112.54Z"/><path class="cls-1" d="M425.44,212.48c.37-1.84-1.36-3.6-.13-5.5.69-1.06,1.35-2.06,2.76-2.15A17.31,17.31,0,0,1,425.44,212.48Z"/><path class="cls-1" d="M388.63,215.85c-3.35,1.5-6.6-.55-9.93-.34-1,.06-.86-1.13-.94-1.89A30.07,30.07,0,0,0,388.63,215.85Z"/><path class="cls-1" d="M683.08,152c-3.67-1.76-2.47-5.41-3.24-8.29C681.48,146.28,682.22,149.18,683.08,152Z"/><path class="cls-1" d="M812.49,145.22c-1.78-3.06-.33-6.39-.84-9.56C813.67,138.7,812.53,142,812.49,145.22Z"/><path class="cls-1" d="M366.18,227.89a10,10,0,0,1,7.51,3.37A18.64,18.64,0,0,1,366.18,227.89Z"/><path class="cls-1" d="M358,221.11c2.52.56,4.71,1.47,4.86,4.54A13.16,13.16,0,0,1,358,221.11Z"/><path class="cls-1" d="M641.46,218.35c-.62-2.59-1-5.09,2.51-6Q642.71,215.36,641.46,218.35Z"/><path class="cls-1" d="M109.12,105.88a6.1,6.1,0,0,1-6.1.08A9.86,9.86,0,0,1,109.12,105.88Z"/><path class="cls-1" d="M299.53,133.91a25.89,25.89,0,0,1-11.52-.09A47.75,47.75,0,0,1,299.53,133.91Z"/><path class="cls-1" d="M482.49,133.85a26,26,0,0,1-11.51,0A47.66,47.66,0,0,1,482.49,133.85Z"/><path class="cls-1" d="M408.16,206c.67,2.48-.06,4-2.84,4.19Z"/><path class="cls-1" d="M363,225.75c1.37.26,2.9.26,3.16,2.15A6.14,6.14,0,0,1,363,225.75Z"/><path class="cls-1" d="M376.51,212.89c-1.62.18-3.07.15-2.75-2.14Z"/><path class="cls-1" d="M49.9,107.19c0,1.54-.83,2.15-2.29,2.07A4.85,4.85,0,0,1,49.9,107.19Z"/><path class="cls-1" d="M136.64,86.22c-1.3-.26-3.12,1-3.72-1.27A9.63,9.63,0,0,1,136.64,86.22Z"/><path class="cls-1" d="M679.14,141.81c-1.42-.55-1.64-1.58-1.15-2.89C678.38,139.88,678.76,140.85,679.14,141.81Z"/><path class="cls-1" d="M97.44,87.46c.17.58.92,1.16.4,1.73s-.85-.12-1.13-.54A1.29,1.29,0,0,1,97.44,87.46Z"/><path class="cls-1" d="M45.22,145.23a1.48,1.48,0,0,1-1.5-.94c.33-.46.82-.84,1.31-.51A1.13,1.13,0,0,1,45.22,145.23Z"/><path class="cls-1" d="M46.51,110.62c.05,1.07.11,2.15-1.5,2A2.22,2.22,0,0,1,46.51,110.62Z"/><path class="cls-1" d="M278.29,231.32c1,.06,2.17-.48,2.88.75C280.16,232,279.11,232.1,278.29,231.32Z"/><path class="cls-1" d="M684.87,156c-1.19-.3-1-1.22-1-2.09C684.62,154.43,684.6,155.28,684.87,156Z"/><path class="cls-1" d="M684,154c-1-.35-.79-1.19-.85-1.94C684,152.45,683.85,153.27,684,154Z"/><path class="cls-1" d="M679.89,143.82c-1-.4-.79-1.27-.78-2.06C679.83,142.28,679.78,143.08,679.89,143.82Z"/><path class="cls-1" d="M42.44,145.12a1.2,1.2,0,0,1-1.23.81C41.41,145.34,41.91,145.21,42.44,145.12Z"/><path class="cls-1" d="M166.28,228.07c.2-.7.75-.85,1.39-.86Z"/><path class="cls-1" d="M165.58,129a1.32,1.32,0,0,1,1.33.77C166.33,129.72,165.81,129.6,165.58,129Z"/><path class="cls-1" d="M357.4,220.41l.63.71A.65.65,0,0,1,357.4,220.41Z"/><path class="cls-1" d="M148.52,219.45l-.69,1Z"/><path class="cls-1" d="M54.64,195.38l.72.81Z"/><path class="cls-1" d="M54.92,129.7l-.79.71-.11-.12.62-.63Z"/><path class="cls-1" d="M51.92,226.54l.75.68Z"/><path class="cls-1" d="M47.19,109.8l-.7.86C46.73,110.38,47,110.09,47.19,109.8Z"/><path class="cls-1" d="M94.17,83.6l.13-.18-.16.14Z"/><path class="cls-1" d="M50.61,106.52l-.74.75Z"/><path class="cls-1" d="M51.28,106.61l-.73,0c.22-.24.44-.49.67-.73l.11.11C51.32,106.17,51.3,106.39,51.28,106.61Z"/><path class="cls-1" d="M137.33,105.88l-1-.72Z"/><path class="cls-1" d="M51.22,105.83l.73-.62.06.06-.68.67Z"/><path class="cls-1" d="M990,137.84l-.74-.93Z"/><path class="cls-1" d="M306.37,231.86c.17-.33.38-.4.64-.09Z"/><path class="cls-1" d="M52,105.21l.72-.79,0,.25-.62.6Z"/><path class="cls-1" d="M377.48,213.52l-1-.66Z"/><path class="cls-1" d="M130.13,88.36l.7.92Z"/><path class="cls-1" d="M77.06,242.79l.73.51Z"/><path class="cls-1" d="M651.18,195.46h28.57c-.13.59.11,1.85-.69,1.57-6.94-2.36-14-.39-21-.93-1-.08-2.07.87-3.15,1C653.38,197.34,651.31,198.4,651.18,195.46Z"/><path class="cls-1" d="M182.16,204c.08,0,.23.06.23.09a.74.74,0,0,1-.08.28c-.08,0-.23-.06-.23-.09A.74.74,0,0,1,182.16,204Z"/><path class="cls-1" d="M169.46,131.8l.39-.32-.31.41Z"/><path class="cls-1" d="M179.18,183.84l-.16.28.16-.28Z"/><path class="cls-1" d="M52,105.27l.62-.6c1,0,1.29.56,1.41,1.47a66.53,66.53,0,0,1-.29,16.51c-.3,2.64,1.93,4.56.89,7l-.62.63c-2.65-.31-3.39-1.44-2.86-4.29.66-3.5-.73-7.08-.64-10.72.06-2.37,0-4.52,1.4-6.54.55-.79,1.22-1.92-.64-2.13,0-.22,0-.44,0-.67Z"/><path class="cls-1" d="M79.52,97.43a4.06,4.06,0,0,1-1.1.29c-.41,0-1-.09-.82-.7.09-.26.67-.45,1.05-.49S79.54,96.62,79.52,97.43Z"/><path class="cls-1" d="M86.18,91.3c-.51.65-1.23,1.22-1.71.68-.67-.74.25-.84.76-.9A3.2,3.2,0,0,1,86.18,91.3Z"/><path class="cls-1" d="M81.92,97.81l.28.15-.28-.15Z"/><path class="cls-1" d="M118.61,224c-1.59.63-3,1.43-4.65,1.19-.72-.1-1.37-.28-1.24-1.19.11-.71.74-.87,1.29-.8C115.55,223.37,117.08,223.68,118.61,224Z"/><path class="cls-1" d="M101.65,224.48h2.21c-1,1.05-1.61.62-2.22,0Z"/><path class="cls-1" d="M90.3,112.12c-.39.51-.81.73-1.31.11Z"/><path class="cls-1" d="M135,114.16c-.54-.09-1.18,0-1.43-.65C134.14,113.41,134.68,113.49,135,114.16Z"/><path class="cls-1" d="M136.31,114.81c-.54-.08-1.11-.11-1.41-.69C135.5,114.09,136,114.18,136.31,114.81Z"/><path class="cls-1" d="M137,115.3l-.71-.53Z"/><path class="cls-1" d="M115.21,109.21c-.79.13-1.6.34-2.24-.39C113.77,108.69,114.57,108.5,115.21,109.21Z"/><path class="cls-1" d="M80,116.8c-.24.18-.48.36-.71.55C79.47,117.16,79.71,117,80,116.8Z"/></g></svg>