<svg id="Capa_1" data-name="Capa 1" xmlns="http://www.w3.org/2000/svg" viewBox="0 0 1080 331"><defs><style>.cls-1{fill:#fff;}</style></defs><g id="rjrtLB"><path class="cls-1" d="M694.76,206.31c-4-2.33-5.2-5.92-5.12-10.41.24-13.43-1.21-26.85-.2-40.3a57.75,57.75,0,0,1,3.49-17.26c3.71-9.28,12-14.49,22-13.92,4.44.25,7.79,2.69,10.75,5.7,6.73,6.84,11.63,15,16.31,23.27,5.68,10.08,10.71,20.53,17.32,30.07a56.59,56.59,0,0,0,4.34,5.32c4.79,5.4,10.89,2.09,13-2a22.48,22.48,0,0,0,2.22-7.83c1.4-12.37-.64-24.65-1-37-.07-3-.26-5.9-.26-8.85,0-5,2.66-7.94,7.09-8s7.67,3.07,7.84,7.88c.3,8.41.55,16.82.67,25.23a174.63,174.63,0,0,1-.48,21c-1.33,12.69-5.21,23.45-19.18,27.17H765c-8.1-4.05-13.34-10.93-18.33-18.14-7.36-10.64-12.5-22.52-19-33.65-2.53-4.35-5.05-8.71-8.5-12.41-4-4.24-9.08-3.82-12.5.9a14.55,14.55,0,0,0-2,4.45c-1.68,5.76-1.59,11.68-1.39,17.56.35,10.59.76,21.18,1.4,31.76.26,4.24-1,7.41-4.68,9.53Z"/><path class="cls-1" d="M632.11,205.68c-13.83-1-27.33-3.31-39.65-10.15-9.9-5.48-17.32-13.25-19.65-24.55-2.71-13.12,2.34-23.83,12.29-32.24,8.33-7,18.46-10.16,29-12a142.14,142.14,0,0,1,43.09-.61l.66.09c4.2.82,6.58,3.24,6.22,6.32s-3.81,5.13-7.93,4.6c-4.78-.61-9.56-1.08-14.37-1.27-10.54-.4-21,.2-31.07,3.65-9,3.07-16.39,8.14-20.36,17.26-1,2.37-.85,3.19,2,3.17,12.57-.12,25.15,0,37.72,0,5.27,0,7.78,3.43,6.31,8.41-.84,2.86-2.77,3.92-5.65,3.91q-18.71-.08-37.4,0c-.92,0-2.2-.5-2.7.43s.57,1.78,1.13,2.52c7.15,9.54,17.22,14.11,28.46,16.71a100.08,100.08,0,0,0,47.7-.56c4.86-1.23,8.62.2,9.52,3.31s-1.71,6.19-6.54,7.67A60,60,0,0,1,655.51,205c-1.48.05-3,0-4.07,1.3H647.5c-.32-.8-1-.67-1.66-.67Z"/><path class="cls-1" d="M834.19,205.74a58.67,58.67,0,0,1-11.65-1.68c-5.87-1.63-8.37-4.79-8.41-10.88-.07-12.35,0-24.71,0-37.06,0-4.63,2.51-7.4,6.5-7.38s6.69,2.85,6.71,7.61c0,11.16.07,22.31,0,33.46,0,2.36.52,3.42,3.07,3.74,15.75,1.94,31.25,1.57,46-5,8.64-3.87,14.63-10.09,16.24-19.92,1-6.48-1.5-11.56-5.64-16-7.68-8.29-17.58-12.25-28.43-14.43a100.14,100.14,0,0,0-46.09,1.43,10.88,10.88,0,0,1-2.58.43c-2.42,0-4.69-.52-5.74-2.94-1.13-2.58.06-4.62,2-6.4a13.1,13.1,0,0,1,6.47-3c24.09-5,47.79-4.18,70.83,5.11a44.55,44.55,0,0,1,16.18,10.94c13,14,12.28,31.32-.1,44.75-8.21,8.89-19.12,12.75-30.62,15.19-3.2.68-6.48.94-9.7,1.56-1.19.22-2.67-.24-3.52,1.11H851C845.43,205.18,839.79,206,834.19,205.74Z"/><path class="cls-1" d="M77,206.31c-1.62-1.39-3.7-.8-5.54-1.26-2.11-.53-4.31-.74-6.37-1.42-4.75-1.57-7.12-4.81-7.15-9.82q-.1-19,0-38c0-4.35,2.62-7.08,6.49-7.06s6.67,2.82,6.69,7.3c.05,11.26.08,22.51,0,33.77,0,2.36.51,3.42,3,3.75,14.61,1.86,29,1.48,43-3.68,6.36-2.35,11.94-5.9,15.75-11.74,5.86-9,5-18.29-2.43-26-7.84-8.09-17.72-12-28.59-14.11a100.14,100.14,0,0,0-45.74,1.57c-3.52.94-6.47.3-8.61-2.85v-3.93c4.92-5.48,11.76-6.23,18.37-7,18.4-2.16,36.64-1.44,54.45,4.28A56.75,56.75,0,0,1,139.41,140c20.61,17,16,41.92-3.72,54.78-9.55,6.22-20.35,8.8-31.49,10.29-1.64.22-3.48-.15-4.84,1.24h-4.6a37.12,37.12,0,0,0-13.78,0Z"/><path class="cls-1" d="M315.33,206.31c-13.13-4.21-21.88-13.9-30.05-24.23a239.64,239.64,0,0,1-27.4-44.59c-1.4-2.88-2.06-5.82-.28-8.74a7.72,7.72,0,0,1,7.09-3.94c3.55.07,5.45,2.26,6.85,5.22a259,259,0,0,0,25.69,43.72A70.18,70.18,0,0,0,309.4,187c6.27,5.05,10.77,5.15,17.1.29s10.94-11,15.44-17.3a243.53,243.53,0,0,0,23-40c3-6.45,9.82-6.63,13.45-2.09,2.33,2.91,1.94,6.08.43,9.26a251.69,251.69,0,0,1-23.55,39.67A144.89,144.89,0,0,1,345,189.59c-6.83,7.48-14.25,14.08-24.39,16.72Z"/><path class="cls-1" d="M472.88,206.31c-17.16-5.55-26.91-19.43-36.78-33a239.77,239.77,0,0,1-20.28-34.4c-.19-.39-.37-.79-.55-1.19-2.54-5.62-1.31-10.06,3.37-12.21,4.44-2,7.93-.21,10.72,5.53,8.41,17.34,17.76,34.11,30.23,49a39.09,39.09,0,0,0,10.8,9.44,9.83,9.83,0,0,0,10.27,0c5.76-3.24,10-8.11,14-13.2,10.82-13.83,19.46-29,27.08-44.78,2.95-6.12,6.51-8.08,11.1-5.84s5.79,6.72,2.87,12.62c-9.76,19.77-21,38.56-36.4,54.59-5.95,6.2-12.7,11.2-21.15,13.54Z"/><path class="cls-1" d="M265.44,206.31c-5.1-4.2-6.62-10.57-9.6-16-7.54-13.82-15.34-27.46-25.61-39.51a48.65,48.65,0,0,0-9.11-8.44c-4.47-3.11-8.88-3.21-13.39-.11-7.16,4.93-12.33,11.71-17.26,18.67a252.43,252.43,0,0,0-22.33,38.5c-1.44,3.08-3.23,5.58-6.42,6.92H159.1c-7.12-3.64-8.28-6.77-4.7-14.15,8.7-17.95,19-34.87,32.19-50,5-5.69,10.42-10.88,17.13-14.57,7.35-4,14.62-3.76,21.8.46a66.91,66.91,0,0,1,16.28,14.09c13.11,15,23.31,31.87,32.11,49.64,3.73,7.54,2.72,10.52-4.53,14.49Z"/><path class="cls-1" d="M1021.68,206.31c-3.7-2.83-5.17-7.1-7.16-11-7.93-15.62-16.6-30.78-27.9-44.27a45.44,45.44,0,0,0-9.08-8.49c-5-3.41-8.65-3.55-13.63-.23-7.43,4.95-12.61,12.05-17.65,19.19A251.46,251.46,0,0,0,925,198c-1.56,3.26-3.13,6.41-6.38,8.33H914c-6.07-4.79-6.8-7.4-3.34-14.43C919.49,174,929.77,157,943,142c4.77-5.44,10-10.38,16.34-14,7.75-4.46,15.39-4.2,22.93.46,9.67,6,16.88,14.46,23.58,23.4a239.78,239.78,0,0,1,25.77,43.26,4.43,4.43,0,0,0,.58.73v3.94c-.93,3.44-3.68,5.06-6.56,6.56Z"/><path class="cls-1" d="M1025.62,206.31c2.88-1.5,5.63-3.12,6.56-6.56,0,2.18.86,5.22-.24,6.32S1027.81,206.31,1025.62,206.31Z"/><path class="cls-1" d="M834.19,205.74c5.6.24,11.24-.56,16.81.57H833.93A1.14,1.14,0,0,0,834.19,205.74Z"/><path class="cls-1" d="M632.11,205.68l13.73,0c.63,0,1.34-.13,1.66.67H631.75Z"/><path class="cls-1" d="M81,206.31a37.12,37.12,0,0,1,13.78,0Z"/><path class="cls-1" d="M561.53,165.32V198.1c0,3.08-1,5.58-4,6.9a7.76,7.76,0,0,1-8.06-.9c-2.17-1.54-2.83-3.86-2.83-6.34,0-21.74-.08-43.49,0-65.23,0-5,3.13-7.9,7.77-7.77,4.31.12,7.1,3.19,7.12,8.11C561.57,143.68,561.53,154.5,561.53,165.32Z"/><path class="cls-1" d="M404.17,165.48q0,15.9,0,31.79c0,5.57-2.56,8.47-7.29,8.42s-7.46-3.17-7.47-8.43q0-32.12,0-64.23c0-5.28,2.61-8.18,7.2-8.24,4.77-.06,7.52,2.85,7.55,8.25C404.21,143.85,404.17,154.66,404.17,165.48Z"/></g></svg>