<svg id="Capa_1" data-name="Capa 1" xmlns="http://www.w3.org/2000/svg" viewBox="0 0 1080 331"><defs><style>.cls-1{fill:#fff;}</style></defs><g id="HWHdLn.tif"><path class="cls-1" d="M394,214.38c-5.13,0-10.27,0-15.4,0-3.26,0-4.82-1.35-5-4.61-.8-12.61-3.5-24.79-9-36.17-15.23-31.35-40.07-50.51-74.36-56.88a100.94,100.94,0,0,0-108.2,53.83,99.54,99.54,0,0,0-10.42,39.16c-.2,3.13-1.83,4.66-5,4.67h-31c-3.39,0-5.2-1.9-5-5.3,1.61-31.47,12.32-59.47,32.61-83.62,20.81-24.78,47.24-40.55,78.83-47.57A141.12,141.12,0,0,1,414.53,209.4c.15,3.07-1.7,5-4.84,5C404.44,214.4,399.2,214.38,394,214.38Z"/><path class="cls-1" d="M520.84,183.1c.81-3.12,1.64-6.24,2.45-9.36q10.17-39.59,20.29-79.19c.4-1.58,1-2.11,2.67-2.1,11.43.06,22.85,0,34.28,0,2.51,0,2.64.09,2.81,2.52q1.32,19.13,2.6,38.27,1.41,20.79,2.85,41.58,1.08,15.92,2.11,31.84l.33,5.12c.07,1.05-.44,1.53-1.46,1.53H567.24c-1.27,0-1.53-.74-1.58-1.82-.27-6.44-.59-12.89-.88-19.33l-2.22-50.73q-.57-12.89-1.1-25.78a4.28,4.28,0,0,0-.38-1.82c-.2.59-.43,1.17-.6,1.77q-13.14,47.76-26.23,95.54c-.48,1.78-1.24,2.33-3,2.31q-12.35-.13-24.68,0c-1.67,0-2.3-.6-2.7-2.13q-12.72-48.06-25.51-96.09a3,3,0,0,0-.72-1.41c-.1,1.32-.23,2.63-.31,4q-1.47,24.67-2.93,49.36-1.07,18.15-2.1,36.32c-.16,2.7-.39,5.39-.51,8.09-.07,1.34-.71,1.79-2,1.78-6.13,0-12.26-.05-18.38,0-1.56,0-2.05-.53-2-2,.54-7.7,1-15.41,1.53-23.1.6-9,1.24-18,1.85-27.06q1.11-16.33,2.22-32.67,1.06-15.92,2.11-31.84c.33-5,.15-4.18,4.4-4.19,11.37,0,22.74,0,34.12,0a2.42,2.42,0,0,1,2.8,2.21q10.74,43.53,21.58,87c.12.48.29.94.44,1.41Z"/><path class="cls-1" d="M343.86,214.59H329c-3.87,0-5.27-1.24-5.76-5a50.93,50.93,0,0,0-100.61-3c-.2,1.13-.31,2.29-.45,3.44-.36,2.93-2,4.53-4.9,4.54q-15.81.08-31.63,0c-3.32,0-5-1.8-4.79-5.14a86.81,86.81,0,0,1,15.09-44.35C209.61,145,228.37,132,252.12,126.65,304,115,353.59,148.72,363,198.59c.66,3.51,1,7.08,1.36,10.64s-1.43,5.32-4.92,5.35C354.23,214.63,349,214.59,343.86,214.59Z"/><path class="cls-1" d="M661.39,157.14c-.17-4.33.3-8.55-1.83-12.4-1.5-2.73-4.14-3.87-7-4.51-6.65-1.49-13.41-1.35-20.11-.77-7.24.62-14.43,1.81-21.64,2.77-1.64.22-2,0-2-1.66,0-5.08,0-10.15,0-15.22a1.65,1.65,0,0,1,1.54-1.93c16.88-3,33.84-4.29,50.89-1.88a44.41,44.41,0,0,1,11.53,3.39c9.81,4.33,14.36,12.39,15.16,22.82.1,1.26.09,2.54.09,3.8,0,19.69,0,39.38,0,59.06,0,1.71-.45,2.36-2.27,2.56-15.56,1.67-31.13,2.72-46.77,1.8-7.68-.46-15.29-1.34-22.33-4.78-8-3.88-12.22-10.38-13.45-19a35.07,35.07,0,0,1,.39-13.31c2-8.1,7.42-13,14.86-16.1a55.39,55.39,0,0,1,18-3.92c7.6-.44,15.22-.51,22.83-.74C659.94,157.12,660.54,157.14,661.39,157.14Zm0,28.62c0-3-.08-6.06,0-9.08.05-1.43-.37-2-1.82-2-6.17.12-12.35,0-18.51.31-7.18.38-10.34,3.74-10.67,10.65-.26,5.56,1.88,9.19,6.4,10.71a17.84,17.84,0,0,0,3.53.79,89.09,89.09,0,0,0,19.79-.34c1-.11,1.27-.58,1.26-1.51C661.37,192.15,661.4,189,661.4,185.76Z"/><path class="cls-1" d="M900.42,215.44c-8.76-.3-17.18-1.73-25.06-5.61a39.91,39.91,0,0,1-21.47-25.55,56.88,56.88,0,0,1,.27-34c4.48-14,14.06-23.11,28-27.38a60.35,60.35,0,0,1,38.88.73c15.2,5.48,24.07,16.64,27.18,32.32,2.26,11.33,1.61,22.54-3.42,33.14-6.54,13.78-17.71,21.79-32.47,24.9C908.46,214.77,904.41,215,900.42,215.44Zm21.5-44.77c-.25-8.3-.46-14-2.34-19.41-2.18-6.3-6.39-10.42-13-11.52a41.15,41.15,0,0,0-9.54-.4c-8.5.6-13.84,5-16.2,13.22-2.11,7.32-2.08,14.82-1.46,22.31a46.19,46.19,0,0,0,1.81,9.37c2,6.49,6.35,10.69,13.12,11.81a40.65,40.65,0,0,0,10,.37c8.13-.69,13.6-5.09,15.56-13A122.37,122.37,0,0,0,921.92,170.67Z"/><path class="cls-1" d="M272.47,256.4c-23,0-41.67-18.5-41.64-41.25s18.79-41.14,41.82-41.1c22.87,0,41.58,18.56,41.58,41.19S295.49,256.41,272.47,256.4Z"/><path class="cls-1" d="M755.1,215c-9,.18-17.74-.68-26.18-3.88-15.91-6-25-17.69-27.95-34.24-1.66-9.37-1.4-18.69,2.13-27.67,5.75-14.63,16.74-23.25,31.73-27.11,9.1-2.35,18.37-2.3,27.63-1.46,4.82.43,9.6,1.34,14.4,2,1.25.17,1.66.72,1.65,1.94,0,4.79,0,9.59,0,14.39,0,1.72-.4,2-2.12,1.79-7.74-1-15.5-1.68-23.27-.77A57.58,57.58,0,0,0,742,142.31c-7,2.31-11.43,7.32-13.15,14.51a44.06,44.06,0,0,0,0,20.8c2.24,9.3,8.65,14.25,17.65,16.27,8.45,1.89,17,1.58,25.54.84,1.92-.16,3.83-.42,5.75-.64,1-.12,1.55.29,1.55,1.38,0,5,0,10,0,15.05,0,1.34-.91,1.59-1.93,1.83A106.51,106.51,0,0,1,755.1,215Z"/><path class="cls-1" d="M816.45,129.36c1.44-.72,2.66-1.32,3.86-2,9.32-4.8,19.28-6.4,29.66-6,1.13,0,1.61.54,1.62,1.61q0,9.44.09,18.86c0,1.41-.84,1.58-2,1.6-4.52.11-9.05.13-13.56.42A40,40,0,0,0,821,147.65a2.9,2.9,0,0,0-1.87,3q.09,30,0,60.05c0,2.71,0,2.71-2.78,2.71q-10.85,0-21.7,0c-2,0-2.19-.21-2.2-2.18v-87c0-2,.21-2.2,2.17-2.2,6.57,0,13.14,0,19.71,0,1.61,0,2.17.61,2.1,2.15S816.45,127.45,816.45,129.36Z"/></g></svg>