<svg id="Capa_1" data-name="Capa 1" xmlns="http://www.w3.org/2000/svg" viewBox="0 0 1080 331"><defs><style>.cls-1{fill:#fff;}</style></defs><g id="sj83tF"><path class="cls-1" d="M250.06,229.91c-.87-1.28.28-2.09.77-3,2.4-4.35,5-8.58,7.31-13,6.39-12.36,17.25-19,29.76-23.59.76-.28,1.51-.58,2.26-.87l3.64-1.06,1.22-.24,8.56-1.56,1.24-.13a9.65,9.65,0,0,0,1.52,0c12.09-1.57,24.14-.89,36.2.59,13.12,1.61,26,4.65,39.17,6,2.73.29,5.47.53,8.21.68a27.88,27.88,0,0,0,8.15-.3c-16.17-1.16-31.51-6.11-47.06-10.05-8.37-2.12-16.71-4.37-25.39-4.88a7.8,7.8,0,0,0-3.68-.38c-5.27-.89-10.57-.52-15.82,0-10.15,1-20.15,2.66-29.39,7.36-.34-.43-2.26.74-1.16-1.16,2.67-4.57,5.31-9.15,8-13.71,6.52-11,17-15.41,29-17.69,14-2.69,27.58-.4,41.15,2.68,13.4,3.05,26.71,6.5,40.4,8.09,23.83,2.75,45.77-2.12,65.63-15.81.95-.65,1.7-2.21,3.33-1.43H463q-11.49,20-23,39.94c-6.44,11.21-13,22.34-19.26,33.65-6.33,11.47-16.49,15.76-28.88,16.09-12.17.33-23.86-2.41-35.43-5.83s-22.82-8.17-34.8-10.32c-2.79-.5-5.53-1.36-8.41-1.12a16.82,16.82,0,0,0-5.93-.81l-1.86-.13a89.76,89.76,0,0,0-27.49,1.83l-1.44.39-.23-.1-.2.17a82.23,82.23,0,0,0-26,9.63Z"/><path class="cls-1" d="M490.29,123.77c16.61,0,33.22,0,49.83.15,8.11,0,16.06,1.14,23.43,4.79,11.75,5.83,17.69,15.47,18.41,28.45.76,13.55-3.82,24.56-15.55,32-1.85,1.18-.57,1.95,0,2.85q11.31,16.68,22.66,33.32c.27.41.52.83.77,1.24-.72.9-1.6.54-2.33.52-8.65-.2-17.32.64-25.94-.61a18.56,18.56,0,0,1-13.8-9c-4-6.38-8.29-12.56-12.38-18.88a3.2,3.2,0,0,0-3.21-1.67,60.11,60.11,0,0,1-7.94,0c-2.5-.21-3.3.51-3.24,3.12.17,8,0,16.1.11,24.15,0,2.4-.71,3-3.09,3-8.35-.14-16.71,0-25.07,0-1,0-2.28.5-3.08-.71,0-.91.12-1.83.12-2.74q0-48.15,0-96.29C490.05,126.2,490.21,125,490.29,123.77Zm30.8,37.4h0c0,2.75.09,5.51,0,8.25-.09,2,.67,2.63,2.65,2.55,3.56-.15,7.13-.08,10.69,0,3.37,0,6.73,0,10-1.09a9.17,9.17,0,0,0,6.6-9.22c0-4.89-1.85-7.61-6.32-9.34a17,17,0,0,0-6-1.14c-5.2,0-10.39.07-15.59,0-1.7,0-2,.6-2,2.13C521.17,155.87,521.09,158.53,521.09,161.17Z"/><path class="cls-1" d="M627.3,189.09l.12,1.26a2,2,0,0,0,.39,1.76,14.53,14.53,0,0,0,12,12.74c7.22,1.39,13.95-1.22,17.21-6.8a17.29,17.29,0,0,0,2.57-9.54,14.12,14.12,0,0,0,.41-2.38q0-30.62-.09-61.21c.6-1,1.61-.72,2.47-.72,9.56,0,19.11,0,28.67,0,1.82,0,2.51.42,2.42,2.36-.12,2.72.1,5.46.17,8.19-.06.6-.19,1.2-.19,1.8q0,26.63,0,53.25c-.91,7.21-2.69,14.1-6.37,20.49-6.42,11.15-16.85,16-28.71,18.59-3,.66-6,1-9,1.5a92.76,92.76,0,0,1-11.79,0,81.73,81.73,0,0,1-16.27-3.68c-11.6-4.23-19.43-12.15-23.59-23.75-.34-1-.74-1.87-1.11-2.81a.46.46,0,0,0-.1-.56c-.14-.41-.27-.83-.4-1.24a84.38,84.38,0,0,1-1.27-11.77q0-31.08,0-62.17l1.15-.27c9.25,0,18.5.22,27.75,0,2.82-.06,3.3.81,3.28,3.39-.11,18.2-.07,36.39,0,54.59C627,184.43,627.2,186.76,627.3,189.09Z"/><path class="cls-1" d="M752.35,123.2c14.08-.08,27.2,3.22,38.94,11.31,1.82,1.26,2.46,2.18.92,4.19-2,2.58-3.6,5.42-5.36,8.16-5,7.75-10.48,9.41-19,5.66a46.17,46.17,0,0,0-13.05-4.08,20.08,20.08,0,0,0-9.93,1,5.35,5.35,0,0,0-3.66,4.48c-.32,2.38,1.27,3.49,3,4.5,3.46,2.06,7.33,3,11.2,3.88,7.85,1.79,15.56,4,22.78,7.65,16.12,8.23,20.88,25.72,11.34,41.14-6.61,10.67-16.64,16-28.47,18.14-20.92,3.78-40.25-.31-57.69-12.75-2-1.44-2.33-2.44-.58-4.42,2.74-3.13,5.23-6.51,7.65-9.9,3.26-4.56,7.67-5.73,12.91-4.78,3.15.58,5.94,2.08,8.76,3.49,5.55,2.76,11.29,4.69,17.59,4.24a20.33,20.33,0,0,0,5.1-.87c2.51-.86,4.45-2.4,4.74-5.38s-1.26-5-3.8-6.35c-5-2.6-10.68-3.21-16.08-4.63-6.51-1.7-13-3.47-18.83-7-16.92-10.18-18.91-32.83-4.15-46.09,8.51-7.65,18.79-10.67,29.9-11.57C748.47,123.06,750.42,123.2,752.35,123.2Z"/><path class="cls-1" d="M406.3,150.51c-2.81-7.64-8.82-10.57-15.51-12.7a60.18,60.18,0,0,1-16.55-7.71c-8.11-5.68-11.33-13.93-12.51-23.93,10.72,7.33,22.47,11.52,33.4,17.32,5.33,2.82,10.39,6,13.85,11.68,5.9-11.95,16.77-16.93,28-21.48,10.08-4.1,20.45-7.54,29.85-13.17,3-1.83,6-3.81,9-5.74.58.8-.07,1.49-.3,2.16-5.44,16.17-16.63,26.43-32.71,31.59-5.13,1.65-10.29,3.21-15.45,4.76C418.2,136,411.59,141.91,406.3,150.51Z"/><path class="cls-1" d="M830.41,137.65a13.32,13.32,0,1,1-13.24-13.5A13.35,13.35,0,0,1,830.41,137.65Zm-13.32-11.28a11.21,11.21,0,1,0,11.18,11.32A11.26,11.26,0,0,0,817.09,126.37Z"/><path class="cls-1" d="M637.62,230.33a92.76,92.76,0,0,0,11.79,0A15,15,0,0,1,637.62,230.33Z"/><path class="cls-1" d="M627.81,192.11a2,2,0,0,1-.39-1.76C628.5,190.73,628.68,191.3,627.81,192.11Z"/><path class="cls-1" d="M596.55,199.53a.46.46,0,0,1,.1.56,2.19,2.19,0,0,1-.25-.37S596.49,199.6,596.55,199.53Z"/><path class="cls-1" d="M463.05,146.52l-.33-.51.18,0c0,.17,0,.35.07.53Z"/><path class="cls-1" d="M250,229.9l-.45-.17c.34-.47.3.14.47.18Z"/><path class="cls-1" d="M823.09,144.44c-2.14.63-3.73.56-4.73-1.54a11.19,11.19,0,0,0-1.59-2.23,1.62,1.62,0,0,0-1.7-.38c-1.14.31-.7,1.33-.71,2.05,0,1.27.14,2.47-1.76,2.43s-1.46-1.31-1.47-2.36c0-3.26,0-6.51,0-9.76,0-1.05,0-2.09,1.55-2a52.67,52.67,0,0,1,6.67.29c3.35.61,5.08,4.67,2.74,7s-1.06,3.48.17,5.14C822.53,143.45,822.75,143.88,823.09,144.44Zm-6.77-10.94c-1.12-.28-2.14-.09-2,1.89.07,1.36.13,2.46,1.91,2.21,1.43-.19,3.34.11,3.47-2C819.78,133.74,818.24,133.48,816.32,133.5Z"/></g></svg>