<svg viewBox="0 0 1880 500" xmlns="http://www.w3.org/2000/svg"><g fill="#fff"><path d="m397.71 91.01c3.55 1.72 7.56 1.95 11.18 3.55 17.75 7.86 27.34 25.02 24.8 44.69-2.31 17.92-16.66 32.27-35.5 34.68-13.14 1.68-24.82-2.23-34.29-11.61-5.29-5.25-10.95-9.77-18.24-11.74-15.37-4.16-28.67-.49-39.96 10.74-13.18 13.11-30.73 16.54-47.25 9.3-5.23-2.3-9.58-5.82-13.61-9.85-14.66-14.67-36.14-15.94-52.49-3.19-16.41 12.8-21.83 33.02-13.52 50.55 2.38 5.03 5.8 9.39 9.51 13.47 15.26 16.77 15.41 41.75-.78 57.64-13.59 13.35-18.58 37.27-1.73 56.94 14.18 16.55 38.22 19.29 55.55 5.78 5.66-4.41 10.74-9.51 17.5-12.53 25.37-11.34 55.4 6.16 57.78 33.83 1.92 22.37-12.48 41.53-34.65 45.12-13.99 2.27-26.37-1.92-36.34-12.15-7.67-7.87-16.7-12.43-27.8-12.67-11.46-.25-21.19 3.77-29.14 11.93-8.89 9.13-19.53 13.89-32.36 13.27-19.46-.94-35.04-14.36-38.94-33.4-.18-.86 0-1.83-.77-2.51v-10.14c1.87-10.05 6.05-18.77 13.4-26.18 16.37-16.51 15.94-40.13-.66-56.55-2.73-2.7-5.03-5.71-7.06-8.98-3.16-5.07-4.19-10.81-5.67-16.43 0-2.93 0-5.86 0-8.79.15-.29.4-.57.44-.87 1.13-10.05 5.81-18.3 12.86-25.38 16.26-16.32 16.24-40.12-.04-56.34-3.87-3.86-6.98-8.21-9.39-13.12-1.95-3.96-2.38-8.34-3.86-12.42 0-3.38 0-6.76 0-10.14.2-.25.55-.49.58-.76.97-7.84 4.22-14.71 9.25-20.67 6.52-7.74 14.63-12.87 24.99-13.82 3.93-.53 7.88-.64 11.84-.4 9.69 1.05 17.72 5.38 24.58 12.17 9 8.91 19.9 12.89 32.52 11.74 10.45-.95 18.9-6.16 26.41-13.11 4.52-4.18 9.68-7.32 15.54-9.23 2.86-.93 5.8-1.62 8.71-2.42h8.8c.94.99 2.28.9 3.45 1.12 8.21 1.56 15.22 5.4 21.16 11.16 16.57 16.09 38 17.1 55.96 2.44 5.75-4.69 11.25-9.65 18.49-12.12 2.85-.97 5.95-1.11 8.63-2.61h10.16z"/><path d="m151.46 92.26c.36-.42.72-.83 1.08-1.25h10.84c-.03.28-.05.57-.08.85-3.96-.24-7.9-.13-11.84.4z"/><path d="m1238.81 206.96v-3.61c0-35.82.03-71.63-.06-107.45 0-2.78.66-3.59 3.51-3.51 7.78.22 15.57.13 23.35.03 2.03-.03 2.98.55 2.69 2.66-.06.44 0 .9 0 1.35 0 80.08-.02 160.16.07 240.24 0 3.13-.56 4.26-3.97 4.13-7.66-.29-15.35-.17-23.02-.04-2.12.04-2.66-.58-2.6-2.64.15-5.4.06-10.81.04-16.22 0-1.06-.1-2.13-.18-3.86-2.19 2.56-3.8 4.69-5.65 6.57-14.21 14.39-31.79 20.42-51.68 19.9-40.47-1.06-70.94-29.32-75.31-69.47-2.18-20.08.29-39.39 10.75-56.98 13.98-23.5 35.27-35.19 62.35-36.76 17.56-1.01 33.67 3.2 47.84 13.91 4.43 3.35 8.03 7.5 11.89 11.75zm-43.11 110c8.6-.08 22.64-5.76 32.72-19.37 6.18-8.34 9.06-18 10.01-28.23 1.39-15.05-1.28-29.26-10.44-41.55-10.45-14.01-25.17-19.62-42.27-18.98-19.68.73-34.86 9.27-43.53 27.41-5.53 11.57-6.5 23.91-4.99 36.6 3.11 26.2 24.11 44.73 58.5 44.13z"/><path d="m1649.23 252.4c7.62-7.62 14.63-14.6 21.61-21.6 14.31-14.36 28.64-28.71 42.89-43.14 1.88-1.9 3.78-2.67 6.5-2.63 12.14.16 24.29.07 36.69.07-4.45 4.56-8.55 8.93-12.85 13.11-19.21 18.7-38.44 37.36-57.75 55.96-1.39 1.34-1.17 1.92-.02 3.15 19.55 20.87 39.05 41.78 58.57 62.68 5.76 6.17 11.54 12.33 17.29 18.5.35.38.59.86 1.19 1.76h-15.21c-7.79 0-15.57-.08-23.36.05-2.23.04-3.71-.65-5.18-2.31-22.73-25.41-45.52-50.76-68.31-76.13-.49-.55-1.02-1.07-2.06-2.17v4.35c0 24.32-.05 48.65.07 72.97.01 2.71-.7 3.35-3.31 3.29-7.67-.18-15.35-.17-23.02 0-2.59.06-3.46-.54-3.42-3.31.17-12.05.07-24.1.07-36.14 0-68.13.03-136.26-.09-204.39 0-3.52.94-4.31 4.3-4.19 7.3.27 14.63.19 21.94.02 2.7-.06 3.53.59 3.53 3.46-.1 45.49-.07 90.99-.07 136.48v20.14z"/><path d="m1389.55 273.49c-19.75 0-39.5.05-59.25-.06-2.76-.02-3.37.68-3.15 3.42 1.6 19.87 17.64 35.74 38.83 40.51 11.47 2.58 22.84 2.5 33.7-2.61 8.4-3.95 15.16-10.08 21.1-17.07 1.58-1.86 2.45-1.78 4.23-.36 5.9 4.7 11.91 9.27 17.99 13.74 1.67 1.23 1.82 1.91.45 3.59-14 17.05-32.13 26.44-53.88 29.06-15.17 1.83-30.15 1.06-44.6-4.44-22.26-8.46-37.22-24.13-44.6-46.6-8.16-24.85-7.05-49.39 6.13-72.32 15.42-26.83 39.55-39.3 70.27-39.59 21.43-.2 40.07 6.52 54.87 22.44 11.28 12.13 16.83 26.89 19.36 42.99 1.29 8.16 1.27 16.36 1.32 24.58.01 2.25-.66 2.77-2.83 2.76-19.98-.08-39.95-.05-59.93-.05zm-15.71-23.6c14.65 0 29.31.01 43.96-.02 1.22 0 2.86.79 2.73-1.89-1.17-23.67-13.93-40.15-37.74-43.06-27.77-3.38-52.43 15.16-55.52 41.63-.3 2.58.1 3.43 2.94 3.4 14.54-.15 29.08-.07 43.63-.07z"/><path d="m761.87 344.59c-46.37-.22-82.67-36.28-82.58-82.03.09-45.31 37.66-82.09 83.5-81.76 45.64.33 82.23 36.93 82.05 82.06-.19 45.82-36.86 81.94-82.97 81.72zm-.29-27.5c17.49-.21 31.93-6.28 42.05-20.69 6.45-9.19 9.12-19.74 9.54-30.83.54-14.34-2.38-27.9-11.63-39.23-12.39-15.19-29.12-19.71-47.93-17.28-14.07 1.82-25.51 8.58-33.54 20.43-6.02 8.89-8.68 18.95-9.21 29.59-.61 12.27 1.43 24.07 7.85 34.67 9.74 16.09 24.76 22.87 42.87 23.34z"/><path d="m973 208.93c14.09-23.31 35.04-29.86 59.77-27.61 15.35 1.4 28.43 7.65 37.64 20.49 6.95 9.7 10.46 20.76 10.57 32.56.3 34.46.17 68.92.28 103.38 0 2.21-.8 2.58-2.76 2.55-7.79-.1-15.58-.15-23.36.02-2.62.06-3.37-.58-3.36-3.31.11-28.49.08-56.99.06-85.48 0-7.55-.41-15.05-3.26-22.2-5.03-12.63-14.45-19.49-27.87-20.73-13.56-1.26-25.79 1.86-35.33 12.2-7.21 7.82-10.38 17.45-11.71 27.8-.49 3.8-.69 7.61-.69 11.44.04 25.57-.02 51.13.08 76.7.01 2.72-.57 3.68-3.49 3.6-7.67-.22-15.35-.15-23.02-.02-2.24.04-3.09-.36-3.09-2.87.1-50 .11-100.01.07-150.01 0-2.05.47-2.69 2.6-2.66 8.12.13 16.25.15 24.38-.01 2.27-.04 2.55.83 2.52 2.72-.08 6.93-.03 13.87-.03 21.46z"/><path d="m1528.8 344.6c-14.14-.14-27.85-2.14-40.31-9.42-7.11-4.15-12.8-9.85-17.83-16.29-.97-1.24-1.35-2 .19-3.24 6.5-5.2 12.93-10.5 19.26-15.91 1.82-1.56 2.5-.18 3.54.76 6.72 6.03 13.5 12.14 22.44 14.59 11.78 3.23 23.47 2.71 34.54-2.88 7.73-3.91 11.14-10.35 9.86-18.15-1.12-6.81-6.08-10.49-11.71-13.47-6.45-3.42-13.56-4.72-20.57-6.37-11.07-2.61-22.22-4.98-32.3-10.55-16.88-9.32-21.97-24.25-19.58-41.89 2.27-16.83 12.47-27.98 27.51-34.47 22.57-9.75 45.15-9.04 67.14 2.24 6.53 3.35 11.45 8.64 15.76 14.52 1.34 1.83.86 2.78-.76 3.99-6.13 4.59-12.29 9.16-18.21 14.01-2.12 1.74-3.13 1.37-4.79-.45-5.08-5.58-11.06-9.97-18.55-11.72-10.16-2.38-20.16-2.21-29.45 3.23-9.22 5.39-10.38 17.42-2.45 24.61 7.5 6.8 16.84 9.25 26.49 10.87 9.47 1.59 18.68 4.13 27.51 7.85 18.57 7.82 27.78 23.66 25.7 43.7-2.12 20.36-14.18 32.58-32.51 39.66-4.75 1.83-9.72 2.82-14.74 3.63-5.36.86-10.75 1.22-16.18 1.17z"/><path d="m645.39 299.21c6.64 6.63 13.22 13.24 19.87 19.79 1.48 1.46.25 2.14-.56 2.98-8.22 8.52-17.93 14.61-29.33 17.94-22.19 6.48-44.12 6.05-65.31-3.59-22.74-10.35-36.62-28.24-41.91-52.48-4.97-22.77-2.76-44.91 9.26-65.18 13.54-22.85 34.53-34.4 60.67-36.91 18.5-1.77 36.1 1.42 52.37 10.71 5.6 3.2 10.58 7.24 15.09 11.88 1.26 1.3 1.22 1.92-.16 3.13-6.24 5.52-12.4 11.12-18.46 16.83-1.63 1.53-2.48 1.7-4.21 0-7.67-7.59-16.54-13.18-27.42-14.84-28.53-4.35-50.8 11.49-56.37 40.03-3.37 17.29-1.44 33.63 9.43 48.09 11.05 14.71 26.28 20.01 44.22 18.83 13.39-.88 23.9-7.25 32.84-17.21z"/><path d="m902.18 262.29c0 24.91-.03 49.83.05 74.74 0 2.37-.35 3.37-3.06 3.3-7.9-.2-15.8-.16-23.7-.01-2.41.04-3-.72-3-3.05.06-50.01.06-100.02 0-150.03 0-2.23.6-2.9 2.84-2.87 7.79.12 15.58.17 23.36-.02 2.8-.07 3.58.68 3.57 3.53-.12 24.8-.07 49.6-.07 74.4h.01z"/><path d="m887.42 107.11c11.81.11 21.52 9.83 21.47 21.48-.05 11.91-9.89 21.87-21.58 21.84-11.96-.03-21.77-10.05-21.65-22.13.11-11.65 10.02-21.3 21.76-21.19z"/><path d="m275.7 267.93c-7.98-.05-14.7-6.71-14.67-14.54.03-8.22 6.62-14.76 14.82-14.72 7.93.03 14.61 6.79 14.53 14.69-.08 7.92-6.84 14.62-14.69 14.57z"/><path d="m378.53 252.5c.12-8.21 6.49-14.35 14.78-14.25 7.87.09 14.53 6.79 14.39 14.47-.15 8.31-6.74 14.76-14.94 14.64-8.09-.12-14.35-6.65-14.23-14.85z"/><path d="m393.04 353.89c8 0 14.64 6.61 14.64 14.6 0 8-6.61 14.55-14.67 14.53-8.14-.02-14.49-6.4-14.49-14.58 0-8.16 6.38-14.54 14.52-14.55z"/></g></svg>