<?xml version="1.0" encoding="UTF-8"?><svg id="Capa_1" xmlns="http://www.w3.org/2000/svg" viewBox="0 0 1722 500"><defs><style>.cls-1{fill:#fff;}</style></defs><g id="sXbvP7.tif"><g><path class="cls-1" d="M1479.62,334.37c-.25,2.8-.44,5.61-.76,8.4-1.86,16.04-8.45,29.71-20.7,40.39-11.1,9.68-24.08,15.6-38.44,18.7-15.76,3.4-31.68,3.53-47.65,2.54-19.64-1.22-38.76-5.05-57.22-11.97-.95-.36-1.48-.74-1.51-1.91-.16-5.89-.45-11.77-.68-17.66-.37-9.2-.74-18.39-1.11-27.59-.19-4.78-.36-9.56-.62-14.34-.06-1.14,.32-1.64,1.39-1.93,3.01-.82,6.01-1.73,9.09-2.62,1.56,3.86,3.03,7.74,4.69,11.53,5.33,12.15,11.79,23.58,21.36,32.99,10.63,10.46,23.36,15.75,38.33,15.32,7.03-.2,13.81-1.62,19.64-5.81,13.07-9.41,17.9-23.49,12.81-37.79-2.4-6.74-7.06-11.85-13.08-15.7-8.21-5.26-17.12-9.06-26.22-12.41-11.93-4.39-23.82-8.84-34.71-15.52-7.59-4.66-14.57-10.01-19.58-17.55-5.81-8.75-8.18-18.51-8.67-28.86-.56-11.85,1.68-23.08,7.61-33.41,6.44-11.23,15.62-19.79,26.71-26.33,11.17-6.58,23.33-10.2,36.18-11.53,21.43-2.22,42.57-.54,63.33,5.22,4.77,1.32,9.38,3.22,14.06,4.84,1.42,.49,1.98,1.29,2.05,2.96,.51,12.92,1.2,25.84,1.81,38.76,.18,3.86,.33,7.72,.42,11.58,.01,.49-.31,1.33-.66,1.44-3.2,1.01-6.44,1.89-9.78,2.84-1.08-3-2.05-5.89-3.15-8.73-4.35-11.35-9.81-22.09-18.46-30.85-11.05-11.19-24.4-15.92-40.02-13.28-8.39,1.42-14.42,6.57-18.17,13.96-4.91,9.65-5.67,19.77-1.1,29.82,2.91,6.42,8.18,10.81,14.07,14.42,10.14,6.2,21.1,10.66,32.19,14.81,12.15,4.55,23.88,9.89,34.48,17.52,12.52,9.01,19.71,21.07,21.36,36.41,.24,2.19,.47,4.38,.71,6.56v4.79Z"/><path class="cls-1" d="M879.51,394.32c.31-7.68,.73-15.15,.87-22.63,.28-14.55,.5-29.1,.57-43.66,.18-36.05,.38-72.1,.34-108.15-.02-16.69-.52-33.39-.91-50.08-.15-6.44-.46-12.88-.98-19.3-.47-5.88-1.83-11.6-3.89-17.15-2.21-5.99-6.72-9-12.78-9.99-3.45-.56-6.92-1.04-10.4-1.38-1.38-.13-1.76-.61-1.69-1.93,.1-1.96-.05-3.93,.09-5.88,.03-.5,.67-1.29,1.14-1.38,18.61-3.6,37.23-7.14,55.85-10.66,12.29-2.33,24.59-4.62,36.89-6.92,.42-.08,.84-.14,1.37-.22-.59,16.85-1.31,33.6-1.71,50.35-.4,16.74-.48,33.48-.7,50.6,2.57-1.1,4.79-2.04,7.01-2.99,10.36-4.43,21.06-7.8,32.25-9.23,23.45-3,44.98,1.54,63.34,17.22,14.13,12.06,23.64,27.2,29.29,44.83,4.86,15.15,6.12,30.72,5.45,46.51-.81,19.08-4.62,37.48-13.58,54.48-13.9,26.34-35.1,44-63.78,52.51-16.73,4.97-33.88,6.4-51.19,5.44-11.93-.66-23.86-1.92-35.7-3.59-11.83-1.67-23.54-4.18-35.3-6.33-.59-.11-1.17-.29-1.85-.46Zm63.61-107.86c.15,0,.29,0,.44,0,0,5.19-.07,10.38,.01,15.57,.33,20.6,.66,41.19,1.09,61.79,.15,7.54,.57,15.07,.83,22.61,.04,1.13,.21,1.74,1.58,1.88,3.11,.31,6.22,.69,9.27,1.34,4.01,.86,7.96,1.11,12,.22,8.46-1.87,15.09-6.61,20.64-13.03,7.87-9.1,12.89-19.77,16.77-31.04,4.96-14.42,7.34-29.3,8.14-44.49,.68-12.84,.54-25.64-1.57-38.36-2.16-13.01-6.3-25.32-13.47-36.47-5.06-7.88-11.53-14.21-20.67-17.19-11.42-3.73-22.79-2.24-34.07,.81-.47,.13-.99,1.12-1,1.72-.07,4.04,.01,8.07,.01,12.11,0,20.84,0,41.69,0,62.53Z"/><path class="cls-1" d="M354.93,259.63c0,2.44-.04,4.76,0,7.08,.28,13.31,.44,26.61,.91,39.91,.38,10.78,1.02,21.55,1.74,32.31,.57,8.49,1.01,16.98,3.11,25.33,3.75,14.91,15.09,20.92,27.27,22.05,5.13,.47,10.27,.78,15.51,1.17v12.37H242.51v-12.37c4.25-.61,8.48-1.24,12.71-1.82,5.52-.75,10.81-2.12,15.53-5.26,5.64-3.75,8.26-9.36,10.04-15.58,2.34-8.18,3.28-16.59,3.91-25.03,.74-10.03,1.49-20.07,1.93-30.12,.56-12.69,.91-25.4,1.15-38.1,.21-11.04,.35-22.1,.15-33.14-.27-15.34-.71-30.68-1.4-46.01-.61-13.66-1.46-27.33-2.59-40.96-.47-5.64-1.63-11.28-3.06-16.77-2.57-9.81-9.56-15.33-18.95-18.32-5.75-1.83-11.7-2.04-17.62-2.56-1.53-.13-1.98-.6-1.94-2.09,.1-3.43,.03-6.86,.03-10.43h249.81c.13,3.86,.27,7.76,.38,11.66,.42,14.22,.82,28.44,1.25,42.67,.28,9.13,.58,18.25,.92,27.37,.05,1.22-.22,1.83-1.54,2.18-4.44,1.19-8.83,2.55-13.37,3.88-1.16-3.29-2.27-6.57-3.46-9.82-4.38-11.99-9.95-23.34-18.05-33.3-10.98-13.5-24.88-22.13-42.39-23.56-10.96-.9-22.03-.56-33.06-.69-7.59-.09-15.19,.02-22.79-.05-1.59-.02-2.24,.3-2.31,2.08-.55,13.85-1.33,27.7-1.82,41.55-.41,11.7-.59,23.41-.75,35.12-.19,13.44-.26,26.89-.38,40.33,0,.37,.04,.73,.08,1.31,2.01,0,4.01,.03,6,0,9.3-.17,18.6-.27,27.89-.57,11.13-.37,19.63-5.57,25.88-14.62,5.16-7.48,8.04-15.93,10.23-24.64,.35-1.38,.83-1.91,2.3-1.87,3.49,.11,6.98,.03,10.57,.03v101.59c-3.91,0-7.77,.04-11.62-.06-.38,0-.94-.81-1.07-1.33-1.76-6.97-3.93-13.79-7.32-20.17-4.07-7.65-9.41-14.03-17.57-17.62-3.77-1.66-7.72-2.46-11.8-2.55-10.83-.25-21.67-.44-32.5-.66-.24,0-.48,.03-1,.07Z"/><path class="cls-1" d="M576.85,180.35c11.32,.1,25.49,1.78,39.16,6.68,14.64,5.25,27.08,13.63,37.05,25.67,13.19,15.94,21.12,34.18,24.5,54.49,2.91,17.51,2.86,35.04-.51,52.45-4.46,23.11-15.36,42.75-32.72,58.75-13.96,12.87-30.49,20.56-49.02,24.15-15.57,3.01-31.24,3.17-46.89,1.03-15.24-2.08-29.57-6.83-42.36-15.66-10.7-7.39-18.95-17.01-25.72-27.97-8.97-14.54-14.12-30.4-16.2-47.3-1.97-16.07-1.69-32.08,1.52-47.97,3.71-18.32,11.53-34.66,23.81-48.84,14.06-16.24,31.47-26.92,52.38-31.92,9.84-2.35,19.74-3.49,35-3.55Zm36.08,113.91c-.23-6.71-.42-12.84-.67-18.96-.57-14.32-2.32-28.48-6.35-42.27-2.77-9.5-6.43-18.62-12.45-26.66-9.77-13.03-24.57-14.33-36.26-8.51-6.93,3.45-11.36,9.4-14.84,16.1-4.57,8.79-7.05,18.26-8.8,27.93-1.94,10.7-2.95,21.49-3.38,32.36-.6,15.17-.64,30.32,.72,45.46,1.02,11.32,2.77,22.49,6.01,33.39,3.06,10.27,7.05,20.08,14.22,28.35,10.66,12.29,29.4,13.12,40.96,1.67,6.59-6.53,10.27-14.74,12.99-23.39,3.99-12.7,5.81-25.81,6.69-39.04,.6-8.99,.8-18,1.16-26.42Z"/><path class="cls-1" d="M1297.84,282.64h-133.68c0,4.5-.15,8.85,.03,13.18,.42,9.72,1.95,19.27,5.32,28.44,5.65,15.41,14.53,28.47,28.36,37.72,9.21,6.16,19.57,9.19,30.51,10.45,8.84,1.01,17.65,1.02,26.43-.47,11.5-1.94,22-6.27,31.37-13.25,.49-.36,.99-.69,1.64-1.14,2.06,2.47,4.08,4.9,6.4,7.67-3.02,3.32-5.79,6.86-9.05,9.87-14.28,13.2-30.9,22.23-49.79,26.88-10.98,2.7-22.19,3.28-33.46,2.81-16.16-.67-31.61-4.24-45.94-11.82-20.7-10.95-36.42-26.84-46.48-48.09-5.7-12.05-8.65-24.83-9.76-38.08-.99-11.79-.64-23.54,1.23-35.21,3.61-22.42,12.82-42.19,28.27-58.97,8-8.69,17.25-15.66,27.86-20.83,10.63-5.17,21.89-8.23,33.6-9.69,9.15-1.14,18.32-1.49,27.52-.79,16.72,1.28,32.09,6.27,45.36,16.8,8.27,6.57,14.73,14.7,19.9,23.87,8.51,15.08,12.62,31.41,13.8,48.57,.27,3.95,.37,7.92,.55,12.06Zm-132.61-14.93c22.37-.42,44.28-.84,66.25-1.25,.04-.56,.09-.92,.09-1.28,0-11.36-.55-22.69-2.29-33.93-1.34-8.62-3.27-17.09-7.65-24.78-2.6-4.58-5.9-8.58-11.03-10.36-9.26-3.22-17.39-.83-24.37,5.73-5.62,5.29-8.94,12.08-11.84,19.09-4.03,9.75-6.42,19.93-7.7,30.36-.66,5.34-.96,10.73-1.46,16.42Z"/><path class="cls-1" d="M813.68,388.08v11.8h-132.05c-.05-.55-.16-1.13-.16-1.71-.02-2.77,.07-5.53-.04-8.3-.06-1.53,.51-1.89,1.96-2.09,4.06-.57,8.24-.93,12.08-2.22,7.82-2.62,11.99-8.84,13.67-16.51,1.26-5.78,1.95-11.75,2.25-17.66,.92-17.89,1.81-35.78,2.15-53.69,.22-11.76-.4-23.55-.91-35.32-.4-9-1.19-17.99-1.87-26.98-.39-5.16-1.35-10.21-3.54-14.94-3.56-7.65-9.58-11.72-18.03-12.18-2.14-.12-4.28-.32-6.42-.39-.94-.03-1.33-.34-1.32-1.29,.03-2.45,.01-4.9,.01-7.54,31.6-6.23,63.1-12.44,94.91-18.71-.21,16.48-.42,32.73-.62,48.99,.09,.04,.18,.07,.27,.11,.72-1.5,1.46-2.99,2.16-4.5,5.88-12.53,13.94-23.34,25.18-31.59,7.27-5.33,14.97-9.83,23.85-11.94,7.43-1.76,14.87-1.15,22.28,.07,5.35,.88,10.46,2.56,15.54,5.16-7.68,19.28-15.34,38.52-23.06,57.89-2.78-1.43-5.34-2.83-7.98-4.08-10.26-4.87-20.97-7.91-32.45-7.15-7.28,.48-14.37,1.84-20.63,5.94-.36,.24-.7,.5-1.05,.75-3.02,2.2-4.43,5.06-4.52,8.9-.18,7.54-.97,15.07-1.09,22.61-.23,14.22-.62,28.45-.12,42.65,.57,16.04,1.96,32.06,3.17,48.07,.4,5.28,1.83,10.38,4.57,15,3.91,6.62,9.98,9.46,17.45,9.85,4.77,.25,9.54,.66,14.36,1Z"/></g></g></svg>
