<?xml version="1.0" encoding="UTF-8"?><svg id="Capa_1" xmlns="http://www.w3.org/2000/svg" viewBox="0 0 1976 500"><defs><style>.cls-1{fill:#fff;}</style></defs><g id="zljv8F"><g><path class="cls-1" d="M1090.65,95.86c14.61,0,28.21-.17,41.8,.19,1.92,.05,4.59,2.21,5.54,4.09,16.59,32.75,32.95,65.63,49.39,98.45,7.96,15.88,15.99,31.72,24.8,49.17,1.71-3.84,2.91-6.19,3.82-8.64,17.11-46.14,34.14-92.31,51.38-138.4,.73-1.95,3.21-4.59,4.91-4.62,21.6-.31,43.2-.21,65.36-.21,.16,2.49,.39,4.52,.39,6.55,0,96.65-.05,193.31-.05,289.96,0,12.61,.08,10.71-10.46,10.66-18.34-.1-36.68,.02-55.03,.03-1.85,0-3.69-.18-6.42-.32V243.5c-.66-.14-1.31-.29-1.97-.43-2.97,7.89-6.01,15.76-8.91,23.68-15.89,43.37-31.68,86.78-47.75,130.08-.92,2.49-3.65,5.19-6.14,6.04-4.69,1.6-6.35-2.37-7.78-6.02-12.63-32.33-25.29-64.65-37.94-96.97-6.2-15.85-12.42-31.69-18.64-47.53-.79,.1-1.58,.19-2.36,.29,0,5.88,0,11.76,0,17.64,.07,41.86,.04,83.71,.32,125.57,.04,5.94-1.76,7.71-7.66,7.39-9.38-.5-18.84-.53-28.2,.11-6.55,.45-8.43-1.44-8.4-8.07,.27-49.38,.16-98.77,.14-148.15-.02-47.74-.09-95.48-.14-143.21,0-2.32,0-4.63,0-8.05Z"/><path class="cls-1" d="M1604.03,252.23c-.46-44.26,11.08-81.92,38.27-113.89,26.41-31.05,60.36-45.97,101.1-42.19,39.15,3.63,69.33,24.11,89.21,57.13,39.38,65.39,38.54,131.73-2.17,196.3-20.04,31.79-49.92,50.86-87.87,54.31-39.63,3.6-72.88-10.43-98.8-40.67-27.95-32.61-40.2-70.92-39.75-110.97Zm171.87-6.78c-.49-7.17-1.29-18.4-2.03-29.63-1.43-21.59-4.96-42.86-12.78-63.03-3.92-10.11-9.25-20.08-15.86-28.63-7.13-9.23-17.83-9.16-25.65-.4-5.66,6.34-10.54,13.9-13.81,21.74-11.15,26.7-14.45,55-16.47,83.69-2.51,35.72,.95,70.72,9.65,105.26,3.66,14.55,8.32,28.92,19.18,40.12,8.93,9.21,19.41,9.67,27.42-.17,5.81-7.14,10.74-15.51,14.04-24.1,12.42-32.37,15.49-66.44,16.31-104.83Z"/><path class="cls-1" d="M1370.2,402.61V95.87c3.07,0,5.58,0,8.08,0,42.33,0,84.66-.5,126.97,.14,30.03,.45,51.19,16.6,65.56,41.9,11.48,20.2,16.96,42.29,15.55,65.55-2.5,41.22-31.91,80.48-67.99,88.27-4.07,.88-8.38,.91-12.58,.92-21.13,.09-42.26,.04-64.29,.04v109.93h-71.31Zm69.68-263.95c.25,1.23,1.26,3.9,1.27,6.57,.1,31.95,.18,63.89-.1,95.83-.05,5.69,1.79,7.27,7.23,7.12,11.97-.32,23.96-.18,35.93-.04,12.67,.16,22.14-5.38,28.6-16.03,13.09-21.58,16.76-44.23,5.32-67.53-6.58-13.4-15.98-24.95-32.48-25.77-15.53-.78-31.12-.17-45.76-.17Z"/><path class="cls-1" d="M280.95,368.31c0,11.12,.05,20.96-.02,30.8-.04,5.4-4.23,4.01-7.22,4.01-33.39,.06-66.79,.02-100.18,.01-17.64,0-35.27,0-52.91-.04-1.85,0-3.7-.19-6.2-.32V96.32h166.12v38.18h-97.98v52.9c2.82,.13,5.32,.35,7.83,.36,19.28,.04,38.57,.16,57.85-.05,4.89-.05,6.81,1.5,6.57,6.44-.32,6.81-.51,13.65-.14,20.45,.33,6.01-1.5,8.24-7.91,8.06-17.16-.46-34.33-.24-51.5-.17-4.17,.02-8.34,.46-12.74,.73v145.09h98.41Z"/><path class="cls-1" d="M891.96,402.31V96.4h167.1c0,6.42,0,13.08,0,19.74q-.03,18.5-18.74,18.5c-25.16,0-50.32,.15-75.48-.09-5.94-.06-8.24,1.47-8.07,7.88,.45,16.16,.15,32.33,.15,49.39h75.94v30.9h-76.55v145.63c4.91,.4,8.57,.95,12.24,.96,27.75,.06,55.5,.15,83.24-.12,5.4-.05,7.82,1.2,7.5,6.96-.4,7.27,.11,14.6-.49,21.84-.15,1.87-2.96,5.05-4.56,5.05-53.6,.13-107.2-.05-160.8-.19-.22,0-.44-.16-1.48-.55Z"/><path class="cls-1" d="M633.48,134.48h-68.85v-38.25c2.5-.14,4.77-.38,7.03-.38,63.96-.01,127.92,.09,191.87-.14,6.26-.02,8.21,1.72,7.93,7.9-.45,10.03-.12,20.1-.12,30.87h-66.46c0,4.88,0,9.03,0,13.19-.03,81.83-.06,163.66-.09,245.49q0,9.86-10.02,9.86c-17.87,.01-35.75-.31-53.6,.22-6.58,.2-7.78-2.07-7.77-8.01,.15-82.3,.09-164.6,.08-246.9,0-4.22,0-8.43,0-13.86Z"/><path class="cls-1" d="M381.07,368.44c3.44,0,5.95,0,8.47,0,26.57,.01,53.13,.2,79.7-.09,5.83-.06,7.33,2.08,7.09,7.36-.34,7.27-.27,14.57-.2,21.86,.04,4.21-1.73,5.7-5.97,5.69-50.54-.13-101.09-.16-151.63-.08-4.2,0-6.16-1.34-5.99-5.59,.1-2.35-.02-4.7-.02-7.05-.05-95.45-.09-190.9-.11-286.34,0-2.52,.35-5.04,.57-7.92h68.1V368.44Z"/><path class="cls-1" d="M796.13,96.24h64.8c0,2.66,0,4.94,0,7.23,0,40.19,.11,80.38-.03,120.58-.19,56.86-.67,113.72-.74,170.58,0,6.72-1.86,8.93-8.78,8.72-16.2-.49-32.43-.24-48.65,.02-4.84,.08-7.17-.77-7.16-6.43,.14-98.72,.09-197.44,.1-296.15,0-1.36,.27-2.73,.45-4.53Z"/></g></g></svg>