<svg fill="none" height="50" viewBox="0 0 230 50" width="230" xmlns="http://www.w3.org/2000/svg"><g fill="#fff" fill-opacity=".5"><path d="m37.7806 36.1112-8.819 3.7847v-.382c-1.6932.4167-3.5981.6598-5.3619.7639-8.3252-.0694-14.88655-4.375-14.99238-9.4444v-1.875c2.71628 3.8889 8.28988 6.5278 14.99238 6.4236 2.2576.1042 4.5858-.2431 6.526-.7639l.7761-1.875c-2.2929.6945-4.8328 1.1458-7.3021 1.1458-8.3252 0-14.88655-4.2708-14.99238-9.4444v-1.5278c2.71628 3.6111 8.28988 6.2153 14.99238 6.0417 3.0337.1736 5.9616-.4514 8.4662-1.5278l.388-1.875c-2.434 1.25-5.5736 1.9792-8.819 1.875-8.3251.1042-14.88647-4.1667-14.9923-9.4444v-1.5278c2.7163 3.6805 8.2899 6.3194 14.9923 6.4236 3.8098-.1042 7.408-1.1111 10.3712-2.6389l.388-2.2569c-2.6809 1.9444-6.5966 3.2291-10.7592 3.4027-8.3251-.1736-14.88647-4.4791-14.9923-9.8263.07055-5.10421 6.6672-9.37504 14.9923-9.44449 4.9387.06945 9.5598 1.77084 12.2761 4.54862l.2822.45138h1.9402l-.2822-.45138c-2.7163-3.64584-8.1841-6.041671-14.2163-6.041671-9.2423-.034722-16.57972 4.930551-16.57972 10.902741v.382 19.2708c.31748 5.8333 7.47852 10.5903 16.50922 10.5903 5.9616.0347 11.3589-2.2917 14.2162-5.6597z"/><path d="m34.1823 49.4098 3.1043-12.9861-8.9249 3.8194 5.4326-22.5h-10.4418l2.7163-11.07635h33.3359l-2.7163 11.07635h-10.865l-2.3282 6.1111 12.0291-4.9652zm5.4325-15.625-1.5521 7.6389 12.8052-19.0625-10.477 4.5833 4.6564-10.6944h10.477l1.9402-8.02085h-30.2669l-1.9402 8.02085h10.477l-5.0444 21.3541z"/><path d="m81.5231 14.132c.0353 1.2153-.3528 2.1528-1.1288 2.8472-.7761.6945-1.8344 1.0417-3.2101 1.0417-1.3758 0-2.5046-.4514-3.3513-1.3194-.8466-.8681-1.2699-2.0139-1.2699-3.4028v-2.257c0-1.38885.4233-2.53469 1.2347-3.40274.8466-.86806 1.9401-1.31945 3.2806-1.31945 1.4111 0 2.5046.34722 3.316 1.00695.8113.69444 1.1994 1.63194 1.1641 2.84724v.0347h-2.2577c0-.72917-.1764-1.28472-.5291-1.63194-.3528-.34723-.9172-.52084-1.658-.52084-.7055 0-1.2347.27778-1.6227.83334-.388.55555-.5997 1.25004-.5997 2.11804v2.2917c0 .868.2117 1.5972.5997 2.1528.4233.5555.9877.8333 1.7285.8333.7056 0 1.1994-.1736 1.5522-.5208.3527-.3473.5291-.9028.5291-1.632zm12.7699-.9375c0 1.3889-.4585 2.5695-1.3404 3.4722-.8819.9028-2.0461 1.3542-3.4924 1.3542s-2.5751-.4514-3.4923-1.3542c-.8819-.9027-1.3405-2.0833-1.3405-3.4722v-2.0486c0-1.38889.4586-2.53472 1.3405-3.47222.8819-.90278 2.046-1.38889 3.4571-1.38889 1.4463 0 2.6104.45139 3.4923 1.38889.9172.90278 1.3405 2.08333 1.3405 3.47222zm-2.3282-2.0833c0-.9028-.2116-1.59724-.6702-2.18752-.4586-.55556-1.0583-.86806-1.8696-.86806-.7761 0-1.4111.27778-1.8344.86806-.4233.55555-.6703 1.28472-.6703 2.18752v2.0486c0 .9028.2117 1.6319.6703 2.2222.4233.5556 1.0583.8681 1.8344.8681.8113 0 1.411-.2778 1.8696-.8681.4586-.5555.6702-1.3194.6702-2.2222zm8.3252 6.7361h-2.3282v-11.3889h2.3282zm13.37 0h-2.329l-4.656-7.6736h-.035v7.6736h-2.329v-11.3889h2.329l4.656 7.6736h.035v-7.6736h2.329zm11.676-9.61807h-3.316v9.61807h-2.328v-9.61807h-3.246v-1.77083h8.89zm9.595 4.61807h-4.304v3.2639h5.115v1.7361h-7.408v-11.3889h7.408v1.77083h-5.079v2.84727h4.303v1.7708zm6.456 3.2639h5.185v1.7361h-7.514v-11.3889h2.329zm15.062-3.2639h-4.303v3.2639h5.115v1.7361h-7.408v-11.3889h7.408v1.77083h-5.08v2.84727h4.304v1.7708zm13.017 3.4722c-.352.4514-.882.8681-1.622 1.2153-.706.3472-1.623.5208-2.752.5208-1.411 0-2.54-.4166-3.422-1.2847s-1.34-1.9792-1.34-3.3681v-2.3958c0-1.38888.423-2.49999 1.305-3.36804.847-.86806 1.976-1.31945 3.316-1.31945 1.411 0 2.505.34722 3.245 1.00695.741.65972 1.129 1.52777 1.094 2.63889v.03475h-2.187c0-.59031-.177-1.07642-.529-1.42364-.353-.34723-.882-.52084-1.552-.52084-.706 0-1.27.27778-1.729.79861-.423.55556-.635 1.24997-.635 2.08337v2.3958c0 .8681.212 1.5625.67 2.1181.459.5555 1.059.7986 1.799.7986.565 0 .988-.0695 1.306-.1736.317-.1042.564-.2431.74-.4167v-2.2222h-2.222v-1.5973h4.551v4.4792zm5.997-3.0208v4.5486h-2.328v-11.3889h4.022c1.305 0 2.363.3125 3.104.90278s1.129 1.42361 1.129 2.46528c0 .59024-.141 1.07634-.459 1.52774-.317.4167-.776.7639-1.376 1.0417.671.2083 1.164.5208 1.482 1.0069.282.4514.458 1.0417.458 1.7362v.8333c0 .3125.036.6597.142 1.0069.07.3473.247.5903.458.7639v.1736h-2.399c-.211-.1736-.352-.4514-.423-.8333-.07-.3819-.106-.7639-.106-1.1111v-.7986c0-.5556-.141-1.007-.458-1.3195-.318-.3125-.776-.4861-1.341-.4861h-1.905zm0-1.7361h1.658c.635 0 1.129-.1389 1.447-.4167.317-.2778.493-.6597.493-1.21528 0-.52083-.176-.9375-.493-1.25-.318-.3125-.776-.45139-1.411-.45139h-1.694zm15.769 3.8541h-3.74l-.776 2.4653h-2.434l3.916-11.38888h2.363l3.881 11.38888h-2.434zm-3.175-1.8055h2.61l-1.27-4.0278h-.035zm11.535.1041v4.132h-2.328v-11.3889h4.445c1.34 0 2.363.34722 3.139 1.00695.776.65972 1.129 1.5625 1.129 2.63885 0 1.0764-.388 1.9792-1.129 2.6389-.776.6597-1.799 1.007-3.139 1.007h-2.117zm0-1.7361h2.117c.635 0 1.129-.1736 1.481-.5208.318-.3472.494-.7986.494-1.3194 0-.5556-.176-1.00699-.494-1.35421-.317-.34722-.811-.52083-1.481-.52083h-2.117zm19.12 5.8681h-2.328v-4.7222h-4.727v4.7222h-2.329v-11.3889h2.329v4.8958h4.727v-4.8958h2.328z"/><path d="m76.796 36.4584h-1.4463v-7.5h-2.6104v-1.2152h6.6671v1.2152h-2.6104zm9.7009 0h-1.4463v-4.0625c0-.5208-.1058-.9027-.3175-1.1458-.2116-.243-.5291-.3819-.9877-.3819-.5997 0-1.023.1736-1.3052.5208s-.4233.9375-.4233 1.7708v3.2639h-1.4111v-9.2708h1.4111v2.3611c0 .3819-.0353.7639-.0706 1.2153h.1058c.1764-.3125.4586-.5556.8114-.7292s.7408-.2778 1.1994-.2778c1.6227 0 2.434.7986 2.434 2.4306zm4.9034.1042c-1.0583 0-1.8696-.3125-2.4341-.9028-.5996-.5902-.8819-1.4236-.8819-2.4652 0-1.0764.2823-1.9098.8114-2.5348s1.3052-.9375 2.2577-.9375c.8819 0 1.5874.2778 2.0813.7986.5291.5209.776 1.25.776 2.1875v.7639h-4.48c.0352.625.2116 1.1459.5291 1.4584.3175.3472.8114.5208 1.4111.5208.388 0 .776-.0347 1.0935-.1042.3528-.0694.7055-.2083 1.0936-.3819v1.1458c-.3528.1736-.7056.2778-1.0583.3472-.3175.0695-.7408.1042-1.1994.1042zm-.2469-5.7639c-.4586 0-.8114.1389-1.0936.4167s-.4233.6944-.4939 1.25h3.0338c0-.5556-.1411-.9722-.388-1.25-.247-.2778-.5997-.4167-1.0583-.4167zm11.0416.1042h-1.623v5.5555h-1.4462v-5.5555h-1.0936v-.6597l1.0936-.4167v-.4167c0-.7639.1763-1.3541.5644-1.7361.3878-.3819.9528-.5555 1.6928-.5555.494 0 .988.0694 1.482.243l-.388 1.0764c-.353-.1042-.67-.1736-1.023-.1736-.318 0-.564.1042-.706.2778-.141.2083-.211.4861-.211.868v.4167h1.623zm5.891 5.5555-.212-.868h-.07c-.212.3125-.494.5555-.847.7292-.353.1736-.776.2777-1.235.2777-.811 0-1.411-.2083-1.834-.5902-.423-.382-.6-1.007-.6-1.8056v-4.3403h1.447v4.0625c0 .5209.105.8681.317 1.1459.212.243.529.3819.988.3819.6 0 1.023-.1736 1.305-.5208.282-.3473.423-.9375.423-1.7709v-3.2986h1.447v6.5972zm5.644-1.0416c.353 0 .706-.0695 1.058-.1736v1.0416c-.141.0695-.352.1389-.599.1736-.247.0348-.494.0695-.776.0695-1.341 0-2.011-.6945-2.011-2.0833v-3.5417h-.917v-.625l.987-.5208.494-1.3889h.882v1.4583h1.905v1.0764h-1.905v3.5417c0 .3472.071.5902.247.7638.106.1389.353.2084.635.2084zm7.091 1.0416-.212-.868h-.071c-.211.3125-.494.5555-.846.7292-.353.1736-.776.2777-1.235.2777-.811 0-1.411-.2083-1.834-.5902-.388-.382-.6-1.007-.6-1.8056v-4.3403h1.446v4.0625c0 .5209.106.8681.318 1.1459.211.243.529.3819.988.3819.599 0 1.023-.1736 1.305-.5208.282-.3473.423-.9375.423-1.7709v-3.2986h1.446v6.5972zm6.561-6.7361c.282 0 .529.0348.705.0695l-.141 1.3194c-.211-.0347-.423-.0694-.635-.0694-.564 0-1.023.1736-1.375.5555-.353.382-.53.8334-.53 1.4236v3.4375h-1.411v-6.5972h1.129l.177 1.1459h.07c.212-.382.529-.6945.882-.9375.318-.2084.706-.3473 1.129-.3473zm4.621 6.8403c-1.058 0-1.87-.3125-2.434-.9028-.6-.5902-.882-1.4236-.882-2.4652 0-1.0764.282-1.9098.811-2.5348.53-.625 1.306-.9375 2.258-.9375.882 0 1.588.2778 2.081.7986.53.5209.776 1.25.776 2.1875v.7639h-4.48c.036.625.212 1.1459.53 1.4584.317.3472.811.5208 1.411.5208.388 0 .776-.0347 1.093-.1042.353-.0694.706-.2083 1.094-.3819v1.1458c-.353.1736-.706.2778-1.059.3472-.352.0695-.74.1042-1.199.1042zm-.247-5.7639c-.458 0-.811.1389-1.093.4167-.283.2778-.424.6944-.494 1.25h3.033c0-.5556-.141-.9722-.388-1.25-.282-.2778-.635-.4167-1.058-.4167zm13.617 2.3264c0 1.0764-.283 1.9097-.847 2.5347-.564.5903-1.34.9028-2.328.9028-.635 0-1.164-.1389-1.658-.4167-.494-.2777-.847-.6944-1.094-1.2152-.247-.5209-.388-1.1111-.388-1.8056 0-1.0764.282-1.9097.847-2.5.564-.5903 1.34-.9028 2.363-.9028.953 0 1.729.3125 2.293.9375.565.625.812 1.4236.812 2.4653zm-4.868 0c0 1.5278.564 2.2917 1.728 2.2917 1.129 0 1.693-.7639 1.693-2.2917 0-1.493-.564-2.2569-1.693-2.2569-.6 0-1.023.2083-1.305.5902-.282.382-.423.9375-.423 1.6667zm9.877-2.2222h-1.623v5.5555h-1.446v-5.5555h-1.094v-.6597l1.094-.4167v-.4167c0-.7639.176-1.3541.564-1.7361.388-.3819.953-.5555 1.694-.5555.493 0 .987.0694 1.481.243l-.388 1.0764c-.353-.1042-.67-.1736-1.023-.1736-.317 0-.564.1042-.705.2778-.142.1736-.212.4861-.212.868v.4167h1.623v1.0764zm10.018 5.5555h-1.446v-4.0625c0-.5208-.106-.868-.282-1.1458-.177-.243-.494-.3819-.917-.3819-.565 0-.953.1736-1.2.5208s-.388.9375-.388 1.7708v3.2986h-1.411v-6.5972h1.129l.212.8681h.07c.177-.3125.459-.5556.812-.7292.352-.1736.74-.243 1.164-.243 1.023 0 1.728.3472 2.046 1.0416h.105c.212-.3125.494-.5903.847-.7639s.776-.2777 1.235-.2777c.811 0 1.376.2083 1.764.5902.352.382.564 1.007.564 1.8056v4.3055h-1.411v-4.0625c0-.5208-.106-.868-.282-1.1458-.212-.243-.494-.3819-.917-.3819-.565 0-.953.1736-1.2.5208s-.388.8681-.388 1.5625v3.5069zm12.135-3.3333c0 1.0764-.282 1.9097-.846 2.5347-.565.5903-1.341.9028-2.329.9028-.635 0-1.164-.1389-1.658-.4167-.493-.2777-.846-.6944-1.093-1.2152-.247-.5209-.388-1.1111-.388-1.8056 0-1.0764.282-1.9097.846-2.5.565-.5903 1.341-.9028 2.364-.9028.952 0 1.728.3125 2.293.9375.529.625.811 1.4236.811 2.4653zm-4.868 0c0 1.5278.565 2.2917 1.729 2.2917 1.129 0 1.693-.7639 1.693-2.2917 0-1.493-.564-2.2569-1.693-2.2569-.6 0-1.023.2083-1.306.5902-.282.382-.423.9375-.423 1.6667zm12.417 3.3333h-1.446v-4.0625c0-.5208-.106-.9027-.317-1.1458-.212-.243-.53-.3819-.988-.3819-.6 0-1.058.1736-1.305.5208s-.424.9375-.424 1.7708v3.2986h-1.411v-6.5972h1.129l.212.8681h.07c.212-.3125.494-.5556.847-.7292s.776-.243 1.235-.243c1.622 0 2.398.7986 2.398 2.4305zm4.904.1042c-1.059 0-1.87-.3125-2.434-.9028-.6-.5902-.882-1.4236-.882-2.4652 0-1.0764.282-1.9098.811-2.5348s1.305-.9375 2.258-.9375c.882 0 1.587.2778 2.081.7986.529.5209.776 1.25.776 2.1875v.7639h-4.48c.035.625.212 1.1459.529 1.4584.318.3472.812.5208 1.411.5208.388 0 .776-.0347 1.094-.1042.317-.0694.705-.2083 1.093-.3819v1.1458c-.352.1736-.705.2778-1.058.3472-.353.0695-.741.1042-1.199.1042zm-.282-5.7639c-.459 0-.812.1389-1.094.4167s-.423.6944-.494 1.25h3.034c0-.5556-.141-.9722-.388-1.25s-.6-.4167-1.058-.4167zm3.245-.9375h1.552l1.376 3.75c.211.5209.353 1.0417.423 1.4931h.035c.036-.2084.106-.4861.212-.7986s.6-1.8056 1.552-4.4445h1.552l-2.857 7.4653c-.529 1.3542-1.376 2.0486-2.61 2.0486-.318 0-.635-.0347-.918-.1042v-1.1111c.212.0348.459.0695.741.0695.67 0 1.164-.382 1.447-1.1806l.246-.625z"/></g></svg>
