<?xml version="1.0" encoding="UTF-8"?><svg id="Capa_1" xmlns="http://www.w3.org/2000/svg" viewBox="0 0 1931 500"><defs><style>.cls-1{fill:#fff;}</style></defs><g id="_8G3FIO"><g><path class="cls-1" d="M996.51,250.49c0,67.55,.02,135.09,0,202.64,0,16.46-.52,16.93-17.06,16.94-53.79,.01-107.59,.02-161.38,0-14.41,0-16-1.58-16.05-15.91-.07-16.99,.34-33.98-.14-50.96-.31-11.1,4.49-15.11,15.25-14.95,25.48,.37,50.97-.26,76.44,.28,10.78,.23,15.05-2.98,15-14.45-.39-82.91-.35-165.83-.04-248.74,.04-10.68-3.99-14.39-14.25-14.26-25.88,.33-51.78-.27-77.65,.27-10.3,.21-14.94-3.08-14.72-13.73,.38-18.19,.22-36.4,.04-54.6-.09-9.08,3.66-13.05,13.09-13.03,55.81,.17,111.63,.16,167.44-.21,11.57-.08,14.22,5.26,14.18,15.67-.29,68.35-.15,136.71-.14,205.06Z"/><path class="cls-1" d="M450.87,250.56c0-67.95-.02-135.89,0-203.84,0-15.8,.84-16.68,16.23-16.69,53.79-.05,107.58-.05,161.37-.02,14.88,0,15.91,1.04,15.98,15.7,.09,17.8-.24,35.6,.15,53.38,.2,8.85-3.15,12.3-12.09,12.18-26.28-.33-52.58,.23-78.86-.23-11.02-.19-14.84,3.86-14.8,14.95,.33,82.51,.39,165.02-.05,247.52-.06,12.05,4.15,15.28,15.59,14.96,25.46-.71,50.96,0,76.43-.33,9.68-.13,14.05,3.36,13.83,13.42-.41,19-.27,38.02-.07,57.02,.08,8.12-3.14,11.61-11.53,11.58-56.62-.18-113.25-.27-169.87,.07-11.14,.07-12.38-5.9-12.36-14.63,.13-52.17,.04-104.35,.03-156.52,0-16.18,0-32.36,0-48.53Z"/><path class="cls-1" d="M825.8,238.86c0-15.26,.38-30.54-.15-45.79-.29-8.55,2.89-11.07,11.25-11.21,34.67-.59,34.69-.83,34.73,33.52,.04,29.53-.28,59.06,.2,88.59,.15,8.95-2.77,11.38-11.64,12.19-20.14,1.83-35.81-2.52-46.51-21.63-6.42-11.45-16.06-21.08-26.99-31.07,0,13.42-.44,26.85,.15,40.24,.39,8.88-2.64,12.02-11.68,12.22-34.67,.77-34.66,1.04-34.67-33.82,0-28.72,.37-57.45-.21-86.16-.21-10.18,2.44-13.29,13.27-14.49,20.69-2.29,34.36,4.4,44.45,22.59,6.99,12.61,16.75,23.68,25.27,35.44,.84-.21,1.67-.42,2.51-.64Z"/><path class="cls-1" d="M670.64,221.16v55.5c10.03,0,19.92,.19,29.8-.07,6.62-.17,9.89,2.52,9.58,9.24-.04,.81,.02,1.62,.01,2.42-.39,32.64,3.44,27.13-26.48,27.41-30.72,.29-61.44-.18-92.15,.24-9.52,.13-13.85-2.02-13.44-12.79,1.16-30.4-4.39-26.08,26.3-26.48,3.99-.05,7.99,0,14.03,0,0-17.21,.25-33.58-.33-49.91-.07-1.98-4.5-5.18-7.15-5.44-7.61-.76-15.35-.6-23.01-.24-7.45,.35-9.87-2.87-9.72-10.08,.73-34.49-4.52-28.67,27.24-29.02,30.72-.33,61.44,.2,92.15-.23,9.41-.13,12.97,2.92,12.74,12.51-.75,31.04,3.38,26.44-26.1,26.93-4.33,.07-8.67,0-13.47,0Z"/><path class="cls-1" d="M114.09,106.77v79.45c11.2-3.32,21.32-8.08,31.79-9.11,46.26-4.52,79.68,29.72,76.06,76.86-3.78,49.22-44.64,76.57-96.74,64.74-.39-.09-.77-.25-1.16-.35q-30.9-7.41-30.89-38.81c0-49.71,0-99.43-.01-149.14q0-19.63,20.95-23.64Zm.11,144.98c0,6.05,0,12.09,0,18.14,0,28.79,2.14,30.93,31.83,31.75,1.61,.04,3.23,.22,4.83,.16,22.77-.78,39.55-11.99,46.12-30.8,8.12-23.24,1.84-51.04-14.6-64.57-15.05-12.39-40.59-13.98-59.03-2.29-4.44,2.81-8.1,9.61-8.79,15-1.36,10.71-.4,21.72-.38,32.61Z"/><path class="cls-1" d="M1446.18,182.19h19.85c.46,3.77,.92,7.54,1.54,12.61,4.35-2.97,7.55-5.22,10.81-7.38,34.56-22.84,77.85-8.47,90.29,31.1,9.85,31.31,6.49,61.15-18.32,85.19-20.93,20.29-46,21.2-72.33,12.54-3.29-1.08-6.46-2.57-11.22-4.49v58.92h-20.63V182.19Zm20.61,72.02c0,9.71-.39,19.44,.21,29.11,.22,3.52,1.86,8.13,4.47,10.14,26.56,20.46,67.84,8.44,76.35-23.28,3.42-12.76,3.21-27.34,1.11-40.52-3.02-18.97-16.84-29.65-36.13-32.14-26.69-3.45-46.03,13.24-46.02,39.71,0,5.66,0,11.33,.01,16.99Z"/><path class="cls-1" d="M375.53,249.59h-111.73c0,34.93,22.59,55.98,56.2,52.4,14.63-1.56,28.95-6.1,43.55-9.31,4.74,15.27,3.42,18.15-12.28,22.93-19.63,5.98-39.61,8.06-59.72,3.01-34.94-8.77-54.42-39.67-50.31-79.1,3.81-36.54,28.91-60.69,65.22-62.75,41.83-2.38,72.59,29.26,69.09,72.83Zm-110.83-16.99h89.26c-3.29-23.81-16.82-36.36-39.32-37.58-25.01-1.36-44.29,12.76-49.93,37.58Z"/><path class="cls-1" d="M1766.77,176.64c42.7,.59,72.01,31,71.07,73.75-.92,42.27-31.32,72-72.75,71.17-43.98-.89-71.17-30.39-70.48-76.48,.6-40.49,30.67-69.01,72.16-68.44Zm49.53,71.8c-.02-31.53-20.56-53.12-50.55-53.12-29.58,0-50.25,21.95-50.39,53.51-.14,31.07,20.95,53.82,50.11,54.04,29.88,.22,50.85-22.22,50.83-54.43Z"/><path class="cls-1" d="M1358.74,287.86c13.52-32.44,25.72-61.83,38.03-91.17,7.05-16.79,7.14-16.75,27.15-13.93-7.99,19.2-15.75,38.12-23.71,56.95-16.67,39.41-33.44,78.76-50.17,118.15-6.67,15.7-6.94,15.84-26.37,12.23,6.47-15.36,12.47-30.73,19.45-45.64,3.36-7.18,3.36-13.09,.17-20.39-15.51-35.51-30.44-71.27-45.52-106.96-2.01-4.75-3.68-9.64-5.58-14.63q21.77-2.45,29.63,16.43c11.91,28.67,23.79,57.36,36.91,88.98Z"/><path class="cls-1" d="M1181.78,296.26c4.02,18.21,2.44,20.57-15.05,23.3-28.93,4.52-56.4,1.62-77.2-21.14-20.83-22.8-22.97-50.45-12.67-78.39,10.36-28.1,33.4-40.53,62.04-43.03,9.13-.8,18.58,.3,27.7,1.72,18.34,2.86,18.54,3.57,15.49,23.46-8.92-1.87-17.74-4.42-26.74-5.46-21.6-2.5-40.67,3.16-52.83,22.2-12.04,18.86-12.46,39.23-.94,58.58,11.59,19.45,30.12,26.11,51.93,23.9,9.5-.96,18.86-3.38,28.27-5.13Z"/><path class="cls-1" d="M1611.27,200.68c-8.84-.4-15.55-.69-25.75-1.15,15.86-18.54,29.91-34.96,43.95-51.39,.87,.28,1.74,.56,2.6,.84v31.94h44.09v18.92h-43.61c0,18.26-.07,35.11,.02,51.96,.06,11.3,.13,22.62,.59,33.91,.37,8.88,5.33,13.48,14.29,12.22,9.86-1.39,19.61-3.5,29.4-5.29,1.9,18.51,1.91,18.68-15.41,23.04-5.05,1.27-10.32,1.96-15.53,2.26-23.19,1.37-33.99-8.35-34.39-31.56-.42-23.83-.19-47.67-.24-71.51,0-4.38,0-8.75,0-14.19Z"/><path class="cls-1" d="M1284.89,178.02v21.82c-1.84,.55-3.28,1.13-4.79,1.42-31.68,6.17-46.3,23.6-46.69,56.18-.23,18.89-.04,37.78-.04,57.49h-20.73V182.44h20.3v25.13c12.63-18.01,28.74-28.61,51.94-29.55Z"/></g></g></svg>