<svg width="207" height="74" viewBox="0 0 207 74" fill="none" xmlns="http://www.w3.org/2000/svg">
<path d="M34.9776 48.1462C34.9673 48.6395 34.5326 48.7834 34.2221 49.0095C29.0316 52.8175 23.277 53.2902 17.2377 51.7023C14.3501 50.9418 11.8195 49.5131 9.93581 47.103C8.83353 45.6898 8.27981 44.1122 8.27981 42.3393C8.27981 36.9331 8.36261 31.5219 8.24876 26.1158C8.17631 22.7601 9.58391 20.3191 12.1921 18.3715C18.1744 13.9058 28.6279 14.137 34.3566 18.8751C34.9828 19.3941 35.521 19.9851 35.9712 20.6531C35.3813 20.6531 34.7913 20.6531 34.2066 20.6583C31.5 17.9347 28.069 16.8606 24.3689 16.614C20.0271 16.3262 15.9388 17.2358 12.4819 20.0108C9.11298 22.7138 8.85423 26.4652 11.7367 29.6719C13.1857 31.2855 15.0591 32.2979 17.0928 32.9916C22.2989 34.7645 27.2876 34.117 32.0796 31.5527C32.1003 32.2259 31.9037 32.8426 31.6398 33.449C29.3214 34.3791 26.9616 35.1397 24.4413 35.299C19.4268 35.6176 14.9193 34.374 11.0898 31.0543C10.6758 30.6945 10.3343 30.2475 9.81161 29.677C9.76503 30.7459 9.73916 31.5013 9.94098 32.2568C10.6189 34.8159 12.3939 36.4861 14.6502 37.5858C19.8356 40.1193 25.1658 40.1655 30.5375 38.1356C30.5582 38.7369 30.4029 39.2919 30.1235 39.8212C22.6818 41.9333 15.737 41.4708 9.79608 35.8283C9.55803 37.8787 10.2049 39.5694 11.5142 41.0237C12.4302 42.0412 13.5221 42.8326 14.7434 43.4493C19.3336 45.7515 24.1101 45.7977 28.985 44.5644C28.9022 45.0886 28.8194 45.6076 28.7366 46.1318C28.5244 46.1729 28.3071 46.214 28.0949 46.2551C23.4891 47.1647 18.9765 46.99 14.6451 45.0012C12.7769 44.143 11.2503 42.8223 9.81161 41.2036C9.48041 43.845 10.3343 45.8543 12.2128 47.4627C14.5933 49.5029 17.4137 50.4741 20.4825 50.9726C22.8474 51.358 25.1451 50.875 27.4739 50.7259C27.6602 51.1319 27.9345 50.9469 28.1984 50.8287C29.5853 50.2172 30.9515 49.544 32.3746 49.0198C33.2337 48.7012 33.9685 47.9869 34.9932 48.1462H34.9776Z" fill="white"/>
<path d="M28.7263 46.1317C28.8091 45.6076 28.8919 45.0885 28.9747 44.5644C29.5078 43.0176 29.8648 41.4348 30.1081 39.8212C30.3823 39.2919 30.5376 38.7369 30.5221 38.1356C31.0344 36.6094 31.3863 35.042 31.6243 33.449C31.8883 32.8426 32.0901 32.2259 32.0694 31.5527C32.4886 30.9617 32.3281 30.7356 31.6088 30.7356C29.0679 30.7459 26.527 30.6945 23.9912 30.751C23.0959 30.7716 22.9976 30.5506 23.215 29.7335C23.9291 27.0048 24.5812 24.2606 25.1866 21.5113C25.3367 20.8278 25.6058 20.6223 26.2786 20.6326C28.9178 20.6685 31.5622 20.6583 34.2015 20.6634C34.7914 20.6634 35.3814 20.6634 35.9662 20.6583C42.1451 20.6583 48.3189 20.6583 54.4978 20.6326C55.1602 20.6326 55.3879 20.7148 55.1861 21.4908C54.4875 24.1938 53.8665 26.9123 53.2714 29.641C53.0902 30.4838 52.7332 30.7973 51.8327 30.7767C49.2193 30.7202 46.6008 30.787 43.9822 30.751C43.3664 30.7408 43.0921 30.8949 42.8851 31.5065C42.378 33.007 41.757 34.4767 41.0635 36.2651C44.655 34.7851 48.0032 33.4027 51.3514 32.0203C51.4291 32.0871 51.5067 32.1591 51.5843 32.2259C45.4364 41.0905 39.2937 49.9499 33.1458 58.8145C33.0682 58.7888 32.9905 58.758 32.9129 58.7323C33.2493 57.2523 33.5701 55.762 33.922 54.2872C34.3671 52.4217 34.8535 50.5666 35.2882 48.696C35.3296 48.5162 35.6867 47.9766 34.9726 48.141C33.9531 47.9817 33.2131 48.7012 32.354 49.0146C30.9309 49.5388 29.5699 50.212 28.1778 50.8235C27.9139 50.9417 27.6448 51.1267 27.4533 50.7208L27.4378 50.7413C27.505 50.6848 27.5723 50.6334 27.6396 50.5769L28.716 46.1266L28.7263 46.1317ZM47.3408 35.1756C45.4468 35.7409 43.739 36.7481 41.9019 37.4521C40.7737 37.8838 39.7491 38.5724 38.3984 38.8653C39.718 35.7923 40.9807 32.8734 42.2124 29.9442C42.4401 29.4098 42.8334 29.4149 43.2888 29.4201C45.9022 29.4201 48.5104 29.4303 51.1237 29.4149C51.4394 29.4149 51.8586 29.6153 51.9931 29.0346C52.5262 26.7324 53.0954 24.4353 53.6698 22.0715C44.7119 22.0715 35.9248 22.0817 27.1324 22.0509C26.47 22.0509 26.3303 22.3849 26.2165 22.8474C25.7662 24.6769 25.3574 26.5217 24.8761 28.3409C24.6381 29.2351 24.9175 29.456 25.8076 29.4406C28.5245 29.3892 31.2414 29.4252 34.0721 29.4252C33.2027 33.1458 32.3488 36.7635 31.5157 40.3916C30.8895 43.1101 30.2892 45.8337 29.6785 48.5573C29.6527 48.5778 29.6216 48.5984 29.5957 48.6241C29.5906 48.6344 29.6061 48.6601 29.6113 48.6806C29.6268 48.6344 29.6371 48.5881 29.6527 48.5419C29.8804 48.6703 30.0667 48.5316 30.2633 48.4494C32.3695 47.5449 34.4758 46.6353 36.5923 45.7515C36.8304 45.6538 37.0891 45.3044 37.3634 45.5921C37.5808 45.8183 37.4307 46.1574 37.3789 46.4349C37.0788 47.9252 36.7735 49.4155 36.4423 50.8955C36.406 51.0651 36.2353 51.2552 36.4267 51.358C36.6286 51.4659 36.8356 51.3734 36.9598 51.1319C37.0581 50.9417 37.2237 50.7824 37.3427 50.6026C39.8008 46.8871 42.2848 43.1871 44.6964 39.4409C45.602 38.0328 46.7353 36.7584 47.3305 35.1602C47.377 35.1448 47.4236 35.1345 47.4702 35.1191C47.4495 35.114 47.4236 35.0934 47.4133 35.1037C47.3874 35.1242 47.3667 35.1551 47.346 35.1859L47.3408 35.1756Z" fill="white"/>
<path d="M102.118 27.3902C102.118 25.1907 102.17 23.3253 102.097 21.465C102.066 20.6223 102.325 20.4475 103.132 20.4527C103.96 20.4527 104.261 20.6274 104.24 21.5216C104.178 24.2246 104.235 26.9277 104.199 29.6359C104.193 30.0264 104.576 30.7459 103.831 30.7818C103.143 30.8178 102.32 31.1981 101.777 30.2525C100.602 28.197 99.3444 26.1825 97.9264 24.163C97.9264 25.9924 97.8488 27.8218 97.9575 29.6461C98.0196 30.7305 97.5952 30.8795 96.6689 30.8538C95.9703 30.8332 95.815 30.6225 95.8202 29.9699C95.8513 27.1949 95.8202 24.4148 95.8513 21.6398C95.8513 21.2595 95.5511 20.576 96.141 20.5349C96.8604 20.4835 97.735 20.0981 98.2939 21.0693C99.3858 22.9707 100.54 24.831 101.673 26.7067C101.761 26.8506 101.859 26.9945 102.123 27.3902H102.118Z" fill="white"/>
<path d="M190.269 25.6019C190.269 24.2144 190.336 22.8218 190.243 21.4446C190.186 20.5453 190.554 20.4528 191.314 20.4579C192.091 20.4579 192.546 20.5401 192.442 21.496C192.344 22.4004 192.448 23.3203 192.411 24.2299C192.391 24.7592 192.572 24.9287 193.1 24.9082C194.233 24.8619 195.677 25.2782 196.417 24.7335C197.126 24.2144 196.593 22.6933 196.634 21.6142C196.676 20.6018 197.535 20.0776 198.492 20.499C198.828 20.6481 198.735 20.9153 198.735 21.1465C198.746 24.1374 198.715 27.1333 198.756 30.1242C198.771 31.1982 198.021 30.746 197.535 30.8231C196.96 30.9156 196.557 30.8385 196.624 30.0574C196.701 29.1529 196.613 28.2331 196.655 27.3235C196.681 26.7376 196.546 26.4653 195.884 26.5064C195.004 26.5629 194.119 26.5681 193.239 26.5064C192.51 26.4499 192.375 26.7633 192.411 27.3903C192.458 28.2279 192.349 29.0758 192.442 29.9032C192.551 30.8693 192.018 30.8282 191.335 30.8487C190.6 30.8693 190.191 30.7922 190.248 29.8775C190.336 28.4592 190.274 27.0306 190.274 25.6071L190.269 25.6019Z" fill="white"/>
<path d="M163.566 25.8691C166.081 26.8455 164.73 29.2505 165.698 30.7356C165.553 30.9463 165.356 30.8898 165.186 30.8949C163.271 30.9361 163.224 30.8949 163.183 28.9936C163.141 27.0613 162.148 26.3162 160.233 26.7273C159.747 26.8301 159.793 27.1281 159.793 27.4519C159.793 28.3615 159.752 29.2762 159.804 30.1858C159.855 31.1056 159.198 30.8076 158.763 30.8127C158.324 30.8127 157.713 31.0954 157.723 30.1806C157.759 27.1538 157.739 24.127 157.734 21.1054C157.734 20.7508 157.734 20.4579 158.236 20.4836C159.7 20.5606 161.17 20.3345 162.624 20.6377C163.871 20.8998 164.777 21.5576 165.061 22.8474C165.346 24.1322 164.932 25.1394 163.566 25.8691ZM159.767 23.6286C159.954 24.2041 159.265 25.2267 160.725 25.1445C162.412 25.052 163.054 24.7283 163.069 23.6594C163.085 22.5751 162.35 22.1331 160.813 22.0201C159.317 21.907 159.917 22.9451 159.767 23.6234V23.6286Z" fill="white"/>
<path d="M146.251 25.3963C146.168 24.0962 146.23 22.5545 147.586 21.3777C149.035 20.1238 151.726 20.0159 153.216 21.203C153.625 21.5319 153.956 21.9379 154.07 22.4466C154.163 22.8732 154.639 23.5566 153.915 23.6748C153.387 23.7622 152.44 24.2761 152.191 23.053C152.005 22.1434 151.208 21.9687 150.385 21.9584C149.387 21.9482 148.74 22.5186 148.522 23.3768C148.145 24.8722 148.119 26.4344 148.528 27.9195C148.89 29.2248 150.711 29.785 151.917 29.0912C152.735 28.6184 152.316 27.8373 152.326 27.2052C152.336 26.5577 151.721 26.8764 151.384 26.8507C150.841 26.8044 150.323 26.974 150.339 26.0541C150.354 25.1086 150.934 25.3398 151.436 25.3295C152.135 25.3141 152.838 25.3809 153.532 25.309C154.344 25.2268 154.546 25.5608 154.474 26.2957C154.417 26.9123 154.38 27.5495 154.474 28.1559C154.696 29.5332 153.889 30.155 152.797 30.5969C149.79 31.8097 145.935 30.4325 146.24 26.3419C146.256 26.1261 146.24 25.9051 146.24 25.3861L146.251 25.3963Z" fill="white"/>
<path d="M86.7895 25.8537C86.7636 26.7273 86.805 27.6061 86.4376 28.4386C85.6406 30.2166 83.9639 31.1776 81.9819 30.9772C80.0102 30.7819 78.6026 29.5075 78.2145 27.5496C77.992 26.4293 78.0075 25.2987 78.1576 24.1733C78.4681 21.8351 80.2483 20.2523 82.4632 20.314C84.8747 20.3808 86.4893 21.9019 86.7067 24.3275C86.7533 24.8362 86.7636 25.345 86.7947 25.8537H86.7895ZM84.647 25.6122C84.647 25.0675 84.7091 24.5125 84.6367 23.978C84.4814 22.868 83.6276 22.0561 82.634 21.9893C81.4748 21.9071 80.7347 22.3439 80.4035 23.495C79.9844 24.9493 79.9895 26.4447 80.4346 27.899C80.7347 28.8805 81.4851 29.3841 82.5098 29.3636C83.493 29.343 84.1244 28.7983 84.4814 27.8887C84.7712 27.1487 84.6677 26.383 84.6574 25.6225L84.647 25.6122Z" fill="white"/>
<path d="M167.815 30.7202C168.565 28.5002 169.311 26.3008 170.056 24.1014C170.309 23.3459 170.661 22.6059 170.806 21.83C171.029 20.6377 171.722 20.3962 172.809 20.4836C173.321 20.5247 173.513 20.7302 173.647 21.1362C174.677 24.2041 175.712 27.2669 176.737 30.3348C176.778 30.4633 176.773 30.6072 176.794 30.787C176.468 30.8025 176.173 30.787 175.888 30.8333C174.946 31.0029 174.454 30.6123 174.356 29.6873C174.263 28.8137 173.823 28.4386 172.907 28.5876C172.405 28.6698 171.877 28.6339 171.37 28.5927C170.847 28.5516 170.62 28.7418 170.449 29.2557C169.875 31.0029 169.849 30.9926 167.825 30.7254L167.815 30.7202ZM172.462 23.644C172.384 23.6543 172.312 23.6594 172.234 23.6697C171.986 24.4251 171.789 25.2062 171.468 25.9308C171.07 26.8404 171.375 27.0305 172.271 26.9894C173.549 26.9329 173.554 26.9791 173.161 25.7664C172.928 25.0572 172.695 24.3532 172.462 23.644Z" fill="white"/>
<path d="M117.385 25.5814C117.385 24.1219 117.41 22.6625 117.369 21.203C117.353 20.612 117.555 20.463 118.125 20.4733C119.889 20.5041 121.654 20.5144 123.419 20.4733C124.086 20.4579 124.096 20.7868 124.102 21.275C124.102 21.7734 124.065 22.1075 123.408 22.0715C122.384 22.0201 121.349 22.092 120.324 22.0458C119.687 22.015 119.527 22.2359 119.522 22.8475C119.506 24.6512 119.48 24.6512 121.271 24.6512C121.638 24.6512 122.006 24.6615 122.373 24.6512C122.942 24.6307 123.413 24.5536 123.393 25.4426C123.377 26.2391 123.061 26.3573 122.415 26.3059C122.011 26.2751 121.607 26.3008 121.204 26.3008C119.537 26.3008 119.605 26.3008 119.517 27.9709C119.46 28.9936 119.687 29.4252 120.8 29.2814C121.597 29.1786 122.42 29.2968 123.222 29.2505C123.864 29.2094 124.138 29.3482 124.122 30.0727C124.107 30.7151 123.884 30.8641 123.284 30.8487C121.592 30.8127 119.9 30.8025 118.213 30.8487C117.493 30.8693 117.359 30.6072 117.379 29.9648C117.426 28.5054 117.395 27.0459 117.395 25.5865L117.385 25.5814Z" fill="white"/>
<path d="M179.448 25.5608C179.448 24.1373 179.469 22.719 179.438 21.2955C179.422 20.7251 179.516 20.427 180.199 20.463C181.368 20.5195 182.548 20.4476 183.723 20.4938C185.922 20.5761 187.304 21.8865 187.294 23.8238C187.283 25.7098 185.933 26.9534 183.754 27.0665C182.267 27.1418 181.522 27.9641 181.518 29.5331C181.518 30.1806 181.777 30.9104 180.571 30.859C179.671 30.823 179.371 30.638 179.428 29.7079C179.516 28.3306 179.448 26.938 179.448 25.5556V25.5608ZM181.498 23.8392C181.518 25.6995 181.301 25.4837 182.745 25.494C184.572 25.5042 185.218 25.0417 185.198 23.7673C185.177 22.534 184.561 22.0972 182.786 22.1074C181.254 22.1177 181.518 21.943 181.492 23.8392H181.498Z" fill="white"/>
<path d="M67.2437 25.6019C67.2437 25.237 67.2282 24.8722 67.2437 24.5073C67.4197 21.1156 70.4315 19.353 73.5417 20.8124C74.4732 21.2492 75.0683 21.9533 75.2339 22.9554C75.2805 23.238 75.6583 23.8187 75.0683 23.829C74.468 23.8341 73.5106 24.3942 73.2778 23.4076C72.988 22.1845 72.2221 21.9276 71.1767 21.9892C70.0434 22.0561 69.6242 22.8834 69.4483 23.8187C69.2206 25.0417 69.2723 26.2956 69.4327 27.529C69.5673 28.5824 70.3177 29.3173 71.2957 29.3738C72.3307 29.4355 73.0242 29.0449 73.2881 27.9401C73.5262 26.9534 74.4007 27.5392 74.9493 27.5136C75.5392 27.4827 75.2391 28.0634 75.1977 28.3666C75.0787 29.2505 74.5715 29.9134 73.816 30.3656C70.9801 32.0666 67.5956 30.4016 67.2644 27.1384C67.2127 26.6348 67.2592 26.1158 67.2592 25.607H67.2489L67.2437 25.6019Z" fill="white"/>
<path d="M136.791 25.5762C136.791 24.1168 136.817 22.6573 136.775 21.1979C136.76 20.6172 136.941 20.4579 137.515 20.4682C139.244 20.5041 140.972 20.5144 142.695 20.4682C143.368 20.4476 143.456 20.7097 143.466 21.2904C143.482 21.9327 143.249 22.092 142.649 22.0664C141.66 22.0252 140.662 22.092 139.673 22.0407C139.026 22.0098 138.871 22.2514 138.861 22.8526C138.824 24.6512 138.799 24.6512 140.631 24.6512C140.998 24.6512 141.365 24.6461 141.733 24.6512C142.25 24.6615 142.799 24.4611 142.789 25.4015C142.783 26.2751 142.411 26.3316 141.738 26.2905C141.045 26.2494 140.341 26.3059 139.642 26.2751C139.063 26.2494 138.804 26.383 138.788 27.0511C138.742 29.2557 138.711 29.2557 140.915 29.2557C141.469 29.2557 142.023 29.2865 142.571 29.2454C143.187 29.1991 143.477 29.3019 143.477 30.047C143.477 30.8127 143.135 30.8436 142.55 30.8333C140.936 30.8076 139.316 30.7922 137.696 30.8384C137.008 30.859 136.729 30.7151 136.765 29.9597C136.832 28.5002 136.786 27.0408 136.786 25.5814L136.791 25.5762Z" fill="white"/>
<path d="M109.627 26.4293C109.627 25.2628 109.581 24.0911 109.643 22.9246C109.684 22.1692 109.399 21.9585 108.706 22.0458C108.38 22.087 108.044 22.0356 107.712 22.0561C107.107 22.0972 106.703 22.0818 106.714 21.2339C106.724 20.4374 107.112 20.4733 107.661 20.4785C109.756 20.4939 111.852 20.5145 113.953 20.4682C114.621 20.4528 114.719 20.6995 114.724 21.2853C114.735 21.9174 114.528 22.0664 113.917 22.0715C111.707 22.0921 111.713 22.1178 111.713 24.307C111.713 26.2083 111.656 28.1097 111.733 30.006C111.775 30.9772 111.205 30.8333 110.626 30.8282C110.082 30.8282 109.529 30.9772 109.601 30.0471C109.694 28.8497 109.622 27.637 109.622 26.4345L109.627 26.4293Z" fill="white"/>
<path d="M150.153 45.4175C150.153 45.9674 150.122 46.5121 150.163 47.0568C150.199 47.6067 149.946 47.7146 149.449 47.7249C148.88 47.7352 148.9 47.4114 148.9 47.026C148.905 46.0393 148.931 45.0527 148.89 44.0711C148.864 43.3979 148.735 42.6888 147.855 42.6528C146.97 42.6117 146.483 43.1513 146.432 43.9889C146.375 44.9345 146.39 45.8851 146.396 46.8307C146.396 47.324 146.447 47.7146 145.697 47.7403C144.864 47.766 144.952 47.3086 144.957 46.7896C144.967 45.88 144.952 44.9653 144.957 44.0506C144.967 43.326 144.807 42.6939 143.943 42.6425C143.037 42.5911 142.587 43.141 142.54 43.9786C142.483 44.9602 142.488 45.9468 142.509 46.9335C142.519 47.4474 142.452 47.7351 141.81 47.73C141.2 47.73 141.189 47.432 141.195 46.9849C141.21 45.4535 141.236 43.917 141.184 42.3856C141.158 41.6199 141.847 41.4863 142.012 41.7792C142.525 42.7093 142.882 41.959 143.311 41.8203C143.554 41.7381 143.808 41.6764 144.062 41.6507C144.91 41.5531 145.604 42.3445 146.209 42.3188C146.81 42.2931 147.467 41.5736 148.3 41.6404C149.469 41.7381 149.966 42.1954 150.085 43.4442C150.147 44.0917 150.096 44.7546 150.096 45.4072C150.111 45.4072 150.132 45.4072 150.147 45.4072L150.153 45.4175Z" fill="white"/>
<path d="M127.072 25.6481C127.072 24.1527 127.119 22.6573 127.051 21.167C127.01 20.2831 127.574 20.4527 128.04 20.4938C128.49 20.5298 129.189 20.1392 129.168 21.1516C129.121 23.5566 129.178 25.9616 129.137 28.3666C129.127 29.0861 129.328 29.3173 130.058 29.2711C131.083 29.2094 132.113 29.3019 133.137 29.2402C133.841 29.1991 133.779 29.5948 133.8 30.0522C133.82 30.5661 133.743 30.8538 133.101 30.8384C131.305 30.7973 129.504 30.8024 127.709 30.8384C127.145 30.8487 127.051 30.6226 127.057 30.1344C127.083 28.639 127.067 27.1487 127.067 25.6533L127.072 25.6481Z" fill="white"/>
<path d="M75.8084 42.2211C76.3363 42.0669 76.683 41.7226 77.1643 41.6352C78.6081 41.3783 79.6845 42.108 79.7724 43.5469C79.8449 44.7494 79.7776 45.957 79.8242 47.1647C79.8449 47.7299 79.5292 47.7043 79.1308 47.7197C78.6909 47.7351 78.4528 47.6529 78.4735 47.1338C78.5098 46.1112 78.4942 45.0886 78.4735 44.0659C78.458 43.3054 78.2303 42.6579 77.3092 42.6476C76.388 42.6373 75.8653 43.1563 75.8187 44.0608C75.7722 45.0063 75.7825 45.9622 75.8084 46.9077C75.8239 47.4216 75.7567 47.7043 75.1098 47.6991C74.4991 47.6991 74.4888 47.4062 74.494 46.9591C74.5043 44.6569 74.5043 42.3547 74.494 40.0524C74.494 39.6362 74.437 39.2816 75.0839 39.2816C75.6894 39.2816 75.8395 39.5026 75.8084 40.0524C75.767 40.7411 75.7981 41.4297 75.7981 42.2211H75.8084Z" fill="white"/>
<path d="M92.1767 25.7458C92.1767 27.2052 92.1301 28.6647 92.1974 30.1241C92.2388 30.9926 91.6954 30.8538 91.2142 30.8127C90.7536 30.7767 90.0705 31.1416 90.0808 30.1498C90.1171 27.159 90.1222 24.1681 90.0808 21.1773C90.0653 20.1906 90.7225 20.5144 91.1883 20.499C91.6437 20.4835 92.2336 20.2523 92.1974 21.1567C92.1353 22.6881 92.1819 24.2195 92.1819 25.7509L92.1767 25.7458Z" fill="white"/>
<path d="M171.111 41.8253C172.188 41.4862 172.633 41.8562 172.881 42.776C173.181 43.886 173.642 44.9549 174.102 46.2499C174.548 44.9806 174.998 43.8809 175.308 42.7401C175.562 41.7945 176.033 41.4707 177.078 41.851C176.147 44.256 175.251 46.6764 174.258 49.0506C173.88 49.9602 173.036 50.3764 172.017 50.3353C171.675 50.3251 171.355 50.3353 171.355 49.8369C171.355 49.4257 171.463 49.3281 171.903 49.2767C173.228 49.1174 173.74 48.1616 173.233 46.918C172.55 45.2376 171.841 43.5623 171.117 41.8202L171.111 41.8253Z" fill="white"/>
<path d="M98.9302 47.0003C98.4334 47.5399 97.8382 47.802 97.1603 47.8533C95.8873 47.951 94.9765 47.211 94.8833 45.8903C94.8005 44.6929 94.8833 43.4853 94.8419 42.2828C94.8264 41.7432 95.1162 41.7175 95.5302 41.7072C95.9649 41.697 96.2133 41.7689 96.1978 42.2931C96.1667 43.3157 96.1822 44.3332 96.1926 45.3558C96.1978 46.1164 96.4099 46.7536 97.3259 46.7896C98.1953 46.8256 98.7542 46.3939 98.8215 45.5306C98.9043 44.5182 98.9095 43.4904 98.8991 42.4729C98.8939 41.9385 98.9974 41.6867 99.6184 41.697C100.224 41.7021 100.245 42.0053 100.239 42.4524C100.224 43.8758 100.255 45.2993 100.224 46.7177C100.219 47.0568 100.488 47.5502 99.8823 47.7043C99.3286 47.8482 99.1268 47.4577 98.9302 47.0003Z" fill="white"/>
<path d="M86.1168 46.4298C86.4428 47.2469 86.1013 47.5706 85.3199 47.7043C82.4115 48.213 80.7038 46.5634 81.3248 43.8038C81.6663 42.2776 82.7686 41.4605 84.2642 41.625C85.7287 41.7843 86.5256 42.7504 86.5567 44.3331C86.567 44.8419 86.4377 45.0577 85.8839 45.032C85.0042 44.9909 84.1141 45.0629 83.2343 45.0115C82.4167 44.9652 82.4995 45.3866 82.7168 45.8748C83.0015 46.5069 83.5448 46.7536 84.2176 46.805C84.8903 46.8563 85.4958 46.5994 86.1168 46.435V46.4298ZM83.8709 44.1995C84.3159 43.9169 85.1336 44.5644 85.2215 43.7422C85.2836 43.1204 84.8231 42.5911 84.0313 42.5962C83.2447 42.5962 82.6651 42.9765 82.6806 43.7216C82.7013 44.5644 83.5086 43.8912 83.876 44.1995H83.8709Z" fill="white"/>
<path d="M122.663 46.4093C122.942 47.1801 122.704 47.5604 121.938 47.6786C120.629 47.8739 119.33 47.9818 118.399 46.7999C117.514 45.6847 117.581 44.4051 118.047 43.1615C118.528 41.8871 119.92 41.3269 121.343 41.7329C122.508 42.0669 123.248 43.3054 123.113 44.5593C123.056 45.0783 122.756 45.0167 122.43 45.0167C121.545 45.0167 120.66 45.0475 119.78 45.0064C119.02 44.9756 118.978 45.2993 119.252 45.8594C119.532 46.4401 119.993 46.7382 120.639 46.7896C121.348 46.8461 122.011 46.6508 122.663 46.4042V46.4093ZM120.375 44.2047C120.8 43.8501 121.68 44.6775 121.742 43.6754C121.783 42.9817 121.229 42.5963 120.5 42.5963C119.723 42.5963 119.154 43.0331 119.18 43.7474C119.206 44.5542 120.003 43.8861 120.375 44.2047Z" fill="white"/>
<path d="M127.072 44.5746C127.113 42.7555 128.309 41.5221 129.996 41.5684C131.672 41.6095 132.837 42.9199 132.785 44.7185C132.733 46.733 131.626 47.843 129.737 47.7865C128.065 47.7351 127.025 46.4812 127.072 44.5746ZM128.391 44.6877C128.402 44.9035 128.391 45.1245 128.428 45.3403C128.557 46.1317 128.945 46.7073 129.82 46.7587C130.689 46.8101 131.155 46.3424 131.362 45.5305C131.533 44.8727 131.486 44.2303 131.284 43.5983C130.994 42.7092 129.928 42.3495 129.137 42.8634C128.474 43.2951 128.381 43.9734 128.397 44.6877H128.391Z" fill="white"/>
<path d="M170.299 46.4812C170.506 47.1081 170.423 47.5244 169.797 47.6426C168.508 47.879 167.178 48.0485 166.195 46.954C165.186 45.8337 165.227 44.4616 165.739 43.146C166.236 41.8716 167.499 41.3577 168.922 41.7123C170.097 42.0052 170.852 43.1717 170.79 44.4565C170.764 44.996 170.495 45.0269 170.086 45.0217C169.207 45.0115 168.322 45.0577 167.442 45.0063C166.624 44.9601 166.702 45.3969 166.924 45.8748C167.333 46.7484 168.125 46.8769 168.979 46.7741C169.414 46.7227 169.838 46.5891 170.299 46.4812ZM168.022 44.1995C168.467 43.9117 169.284 44.5644 169.372 43.737C169.45 42.9919 168.881 42.5705 168.078 42.5962C167.338 42.6219 166.826 43.033 166.847 43.7165C166.873 44.5798 167.67 43.8758 168.022 44.1995Z" fill="white"/>
<path d="M157.149 44.7288C157.149 46.6918 156.176 47.7607 154.391 47.7813C152.564 47.8019 151.544 46.6405 151.555 44.5541C151.565 42.7709 152.667 41.5889 154.334 41.5684C156.088 41.5478 157.154 42.74 157.149 44.7288ZM152.802 44.698C152.817 46.0084 153.423 46.7843 154.396 46.7638C155.395 46.7381 155.943 45.9673 155.912 44.6466C155.881 43.3618 155.343 42.6578 154.385 42.6424C153.392 42.627 152.792 43.4081 152.807 44.7031L152.802 44.698Z" fill="white"/>
<path d="M158.681 44.6826C158.681 43.9169 158.671 43.1513 158.686 42.3856C158.686 42.1594 158.557 41.8254 158.919 41.7483C159.193 41.6918 159.586 41.5839 159.711 41.9076C159.944 42.5089 160.145 42.2211 160.487 42.0156C162.2 40.9775 163.892 41.8511 163.975 43.8142C164.021 44.9088 163.975 46.0033 164.001 47.0979C164.016 47.5707 163.861 47.7403 163.38 47.7249C162.909 47.7146 162.624 47.6632 162.645 47.0825C162.686 46.101 162.645 45.1143 162.66 44.1276C162.676 43.3517 162.484 42.699 161.584 42.6528C160.689 42.6117 160.099 43.0999 160.032 43.9992C159.959 45.0167 159.98 46.0393 159.99 47.0619C159.99 47.4782 159.959 47.7557 159.416 47.7249C158.96 47.6992 158.639 47.6837 158.67 47.0928C158.712 46.2911 158.681 45.4894 158.681 44.6878V44.6826Z" fill="white"/>
<path d="M111.65 44.8111C111.65 45.5768 111.635 46.3425 111.65 47.1082C111.671 47.9201 110.936 47.8842 110.76 47.5861C110.367 46.8975 110.17 47.2624 109.767 47.5039C108.106 48.5008 106.362 47.509 106.336 45.5768C106.32 44.5182 106.356 43.4647 106.325 42.4061C106.31 41.8974 106.455 41.7072 106.998 41.7021C107.572 41.6918 107.655 41.9385 107.645 42.4164C107.619 43.3979 107.619 44.3846 107.645 45.3661C107.66 46.1113 107.862 46.7639 108.794 46.7947C109.668 46.8204 110.196 46.3682 110.279 45.5254C110.367 44.621 110.336 43.7063 110.408 42.8018C110.445 42.3856 110.072 41.7329 111.004 41.7072C111.93 41.6815 111.619 42.3085 111.64 42.7453C111.676 43.4339 111.65 44.1276 111.65 44.8214V44.8111Z" fill="white"/>
<path d="M134.545 45.1656C134.545 44.6569 134.539 44.1481 134.545 43.6343C134.555 43.1152 134.633 42.5654 133.81 42.6476C133.67 42.663 133.525 42.5962 133.515 42.4061C133.504 42.2108 133.541 42.0309 133.763 41.9847C134.431 41.8408 134.524 41.404 134.57 40.7822C134.664 39.518 136.382 38.7575 137.562 39.3741C137.758 39.4769 137.851 39.59 137.748 39.7904C137.629 40.0216 137.681 40.4225 137.236 40.3659C136.982 40.3351 136.718 40.2323 136.48 40.2786C136.04 40.3608 135.812 40.6588 135.792 41.1316C135.771 41.6455 136.045 41.7277 136.475 41.7226C136.796 41.7226 137.23 41.553 137.241 42.18C137.246 42.8018 136.822 42.6784 136.49 42.6527C135.844 42.5962 135.776 42.9508 135.787 43.4544C135.807 44.585 135.797 45.7104 135.787 46.8409C135.787 47.252 135.926 47.7043 135.191 47.7248C134.379 47.7454 134.55 47.2418 134.545 46.7998C134.539 46.2551 134.545 45.7052 134.545 45.1605V45.1656Z" fill="white"/>
<path d="M91.1006 45.0475C91.1006 44.4668 91.1006 43.881 91.1006 43.3003C91.1006 42.9611 91.1213 42.6219 90.609 42.663C90.3864 42.6785 90.1536 42.6579 90.1639 42.3393C90.1691 42.1337 90.2674 41.9847 90.4744 41.9539C91.1006 41.8562 91.1058 41.3783 91.1886 40.9004C91.437 39.5078 92.7462 38.8243 94.0969 39.3382C94.3608 39.4358 94.4643 39.5643 94.3764 39.811C94.2832 40.0628 94.2832 40.4276 93.8537 40.3762C93.6363 40.3505 93.419 40.2581 93.2068 40.2735C92.6013 40.3197 92.4564 40.7462 92.4202 41.2653C92.3736 41.9333 92.8704 41.6661 93.1758 41.7124C93.5121 41.7586 93.9365 41.5993 93.9261 42.2108C93.9106 42.8275 93.4604 42.6836 93.1447 42.6579C92.5134 42.6117 92.4202 42.9303 92.4306 43.4493C92.4564 44.6158 92.4202 45.7772 92.4461 46.9437C92.4564 47.4525 92.4047 47.7351 91.7578 47.7351C91.0799 47.7351 91.0851 47.3805 91.0954 46.9078C91.1109 46.2911 91.0954 45.6693 91.0954 45.0526L91.1006 45.0475Z" fill="white"/>
<path d="M69.7744 44.3023C69.7744 43.5366 69.7072 42.7658 69.79 42.0104C69.8935 41.0597 69.5002 40.7719 68.6152 40.9055C68.3668 40.9415 68.1029 40.9004 67.8442 40.9107C67.4095 40.9364 67.4043 40.6537 67.4043 40.3403C67.4043 40.0268 67.4043 39.7698 67.8442 39.775C69.5312 39.7904 71.2183 39.7904 72.9053 39.775C73.2831 39.775 73.428 39.8983 73.4073 40.2786C73.3918 40.6178 73.4383 40.9672 72.9208 40.9107C72.8846 40.9107 72.8484 40.9107 72.8122 40.9107C71.6081 41.0066 71.0061 41.6661 71.0061 42.8891C71.0061 44.2715 71.0009 45.6539 71.0061 47.0414C71.0061 47.4473 70.9854 47.7248 70.442 47.7248C69.909 47.7248 69.7382 47.5501 69.7589 47.0311C69.79 46.1215 69.7693 45.2119 69.7693 44.3023H69.7744Z" fill="white"/>
<path d="M104.633 46.7485C104.897 46.7176 105.223 46.5121 105.249 47.0311C105.265 47.4114 105.156 47.6118 104.737 47.7094C103.22 48.0692 102.289 47.4474 102.17 45.8954C102.108 45.0989 102.16 44.2921 102.139 43.4904C102.128 43.1307 102.31 42.6939 101.632 42.6322C101.181 42.5911 101.295 42.1646 101.57 42.031C102.16 41.7432 102.423 41.2858 102.579 40.7C102.662 40.3711 102.946 40.3917 103.205 40.4174C103.526 40.4482 103.5 40.7103 103.469 40.9107C103.365 41.6456 103.753 41.7638 104.374 41.7329C104.711 41.7175 105.228 41.5017 105.213 42.216C105.202 42.8481 104.747 42.6888 104.437 42.6579C103.66 42.5706 103.386 42.8635 103.458 43.6343C103.521 44.3229 103.474 45.0167 103.469 45.7104C103.464 46.4864 103.8 46.8821 104.623 46.7536L104.633 46.7485Z" fill="white"/>
<path d="M114.781 42.6527C115.221 42.1799 115.609 41.7893 116.163 41.6609C116.53 41.5787 117.022 41.3371 117.136 41.9486C117.219 42.4009 117.229 42.8274 116.458 42.8531C115.314 42.8891 114.859 43.4698 114.823 44.626C114.797 45.4277 114.792 46.2345 114.823 47.0362C114.843 47.5655 114.652 47.7196 114.129 47.7248C113.581 47.7299 113.555 47.4524 113.56 47.0413C113.57 45.5818 113.544 44.1224 113.581 42.663C113.591 42.3392 113.275 41.8202 113.958 41.7174C114.641 41.6146 114.564 42.1902 114.781 42.6527Z" fill="white"/>
<path d="M27.4479 50.7516C27.391 50.546 27.5617 50.618 27.6497 50.5872C27.5824 50.6437 27.5152 50.6951 27.4479 50.7516Z" fill="white"/>
</svg>
