<?xml version="1.0" encoding="utf-8"?>
<!-- Generator: Adobe Illustrator 26.5.0, SVG Export Plug-In . SVG Version: 6.00 Build 0)  -->
<svg version="1.1" id="Capa_1" xmlns="http://www.w3.org/2000/svg" xmlns:xlink="http://www.w3.org/1999/xlink" x="0px" y="0px"
	 viewBox="0 0 60 1660" style="enable-background:new 0 0 60 1660;" xml:space="preserve">
<style type="text/css">
	.st0{enable-background:new    ;}
	.st1{fill:#262626;}
</style>
<g>
	<g class="st0">
		<path class="st1" d="M15.2,559.2c-2,0-3.5-1.6-3.5-3.5c0-2,1.6-3.5,3.5-3.5h16.3c4.6,0,7.7-2.5,7.7-7.6c0-5-3.2-7.5-7.7-7.5H15.2
			c-2,0-3.5-1.6-3.5-3.5c0-2,1.6-3.5,3.5-3.5h16.5c8.2,0,13.7,4.7,13.7,14.6c0,10-5.6,14.7-13.7,14.7H15.2z"/>
		<path class="st1" d="M40.9,525c-1.4,0-2.6-1.2-2.6-2.6c0-0.5,0.1-0.9,0.3-1.3c1.2-1.9,2-4.3,2-6.4c0-2.7-0.9-4-2.4-4
			c-1.7,0-2.3,2.1-2.8,4.8c-0.8,4.1-1.8,9.4-7.4,9.4c-4,0-7.5-3.5-7.5-9.7c0-3.1,0.8-5.7,2.1-7.8c0.4-0.7,1.2-1.2,2.1-1.2
			c1.3,0,2.4,1.1,2.4,2.4c0,0.4-0.1,0.9-0.3,1.2c-0.9,1.5-1.5,3.4-1.5,5.4c0,2.3,0.8,3.7,2.2,3.7c1.5,0,2-1.9,2.6-4.5
			c0.8-4.1,1.9-9.5,7.8-9.5c4.3,0,7.6,3.7,7.6,10.3c0,3.2-0.8,6.3-2.3,8.8C42.7,524.5,41.8,525,40.9,525z"/>
		<path class="st1" d="M20.5,489.2c0-7.1,5.3-11.9,11.5-11.9c2.1,0,3,1.3,3,3.7v14c3-0.4,5.5-2.8,5.5-6.8c0-1.6-0.5-3.3-1.3-4.8
			c-0.2-0.3-0.3-0.7-0.3-1.2c0-1.3,1.1-2.5,2.5-2.5c0.9,0,1.7,0.5,2.2,1.3c1.3,2.3,2,5.1,2,7.8c0,7.2-4.9,12.7-12.5,12.7
			C26.1,501.5,20.5,496.5,20.5,489.2z M30.7,495.1v-11.7c-2.3,0.1-5.3,1.7-5.3,5.9C25.5,493.1,28.4,494.8,30.7,495.1z"/>
		<path class="st1" d="M28.5,461.6c-10.1,0-17-7.6-17-17.2c0-5.4,2-9.1,4.9-11.7c0.5-0.5,1.4-0.8,2.2-0.8c1.8,0,3.3,1.5,3.3,3.3
			c0,1-0.4,1.9-1.1,2.5c-1.8,1.6-3.1,4-3.1,6.7c0,5.7,4.6,10,10.8,10s10.8-4.3,10.8-10c0-2.8-1.2-5.1-3.1-6.8
			c-0.6-0.6-1.1-1.5-1.1-2.5c0-1.8,1.5-3.3,3.3-3.3c0.8,0,1.6,0.3,2.2,0.8c2.9,2.6,4.9,6.3,4.9,11.7C45.5,454,38.6,461.6,28.5,461.6
			z"/>
		<path class="st1" d="M29.5,406.3H42c1.8,0,3.2,1.4,3.2,3.2c0,1.6-1.2,3-2.8,3.2c1.9,1.6,3.1,4.4,3.1,7.5c0,3.8-2.6,8.3-7.9,8.3
			c-5.6,0-7.6-4.5-7.6-8.3c0-3.2,1-6,2.9-7.5h-3.3c-2.4,0-4,2.1-4,5.2c0,1.9,0.5,3.5,1.6,5.3c0.2,0.3,0.3,0.8,0.3,1.2
			c0,1.3-1.1,2.4-2.4,2.4c-0.9,0-1.7-0.5-2.1-1.1c-1.8-2.7-2.6-5.8-2.6-8.8C20.5,411.3,22.7,406.3,29.5,406.3z M39.2,412.6h-3
			c-1.4,1-2.1,3-2.1,5c0,2.5,1.3,4.5,3.6,4.5c2.2,0,3.5-2,3.5-4.5C41.2,415.6,40.5,413.6,39.2,412.6z"/>
		<path class="st1" d="M40.9,401.6c-1.4,0-2.6-1.2-2.6-2.6c0-0.5,0.1-0.9,0.3-1.3c1.2-1.9,2-4.3,2-6.4c0-2.7-0.9-4-2.4-4
			c-1.7,0-2.3,2.1-2.8,4.8c-0.8,4.1-1.8,9.4-7.4,9.4c-4,0-7.5-3.5-7.5-9.7c0-3.1,0.8-5.7,2.1-7.8c0.4-0.7,1.2-1.2,2.1-1.2
			c1.3,0,2.4,1.1,2.4,2.4c0,0.4-0.1,0.9-0.3,1.2c-0.9,1.5-1.5,3.4-1.5,5.4c0,2.3,0.8,3.7,2.2,3.7c1.5,0,2-1.9,2.6-4.5
			c0.8-4.1,1.9-9.5,7.8-9.5c4.3,0,7.6,3.7,7.6,10.3c0,3.2-0.8,6.3-2.3,8.8C42.7,401.1,41.8,401.6,40.9,401.6z"/>
		<path class="st1" d="M20.5,365.9c0-7.1,5.3-11.9,11.5-11.9c2.1,0,3,1.3,3,3.7v14c3-0.4,5.5-2.8,5.5-6.8c0-1.6-0.5-3.3-1.3-4.8
			c-0.2-0.3-0.3-0.7-0.3-1.2c0-1.3,1.1-2.5,2.5-2.5c0.9,0,1.7,0.5,2.2,1.3c1.3,2.3,2,5.1,2,7.8c0,7.2-4.9,12.7-12.5,12.7
			C26.1,378.2,20.5,373.1,20.5,365.9z M30.7,371.7V360c-2.3,0.1-5.3,1.7-5.3,5.9C25.5,369.7,28.4,371.4,30.7,371.7z"/>
		<path class="st1" d="M40.9,350.9c-1.4,0-2.6-1.2-2.6-2.6c0-0.5,0.1-0.9,0.3-1.3c1.2-1.9,2-4.3,2-6.4c0-2.7-0.9-4-2.4-4
			c-1.7,0-2.3,2.1-2.8,4.8c-0.8,4.1-1.8,9.4-7.4,9.4c-4,0-7.5-3.5-7.5-9.7c0-3.1,0.8-5.7,2.1-7.8c0.4-0.7,1.2-1.2,2.1-1.2
			c1.3,0,2.4,1.1,2.4,2.4c0,0.4-0.1,0.9-0.3,1.2c-0.9,1.5-1.5,3.4-1.5,5.4c0,2.3,0.8,3.7,2.2,3.7c1.5,0,2-1.9,2.6-4.5
			c0.8-4.1,1.9-9.5,7.8-9.5c4.3,0,7.6,3.7,7.6,10.3c0,3.2-0.8,6.3-2.3,8.8C42.7,350.4,41.8,350.9,40.9,350.9z"/>
	</g>
	<rect x="31.6" y="0" class="st1" width="2" height="278.4"/>
	<rect x="31.6" y="600" class="st1" width="2" height="982.3"/>
</g>
</svg>
