<svg xmlns="http://www.w3.org/2000/svg" xmlns:xlink="http://www.w3.org/1999/xlink" width="28.714" height="60.129" viewBox="0 0 28.714 60.129"><defs><clipPath id="a"><rect width="28.714" height="60.129" fill="#f7ff58"/></clipPath></defs><g transform="translate(28.714 60.129) rotate(180)"><g clip-path="url(#a)"><path d="M113.988,211.178a5.544,5.544,0,0,0-3.371-1.138,5.424,5.424,0,0,0-1.41.184,5.512,5.512,0,0,0,.7,10.789,5.487,5.487,0,0,0,.714.047,5.512,5.512,0,0,0,3.368-9.882m-.147,5.23a3.329,3.329,0,1,1-3.214-4.182h0a3.325,3.325,0,0,1,3.212,4.182" transform="translate(-96.27 -192.354)" fill="#f7ff58"/><path d="M27.5,37.758l-3.361-3.29.067-.221A35.9,35.9,0,0,0,25.77,22.932l-.005,0V22.75C25.766,10.51,15.542.707,15.106.3a1.1,1.1,0,0,0-1.5,0,39.956,39.956,0,0,0-5.5,6.784c-3.425,5.286-5.162,10.558-5.162,15.67v.01A35.884,35.884,0,0,0,4.509,34.248l.067.22L1.213,37.76A4.011,4.011,0,0,0,0,40.581V45.3a1.1,1.1,0,0,0,1.659.937l5.7-3.422.123.5A4.044,4.044,0,0,0,11.41,46.4h5.905a4.046,4.046,0,0,0,3.916-3.078l.122-.5,5.7,3.422a1.094,1.094,0,0,0,1.657-.94V40.65A4.093,4.093,0,0,0,27.5,37.758M9.066,9.746a41.158,41.158,0,0,1,5.011-6.788l.28-.3.28.3a40.813,40.813,0,0,1,5.016,6.787l.333.571H8.733ZM2.189,43.369V40.637a1.937,1.937,0,0,1,.549-1.307l.007-.007,2.629-2.572.212.523c.373.914.784,1.819,1.223,2.687a1.151,1.151,0,0,0,.071.105l.253.336Zm16.966-1.005A1.883,1.883,0,0,1,17.472,44.2l-.01.01H11.409a1.856,1.856,0,0,1-1.853-1.852V40.5h9.58l0,.376a1.054,1.054,0,0,0,.012.163l0,.029Zm1.27-4.271-.1.221H8.388l-.1-.221A35.091,35.091,0,0,1,5.135,22.747,24.08,24.08,0,0,1,7.511,12.726l.1-.221H21.105l.1.221a24.1,24.1,0,0,1,2.369,10.02,35.055,35.055,0,0,1-3.15,15.346m6.1,3.47v1.806L21.579,40.4l.253-.336a1.183,1.183,0,0,0,.072-.107c.439-.868.85-1.771,1.222-2.685l.213-.523,2.628,2.572a1.87,1.87,0,0,1,.557,1.324l0,.917Z" fill="#f7ff58"/><path d="M159.689,593.788v8.058a1.094,1.094,0,1,1-2.188,0v-8.05a1.095,1.095,0,0,1,2.189-.007" transform="translate(-144.238 -542.81)" fill="#f7ff58"/><path d="M216.6,588.206A1.094,1.094,0,0,1,215.5,589.3a1.1,1.1,0,0,1-.774-.32,1.087,1.087,0,0,1-.321-.775v-4.076a1.094,1.094,0,0,1,1.094-1.069h0a1.094,1.094,0,0,1,1.094,1.117Z" transform="translate(-196.356 -533.964)" fill="#f7ff58"/><path d="M102.028,588.169a1.093,1.093,0,0,1-1.095,1.093,1.088,1.088,0,0,1-.774-.32,1.1,1.1,0,0,1-.321-.774v-4.034a1.095,1.095,0,1,1,2.189.006Z" transform="translate(-91.431 -533.927)" fill="#f7ff58"/></g></g></svg>