<?xml version="1.0" encoding="utf-8"?>
<!-- Generator: Adobe Illustrator 26.5.0, SVG Export Plug-In . SVG Version: 6.00 Build 0)  -->
<svg version="1.1" id="Capa_1" xmlns="http://www.w3.org/2000/svg" xmlns:xlink="http://www.w3.org/1999/xlink" x="0px" y="0px"
	 viewBox="0 0 60 1660" style="enable-background:new 0 0 60 1660;" xml:space="preserve">
<style type="text/css">
	.st0{enable-background:new    ;}
	.st1{fill:#FFFFFF;}
</style>
<g>
	<g class="st0">
		<path class="st1" d="M11.5,519c0-9.9,7.1-17.2,17-17.2c9.9,0,17,7.2,17,17.2c0,9.9-7.1,17.1-17,17.1
			C18.6,536.1,11.5,528.9,11.5,519z M17.7,519c0,6.1,4.6,9.9,10.8,9.9c6.1,0,10.8-3.9,10.8-9.9s-4.7-10-10.8-10
			C22.3,509,17.7,513,17.7,519z"/>
		<path class="st1" d="M23.9,474.8h18.2c1.8,0,3.2,1.4,3.2,3.1c0,1.8-1.4,3.2-3.2,3.2h-0.1c1.8,1.6,3.5,4.4,3.5,8.3
			c0,5.2-2.9,7.7-7.5,7.7H23.9c-1.7,0-3.2-1.4-3.2-3.2c0-1.7,1.4-3.1,3.2-3.1h11.6c3.3,0,4.4-1.7,4.4-4.4c0-2.4-1.3-4.3-2.7-5.4
			H23.9c-1.7,0-3.2-1.4-3.2-3.1C20.7,476.2,22.2,474.8,23.9,474.8z"/>
		<path class="st1" d="M23.5,454.2c1.5,0,2.8,1,3.1,3c0.2,1.6,1.1,4.1,2.6,5.1h12.9c1.7,0,3.2,1.4,3.2,3.1c0,1.8-1.4,3.2-3.2,3.2
			H23.9c-1.8,0-3.2-1.4-3.2-3.1c0-1.8,1.4-3.2,3.2-3.2l0.4,0c-1.4-1-2.8-2.5-3.3-3.9c-0.2-0.6-0.4-1-0.4-1.6
			C20.6,455.2,21.9,454.2,23.5,454.2z"/>
		<path class="st1" d="M13.5,438.9c-2.1,0-3.7-1.7-3.7-3.7c0-2.1,1.7-3.7,3.7-3.7s3.7,1.7,3.7,3.7C17.2,437.1,15.5,438.9,13.5,438.9
			z M54.5,440.7c0,1.5-1.1,2.8-2.8,2.8c-1.2,0-2.4-0.9-2.5-2.1v-0.2c-0.1-1.7-1.1-3-3.8-3H23.9c-1.7,0-3.2-1.4-3.2-3.2
			c0-1.7,1.4-3.1,3.2-3.1h21.6c5.4,0,9,2.8,9,8.2V440.7z"/>
		<path class="st1" d="M33,427.3c-6.7,0-12.5-4.7-12.5-12.6c0-7.9,5.7-12.6,12.5-12.6c6.8,0,12.5,4.7,12.5,12.6
			C45.5,422.6,39.7,427.3,33,427.3z M33,408.6c-3.7,0-6.9,2.2-6.9,6.1s3.2,6.1,6.9,6.1c3.7,0,6.9-2.2,6.9-6.1S36.7,408.6,33,408.6z"
			/>
		<path class="st1" d="M33,373.4c7.9,0,12.5,4.5,12.5,10.5c0,2.8-1.2,5.4-3.5,7.3h0.2c1.7,0,3.1,1.5,3.1,3.2c0,1.8-1.4,3.2-3.2,3.2
			H14.8c-1.7,0-3.2-1.4-3.2-3.2c0-1.7,1.4-3.1,3.2-3.1h9.3c-2.5-1.9-3.6-4.5-3.6-7.3C20.5,377.9,25.2,373.4,33,373.4z M33,379.9
			c-4.1,0-6.9,2.4-6.9,6.1c0,2,1.2,4.3,2.8,5.4h8.4c1.5-1,2.7-3.3,2.7-5.4C39.9,382.3,37.1,379.9,33,379.9z"/>
		<path class="st1" d="M40.9,370.2c-1.4,0-2.6-1.2-2.6-2.6c0-0.5,0.1-0.9,0.3-1.3c1.2-1.9,2-4.3,2-6.4c0-2.7-0.9-4-2.4-4
			c-1.7,0-2.3,2.1-2.8,4.8c-0.8,4.1-1.8,9.4-7.4,9.4c-4,0-7.5-3.5-7.5-9.7c0-3.1,0.8-5.7,2.1-7.8c0.4-0.7,1.2-1.2,2.1-1.2
			c1.3,0,2.4,1.1,2.4,2.4c0,0.4-0.1,0.9-0.3,1.2c-0.9,1.5-1.5,3.4-1.5,5.4c0,2.3,0.8,3.7,2.2,3.7c1.5,0,2-1.9,2.6-4.5
			c0.8-4.1,1.9-9.5,7.8-9.5c4.3,0,7.6,3.7,7.6,10.3c0,3.2-0.8,6.3-2.3,8.8C42.7,369.7,41.8,370.2,40.9,370.2z"/>
	</g>
	<rect x="31.6" y="0" class="st1" width="2" height="278.4"/>
	<rect x="31.6" y="600" class="st1" width="2" height="982.3"/>
</g>
</svg>
