<svg xmlns="http://www.w3.org/2000/svg" xmlns:xlink="http://www.w3.org/1999/xlink" width="32" height="31" viewBox="0 0 32 31"><defs><clipPath id="a"><rect width="32" height="31" fill="none"/></clipPath></defs><g clip-path="url(#a)"><path d="M130.091,102.554v11.995h-6.954v-11.19c0-2.812-1.005-4.729-3.522-4.729a3.8,3.8,0,0,0-3.568,2.543,4.755,4.755,0,0,0-.231,1.7v11.681H108.86s.094-18.955,0-20.917h6.956V96.6c-.014.023-.033.045-.045.068h.045V96.6a6.906,6.906,0,0,1,6.268-3.455c4.576,0,8.007,2.989,8.007,9.414" transform="translate(-97.648 -83.547)" fill="#fff"/><rect width="6.952" height="20.917" transform="translate(0.414 10.084)" fill="#fff"/><path d="M7.823,3.614A3.627,3.627,0,0,1,3.89,7.229H3.844A3.625,3.625,0,1,1,3.935,0,3.613,3.613,0,0,1,7.823,3.614" fill="#fff"/></g></svg>