<?xml version="1.0" encoding="UTF-8"?><svg id="Capa_1" xmlns="http://www.w3.org/2000/svg" viewBox="0 0 1427 371"><defs><style>.cls-1{fill:#fff5f0;}</style></defs><path class="cls-1" d="M287.83,279.97s-.06,.07-.08,.11c-.85,1.05-1.76,2.08-2.74,3.06-14.87,15.01-38.27,15.64-54.46,1.88-1.34-1.06-2.62-2.23-3.87-3.48l-39.54-39.55-1.95,1.99c-7.27,7.44-14.49,14.8-21.73,22.14-5.05,5.12-10.96,11.09-17.14,17.09-15.98,15.52-40.84,15.48-56.57-.09-15.69-15.53-15.66-40.39,.05-56.6,2.67-2.77,5.46-5.52,7.92-7.96l.51-.51c1.16-1.15,2.31-2.28,3.45-3.43l12.02-10.93c.41-.31,.83-.6,1.24-.87,.04-.04,.07-.06,.11-.07,1.06-.71,2.12-1.29,3.17-1.75,.05-.01,.09-.04,.14-.06,1.44-.52,3-.82,4.62-.82,7.42,0,13.44,6.06,13.44,13.55,0,.91-.08,1.8-.26,2.65,0,.04-.01,.06-.01,.08-.05,.14-.08,.27-.12,.41-.64,2.27-1.75,4.37-3.29,6.17-.35,.43-.73,.83-1.13,1.21l-6.96,5.96c-4.99,4.29-10.13,9.34-15.71,15.41-4.4,4.8-4.75,13.3-.73,17.83,2.51,2.83,6.02,4.52,9.62,4.65,2.75,.09,5.39-.73,7.53-2.34l.06-.06c.38-.28,.73-.59,1.08-.92,1.41-1.37,2.81-2.75,4.22-4.14l.05-.05,48.49-46.36c5.15-4.17,12.55-4.37,17.61-.48,.33,.26,.63,.52,.89,.77,7.88,7.78,15.74,15.65,23.38,23.3,.45,.46,.9,.91,1.35,1.36,4.46,4.47,9,9.03,13.58,13.61,3.4,3.39,6.83,6.8,10.27,10.2,.04,.04,.07,.07,.12,.11,.33,.31,.66,.63,1,.93,4.52,4.14,12.32,4.69,17,1.39,.19-.14,.37-.3,.56-.45,.17-.13,.33-.28,.5-.44,.22-.2,.43-.4,.64-.61,.08-.09,.18-.18,.26-.27,.08-.09,.18-.19,.25-.28,.14-.18,.28-.34,.43-.52,.07-.09,.14-.19,.21-.3,2.82-4.01,3.29-9.52,.83-13.87-.63-1.12-1.65-2.29-2.68-3.39-.14-.17-.3-.31-.45-.46-.15-.17-.32-.34-.5-.51-.66-.69-1.35-1.38-2.02-2.07l-.05-.05-36.71-38.4-9.65-10.08c-4.17-5.15-4.37-12.55-.48-17.61,.26-.33,.52-.63,.77-.89,2.2-2.23,4.41-4.46,6.62-6.68,6.05-6.1,12.12-12.15,18.04-18.05,7.29-7.27,14.82-14.76,22.31-22.34,0,0,.01,0,.01-.01,.87-.87,1.74-1.75,2.61-2.64,.11-.12,.23-.24,.34-.35,4.47-4.54,4.81-11.63,.82-16.86-1.28-1.65-2.92-2.93-4.75-3.77-.18-.09-.35-.18-.53-.25-.06-.02-.11-.05-.15-.06-1.02-.41-2.09-.69-3.18-.83-.02-.01-.05-.01-.07-.01-2.68-.35-5.47,.11-7.9,1.48-1,.57-2.07,1.45-3.06,2.38-.45,.41-.89,.84-1.3,1.25l-.04-.04-.04,.04c-14.65,14.56-29.8,29.72-46.35,46.31-29.65,29.74-69.66,29.85-99.59,.27-3.76-3.72-6.9-6.86-10.04-10.08-.64-.65-1.25-1.32-1.82-2.01-.34-.38-.67-.77-.98-1.17-7.74-9.68-10.59-21.76-8.52-33.04,.07-.35,.14-.7,.21-1.05,.08-.39,.18-.78,.27-1.17,.45-1.82,1.03-3.61,1.74-5.35,.48-1.21,1.04-2.39,1.64-3.55,.92-1.74,1.97-3.43,3.16-5.06,.8-1.08,1.65-2.13,2.56-3.16,.46-.51,.93-1,1.42-1.5t.02-.02c.37-.38,.74-.74,1.13-1.09,.33-.31,.66-.6,.99-.89,.04-.05,.07-.08,.11-.11,.48-.41,.97-.82,1.48-1.21,.87-.69,1.76-1.34,2.68-1.93,.4-.27,.8-.52,1.22-.77,.4-.25,.8-.47,1.22-.7,.4-.24,.82-.45,1.23-.66,.13-.07,.26-.13,.39-.19,.26-.13,.52-.26,.78-.38,.3-.14,.6-.28,.91-.41,.09-.05,.19-.08,.28-.13,.02-.01,.04-.01,.06-.02,.31-.13,.61-.26,.92-.38,.05-.02,.09-.04,.14-.06,.02-.01,.05-.01,.07-.02,.4-.15,.79-.31,1.21-.44,.28-.11,.56-.2,.84-.3,.24-.08,.47-.15,.7-.22,.08-.04,.17-.06,.25-.07,.05-.01,.09-.02,.14-.05,.18-.05,.35-.09,.52-.14,.04-.01,.07-.02,.11-.04,.04-.01,.07-.02,.11-.02,.4-.12,.8-.22,1.22-.32,.46-.12,.93-.22,1.41-.32,.5-.09,1-.19,1.5-.27,.12-.02,.24-.04,.37-.06,11.29-1.78,23.25,1.37,32.71,9.54,.64,.54,1.28,1.11,1.89,1.71,1.37,1.32,2.74,2.68,4.08,4.02l.02,.02,16.1,16.35c.31,.41,.6,.83,.87,1.24,.04,.04,.06,.07,.07,.11,.71,1.06,1.29,2.12,1.75,3.17,.01,.05,.04,.09,.06,.14,.52,1.44,.82,3,.82,4.62,0,2.03-.45,3.96-1.26,5.69-.01,.02-.02,.04-.04,.06-2.16,4.55-6.64,6.85-12.06,6.85-.91,0-1.8-.08-2.65-.26-.04,0-.06-.01-.08-.01-.14-.05-.27-.08-.41-.12-2.27-.64-4.37-1.75-6.17-3.29-.43-.35-.83-.73-1.21-1.13l-5.2-5.02-13.73-13.3c-.4-.38-.84-.72-1.3-1.03-3.97-2.74-9.6-3.26-13.81-1.43-.06,.04-.13,.06-.19,.11-.93,.41-1.78,.96-2.53,1.62-2.82,2.51-4.52,6.02-4.65,9.62-.09,2.6,.64,5.09,2.08,7.16,.08,.13,.17,.25,.26,.37,.27,.4,.58,.79,.92,1.17,1.37,1.51,2.72,2.98,4.04,4.37,4.18,4.42,8.18,8.26,12.13,11.68,11.74,10.14,30.51,12.28,43.65,4.99,7-3.94,18.5-15.57,18.62-15.67,3.03-3.06,6.03-6.1,9.02-9.13l.11-.11c10.57-10.7,20.58-20.83,30.89-30.99l-.02-.02c.48-.48,.97-.95,1.45-1.41,7.74-7.19,16.76-11.23,25.78-12.07h.08c9.88-.9,19.78,2.02,28.03,8.85,.41,.33,.82,.69,1.22,1.03,.41,.35,.8,.73,1.21,1.11,.19,.17,.39,.35,.58,.54,7.61,7.57,11.81,17.45,11.83,27.81h0v.25c0,.27-.01,.54-.01,.82-.26,9.96-4.29,19.62-11.45,27.59-.59,.66-1.19,1.3-1.83,1.94l-31.62,31.62-7.93,7.92,1.99,1.95c4.81,4.7,9.6,9.4,14.37,14.08,2.59,2.55,5.18,5.09,7.77,7.65,5.12,5.05,11.09,10.96,17.09,17.14,6.61,6.81,10.4,15.21,11.36,23.84,.04,.26,.06,.52,.09,.78,1.12,10.13-1.76,20.32-8.72,28.78Z"/><g><path class="cls-1" d="M515.7,239.94c0,9.07-7.17,17.72-17.3,17.72-5.7,0-10.34-2.53-13.29-5.91l-36.56-43.13c-2.41-2.85-6.79-2.88-9.24-.07l-2.88,3.3c-1.67,1.92-2.59,4.37-2.59,6.92v20.53c0,9.92-8.02,18.36-18.15,18.36s-18.15-8.44-18.15-18.36v-107.82c0-9.92,8.02-18.36,18.15-18.36s18.15,8.44,18.15,18.36v31.42c0,3.48,4.3,5.11,6.61,2.52l41.5-46.6c3.38-3.8,7.81-5.7,12.66-5.7,9.92,0,16.88,8.65,16.88,17.09,0,4.43-1.48,8.44-4.01,11.18l-33.26,35.31c-2.44,2.59-2.5,6.61-.15,9.27l37.62,42.56c2.53,2.95,4.01,6.96,4.01,11.39Z"/><path class="cls-1" d="M601.12,112.7c43.04,0,75.12,29.96,75.12,72.8s-32.07,72.8-75.12,72.8-75.33-29.96-75.33-72.8,32.28-72.8,75.33-72.8Zm0,32.07c-23.42,0-38.4,17.73-38.4,40.73s14.98,40.72,38.4,40.72,38.19-17.94,38.19-40.72-14.98-40.73-38.19-40.73Z"/><path class="cls-1" d="M700.47,239.31v-107.82c0-9.92,8.02-18.36,18.15-18.36s18.15,8.44,18.15,18.36v107.82c0,9.92-8.02,18.36-18.15,18.36s-18.15-8.44-18.15-18.36Z"/><path class="cls-1" d="M767.95,236.56v-102.34c0-10.6,8.6-19.2,19.2-19.2h60.56c27.85,0,41.15,18.15,41.15,35.87s-10.76,29.33-24.06,32.28c14.98,2.32,26.8,16.67,26.8,34.39,0,20.47-13.72,38.19-41.36,38.19h-63.09c-10.6,0-19.2-8.6-19.2-19.2Zm71.53-67.1c7.39,0,12.45-5.27,12.45-12.24s-5.06-12.03-12.45-12.03h-31.51c-2.06,0-3.72,1.67-3.72,3.72v16.41c0,2.28,1.85,4.13,4.13,4.13h31.11Zm1.27,56.13c8.65,0,13.93-5.27,13.93-12.87,0-7.17-5.06-13.29-13.93-13.29h-33.26c-1.79,0-3.24,1.45-3.24,3.24v19.21c0,2.05,1.66,3.71,3.71,3.71h32.79Z"/><path class="cls-1" d="M1045.39,239.31c0,10.13-8.23,18.36-18.36,18.36-8.02,0-15.19-5.49-17.3-12.87l-4.01-12.03h-57.82l-4.01,12.03c-2.32,7.39-9.28,12.87-17.3,12.87-10.13,0-18.36-8.23-18.36-18.36,0-2.11,.42-4.43,1.27-6.33l37.35-99.17c4.64-12.03,16.25-20.68,29.96-20.68s25.32,8.65,29.75,20.68l37.56,99.17c.63,1.9,1.27,4.22,1.27,6.33Zm-50.01-37.14l-16.71-49.93c-.6-1.79-3.13-1.79-3.72,0l-16.71,49.93h37.14Z"/><path class="cls-1" d="M1153.91,248.17l-46.2-66.23c-2.4-3.45-7.82-1.75-7.82,2.46v54.91c0,9.92-8.02,18.36-18.15,18.36s-18.15-8.44-18.15-18.36v-102.34c0-12.87,10.55-23.84,23.84-23.84,8.02,0,14.98,4.01,19.41,10.34l42.72,60.72c2.58,3.67,8.35,1.84,8.35-2.64v-49.57c0-9.18,6.51-17.41,15.6-18.67,11.26-1.56,20.91,7.44,20.91,18.18v104.02c0,12.03-9.92,22.16-22.37,22.16-7.39,0-14.14-3.8-18.15-9.49Z"/><path class="cls-1" d="M1349,239.73c0,9.92-8.02,17.94-17.73,17.94-5.06,0-10.13-2.11-13.29-5.91l-30.71-36.53c-2.58-3.07-7.31-3.07-9.89,0l-30.71,36.53c-3.16,3.8-8.23,5.91-13.29,5.91-9.71,0-17.72-8.02-17.72-17.94,0-3.38,1.27-7.81,4.43-11.39l35.65-40.42c2.17-2.46,2.15-6.15-.04-8.59l-32.88-36.66c-3.16-3.59-4.43-7.81-4.43-11.82,0-9.71,8.02-17.72,17.73-17.72,5.49,0,10.34,2.32,13.71,6.75l27.52,33.23c2.58,3.12,7.37,3.12,9.96,0l27.52-33.23c3.38-4.43,8.23-6.75,13.72-6.75,9.71,0,17.72,8.02,17.72,17.72,0,4.01-1.26,8.23-3.16,10.13l-34.17,38.34c-2.18,2.44-2.18,6.12-.02,8.58l35.67,40.44c3.16,3.59,4.43,8.02,4.43,11.39Z"/></g></svg>