<svg id="Capa_1" data-name="Capa 1" xmlns="http://www.w3.org/2000/svg" viewBox="0 0 2114 1080"><defs><style>.cls-1{fill:#fdf2ec;}</style></defs><path class="cls-1" d="M312.09,650.6c0,18.43-14.58,36-35.15,36a35.63,35.63,0,0,1-27-12L175.65,587a12.39,12.39,0,0,0-18.78-.14l-5.84,6.7a21.34,21.34,0,0,0-5.27,14.05v41.71c0,20.15-16.29,37.29-36.86,37.29S72,669.46,72,649.31v-219C72,410.11,88.32,393,108.9,393s36.86,17.15,36.86,37.3V494.1a7.68,7.68,0,0,0,13.42,5.11l84.32-94.67A33.61,33.61,0,0,1,269.22,393c20.15,0,34.3,17.58,34.3,34.73,0,9-3,17.14-8.15,22.71l-67.56,71.74a14,14,0,0,0-.3,18.84l76.43,86.47A35.34,35.34,0,0,1,312.09,650.6Z"/><path class="cls-1" d="M485.63,392.11c87.45,0,152.61,60.87,152.61,147.89S573.08,687.89,485.63,687.89,332.59,627,332.59,540,398.18,392.11,485.63,392.11Zm0,65.15c-47.58,0-78,36-78,82.74,0,46.3,30.44,82.73,78,82.73,47.15,0,77.59-36.43,77.59-82.73C563.22,493.27,532.78,457.26,485.63,457.26Z"/><path class="cls-1" d="M687.47,649.31v-219c0-20.15,16.29-37.3,36.86-37.3s36.87,17.15,36.87,37.3v219c0,20.15-16.29,37.29-36.87,37.29S687.47,669.46,687.47,649.31Z"/><path class="cls-1" d="M824.56,643.74V435.83a39,39,0,0,1,39-39h123c56.59,0,83.59,36.87,83.59,72.87,0,35.58-21.86,59.59-48.87,65.59,30.44,4.72,54.45,33.87,54.45,69.88,0,41.58-27.87,77.59-84,77.59H863.57A39,39,0,0,1,824.56,643.74ZM969.88,507.42c15,0,25.3-10.72,25.3-24.86s-10.29-24.44-25.3-24.44h-64a7.57,7.57,0,0,0-7.57,7.57V499a8.39,8.39,0,0,0,8.39,8.39Zm2.57,114c17.58,0,28.3-10.72,28.3-26.15,0-14.58-10.29-27-28.3-27H904.88a6.59,6.59,0,0,0-6.59,6.59v39a7.55,7.55,0,0,0,7.55,7.55Z"/><path class="cls-1" d="M1388.2,649.31a37.32,37.32,0,0,1-37.3,37.29c-16.29,0-30.86-11.14-35.15-26.14L1307.61,636H1190.15L1182,660.46c-4.71,15-18.86,26.14-35.15,26.14a37.32,37.32,0,0,1-37.29-37.29,32.7,32.7,0,0,1,2.57-12.86L1188,435a65.35,65.35,0,0,1,60.87-42,64.36,64.36,0,0,1,60.44,42l76.3,201.48C1386.91,640.31,1388.2,645,1388.2,649.31Zm-101.6-75.45-33.94-101.43a4,4,0,0,0-7.56,0l-33.95,101.43Z"/><path class="cls-1" d="M1608.66,667.32l-93.85-134.55a8.73,8.73,0,0,0-15.89,5V649.31c0,20.15-16.29,37.29-36.86,37.29s-36.87-17.14-36.87-37.29V441.4A48.67,48.67,0,0,1,1473.63,393c16.29,0,30.43,8.15,39.44,21l86.78,123.36a9.33,9.33,0,0,0,17-5.36V431.26c0-18.64,13.22-35.37,31.69-37.94,22.87-3.17,42.47,15.12,42.47,36.94V641.59c0,24.44-20.15,45-45.44,45A45.47,45.47,0,0,1,1608.66,667.32Z"/><path class="cls-1" d="M2005,650.17c0,20.15-16.29,36.43-36,36.43-10.29,0-20.58-4.28-27-12l-62.4-74.21a13.13,13.13,0,0,0-20.1,0l-62.4,74.21c-6.43,7.72-16.72,12-27,12-19.71,0-36-16.28-36-36.43a36.1,36.1,0,0,1,9-23.15l72.43-82.12a13.13,13.13,0,0,0-.07-17.46L1748.65,453a35.81,35.81,0,0,1-9-24,36.23,36.23,0,0,1,36-36,34.13,34.13,0,0,1,27.86,13.72l55.9,67.52a13.14,13.14,0,0,0,20.23,0l55.9-67.52A34.13,34.13,0,0,1,1963.42,393a36.22,36.22,0,0,1,36,36c0,8.14-2.56,16.72-6.42,20.58l-69.42,77.9a13.12,13.12,0,0,0,0,17.42L1996,627A36.1,36.1,0,0,1,2005,650.17Z"/></svg>