<svg xmlns="http://www.w3.org/2000/svg" xmlns:xlink="http://www.w3.org/1999/xlink" width="50" height="50" viewBox="0 0 50 50"><defs><clipPath id="a"><rect width="50" height="50" transform="translate(0 0.075)" fill="none"/></clipPath></defs><g transform="translate(0 -0.075)"><g clip-path="url(#a)"><path d="M283.191,0h21.142a.381.381,0,0,1,.39.39V21.532a.381.381,0,0,1-.39.39h-2.281a.381.381,0,0,1-.39-.39V3.06H283.191a.381.381,0,0,1-.39-.39V.389A.38.38,0,0,1,283.191,0Z" transform="translate(-254.704)" fill="#fff"/><path d="M0,22.089V.947A.381.381,0,0,1,.39.557H21.532a.381.381,0,0,1,.39.39V3.172a.381.381,0,0,1-.39.39H3.06V22.089a.381.381,0,0,1-.39.39H.389A.38.38,0,0,1,0,22.089Z" transform="translate(0 -0.502)" fill="#fff"/><path d="M21.532,305.277H.39a.381.381,0,0,1-.39-.39V283.745a.381.381,0,0,1,.39-.39H2.671a.381.381,0,0,1,.39.39v18.472H21.532a.381.381,0,0,1,.39.39v2.281c.055.222-.168.389-.39.389Z" transform="translate(0 -255.203)" fill="#fff"/><path d="M305.28,283.184v21.142a.381.381,0,0,1-.39.39H283.748a.381.381,0,0,1-.39-.39v-2.281a.381.381,0,0,1,.39-.39h18.472V283.184a.381.381,0,0,1,.39-.39h2.281a.419.419,0,0,1,.389.39Z" transform="translate(-255.206 -254.698)" fill="#fff"/><path d="M175.659,165.644v2.281a.381.381,0,0,1-.39.39h-7.511v7.511a.381.381,0,0,1-.39.39h-2.281a.381.381,0,0,1-.39-.39v-7.511h-7.511a.381.381,0,0,1-.39-.39v-2.281a.381.381,0,0,1,.39-.39H164.7v-7.511a.381.381,0,0,1,.39-.39h2.281a.381.381,0,0,1,.39.39v7.511h7.511C175.491,165.2,175.659,165.421,175.659,165.644Z" transform="translate(-141.219 -141.72)" fill="#fff"/></g></g></svg>