<?xml version="1.0" encoding="utf-8"?>
<!-- Generator: Adobe Illustrator 26.5.0, SVG Export Plug-In . SVG Version: 6.00 Build 0)  -->
<svg version="1.1" id="Capa_1" xmlns="http://www.w3.org/2000/svg" xmlns:xlink="http://www.w3.org/1999/xlink" x="0px" y="0px"
	 viewBox="0 0 60 1660" style="enable-background:new 0 0 60 1660;" xml:space="preserve">
<style type="text/css">
	.st0{enable-background:new    ;}
	.st1{fill:#FFFFFF;}
</style>
<g>
	<g class="st0">
		<path class="st1" d="M41.7,448.4h-26c-2.4,0-3.7-1.3-3.7-3.7V433c0-7.1,4.8-11,10.6-11c5.7,0,10.5,3.9,10.5,11v8.4h8.6
			c1.9,0,3.5,1.5,3.5,3.4C45.2,446.8,43.6,448.4,41.7,448.4z M18,434v7.4h9.1V434c0-2.8-1.8-4.8-4.5-4.8C19.9,429.2,18,431.2,18,434
			z"/>
		<path class="st1" d="M23.5,403.5c1.5,0,2.8,1,3.1,3c0.2,1.6,1.1,4.1,2.6,5.1h12.9c1.7,0,3.2,1.4,3.2,3.1c0,1.8-1.4,3.2-3.2,3.2
			H23.9c-1.8,0-3.2-1.4-3.2-3.1c0-1.8,1.4-3.2,3.2-3.2l0.4,0c-1.4-1-2.8-2.5-3.3-3.9c-0.2-0.6-0.4-1-0.4-1.6
			C20.6,404.4,21.9,403.5,23.5,403.5z"/>
		<path class="st1" d="M20.5,389.3c0-7.1,5.3-11.9,11.5-11.9c2.1,0,3,1.3,3,3.7v14c3-0.4,5.5-2.8,5.5-6.8c0-1.6-0.5-3.3-1.3-4.8
			c-0.2-0.3-0.3-0.7-0.3-1.2c0-1.3,1.1-2.5,2.5-2.5c0.9,0,1.7,0.5,2.2,1.3c1.3,2.3,2,5.1,2,7.8c0,7.2-4.9,12.7-12.5,12.7
			C26.1,401.6,20.5,396.6,20.5,389.3z M30.7,395.2v-11.7c-2.3,0.1-5.3,1.7-5.3,5.9C25.5,393.2,28.4,394.9,30.7,395.2z"/>
		<path class="st1" d="M40.9,374.4c-1.4,0-2.6-1.2-2.6-2.6c0-0.5,0.1-0.9,0.3-1.3c1.2-1.9,2-4.3,2-6.4c0-2.7-0.9-4-2.4-4
			c-1.7,0-2.3,2.1-2.8,4.8c-0.8,4.1-1.8,9.4-7.4,9.4c-4,0-7.5-3.5-7.5-9.7c0-3.1,0.8-5.7,2.1-7.8c0.4-0.7,1.2-1.2,2.1-1.2
			c1.3,0,2.4,1.1,2.4,2.4c0,0.4-0.1,0.9-0.3,1.2c-0.9,1.5-1.5,3.4-1.5,5.4c0,2.3,0.8,3.7,2.2,3.7c1.5,0,2-1.9,2.6-4.5
			c0.8-4.1,1.9-9.5,7.8-9.5c4.3,0,7.6,3.7,7.6,10.3c0,3.2-0.8,6.3-2.3,8.8C42.7,373.9,41.8,374.4,40.9,374.4z"/>
		<path class="st1" d="M40.9,350.9c-1.4,0-2.6-1.2-2.6-2.6c0-0.5,0.1-0.9,0.3-1.3c1.2-1.9,2-4.3,2-6.4c0-2.7-0.9-4-2.4-4
			c-1.7,0-2.3,2.1-2.8,4.8c-0.8,4.1-1.8,9.4-7.4,9.4c-4,0-7.5-3.5-7.5-9.7c0-3.1,0.8-5.7,2.1-7.8c0.4-0.7,1.2-1.2,2.1-1.2
			c1.3,0,2.4,1.1,2.4,2.4c0,0.4-0.1,0.9-0.3,1.2c-0.9,1.5-1.5,3.4-1.5,5.4c0,2.3,0.8,3.7,2.2,3.7c1.5,0,2-1.9,2.6-4.5
			c0.8-4.1,1.9-9.5,7.8-9.5c4.3,0,7.6,3.7,7.6,10.3c0,3.2-0.8,6.3-2.3,8.8C42.7,350.4,41.8,350.9,40.9,350.9z"/>
	</g>
	<rect x="31.6" y="0" class="st1" width="2" height="278.4"/>
	<rect x="31.6" y="496.2" class="st1" width="2" height="1086.1"/>
</g>
</svg>
