<?xml version="1.0" encoding="utf-8"?>
<!-- Generator: Adobe Illustrator 26.5.0, SVG Export Plug-In . SVG Version: 6.00 Build 0)  -->
<svg version="1.1" id="Capa_1" xmlns="http://www.w3.org/2000/svg" xmlns:xlink="http://www.w3.org/1999/xlink" x="0px" y="0px"
	 viewBox="0 0 60 1660" style="enable-background:new 0 0 60 1660;" xml:space="preserve">
<style type="text/css">
	.st0{enable-background:new    ;}
	.st1{fill:#FFFFFF;}
</style>
<g>
	<g class="st0">
		<path class="st1" d="M11.5,603.2c0-9.9,7.1-17.2,17-17.2c9.9,0,17,7.2,17,17.2c0,9.9-7.1,17.1-17,17.1
			C18.6,620.4,11.5,613.1,11.5,603.2z M17.7,603.2c0,6.1,4.6,9.9,10.8,9.9c6.1,0,10.8-3.9,10.8-9.9s-4.7-10-10.8-10
			C22.3,593.2,17.7,597.2,17.7,603.2z"/>
		<path class="st1" d="M23.9,559h18.2c1.8,0,3.2,1.4,3.2,3.1c0,1.8-1.4,3.2-3.2,3.2h-0.1c1.8,1.6,3.5,4.4,3.5,8.3
			c0,5.2-2.9,7.7-7.5,7.7H23.9c-1.7,0-3.2-1.4-3.2-3.2c0-1.7,1.4-3.1,3.2-3.1h11.6c3.3,0,4.4-1.7,4.4-4.4c0-2.4-1.3-4.3-2.7-5.4
			H23.9c-1.7,0-3.2-1.4-3.2-3.1C20.7,560.4,22.2,559,23.9,559z"/>
		<path class="st1" d="M23.5,538.4c1.5,0,2.8,1,3.1,3c0.2,1.6,1.1,4.1,2.6,5.1h12.9c1.7,0,3.2,1.4,3.2,3.1c0,1.8-1.4,3.2-3.2,3.2
			H23.9c-1.8,0-3.2-1.4-3.2-3.1c0-1.8,1.4-3.2,3.2-3.2l0.4,0c-1.4-1-2.8-2.5-3.3-3.9c-0.2-0.6-0.4-1-0.4-1.6
			C20.6,539.4,21.9,538.4,23.5,538.4z"/>
		<path class="st1" d="M33,498.3c7.9,0,12.5,4.4,12.5,10.5c0,2.8-1.2,5.4-3.6,7.3h9.3c1.7,0,3.2,1.4,3.2,3.1c0,1.8-1.4,3.2-3.2,3.2
			H23.9c-1.8,0-3.2-1.4-3.2-3.2c0-1.7,1.5-3.2,3.2-3.2H24c-2.3-1.9-3.5-4.4-3.5-7.3C20.5,502.8,25,498.3,33,498.3z M33,504.8
			c-4.1,0-6.9,2.4-6.9,6c0,2,1.2,4.3,2.7,5.4h8.4c1.5-1,2.7-3.3,2.7-5.4C39.9,507.2,37.1,504.8,33,504.8z"/>
		<path class="st1" d="M23.5,479.3c1.5,0,2.8,1,3.1,3c0.2,1.6,1.1,4.1,2.6,5.1h12.9c1.7,0,3.2,1.4,3.2,3.1c0,1.8-1.4,3.2-3.2,3.2
			H23.9c-1.8,0-3.2-1.4-3.2-3.1c0-1.8,1.4-3.2,3.2-3.2l0.4,0c-1.4-1-2.8-2.5-3.3-3.9c-0.2-0.6-0.4-1-0.4-1.6
			C20.6,480.3,21.9,479.3,23.5,479.3z"/>
		<path class="st1" d="M33,477.5c-6.7,0-12.5-4.7-12.5-12.6c0-7.9,5.7-12.6,12.5-12.6c6.8,0,12.5,4.7,12.5,12.6
			C45.5,472.7,39.7,477.5,33,477.5z M33,458.8c-3.7,0-6.9,2.2-6.9,6.1s3.2,6.1,6.9,6.1c3.7,0,6.9-2.2,6.9-6.1S36.7,458.8,33,458.8z"
			/>
		<path class="st1" d="M14.8,425h27.2c1.8,0,3.2,1.4,3.2,3.2c0,1.7-1.4,3.2-3.2,3.2h-0.2c2.3,1.9,3.5,4.5,3.5,7.3
			c0,6-4.5,10.5-12.5,10.5c-7.8,0-12.5-4.5-12.5-10.5c0-2.8,1.2-5.4,3.6-7.3h-9.3c-1.7,0-3.2-1.4-3.2-3.2
			C11.7,426.5,13.1,425,14.8,425z M37.2,431.3h-8.4c-1.6,1-2.7,3.3-2.7,5.4c0,3.5,2.8,6,6.9,6c4.1,0,6.9-2.5,6.9-6
			C39.9,434.6,38.8,432.4,37.2,431.3z"/>
		<path class="st1" d="M23.9,396.5h18.2c1.8,0,3.2,1.4,3.2,3.1c0,1.8-1.4,3.2-3.2,3.2h-0.1c1.8,1.6,3.5,4.4,3.5,8.3
			c0,5.2-2.9,7.7-7.5,7.7H23.9c-1.7,0-3.2-1.4-3.2-3.2c0-1.7,1.4-3.1,3.2-3.1h11.6c3.3,0,4.4-1.7,4.4-4.4c0-2.4-1.3-4.3-2.7-5.4
			H23.9c-1.7,0-3.2-1.4-3.2-3.1C20.7,398,22.2,396.5,23.9,396.5z"/>
		<path class="st1" d="M20.5,379.2c0-3.2,0.9-5.5,2.2-7.2c0.5-0.7,1.4-1.2,2.3-1.2c1.5,0,2.8,1.3,2.8,2.8c0,0.6-0.2,1.2-0.5,1.6
			c-0.8,1.1-1.2,2.3-1.2,3.7c0,3.8,2.8,6.4,6.9,6.4s6.9-2.7,6.9-6.4c0-1.4-0.4-2.7-1.2-3.7c-0.3-0.4-0.5-1-0.5-1.6
			c0-1.6,1.2-2.9,2.8-2.9c0.9,0,1.8,0.5,2.3,1.2c1.3,1.8,2.2,4.1,2.2,7.2c0,7.3-5.2,12.6-12.5,12.6
			C25.7,391.8,20.5,386.6,20.5,379.2z"/>
		<path class="st1" d="M42.5,353c1.2,0,2.1,0.8,2.5,1.9c0.3,0.8,0.5,1.9,0.5,3.2c0,4.4-2.3,6.7-6.5,6.7H26.6v1.5
			c0,1.5-1.2,2.8-2.7,2.8c-1.5,0-2.8-1.2-2.8-2.8v-1.5h-3.7c-1.7,0-3.2-1.4-3.2-3.2c0-1.7,1.4-3.1,3.2-3.1h3.7v-2.5
			c0-1.5,1.2-2.7,2.8-2.7c1.5,0,2.7,1.2,2.7,2.7v2.5h10.7c1.5,0,2.6-0.7,2.6-2.1c0-0.4-0.1-0.7-0.1-1C39.9,353.9,41,353,42.5,353z"
			/>
		<path class="st1" d="M40.9,350.9c-1.4,0-2.6-1.2-2.6-2.6c0-0.5,0.1-0.9,0.3-1.3c1.2-1.9,2-4.3,2-6.4c0-2.7-0.9-4-2.4-4
			c-1.7,0-2.3,2.1-2.8,4.8c-0.8,4.1-1.8,9.4-7.4,9.4c-4,0-7.5-3.5-7.5-9.7c0-3.1,0.8-5.7,2.1-7.8c0.4-0.7,1.2-1.2,2.1-1.2
			c1.3,0,2.4,1.1,2.4,2.4c0,0.4-0.1,0.9-0.3,1.2c-0.9,1.5-1.5,3.4-1.5,5.4c0,2.3,0.8,3.7,2.2,3.7c1.5,0,2-1.9,2.6-4.5
			c0.8-4.1,1.9-9.5,7.8-9.5c4.3,0,7.6,3.7,7.6,10.3c0,3.2-0.8,6.3-2.3,8.8C42.7,350.4,41.8,350.9,40.9,350.9z"/>
	</g>
	<rect x="31.6" y="0" class="st1" width="2" height="278.4"/>
	<rect x="31.6" y="667.6" class="st1" width="2" height="914.8"/>
</g>
</svg>
