<?xml version="1.0" encoding="UTF-8"?><svg id="Capa_1" xmlns="http://www.w3.org/2000/svg" viewBox="0 0 1737 500"><defs><style>.cls-1{fill:#fff;}</style></defs><g id="_9OWg2B.tif"><g><path class="cls-1" d="M923.48,351.71c-.13,1.29-.3,2.19-.3,3.09-.02,6.87-.06,13.75,.02,20.62,.02,1.89-.46,2.63-2.51,2.61-11.3-.09-22.59-.11-33.89,.01-2.31,.02-2.72-.79-2.72-2.87,.19-47.49,.35-94.97,.44-142.46,.07-38.48,.07-76.96,.02-115.44,0-2.33,.49-3.14,2.98-3.11,11.69,.13,23.38,.13,35.07,0,2.44-.03,3.05,.73,3.05,3.09-.07,30.34-.06,60.68-.01,91.03,0,1.24,.5,2.47,.76,3.71,.84-.84,1.8-1.59,2.51-2.54,10.95-14.54,25.32-23.82,43.32-26.38,21.44-3.05,41.79,.46,60.13,12.73,14.45,9.66,23.82,23.23,30.22,39.13,4.63,11.51,7.19,23.44,8.04,35.81,1.35,19.71-.05,39.07-6.72,57.83-6.39,17.98-16.65,33.06-32.82,43.69-9.63,6.33-20.22,9.75-31.72,10.6-13.96,1.03-27.78,.28-41.2-3.83-14.06-4.31-25.58-12.17-32.85-25.41-.23-.41-.49-.81-.78-1.18-.13-.17-.36-.26-1.05-.73Zm106.67-67.99c.14-11.83-2.1-23.21-6.4-34.18-4.65-11.85-11.61-21.8-23.07-28.14-12.7-7.02-25.99-7.47-39.64-3.78-10.91,2.95-19.36,9.35-25.35,18.96-7.26,11.65-10.54,24.54-11.63,38.06-.7,8.75-.45,17.5,.93,26.18,1.84,11.52,5.43,22.35,12.89,31.59,14.65,18.15,33.83,23.29,55.05,17.22,14.41-4.13,23.72-14.59,29.87-27.9,5.56-12.03,7.02-24.93,7.34-38.01Z"/><path class="cls-1" d="M1214.63,360.18c-.67,.48-1.07,.71-1.4,1.02-11.39,10.74-25.24,16.41-40.3,19.68-9.86,2.14-19.85,2.89-29.86,2.25-16.8-1.08-32.26-6.02-44.62-18.07-7.6-7.42-11.61-16.88-13.18-27.24-1.5-9.9-1.25-19.85,1.59-29.54,4.12-14.08,13.57-23.56,26.44-29.97,8.86-4.41,18.42-6.43,28.07-8.02,12.19-2,24.39-3.98,36.63-5.57,6.81-.88,13.62-1.49,20.08-3.97,1.54-.59,3.12-1.13,4.59-1.87,8.86-4.46,11.96-9.64,10.99-21.59-.86-10.6-7.06-17.2-16.87-20.33-14.91-4.76-29.9-5.04-44.76,.35-11.46,4.16-18,12.34-19.42,24.49-.19,1.6-.87,2.16-2.42,2.16-12.32-.03-24.64-.02-36.97-.02-1.11,0-2.09-.07-1.9-1.65,1.11-9.12,2.71-18.15,7.25-26.27,8.28-14.78,20.62-24.68,36.82-29.73,8.08-2.52,16.34-4.1,24.76-4.69,7.15-.5,14.35-1.13,21.49-.84,17.2,.68,33.89,3.69,48.53,13.6,12.72,8.62,20.39,20.42,21.92,35.91,.26,2.58,.4,5.19,.41,7.79,.03,31.84-.05,63.68,.11,95.52,.02,4.08,.99,8.2,1.97,12.2,.91,3.74,3.64,5.57,7.56,5.55,3.22-.01,6.44-.33,9.66-.35,.52,0,1.5,.89,1.51,1.38,.09,8.61,.07,17.22,.06,25.83,0,1.99-1.73,1.89-2.9,2.11-5.72,1.08-11.45,2.08-17.2,2.97-6.06,.94-12.07,.53-18.05-.9-10.74-2.57-17.37-9.12-19.81-19.91-.15-.68-.45-1.32-.78-2.28Zm-1.82-77.42c-1.01,.45-1.55,.6-2,.89-6.89,4.4-14.63,6.04-22.58,7.12-9.98,1.36-19.98,2.64-29.87,4.45-4.75,.87-9.42,2.59-13.92,4.44-10.1,4.16-15.72,11.75-17.21,22.73-1.37,10.11,1.89,17.83,10.37,23.32,2.3,1.49,4.82,2.72,7.38,3.69,7.35,2.8,15.07,3.14,22.83,2.9,10.9-.33,21-3.29,30-9.5,10.09-6.96,15.73-16.25,15.28-28.95-.33-9.31-.06-18.65-.07-27.97,0-.9-.12-1.81-.21-3.13Z"/><path class="cls-1" d="M1455.95,320.63c-1.78,7.76-4.09,14.93-7.63,21.64-11.65,22.11-30.32,35.21-54.22,40.81-19.75,4.63-39.56,3.83-58.7-3.2-25.94-9.53-42.41-28.29-50.76-54.38-4.91-15.35-6.41-31.21-5.6-47.21,1.17-22.87,8.02-43.9,22.52-61.88,14-17.36,31.92-28.49,54.21-31.86,37.89-5.73,73.7,11.71,92.18,46.79,6.17,11.72,9.75,24.22,11.32,37.35,1,8.34,1.2,16.67,.44,25.03-.12,1.32-.57,1.87-1.87,1.77-.63-.05-1.26,0-1.9,0-44.32,0-88.64,0-132.97-.01-1.74,0-3.31-.2-3.12,2.46,.85,12.14,3.48,23.73,10.53,33.91,7.8,11.28,18.62,17.71,32.18,19.48,8.69,1.14,17.34,.79,25.8-1.6,13.87-3.92,22.5-13.44,27.55-26.54,.77-1.98,1.63-2.79,3.87-2.76,11.06,.13,22.12,.06,33.18,.07,.91,0,1.81,.08,2.97,.13Zm-38.32-54.15c.11-.61,.26-.92,.21-1.2-.77-4.41-1.29-8.89-2.42-13.21-6.22-23.79-28.03-40.36-52.5-36.76-13.2,1.94-24.07,7.75-32.26,18.27-7,8.99-9.96,19.55-11.19,30.69-.21,1.9,1.09,1.73,2.29,1.74,9.08,.09,18.15,.23,27.23,.27,21.95,.09,43.9,.14,65.84,.2,.92,0,1.84,0,2.79,0Z"/><path class="cls-1" d="M859.13,282.75c.29,18.61-2.76,36.1-10.94,52.45-12.5,25-32.92,40.22-59.8,46.44-19.76,4.57-39.74,4.11-58.96-2.95-31.61-11.61-50.47-34.52-57.69-67.22-2.44-11.07-3.24-22.32-2.8-33.62,.76-19.51,4.91-38.16,15.57-54.85,11.8-18.47,28.42-30.56,49.44-36.69,11.46-3.34,23.17-4.69,35.05-4.19,26.6,1.11,49.39,10.78,67.25,30.9,9.13,10.28,14.9,22.41,18.59,35.57,3.17,11.31,4.54,22.85,4.29,34.15Zm-40.77-.93c-.29-3.43-.58-8.39-1.17-13.31-.4-3.35-1.1-6.69-1.86-9.98-5.43-23.35-23.1-41.85-45.66-43.36-9.89-.66-19.42,.2-28.29,4.76-13.92,7.15-22.53,18.86-27.12,33.51-4.21,13.46-5.33,27.3-3.66,41.37,1.11,9.37,2.97,18.5,7.22,27.01,12.18,24.42,34.44,33.94,59.87,27.95,15.2-3.58,25.41-13.8,32.37-27.42,6.24-12.23,7.83-25.5,8.3-40.54Z"/><path class="cls-1" d="M415.71,216.26c.61-.91,1.21-1.81,1.82-2.72,10.13-15.06,23.52-25.6,41.44-29.79,9.17-2.14,18.43-2.01,27.73-.89,9.02,1.08,17.66,3.33,25.58,7.86,14.99,8.57,23.92,21.5,26.74,38.47,1,6.03,1.48,12.22,1.49,18.34,.12,42.82,.05,85.65,.12,128.47,0,2.46-.74,3.03-3.09,3-11.69-.12-23.38-.12-35.07,0-2.36,.02-2.86-.76-2.86-2.97,.06-38.79,.06-77.59,.03-116.38,0-7.52-1.04-14.91-3.26-22.13-3.95-12.9-12.68-20.17-25.94-22.05-8.97-1.27-17.76-.59-26.25,2.8-7.11,2.84-12.86,7.48-17.24,13.63-6.23,8.76-10.34,18.4-10.64,29.35-.16,6.08-.34,12.15-.34,18.23-.03,32.08-.02,64.16-.02,96.23q0,3.22-3.25,3.23c-11.69,0-23.38-.05-35.07,.04-2.07,.02-2.69-.56-2.68-2.66,.05-62.1,.05-124.2,0-186.31,0-2.25,.68-2.78,2.83-2.76,11.14,.1,22.28,.11,33.41,0,2.36-.03,2.91,.75,2.88,2.97-.12,7.66-.07,15.33-.01,22.99,0,1.04,.48,2.07,.74,3.11,.3-.02,.61-.04,.91-.06Z"/><path class="cls-1" d="M665.98,147.98c-6.61-.31-13.03-.69-19.46-.87-4.18-.12-8.12,1.08-11.77,3.07-4.91,2.67-6.62,7.39-6.92,12.47-.44,7.4-.31,14.83-.48,22.25-.04,1.8,.55,2.47,2.46,2.45,10.03-.09,20.06,.02,30.09-.09,2.2-.02,3.03,.46,2.99,2.85-.14,8.53-.11,17.07-.02,25.6,.02,1.95-.55,2.59-2.54,2.57-9.48-.09-18.96-.06-28.44-.03-4.61,.01-4.54-.68-4.53,4.43,0,50.09,0,100.18,0,150.27q0,6-5.92,6c-10.11,0-20.22,.03-30.33-.01-5.44-.02-4.69,.74-4.69-4.57-.02-50.8-.01-101.6-.01-152.41q0-3.71-3.74-3.72c-8.21,0-16.43-.06-24.64,.04-1.97,.02-2.59-.63-2.6-2.56-.05-8.69-.18-17.37-.4-26.06-.05-1.94,.66-2.4,2.48-2.38,8.69,.08,17.38-.02,26.07,.08,1.9,.02,2.39-.58,2.41-2.42,.06-8.21,.04-16.43,.49-24.62,.51-9.3,2.74-18.22,7.41-26.4,6.17-10.8,15.94-16.57,27.82-18.48,14.18-2.27,28.46-1.67,42.62,.76,.71,.12,1.77,1.21,1.78,1.86,.11,9.8,.07,19.59,.05,29.39,0,.29-.18,.57-.17,.54Z"/><path class="cls-1" d="M299.13,189.72c13.79,10,27.25,9.93,40.87-.27v2.62c0,61.4,0,122.8,0,184.2q0,3.16-3.05,3.16c-11.77,0-23.54-.05-35.31,.05-2.11,.02-2.68-.67-2.68-2.71,.04-61.56,.04-123.11,.04-184.67,0-.62,.06-1.25,.13-2.37Z"/><path class="cls-1" d="M296.57,151.7c-.05-13.06,10-23.34,22.83-23.36,12.63-.02,22.92,10.31,22.97,23.06,.05,12.98-10.16,23.63-22.67,23.66-12.95,.04-23.08-10.2-23.13-23.37Z"/></g></g></svg>