<svg width="278" height="232" viewBox="0 0 278 232" fill="none" xmlns="http://www.w3.org/2000/svg">
<mask id="mask0_656_412" style="mask-type:alpha" maskUnits="userSpaceOnUse" x="0" y="0" width="278" height="232">
<rect width="278" height="232" fill="#D9D9D9"/>
</mask>
<g mask="url(#mask0_656_412)">
<g clip-path="url(#clip0_656_412)">
<path d="M211.441 214.482L269.269 246.898L195.21 289.168L121.152 246.898L126.878 243.677L195.21 205.933L211.441 214.482Z" fill="#FFFF00" stroke="#020101" stroke-width="2" stroke-miterlimit="10"/>
<path d="M269.269 222.76V235.178L195.21 277.444L121.152 235.178V222.76" fill="#FFFF00"/>
<path d="M269.269 222.76V235.178L195.21 277.444L121.152 235.178V222.76" stroke="#020101" stroke-width="2" stroke-miterlimit="10"/>
<path d="M211.441 190.344L269.269 222.76L195.21 265.03L121.152 222.76L126.878 219.54L195.21 181.795L211.441 190.344Z" fill="#FFFF00" stroke="#020101" stroke-width="2" stroke-miterlimit="10"/>
<path d="M269.269 198.983V211.401L195.21 253.667L121.152 211.401V198.983" fill="#FFFF00"/>
<path d="M269.269 198.983V211.401L195.21 253.667L121.152 211.401V198.983" stroke="#020101" stroke-width="2" stroke-miterlimit="10"/>
<path d="M211.441 166.567L269.269 198.983L195.21 241.253L121.152 198.983L126.878 195.762L195.21 158.018L211.441 166.567Z" fill="#FFFF00" stroke="#020101" stroke-width="2" stroke-miterlimit="10"/>
<path d="M269.269 177.367V189.786L195.21 232.052L121.152 189.786V177.367" fill="#FFFF00"/>
<path d="M269.269 177.367V189.786L195.21 232.052L121.152 189.786V177.367" stroke="#020101" stroke-width="2" stroke-miterlimit="10"/>
<path d="M195.21 219.637V232.052" stroke="#020101" stroke-width="2" stroke-miterlimit="10"/>
<path d="M211.441 144.951L269.269 177.367L195.21 219.637L121.152 177.367L126.878 174.147L195.21 136.402L211.441 144.951Z" fill="#FFFF00" stroke="#020101" stroke-width="2" stroke-miterlimit="10"/>
<path d="M269.269 155.031V167.449L195.21 209.715L121.152 167.449V155.031" fill="#FFFF00"/>
<path d="M269.269 155.031V167.449L195.21 209.715L121.152 167.449V155.031" stroke="#020101" stroke-width="2" stroke-miterlimit="10"/>
<path d="M195.21 197.301V209.715" stroke="#020101" stroke-width="2" stroke-miterlimit="10"/>
<path d="M211.441 122.615L269.269 155.031L195.21 197.301L121.152 155.031L126.878 151.81L195.21 114.066L211.441 122.615Z" fill="#FFFF00" stroke="#020101" stroke-width="2" stroke-miterlimit="10"/>
<path d="M269.269 132.695V145.113L195.21 187.379L121.152 145.113V132.695" fill="#FFFF00"/>
<path d="M269.269 132.695V145.113L195.21 187.379L121.152 145.113V132.695" stroke="#020101" stroke-width="2" stroke-miterlimit="10"/>
<path d="M195.21 174.964V187.379" stroke="#020101" stroke-width="2" stroke-miterlimit="10"/>
<path d="M211.441 100.278L269.269 132.695L195.21 174.964L121.152 132.695L126.878 129.474L195.21 91.7295L211.441 100.278Z" fill="#FFFF00" stroke="#020101" stroke-width="2" stroke-miterlimit="10"/>
<path d="M234.154 27.0481L241.334 37.1751L205.362 114.509L120.511 122.885L113.33 112.754" fill="#FFFF00"/>
<path d="M234.154 27.0481L241.334 37.1751L205.362 114.509L120.511 122.885L113.33 112.754" stroke="#020101" stroke-width="2" stroke-miterlimit="10"/>
<path d="M234.154 27.0481L198.181 104.378L113.33 112.754L149.735 36.0294L234.154 27.0481Z" fill="#FFFF00" stroke="#020101" stroke-width="2" stroke-miterlimit="10"/>
<path d="M198.181 104.378L205.362 114.509" stroke="#020101" stroke-width="2" stroke-miterlimit="10"/>
<path d="M170.395 -20.2507L180.835 -13.5355L176.319 71.6413L100.726 111.101L90.2861 104.385" fill="#FFFF00"/>
<path d="M170.395 -20.2507L180.835 -13.5355L176.319 71.6413L100.726 111.101L90.2861 104.385" stroke="#020101" stroke-width="2" stroke-miterlimit="10"/>
<path d="M170.395 -20.2507L165.879 64.926L90.2861 104.385L95.4286 19.6086L170.395 -20.2507Z" fill="#FFFF00" stroke="#020101" stroke-width="2" stroke-miterlimit="10"/>
<path d="M165.879 64.926L176.319 71.6413" stroke="#020101" stroke-width="2" stroke-miterlimit="10"/>
<path d="M106.538 -53.301L118.357 -49.5075L135.964 33.9508L73.1121 91.5855L61.293 87.7919" fill="#FFFF00"/>
<path d="M106.538 -53.301L118.357 -49.5075L135.964 33.9508L73.1121 91.5855L61.293 87.7919" stroke="#020101" stroke-width="2" stroke-miterlimit="10"/>
<path d="M106.538 -53.301L124.145 30.1572L61.293 87.7919L44.3926 4.56064L106.538 -53.301Z" fill="#FFFF00" stroke="#020101" stroke-width="2" stroke-miterlimit="10"/>
<path d="M124.145 30.1572L135.964 33.9508" stroke="#020101" stroke-width="2" stroke-miterlimit="10"/>
</g>
</g>
<defs>
<clipPath id="clip0_656_412">
<rect width="226" height="356" fill="white" transform="translate(44 -54)"/>
</clipPath>
</defs>
</svg>
