<svg width="626" height="528" viewBox="0 0 626 528" fill="none" xmlns="http://www.w3.org/2000/svg">
<path d="M120.076 510.283C117.717 510.283 115.452 509.811 113.768 508.836L31.2128 461.178C29.5611 460.219 28.6487 458.898 28.6487 457.435C28.6487 455.689 29.9543 453.927 32.251 452.606L189.701 361.711C193.98 359.242 200.493 358.974 204.205 361.113L286.761 408.771C288.413 409.73 289.325 411.051 289.325 412.514C289.325 414.26 288.019 416.022 285.723 417.343L128.272 508.238C125.928 509.591 122.924 510.283 120.076 510.283ZM113.941 508.521C117.56 510.613 123.899 510.346 128.084 507.923L285.534 417.028C287.705 415.77 288.947 414.119 288.947 412.499C288.947 411.177 288.098 409.95 286.556 409.07L204.001 361.412C200.383 359.32 194.043 359.588 189.859 362.01L32.4084 452.905C30.2375 454.163 28.9948 455.815 28.9948 457.435C28.9948 458.756 29.8442 459.983 31.3859 460.879L113.941 508.537V508.521Z" fill="#DBDBDB"/>
<path d="M289.136 390.51L277.275 392.555L204.095 350.308C200.43 348.185 194.011 348.452 189.78 350.906L49.7908 431.719L28.8215 435.321V442.744C28.8215 444.097 29.6238 445.387 31.2913 446.362L113.847 494.019C117.512 496.143 123.93 495.875 128.162 493.422L285.612 402.527C287.893 401.205 289.073 399.522 289.105 397.934V390.494L289.136 390.51Z" fill="url(#paint0_linear_658_416)"/>
<path d="M113.863 486.548L31.3071 438.891C27.6418 436.768 28.098 433.071 32.3296 430.618L189.78 339.723C194.011 337.269 200.43 337.017 204.095 339.125L286.651 386.782C290.316 388.906 289.86 392.602 285.628 395.056L128.178 485.951C123.946 488.404 117.528 488.656 113.863 486.548Z" fill="#1E1E1E"/>
<path d="M285.628 395.071L128.178 485.966C123.946 488.42 117.528 488.672 113.863 486.564L31.3071 438.907C29.8284 438.057 29.0418 436.956 28.8688 435.777C28.6486 437.302 29.4351 438.797 31.3071 439.866L113.863 487.524C117.528 489.647 123.946 489.379 128.178 486.926L285.628 396.031C288.161 394.568 289.341 392.649 289.089 390.887C288.869 392.35 287.704 393.86 285.628 395.056V395.071Z" fill="white"/>
<path opacity="0.51" d="M114.02 484.708L34.4061 438.734C30.8509 436.689 31.3071 433.103 35.3971 430.728L189.921 341.547C194.027 339.172 200.225 338.92 203.78 340.965L283.394 386.94C286.949 388.984 286.493 392.57 282.403 394.945L127.879 484.126C123.773 486.501 117.575 486.753 114.02 484.708Z" fill="#4F4F4F"/>
<path style="mix-blend-mode:lighten" opacity="0.8" d="M120.045 484.283C117.748 484.283 115.546 483.812 113.894 482.868L34.2802 436.893C32.6442 435.95 31.7476 434.644 31.7476 433.197C31.7476 431.467 33.0375 429.737 35.2713 428.447L189.796 339.266C193.964 336.86 200.288 336.608 203.906 338.684L283.52 384.659C285.156 385.603 286.053 386.908 286.053 388.355C286.053 390.085 284.763 391.815 282.529 393.105L128.005 482.286C125.724 483.591 122.814 484.268 120.029 484.268L120.045 484.283ZM114.162 482.427C117.638 484.441 123.742 484.173 127.769 481.846L282.293 392.665C284.37 391.469 285.565 389.897 285.565 388.355C285.565 387.097 284.763 385.949 283.3 385.099L203.686 339.125C200.209 337.112 194.106 337.379 190.079 339.707L35.5544 428.888C33.478 430.083 32.2824 431.656 32.2824 433.197C32.2824 434.456 33.0847 435.604 34.5477 436.453L114.162 482.427Z" fill="url(#paint1_linear_658_416)"/>
<g opacity="0.3">
<path style="mix-blend-mode:lighten" opacity="0.5" d="M114.02 482.648L34.4061 436.673C30.8509 434.629 31.3071 431.042 35.3971 428.667L189.921 339.487C194.027 337.112 200.225 336.86 203.78 338.905L283.394 384.879C286.949 386.924 286.493 390.51 282.403 392.885L127.879 482.066C123.773 484.441 117.575 484.692 114.02 482.648Z" fill="url(#paint2_radial_658_416)"/>
<mask id="mask0_658_416" style="mask-type:luminance" maskUnits="userSpaceOnUse" x="32" y="337" width="254" height="148">
<path d="M114.02 482.648L34.4061 436.673C30.8509 434.629 31.3071 431.042 35.3971 428.667L189.921 339.487C194.027 337.112 200.225 336.86 203.78 338.905L283.394 384.879C286.949 386.924 286.493 390.51 282.403 392.885L127.879 482.066C123.773 484.441 117.575 484.692 114.02 482.648Z" fill="white"/>
</mask>
<g mask="url(#mask0_658_416)">
<path d="M230.444 437.821L229.296 437.664C229.17 437.57 229.044 437.491 228.903 437.412L140.322 386.279C138.025 384.958 134.03 385.131 131.387 386.657L79.711 416.494C79.0188 416.887 78.4997 417.343 78.1379 417.815L77.5244 417.642V419.435C77.5244 420.268 78.0278 421.071 79.066 421.652L167.647 472.786C169.943 474.107 173.939 473.934 176.582 472.408L228.258 442.571C229.736 441.722 230.476 440.621 230.444 439.583V437.821Z" fill="#E5E5E5"/>
<path d="M167.647 470.977L79.066 419.844C76.7693 418.522 77.0682 416.21 79.711 414.685L131.387 384.848C134.03 383.322 138.025 383.149 140.322 384.47L228.903 435.604C231.199 436.925 230.9 439.237 228.258 440.763L176.582 470.6C173.939 472.125 169.943 472.298 167.647 470.977Z" fill="#CCCCCC"/>
<path d="M109.238 424.405L98.3049 418.098C97.2824 417.516 97.4083 416.478 98.5881 415.801C99.7679 415.125 101.545 415.046 102.552 415.644L113.485 421.951C114.508 422.533 114.382 423.571 113.202 424.248C112.022 424.924 110.245 425.003 109.238 424.405Z" fill="white"/>
<path d="M129.421 436.044L118.488 429.737C117.465 429.155 117.591 428.117 118.771 427.441C119.951 426.764 121.728 426.686 122.735 427.283L133.668 433.59C134.69 434.172 134.564 435.21 133.385 435.887C132.205 436.563 130.427 436.642 129.421 436.044Z" fill="white"/>
<path d="M149.603 447.699L138.67 441.392C137.648 440.81 137.774 439.772 138.954 439.095C140.133 438.419 141.911 438.34 142.918 438.938L153.851 445.245C154.873 445.827 154.747 446.865 153.568 447.542C152.388 448.218 150.61 448.297 149.603 447.699Z" fill="white"/>
<path d="M169.786 459.354L158.853 453.047C157.831 452.465 157.956 451.427 159.136 450.75C160.316 450.074 162.094 449.995 163.1 450.593L174.033 456.9C175.056 457.482 174.93 458.52 173.75 459.196C172.57 459.873 170.793 459.951 169.786 459.354Z" fill="white"/>
</g>
</g>
<path opacity="0.4" d="M266.405 392.523C265.194 393.231 263.227 393.231 262 392.523C260.789 391.815 260.789 390.683 262 389.975C263.212 389.267 265.178 389.267 266.405 389.975C267.616 390.683 267.616 391.815 266.405 392.523Z" fill="#707070"/>
<path opacity="0.4" d="M249.604 380.286L258.225 385.257C259.279 385.87 259.153 386.924 257.926 387.632C256.715 388.339 254.874 388.402 253.82 387.805L245.2 382.834C244.146 382.221 244.272 381.167 245.499 380.459C246.71 379.752 248.55 379.689 249.604 380.286Z" fill="#707070"/>
<path opacity="0.4" d="M201.185 351.755L209.805 356.725C210.859 357.339 210.734 358.392 209.506 359.1C208.295 359.808 206.455 359.871 205.401 359.273L196.78 354.303C195.726 353.69 195.852 352.636 197.079 351.928C198.29 351.22 200.131 351.157 201.185 351.755Z" fill="#707070"/>
<path d="M266.405 389.44C265.194 390.148 263.227 390.148 262 389.44C260.789 388.733 260.789 387.6 262 386.892C263.212 386.185 265.178 386.185 266.405 386.892C267.616 387.6 267.616 388.733 266.405 389.44Z" fill="#E0E0E0"/>
<path d="M249.604 377.204L258.225 382.174C259.279 382.787 259.153 383.841 257.926 384.549C256.715 385.257 254.874 385.32 253.82 384.722L245.2 379.752C244.146 379.138 244.272 378.084 245.499 377.377C246.71 376.669 248.55 376.606 249.604 377.204Z" fill="#E0E0E0"/>
<path d="M201.185 348.656L209.805 353.627C210.859 354.24 210.734 355.294 209.506 356.002C208.295 356.709 206.455 356.772 205.401 356.175L196.78 351.204C195.726 350.591 195.852 349.537 197.079 348.829C198.29 348.122 200.131 348.059 201.185 348.656Z" fill="#E0E0E0"/>
<g opacity="0.3">
<path d="M46.1412 513.617V509.606L45.0243 508.993C44.7097 510.896 42.4759 512.139 40.6197 512.406L27.9091 519.83L22.3561 521.827L4.65892 512.689L5.06792 512.453C3.55776 511.745 2.73975 510.125 1.92175 508.663L0.7262 509.37L0.0183105 509.575V513.696C0.0183105 514.482 0.537429 515.269 1.57567 515.866L19.3201 526.106C21.3966 527.301 24.7787 527.301 26.8552 526.106L44.5996 515.866C45.6221 515.284 46.1412 514.498 46.1569 513.727C46.1569 513.696 46.1569 513.664 46.1569 513.617H46.1412Z" fill="url(#paint3_linear_658_416)"/>
<path opacity="0.3" d="M40.6198 512.39L27.9092 519.814L23.0798 521.56V526.986C24.4484 526.986 25.8013 526.688 26.8395 526.09L44.5839 515.851C45.6064 515.269 46.1256 514.482 46.1413 513.712C46.1413 513.68 46.1413 513.649 46.1413 513.601V509.591L45.1188 509.024H45.0087C44.6626 510.896 42.4603 512.123 40.604 512.375L40.6198 512.39Z" fill="#2D2D2D"/>
<path d="M19.3201 522.016L1.57567 511.777C-0.500808 510.582 -0.500808 508.631 1.57567 507.436L19.3201 497.197C21.3966 496.001 24.7787 496.001 26.8552 497.197L44.5996 507.436C46.6761 508.631 46.6761 510.582 44.5996 511.777L26.8552 522.016C24.7787 523.212 21.3966 523.212 19.3201 522.016Z" fill="url(#paint4_linear_658_416)"/>
<g opacity="0.3">
<path d="M19.3201 522.016L1.57567 511.777C-0.500808 510.582 -0.500808 508.631 1.57567 507.436L19.3201 497.197C21.3966 496.001 24.7787 496.001 26.8552 497.197L44.5996 507.436C46.6761 508.631 46.6761 510.582 44.5996 511.777L26.8552 522.016C24.7787 523.212 21.3966 523.212 19.3201 522.016Z" fill="#9B9B9B"/>
</g>
</g>
<path d="M23.0798 507.121C21.8685 507.121 20.6573 506.854 19.7292 506.319L1.98473 496.08C1.05661 495.545 0.553223 494.837 0.553223 494.067C0.553223 493.296 1.05661 492.572 1.98473 492.053L19.7292 481.814C21.5697 480.745 24.5743 480.745 26.4148 481.814L44.1592 492.053C45.0873 492.588 45.5907 493.296 45.5907 494.067C45.5907 494.837 45.0873 495.561 44.1592 496.08L26.4148 506.319C25.4867 506.854 24.2754 507.121 23.0641 507.121H23.0798ZM23.0798 481.311C21.9315 481.311 20.7674 481.562 19.8865 482.066L2.14204 492.305C1.32404 492.777 0.86784 493.406 0.86784 494.051C0.86784 494.696 1.32404 495.325 2.14204 495.797L19.8865 506.036C21.6483 507.058 24.5113 507.058 26.2575 506.036L44.0019 495.797C44.8199 495.325 45.2761 494.696 45.2761 494.051C45.2761 493.406 44.8199 492.777 44.0019 492.305L26.2575 482.066C25.3765 481.562 24.2282 481.311 23.0641 481.311H23.0798Z" fill="#C6C6C6"/>
<path opacity="0.4" d="M46.1412 490.134V484.063L45.0243 483.45C44.7097 485.353 42.4759 486.596 40.6197 486.863L27.9091 494.287L22.3561 496.284L4.65892 487.146L5.06792 486.91C3.55776 486.202 2.73975 484.582 1.92175 483.12L0.7262 483.827L0.0183105 484.032V490.213C0.0183105 491 0.537429 491.786 1.57567 492.384L19.3201 502.623C21.3966 503.818 24.7787 503.818 26.8552 502.623L44.5996 492.384C45.6221 491.802 46.1412 491.015 46.1569 490.245C46.1569 490.213 46.1569 490.182 46.1569 490.134H46.1412Z" fill="#AFAFAF"/>
<path d="M46.1412 484.74V480.729L45.0243 480.115C44.7097 482.019 42.4759 483.261 40.6197 483.529L27.9091 490.952L22.3561 492.95L4.65892 483.812L5.06792 483.576C3.55776 482.868 2.73975 481.248 1.92175 479.785L0.7262 480.493L0.0183105 480.697V484.818C0.0183105 485.605 0.537429 486.391 1.57567 486.989L19.3201 497.228C21.3966 498.423 24.7787 498.423 26.8552 497.228L44.5996 486.989C45.6221 486.407 46.1412 485.62 46.1569 484.85C46.1569 484.818 46.1569 484.787 46.1569 484.74H46.1412Z" fill="url(#paint5_linear_658_416)"/>
<path opacity="0.3" d="M40.6198 483.497L27.9092 490.921L23.0798 492.667V498.093C24.4484 498.093 25.8013 497.794 26.8395 497.197L44.5839 486.957C45.6064 486.375 46.1256 485.589 46.1413 484.818C46.1413 484.787 46.1413 484.755 46.1413 484.708V480.697L45.1188 480.131H45.0087C44.6626 482.003 42.4603 483.23 40.604 483.481L40.6198 483.497Z" fill="#5B5B5B"/>
<path d="M19.3201 493.123L1.57567 482.884C-0.500808 481.688 -0.500808 479.738 1.57567 478.543L19.3201 468.303C21.3966 467.108 24.7787 467.108 26.8552 468.303L44.5996 478.543C46.6761 479.738 46.6761 481.688 44.5996 482.884L26.8552 493.123C24.7787 494.318 21.3966 494.318 19.3201 493.123Z" fill="url(#paint6_linear_658_416)"/>
<path d="M23.0798 491.267C21.9786 491.267 20.8932 491.031 20.0595 490.543L6.20058 482.538C5.36684 482.05 4.91064 481.405 4.91064 480.697C4.91064 479.99 5.36684 479.345 6.20058 478.857L20.0595 470.851C21.7269 469.892 24.4327 469.892 26.1001 470.851L39.959 478.857C40.7928 479.345 41.249 479.99 41.249 480.697C41.249 481.405 40.7928 482.05 39.959 482.538L26.1001 490.543C25.2664 491.031 24.181 491.267 23.0798 491.267ZM23.0798 470.458C22.0416 470.458 21.0033 470.694 20.2168 471.15L6.35789 479.156C5.61853 479.581 5.22526 480.131 5.22526 480.713C5.22526 481.295 5.63427 481.861 6.35789 482.27L20.2168 490.276C21.7899 491.188 24.3697 491.188 25.9428 490.276L39.8017 482.27C40.5411 481.846 40.9343 481.295 40.9343 480.713C40.9343 480.131 40.5253 479.581 39.8017 479.156L25.9428 471.15C25.1563 470.694 24.118 470.458 23.0798 470.458Z" fill="#999999"/>
<path d="M44.584 482.884L26.8396 493.123C24.7631 494.318 21.381 494.318 19.3045 493.123L1.56006 482.884C0.631935 482.349 0.112816 481.657 0.0184313 480.965C-0.107416 481.83 0.411703 482.726 1.56006 483.387L19.3045 493.626C21.381 494.822 24.7631 494.822 26.8396 493.626L44.584 483.387C45.7323 482.726 46.2515 481.83 46.1256 480.965C46.0312 481.673 45.5121 482.349 44.584 482.884Z" fill="white"/>
<path opacity="0.4" d="M164.611 446.802L95.8037 407.072C94.0261 406.05 94.2464 404.257 96.3071 403.061L136.452 379.893C138.513 378.714 141.612 378.572 143.39 379.61L212.196 419.34C213.974 420.363 213.754 422.156 211.693 423.351L171.548 446.519C169.487 447.699 166.388 447.84 164.611 446.802Z" fill="#B7B7B7"/>
<path d="M230.444 388.45L229.296 388.292C229.17 388.198 229.044 388.119 228.903 388.041L140.322 336.907C138.025 335.586 134.03 335.759 131.387 337.285L79.711 367.122C79.0188 367.515 78.4997 367.971 78.1379 368.443L77.5244 368.27V370.063C77.5244 370.897 78.0278 371.699 79.066 372.281L167.647 423.414C169.943 424.735 173.939 424.562 176.582 423.037L228.258 393.2C229.736 392.35 230.476 391.249 230.444 390.211V388.45Z" fill="#E0E0E0"/>
<path d="M167.647 421.605L79.066 370.472C76.7693 369.151 77.0682 366.839 79.711 365.313L131.387 335.476C134.03 333.95 138.025 333.777 140.322 335.098L228.903 386.232C231.199 387.553 230.9 389.865 228.258 391.391L176.582 421.228C173.939 422.753 169.943 422.926 167.647 421.605Z" fill="#ADADAD"/>
<path d="M181.946 418.129L85.0752 362.214L95.3632 356.269L192.234 412.2L181.946 418.129Z" fill="#2D2D2D"/>
<g opacity="0.3">
<path d="M68.4947 393.782V389.771L67.3778 389.157C67.0632 391.06 64.8294 392.303 62.9732 392.57L50.2627 399.994L44.7097 401.992L27.0124 392.854L27.4214 392.618C25.9113 391.91 25.0933 390.29 24.2753 388.827L23.0797 389.535L22.3718 389.739V393.86C22.3718 394.647 22.8909 395.433 23.9292 396.031L41.6736 406.27C43.7501 407.465 47.1322 407.465 49.2087 406.27L66.9531 396.031C67.9756 395.449 68.4947 394.662 68.5105 393.892C68.5105 393.86 68.5105 393.829 68.5105 393.782H68.4947Z" fill="url(#paint7_linear_658_416)"/>
<path opacity="0.3" d="M62.9733 392.539L50.2627 399.963L45.4333 401.709V407.135C46.8019 407.135 48.1548 406.836 49.193 406.238L66.9374 395.999C67.96 395.417 68.4791 394.631 68.4948 393.86C68.4948 393.829 68.4948 393.797 68.4948 393.75V389.739L67.4723 389.173H67.3622C67.0161 391.045 64.8138 392.272 62.9575 392.523L62.9733 392.539Z" fill="#2D2D2D"/>
<path d="M41.6736 402.165L23.9292 391.926C21.8527 390.73 21.8527 388.78 23.9292 387.584L41.6736 377.345C43.7501 376.15 47.1322 376.15 49.2087 377.345L66.9531 387.584C69.0296 388.78 69.0296 390.73 66.9531 391.926L49.2087 402.165C47.1322 403.36 43.7501 403.36 41.6736 402.165Z" fill="url(#paint8_linear_658_416)"/>
<g opacity="0.3">
<path d="M41.6736 402.165L23.9292 391.926C21.8527 390.73 21.8527 388.78 23.9292 387.584L41.6736 377.345C43.7501 376.15 47.1322 376.15 49.2087 377.345L66.9531 387.584C69.0296 388.78 69.0296 390.73 66.9531 391.926L49.2087 402.165C47.1322 403.36 43.7501 403.36 41.6736 402.165Z" fill="#9B9B9B"/>
</g>
</g>
<path d="M45.4333 387.27C44.2221 387.27 43.0108 387.003 42.0827 386.468L24.3382 376.228C23.4101 375.694 22.9067 374.986 22.9067 374.215C22.9067 373.445 23.4101 372.721 24.3382 372.202L42.0827 361.963C43.9232 360.893 46.9278 360.893 48.7683 361.963L66.5127 372.202C67.4408 372.737 67.9442 373.445 67.9442 374.215C67.9442 374.986 67.4408 375.709 66.5127 376.228L48.7683 386.468C47.8402 387.003 46.6289 387.27 45.4176 387.27H45.4333ZM45.4333 361.459C44.285 361.459 43.1209 361.711 42.24 362.214L24.4956 372.454C23.6776 372.926 23.2214 373.555 23.2214 374.2C23.2214 374.844 23.6776 375.474 24.4956 375.945L42.24 386.185C44.0018 387.207 46.8649 387.207 48.611 386.185L66.3554 375.945C67.1734 375.474 67.6296 374.844 67.6296 374.2C67.6296 373.555 67.1734 372.926 66.3554 372.454L48.611 362.214C47.73 361.711 46.5817 361.459 45.4176 361.459H45.4333Z" fill="#C6C6C6"/>
<path opacity="0.4" d="M68.4947 370.283V364.212L67.3778 363.598C67.0632 365.502 64.8294 366.744 62.9732 367.012L50.2627 374.435L44.7097 376.433L27.0124 367.295L27.4214 367.059C25.9113 366.351 25.0933 364.731 24.2753 363.268L23.0797 363.976L22.3718 364.18V370.362C22.3718 371.148 22.8909 371.935 23.9292 372.532L41.6736 382.772C43.7501 383.967 47.1322 383.967 49.2087 382.772L66.9531 372.532C67.9756 371.95 68.4947 371.164 68.5105 370.393C68.5105 370.362 68.5105 370.33 68.5105 370.283H68.4947Z" fill="#AFAFAF"/>
<path d="M68.4947 364.888V360.877L67.3778 360.264C67.0632 362.167 64.8294 363.41 62.9732 363.677L50.2627 371.101L44.7097 373.099L27.0124 363.96L27.4214 363.724C25.9113 363.017 25.0933 361.396 24.2753 359.934L23.0797 360.641L22.3718 360.846V364.967C22.3718 365.753 22.8909 366.54 23.9292 367.137L41.6736 377.377C43.7501 378.572 47.1322 378.572 49.2087 377.377L66.9531 367.137C67.9756 366.555 68.4947 365.769 68.5105 364.998C68.5105 364.967 68.5105 364.935 68.5105 364.888H68.4947Z" fill="url(#paint9_linear_658_416)"/>
<path opacity="0.3" d="M62.9733 363.661L50.2627 371.085L45.4333 372.831V378.257C46.8019 378.257 48.1548 377.959 49.193 377.361L66.9374 367.122C67.96 366.54 68.4791 365.753 68.4948 364.983C68.4948 364.951 68.4948 364.92 68.4948 364.872V360.862L67.4723 360.296H67.3622C67.0161 362.167 64.8138 363.394 62.9575 363.646L62.9733 363.661Z" fill="#5B5B5B"/>
<path d="M41.6736 373.287L23.9292 363.048C21.8527 361.853 21.8527 359.902 23.9292 358.707L41.6736 348.468C43.7501 347.272 47.1322 347.272 49.2087 348.468L66.9531 358.707C69.0296 359.902 69.0296 361.853 66.9531 363.048L49.2087 373.287C47.1322 374.483 43.7501 374.483 41.6736 373.287Z" fill="url(#paint10_linear_658_416)"/>
<path d="M45.4333 371.431C44.3322 371.431 43.2467 371.195 42.413 370.708L28.5541 362.702C27.7204 362.214 27.2642 361.569 27.2642 360.862C27.2642 360.154 27.7204 359.509 28.5541 359.021L42.413 351.016C44.0805 350.056 46.7862 350.056 48.4536 351.016L62.3125 359.021C63.1463 359.509 63.6025 360.154 63.6025 360.862C63.6025 361.569 63.1463 362.214 62.3125 362.702L48.4536 370.708C47.6199 371.195 46.5345 371.431 45.4333 371.431ZM45.4333 350.622C44.3951 350.622 43.3568 350.858 42.5703 351.315L28.7114 359.32C27.972 359.745 27.5788 360.295 27.5788 360.877C27.5788 361.459 27.9878 362.026 28.7114 362.435L42.5703 370.44C44.1434 371.353 46.7232 371.353 48.2963 370.44L62.1552 362.435C62.8946 362.01 63.2879 361.459 63.2879 360.877C63.2879 360.295 62.8788 359.745 62.1552 359.32L48.2963 351.315C47.5098 350.858 46.4716 350.622 45.4333 350.622Z" fill="#999999"/>
<path d="M66.9375 363.048L49.1931 373.287C47.1166 374.483 43.7345 374.483 41.658 373.287L23.9136 363.048C22.9855 362.513 22.4663 361.821 22.3719 361.129C22.2461 361.994 22.7652 362.891 23.9136 363.551L41.658 373.791C43.7345 374.986 47.1166 374.986 49.1931 373.791L66.9375 363.551C68.0858 362.891 68.605 361.994 68.4791 361.129C68.3847 361.837 67.8656 362.513 66.9375 363.048Z" fill="white"/>
<path d="M401.045 418.129C399.457 418.129 397.773 417.752 396.484 416.997L186.618 295.84C185.297 295.069 184.542 294.047 184.542 292.993C184.542 292.112 185.076 291.31 186.067 290.744L311.301 218.456C313.377 217.26 317.027 217.402 319.418 218.77L529.284 339.911C530.605 340.666 531.36 341.704 531.36 342.758C531.36 343.639 530.825 344.441 529.834 345.007L404.601 417.296C403.657 417.846 402.383 418.114 401.061 418.114L401.045 418.129ZM186.964 295.211L396.83 416.352C399.032 417.626 402.351 417.768 404.239 416.667L529.472 344.378C530.227 343.938 530.636 343.356 530.636 342.742C530.636 341.956 530.007 341.154 528.922 340.509L319.056 219.368C316.854 218.094 313.535 217.952 311.647 219.053L186.413 291.342C185.658 291.782 185.249 292.348 185.249 292.977C185.249 293.764 185.879 294.566 186.964 295.211Z" fill="#DBDBDB"/>
<g opacity="0.5">
<path d="M530.998 321.808L519.436 320.141L319.229 204.567C316.933 203.246 313.456 203.105 311.474 204.253L192.234 273.081L184.888 272.027V281.763H184.903C184.903 282.644 185.533 283.556 186.775 284.28L396.641 405.421C398.938 406.742 402.414 406.883 404.396 405.735L529.63 333.447C530.542 332.912 530.967 332.204 530.951 331.465H530.967V321.808H530.998Z" fill="url(#paint11_linear_658_416)"/>
<path d="M186.791 274.591L396.656 395.732C398.953 397.053 402.43 397.195 404.412 396.046L529.645 323.758C531.627 322.61 531.391 320.597 529.095 319.275L319.229 198.15C316.932 196.829 313.456 196.687 311.474 197.836L186.24 270.124C184.258 271.272 184.494 273.285 186.791 274.606V274.591Z" fill="url(#paint12_linear_658_416)"/>
<path opacity="0.3" d="M204.96 276.966L392.551 385.257C394.612 386.436 397.711 386.578 399.488 385.54L511.429 320.927C513.207 319.905 512.986 318.112 510.926 316.916L323.335 208.625C321.274 207.446 318.175 207.304 316.398 208.342L204.457 272.955C202.679 273.977 202.899 275.77 204.96 276.966Z" fill="#5C5A6A"/>
<path d="M529.661 322.72L404.428 395.008C402.446 396.157 398.969 396.015 396.672 394.694L186.791 273.537C185.784 272.955 185.202 272.247 184.998 271.524C184.683 272.546 185.281 273.71 186.791 274.591L396.657 395.732C398.953 397.053 402.43 397.195 404.412 396.046L529.645 323.758C530.762 323.113 531.156 322.201 530.888 321.289C530.731 321.824 530.322 322.311 529.645 322.704L529.661 322.72Z" fill="white"/>
</g>
<path d="M318.852 160.37L345.39 3.00629L343.25 2.10976L346.459 0.269526C347.089 -0.123687 347.954 -0.107959 348.929 0.458268L560.95 122.858C562.696 123.864 564.001 126.444 563.703 128.237L536.96 286.859C536.819 287.693 536.41 288.227 535.843 288.479L532.713 290.288L532.178 287.362L532.351 287.409L321.604 165.765C319.858 164.758 318.553 162.179 318.852 160.386V160.37Z" fill="url(#paint13_linear_658_416)"/>
<path d="M559.754 127.152L563.247 125.61C563.64 126.507 563.829 127.435 563.703 128.237L536.96 286.859C536.819 287.693 536.41 288.227 535.843 288.479L532.713 290.288L532.178 287.362L532.351 287.41L521.686 281.26L559.77 127.152H559.754Z" fill="url(#paint14_linear_658_416)"/>
<path d="M318.285 167.668L530.306 290.068C531.942 291.011 533.342 290.461 533.625 288.778L560.368 130.156C560.667 128.347 559.361 125.783 557.615 124.777L345.594 2.3614C343.958 1.41769 342.558 1.96819 342.275 3.65114L315.532 162.273C315.234 164.082 316.539 166.646 318.285 167.652V167.668Z" fill="#5B5B5B"/>
<g opacity="0.51">
<path d="M344.886 5.31836L557.898 128.221L530.998 287.252L318.112 164.412L344.886 5.31836Z" fill="#5B5B5B"/>
</g>
<path d="M184.998 242.772L196.576 248.812L312.607 181.84C314.542 180.723 317.939 180.864 320.173 182.154L520.286 297.665C522.205 296.595 530.935 292.395 530.935 292.395L526.704 299.285C526.704 299.285 526.704 299.285 526.688 299.285C526.515 299.772 526.137 300.228 525.508 300.606L403.311 371.148C401.376 372.265 397.978 372.123 395.744 370.834L190.944 252.587C190.016 252.052 189.465 251.407 189.229 250.762H189.214L185.014 242.756L184.998 242.772Z" fill="url(#paint15_linear_658_416)"/>
<path d="M186.791 244.659L396.657 365.801C398.953 367.122 402.43 367.263 404.412 366.115L529.645 293.827C531.627 292.679 531.391 290.665 529.095 289.344L319.229 168.219C316.933 166.898 313.456 166.756 311.474 167.904L186.24 240.193C184.258 241.341 184.494 243.354 186.791 244.675V244.659Z" fill="#DDDDDD"/>
<path d="M186.791 243.731L396.657 364.873C398.953 366.194 402.43 366.335 404.412 365.187L529.645 292.899C530.353 292.49 530.747 291.987 530.904 291.436C531.124 292.333 530.731 293.213 529.645 293.843L404.412 366.131C402.43 367.279 398.953 367.137 396.657 365.816L186.791 244.659C185.297 243.794 184.683 242.662 184.966 241.64C185.155 242.379 185.753 243.118 186.791 243.716V243.731Z" fill="white"/>
<g opacity="0.15">
<mask id="mask1_658_416" style="mask-type:luminance" maskUnits="userSpaceOnUse" x="318" y="5" width="240" height="283">
<path d="M557.898 128.221L344.886 5.31836L318.112 164.412L530.998 287.252L557.898 128.221Z" fill="white"/>
</mask>
<g mask="url(#mask1_658_416)">
<path d="M318.018 166.646L329.596 172.686L445.627 105.714C447.562 104.597 450.96 104.738 453.193 106.028L653.306 221.538C655.225 220.469 663.956 216.269 663.956 216.269L659.724 223.158C659.724 223.158 659.724 223.158 659.708 223.158C659.535 223.646 659.158 224.102 658.528 224.48L536.331 295.022C534.396 296.139 530.998 295.997 528.765 294.708L323.964 176.476C323.036 175.941 322.486 175.297 322.25 174.652H322.234L318.034 166.646H318.018Z" fill="url(#paint16_linear_658_416)"/>
<path d="M319.811 168.549L529.677 289.69C531.974 291.011 535.45 291.153 537.432 290.005L662.666 217.716C664.648 216.568 664.412 214.555 662.115 213.234L452.25 92.0927C449.953 90.7715 446.476 90.6299 444.494 91.7781L319.261 164.066C317.279 165.215 317.515 167.228 319.811 168.549Z" fill="url(#paint17_linear_658_416)"/>
<path d="M662.115 213.25L452.25 92.0927C450.771 91.2433 448.804 90.8816 447.058 91.0388C448.348 91.1332 449.654 91.4792 450.692 92.0927L660.558 213.234C662.854 214.555 663.106 216.568 661.108 217.716L535.875 290.005C535.167 290.414 534.27 290.65 533.295 290.744C534.821 290.87 536.331 290.634 537.416 290.005L662.65 217.716C664.632 216.568 664.396 214.555 662.099 213.234L662.115 213.25Z" fill="white"/>
<g opacity="0.5">
<path d="M429.739 147.693L423.006 143.808C422.471 143.493 421.558 143.525 420.961 143.871L413.489 148.243C412.907 148.59 412.859 149.124 413.41 149.423L420.143 153.308C420.678 153.623 421.59 153.591 422.188 153.245L429.66 148.873C430.242 148.527 430.289 147.992 429.739 147.693Z" fill="#5C5A6A"/>
<path d="M440.121 153.686L433.388 149.801C432.853 149.486 431.941 149.517 431.343 149.864L423.871 154.236C423.289 154.582 423.242 155.117 423.792 155.416L430.525 159.301C431.06 159.615 431.972 159.584 432.57 159.238L440.042 154.865C440.624 154.519 440.671 153.984 440.121 153.686Z" fill="#5C5A6A"/>
<path d="M450.519 159.678L443.786 155.793C443.251 155.479 442.339 155.51 441.741 155.856L434.269 160.229C433.687 160.575 433.64 161.109 434.19 161.408L440.923 165.293C441.458 165.608 442.37 165.576 442.968 165.23L450.44 160.858C451.022 160.512 451.07 159.977 450.519 159.678Z" fill="#5C5A6A"/>
<path d="M442.606 167.668L435.874 163.783C435.339 163.469 434.426 163.5 433.829 163.846L427.552 167.511C426.97 167.857 426.923 168.392 427.473 168.691L434.206 172.576C434.741 172.89 435.653 172.859 436.251 172.513L442.528 168.848C443.11 168.502 443.157 167.967 442.606 167.668Z" fill="#5C5A6A"/>
<path d="M452.989 173.661L446.256 169.776C445.721 169.461 444.809 169.493 444.211 169.839L437.934 173.503C437.352 173.849 437.305 174.384 437.856 174.683L444.589 178.568C445.123 178.883 446.036 178.851 446.634 178.505L452.91 174.84C453.492 174.494 453.539 173.96 452.989 173.661Z" fill="#5C5A6A"/>
<path d="M463.387 179.669L456.654 175.784C456.119 175.47 455.207 175.501 454.609 175.847L448.333 179.512C447.751 179.858 447.703 180.393 448.254 180.691L454.987 184.576C455.522 184.891 456.434 184.859 457.032 184.513L463.308 180.849C463.89 180.503 463.938 179.968 463.387 179.669Z" fill="#5C5A6A"/>
<path d="M473.769 185.662L467.037 181.777C466.502 181.462 465.589 181.494 464.991 181.84L458.715 185.504C458.133 185.85 458.086 186.385 458.636 186.684L465.369 190.569C465.904 190.884 466.816 190.852 467.414 190.506L473.691 186.841C474.273 186.495 474.32 185.961 473.769 185.662Z" fill="#5C5A6A"/>
<path d="M484.167 191.654L477.434 187.769C476.9 187.455 475.987 187.486 475.389 187.832L469.113 191.497C468.531 191.843 468.484 192.378 469.034 192.677L475.767 196.562C476.302 196.876 477.214 196.845 477.812 196.499L484.089 192.834C484.671 192.488 484.718 191.953 484.167 191.654Z" fill="#5C5A6A"/>
<path d="M494.55 197.647L487.817 193.762C487.282 193.447 486.37 193.479 485.772 193.825L479.495 197.489C478.913 197.836 478.866 198.37 479.417 198.669L486.15 202.554C486.684 202.869 487.597 202.837 488.195 202.491L494.471 198.826C495.053 198.48 495.1 197.946 494.55 197.647Z" fill="#5C5A6A"/>
<path d="M504.932 203.655L498.199 199.77C497.665 199.456 496.752 199.487 496.154 199.833L489.878 203.498C489.296 203.844 489.248 204.379 489.799 204.677L496.532 208.562C497.067 208.877 497.979 208.845 498.577 208.499L504.854 204.835C505.436 204.489 505.483 203.954 504.932 203.655Z" fill="#5C5A6A"/>
<path d="M515.33 209.648L508.598 205.763C508.063 205.448 507.15 205.48 506.553 205.826L500.276 209.49C499.694 209.836 499.647 210.371 500.197 210.67L506.93 214.555C507.465 214.87 508.377 214.838 508.975 214.492L515.252 210.827C515.834 210.481 515.881 209.946 515.33 209.648Z" fill="#5C5A6A"/>
<path d="M525.713 215.64L518.98 211.755C518.445 211.441 517.533 211.472 516.935 211.818L510.658 215.483C510.076 215.829 510.029 216.364 510.58 216.663L517.312 220.548C517.847 220.862 518.76 220.831 519.357 220.485L525.634 216.82C526.216 216.474 526.263 215.939 525.713 215.64Z" fill="#5C5A6A"/>
<path d="M536.111 221.648L529.378 217.764C528.843 217.449 527.931 217.48 527.333 217.826L521.056 221.491C520.474 221.837 520.427 222.372 520.978 222.671L527.71 226.556C528.245 226.87 529.158 226.839 529.755 226.493L536.032 222.828C536.614 222.482 536.661 221.947 536.111 221.648Z" fill="#5C5A6A"/>
<path d="M438.28 176.225L431.548 172.34C431.013 172.025 430.1 172.056 429.502 172.403L423.226 176.067C422.644 176.413 422.597 176.948 423.147 177.247L429.88 181.132C430.415 181.446 431.327 181.415 431.925 181.069L438.202 177.404C438.784 177.058 438.831 176.523 438.28 176.225Z" fill="#5C5A6A"/>
<path d="M427.741 170.138L421.008 166.253C420.473 165.938 419.561 165.97 418.963 166.316L412.686 169.98C412.104 170.326 412.057 170.861 412.608 171.16L419.34 175.045C419.875 175.359 420.788 175.328 421.385 174.982L427.662 171.317C428.244 170.971 428.291 170.436 427.741 170.138Z" fill="#5C5A6A"/>
<path d="M417.17 164.051L402.682 155.683C402.147 155.369 401.234 155.4 400.637 155.746L394.36 159.411C393.778 159.757 393.731 160.292 394.281 160.59L408.769 168.958C409.304 169.273 410.217 169.241 410.814 168.895L417.091 165.23C417.673 164.884 417.72 164.35 417.17 164.051Z" fill="#5C5A6A"/>
<path d="M404.915 168.03L393.164 161.235C392.629 160.921 391.717 160.952 391.119 161.298L384.843 164.963C384.261 165.309 384.213 165.844 384.764 166.143L396.515 172.937C397.05 173.252 397.962 173.22 398.56 172.874L404.836 169.21C405.419 168.864 405.466 168.329 404.915 168.03Z" fill="#5C5A6A"/>
<path d="M448.663 182.233L441.93 178.348C441.395 178.033 440.483 178.065 439.885 178.411L433.608 182.076C433.026 182.422 432.979 182.956 433.53 183.255L440.263 187.14C440.797 187.455 441.71 187.423 442.308 187.077L448.584 183.412C449.166 183.066 449.213 182.532 448.663 182.233Z" fill="#5C5A6A"/>
<path d="M459.061 188.225L452.328 184.34C451.793 184.026 450.881 184.057 450.283 184.403L444.006 188.068C443.424 188.414 443.377 188.949 443.928 189.248L450.661 193.133C451.195 193.447 452.108 193.416 452.706 193.07L458.982 189.405C459.564 189.059 459.611 188.524 459.061 188.225Z" fill="#5C5A6A"/>
<path d="M469.443 194.218L462.71 190.333C462.175 190.018 461.263 190.05 460.665 190.396L454.389 194.061C453.807 194.407 453.759 194.941 454.31 195.24L461.043 199.125C461.578 199.44 462.49 199.408 463.088 199.062L469.364 195.398C469.947 195.052 469.994 194.517 469.443 194.218Z" fill="#5C5A6A"/>
<path d="M479.841 200.211L473.109 196.326C472.574 196.011 471.661 196.042 471.064 196.388L464.787 200.053C464.205 200.399 464.158 200.934 464.708 201.233L471.441 205.118C471.976 205.432 472.888 205.401 473.486 205.055L479.763 201.39C480.345 201.044 480.392 200.509 479.841 200.211Z" fill="#5C5A6A"/>
<path d="M490.224 206.219L483.491 202.334C482.956 202.019 482.044 202.051 481.446 202.397L475.169 206.062C474.587 206.408 474.54 206.942 475.091 207.241L481.823 211.126C482.358 211.441 483.271 211.409 483.868 211.063L490.145 207.398C490.727 207.052 490.774 206.518 490.224 206.219Z" fill="#5C5A6A"/>
<path d="M500.606 212.211L493.873 208.326C493.339 208.012 492.426 208.043 491.828 208.389L485.552 212.054C484.97 212.4 484.923 212.935 485.473 213.234L492.206 217.119C492.741 217.433 493.653 217.402 494.251 217.056L500.528 213.391C501.11 213.045 501.157 212.51 500.606 212.211Z" fill="#5C5A6A"/>
<path d="M511.004 218.204L504.271 214.319C503.737 214.004 502.824 214.036 502.226 214.382L495.95 218.047C495.368 218.393 495.32 218.927 495.871 219.226L502.604 223.111C503.139 223.426 504.051 223.394 504.649 223.048L510.926 219.384C511.508 219.038 511.555 218.503 511.004 218.204Z" fill="#5C5A6A"/>
<path d="M521.387 224.212L514.654 220.327C514.119 220.013 513.206 220.044 512.609 220.39L506.332 224.055C505.75 224.401 505.703 224.936 506.253 225.235L512.986 229.12C513.521 229.434 514.434 229.403 515.031 229.057L521.308 225.392C521.89 225.046 521.937 224.511 521.387 224.212Z" fill="#5C5A6A"/>
<path d="M531.785 230.205L525.052 226.32C524.517 226.005 523.605 226.037 523.007 226.383L516.73 230.048C516.148 230.394 516.101 230.928 516.652 231.227L523.384 235.112C523.919 235.427 524.832 235.395 525.429 235.049L531.706 231.384C532.288 231.038 532.335 230.504 531.785 230.205Z" fill="#5C5A6A"/>
<path d="M550.253 240.869L535.576 232.391C535.041 232.077 534.129 232.108 533.531 232.454L527.254 236.119C526.672 236.465 526.625 237 527.176 237.298L541.852 245.776C542.387 246.091 543.3 246.059 543.897 245.713L550.174 242.048C550.756 241.702 550.803 241.168 550.253 240.869Z" fill="#5C5A6A"/>
<path d="M531.203 251.989L518.807 244.832C518.272 244.518 517.36 244.549 516.762 244.895L510.485 248.56C509.903 248.906 509.856 249.441 510.407 249.74L522.802 256.896C523.337 257.211 524.25 257.179 524.847 256.833L531.124 253.169C531.706 252.822 531.753 252.288 531.203 251.989Z" fill="#5C5A6A"/>
<path d="M447.231 192.456L440.498 188.571C439.964 188.257 439.051 188.288 438.453 188.634L432.177 192.299C431.595 192.645 431.548 193.18 432.098 193.479L438.831 197.364C439.366 197.678 440.278 197.647 440.876 197.301L447.153 193.636C447.735 193.29 447.782 192.755 447.231 192.456Z" fill="#5C5A6A"/>
<path d="M436.582 186.307L429.849 182.422C429.314 182.107 428.402 182.138 427.804 182.484L421.527 186.149C420.945 186.495 420.898 187.03 421.448 187.329L428.181 191.214C428.716 191.528 429.629 191.497 430.226 191.151L436.503 187.486C437.085 187.14 437.132 186.605 436.582 186.307Z" fill="#5C5A6A"/>
<path d="M425.932 180.157L419.199 176.272C418.664 175.957 417.752 175.989 417.154 176.335L410.877 179.999C410.295 180.345 410.248 180.88 410.799 181.179L417.531 185.064C418.066 185.379 418.979 185.347 419.576 185.001L425.853 181.336C426.435 180.99 426.482 180.456 425.932 180.157Z" fill="#5C5A6A"/>
<path d="M415.282 174.007L408.549 170.122C408.014 169.807 407.102 169.839 406.504 170.185L400.228 173.85C399.646 174.196 399.598 174.73 400.149 175.029L406.882 178.914C407.417 179.229 408.329 179.197 408.927 178.851L415.203 175.186C415.785 174.84 415.833 174.306 415.282 174.007Z" fill="#5C5A6A"/>
<path d="M457.614 198.449L450.881 194.564C450.346 194.249 449.434 194.281 448.836 194.627L442.559 198.292C441.977 198.638 441.93 199.172 442.48 199.471L449.213 203.356C449.748 203.671 450.661 203.639 451.258 203.293L457.535 199.629C458.117 199.283 458.164 198.748 457.614 198.449Z" fill="#5C5A6A"/>
<path d="M467.996 204.442L461.263 200.557C460.728 200.242 459.816 200.273 459.218 200.619L452.942 204.284C452.36 204.63 452.312 205.165 452.863 205.464L459.596 209.349C460.131 209.663 461.043 209.632 461.641 209.286L467.917 205.621C468.5 205.275 468.547 204.74 467.996 204.442Z" fill="#5C5A6A"/>
<path d="M478.394 210.45L471.661 206.565C471.126 206.25 470.214 206.282 469.616 206.628L463.34 210.293C462.758 210.639 462.71 211.173 463.261 211.472L469.994 215.357C470.529 215.672 471.441 215.64 472.039 215.294L478.315 211.629C478.897 211.283 478.945 210.749 478.394 210.45Z" fill="#5C5A6A"/>
<path d="M488.777 216.442L482.044 212.557C481.509 212.243 480.597 212.274 479.999 212.62L473.722 216.285C473.14 216.631 473.093 217.166 473.644 217.465L480.376 221.35C480.911 221.664 481.824 221.633 482.421 221.287L488.698 217.622C489.28 217.276 489.327 216.741 488.777 216.442Z" fill="#5C5A6A"/>
<path d="M499.175 222.435L492.442 218.55C491.907 218.235 490.995 218.267 490.397 218.613L484.12 222.278C483.538 222.624 483.491 223.158 484.042 223.457L490.774 227.342C491.309 227.657 492.222 227.625 492.819 227.279L499.096 223.615C499.678 223.269 499.725 222.734 499.175 222.435Z" fill="#5C5A6A"/>
<path d="M509.557 228.427L502.824 224.543C502.289 224.228 501.377 224.259 500.779 224.605L494.502 228.27C493.92 228.616 493.873 229.151 494.424 229.45L501.157 233.335C501.691 233.649 502.604 233.618 503.202 233.272L509.478 229.607C510.06 229.261 510.108 228.726 509.557 228.427Z" fill="#5C5A6A"/>
<path d="M519.939 234.436L513.206 230.551C512.672 230.236 511.759 230.268 511.161 230.614L504.885 234.279C504.303 234.625 504.256 235.159 504.806 235.458L511.539 239.343C512.074 239.658 512.986 239.626 513.584 239.28L519.861 235.615C520.443 235.269 520.49 234.735 519.939 234.436Z" fill="#5C5A6A"/>
<path d="M530.337 240.428L523.605 236.543C523.07 236.229 522.157 236.26 521.56 236.606L515.283 240.271C514.701 240.617 514.654 241.152 515.204 241.451L521.937 245.336C522.472 245.65 523.384 245.619 523.982 245.273L530.259 241.608C530.841 241.262 530.888 240.727 530.337 240.428Z" fill="#5C5A6A"/>
<path d="M540.72 246.421L533.987 242.536C533.452 242.221 532.54 242.253 531.942 242.599L525.665 246.264C525.083 246.61 525.036 247.144 525.587 247.443L532.319 251.328C532.854 251.643 533.767 251.611 534.364 251.265L540.641 247.601C541.223 247.255 541.27 246.72 540.72 246.421Z" fill="#5C5A6A"/>
<path d="M422.125 189.012L415.392 185.127C414.857 184.812 413.945 184.844 413.347 185.19L407.07 188.855C406.488 189.201 406.441 189.735 406.992 190.034L413.724 193.919C414.259 194.234 415.172 194.202 415.77 193.856L422.046 190.191C422.628 189.845 422.675 189.311 422.125 189.012Z" fill="#5C5A6A"/>
<path d="M411.79 183.051L405.057 179.166C404.522 178.851 403.61 178.883 403.012 179.229L396.735 182.893C396.153 183.239 396.106 183.774 396.656 184.073L403.389 187.958C403.924 188.273 404.837 188.241 405.434 187.895L411.711 184.23C412.293 183.884 412.34 183.35 411.79 183.051Z" fill="#5C5A6A"/>
<path d="M401.439 177.09L394.706 173.205C394.171 172.89 393.259 172.922 392.661 173.268L386.384 176.932C385.802 177.278 385.755 177.813 386.306 178.112L393.038 181.997C393.573 182.311 394.486 182.28 395.083 181.934L401.36 178.269C401.942 177.923 401.989 177.388 401.439 177.09Z" fill="#5C5A6A"/>
<path d="M391.104 171.113L384.371 167.228C383.836 166.913 382.923 166.945 382.326 167.291L376.049 170.956C375.467 171.302 375.42 171.836 375.97 172.135L382.703 176.02C383.238 176.335 384.151 176.303 384.748 175.957L391.025 172.292C391.607 171.946 391.654 171.412 391.104 171.113Z" fill="#5C5A6A"/>
<path d="M381.099 176.964L374.366 173.079C373.831 172.764 372.919 172.796 372.321 173.142L370.244 174.353C369.662 174.699 369.615 175.234 370.166 175.533L376.899 179.417C377.433 179.732 378.346 179.701 378.944 179.355L381.02 178.143C381.602 177.797 381.649 177.263 381.099 176.964Z" fill="#5C5A6A"/>
<path d="M394.596 184.749L387.863 180.864C387.328 180.55 386.416 180.581 385.818 180.927L383.741 182.138C383.159 182.484 383.112 183.019 383.663 183.318L390.396 187.203C390.931 187.518 391.843 187.486 392.441 187.14L394.517 185.929C395.099 185.583 395.146 185.048 394.596 184.749Z" fill="#5C5A6A"/>
<path d="M404.884 190.695L398.151 186.81C397.616 186.495 396.704 186.527 396.106 186.873L394.03 188.084C393.448 188.43 393.4 188.965 393.951 189.263L400.684 193.148C401.219 193.463 402.131 193.432 402.729 193.086L404.805 191.874C405.387 191.528 405.434 190.994 404.884 190.695Z" fill="#5C5A6A"/>
<path d="M415.172 196.64L408.439 192.755C407.904 192.441 406.992 192.472 406.394 192.818L404.317 194.029C403.735 194.375 403.688 194.91 404.239 195.209L410.972 199.094C411.506 199.408 412.419 199.377 413.017 199.031L415.093 197.82C415.675 197.474 415.722 196.939 415.172 196.64Z" fill="#5C5A6A"/>
<path d="M425.475 202.586L418.743 198.701C418.208 198.386 417.295 198.418 416.698 198.764L414.621 199.975C414.039 200.321 413.992 200.855 414.542 201.154L421.275 205.039C421.81 205.354 422.723 205.322 423.32 204.976L425.397 203.765C425.979 203.419 426.026 202.884 425.475 202.586Z" fill="#5C5A6A"/>
<path d="M482.94 235.757L476.207 231.872C475.673 231.557 474.76 231.589 474.162 231.935L472.086 233.146C471.504 233.492 471.457 234.027 472.007 234.326L478.74 238.211C479.275 238.525 480.187 238.494 480.785 238.148L482.862 236.937C483.444 236.591 483.491 236.056 482.94 235.757Z" fill="#5C5A6A"/>
<path d="M493.228 241.702L486.496 237.817C485.961 237.503 485.048 237.534 484.451 237.88L482.374 239.091C481.792 239.437 481.745 239.972 482.295 240.271L489.028 244.156C489.563 244.471 490.475 244.439 491.073 244.093L493.15 242.882C493.732 242.536 493.779 242.001 493.228 241.702Z" fill="#5C5A6A"/>
<path d="M503.532 247.632L496.799 243.747C496.264 243.433 495.352 243.464 494.754 243.81L492.678 245.021C492.096 245.367 492.049 245.902 492.599 246.201L499.332 250.086C499.867 250.4 500.779 250.369 501.377 250.023L503.453 248.812C504.035 248.466 504.083 247.931 503.532 247.632Z" fill="#5C5A6A"/>
<path d="M513.82 253.577L507.087 249.693C506.552 249.378 505.64 249.409 505.042 249.755L502.966 250.967C502.384 251.313 502.337 251.847 502.887 252.146L509.62 256.031C510.155 256.346 511.067 256.314 511.665 255.968L513.742 254.757C514.324 254.411 514.371 253.876 513.82 253.577Z" fill="#5C5A6A"/>
<path d="M432.507 195.02L425.774 191.135C425.239 190.821 424.327 190.852 423.729 191.198L417.453 194.863C416.871 195.209 416.823 195.744 417.374 196.042L424.107 199.927C424.642 200.242 425.554 200.211 426.152 199.865L432.428 196.2C433.011 195.854 433.058 195.319 432.507 195.02Z" fill="#5C5A6A"/>
<path d="M442.889 201.013L436.157 197.128C435.622 196.813 434.709 196.845 434.112 197.191L427.835 200.855C427.253 201.201 427.206 201.736 427.756 202.035L434.489 205.92C435.024 206.235 435.936 206.203 436.534 205.857L442.811 202.192C443.393 201.846 443.44 201.312 442.889 201.013Z" fill="#5C5A6A"/>
<path d="M453.288 207.005L446.555 203.12C446.02 202.806 445.108 202.837 444.51 203.183L438.233 206.848C437.651 207.194 437.604 207.729 438.155 208.028L444.887 211.913C445.422 212.227 446.335 212.196 446.932 211.85L453.209 208.185C453.791 207.839 453.838 207.304 453.288 207.005Z" fill="#5C5A6A"/>
<path d="M463.67 213.014L456.937 209.129C456.402 208.814 455.49 208.845 454.892 209.192L448.616 212.856C448.033 213.202 447.986 213.737 448.537 214.036L455.27 217.921C455.805 218.235 456.717 218.204 457.315 217.858L463.591 214.193C464.173 213.847 464.221 213.312 463.67 213.014Z" fill="#5C5A6A"/>
<path d="M474.068 219.006L467.335 215.121C466.8 214.807 465.888 214.838 465.29 215.184L459.014 218.849C458.432 219.195 458.384 219.73 458.935 220.029L465.668 223.913C466.203 224.228 467.115 224.197 467.713 223.851L473.989 220.186C474.572 219.84 474.619 219.305 474.068 219.006Z" fill="#5C5A6A"/>
<path d="M484.451 224.999L477.718 221.114C477.183 220.799 476.27 220.831 475.673 221.177L469.396 224.841C468.814 225.187 468.767 225.722 469.317 226.021L476.05 229.906C476.585 230.221 477.497 230.189 478.095 229.843L484.372 226.178C484.954 225.832 485.001 225.298 484.451 224.999Z" fill="#5C5A6A"/>
<path d="M494.849 230.991L488.116 227.106C487.581 226.792 486.669 226.823 486.071 227.169L479.794 230.834C479.212 231.18 479.165 231.715 479.716 232.014L486.448 235.899C486.983 236.213 487.896 236.182 488.493 235.836L494.77 232.171C495.352 231.825 495.399 231.29 494.849 230.991Z" fill="#5C5A6A"/>
<path d="M505.231 237L498.498 233.115C497.963 232.8 497.051 232.832 496.453 233.178L490.177 236.842C489.594 237.188 489.547 237.723 490.098 238.022L496.831 241.907C497.366 242.221 498.278 242.19 498.876 241.844L505.152 238.179C505.734 237.833 505.782 237.298 505.231 237Z" fill="#5C5A6A"/>
<path d="M515.613 242.992L508.881 239.107C508.346 238.793 507.433 238.824 506.835 239.17L500.559 242.835C499.977 243.181 499.93 243.716 500.48 244.014L507.213 247.899C507.748 248.214 508.66 248.183 509.258 247.837L515.535 244.172C516.117 243.826 516.164 243.291 515.613 242.992Z" fill="#5C5A6A"/>
<path d="M432.019 161.55L412.214 150.115C411.679 149.801 410.767 149.832 410.169 150.178L403.893 153.843C403.311 154.189 403.263 154.724 403.814 155.022L423.619 166.457C424.154 166.772 425.066 166.74 425.664 166.394L431.941 162.729C432.523 162.383 432.57 161.849 432.019 161.55Z" fill="#5C5A6A"/>
<path d="M559.644 235.238L539.839 223.803C539.304 223.489 538.392 223.52 537.794 223.866L531.517 227.531C530.935 227.877 530.888 228.412 531.439 228.711L551.244 240.145C551.779 240.46 552.691 240.428 553.289 240.082L559.566 236.418C560.148 236.072 560.195 235.537 559.644 235.238Z" fill="#5C5A6A"/>
<path d="M540.374 211.567L533.641 207.682C533.106 207.367 532.194 207.398 531.596 207.745L524.124 212.117C523.542 212.463 523.495 212.998 524.045 213.297L530.778 217.182C531.313 217.496 532.225 217.465 532.823 217.119L540.295 212.746C540.877 212.4 540.924 211.865 540.374 211.567Z" fill="#5C5A6A"/>
<path d="M464.929 168.014L454.169 161.801C453.634 161.487 452.721 161.518 452.124 161.864L444.651 166.237C444.069 166.583 444.022 167.118 444.573 167.417L455.333 173.629C455.868 173.944 456.78 173.912 457.378 173.566L464.85 169.194C465.432 168.848 465.479 168.313 464.929 168.014Z" fill="#5C5A6A"/>
<path d="M530.369 205.778L519.609 199.566C519.074 199.251 518.162 199.283 517.564 199.629L510.092 204.001C509.51 204.347 509.463 204.882 510.013 205.181L520.773 211.394C521.308 211.708 522.22 211.677 522.818 211.331L530.29 206.958C530.872 206.612 530.92 206.077 530.369 205.778Z" fill="#5C5A6A"/>
<path d="M479.92 176.665L469.16 170.452C468.625 170.138 467.713 170.169 467.115 170.515L459.643 174.888C459.061 175.234 459.014 175.768 459.564 176.067L470.324 182.28C470.859 182.595 471.771 182.563 472.369 182.217L479.841 177.845C480.423 177.499 480.471 176.964 479.92 176.665Z" fill="#5C5A6A"/>
<path d="M459.643 176.099L506.411 203.105C506.993 203.435 507.905 203.451 508.456 203.136L516.085 198.685C516.636 198.37 516.605 197.836 516.022 197.505L469.255 170.499L459.659 176.114L459.643 176.099Z" fill="#5C5A6A"/>
<path d="M549.041 222.136L556.529 226.461C556.97 226.713 557.725 226.697 558.197 226.414L561.249 224.621C561.736 224.338 561.768 223.898 561.311 223.646L553.824 219.321C553.383 219.069 552.628 219.085 552.156 219.368L549.104 221.161C548.617 221.444 548.585 221.884 549.041 222.136Z" fill="#5C5A6A"/>
<path d="M538.643 216.144L546.131 220.469C546.572 220.721 547.327 220.705 547.799 220.422L550.851 218.629C551.338 218.346 551.37 217.905 550.914 217.653L543.426 213.328C542.985 213.076 542.23 213.092 541.758 213.375L538.706 215.168C538.219 215.452 538.187 215.892 538.643 216.144Z" fill="#5C5A6A"/>
<path d="M543.63 225.298L551.118 229.623C551.558 229.875 552.313 229.859 552.785 229.576L555.837 227.783C556.325 227.5 556.356 227.059 555.9 226.807L548.412 222.482C547.972 222.23 547.217 222.246 546.745 222.529L543.693 224.322C543.205 224.605 543.174 225.046 543.63 225.298Z" fill="#5C5A6A"/>
</g>
</g>
</g>
<g opacity="0.8">
<path d="M283.331 231.243L276.662 227.389C276.127 227.075 276.19 226.54 276.819 226.178L284.684 221.633C285.298 221.271 286.242 221.24 286.777 221.538L293.446 225.392C293.981 225.706 293.918 226.241 293.289 226.603L285.424 231.149C284.81 231.51 283.866 231.542 283.331 231.243Z" fill="#5B5B5B"/>
<path d="M293.62 237.188L286.95 233.335C286.415 233.02 286.478 232.485 287.107 232.124L294.972 227.578C295.586 227.216 296.53 227.185 297.065 227.484L303.735 231.337C304.269 231.652 304.206 232.187 303.577 232.548L295.712 237.094C295.098 237.456 294.154 237.487 293.62 237.188Z" fill="#5B5B5B"/>
<path d="M303.907 243.134L297.238 239.28C296.703 238.966 296.766 238.431 297.395 238.069L305.26 233.524C305.874 233.162 306.818 233.13 307.352 233.429L314.022 237.283C314.557 237.597 314.494 238.132 313.865 238.494L306 243.039C305.386 243.401 304.442 243.433 303.907 243.118V243.134Z" fill="#5B5B5B"/>
<path d="M318.128 238.226L311.458 234.373C310.923 234.058 310.986 233.524 311.616 233.162L318.222 229.356C318.836 228.994 319.78 228.962 320.315 229.277L326.985 233.13C327.519 233.445 327.457 233.98 326.827 234.341L320.22 238.148C319.607 238.51 318.663 238.541 318.128 238.226Z" fill="#5B5B5B"/>
<path d="M328.416 244.156L321.746 240.303C321.211 239.988 321.274 239.453 321.904 239.091L328.511 235.285C329.124 234.923 330.068 234.892 330.603 235.191L337.273 239.044C337.808 239.359 337.745 239.894 337.115 240.255L330.508 244.062C329.895 244.423 328.951 244.455 328.416 244.156Z" fill="#5B5B5B"/>
<path d="M338.704 250.101L332.034 246.248C331.499 245.933 331.562 245.399 332.191 245.037L338.798 241.231C339.412 240.869 340.356 240.837 340.891 241.136L347.561 244.99C348.095 245.304 348.032 245.839 347.403 246.201L340.796 250.007C340.183 250.369 339.239 250.4 338.704 250.101Z" fill="#5B5B5B"/>
<path d="M349.008 256.047L342.338 252.193C341.803 251.879 341.866 251.344 342.495 250.982L349.102 247.176C349.716 246.814 350.659 246.783 351.194 247.082L357.864 250.935C358.399 251.25 358.336 251.784 357.707 252.146L351.1 255.952C350.486 256.314 349.543 256.346 349.008 256.047Z" fill="#5B5B5B"/>
<path d="M359.296 261.976L352.626 258.123C352.091 257.808 352.154 257.274 352.783 256.912L359.39 253.106C360.004 252.744 360.948 252.712 361.482 253.011L368.152 256.865C368.687 257.179 368.624 257.714 367.995 258.076L361.388 261.882C360.775 262.244 359.831 262.275 359.296 261.976Z" fill="#5B5B5B"/>
<path d="M369.584 267.922L362.914 264.068C362.379 263.754 362.442 263.219 363.071 262.857L369.678 259.051C370.292 258.689 371.236 258.658 371.771 258.957L378.44 262.81C378.975 263.125 378.912 263.659 378.283 264.021L371.676 267.827C371.063 268.189 370.119 268.221 369.584 267.922Z" fill="#5B5B5B"/>
<path d="M379.872 273.867L373.202 270.014C372.667 269.699 372.73 269.164 373.359 268.803L379.966 264.996C380.58 264.635 381.524 264.603 382.058 264.902L388.728 268.755C389.263 269.07 389.2 269.605 388.571 269.967L381.964 273.773C381.35 274.135 380.407 274.166 379.872 273.867Z" fill="#5B5B5B"/>
<path d="M390.16 279.797L383.49 275.943C382.955 275.629 383.018 275.094 383.647 274.732L390.254 270.926C390.868 270.564 391.812 270.533 392.346 270.832L399.016 274.685C399.551 275 399.488 275.534 398.859 275.896L392.252 279.703C391.639 280.064 390.695 280.096 390.16 279.797Z" fill="#5B5B5B"/>
<path d="M400.448 285.742L393.778 281.889C393.243 281.574 393.306 281.039 393.935 280.678L400.542 276.871C401.156 276.51 402.099 276.478 402.634 276.777L409.304 280.63C409.839 280.945 409.776 281.48 409.147 281.842L402.54 285.648C401.926 286.01 400.983 286.041 400.448 285.742Z" fill="#5B5B5B"/>
<path d="M410.736 291.672L404.066 287.818C403.531 287.504 403.594 286.969 404.223 286.607L410.83 282.801C411.444 282.439 412.388 282.408 412.922 282.722L419.592 286.576C420.127 286.89 420.064 287.425 419.435 287.787L412.828 291.593C412.214 291.955 411.271 291.986 410.736 291.672Z" fill="#5B5B5B"/>
<path d="M333.293 235.411L326.623 231.557C326.088 231.243 326.151 230.708 326.78 230.346L333.387 226.54C334.001 226.178 334.944 226.147 335.479 226.446L342.149 230.299C342.684 230.614 342.621 231.149 341.992 231.51L335.385 235.317C334.771 235.678 333.828 235.71 333.293 235.411Z" fill="#5B5B5B"/>
<path d="M322.847 229.387L316.177 225.533C315.643 225.219 315.706 224.684 316.335 224.322L322.942 220.516C323.555 220.154 324.499 220.123 325.034 220.422L331.704 224.275C332.239 224.59 332.176 225.125 331.547 225.486L324.94 229.293C324.326 229.654 323.382 229.686 322.847 229.387Z" fill="#5B5B5B"/>
<path d="M312.386 223.347L298.04 215.058C297.505 214.744 297.568 214.209 298.197 213.847L304.804 210.041C305.418 209.679 306.361 209.648 306.896 209.947L321.243 218.235C321.778 218.55 321.715 219.085 321.085 219.447L314.479 223.253C313.865 223.615 312.921 223.646 312.386 223.347Z" fill="#5B5B5B"/>
<path d="M319.701 216.002L308.061 209.286C307.526 208.971 307.589 208.437 308.218 208.075L314.825 204.268C315.438 203.907 316.382 203.875 316.917 204.174L328.558 210.89C329.093 211.205 329.03 211.74 328.401 212.101L321.794 215.908C321.18 216.269 320.236 216.301 319.701 216.002Z" fill="#5B5B5B"/>
<path d="M343.581 241.356L336.911 237.503C336.376 237.188 336.439 236.654 337.068 236.292L343.675 232.485C344.289 232.124 345.232 232.092 345.767 232.391L352.437 236.245C352.972 236.559 352.909 237.094 352.28 237.456L345.673 241.262C345.059 241.624 344.116 241.655 343.581 241.356Z" fill="#5B5B5B"/>
<path d="M353.869 247.286L347.199 243.433C346.664 243.118 346.727 242.583 347.356 242.221L353.963 238.415C354.576 238.053 355.52 238.022 356.055 238.321L362.725 242.174C363.26 242.489 363.197 243.024 362.568 243.385L355.961 247.192C355.347 247.553 354.403 247.585 353.869 247.286Z" fill="#5B5B5B"/>
<path d="M364.157 253.231L357.487 249.378C356.952 249.063 357.015 248.529 357.644 248.167L364.251 244.361C364.865 243.999 365.808 243.967 366.343 244.266L373.013 248.12C373.548 248.434 373.485 248.969 372.856 249.331L366.249 253.137C365.635 253.499 364.692 253.53 364.157 253.231Z" fill="#5B5B5B"/>
<path d="M374.445 259.177L367.775 255.323C367.24 255.009 367.303 254.474 367.932 254.112L374.539 250.306C375.153 249.944 376.097 249.913 376.631 250.227L383.301 254.081C383.836 254.395 383.773 254.93 383.144 255.292L376.537 259.098C375.923 259.46 374.98 259.491 374.445 259.177Z" fill="#5B5B5B"/>
<path d="M384.733 265.106L378.063 261.253C377.528 260.938 377.591 260.404 378.22 260.042L384.827 256.236C385.44 255.874 386.384 255.842 386.919 256.141L393.589 259.995C394.124 260.309 394.061 260.844 393.432 261.206L386.825 265.012C386.211 265.374 385.267 265.405 384.733 265.106Z" fill="#5B5B5B"/>
<path d="M395.021 271.052L388.351 267.198C387.816 266.884 387.879 266.349 388.508 265.987L395.115 262.181C395.729 261.819 396.672 261.788 397.207 262.102L403.877 265.956C404.412 266.27 404.349 266.805 403.72 267.167L397.113 270.973C396.499 271.335 395.556 271.366 395.021 271.052Z" fill="#5B5B5B"/>
<path d="M405.309 276.981L398.639 273.128C398.104 272.813 398.167 272.279 398.796 271.917L405.403 268.111C406.016 267.749 406.96 267.717 407.495 268.016L414.165 271.87C414.7 272.184 414.637 272.719 414.008 273.081L407.401 276.887C406.787 277.249 405.843 277.28 405.309 276.981Z" fill="#5B5B5B"/>
<path d="M415.597 282.927L408.927 279.073C408.392 278.759 408.455 278.224 409.084 277.862L415.691 274.056C416.304 273.694 417.248 273.663 417.783 273.962L424.453 277.815C424.988 278.13 424.925 278.664 424.296 279.026L417.689 282.832C417.075 283.194 416.131 283.226 415.597 282.927Z" fill="#5B5B5B"/>
<path d="M425.885 288.872L419.215 285.019C418.68 284.704 418.743 284.169 419.372 283.808L425.979 280.001C426.593 279.64 427.536 279.608 428.071 279.907L434.741 283.76C435.276 284.075 435.213 284.61 434.584 284.972L427.977 288.778C427.363 289.14 426.42 289.171 425.885 288.872Z" fill="#5B5B5B"/>
<path d="M444.18 299.426L429.644 291.027C429.109 290.712 429.172 290.178 429.802 289.816L436.409 286.01C437.022 285.648 437.966 285.616 438.501 285.915L453.036 294.314C453.571 294.629 453.508 295.164 452.879 295.525L446.272 299.332C445.658 299.693 444.714 299.725 444.18 299.426Z" fill="#5B5B5B"/>
<path d="M464.221 287.866L451.951 280.788C451.416 280.473 451.479 279.938 452.108 279.577L458.715 275.77C459.328 275.409 460.272 275.377 460.807 275.676L473.077 282.754C473.612 283.068 473.549 283.603 472.92 283.965L466.313 287.771C465.699 288.133 464.756 288.164 464.221 287.85V287.866Z" fill="#5B5B5B"/>
<path d="M361.608 240.192L354.938 236.339C354.404 236.024 354.467 235.49 355.096 235.128L361.703 231.322C362.316 230.96 363.26 230.928 363.795 231.227L370.465 235.081C371 235.395 370.937 235.93 370.308 236.292L363.701 240.098C363.087 240.46 362.143 240.491 361.608 240.192Z" fill="#5B5B5B"/>
<path d="M351.053 234.106L344.383 230.252C343.848 229.937 343.911 229.403 344.54 229.041L351.147 225.235C351.761 224.873 352.705 224.841 353.239 225.156L359.909 229.009C360.444 229.324 360.381 229.859 359.752 230.221L353.145 234.027C352.532 234.389 351.588 234.42 351.053 234.106Z" fill="#5B5B5B"/>
<path d="M340.513 228.019L333.843 224.165C333.308 223.851 333.371 223.316 334.001 222.954L340.607 219.148C341.221 218.786 342.165 218.754 342.7 219.053L349.37 222.907C349.904 223.221 349.842 223.756 349.212 224.118L342.605 227.924C341.992 228.286 341.048 228.317 340.513 228.019Z" fill="#5B5B5B"/>
<path d="M329.974 221.932L323.304 218.078C322.769 217.764 322.832 217.229 323.461 216.867L330.068 213.061C330.681 212.699 331.625 212.668 332.16 212.966L338.83 216.82C339.365 217.134 339.302 217.669 338.673 218.031L332.066 221.837C331.452 222.199 330.508 222.231 329.974 221.932Z" fill="#5B5B5B"/>
<path d="M371.896 246.122L365.226 242.269C364.691 241.954 364.754 241.419 365.384 241.057L371.991 237.251C372.604 236.889 373.548 236.858 374.083 237.157L380.753 241.01C381.287 241.325 381.225 241.86 380.595 242.221L373.988 246.028C373.375 246.389 372.431 246.421 371.896 246.122Z" fill="#5B5B5B"/>
<path d="M382.184 252.067L375.514 248.214C374.98 247.899 375.042 247.365 375.672 247.003L382.279 243.197C382.892 242.835 383.836 242.803 384.371 243.102L391.041 246.956C391.576 247.27 391.513 247.805 390.883 248.167L384.276 251.973C383.663 252.335 382.719 252.366 382.184 252.067Z" fill="#5B5B5B"/>
<path d="M392.472 258.013L385.802 254.159C385.268 253.845 385.331 253.31 385.96 252.948L392.567 249.142C393.18 248.78 394.124 248.749 394.659 249.048L401.329 252.901C401.864 253.216 401.801 253.75 401.172 254.112L394.565 257.919C393.951 258.28 393.007 258.312 392.472 258.013Z" fill="#5B5B5B"/>
<path d="M402.76 263.943L396.09 260.089C395.555 259.774 395.618 259.24 396.248 258.878L402.855 255.072C403.468 254.71 404.412 254.678 404.947 254.977L411.617 258.831C412.152 259.145 412.089 259.68 411.459 260.042L404.852 263.848C404.239 264.21 403.295 264.241 402.76 263.943Z" fill="#5B5B5B"/>
<path d="M413.048 269.888L406.378 266.034C405.844 265.72 405.906 265.185 406.536 264.823L413.143 261.017C413.756 260.655 414.7 260.624 415.235 260.923L421.905 264.776C422.44 265.091 422.377 265.625 421.747 265.987L415.14 269.794C414.527 270.155 413.583 270.187 413.048 269.888Z" fill="#5B5B5B"/>
<path d="M423.336 275.818L416.666 271.964C416.131 271.649 416.194 271.115 416.824 270.753L423.431 266.947C424.044 266.585 424.988 266.553 425.523 266.868L432.193 270.722C432.727 271.036 432.665 271.571 432.035 271.933L425.428 275.739C424.815 276.101 423.871 276.132 423.336 275.818Z" fill="#5B5B5B"/>
<path d="M433.624 281.763L426.954 277.909C426.419 277.595 426.482 277.06 427.112 276.698L433.719 272.892C434.332 272.53 435.276 272.499 435.811 272.798L442.481 276.651C443.016 276.966 442.953 277.501 442.323 277.862L435.716 281.669C435.103 282.03 434.159 282.062 433.624 281.763Z" fill="#5B5B5B"/>
<path d="M443.912 287.708L437.242 283.855C436.708 283.54 436.77 283.006 437.4 282.644L444.007 278.837C444.62 278.476 445.564 278.444 446.099 278.759L452.769 282.612C453.304 282.927 453.241 283.462 452.611 283.823L446.004 287.63C445.391 287.991 444.447 288.023 443.912 287.708Z" fill="#5B5B5B"/>
<path d="M454.2 293.638L447.53 289.785C446.995 289.47 447.058 288.935 447.688 288.573L454.295 284.767C454.908 284.405 455.852 284.374 456.387 284.673L463.057 288.526C463.591 288.841 463.529 289.376 462.899 289.737L456.292 293.544C455.679 293.905 454.735 293.937 454.2 293.638Z" fill="#5B5B5B"/>
<path d="M356.181 225.502L349.511 221.649C348.976 221.334 349.039 220.799 349.669 220.437L356.275 216.631C356.889 216.269 357.833 216.238 358.368 216.537L365.038 220.39C365.572 220.705 365.509 221.24 364.88 221.601L358.273 225.408C357.66 225.769 356.716 225.801 356.181 225.502Z" fill="#5B5B5B"/>
<path d="M345.94 219.588L339.27 215.735C338.736 215.42 338.799 214.885 339.428 214.523L346.035 210.717C346.648 210.355 347.592 210.324 348.127 210.623L354.797 214.476C355.332 214.791 355.269 215.326 354.64 215.687L348.033 219.494C347.419 219.855 346.475 219.887 345.94 219.588Z" fill="#5B5B5B"/>
<path d="M335.715 213.674L329.045 209.821C328.511 209.506 328.573 208.971 329.203 208.61L335.81 204.803C336.423 204.442 337.367 204.41 337.902 204.709L344.572 208.562C345.107 208.877 345.044 209.412 344.414 209.773L337.807 213.58C337.194 213.942 336.25 213.973 335.715 213.674Z" fill="#5B5B5B"/>
<path d="M325.475 207.776L318.805 203.922C318.27 203.608 318.333 203.073 318.962 202.711L325.569 198.905C326.182 198.543 327.126 198.512 327.661 198.826L334.331 202.68C334.866 202.995 334.803 203.529 334.174 203.891L327.567 207.697C326.953 208.059 326.009 208.091 325.475 207.776Z" fill="#5B5B5B"/>
<path d="M335.998 201.689L329.329 197.836C328.794 197.521 328.857 196.986 329.486 196.624L331.672 195.366C332.286 195.004 333.23 194.973 333.765 195.288L340.435 199.141C340.969 199.456 340.907 199.99 340.277 200.352L338.091 201.61C337.477 201.972 336.533 202.004 335.998 201.705V201.689Z" fill="#5B5B5B"/>
<path d="M349.354 209.412L342.684 205.558C342.149 205.244 342.212 204.709 342.841 204.347L345.028 203.089C345.641 202.727 346.585 202.696 347.12 202.994L353.79 206.848C354.325 207.163 354.262 207.697 353.633 208.059L351.446 209.317C350.833 209.679 349.889 209.711 349.354 209.412Z" fill="#5B5B5B"/>
<path d="M359.548 215.294L352.878 211.441C352.343 211.126 352.406 210.591 353.035 210.23L355.222 208.971C355.835 208.61 356.779 208.578 357.314 208.877L363.984 212.73C364.518 213.045 364.456 213.58 363.826 213.942L361.64 215.2C361.026 215.562 360.082 215.593 359.548 215.294Z" fill="#5B5B5B"/>
<path d="M369.741 221.177L363.071 217.323C362.536 217.009 362.599 216.474 363.229 216.112L365.415 214.854C366.029 214.492 366.973 214.461 367.507 214.775L374.177 218.629C374.712 218.943 374.649 219.478 374.02 219.84L371.833 221.098C371.22 221.46 370.276 221.491 369.741 221.192V221.177Z" fill="#5B5B5B"/>
<path d="M379.935 227.059L373.265 223.206C372.73 222.891 372.793 222.356 373.422 221.995L375.609 220.736C376.222 220.375 377.166 220.343 377.701 220.658L384.371 224.511C384.906 224.826 384.843 225.36 384.214 225.722L382.027 226.981C381.413 227.342 380.47 227.374 379.935 227.075V227.059Z" fill="#5B5B5B"/>
<path d="M436.865 259.916L430.195 256.063C429.66 255.748 429.723 255.213 430.352 254.851L432.539 253.593C433.152 253.231 434.096 253.2 434.631 253.499L441.301 257.352C441.836 257.667 441.773 258.202 441.144 258.563L438.957 259.822C438.343 260.183 437.4 260.215 436.865 259.916Z" fill="#5B5B5B"/>
<path d="M447.058 265.798L440.388 261.945C439.854 261.63 439.916 261.096 440.546 260.734L442.732 259.476C443.346 259.114 444.29 259.082 444.825 259.381L451.494 263.235C452.029 263.549 451.966 264.084 451.337 264.446L449.15 265.704C448.537 266.066 447.593 266.097 447.058 265.798Z" fill="#5B5B5B"/>
<path d="M457.252 271.681L450.582 267.827C450.047 267.513 450.11 266.978 450.739 266.616L452.926 265.358C453.539 264.996 454.483 264.965 455.018 265.279L461.688 269.133C462.223 269.448 462.16 269.982 461.531 270.344L459.344 271.602C458.731 271.964 457.787 271.996 457.252 271.697V271.681Z" fill="#5B5B5B"/>
<path d="M467.446 277.563L460.776 273.71C460.241 273.395 460.304 272.861 460.933 272.499L463.12 271.241C463.733 270.879 464.677 270.847 465.212 271.162L471.882 275.015C472.416 275.33 472.354 275.865 471.724 276.226L469.538 277.485C468.924 277.847 467.98 277.878 467.446 277.579V277.563Z" fill="#5B5B5B"/>
<path d="M366.469 231.432L359.799 227.578C359.264 227.264 359.327 226.729 359.957 226.367L366.564 222.561C367.177 222.199 368.121 222.168 368.656 222.466L375.326 226.32C375.86 226.634 375.798 227.169 375.168 227.531L368.561 231.337C367.948 231.699 367.004 231.73 366.469 231.432Z" fill="#5B5B5B"/>
<path d="M376.757 237.377L370.087 233.524C369.552 233.209 369.615 232.674 370.244 232.312L376.851 228.506C377.465 228.144 378.409 228.113 378.944 228.412L385.613 232.265C386.148 232.58 386.085 233.115 385.456 233.476L378.849 237.283C378.236 237.644 377.292 237.676 376.757 237.377Z" fill="#5B5B5B"/>
<path d="M387.045 243.322L380.375 239.469C379.84 239.154 379.903 238.62 380.533 238.258L387.139 234.452C387.753 234.09 388.697 234.058 389.232 234.373L395.902 238.226C396.436 238.541 396.374 239.076 395.744 239.437L389.137 243.244C388.524 243.606 387.58 243.637 387.045 243.322Z" fill="#5B5B5B"/>
<path d="M397.333 249.252L390.663 245.399C390.128 245.084 390.191 244.549 390.821 244.188L397.428 240.381C398.041 240.019 398.985 239.988 399.52 240.287L406.19 244.14C406.725 244.455 406.662 244.99 406.032 245.351L399.425 249.158C398.812 249.519 397.868 249.551 397.333 249.252Z" fill="#5B5B5B"/>
<path d="M407.621 255.197L400.951 251.344C400.416 251.029 400.479 250.495 401.108 250.133L407.715 246.327C408.329 245.965 409.273 245.933 409.808 246.248L416.477 250.101C417.012 250.416 416.949 250.951 416.32 251.313L409.713 255.119C409.1 255.481 408.156 255.512 407.621 255.197Z" fill="#5B5B5B"/>
<path d="M417.909 261.127L411.239 257.274C410.704 256.959 410.767 256.424 411.397 256.063L418.003 252.256C418.617 251.895 419.561 251.863 420.096 252.162L426.766 256.015C427.3 256.33 427.237 256.865 426.608 257.226L420.001 261.033C419.388 261.395 418.444 261.426 417.909 261.127Z" fill="#5B5B5B"/>
<path d="M428.197 267.072L421.527 263.219C420.992 262.904 421.055 262.37 421.685 262.008L428.292 258.202C428.905 257.84 429.849 257.808 430.384 258.123L437.054 261.976C437.589 262.291 437.526 262.826 436.896 263.188L430.289 266.994C429.676 267.356 428.732 267.387 428.197 267.088V267.072Z" fill="#5B5B5B"/>
<path d="M438.485 273.018L431.815 269.164C431.28 268.85 431.343 268.315 431.972 267.953L438.579 264.147C439.193 263.785 440.137 263.754 440.672 264.053L447.342 267.906C447.876 268.221 447.813 268.755 447.184 269.117L440.577 272.924C439.964 273.285 439.02 273.317 438.485 273.018Z" fill="#5B5B5B"/>
<path d="M448.773 278.948L442.103 275.094C441.568 274.779 441.631 274.245 442.261 273.883L448.867 270.077C449.481 269.715 450.425 269.683 450.96 269.982L457.63 273.836C458.164 274.15 458.102 274.685 457.472 275.047L450.865 278.853C450.252 279.215 449.308 279.246 448.773 278.948Z" fill="#5B5B5B"/>
<path d="M307.652 232.171L288.035 220.846C287.5 220.532 287.563 219.997 288.192 219.635L294.799 215.829C295.413 215.467 296.357 215.436 296.892 215.735L316.508 227.059C317.043 227.374 316.98 227.908 316.351 228.27L309.744 232.077C309.13 232.438 308.186 232.47 307.652 232.171Z" fill="#5B5B5B"/>
<path d="M434.049 305.136L414.433 293.811C413.898 293.496 413.961 292.962 414.59 292.6L421.197 288.794C421.81 288.432 422.754 288.4 423.289 288.699L442.905 300.024C443.44 300.338 443.377 300.873 442.748 301.235L436.141 305.041C435.528 305.403 434.584 305.434 434.049 305.12V305.136Z" fill="#5B5B5B"/>
<path d="M392.897 294.503L386.227 290.65C385.692 290.335 385.755 289.8 386.384 289.438L394.25 284.893C394.863 284.531 395.807 284.5 396.342 284.799L403.012 288.652C403.547 288.967 403.484 289.501 402.855 289.863L394.989 294.409C394.376 294.77 393.432 294.802 392.897 294.487V294.503Z" fill="#5B5B5B"/>
<path d="M318.191 251.375L307.541 245.226C307.006 244.911 307.069 244.376 307.699 244.014L315.564 239.469C316.177 239.107 317.121 239.076 317.656 239.375L328.306 245.524C328.841 245.839 328.778 246.374 328.149 246.735L320.283 251.281C319.67 251.643 318.726 251.674 318.191 251.36V251.375Z" fill="#5B5B5B"/>
<path d="M382.986 288.778L372.337 282.628C371.802 282.313 371.865 281.779 372.494 281.417L380.359 276.871C380.973 276.51 381.917 276.478 382.452 276.777L393.101 282.927C393.636 283.241 393.573 283.776 392.944 284.138L385.079 288.683C384.465 289.045 383.521 289.077 382.986 288.778Z" fill="#5B5B5B"/>
<path d="M333.025 259.947L322.375 253.798C321.841 253.483 321.904 252.948 322.533 252.587L330.398 248.041C331.012 247.679 331.956 247.648 332.49 247.947L343.14 254.096C343.675 254.411 343.612 254.946 342.983 255.308L335.117 259.853C334.504 260.215 333.56 260.246 333.025 259.932V259.947Z" fill="#5B5B5B"/>
<path d="M332.553 248.01L378.881 274.748C379.463 275.078 379.463 275.613 378.881 275.943L370.858 280.568C370.276 280.898 369.348 280.898 368.782 280.568L322.454 253.829L332.553 247.994V248.01Z" fill="#5B5B5B"/>
<path d="M421.653 305.277L429.078 309.555C429.518 309.807 429.456 310.247 428.952 310.546L425.743 312.402C425.24 312.701 424.469 312.732 424.028 312.481L416.603 308.203C416.163 307.951 416.226 307.511 416.729 307.212L419.938 305.356C420.442 305.057 421.213 305.025 421.653 305.277Z" fill="#5B5B5B"/>
<path d="M411.286 299.285L418.711 303.563C419.152 303.814 419.089 304.255 418.585 304.554L415.376 306.41C414.873 306.708 414.102 306.74 413.662 306.488L406.237 302.21C405.796 301.958 405.859 301.518 406.363 301.219L409.572 299.363C410.075 299.064 410.846 299.033 411.286 299.285Z" fill="#5B5B5B"/>
<path d="M400.998 293.339L408.423 297.617C408.864 297.869 408.801 298.309 408.298 298.608L405.088 300.464C404.585 300.763 403.814 300.794 403.374 300.543L395.949 296.265C395.508 296.013 395.571 295.573 396.075 295.274L399.284 293.418C399.787 293.119 400.558 293.088 400.998 293.339Z" fill="#5B5B5B"/>
<path d="M416.965 295.997L424.39 300.275C424.831 300.527 424.768 300.968 424.264 301.266L421.055 303.122C420.552 303.421 419.781 303.453 419.341 303.201L411.916 298.923C411.475 298.671 411.538 298.231 412.042 297.932L415.251 296.076C415.754 295.777 416.525 295.746 416.965 295.997Z" fill="#5B5B5B"/>
</g>
<path d="M521.921 135.944C521.418 135.944 520.883 135.787 520.364 135.503C518.791 134.591 517.816 132.531 518.193 130.911C518.382 130.124 518.838 129.542 519.499 129.259C520.223 128.945 521.135 129.039 521.969 129.527C523.542 130.439 524.517 132.499 524.14 134.119C523.951 134.906 523.495 135.488 522.834 135.771C522.551 135.897 522.236 135.96 521.921 135.96V135.944ZM520.411 129.778C520.191 129.778 519.971 129.825 519.782 129.904C519.326 130.093 519.011 130.517 518.885 131.068C518.571 132.405 519.405 134.119 520.726 134.874C521.371 135.236 522.032 135.33 522.551 135.094C523.007 134.906 523.322 134.481 523.447 133.931C523.762 132.594 522.928 130.879 521.607 130.124C521.198 129.888 520.789 129.778 520.411 129.778Z" fill="#E0E8E6"/>
<path d="M530.416 140.851C529.913 140.851 529.378 140.694 528.859 140.411C527.286 139.498 526.31 137.438 526.688 135.818C526.877 135.032 527.333 134.45 527.994 134.166C528.717 133.852 529.63 133.946 530.463 134.434C532.036 135.346 533.012 137.407 532.634 139.027C532.445 139.813 531.989 140.395 531.329 140.678C531.045 140.804 530.731 140.867 530.416 140.867V140.851ZM528.906 134.685C528.686 134.685 528.465 134.733 528.277 134.811C527.836 135 527.506 135.425 527.38 135.975C527.065 137.312 527.899 139.027 529.221 139.782C529.85 140.143 530.526 140.238 531.045 140.002C531.502 139.813 531.816 139.388 531.942 138.838C532.257 137.501 531.423 135.786 530.102 135.032C529.693 134.796 529.283 134.685 528.906 134.685Z" fill="#E0E8E6"/>
<path d="M540.767 143.824C540.421 145.302 538.974 145.821 537.527 144.988C536.079 144.154 535.183 142.267 535.513 140.788C535.859 139.31 537.306 138.791 538.754 139.624C540.201 140.458 541.097 142.345 540.767 143.824Z" fill="#E0E8E6"/>
<path d="M378.11 50.2233L373.579 47.6124L373.925 45.5048L378.456 48.1314L378.11 50.2233Z" fill="#E0E8E6"/>
<path d="M384.701 54.0297L380.171 51.4187L380.517 49.3111L385.063 51.9378L384.701 54.0297Z" fill="#E0E8E6"/>
<path d="M371.582 46.4642L361.64 40.7233L361.986 38.6157L371.928 44.3566L371.582 46.4642Z" fill="#E0E8E6"/>
<path d="M531.014 464.308C529.252 464.308 527.49 463.852 525.933 462.956L466.407 428.604C465.463 428.07 464.913 427.095 464.913 426.009C464.913 424.924 465.463 423.965 466.407 423.414L554.453 372.595C557.583 370.786 561.485 370.786 564.631 372.595L624.156 406.946C625.1 407.481 625.651 408.456 625.651 409.542C625.651 410.627 625.085 411.586 624.156 412.137L536.111 462.956C534.538 463.868 532.776 464.308 531.03 464.308H531.014ZM559.534 371.95C557.898 371.95 556.262 372.375 554.799 373.209L466.753 424.027C466.045 424.436 465.621 425.176 465.621 425.994C465.621 426.811 466.045 427.551 466.753 427.96L526.279 462.311C529.205 463.994 532.823 463.994 535.733 462.311L623.779 411.492C624.487 411.083 624.911 410.344 624.911 409.526C624.911 408.708 624.487 407.969 623.779 407.56L564.253 373.209C562.79 372.359 561.154 371.95 559.518 371.95H559.534Z" fill="#DBDBDB"/>
<path d="M545.298 406.506L535.953 401.111L538.282 399.774L547.61 405.169L545.298 406.506Z" fill="#DBDBDB"/>
<path opacity="0.5" d="M553.257 411.099L548.601 408.409L550.913 407.072L555.585 409.762L553.257 411.099Z" fill="#DBDBDB"/>
<path opacity="0.5" d="M539.855 409.652L530.51 404.257L532.839 402.92L542.167 408.299L539.855 409.652Z" fill="#DBDBDB"/>
<path opacity="0.5" d="M547.814 414.244L543.158 411.555L545.47 410.218L550.142 412.907L547.814 414.244Z" fill="#DBDBDB"/>
<path d="M534.412 412.782L525.068 407.402L527.396 406.05L536.724 411.445L534.412 412.782Z" fill="#DBDBDB"/>
<path d="M542.387 417.39L537.715 414.7L540.028 413.348L544.7 416.053L542.387 417.39Z" fill="#DBDBDB"/>
<path d="M528.969 415.927L519.625 410.532L521.953 409.195L531.281 414.59L528.969 415.927Z" fill="#DBDBDB"/>
<path d="M536.944 420.536L532.272 417.83L534.585 416.493L539.257 419.183L536.944 420.536Z" fill="#DBDBDB"/>
<path d="M523.526 419.073L514.182 413.678L516.51 412.341L525.854 417.736L523.526 419.073Z" fill="#DBDBDB"/>
<path d="M531.501 423.666L526.829 420.976L529.142 419.639L533.814 422.329L531.501 423.666Z" fill="#DBDBDB"/>
<path d="M518.083 422.219L508.739 416.824L511.067 415.487L520.411 420.866L518.083 422.219Z" fill="#DBDBDB"/>
<path d="M526.059 426.811L521.386 424.122L523.699 422.769L528.371 425.475L526.059 426.811Z" fill="#DBDBDB"/>
<path d="M512.64 425.349L503.296 419.954L505.624 418.617L514.968 424.012L512.64 425.349Z" fill="#DBDBDB"/>
<path opacity="0.5" d="M520.616 429.957L515.944 427.252L518.256 425.915L522.928 428.62L520.616 429.957Z" fill="#DBDBDB"/>
<path d="M507.197 428.494L497.869 423.099L500.181 421.763L509.525 427.157L507.197 428.494Z" fill="#DBDBDB"/>
<path opacity="0.5" d="M515.173 433.087L510.501 430.398L512.829 429.061L517.485 431.75L515.173 433.087Z" fill="#DBDBDB"/>
<path d="M566.031 418.601L556.702 413.206L559.015 411.869L568.359 417.264L566.031 418.601Z" fill="#DBDBDB"/>
<path d="M574.006 423.194L569.334 420.504L571.662 419.167L576.334 421.857L574.006 423.194Z" fill="#DBDBDB"/>
<path d="M560.588 421.731L551.26 416.352L553.572 414.999L562.916 420.394L560.588 421.731Z" fill="#DBDBDB"/>
<path d="M568.563 426.34L563.891 423.65L566.219 422.297L570.892 425.003L568.563 426.34Z" fill="#DBDBDB"/>
<path d="M555.161 424.877L545.817 419.482L548.129 418.145L557.473 423.54L555.161 424.877Z" fill="#DBDBDB"/>
<path d="M563.121 429.485L558.448 426.78L560.777 425.443L565.449 428.133L563.121 429.485Z" fill="#DBDBDB"/>
<path d="M561.532 397.132L552.188 391.737L554.516 390.4L563.844 395.795L561.532 397.132Z" fill="#DBDBDB"/>
<path d="M569.492 401.74L564.835 399.035L567.148 397.698L571.82 400.388L569.492 401.74Z" fill="#DBDBDB"/>
<path d="M556.089 400.277L546.745 394.883L549.073 393.546L558.401 398.94L556.089 400.277Z" fill="#DBDBDB"/>
<path d="M564.049 404.87L559.392 402.181L561.705 400.844L566.377 403.533L564.049 404.87Z" fill="#DBDBDB"/>
<path d="M550.646 403.423L541.302 398.028L543.63 396.691L552.959 402.07L550.646 403.423Z" fill="#DBDBDB"/>
<path d="M558.622 408.016L553.949 405.326L556.262 403.974L560.934 406.679L558.622 408.016Z" fill="#DBDBDB"/>
<path d="M582.265 409.227L572.937 403.832L575.249 402.495L584.593 407.89L582.265 409.227Z" fill="#DBDBDB"/>
<path d="M590.241 413.82L585.569 411.13L587.897 409.793L592.569 412.483L590.241 413.82Z" fill="#DBDBDB"/>
<path opacity="0.5" d="M576.822 412.373L567.494 406.978L569.806 405.641L579.15 411.02L576.822 412.373Z" fill="#DBDBDB"/>
<path d="M584.798 416.965L580.126 414.276L582.454 412.939L587.126 415.628L584.798 416.965Z" fill="#DBDBDB"/>
<path d="M571.395 415.503L562.051 410.123L564.363 408.771L573.708 414.166L571.395 415.503Z" fill="#DBDBDB"/>
<path d="M579.355 420.111L574.683 417.406L577.011 416.069L581.683 418.774L579.355 420.111Z" fill="#DBDBDB"/>
<path d="M549.718 428.023L540.374 422.628L542.686 421.291L552.03 426.686L549.718 428.023Z" fill="#DBDBDB"/>
<path d="M557.678 432.615L553.006 429.926L555.334 428.589L560.006 431.278L557.678 432.615Z" fill="#DBDBDB"/>
<path opacity="0.5" d="M544.275 431.168L534.931 425.773L537.259 424.436L546.587 429.816L544.275 431.168Z" fill="#DBDBDB"/>
<path d="M552.235 435.761L547.563 433.071L549.891 431.734L554.563 434.424L552.235 435.761Z" fill="#DBDBDB"/>
<path d="M538.832 434.298L529.488 428.919L531.816 427.566L541.145 432.961L538.832 434.298Z" fill="#DBDBDB"/>
<path d="M546.792 438.907L542.136 436.201L544.448 434.864L549.12 437.57L546.792 438.907Z" fill="#DBDBDB"/>
<path d="M533.389 437.444L524.045 432.049L526.373 430.712L535.702 436.107L533.389 437.444Z" fill="#DBDBDB"/>
<path d="M541.349 442.052L536.693 439.347L539.005 438.01L543.677 440.7L541.349 442.052Z" fill="#DBDBDB"/>
<path d="M528.041 440.527L518.712 435.132L521.025 433.795L530.369 439.19L528.041 440.527Z" fill="#DBDBDB"/>
<path d="M536.016 445.135L531.344 442.43L533.672 441.093L538.344 443.782L536.016 445.135Z" fill="#DBDBDB"/>
<defs>
<linearGradient id="paint0_linear_658_416" x1="28.8215" y1="422.172" x2="289.136" y2="422.172" gradientUnits="userSpaceOnUse">
<stop stop-color="#C5C5C5"/>
<stop offset="0.09" stop-color="#B6B6B6"/>
<stop offset="0.34" stop-color="#959595"/>
<stop offset="0.59" stop-color="#7E7E7E"/>
<stop offset="0.81" stop-color="#6F6F6F"/>
<stop offset="1" stop-color="#6B6B6B"/>
</linearGradient>
<linearGradient id="paint1_linear_658_416" x1="195.238" y1="458.992" x2="122.591" y2="362.566" gradientUnits="userSpaceOnUse">
<stop stop-color="#B5B5B5"/>
<stop offset="0.1" stop-color="#919191"/>
<stop offset="0.24" stop-color="#6A6A6A"/>
<stop offset="0.38" stop-color="#494949"/>
<stop offset="0.52" stop-color="#303030"/>
<stop offset="0.67" stop-color="#1E1E1E"/>
<stop offset="0.82" stop-color="#131313"/>
<stop offset="1" stop-color="#101010"/>
</linearGradient>
<radialGradient id="paint2_radial_658_416" cx="0" cy="0" r="1" gradientUnits="userSpaceOnUse" gradientTransform="translate(145.938 408.535) scale(203.746 203.716)">
<stop stop-color="#B5B5B5"/>
<stop offset="0.1" stop-color="#919191"/>
<stop offset="0.24" stop-color="#6A6A6A"/>
<stop offset="0.38" stop-color="#494949"/>
<stop offset="0.52" stop-color="#303030"/>
<stop offset="0.67" stop-color="#1E1E1E"/>
<stop offset="0.82" stop-color="#131313"/>
<stop offset="1" stop-color="#101010"/>
</radialGradient>
<linearGradient id="paint3_linear_658_416" x1="4.61172" y1="501.616" x2="41.199" y2="522.744" gradientUnits="userSpaceOnUse">
<stop stop-color="#C5C5C5"/>
<stop offset="0.25" stop-color="#B3B3B3"/>
<stop offset="0.75" stop-color="#848484"/>
<stop offset="1" stop-color="#6B6B6B"/>
</linearGradient>
<linearGradient id="paint4_linear_658_416" x1="0.0183105" y1="509.606" x2="46.1412" y2="509.606" gradientUnits="userSpaceOnUse">
<stop stop-color="#EBEBEB"/>
<stop offset="0.32" stop-color="#D8D8D8"/>
<stop offset="0.69" stop-color="#C9C9C9"/>
<stop offset="1" stop-color="#C5C5C5"/>
</linearGradient>
<linearGradient id="paint5_linear_658_416" x1="4.61172" y1="472.723" x2="41.199" y2="493.851" gradientUnits="userSpaceOnUse">
<stop stop-color="#C5C5C5"/>
<stop offset="0.25" stop-color="#B3B3B3"/>
<stop offset="0.75" stop-color="#848484"/>
<stop offset="1" stop-color="#6B6B6B"/>
</linearGradient>
<linearGradient id="paint6_linear_658_416" x1="0.0183105" y1="480.713" x2="46.1412" y2="480.713" gradientUnits="userSpaceOnUse">
<stop stop-color="#EBEBEB"/>
<stop offset="0.32" stop-color="#D8D8D8"/>
<stop offset="0.69" stop-color="#C9C9C9"/>
<stop offset="1" stop-color="#C5C5C5"/>
</linearGradient>
<linearGradient id="paint7_linear_658_416" x1="26.9652" y1="381.781" x2="63.5525" y2="402.909" gradientUnits="userSpaceOnUse">
<stop stop-color="#C5C5C5"/>
<stop offset="0.25" stop-color="#B3B3B3"/>
<stop offset="0.75" stop-color="#848484"/>
<stop offset="1" stop-color="#6B6B6B"/>
</linearGradient>
<linearGradient id="paint8_linear_658_416" x1="22.3718" y1="389.755" x2="68.4947" y2="389.755" gradientUnits="userSpaceOnUse">
<stop stop-color="#EBEBEB"/>
<stop offset="0.32" stop-color="#D8D8D8"/>
<stop offset="0.69" stop-color="#C9C9C9"/>
<stop offset="1" stop-color="#C5C5C5"/>
</linearGradient>
<linearGradient id="paint9_linear_658_416" x1="26.9652" y1="352.887" x2="63.5525" y2="374.015" gradientUnits="userSpaceOnUse">
<stop stop-color="#C5C5C5"/>
<stop offset="0.25" stop-color="#B3B3B3"/>
<stop offset="0.75" stop-color="#848484"/>
<stop offset="1" stop-color="#6B6B6B"/>
</linearGradient>
<linearGradient id="paint10_linear_658_416" x1="22.3718" y1="360.877" x2="68.4947" y2="360.877" gradientUnits="userSpaceOnUse">
<stop stop-color="#EBEBEB"/>
<stop offset="0.32" stop-color="#D8D8D8"/>
<stop offset="0.69" stop-color="#C9C9C9"/>
<stop offset="1" stop-color="#C5C5C5"/>
</linearGradient>
<linearGradient id="paint11_linear_658_416" x1="524.501" y1="304.994" x2="178.391" y2="304.994" gradientUnits="userSpaceOnUse">
<stop stop-color="#D1D2D7"/>
<stop offset="0.29" stop-color="#D5D6DB"/>
<stop offset="0.63" stop-color="#E4E4E8"/>
<stop offset="1" stop-color="#FCFCFF"/>
</linearGradient>
<linearGradient id="paint12_linear_658_416" x1="414.684" y1="296.941" x2="68.5734" y2="296.941" gradientUnits="userSpaceOnUse">
<stop stop-color="#F3F4F6"/>
<stop offset="0.71" stop-color="#F7F8F9"/>
<stop offset="1" stop-color="#FCFCFD"/>
</linearGradient>
<linearGradient id="paint13_linear_658_416" x1="563.734" y1="145.145" x2="318.804" y2="145.145" gradientUnits="userSpaceOnUse">
<stop stop-color="#F3F4F6"/>
<stop offset="0.71" stop-color="#F7F8F9"/>
<stop offset="1" stop-color="#FCFCFD"/>
</linearGradient>
<linearGradient id="paint14_linear_658_416" x1="563.734" y1="207.949" x2="521.67" y2="207.949" gradientUnits="userSpaceOnUse">
<stop stop-color="#D1D2D7"/>
<stop offset="0.29" stop-color="#D5D6DB"/>
<stop offset="0.63" stop-color="#E4E4E8"/>
<stop offset="1" stop-color="#FCFCFF"/>
</linearGradient>
<linearGradient id="paint15_linear_658_416" x1="530.92" y1="276.478" x2="184.998" y2="276.478" gradientUnits="userSpaceOnUse">
<stop stop-color="#D1D2D7"/>
<stop offset="0.29" stop-color="#D5D6DB"/>
<stop offset="0.63" stop-color="#E4E4E8"/>
<stop offset="1" stop-color="#FCFCFF"/>
</linearGradient>
<linearGradient id="paint16_linear_658_416" x1="663.94" y1="200.352" x2="318.018" y2="200.352" gradientUnits="userSpaceOnUse">
<stop stop-color="#D1D2D7"/>
<stop offset="0.29" stop-color="#D5D6DB"/>
<stop offset="0.63" stop-color="#E4E4E8"/>
<stop offset="1" stop-color="#FCFCFF"/>
</linearGradient>
<linearGradient id="paint17_linear_658_416" x1="547.704" y1="190.899" x2="201.594" y2="190.899" gradientUnits="userSpaceOnUse">
<stop stop-color="#F3F4F6"/>
<stop offset="0.71" stop-color="#F7F8F9"/>
<stop offset="1" stop-color="#FCFCFD"/>
</linearGradient>
</defs>
</svg>
