<?xml version="1.0" encoding="UTF-8"?><svg id="Capa_1" xmlns="http://www.w3.org/2000/svg" viewBox="0 0 1041 400"><defs><style>.cls-1{fill:#fff;}</style></defs><path class="cls-1" d="M927.39,152.18c0-5.9-.12-11.81-.19-17.71-1.92-.1-3.85-.3-5.77-.3-263.37-.01-526.73-.01-790.1-.01-3.99,0-7.98-.02-11.97,0-5.26,.03-5.27,.05-5.27,5.15,0,38.23-.02,76.45,.02,114.68,0,3.58-1.52,8.16,.68,10.47,2.39,2.52,7.08,.84,10.75,.84,265.04,.05,530.08,.05,795.12,.05,2.18,0,4.36-.22,6.54-.33,.07-2.31,.2-4.62,.2-6.93,0-35.3,0-70.61-.01-105.91ZM118.89,263.11c-.05,.27-.05,.57-.15,.81,.09-.24,.1-.54,.15-.81,3.99-.01,7.98-.03,11.97-.03-3.99,0-7.98,.02-11.97,.03Zm271.24-104.29c.87,.48,1.33,1.13,1.32,1.96,.01-.83-.45-1.48-1.32-1.96h0Zm-155.37,15.41c1.43-.01,2.87-.24,4.32-.54-1.45,.3-2.9,.52-4.32,.54-1.56-.54-3.14-.72-4.73-.77,1.59,.05,3.18,.23,4.73,.77Zm-28.62-19.29c.56,3.14-.95,4.89-2.8,6.41,1.85-1.52,3.36-3.26,2.8-6.41h0c-.02-.4-.08-.74-.2-1.03,.12,.29,.19,.63,.2,1.03Zm-19.18,2.29c1.25-1.6,2.4-2.34,4.4-2.28,4.61,.14,9.23,.09,13.85,.12-.91,2.31-2.62,3.78-4.88,4.69l-.14,.14c-4.69,7.93-11.71,9.64-20.16,7.59,0,0,0,0,0,0-.28,.05-.46-.07-.55-.34,0,0,0,0,0,0,3.64-2.43,4.93-6.65,7.49-9.91Zm8.81,72.56c-.25,0-.68,.02-.74-.1-2.2-4.86-4.4-.68-6.47,.07-3.96,1.44-7.92,2.11-12.07,1.02-5.31-1.39-8.15-4.64-8.22-10.09-.05-3.9-.88-7.91,.85-11.69,.18-.53,.36-1.07,.54-1.6,0-.71,.34-1.19,.97-1.49,1.54-3.68,5.07-4.72,8.28-6.09,3.51-1.5,7.02-3.05,10.66-4.18,3.51-1.09,4.92-3.24,4.59-6.76-.21-.6-.42-1.21-.63-1.81-.3-.31-.61-.61-.91-.92-.17,0-.29-.06-.37-.21-5.97-.31-6.29-.12-6.93,5.77-.19,1.77-.81,2.51-2.6,2.46-2.7-.08-5.4,0-8.1-.01q-5.38-.04-5.32-5.29c.08-6.56,3.55-11.25,10.16-13.19,8.82-2.59,17.46-2.2,25.63,2.39,1.77,.99,3.48,2.21,3.51,4.61,2.24,1.69,2.1,4.18,2.11,6.57,.03,10.41,.02,20.82,.02,31.23,0,3.05-.29,6.15,2.1,9.34-6.11,0-11.58,0-17.05,0Zm90.59-.14c-.06,.16-.13,.29-.22,.4,.08-.12,.16-.24,.22-.4-4.24,.05-8.49-.06-12.72,.2-3.07,.19-3.65-1.22-3.63-3.88,.09-11.18,.06-22.37,.04-33.55-.01-5.9-.79-6.62-6.7-6.48-.15,.12-.31,.16-.5,.13-1.38,2.7-1.62,5.57-1.59,8.56,.11,11.65,.11,23.3,.15,34.95,.13,.1,.25,.19,.38,.29,.3-.07,.56-.16,.78-.26-.23,.11-.48,.2-.78,.26-.22,.24-.5,.47-.82,.69,.32-.22,.59-.44,.82-.69-.13-.1-.25-.19-.38-.29-4.23,.08-8.47,.02-12.69,.28-2.79,.17-3.48-.99-3.46-3.56,.1-11.04,.04-22.07,.04-33.11,0-1.67-.18-3.25-.82-4.87-.89-2.25-2.5-2.77-4.57-2.58-2.12,.19-3.15,1.63-3.44,3.56-.19,1.26-.12,2.56-.13,3.84-.1,12.19-.19,24.37-.28,36.56-4.5,.04-9,.04-13.49,.16-1.82,.05-2.5-.65-2.5-2.46,.03-16.33,.04-32.65-.03-48.98,0-2.1,.88-2.64,2.76-2.61,4.24,.06,8.48,0,12.72,0,.32,.27,.65,.53,.97,.8,.79,.09,1.57,.18,2.36,.27-.79-.09-1.58-.18-2.36-.27,.08,.51,.16,1.02,.24,1.53-.09,.44-.18,.87-.26,1.31,.21-.4,.42-.81,.63-1.21,.25-.04,.5-.08,.75-.12,.55,.04,.83-.24,.92-.76,.2-.08,.25-.21,.19-.4,.1,.02,.21,.04,.21,.04,0,0,.29-.17,.29-.17,7.37-3.71,14.27-3.66,20.28,2.69,1.61,1.7,2.06,.06,2.9-.76,4.62-4.53,11.03-5.61,16.99-3.17,1.92,.79,2.92,2.43,4.42,3.57,1.44,2.45,2.43,5.04,2.42,7.93-.03,14.19-.08,28.39-.12,42.58Zm51.33-10.36c-1.04,12.52-13.5,14.43-21.65,9.35-1.16-.72-2.61-1.2-3.25-2.61-.28,.27-.56,.54-.85,.81,.31,1.98-.15,3.11-2.54,3.01-3.69-.16-7.4-.14-11.1-.01-1.82,.06-2.55-.73-2.73-2.35-.22-.37-.38-.74-.49-1.12,.11,.37,.27,.75,.49,1.12-.02-1.5-.04-3-.05-4.5,.3-15.75,.34-31.51,0-47.26-.15-.17-.26-.33-.34-.5,.08,.17,.19,.33,.34,.5,0-.73,0-1.45,0-2.18,0-1.06,0-2.13,0-3.19-.07-.16-.16-.32-.2-.49,.04,.17,.13,.33,.2,.49,.15-.23,.15-.47,0-.7,.27-2.13,.35-4.26-.04-6.39-.73,.07-1.51,.15-2.06,.46,.55-.31,1.34-.39,2.06-.46-.06-.61-.13-1.22-.19-1.84-.15-.05-.27-.11-.41-.16,.14,.05,.26,.12,.41,.16,0,0-.01-.11-.01-.11,.11-.31,.22-.62,.32-.93l.43-2.08,.15,.04c-.23-.82-.08-1.44,.51-1.69-.59,.24-.73,.87-.51,1.69,4.11-.02,8.25,.19,12.33-.15,3-.26,3.52,1.03,3.49,3.52-.08,5.52-.03,11.04-.03,17.02,2.66-1.33,4.91-2.62,7.29-3.6,4.89-2.03,12.08-.59,15.39,3,1.4,1.52,2.55,3.21,2.79,5.37,1.32,11.92,1.26,23.88,.26,35.79Zm9.1-58.97c1.05-3.35,3.23-5.46,6.96-5.57,3.61-.11,6.56,.85,8.09,4.51,1.48,3.55,1.06,6.76-1.61,9.57-.79,.83-1.77,1.47-2.67,2.2-1.8,.04-3.6,.09-5.4,.13-5.59-3.53-6.88-6.02-5.37-10.83Zm15.93,15.9c-.18-.19-.36-.39-.54-.58-.04-.73-.27-1.25-.66-1.6,.39,.35,.62,.88,.66,1.6,.18,.19,.36,.39,.54,.58Zm2.54,49.07c-.04,.7-.05,1.4-.08,2.1,.03-.7,.04-1.4,.08-2.09-.63,0-.97,.22-1.17,.54,.2-.32,.54-.53,1.17-.54,.08-1.58,.12-3.16,.14-4.74-.02,1.58-.06,3.16-.14,4.74Zm-.68-37.44c.07-.61,.22-1.14,.58-1.53-.36,.39-.51,.92-.58,1.53Zm-1.51-11.27c-.16,.12-.33,.21-.51,.27,.01,17.35,.03,34.7,.04,52.05-4.76,1.68-9.65,.54-14.48,.67-1.35,.04-1.44-1.3-1.44-2.32,0-16.59,.04-33.18,.11-49.77,0-.55,.5-1.11,.76-1.66-.02-.77-.04-1.55-.07-2.32,.02,.77,.05,1.55,.07,2.32,4.63,0,9.25,0,13.88,0,.38,.34,.76,.69,1.13,1.03,.18-.06,.35-.16,.51-.27h0c1.26-.27,2.51-.53,3.76-.8,.04-.57,.19-1.13,.48-1.53-.29,.41-.44,.96-.48,1.53-1.25,.27-2.51,.53-3.76,.8Zm16.11,53.29c-.45-.06-.96,0-1.43-.02,.47,.02,.98-.04,1.43,.02,0,.25,.01,.51,.03,.76-.01-.25-.02-.51-.03-.76Zm13.92,1.54c-.07,.47-.21,.81-.41,1.05,.2-.24,.34-.58,.41-1.05,.52,0,1.04,0,1.57,0-.52,0-1.04,0-1.57,0Zm5.22-49.87c-1.15,1.18-.65,2.67-.75,4.05l-.08,.08s0,0,0,0c-.42,.11-.83,.22-1.25,.32,.48,.2,.96,.4,1.44,.6,.54,.61,.61,.98,.42,1.2,.18-.23,.12-.6-.42-1.2-.48-.2-.96-.4-1.44-.6-1.54-.03-3.09-.07-4.63-.1-.38,.09-.75,.17-1.13,.26-.06,8.96-.08,17.92-.23,26.88-.03,1.92,1.22,3.33,1.46,5.1q5.97,.83,5.99,6.88c0,1.54-.08,3.08-.12,4.62-.45,.59-.9,1.18-1.36,1.77,.45-.59,.9-1.18,1.35-1.77-6.15,.06-12.36,1.11-18.36-1.18-.52-.32-1.03-.63-1.55-.95-1.5-1.15-2.12-2.81-2.6-4.54-.58-.13-.91-.38-1.06-.73,.15,.35,.47,.6,1.06,.73,.06-.87-.24-1.56-1.01-2.01,.08-11.49,.15-22.98,.23-34.46-.16,.03-.32,.06-.48,.09,.1-.23,.07-.45-.07-.66l-.36,.03s-.33-.14-.33-.14c-.07,.14-.04,.26,.09,.35-.54-.12-1.07-.24-1.61-.36-.28,.11-.57,.22-.85,.33-1.16-.18-2.32-.36-3.49-.54-.09,.3-.19,.6-.28,.9,.09-.3,.19-.6,.28-.9,0,0-.08,.05-.08,.05,0,0,0,0,0,0-.03-1.65-.06-3.31-.09-4.97,.36-.52,.46-1.06,.09-1.63,.02-.85,.03-1.7,.05-2.55-.1-.23-.2-.47-.3-.7,.1,.23,.2,.47,.3,.7,.19-.21,.37-.42,.56-.63,.77,0,1.55-.11,2.31,0,3.4,.5,4.45-.89,4.21-4.28-.31-4.21-.05-8.46-.03-12.7,1.16-.27,2.32-.54,3.48-.81-.02-.13-.08-.24-.16-.33,.08,.09,.13,.19,.16,.33,4.16,.25,8.32,.5,12.48,.75,.06,5.56,.12,11.13,.18,16.69,.41,.14,.83,.28,1.24,.42,1.54-.05,3.09-.09,4.63-.14,.23,.09,.47,.11,.72,.07,.34,.73,.45,1.61,1.33,1.98-.28,1.24-.31,2.47,.08,3.7h0Zm44.86,38.21c-.32,2.66-1.44,5.18-4.22,6.42l-.11,.1c-.22,1.67-1.64,2.35-2.86,2.82-9.44,3.64-18.76,3.78-27.69-1.55-3.14-1.87-4.92-4.75-5.32-8.46-1.21-11.28-1.15-22.57,.16-33.83,.42-3.61,3.06-6.29,6.2-7.84,8.51-4.21,17.37-4.31,26.07-.74,4.6,1.88,7.8,5.46,8.06,10.8,.52,10.77,.99,21.55-.29,32.29Zm51.08-60.9c-.25,.25-.5,.5-.76,.75,.02,1.27,.04,2.55,.07,3.82-.54,1.72,.22,3.68-.96,5.28-.63-.02-1.27,0-1.89-.07-3.27-.37-4.55,1.23-4.7,4.36-.18,3.66,2.43,2.73,4.4,2.9,.75,.07,1.52-.02,2.27-.03,.28,.75,.57,1.5,.86,2.25,0,1.28-.01,2.57-.02,3.85-.64,1.28,.74,3.36-1.56,3.99-2.05,.45-5.42-1.76-5.8,2.06-.39,3.87-.59,7.85,.24,11.75,0,7.45,0,14.9,0,22.35-1.19,2.44,.72,5.45-1.4,7.72-3.22-.03-6.43-.04-9.65-.09-6.64-.11-5.56,.74-5.6-5.42-.09-11.71-.02-23.42-.04-35.12,0-1.45,.42-3.57-2.04-3.2-5.3,.79-4.89-2.48-4.95-6.05-.05-3.13,.81-4.56,4.09-4.08,2.08,.3,3.1-.58,2.92-2.82-.13-1.53-.07-3.09,.05-4.63,.44-5.78,2.73-8.55,8.24-10.13,2.17,.1,4.34,.11,6.5,.32,3,.3,6.17-.89,8.99,1,.25-.25,.5-.5,.76-.75-.28-.29-.57-.57-.85-.86,.28,.29,.57,.57,.85,.86,1.24,.55,2,.44,2.59-.04-.59,.48-1.35,.59-2.59,.04Zm17.29,70.9c-2.95-.15-5.92-.23-8.85,.03-3.41,.3-4.07-1.26-4.04-4.29,.12-15.54,.06-31.07,.05-46.61,0-.76-.1-1.53-.16-2.29,.18-.2,.35-.41,.53-.61-.24-.93,.17-1.3,.7-1.57-.53,.27-.93,.64-.7,1.57,3.98-.03,7.97,.05,11.94-.13,2.53-.12,3.7,.58,3.68,3.36-.08,15.79-.04,31.59,0,47.38,0,2.24-.76,3.28-3.15,3.16Zm-10.95-55.72c.26-.13,.5-.29,.63-.54,.61-.1,1.25-.08,1.9-.05-.65-.03-1.3-.06-1.9,.05-.14,.24-.37,.41-.63,.54Zm10.09-2.92l.57,.06c.03,.61,.14,1.15,.31,1.62-.18-.47-.28-1.01-.31-1.62-.19-.02-.38-.04-.57-.06Zm2.09-2.26c-.25,.27-.46,.57-.69,.86h0c-.28,.21-.57,.42-.85,.63-.36,.24-.71,.47-1.07,.71h0c-.67,.06-1.33,.13-2,.19-7.73-.17-11.88-5.59-9.11-11.76,1.56-3.48,4.41-5.03,7.88-5.02,3.17,.01,5.88,1.48,7.36,4.61,1.7,3.61,1.26,6.87-1.52,9.77Zm2.58,59.45s0,0,0,0c.77,.46,1.33,.64,1.74,.65-.41,0-.97-.19-1.74-.65Zm50.46,1.26c-5.23,.05-10.46,.1-15.7,.15h0c-.26-.34-.52-.67-.78-1.01-.08,.38-.17,.76-.25,1.15-.51,0-1.01,0-1.52,0,.51,0,1.01,0,1.52,0l.25-1.15c.06-12.57,.12-25.14,.17-37.72,.01-3.11-1.01-5.18-4.64-5.19-3.44,0-4.56,2.08-4.56,4.92-.02,12.44,.09,24.88,.16,37.32,0,0,0,0,0,0-.24,.57-.48,1.13-.72,1.7,0,0-.07,.01-.07,.01,.05,.55,.11,1.09,.16,1.64-.05-.55-.11-1.09-.16-1.64-4.24,0-8.48-.08-12.72,.04-2.24,.06-3.22-.61-3.2-3.03,.08-16.06,.07-32.13,.02-48.19,0-2.03,.73-2.73,2.69-2.68,3.73,.09,7.45,0,11.18,.04,.72,0,1.89-.32,2.05,.54,.82,4.39,2.72,1.69,4.2,.65,4.93-3.48,10.2-3.59,15.31-.97,4.59,2.35,6.63,6.77,6.67,11.79,.1,13.88-.02,27.76-.05,41.63Zm51.94-.5c-4.84,1.66-9.85,.25-14.75,.8-2.97,.33-3.94-1.01-3.74-3.7-.23-.06-.47-.08-.71-.07-3.94,4.26-8.93,5.64-14.51,5.12-6.95-.65-10.79-4.86-10.93-11.83-.06-2.94,.03-5.88,.05-8.82,.24-.53,.48-1.06,.72-1.58,.54-1.21,1.08-2.41,1.62-3.62,1.57-1.33,3.13-2.66,4.69-3.99,.48-.2,.97-.4,1.45-.61,.29-.29,.58-.59,.87-.88,0,0,.1,.03,.1,.03,1.61,.27,2.95-.61,4.35-1.11,4-1.43,7.96-3,11.94-4.51,.24-.75,.48-1.51,.72-2.26-.37-1.8-.74-3.61-1.11-5.41-.26-.23-.52-.45-.78-.68-1.79-.05-3.58-.09-5.37-.14-.15,.15-.33,.21-.53,.2-.53,1.29-1.59,2.61-1.5,3.85,.32,4.15-1.96,4.61-5.18,4.24-1.01-.12-2.04,0-3.06,0q-7.67,.03-7.46-7.48c-.53,.47-.95,1.01-1.26,1.58,.31-.57,.72-1.1,1.26-1.58,0-1,.01-2.01,.02-3.01,.69-.22,1.02-.69,1.03-1.41l-.29-.05,.29,.03s0,0,0,0c2.58-2.6,4.87-5.36,8.73-6.49,7.43-2.16,14.7-1.66,21.98,.35,5.22,1.44,9.01,6.17,9.09,11.56,.17,11.41,.18,22.83,.18,34.25,0,2.65,.4,5.1,2.09,7.21,.28,0,.56,.02,.84,.02-.28,0-.56-.02-.83-.02Zm5.52-52.5c.33-1.17,.9-1.94,1.68-2.42-.78,.48-1.35,1.25-1.68,2.42Zm43.9,50.49c0,1.95-.6,2.79-2.66,2.72-3.34-.12-6.7-.21-10.03,.04-2.96,.22-3.76-.96-3.73-3.74,.12-10.8,.08-21.6,.07-32.41,0-1.41-.02-2.84-.25-4.22-.43-2.54-2-3.65-4.62-3.61-2.46,.04-3.91,1.09-4.24,3.51-.21,1.52-.39,3.06-.39,4.59-.02,10.29,.02,20.58,0,30.86,0,1.66-.3,3.31-.45,4.96-4.1,0-8.21-.15-12.29,.08-2.91,.17-3.7-.85-3.68-3.7,.13-15.88,.08-31.76,.09-47.64,0-.64-.07-1.27-.11-1.91,4.89-1.58,9.9-.39,14.85-.66,.35-.02,.99,.12,1.04,.29,1.34,5.37,3.65,1.11,5.07,.31,9.9-5.63,20.9,.11,21.21,11.56,.35,12.98,.07,25.98,.13,38.96Zm36.45-30.23c-1.38-.54-3.52,.7-4.1-1.74,0-1.92,.25-3.87-.03-5.75-.36-2.4-1.77-3.93-4.5-3.64-2.41,.25-3.75,1.48-3.75,3.97,.01,8.85,.08,17.7,.01,26.55-.01,1.75,1.14,2.78,1.8,4.12,.2,0,.36,.06,.51,.19,1.49-.04,2.98-.08,4.48-.12v-.02c1.99-3.06,1.98-6.35,1.09-9.73,4.63-.03,9.26,0,13.88-.13,2.2-.06,2.62,.87,2.86,2.93,1.32,11.18-6.01,17.68-17.3,17.83-4.11,.05-8.19-.07-12.23-1.17-7.88-2.15-11.58-6.28-11.8-14.35-.23-8.35-.26-16.72-.03-25.08,.24-8.61,3.49-12.78,11.93-15.22,8.31-2.41,16.52-1.94,24.01,2.8,4.91,3.11,7.41,12.82,4.97,18.03-.12,.25-.69,.3-1.05,.44-.89,.29-1.79,.49-2.69,.62,.9-.13,1.79-.33,2.69-.62-3.59,.02-7.17,.05-10.76,.07Zm-6.97,20.67h0c-.12-4.31,.06-6.66,.74-7.93-.68,1.27-.86,3.62-.74,7.93Zm.09-23.92c.18,.35,.67,.59,1.43,.75,0,.5,.02,1,.03,1.5-.01-.5-.02-1-.03-1.5-.76-.16-1.25-.41-1.43-.75Zm27.39-35.57c.33-.46,1.04-.64,1.57-.94l.11-.11c2.15-3.55,5.4-2.67,8.43-1.87,2.93,.78,5.8,5.11,5.4,8.13-.46,3.46-2.11,6.37-5.61,7.65-3.46,1.26-7.73-.04-9.72-2.75-2.11-2.88-2.23-7.26-.18-10.1Zm15.52,65.29c-.05,1.83-.09,3.66-.14,5.48-.21,.3-.43,.6-.64,.9-5.06,.04-10.11,.08-15.17,.12-1.27-1.57-.79-3.43-.8-5.18-.07-11.14-.08-22.28-.11-33.42,0-.75,0-1.51,0-2.26,.12-4.31,.24-8.62,.37-12.93,0,0-.06-.06-.12-.12s-.12-.12-.12-.12c-.05-.23-.08-.44-.07-.64,0,.2,.02,.41,.07,.64l.12,.12c.06,.06,.12,.12,.12,.12,3.97-.05,7.96,.11,11.91-.22,3.34-.28,4.15,1.14,4.13,4.15-.09,12.94-.05,25.88-.02,38.82,0,1.51-.31,3.09,.49,4.52h0Zm43.31,4.33c-5.26,3.54-11.17,3.55-17.05,3.28-10.76-.49-16.31-3.91-18.54-14.18,.17-1.35,.29-2.69-.27-3.98h0c-.01-.72-.02-1.44-.03-2.16,0-3.63,0-7.27,0-10.9h0c.25-3.84,.37-7.7,.78-11.53,.68-6.48,4.46-10.69,10.71-12.54,5.44-1.61,11.02-1.71,16.42-.57,8.42,1.77,13.13,5.17,13.04,15.17-.03,4.24-.15,8.5,.06,12.73,.15,3.02-1.14,3.71-3.88,3.59-4.24-.18-8.49-.04-12.74-.02-7.73,.03-7.67,.03-7.66,7.79,0,3.12,.48,5.77,4.26,6.02,3.24,.21,4.89-1.68,5.14-5.68,.1-1.63,.07-3.12,2.38-3.07,3.6,.08,7.2,.05,10.81,0,1.63-.02,2.27,.95,2.58,2.32,.91,4.05-2.43,11.32-6,13.72Zm13.79,4.17c.26,.04,.6-.06,1.1-.38h0c-.49,.32-.84,.42-1.1,.38Zm30.66-51.41q-.12,7.03-6.72,8.33c-3.35,.67-6.53,1.58-7.16,5.69-.87,9.23-.41,18.48-.29,27.73,0,1.03,.01,2.07,.01,3.1-.02,1.02-.03,2.05-.05,3.07-.69,1.74-2.22,1.4-3.58,1.41-3.94,.04-7.87,.06-11.81,.08l-.22-.14-.25,.06c-.61,.04-1.22,.08-1.83,.12,.61-.04,1.22-.08,1.83-.12-.24-.27-.48-.53-.72-.8-.05-8.68-.09-17.36-.14-26.04-.58-.02-1.17-.05-1.75-.07-.04,.94-.06,1.88-.06,2.82,0-.94,.03-1.88,.06-2.82,.03-.19,.03-.38,.02-.58,.01,.19,.01,.38-.02,.58,.58,.02,1.17,.05,1.75,.07,.66-1.93,.59-3.85-.03-5.77,0,0,0,0,0,0,.05-6.77,.1-13.55,.15-20.32-.07-.03-.14-.08-.2-.13,.07,.04,.13,.09,.2,.13,4.84-1.88,9.86-.8,14.77-.69,2.84,.07,.94,3.54,2.54,5.12,2.52-3.45,5.99-5.36,10.13-6.14,2.18-.41,3.55,.06,3.39,2.62-.05,.89-.03,1.79-.04,2.69Zm44.86,38.49c-.55,5.11-3.48,8.58-7.69,10.23-9.2,3.61-18.55,3.7-27.36-1.6-1.59-.95-3.31-2.09-3.27-4.39l-.04-.04c-2.03-1.1-2.05-3.07-2.06-4.98-.08-9.13-.2-18.25-.17-27.38,.04-8.91,3.28-12.86,12.06-15.23,6.52-1.76,13.01-1.61,19.32,.66,6,2.16,9.39,6.6,9.54,13.09,.23,9.88,.72,19.76-.34,29.64Zm50.65,44.94c-2.06,0-4.12,.02-6.18,.02,2.06,0,4.12-.01,6.18-.02,.01-.25,.02-.49,.02-.74,0,.25,0,.49-.02,.74Zm1.57-1.49c0,.34-.1,.6-.23,.83,.13-.23,.22-.49,.23-.83,.69-.7,.88-1.5,.89-2.32-.02,.82-.2,1.61-.89,2.32Z"/><polygon class="cls-1" points="170.62 205.89 170.62 205.9 170.61 205.9 170.62 205.89"/><path class="cls-1" d="M208.59,182.67s0,0,0,0c0,0,0,0-.01-.01v.02Z"/><path class="cls-1" d="M391.69,218.14s0,0,0-.01c0,0,0,0-.01,0h.02Z"/><path class="cls-1" d="M767.24,196.48c2.64-.31,6.14,1.26,5.9-3.91-.27-5.68-1.21-7.71-4.74-7.66-3.31,.05-4.53,1.78-4.59,6.78,.22,2.04-1.03,5.31,3.44,4.78Z"/><path class="cls-1" d="M194.38,206.97c.32-3.37-1.09-3.67-3.77-2.36-5.31,2.59-6.43,4.47-6.11,10.99,.12,2.51,.35,5,3.78,5.12,3.23,.11,5.52-.99,5.84-4.57,.17-1.9,.25-3.82,.37-5.72-.04,0-.08,0-.12,0,0-1.15-.09-2.31,.02-3.45Z"/><path class="cls-1" d="M321.81,201.69c.13-2.93,.02-5.86-.01-8.8-.07-5.94-1.01-6.93-6.74-7.07-.16,.12-.34,.16-.54,.13-2.08,2.31-2.71,5.01-2.63,8.11,.17,6.38,0,12.78,.12,19.16,.11,5.8,1.85,7.18,7.64,6.42,.39-.29,.78-.58,1.16-.86,1.9-5.6,.75-11.39,1-17.09Z"/><path class="cls-1" d="M589.94,215.3c.42,2.45,.08,4.99,3.52,5.29,3.38,.29,5.53-1.38,5.79-5.08,.27-3.94,.14-7.91,.18-11.86-.49-.05-.98-.1-1.47-.15-4.72,2.53-9.17,5.14-8.01,11.81Z"/><path class="cls-1" d="M422.93,185.59c-3.49,.28-4.49,2.67-4.6,5.56-.15,3.98-.04,7.97-.04,11.95h.02c0,3.73-.07,7.46,.02,11.18,.07,2.88,.73,5.28,4.42,5.54,3.7,.27,5.09-2.21,5.19-4.88,.31-8.08,.29-16.19-.01-24.28-.1-2.63-1.25-5.39-4.99-5.08Zm2.61,27.36c.01-3.58,0-7.16,0-10.75,0-3.45,.01-6.91,0-10.36,0,3.45,0,6.91,0,10.36,0,3.58,0,7.16-.01,10.75Z"/><path class="cls-1" d="M852.02,185.96c-3.32,.21-4.15,2.48-4.14,5.34,0,3.84,0,7.69,0,11.53h.05c0,4.36-.04,8.71,.01,13.07,.03,2.36,1.63,3.44,3.69,3.68,1.92,.22,3.56-.56,4.24-2.54,.33-.96,.56-2,.57-3,.04-7.69,.08-15.37-.03-23.06-.04-2.74-.87-5.23-4.4-5.01Z"/></svg>