<?xml version="1.0" encoding="UTF-8"?><svg id="Capa_1" xmlns="http://www.w3.org/2000/svg" viewBox="0 0 909 400"><defs><style>.cls-1{fill:#fff;}</style></defs><g id="ubPe5W.tif"><g><path class="cls-1" d="M248.26,263.75c.01-.74,.04-1.49,.04-2.23,0-40.99,0-81.99,0-122.98,0-.73,0-1.46,0-2.28h126.43c.04,.58,.11,1.18,.11,1.77,0,41.39,0,82.79,0,124.18,0,.51-.06,1.02-.09,1.54h-126.5Zm21.89-105.36v2.1c0,26.35,.02,52.7-.04,79.05,0,1.68,.34,2.22,2.15,2.22,26.34-.06,52.69-.04,79.03-.05,.67,0,1.33-.07,2.04-.11v-83.21h-83.18Z"/><path class="cls-1" d="M660.74,249.34c-7.22,0-14.44-.03-21.65,.03-1.26,.01-1.9-.42-2.53-1.48-12.48-21.23-25.01-42.44-37.53-63.66-.28-.48-.58-.95-1.07-1.75v66.72h-19.21v-99.51c.58-.03,1.2-.08,1.81-.08,6.47,0,12.95,.04,19.42-.04,1.34-.02,2.03,.43,2.67,1.57,12.24,21.64,24.52,43.25,36.79,64.87,.29,.51,.59,1.02,1.28,1.41v-67.92h20.01v99.84Z"/><path class="cls-1" d="M564.71,149.74v16.02h-40.34c-1.11,5.94-2.17,11.64-3.25,17.39,2.8-.76,5.42-1.63,8.11-2.19,25.9-5.36,41.67,17.08,39.54,36.79-2.17,20.02-19.6,30.85-32.93,32.28-14.87,1.6-25.62-5.44-34.17-16.71-3.3-4.35-5.31-9.31-5.79-14.82-.07-.78-.09-1.57-.14-2.6,1.25,0,2.38,0,3.5,0,4.52,0,9.05,.09,13.57-.05,1.6-.05,2.13,.51,2.5,1.96,2.11,8.22,8.92,13.64,16.98,13.64,8.39,0,15.42-5.91,17.05-14.36,1.55-8.07-3.04-16.03-11.25-19.18-6.65-2.55-12.71-1.58-17.85,3.57-.8,.81-1.5,.94-2.57,.64-5.34-1.48-10.7-2.88-16.26-4.36,.43-2.72,.82-5.35,1.25-7.98,2.14-12.9,4.31-25.8,6.43-38.7,.15-.93,.36-1.41,1.44-1.41,17.75,0,35.51-.06,53.26-.09,.27,0,.55,.08,.91,.13Z"/><path class="cls-1" d="M487.37,216.21c-1.21,2.96-2.01,5.59-3.29,7.96-9.21,16.97-23.39,26.59-42.88,25.97-18.23-.58-31.63-10.05-40.09-26.14-11.12-21.16-5.36-49.76,12.93-65.16,17.18-14.46,42.58-13.65,59.5,1.88,5.78,5.31,10.41,11.38,12.71,19,.18,.6,.31,1.21,.5,1.95-.58,.04-1.07,.1-1.56,.1-5.96,0-11.92-.03-17.87,.03-1.12,.01-1.72-.32-2.28-1.31-3.63-6.33-8.6-11.24-15.84-13.07-10.26-2.59-18.96,.63-25.85,8.35-11.09,12.42-11.23,33.77-.57,46.59,11.65,14.01,33.37,11.96,42.05-4.04,.89-1.64,1.83-2.21,3.69-2.16,5.44,.14,10.88,.05,16.32,.05h2.53Z"/></g></g></svg>