<?xml version="1.0" encoding="UTF-8"?><svg id="Capa_1" xmlns="http://www.w3.org/2000/svg" viewBox="0 0 1229 400"><defs><style>.cls-1{fill:#fff;}</style></defs><g id="UX9QLD.tif"><g><path class="cls-1" d="M245.42,131.06c-1.5-1.05-3-2.1-4.51-3.15-.26,.28-.53,.56-.79,.85,5.29,4.03,2.47,14.34,13.05,15.54-1.22-3.05-2.11-5.28-3-7.52,2.77,4.39,5.22,8.69,11.94,7.49,4.23-.75,6.98-3.28,5.16-7.16-3.84-8.18-12.62-10.03-18.64-15.45-.25,.31-.51,.63-.76,.94,.8,.95,1.6,1.9,2.04,2.42-1.69,2.27-3.1,4.15-4.5,6.04Zm-124.91,40.84c-3.89,10.3-1.99,14.82,7.5,18.13,3.79-5.41,7.56-10.79,11.32-16.16-2.69,4.7-5.43,9.38-8.05,14.12-1.05,1.9-2.27,3.93,.52,5.62,3.99,2.41,7.85,5.06,11.95,7.27,.79,.43,3.08-.31,3.54-1.15,2.92-5.25,5.53-10.67,8.41-16.37-3.49-2.2-6.71-4.35-10.05-6.28-2.05-1.19-4.3-2.04-6.48-3.02-3.22-3.36-6.38-6.81-9.78-9.98-.39-.37-2.4,.5-3.27,1.24-1.81,1.56-3.36,3.42-5.01,5.16,1.13-1.65,2.09-3.45,3.42-4.93,2.43-2.73,1.97-4.92-.23-7.66-2.26-2.81-3.84-6.16-5.6-9.07v24.68c.9-.8,1.35-1.2,1.8-1.59Zm60.2-39.17c1.86-1.51,3.72-3.03,5.65-4.6-2.9-4.19-6.16-5.58-10.63-2.63-1.25,.82-2.89,1.05-4.35,1.55,1.83-1.15,3.69-2.27,5.49-3.47,.84-.56,2.33-1.68,2.22-1.88-1.32-2.59-2.87-5.07-4.27-7.42,1.23-.87,3.25-2.3,5.28-3.74-2.23-.32-4.05,.03-5.75,.68-6.94,2.65-13.97,5.12-20.72,8.21-4.85,2.22-6.85,6.17-5.47,8.77,.77,1.45,1.56,2.9,2.31,4.37,1.65,3.23,3.63,4.33,6.97,1.78,2.05-1.56,4.6-2.46,6.89-3.63-3.01,2.28-6.01,4.57-9.49,7.2,3.67,2.59,5.32,7.2,10.52,6.16,.43,2.81,8.6,9.2,11.25,8.69,.7-.13,1.38-.68,1.92-1.2,5.92-5.7,11.81-11.42,17.95-17.38-4.32-3.45-7.78-6.69-12.71-2.52-.77,.65-2.03,.71-3.06,1.05Zm-45,20.8c-1.64,1.96-4.14,3.67-1.85,6.73,3.92,5.25,8.15,7.09,12.03,5.23-1.93,1.89-1.69,3.41,.63,4.83,4.1,2.5,8.14,5.11,12.37,7.78,4.51-6.51,8.8-12.72,13.38-19.34-4.56-2.69-8.47-6.32-12.86-7.04-2.27-.37-5.39,4.41-8.12,6.87-.23,.2-.4,.47-.6,.7,.45-.97,.77-2.02,1.38-2.88,1.71-2.43,5.38-5.31,4.88-7.03-.76-2.61-4.37-4.41-6.79-6.52-.33-.28-.81-.39-1.27-.6-2.5,1.84-4.98,3.65-7.45,5.47,2.03-2.39,4.06-4.79,5.67-6.69-2.37-4.62-4.52-8.84-7.09-13.85-5.2,4.52-10.8,9.24-16.17,14.2-.71,.66-.67,2.67-.29,3.84,.71,2.18,1.8,4.27,2.93,6.28,3.07,5.43,4.08,5.61,9.22,2Zm-13.5,53.45c.25-1.51,.26-3.11,.79-4.51,2.73-7.21,2.77-7.19-4.45-11.35v22.61c1.54-2.81,2.67-4.86,3.8-6.91-.39,1.82-1.05,3.63-1.08,5.45-.02,1.5,.24,3.67,1.22,4.39,4.47,3.25,9.25,6.09,14.38,9.38,2.23-6.11,4.26-11.47,6.07-16.9,.24-.73-.37-2.27-1.05-2.71-4.8-3.1-9.72-6.01-14.97-9.2-1.67,3.47-3.19,6.6-4.71,9.75Zm135.42,53.24c-.11,1.33-.23,2.66-.37,4.34,2.17,.32,4.01,.88,5.8,.78,3.67-.2,7.41-1.47,10.98-1.04,13.28,1.57,20.73-12.22,21.59-22.41-1.83,1.09-3.38,2.61-5.17,2.98-7.57,1.58-15.2,2.98-23.01,1.76-2.67-.41-4.13,.46-4.99,3.43-.97,3.34-3.05,6.37-4.65,9.53,1.37-4.19,2.74-8.39,4.27-13.09-6.15-.99-11.64-1.94-17.15-2.69-.86-.12-2.42,.46-2.67,1.1-2.14,5.4-4.04,10.88-6.2,16.83,4.72,.87,8.84,1.55,12.92,2.4,3.9,.81,6.98,.07,8.64-3.93Zm5.41-94.87c1.3,4.86,2.5,9.75,3.97,14.55,.39,1.28,1.76,3.38,2.45,3.29,6.38-.82,13.87,3.31,18.89-3.94,.07-.1,.42,0,.64,0,3.54,.07,4.1-.36,3.79-3.26-1.27-12.1-7.6-21.64-15.81-31.42,.37,4.77,1.72,9.21-4,10.11-3.86,.61-7.75,.95-11.79,1.43,.64,3.08,1.3,6.23,1.94,9.35-.8-1.65-1.69-3.26-2.37-4.96-2.46-6.14-3.44-6.74-10.3-6.04,.47,8.02,.87,16.05,1.49,24.06,.07,.87,1.28,2.2,2.13,2.36,3.72,.7,7.5,1.05,11.82,1.59-.4-2.54-.64-4.2-.92-5.86-.64-3.76-1.29-7.52-1.93-11.28Zm724.63,39.47c6.52-.87,6.49-.85,9.7,4.2,5.75,9.04,11.49,18.08,17.37,27.03,.85,1.29,2.44,2.87,3.77,2.94,5.89,.32,11.81,.14,17.71,.14,.32-.46,.64-.91,.95-1.37-1.21-1.33-2.27-2.85-3.66-3.95-1.3-1.02-3.46-1.22-4.38-2.44-6.95-9.23-13.69-18.61-20.8-28.36,1.82-.71,2.94-1.17,4.08-1.59,9.2-3.37,14.34-11.37,14.08-21.94-.23-9.3-5.22-15.96-14.69-18.63-14.41-4.06-29.19-1.26-43.79-1.78-.82-.03-1.69,1.66-2.54,2.55,.94,.77,1.77,2.01,2.82,2.23,6.01,1.25,6.62,1.79,6.63,8.02,.04,18.28-.04,36.56,.05,54.84,.02,4.14-.97,6.97-5.72,7.39-2.41,.21-4.78,1.08-3.3,5.04,9.28,0,18.78,.04,28.28-.07,.79,0,2.28-1.14,2.22-1.56-.16-1.02-.84-2.21-1.69-2.79-.97-.67-2.55-.47-3.5-1.15-1.36-.97-3.38-2.36-3.43-3.64-.31-8.38-.16-16.78-.16-25.11Zm-420.57-41.13c8.47,.95,9.25,1.81,9.26,9.87,0,17.5-.09,35,.06,52.5,.04,4.58-1.09,7.37-6.22,7.98-3.81,.45-3.77,.93-2.97,4.85h24.75c1.04-2.93-.08-4.13-2.7-4.85-6.87-1.89-7.2-2.26-7.31-9.56-.19-11.72-.21-23.43-.28-35.15-.03-5.53,0-11.06,0-16.59,1.65,.58,2.34,1.32,2.86,2.16,12.55,20.18,25.19,40.32,37.54,60.63,2.23,3.67,5.04,5.52,8.63,3.95,1.4-.61,1.99-4.35,2.01-6.67,.15-20.47,.15-40.94,.04-61.41-.02-4.26,1.29-6.8,5.83-7.46,1.37-.2,2.55-1.77,3.81-2.71-1.45-.78-2.88-2.18-4.37-2.25-5.77-.26-11.57-.27-17.33,.02-1.39,.07-2.71,1.63-4.06,2.51,1.23,.83,2.38,2.2,3.7,2.38,4.42,.61,6.58,2.57,6.54,7.33-.1,11.09,.17,22.18,.27,33.27,.04,3.91,0,7.82,0,12.63-1.32-1.6-2.19-2.45-2.82-3.46-10.6-17.01-21.07-34.09-31.86-50.98-1.18-1.84-4.02-3.41-6.23-3.64-5.26-.53-10.61-.09-15.92-.19-3.49-.06-4.49,1.39-3.22,4.82Zm167.09,8.75c.29-.17,.58-.34,.87-.51,1.16,1.79,2.34,3.56,3.46,5.37,12.4,19.9,24.86,39.75,37.1,59.74,1.93,3.14,4.61,3.43,7.15,2.54,1.23-.43,2.28-3.26,2.29-5.02,.16-20.62,.09-41.24,.11-61.85,0-7.02,.4-7.35,7.41-8.84,1.01-.22,1.79-1.55,2.68-2.37-.88-.85-1.73-2.42-2.64-2.45-6.87-.21-13.74-.21-20.61,0-.97,.03-1.89,1.53-2.83,2.36,.88,.85,1.64,2.22,2.65,2.45,7,1.61,7.65,2.22,7.72,9.24,.12,13.12,.19,26.23,.25,39.35,0,1.29-.19,2.59-.36,4.66-1.17-1.53-1.87-2.31-2.42-3.19-10.69-17.11-21.31-34.25-32.12-51.29-1.02-1.61-3.1-3.43-4.81-3.56-5.9-.44-11.86-.32-17.79-.05-1.2,.05-2.33,1.68-3.5,2.59,1.08,.79,2.11,2.17,3.25,2.26,4.91,.4,6.62,2.82,6.57,7.68-.18,18.43-.17,36.86,0,55.29,.04,4.36-1.22,6.77-5.86,7.16-2.53,.21-5.04,1.12-3.53,4.81h25.52c.29-.47,.58-.95,.87-1.42-1.35-1.11-2.62-3.06-4.06-3.19-5.82-.54-6.99-4.05-6.96-9.01,.04-6.23-.35-12.47-.39-18.7-.07-11.35-.02-22.71-.02-34.06Zm297.18,26.36c-.06,23.43,17.12,41.62,39.4,41.69,22.32,.07,40.25-17.78,40.13-41.1-.13-23.82-16.84-41.54-39.95-41.47-22.48,.07-39.51,17.68-39.57,40.88Zm-72.21-21.14c0-4.92-.05-9.57,.02-14.21,.05-3.43-1.59-4.66-4.92-4.6-7.03,.13-14.07,.04-21.1,.04-9.53,0-19.07-.08-28.6,.11-1.34,.03-2.66,1.43-3.98,2.2,1.12,.94,2.17,2.55,3.39,2.7,4.37,.53,5.66,2.85,5.63,7-.13,18.75-.11,37.51,0,56.27,.02,3.78-.74,6.25-5.08,6.91-1.47,.22-2.65,2.27-3.97,3.49,1.44,.53,2.88,1.52,4.32,1.53,17.04,.11,34.07,.08,51.11,.05,1.21,0,2.41-.2,3.67-.32,.46-6.13,.9-11.96,1.33-17.63-5.98-2.06-5.72,2.59-6.48,5.27-1.05,3.72-2.89,6.53-6.78,6.67-8.38,.28-16.78,.09-25.37,.09v-31.67c3.52,0,6.76-.02,10,0,8.11,.05,8.98,.8,10.33,8.77,.12,.74,.35,1.46,.58,2.4,1.54-.08,2.89-.15,4.65-.25,0-7.76,.07-15.24-.05-22.72-.03-1.9,1.16-4.72-2.48-4.96-3.37-.23-2.5,2.48-2.92,4.23-.7,2.92-1.16,6.35-4.82,6.65-5.04,.41-10.15,.1-15.15,.1v-31.3c5.24,0,10.07-.03,14.89,0q13.58,.1,17.24,13.17h4.54Zm-615.36,56.37v-32.44c4.28,0,8.16-.09,12.04,.02,5.31,.15,6.86,1.52,7.4,6.85,.35,3.47,1.53,5.24,5.34,3.88v-27.21c-4.09-1.13-4.63,1.14-5.44,4.07-.66,2.39-2.38,5.99-4.11,6.29-4.93,.85-10.11,.3-15.15,.3v-31.85c7.01,.33,13.56,.42,20.06,.99,8.5,.74,8.89,1.2,10.58,9.38,.62,3.02,1.95,4.47,5.46,3.13,0-4.56-.24-9.23,.08-13.85,.27-3.88-1.36-4.76-4.87-4.74-16.08,.12-32.17,.05-48.26,.06-.78,0-1.73-.24-2.31,.11-1.05,.63-1.88,1.62-2.8,2.47,.9,.83,1.76,2.29,2.72,2.37,5,.39,6.56,3.14,6.53,7.82-.11,18.27-.11,36.54,0,54.81,.03,4.16-1.01,6.95-5.65,7.51-2.55,.31-4.55,1.46-3.01,5.14,18.72,0,37.59,.03,56.45-.1,.76,0,2.08-1.4,2.18-2.25,.51-4.33,.83-8.7,.88-13.06,.01-1-1.16-2.61-2.07-2.85-.77-.21-2.31,.94-2.89,1.87-.8,1.28-.68,3.17-1.55,4.35-1.55,2.11-3.39,5.32-5.39,5.54-8.6,.97-17.31,1.02-26.22,1.41Zm372.68,4.91c-.95-1.88-1.44-4.17-2.28-4.31-7.12-1.19-7.84-7.22-9.76-12.33-7.99-21.21-15.93-42.44-23.85-63.57-7.14-.81-7.23-.84-9.45,5.51-6.22,17.75-12.13,35.62-18.63,53.27-2.62,7.11-2.77,16.74-13.91,17.34-.5,.03-1.35,1.76-1.22,2.57,.1,.67,1.39,1.64,2.17,1.65,7.19,.13,14.38,.13,21.56,.01,.84-.01,2.42-1.07,2.36-1.46-.15-1.03-.79-2.25-1.63-2.84-.96-.68-2.33-.88-3.55-1.06-3.29-.5-4.11-2.24-3.12-5.32,1.39-4.29,2.37-8.73,4.01-12.91,.51-1.29,2.57-2.68,4-2.77,5.45-.32,10.96,.25,16.39-.24,5-.45,7.77,.96,8.85,6.08,.66,3.15,2.27,6.1,3.44,9.15,1.27,3.32,1.05,5.77-3.29,6.31-2.6,.33-4.43,1.58-2.98,4.92h30.9Zm-192.53-61.4c0-5.42,.15-10.83-.15-16.23-.05-.85-2.08-2.28-3.21-2.29-17.03-.15-34.06-.15-51.09,0-1.1,0-2.19,1.45-3.28,2.23,.93,.92,1.81,2.54,2.81,2.62,4.62,.38,5.96,2.8,5.92,7.16-.15,18.75-.14,37.5,0,56.25,.03,3.89-.93,6.19-5.18,6.67-2.7,.3-4.81,1.59-2.77,5.21,8.9,0,17.94,.05,26.98-.08,.92-.01,1.83-1.11,2.75-1.7-.63-.95-1.16-1.98-1.92-2.81-.36-.4-1.14-.53-1.75-.57-4.68-.37-5.86-3.31-5.73-7.45,.13-4.06,.03-8.12,.03-12.19q0-10.62,10.73-10.19c8.05,.32,7.95,.35,9.97,7.89,.34,1.27,1.86,2.22,2.83,3.32,.83-1.21,2.34-2.4,2.39-3.64,.24-6.87,.04-13.75,.15-20.62,.06-3.65-1.66-4.3-4.69-3.34q-3.06,10.65-14.68,10.81c-2.01,.03-4.02,0-6.3,0v-34.08c6.16,0,11.92-.06,17.68,.03,2.33,.04,4.93-.16,6.92,.78,2.13,1,3.93,3.03,5.41,4.96,.87,1.13,.99,2.93,1.2,4.47,.44,3.16,2.15,3.83,4.98,2.81Zm333.91,5.64c0-2.33,.13-4.5-.02-6.65-.96-13.51-.85-14.02-14.01-17.24-10.59-2.59-21.29-2.21-31.29,3.37-23.17,12.91-24.67,48.36-9.23,65.4,13.85,15.29,35.4,15.05,51.98,6.63,.97-.49,2.07-1.79,2.17-2.8,.46-4.97,.68-9.97,.77-14.96,.01-.77-1.06-2.18-1.66-2.2-.99-.03-2.34,.59-2.95,1.38-.71,.92-.75,2.35-1.15,3.53-1.95,5.72-4.62,10.88-10.41,13.7-12.04,5.86-26.67-.9-31.6-14.48-4.83-13.29-4.81-26.49,.05-39.74,4.37-11.91,15.59-18.21,27.84-15.24,8.55,2.07,11.97,8.89,13.99,16.53,.79,2.99,2.09,3.94,5.51,2.78Zm-412.2,55.99c.4-6.58,.75-12.41,1.1-18.26q-4.82-.11-5.8,3.46c-1.88,6.83-3.68,8.73-8.97,8.94-6.39,.26-12.8,.17-19.18,.55-3.74,.22-4.79-1.13-4.76-4.79,.16-19.2,.17-38.4,0-57.6-.04-4.79,1.51-7.38,6.54-7.64,.96-.05,1.84-1.47,2.76-2.26-.87-.87-1.73-2.47-2.62-2.49-8.58-.2-17.17-.2-25.75-.02-.93,.02-1.82,1.58-2.73,2.43,.89,.82,1.78,2.34,2.68,2.35,5.27,.04,6.52,2.99,6.49,7.6-.1,18.42-.09,36.84-.01,55.26,.02,4.04-.72,6.95-5.56,7.48-1.31,.14-2.41,2.12-3.61,3.26,1.39,.58,2.77,1.64,4.17,1.65,14.21,.12,28.41,.08,42.62,.08,4.03,0,8.05,0,12.65,0Zm84.12,0c8.62,0,17.5,.07,26.37-.07,1.45-.02,2.88-1.01,4.31-1.55-1.18-1.16-2.26-3.15-3.57-3.32-4.73-.61-5.59-3.26-5.55-7.47,.17-18.44,.17-36.89,0-55.33-.04-4.49,1.12-7.19,6.05-7.56,1.07-.08,2.03-1.67,3.03-2.56-1.14-.8-2.27-2.25-3.43-2.28-8.12-.2-16.25-.19-24.38,.01-1.12,.03-2.2,1.52-3.3,2.33,1,.87,1.96,2.42,3.01,2.48,4.82,.29,6.43,2.83,6.41,7.36-.09,18.6-.07,37.2-.01,55.8,.01,3.96-1.11,6.61-5.57,7.07-2.43,.25-4.8,1.08-3.39,5.1Zm363.95-.25c1.5-3.25-.29-4.65-2.9-4.91-4.51-.45-5.42-2.98-5.38-7.02,.15-18.42,.15-36.84,0-55.27-.04-4.59,1.01-7.6,6.25-7.87,.88-.05,1.69-1.61,2.53-2.47-.91-.82-1.8-2.32-2.72-2.34-8.27-.18-16.55-.18-24.82,.01-.93,.02-1.83,1.58-2.74,2.43,.89,.82,1.74,2.3,2.69,2.37,5.05,.37,6.55,3.21,6.52,7.83-.09,18.11-.12,36.22,.02,54.33,.04,4.55-1.01,7.61-6.13,8.13-2.62,.27-3.89,1.78-2.61,4.78h29.27Zm-612.15,.23c5.94,3.81,9.68-2.05,14.15-3.13,3.73-.9,5.87-15.11,3.91-22.1-1.93,1.47-3.66,3.54-5.84,4.3-6.95,2.43-14.21,2.81-21.55,2.33-1.62-.11-3.32,.82-5.3,1.37-1.29-2.72-9-4.78-18.14-3.87-1.42,6.47-2.86,13.03-4.33,19.76,5.67,1.01,10.43,1.78,15.15,2.73,3.09,.63,4.67-.27,4.99-3.58,.37-3.8,1.09-7.57,1.66-11.36l1.04,.17c-.59,4.98-1.18,9.95-1.83,15.48,5.94-.69,11.63,2.28,16.08-2.11Zm-12.95-24.6c6.69-.37,13.24-.1,19.54-1.22,11.14-1.97,12.37-4.08,10.95-15.22-.63-4.92-1.5-9.81-2.26-14.71-.47-.2-.95-.41-1.42-.61-1.83,7.44-9.17,6.06-13.2,8.55-4.6-.39-8.99-.77-13.61-1.16v24.37Zm-76.9,8.15c.63-.94,1.4-1.79,1.82-2.79,1.07-2.59,2.04-5.22,2.93-7.87,2.89-8.5,2.98-8.8-5.3-12.1-15.06-6-10.37-8.05-17.45,7.34-3.24,7.05-2.81,7.33,4.35,10.27,4.3,1.77,8.7,3.29,13.65,5.13Zm10.74-18.35c-2.1,5.73-4.28,11.2-6.02,16.81-.32,1.02,.81,3.36,1.81,3.76,5.33,2.13,10.79,3.97,16.3,5.58,1.02,.3,3.31-.65,3.6-1.5,1.73-5.15,3.13-10.42,4.4-15.7,.21-.88-.48-2.74-1.16-2.97-6.13-2.1-12.34-3.93-18.93-5.97Zm-34.05,15.46c-2.03,5.42-4.11,10.42-5.67,15.58-.32,1.05,.98,3.42,2.11,3.94,5.32,2.49,10.81,4.65,16.34,6.65,.89,.32,3.02-.46,3.32-1.22,2.11-5.27,3.88-10.68,5.85-16.3-7.43-2.93-14.47-5.7-21.96-8.65Zm24.9,9.62c-2,5.56-4.03,10.6-5.51,15.79-.29,1.03,1.17,3.38,2.34,3.86,5.01,2.07,10.18,3.82,15.39,5.32,1.23,.35,3.78-.32,4.16-1.2,2.25-5.2,4.03-10.59,6.08-16.2-7.69-2.59-14.72-4.96-22.46-7.57Zm-11.75-40.12c6.22,2.45,11.52,4.63,16.91,6.57,1.12,.4,3.51,.27,3.72-.25,2.6-6.55,4.9-13.21,7.28-19.86-5.25-2.16-9.51-4.08-13.89-5.62-1.14-.4-3.48-.14-3.92,.61-3.44,5.86-6.54,11.91-10.1,18.55Zm43.72,15.89c1.47-7.27,2.84-13.46,3.88-19.71,.19-1.13-.69-3.25-1.6-3.6-4.17-1.65-8.5-2.94-12.83-4.1-.89-.24-2.78,.37-3.03,1.03-2.42,6.32-4.59,12.73-6.97,19.55,6.94,2.31,13.34,4.44,20.56,6.84Zm-67.43-20.51c-3.24,6.24-6.45,12.41-9.75,18.76,6.88,3.36,13.09,6.4,19.79,9.68,2.94-6.57,5.75-12.86,8.62-19.26-6.16-3.03-12.06-5.93-18.66-9.18Zm84.06,52.94c1.37-6.37,2.77-12.24,3.78-18.17,.17-1.01-1.04-3.06-1.98-3.34-4.75-1.38-9.6-2.46-14.47-3.32-1.14-.2-3.38,.61-3.64,1.42-1.85,5.72-3.32,11.56-5.05,17.89,7.03,1.82,13.74,3.55,21.36,5.52Zm-82.91-.77c2.15-5.63,4.15-10.5,5.78-15.48,.35-1.07-.26-3.29-1.11-3.76-5-2.77-10.16-5.3-15.4-7.6-.8-.35-2.99,.64-3.4,1.53-1.78,3.94-3.41,8-4.49,12.17-.38,1.45,.45,4.25,1.59,4.89,5.37,2.98,11.03,5.42,17.03,8.26Zm74.22,24.85c2.09-5.35,4.06-10.22,5.87-15.14,.81-2.19,.42-3.91-2.33-4.52-5.15-1.15-10.23-2.64-15.42-3.6-1.13-.21-3.3,.92-3.73,1.96-2.02,4.85-3.6,9.88-5.6,15.62,6.95,1.86,13.76,3.69,21.2,5.69Zm14.3-51.08c.7-7.59,1.36-14.07,1.82-20.57,.06-.85-.7-2.36-1.38-2.57-4.97-1.51-10.01-2.77-15.17-4.14-1.59,7.32-3.09,13.83-4.34,20.39-.16,.83,.8,2.57,1.54,2.76,5.52,1.47,11.12,2.66,17.53,4.13Zm-57.69-42.89c-4.75-2.31-8.56-4.44-12.6-5.97-1.27-.48-3.8,.09-4.62,1.09-3.51,4.33-6.73,8.91-9.72,13.63-.55,.87,.04,3.54,.9,4.05,3.98,2.36,8.18,4.36,12.42,6.23,.98,.43,3.15,.25,3.51-.37,3.46-6.02,6.65-12.19,10.1-18.66Zm-34.34,93.32c3.63,1.46,6.61,2.78,9.66,3.87,8.19,2.95,11.85,1.14,14.55-6.97,.59-1.77,1.29-3.49,2.14-5.8-7.18-2.86-14.29-5.68-21.69-8.63-1.6,6.03-3.07,11.56-4.66,17.52Zm-17.74-28.48c-1.15,5.89-2.22,10.72-2.94,15.61-.16,1.1,.58,2.96,1.48,3.47,4.43,2.52,8.98,4.85,13.66,6.86,.87,.37,3.3-.75,3.65-1.68,1.35-3.61,2.3-7.4,3.07-11.2,.26-1.31,0-3.66-.79-4.09-5.67-3.07-11.54-5.77-18.12-8.97Zm129.56-18.7c0-4.68,.16-8.68-.03-12.67-.54-11.19-.6-11.19-11.56-12.61-.31-.04-.74-.29-.89-.17-1.03,.8-2.73,1.58-2.86,2.54-.74,5.56-1.28,11.16-1.45,16.76-.04,1.27,1.42,3.45,2.56,3.74,4.32,1.08,8.79,1.55,14.25,2.41Zm-46.65-68.61q-9.78-4.94-15.18,2.94c-1.66,2.43-3.49,4.75-5.08,7.22-1.55,2.4-2.89,4.93-4.47,7.65,5.65,2.19,10.61,4.12,16.09,6.24,2.98-8.29,5.78-16.07,8.64-24.06Zm-5.79,25.02c4.93,1.72,9.24,3.45,13.71,4.6,.82,.21,3.07-1.78,3.24-2.96,.88-6,1.38-12.07,1.85-18.12,.31-4.09-5.23-8.36-9.25-7.15-.73,.22-1.49,1.14-1.77,1.9-2.56,6.97-5.02,13.98-7.78,21.73Zm-12.8-48.86c-.83,1.99-1.27,3.04-1.71,4.1,1.82,.56,4.02,2.06,5.4,1.5,4.78-1.91,9.29-4.53,13.89-6.89,0-.42,0-.83-.01-1.25-4.46-.48-8.93-.95-14.54-1.55,4.02-.76,6.96-1.32,9.99-1.89-.52-1.24-.87-2.08-1.39-3.31h5c-1.01-1.2-2.16-2.1-3.42-2.27-4.15-.56-8.34-1.09-12.52-1.17-3.07-.06-6.25,.28-9.2,1.1-1.71,.48-3.04,2.27-4.55,3.47,.93,.71,1.87,1.41,2.76,2.16,.11,.1-.07,.5-.03,.74,.17,.99,.09,2.18,.62,2.91,2.32,3.19,5.21,5.08,9.7,2.35Zm-23.73,32.95c4.7,2.42,8.07,4.34,11.61,5.88,1.17,.51,3.57,.63,4.04-.03,4.66-6.66,9.04-13.52,13.65-20.55-2.36-1.17-4.09-2.29-5.97-2.88-1.44-.45-3.72-.92-4.55-.18-6.19,5.54-12.12,11.39-18.77,17.76Zm71,25.85c-.39-7.3-.58-13.95-1.15-20.57-.61-7-3.31-8.93-11.14-8.37-.53,4.73-1.16,9.49-1.59,14.27-1.22,13.55-3.82,10.62,9.77,13.77,1.04,.24,2.09,.46,4.12,.9Zm-129.17,41.21c-.61,.03-1.23,.07-1.84,.1,0,5.99-.13,11.99,.11,17.98,.05,1.26,1.18,2.88,2.29,3.61,3.32,2.19,6.88,4.02,11.16,6.45,1.04-5.51,2.21-10.43,2.78-15.42,.17-1.48-.89-3.72-2.12-4.64-3.94-2.94-8.22-5.43-12.38-8.09Zm85.71,38.85c-6.8-2.32-13.65-4.66-21.15-7.22-1.45,4.03-2.87,7.96-4.56,12.64,7.4,0,13.92-.13,20.43,.05,3.78,.11,5.51-1.37,5.27-5.47Zm-87.77-13.33c.32,4.12,.46,7.35,.85,10.56,1.08,8.95,1.19,9,10.25,8.08,.44-.05,.87-.29,1.56-.54,.24-2.54,.74-5.16,.64-7.76-.05-1.34-.8-3.17-1.85-3.86-3.31-2.2-6.91-3.96-11.45-6.48Zm16.93,9.63l-1.76,.97c.79,2.67,1.18,7.41,2.43,7.64,4.79,.9,9.86,.37,14.83,.37,.04-.39,.08-.78,.11-1.17-5.2-2.61-10.41-5.21-15.61-7.82Zm81.03-122.19c3.51,.35,7.45,1.51,7.96,.65,2.06-3.51,3.08-7.63,4.48-11.53-.48-.27-.95-.53-1.43-.8-3.24,3.44-6.48,6.87-11.01,11.68Zm-7.54-6.55c-.08,.7-.17,1.39-.25,2.09,2.29,.45,5.19,2,6.74,1.13,3.38-1.9,6.07-5.02,9.04-7.64-.48-.68-.96-1.36-1.44-2.04-4.69,2.15-9.39,4.31-14.08,6.46Zm24.57-2.84c-.6-.04-1.2-.08-1.8-.12-1.44,4.04-2.88,8.09-4.51,12.67,2.43,.67,4.43,1.22,7.26,2-.35-5.3-.65-9.92-.96-14.55Zm10.99,16.34c-2.37-5.12-4.48-9.67-6.58-14.22-.39,.13-.77,.27-1.16,.4,.22,2.9,.77,5.82,.58,8.69-.3,4.5,1.8,5.79,7.16,5.13Zm-20.3,124.04c.02-.16,.04-.32,.05-.48-3.68-1.07-7.33-2.24-11.04-3.17-2.65-.67-4.77-.27-4.18,3.65h15.16Zm30.81,17.96c-5.46-2.46-6.43,1.07-7.83,3.92,.32,.44,.63,.87,.95,1.31,2.14-1.63,4.28-3.26,6.88-5.23Z"/><path class="cls-1" d="M987.67,204.82c0,8.32-.15,16.72,.16,25.11,.05,1.27,2.06,2.67,3.43,3.64,.96,.68,2.53,.49,3.5,1.15,.85,.58,1.53,1.78,1.69,2.79,.07,.42-1.42,1.55-2.22,1.56-9.5,.11-19,.07-28.28,.07-1.48-3.95,.89-4.82,3.3-5.04,4.75-.42,5.74-3.25,5.72-7.39-.09-18.28-.02-36.56-.05-54.84-.01-6.22-.62-6.77-6.63-8.02-1.05-.22-1.89-1.46-2.82-2.23,.85-.89,1.73-2.58,2.54-2.55,14.6,.53,29.39-2.28,43.79,1.78,9.47,2.67,14.46,9.33,14.69,18.63,.26,10.57-4.87,18.57-14.08,21.94-1.14,.42-2.26,.88-4.08,1.59,7.11,9.75,13.85,19.13,20.8,28.36,.92,1.21,3.07,1.41,4.38,2.44,1.39,1.1,2.45,2.61,3.66,3.95-.32,.46-.64,.91-.95,1.37-5.91,0-11.82,.18-17.71-.14-1.32-.07-2.92-1.65-3.77-2.94-5.88-8.95-11.62-17.99-17.37-27.03-3.21-5.05-3.18-5.07-9.7-4.2Zm.22-40.77v34.79c8.24-.11,17.05,2.03,22.55-5.84,4.84-6.93,4.55-15.2,.35-22.25-5.09-8.54-14.2-6.73-22.89-6.7Z"/><path class="cls-1" d="M567.1,163.69c-1.27-3.43-.27-4.88,3.22-4.82,5.31,.09,10.66-.34,15.92,.19,2.22,.22,5.06,1.79,6.23,3.64,10.79,16.89,21.26,33.97,31.86,50.98,.63,1.01,1.51,1.86,2.82,3.46,0-4.81,.03-8.72,0-12.63-.1-11.09-.37-22.18-.27-33.27,.04-4.76-2.12-6.72-6.54-7.33-1.32-.18-2.47-1.55-3.7-2.38,1.35-.88,2.67-2.44,4.06-2.51,5.77-.29,11.56-.28,17.33-.02,1.49,.07,2.91,1.46,4.37,2.25-1.27,.94-2.44,2.51-3.81,2.71-4.54,.66-5.85,3.2-5.83,7.46,.11,20.47,.11,40.94-.04,61.41-.02,2.32-.61,6.06-2.01,6.67-3.59,1.57-6.4-.28-8.63-3.95-12.35-20.31-24.98-40.44-37.54-60.63-.52-.84-1.21-1.58-2.86-2.16,0,5.53-.03,11.06,0,16.59,.07,11.72,.09,23.44,.28,35.15,.12,7.3,.44,7.67,7.31,9.56,2.62,.72,3.73,1.92,2.7,4.85h-24.75c-.8-3.93-.84-4.4,2.97-4.85,5.13-.61,6.26-3.4,6.22-7.98-.15-17.5-.06-35-.06-52.5,0-8.06-.79-8.92-9.26-9.87Z"/><path class="cls-1" d="M734.19,172.44c0,11.35-.05,22.71,.02,34.06,.04,6.23,.43,12.47,.39,18.7-.03,4.96,1.14,8.47,6.96,9.01,1.44,.13,2.71,2.08,4.06,3.19-.29,.47-.58,.95-.87,1.42h-25.52c-1.51-3.69,.99-4.6,3.53-4.81,4.63-.38,5.9-2.8,5.86-7.16-.16-18.43-.18-36.86,0-55.29,.05-4.85-1.66-7.28-6.57-7.68-1.14-.09-2.17-1.47-3.25-2.26,1.16-.9,2.3-2.53,3.5-2.59,5.92-.27,11.89-.39,17.79,.05,1.71,.13,3.79,1.95,4.81,3.56,10.81,17.03,21.43,34.18,32.12,51.29,.55,.88,1.26,1.66,2.42,3.19,.17-2.08,.37-3.37,.36-4.66-.06-13.12-.12-26.23-.25-39.35-.07-7.02-.72-7.63-7.72-9.24-1.02-.24-1.78-1.61-2.65-2.45,.94-.82,1.86-2.33,2.83-2.36,6.87-.21,13.74-.2,20.61,0,.9,.03,1.76,1.59,2.64,2.45-.89,.82-1.66,2.16-2.68,2.37-7.01,1.49-7.4,1.82-7.41,8.84-.02,20.62,.05,41.24-.11,61.85-.01,1.75-1.06,4.59-2.29,5.02-2.54,.88-5.23,.6-7.15-2.54-12.24-19.99-24.7-39.85-37.1-59.74-1.13-1.81-2.31-3.58-3.46-5.37-.29,.17-.58,.34-.87,.51Z"/><path class="cls-1" d="M1031.37,198.8c.06-23.2,17.09-40.81,39.57-40.88,23.11-.07,39.82,17.65,39.95,41.47,.13,23.32-17.81,41.18-40.13,41.1-22.28-.07-39.46-18.26-39.4-41.69Zm65.67,1.26c.01-9.05-1.39-16.81-5.29-23.95-4.42-8.09-11.08-13.14-20.51-13.16-9.11-.01-16.06,4.4-20.39,12.41-7.98,14.74-8.06,30.15-1.4,45.05,7.76,17.34,27.59,20.24,39.16,6.28,6.57-7.93,8.33-17.58,8.44-26.64Z"/><path class="cls-1" d="M959.16,177.66h-4.54q-3.66-13.06-17.24-13.17c-4.83-.04-9.65,0-14.89,0v31.3c5,0,10.11,.31,15.15-.1,3.66-.3,4.12-3.73,4.82-6.65,.42-1.75-.45-4.46,2.92-4.23,3.65,.24,2.45,3.06,2.48,4.96,.12,7.48,.05,14.96,.05,22.72-1.76,.09-3.11,.16-4.65,.25-.23-.95-.45-1.67-.58-2.4-1.35-7.97-2.22-8.73-10.33-8.77-3.24-.02-6.49,0-10,0v31.67c8.59,0,16.98,.2,25.37-.09,3.89-.13,5.72-2.94,6.78-6.67,.76-2.68,.5-7.33,6.48-5.27-.43,5.67-.87,11.5-1.33,17.63-1.26,.11-2.46,.31-3.67,.32-17.04,.02-34.07,.05-51.11-.05-1.44,0-2.88-.99-4.32-1.53,1.31-1.22,2.5-3.27,3.97-3.49,4.33-.66,5.1-3.14,5.08-6.91-.11-18.76-.12-37.51,0-56.27,.03-4.14-1.27-6.46-5.63-7-1.22-.15-2.26-1.76-3.39-2.7,1.33-.77,2.64-2.18,3.98-2.2,9.53-.2,19.07-.11,28.6-.11,7.03,0,14.07,.1,21.1-.04,3.33-.06,4.97,1.17,4.92,4.6-.07,4.65-.02,9.29-.02,14.21Z"/><path class="cls-1" d="M343.79,234.02c8.91-.39,17.61-.44,26.22-1.41,2-.23,3.84-3.44,5.39-5.54,.87-1.18,.75-3.07,1.55-4.35,.58-.93,2.12-2.08,2.89-1.87,.91,.24,2.08,1.85,2.07,2.85-.05,4.36-.38,8.73-.88,13.06-.1,.86-1.42,2.25-2.18,2.25-18.86,.13-37.73,.1-56.45,.1-1.54-3.68,.46-4.83,3.01-5.14,4.65-.56,5.68-3.35,5.65-7.51-.11-18.27-.12-36.54,0-54.81,.03-4.68-1.53-7.42-6.53-7.82-.96-.08-1.82-1.54-2.72-2.37,.92-.84,1.75-1.84,2.8-2.47,.58-.35,1.53-.11,2.31-.11,16.09,0,32.17,.07,48.26-.06,3.51-.03,5.14,.86,4.87,4.74-.32,4.63-.08,9.29-.08,13.85-3.51,1.34-4.84-.11-5.46-3.13-1.69-8.18-2.08-8.64-10.58-9.38-6.5-.57-13.05-.66-20.06-.99v31.85c5.05,0,10.22,.55,15.15-.3,1.73-.3,3.45-3.9,4.11-6.29,.81-2.93,1.35-5.21,5.44-4.07v27.21c-3.81,1.36-4.99-.41-5.34-3.88-.54-5.33-2.09-6.69-7.4-6.85-3.88-.11-7.76-.02-12.04-.02v32.44Z"/><path class="cls-1" d="M716.48,238.93h-30.9c-1.45-3.34,.39-4.59,2.98-4.92,4.34-.55,4.56-2.99,3.29-6.31-1.16-3.05-2.77-6-3.44-9.15-1.08-5.12-3.85-6.53-8.85-6.08-5.42,.49-10.94-.08-16.39,.24-1.43,.08-3.49,1.48-4,2.77-1.65,4.18-2.62,8.62-4.01,12.91-1,3.08-.18,4.82,3.12,5.32,1.22,.19,2.59,.39,3.55,1.06,.84,.59,1.48,1.81,1.63,2.84,.06,.39-1.52,1.44-2.36,1.46-7.19,.12-14.38,.12-21.56-.01-.78-.01-2.07-.98-2.17-1.65-.12-.82,.73-2.54,1.22-2.57,11.14-.59,11.29-10.23,13.91-17.34,6.5-17.65,12.42-35.51,18.63-53.27,2.22-6.35,2.31-6.32,9.45-5.51,7.92,21.13,15.87,42.36,23.85,63.57,1.92,5.1,2.64,11.14,9.76,12.33,.85,.14,1.33,2.43,2.28,4.31Zm-54.77-32.13h22.44c-3.63-10.82-7.1-21.18-10.56-31.53l-1.24-.06c-3.5,10.39-6.99,20.78-10.63,31.6Z"/><path class="cls-1" d="M523.94,177.53c-2.82,1.02-4.54,.35-4.98-2.81-.21-1.53-.33-3.34-1.2-4.47-1.48-1.93-3.28-3.96-5.41-4.96-1.99-.94-4.59-.74-6.92-.78-5.76-.09-11.52-.03-17.68-.03v34.08c2.29,0,4.29,.02,6.3,0q11.63-.15,14.68-10.81c3.02-.96,4.74-.31,4.69,3.34-.11,6.87,.09,13.75-.15,20.62-.04,1.24-1.55,2.43-2.39,3.64-.97-1.1-2.49-2.05-2.83-3.32-2.01-7.54-1.92-7.56-9.97-7.89q-10.73-.43-10.73,10.19c0,4.06,.1,8.13-.03,12.19-.13,4.14,1.05,7.07,5.73,7.45,.61,.05,1.38,.18,1.75,.57,.76,.83,1.3,1.86,1.92,2.81-.91,.59-1.82,1.69-2.75,1.7-9.04,.13-18.09,.08-26.98,.08-2.05-3.62,.06-4.91,2.77-5.21,4.24-.47,5.2-2.78,5.18-6.67-.14-18.75-.15-37.5,0-56.25,.03-4.36-1.3-6.78-5.92-7.16-1-.08-1.88-1.71-2.81-2.62,1.09-.78,2.18-2.22,3.28-2.23,17.03-.14,34.06-.14,51.09,0,1.13,0,3.16,1.44,3.21,2.29,.3,5.39,.15,10.81,.15,16.23Z"/><path class="cls-1" d="M857.85,183.17c-3.42,1.16-4.72,.21-5.51-2.78-2.02-7.64-5.44-14.45-13.99-16.53-12.25-2.97-23.47,3.33-27.84,15.24-4.86,13.26-4.88,26.46-.05,39.74,4.93,13.58,19.56,20.34,31.6,14.48,5.79-2.82,8.46-7.98,10.41-13.7,.4-1.18,.44-2.6,1.15-3.53,.61-.79,1.95-1.41,2.95-1.38,.61,.02,1.68,1.43,1.66,2.2-.09,4.99-.31,9.99-.77,14.96-.09,1.01-1.19,2.31-2.17,2.8-16.59,8.42-38.13,8.65-51.98-6.63-15.44-17.04-13.94-52.48,9.23-65.4,10.01-5.58,20.71-5.96,31.29-3.37,13.15,3.22,13.05,3.73,14.01,17.24,.15,2.15,.02,4.32,.02,6.65Z"/><path class="cls-1" d="M445.65,239.16c-4.59,0-8.62,0-12.65,0-14.21,0-28.41,.05-42.62-.08-1.39-.01-2.78-1.08-4.17-1.65,1.2-1.14,2.3-3.12,3.61-3.26,4.84-.53,5.58-3.44,5.56-7.48-.08-18.42-.09-36.84,.01-55.26,.03-4.61-1.23-7.56-6.49-7.6-.9,0-1.79-1.53-2.68-2.35,.91-.85,1.8-2.41,2.73-2.43,8.58-.18,17.17-.17,25.75,.02,.89,.02,1.75,1.62,2.62,2.49-.92,.79-1.8,2.21-2.76,2.26-5.03,.26-6.58,2.85-6.54,7.64,.16,19.2,.15,38.4,0,57.6-.03,3.66,1.02,5.01,4.76,4.79,6.38-.38,12.79-.29,19.18-.55,5.3-.22,7.09-2.11,8.97-8.94q.98-3.57,5.8-3.46c-.35,5.85-.7,11.67-1.1,18.26Z"/><path class="cls-1" d="M529.77,239.16c-1.41-4.02,.96-4.85,3.39-5.1,4.46-.45,5.58-3.11,5.57-7.07-.06-18.6-.08-37.2,.01-55.8,.02-4.53-1.59-7.06-6.41-7.36-1.05-.06-2.01-1.62-3.01-2.48,1.1-.81,2.18-2.3,3.3-2.33,8.12-.2,16.25-.21,24.38-.01,1.16,.03,2.28,1.49,3.43,2.28-1.01,.89-1.96,2.48-3.03,2.56-4.93,.37-6.09,3.07-6.05,7.56,.16,18.44,.16,36.89,0,55.33-.04,4.22,.82,6.86,5.55,7.47,1.31,.17,2.38,2.16,3.57,3.32-1.44,.54-2.87,1.53-4.31,1.55-8.87,.15-17.75,.07-26.37,.07Z"/><path class="cls-1" d="M893.73,238.91h-29.27c-1.28-3-.02-4.51,2.61-4.78,5.11-.52,6.16-3.58,6.13-8.13-.15-18.11-.11-36.22-.02-54.33,.02-4.62-1.48-7.46-6.52-7.83-.95-.07-1.8-1.54-2.69-2.37,.91-.85,1.81-2.41,2.74-2.43,8.27-.19,16.55-.19,24.82-.01,.92,.02,1.82,1.53,2.72,2.34-.84,.86-1.64,2.42-2.53,2.47-5.24,.27-6.29,3.28-6.25,7.87,.15,18.42,.14,36.84,0,55.27-.03,4.04,.87,6.57,5.38,7.02,2.61,.26,4.4,1.66,2.9,4.91Z"/><path class="cls-1" d="M281.58,239.14c-4.46,4.39-10.14,1.42-16.08,2.11,.65-5.53,1.24-10.5,1.83-15.48l-1.04-.17c-.57,3.78-1.3,7.55-1.66,11.36-.32,3.32-1.9,4.21-4.99,3.58-4.72-.96-9.48-1.72-15.15-2.73,1.48-6.73,2.92-13.3,4.33-19.76,9.13-.91,16.85,1.14,18.14,3.87,1.98-.54,3.67-1.47,5.3-1.37,7.34,.48,14.6,.1,21.55-2.33,2.18-.76,3.91-2.83,5.84-4.31,1.97,6.99-.18,21.2-3.91,22.1-4.47,1.08-8.21,6.94-14.15,3.13Z"/><path class="cls-1" d="M881.28,291.3c2.22-1.57,3.81-2.7,5.4-3.82-1.7-.85-3.32-2.07-5.12-2.44-1.78-.36-4.57-.66-4,2.54,.22,1.21,2.06,2.13,3.72,3.72Z"/><path class="cls-1" d="M263.13,165.49c-.66-3.15-1.32-6.3-1.96-9.38,4.03-.48,7.93-.82,11.79-1.43,5.72-.9,4.37-5.34,4-10.11,8.2,9.78,14.54,19.32,15.81,31.42,.3,2.9-.25,3.34-3.79,3.26-.22,0-.57-.1-.64,0-5.02,7.25-12.51,3.12-18.89,3.94-.69,.09-2.05-2.01-2.45-3.29-1.47-4.81-2.67-9.69-3.97-14.55l.1,.15Z"/><path class="cls-1" d="M268.63,214.53v-24.37c4.62,.39,9.02,.77,13.61,1.16,4.03-2.49,11.37-1.11,13.2-8.55,.47,.2,.95,.41,1.42,.61,.76,4.9,1.63,9.79,2.26,14.71,1.42,11.14,.19,13.25-10.95,15.22-6.31,1.12-12.86,.85-19.54,1.22Z"/><path class="cls-1" d="M257.81,259.58c1.6-3.16,3.67-6.19,4.65-9.53,.86-2.97,2.32-3.84,4.99-3.43,7.81,1.22,15.44-.18,23.01-1.76,1.79-.37,3.34-1.89,5.17-2.98-.86,10.19-8.31,23.98-21.59,22.41-3.56-.42-7.3,.84-10.98,1.04-1.8,.1-3.63-.47-5.8-.78,.14-1.68,.25-3.01,.37-4.34,.06-.21,.12-.42,.18-.63Z"/><path class="cls-1" d="M191.72,222.69c-4.94-1.85-9.35-3.37-13.65-5.13-7.16-2.94-7.59-3.22-4.35-10.27,7.08-15.4,2.39-13.35,17.45-7.34,8.28,3.3,8.19,3.6,5.3,12.1-.9,2.65-1.87,5.28-2.93,7.87-.41,1-1.19,1.85-1.82,2.79Z"/><path class="cls-1" d="M202.47,204.34c6.58,2.03,12.8,3.87,18.93,5.97,.68,.23,1.37,2.08,1.16,2.97-1.28,5.29-2.68,10.55-4.4,15.7-.28,.85-2.58,1.8-3.6,1.5-5.51-1.61-10.97-3.45-16.3-5.58-1-.4-2.13-2.74-1.81-3.76,1.74-5.61,3.92-11.08,6.02-16.81Z"/><path class="cls-1" d="M168.41,219.81c7.49,2.95,14.53,5.72,21.96,8.65-1.97,5.63-3.75,11.03-5.85,16.3-.31,.77-2.44,1.55-3.32,1.22-5.53-2-11.01-4.17-16.34-6.65-1.13-.53-2.43-2.89-2.11-3.94,1.56-5.16,3.64-10.16,5.67-15.58Z"/><path class="cls-1" d="M193.31,229.43c7.74,2.61,14.77,4.98,22.46,7.57-2.04,5.61-3.83,11-6.08,16.2-.38,.88-2.93,1.55-4.16,1.2-5.21-1.5-10.38-3.25-15.39-5.32-1.17-.48-2.64-2.84-2.34-3.86,1.49-5.19,3.51-10.23,5.51-15.79Z"/><path class="cls-1" d="M181.56,189.31c3.56-6.64,6.66-12.69,10.1-18.55,.44-.75,2.78-1.01,3.92-.61,4.39,1.55,8.65,3.46,13.89,5.62-2.38,6.64-4.69,13.31-7.28,19.86-.21,.52-2.6,.65-3.72,.25-5.39-1.94-10.69-4.13-16.91-6.57Z"/><path class="cls-1" d="M225.28,205.2c-7.22-2.4-13.62-4.53-20.56-6.84,2.39-6.81,4.55-13.23,6.97-19.55,.25-.67,2.14-1.27,3.03-1.03,4.34,1.16,8.66,2.45,12.83,4.1,.9,.36,1.79,2.48,1.6,3.6-1.04,6.25-2.41,12.44-3.88,19.71Z"/><path class="cls-1" d="M157.85,184.68c6.6,3.25,12.5,6.15,18.66,9.18-2.86,6.4-5.68,12.68-8.62,19.26-6.7-3.28-12.91-6.31-19.79-9.68,3.3-6.35,6.51-12.53,9.75-18.76Z"/><path class="cls-1" d="M241.91,237.63c-7.62-1.97-14.33-3.7-21.36-5.52,1.73-6.33,3.2-12.17,5.05-17.89,.26-.82,2.5-1.62,3.64-1.42,4.87,.86,9.72,1.94,14.47,3.32,.95,.27,2.16,2.32,1.98,3.34-1.02,5.93-2.41,11.8-3.78,18.17Z"/><path class="cls-1" d="M164.36,130.7c-2.32,1.2-4.88,2.1-6.92,3.66-3.33,2.55-5.31,1.44-6.97-1.78-.75-1.46-1.54-2.91-2.31-4.37-1.38-2.61,.62-6.55,5.47-8.77,6.75-3.09,13.78-5.55,20.72-8.21,1.7-.65,3.52-1,5.75-.68-2.03,1.43-4.06,2.87-5.28,3.74,1.4,2.35,2.95,4.82,4.27,7.42,.1,.21-1.39,1.32-2.22,1.88-1.8,1.2-3.65,2.32-5.48,3.47-2.34,1.21-4.68,2.43-7.02,3.65Z"/><path class="cls-1" d="M159,236.86c-6-2.84-11.66-5.28-17.03-8.26-1.14-.63-1.97-3.44-1.59-4.89,1.09-4.17,2.72-8.23,4.49-12.17,.4-.89,2.59-1.88,3.4-1.53,5.24,2.29,10.39,4.82,15.4,7.6,.85,.47,1.46,2.7,1.11,3.76-1.63,4.99-3.63,9.85-5.78,15.48Z"/><path class="cls-1" d="M233.22,261.71c-7.44-2-14.25-3.82-21.2-5.69,2-5.73,3.58-10.77,5.6-15.62,.43-1.04,2.6-2.17,3.73-1.96,5.18,.96,10.27,2.45,15.42,3.6,2.75,.62,3.13,2.34,2.33,4.52-1.82,4.92-3.79,9.79-5.87,15.14Z"/><path class="cls-1" d="M247.52,210.62c-6.42-1.47-12.01-2.66-17.53-4.13-.74-.2-1.7-1.93-1.54-2.76,1.25-6.56,2.74-13.06,4.34-20.39,5.16,1.37,10.21,2.63,15.17,4.14,.68,.21,1.44,1.72,1.38,2.57-.46,6.5-1.12,12.99-1.82,20.57Z"/><path class="cls-1" d="M189.83,167.74c-3.45,6.47-6.64,12.64-10.1,18.66-.36,.62-2.54,.8-3.51,.37-4.24-1.87-8.45-3.87-12.42-6.23-.86-.51-1.45-3.18-.9-4.05,2.98-4.71,6.2-9.3,9.72-13.63,.82-1.01,3.35-1.58,4.62-1.09,4.04,1.54,7.85,3.66,12.6,5.97Z"/><path class="cls-1" d="M139.19,174.03c2.16,1,4.41,1.86,6.46,3.04,3.34,1.93,6.55,4.08,10.05,6.28-2.88,5.7-5.49,11.13-8.41,16.37-.46,.83-2.75,1.57-3.54,1.15-4.1-2.21-7.96-4.85-11.95-7.27-2.78-1.68-1.57-3.71-.52-5.62,2.62-4.74,5.36-9.42,8.04-14.11,0,.01-.13,.15-.13,.15Z"/><path class="cls-1" d="M150.69,159.29c.2-.24,.37-.5,.6-.7,2.73-2.46,5.85-7.25,8.12-6.87,4.39,.72,8.31,4.35,12.86,7.04-4.58,6.62-8.87,12.82-13.38,19.34-4.23-2.67-8.27-5.28-12.37-7.78-2.33-1.41-2.56-2.94-.65-4.8,1.6-2.05,3.21-4.14,4.82-6.22Z"/><path class="cls-1" d="M155.49,261.05c1.58-5.96,3.05-11.49,4.66-17.52,7.4,2.94,14.5,5.77,21.69,8.63-.85,2.3-1.55,4.03-2.14,5.8-2.69,8.12-6.36,9.92-14.55,6.97-3.05-1.1-6.03-2.41-9.66-3.87Z"/><path class="cls-1" d="M137.75,232.57c6.58,3.2,12.45,5.9,18.12,8.97,.8,.43,1.06,2.79,.79,4.09-.76,3.79-1.72,7.58-3.07,11.2-.35,.94-2.78,2.06-3.65,1.68-4.68-2.01-9.23-4.35-13.66-6.86-.9-.51-1.64-2.37-1.48-3.47,.72-4.89,1.79-9.73,2.94-15.61Z"/><path class="cls-1" d="M122.21,206.96c1.51-3.13,3.03-6.27,4.7-9.74,5.25,3.19,10.17,6.1,14.97,9.2,.68,.44,1.3,1.98,1.05,2.71-1.81,5.43-3.84,10.79-6.07,16.9-5.14-3.29-9.91-6.13-14.38-9.38-.98-.71-1.24-2.89-1.22-4.39,.02-1.82,.69-3.63,1.08-5.45,0,0-.13,.14-.13,.14Z"/><path class="cls-1" d="M257.81,259.58c-.06,.21-.12,.42-.18,.63-1.66,4-4.74,4.74-8.64,3.93-4.08-.85-8.2-1.53-12.92-2.4,2.15-5.95,4.06-11.44,6.2-16.83,.25-.64,1.82-1.22,2.67-1.1,5.52,.75,11.01,1.7,17.15,2.69-1.53,4.7-2.9,8.89-4.27,13.09Z"/><path class="cls-1" d="M135.71,153.52c-5.14,3.61-6.15,3.43-9.22-2-1.14-2.01-2.23-4.1-2.93-6.28-.38-1.17-.42-3.18,.29-3.84,5.37-4.96,10.97-9.68,16.17-14.2,2.56,5.01,4.72,9.22,7.09,13.85-1.61,1.9-3.64,4.29-5.67,6.69-1.91,1.93-3.82,3.86-5.73,5.79Z"/><path class="cls-1" d="M267.31,213.88c-5.46-.86-9.93-1.34-14.25-2.41-1.14-.28-2.59-2.47-2.56-3.74,.17-5.6,.71-11.2,1.45-16.76,.13-.97,1.83-1.74,2.86-2.54,.16-.12,.59,.13,.89,.17,10.97,1.42,11.02,1.42,11.56,12.61,.19,3.99,.03,7.99,.03,12.67Z"/><path class="cls-1" d="M220.66,145.27c-2.87,7.98-5.67,15.77-8.64,24.06-5.48-2.12-10.44-4.05-16.09-6.24,1.58-2.73,2.93-5.25,4.47-7.65,1.59-2.47,3.41-4.79,5.08-7.22q5.41-7.88,15.18-2.94Z"/><path class="cls-1" d="M214.87,170.29c2.75-7.74,5.21-14.76,7.78-21.73,.28-.77,1.04-1.68,1.77-1.9,4.01-1.21,9.56,3.06,9.25,7.15-.46,6.06-.97,12.12-1.85,18.12-.17,1.18-2.42,3.17-3.24,2.96-4.47-1.15-8.78-2.88-13.71-4.6Z"/><path class="cls-1" d="M202.07,121.43c-4.5,2.73-7.38,.84-9.7-2.35-.53-.73-.45-1.93-.62-2.91-.04-.24,.15-.65,.03-.74-.89-.75-1.83-1.45-2.76-2.16,1.5-1.2,2.84-2.99,4.55-3.47,2.95-.82,6.13-1.16,9.2-1.1,4.18,.08,8.37,.61,12.52,1.17,1.25,.17,2.41,1.07,3.42,2.27h-5c.52,1.24,.87,2.08,1.39,3.31-3.03,.57-5.97,1.13-9.99,1.89,5.62,.6,10.08,1.07,14.54,1.55,0,.42,0,.83,.01,1.25-4.61,2.35-9.11,4.97-13.89,6.89-1.38,.55-3.58-.95-5.4-1.5,.44-1.05,.88-2.11,1.71-4.1Z"/><path class="cls-1" d="M178.34,154.39c6.65-6.37,12.58-12.21,18.77-17.76,.83-.74,3.11-.27,4.55,.18,1.89,.58,3.61,1.7,5.97,2.88-4.61,7.03-8.98,13.89-13.65,20.55-.46,.66-2.87,.54-4.04,.03-3.54-1.54-6.91-3.46-11.61-5.88Z"/><path class="cls-1" d="M249.34,180.24c-2.03-.44-3.08-.66-4.12-.9-13.59-3.15-10.99-.22-9.77-13.77,.43-4.78,1.06-9.54,1.59-14.27,7.84-.56,10.54,1.37,11.14,8.37,.57,6.62,.76,13.28,1.15,20.57Z"/><path class="cls-1" d="M180.71,132.73c1.03-.34,2.3-.4,3.06-1.05,4.94-4.17,8.39-.93,12.71,2.52-6.14,5.96-12.03,11.69-17.95,17.38-.54,.52-1.23,1.07-1.92,1.2-2.65,.51-10.82-5.88-11.25-8.69,5.12-3.79,10.23-7.57,15.35-11.36Z"/><path class="cls-1" d="M135.71,153.52c1.91-1.93,3.82-3.86,5.73-5.79,2.48-1.82,4.95-3.64,7.45-5.47,.46,.21,.95,.32,1.27,.6,2.42,2.11,6.03,3.91,6.79,6.52,.5,1.72-3.17,4.6-4.88,7.03-.6,.86-.93,1.91-1.38,2.88-1.61,2.08-3.22,4.17-4.82,6.22-3.87,1.84-8.09,0-12.02-5.26-2.28-3.06,.21-4.77,1.85-6.73Z"/><path class="cls-1" d="M121.12,170.48c1.65-1.74,3.2-3.6,5.01-5.16,.87-.75,2.88-1.61,3.27-1.24,3.4,3.18,6.55,6.62,9.79,9.97,0-.01,.13-.15,.14-.16-3.76,5.36-7.52,10.73-11.31,16.15-9.49-3.31-11.39-7.82-7.5-18.12,.2-.47,.41-.95,.61-1.43Z"/><path class="cls-1" d="M263.03,165.34c.65,3.76,1.3,7.52,1.93,11.28,.28,1.65,.52,3.31,.92,5.86-4.32-.55-8.1-.89-11.82-1.59-.86-.16-2.07-1.49-2.13-2.36-.62-8.01-1.03-16.04-1.49-24.06,6.86-.7,7.84-.1,10.3,6.04,.68,1.7,1.57,3.31,2.38,4.97,0,.01-.09-.13-.09-.13Z"/><path class="cls-1" d="M120.17,221.44c4.15,2.66,8.43,5.15,12.38,8.09,1.23,.92,2.29,3.15,2.12,4.64-.57,4.99-1.73,9.91-2.78,15.42-4.29-2.44-7.84-4.27-11.16-6.45-1.11-.73-2.24-2.36-2.29-3.61-.24-5.98-.11-11.98-.11-17.98,.61-.03,1.23-.07,1.84-.1Z"/><path class="cls-1" d="M180.71,132.73c-5.12,3.79-10.23,7.57-15.35,11.36-5.2,1.04-6.85-3.56-10.52-6.16,3.47-2.64,6.48-4.92,9.5-7.22,2.36-1.23,4.7-2.44,7.04-3.66,1.46-.5,3.1-.73,4.35-1.55,4.47-2.95,7.73-1.56,10.63,2.63-1.93,1.57-3.79,3.08-5.65,4.6Z"/><path class="cls-1" d="M245.42,131.06c1.41-1.89,2.81-3.77,4.5-6.04-.44-.53-1.24-1.47-2.04-2.42,.25-.31,.51-.63,.76-.94,6.02,5.42,14.8,7.27,18.64,15.45,1.82,3.88-.94,6.41-5.16,7.16-6.73,1.19-9.17-3.1-11.93-7.48-1.58-1.9-3.18-3.82-4.78-5.74Z"/><path class="cls-1" d="M205.88,260.3c.24,4.1-1.49,5.58-5.27,5.47-6.51-.18-13.03-.05-20.43-.05,1.69-4.68,3.1-8.6,4.56-12.64,7.5,2.56,14.35,4.9,21.15,7.22Z"/><path class="cls-1" d="M118.11,246.97c4.54,2.52,8.14,4.28,11.45,6.48,1.04,.69,1.8,2.52,1.85,3.86,.1,2.6-.4,5.22-.64,7.76-.7,.25-1.12,.5-1.56,.54-9.05,.92-9.16,.87-10.25-8.08-.39-3.21-.53-6.44-.85-10.56Z"/><path class="cls-1" d="M121.12,170.48c-.2,.48-.41,.95-.61,1.43-.45,.39-.9,.79-1.8,1.59v-24.68c1.76,2.91,3.34,6.26,5.6,9.07,2.2,2.74,2.67,4.93,.23,7.66-1.32,1.48-2.29,3.28-3.42,4.93Z"/><path class="cls-1" d="M135.04,256.59c5.2,2.61,10.41,5.21,15.61,7.82-.04,.39-.08,.78-.11,1.17-4.97,0-10.03,.54-14.83-.37-1.25-.24-1.64-4.97-2.43-7.64l1.76-.97Z"/><path class="cls-1" d="M122.34,206.82c-1.13,2.05-2.26,4.1-3.8,6.91v-22.61c7.23,4.15,7.18,4.14,4.45,11.35-.53,1.4-.54,3-.78,4.5,0,0,.13-.15,.13-.15Z"/><path class="cls-1" d="M245.42,131.06c1.6,1.92,3.19,3.84,4.78,5.74,.87,2.22,1.76,4.45,2.98,7.5-10.58-1.19-7.76-11.5-13.05-15.54,.26-.28,.53-.56,.79-.85,1.5,1.05,3,2.1,4.51,3.15Z"/><path class="cls-1" d="M216.07,134.41c4.53-4.81,7.77-8.24,11.01-11.68,.48,.27,.95,.53,1.43,.8-1.4,3.9-2.41,8.02-4.48,11.53-.51,.86-4.45-.3-7.96-.65Z"/><path class="cls-1" d="M208.53,127.86c4.69-2.15,9.39-4.31,14.08-6.46,.48,.68,.96,1.36,1.44,2.04-2.97,2.62-5.66,5.75-9.04,7.64-1.55,.87-4.45-.68-6.74-1.13,.08-.7,.17-1.39,.25-2.09Z"/><path class="cls-1" d="M233.09,125.01c.3,4.63,.61,9.25,.96,14.55-2.83-.78-4.84-1.33-7.26-2,1.63-4.58,3.07-8.63,4.51-12.67,.6,.04,1.2,.08,1.8,.12Z"/><path class="cls-1" d="M244.08,141.36c-5.36,.66-7.46-.63-7.16-5.13,.19-2.87-.36-5.79-.58-8.69,.39-.13,.77-.27,1.16-.4,2.11,4.55,4.21,9.1,6.58,14.22Z"/><path class="cls-1" d="M223.78,265.4h-15.16c-.59-3.92,1.53-4.32,4.18-3.65,3.71,.94,7.36,2.1,11.04,3.17-.02,.16-.04,.32-.05,.48Z"/><path class="cls-1" d="M987.88,164.05c8.7-.03,17.8-1.85,22.89,6.7,4.2,7.05,4.49,15.32-.35,22.25-5.5,7.87-14.31,5.74-22.55,5.84v-34.79Z"/><path class="cls-1" d="M1097.04,200.06c-.11,9.06-1.87,18.71-8.44,26.64-11.57,13.96-31.4,11.06-39.16-6.28-6.66-14.9-6.58-30.31,1.4-45.05,4.34-8.01,11.28-12.43,20.39-12.41,9.42,.01,16.08,5.06,20.51,13.16,3.9,7.15,5.3,14.9,5.29,23.95Z"/><path class="cls-1" d="M661.71,206.81c3.64-10.82,7.14-21.21,10.63-31.6l1.24,.06c3.47,10.36,6.94,20.71,10.56,31.53h-22.44Z"/><path class="cls-1" d="M881.28,291.3c-1.65-1.58-3.5-2.5-3.72-3.72-.57-3.2,2.22-2.9,4-2.54,1.8,.37,3.42,1.59,5.12,2.44-1.59,1.12-3.18,2.25-5.4,3.82Z"/></g></g></svg>