<?xml version="1.0" encoding="UTF-8"?><svg id="Capa_1" xmlns="http://www.w3.org/2000/svg" viewBox="0 0 909 400"><defs><style>.cls-1{fill:#fff;}</style></defs><g id="K1GNFr"><g><path class="cls-1" d="M259.65,230.53c-5.04,7.71-16.58,7.33-21.52,4.37-2.78-1.66-4.1-4.23-4.84-7.23-.94-3.82-1.87-7.63-2.81-11.45-2.01-8.16-4.89-10.13-13.65-9.08,0,1.42,0,2.89,0,4.36,.03,5.12-.09,10.24,.13,15.35,.22,4.92,.97,5.56,5.71,6.47,.8,.15,2.24-.23,1.84,1.32-.11,.41-1.35,.72-2.07,.73-9.05,.05-18.09,.03-27.14,.03-.54,0-1.07,0-1.61,0-.14-.21-.28-.42-.43-.63,.5-.46,.93-1.08,1.52-1.33,.78-.32,1.69-.33,2.54-.5,1.9-.37,3.12-1.46,3.37-3.43,.2-1.56,.41-3.12,.42-4.69,.03-13.7,.02-27.39,.01-41.09,0-.94,0-1.89-.09-2.83-.37-4.01-1.28-4.93-5.26-5.64-1.09-.19-2.85,.13-2.13-2.19,1.73,0,3.52,0,5.31,0,9.36,0,18.73-.3,28.07,.13,4.87,.22,9.92,1.08,14.47,2.78,11.26,4.22,12.89,17.12,3.42,24.6-3.76,2.97-8.24,4.13-12.83,4.99-.83,.15-1.65,.31-2.52,.47,3.65,.98,7.21,1.76,10.64,2.92,3.94,1.33,6.29,4.29,7.31,8.3,.91,3.58,1.68,7.2,2.72,10.74,1.3,4.44,3.36,5.1,7.34,2.69,.53-.32,1.38-.11,2.08-.15Zm-42.82-25.54c2.88-.17,5.53-.17,8.14-.52,5.03-.68,8.19-3.68,8.89-8.65,.5-3.53,.59-7.2,.25-10.74-.67-6.87-5.37-10.55-12.29-10.1-3.13,.2-4.45,1.29-4.64,4.46-.26,4.23-.28,8.47-.33,12.71-.05,4.14-.01,8.29-.01,12.86Z"/><path class="cls-1" d="M162.32,235.28c-4.51,0-8.83-.02-13.15,0-6.61,.04-13.21,.09-19.82,.15-1.16,.01-2.35,.1-1.76-1.7,.12-.08,.24-.22,.37-.24,6.42-.95,7.09-1.64,7.11-8.1,.04-17.55,.01-35.1,0-52.65,0-.63-.02-1.26-.05-1.89-.19-4.24-1.13-5.25-5.37-6-1.07-.19-2.82,.1-2.08-1.87,5.5,0,10.91,0,16.32,0,7.07,.01,14.15-.15,21.22,.13,4.48,.18,8.85,1.26,12.83,3.56,11.42,6.59,13.22,22.33,3.6,31.43-5.96,5.64-13.36,7.36-21.2,7.83-2.81,.17-5.64,.03-8.81,.03,0,1.76,0,3.3,0,4.84,0,4.64-.03,9.29,.02,13.93,.07,6.42,1.62,7.99,8.09,8.31q2.74,.14,2.68,2.24Zm-10.79-31.34c2.35,0,4.31,.11,6.25-.02,5.93-.4,9.7-3.49,11.38-9.23,2.02-6.9,1.91-13.83,.32-20.73-1.44-6.23-4.72-8.84-11.05-9.34-4.46-.35-6.45,1.31-6.82,5.75-.1,1.17-.08,2.36-.08,3.54,0,7.47,0,14.94,0,22.41,0,2.5,0,5,0,7.63Z"/><path class="cls-1" d="M297.39,171.61c7.28-.16,14.27,1.13,20.53,5.03,11.25,7.01,14.76,17.75,13.75,30.27-1.58,19.57-16.75,30.22-35.44,30.03-6.61-.06-13-1.24-18.83-4.51-7.3-4.1-12.09-10.21-13.96-18.41-1.96-8.61-1.56-17.09,2.53-25.06,5.69-11.12,15.4-16.1,27.4-17.32,1.32-.13,2.67-.02,4.01-.02Zm-19.15,32.53c.27,.04,.54,.08,.8,.12,0,1.65-.12,3.31,.02,4.95,.57,6.9,2.19,13.47,6.32,19.23,6.36,8.87,17.89,8.85,23.86-.23,1.66-2.52,2.97-5.38,3.9-8.26,2.56-7.92,2.82-16.08,1.65-24.26-.89-6.22-2.83-12.09-7.04-16.97-6.45-7.49-16.66-7.17-22.4,.87-1.66,2.33-3.15,5-3.85,7.74-1.4,5.52-2.21,11.19-3.26,16.8Z"/><path class="cls-1" d="M591.16,237.03c-7.7-.18-15.04-1.7-21.42-6.23-9.92-7.03-13.26-17.14-12.29-28.72,1.53-18.29,14.34-29.96,32.74-30.54,7.94-.25,15.58,.8,22.46,4.97,10.4,6.31,14.32,16.09,14.07,27.81-.4,18.4-12.91,31.3-31.33,32.47-1.41,.09-2.82,.16-4.24,.24Zm19.18-33.03c-.1-1.71-.13-3.84-.35-5.95-.69-6.49-2.29-12.69-6.28-18.02-6.98-9.32-18.2-8.94-24.37,.92-4.81,7.7-5.71,16.38-5.51,25.19,.18,7.97,1.7,15.62,6.48,22.29,6.44,8.98,17.89,8.81,24.03-.37,4.8-7.17,5.72-15.33,6-24.07Z"/><path class="cls-1" d="M633.88,172.95c6.96,0,13.71-.06,20.46,.08,.85,.02,1.85,1,2.48,1.78,9.89,12.23,19.74,24.5,29.6,36.76,.38,.48,.79,.93,1.39,1.64,.14-.59,.29-.93,.29-1.26-.01-9.05,.07-18.1-.1-27.15-.12-6.72-1.84-8.47-8.53-9.55q-1.82-.29-1.74-2.18h20.31c.57,1.35,.05,1.88-1.31,2.21-4.55,1.1-5.87,2.46-5.97,7.13-.22,10.46-.21,20.93-.26,31.4-.03,6.38,0,12.75,0,19.13,0,.84,0,1.68,0,2.49-3.38,.6-5.7,.18-7.95-2.68-12.04-15.35-24.38-30.46-36.61-45.66-.48-.6-1-1.17-1.77-2.06-.11,.92-.23,1.49-.23,2.06,0,11.65,0,23.3,0,34.95,0,.47,.02,.94,.03,1.42,.2,6.75,1.73,8.53,8.37,9.75,1.04,.19,2.66-.12,1.96,2.04h-20.94c.71-.87,1.08-1.79,1.59-1.87,4.67-.76,6.44-3.69,6.45-8.14,.03-9.36,.14-18.73,.16-28.09,0-5.35,.05-10.71-.21-16.05-.22-4.49-.98-5.1-5.46-5.87q-1.91-.33-1.99-2.29Z"/><path class="cls-1" d="M396.78,234.66c.55-.42,1.05-1.11,1.66-1.23,5.43-1.04,6.2-1.72,6.23-7.23,.08-14.64,.08-29.28,0-43.92-.02-4.53-.53-6.77-6.21-7.27-.59-.05-1.11-.9-1.66-1.37,.16-.18,.31-.37,.47-.55h51.72v18.23c-1.73,.71-2.39,.15-2.77-1.43-.5-2.13-1.12-4.26-1.95-6.28-1.84-4.48-5.2-7.38-10.02-7.97-3.33-.41-6.74-.27-10.11-.14-2.22,.09-3.43,1.64-3.45,3.78-.07,7.78-.03,15.56-.03,23.34,9.04,1.54,12.12-1.18,14.56-8.88,.47-1.49,.95-2.25,2.78-1.59v23.77c-.91,.15-1.8,.6-2.28-1.11-2.37-8.49-5.97-10.73-15.01-9.56-.07,.2-.22,.42-.22,.63,.03,7.47-.01,14.95,.14,22.42,.07,3.62,1.33,4.68,4.99,4.77,1.97,.05,3.93,.02,5.9,.01,7.79-.02,12.52-3.31,15.16-10.67,.71-1.99,1.33-4.04,1.69-6.12,.29-1.66,1.03-1.86,2.68-1.37v20.36h-53.71c-.19-.21-.38-.41-.57-.62Z"/><path class="cls-1" d="M463.99,236.2h-1.88v-24.88h1.74c1.38,4.51,2.22,8.97,4.07,12.96,3.98,8.56,12.71,11.73,21.11,9.79,8.03-1.85,10.33-10.42,4.18-15.91-3.65-3.26-8.03-5.73-12.23-8.34-5.35-3.32-10.8-6.48-14.9-11.41-6.87-8.27-4.4-19.67,5.41-23.97,9.22-4.04,18.55-4.34,27.75,.31,.7,.35,1.41,.7,2.1,1.06,2.94,1.51,3.58,1.23,4.44-1.93q.46-1.67,2.34-1.59v20.81c-2.02,.98-2.64,.15-2.89-1.48-.63-4.18-2.08-8.04-4.68-11.44-4.49-5.89-13.2-8.18-19.98-5.22-5.08,2.21-6.72,7.43-3.34,11.8,1.73,2.24,4.09,4.13,6.48,5.71,4.98,3.29,10.26,6.12,15.23,9.42,2.79,1.85,5.54,3.97,7.75,6.46,8.28,9.31,5.16,21.82-6.53,26.13-9.58,3.53-19.21,3.64-28.65-.77-.43-.2-.85-.4-1.28-.6-4.71-2.17-4.93-2.07-6.27,3.11Z"/><path class="cls-1" d="M379.74,215.94c-1.53,.56-2.06-.27-2.43-1.73-1.07-4.21-2.85-8.03-7.67-8.86-2.34-.4-4.8-.07-7.24-.07,0,7.19-.22,14.33,.08,21.46,.17,4.14,2.15,5.7,6.32,6.28,1.39,.19,2.79,.38,4.2,.57,.57,1.38,.1,1.86-1.32,1.85-10.46-.03-20.93,0-31.39-.07-.58,0-1.15-.67-1.73-1.03,.1-.24,.21-.47,.31-.71,.36-.08,.72-.17,1.08-.22,5.55-.86,6.42-1.77,6.51-7.48,.1-6.22,.04-12.44,.04-18.66,0-7.56,0-15.12,0-22.67,0-1.26-.02-2.52-.16-3.77-.45-4.12-1.19-4.84-5.31-5.58-1.08-.19-2.82,.09-2.06-2.16h51.75v18.15c-1.51,.61-2.29,.57-2.71-1.11-.6-2.43-1.31-4.87-2.33-7.15-2.11-4.71-5.93-7.25-11.06-7.62-2.66-.19-5.35-.06-8.02-.01-2.37,.04-3.87,1.16-4.14,3.62-.13,1.17-.26,2.35-.27,3.52-.03,6.69-.01,13.37-.01,20.04,8.93,1.67,12.25-.82,14.75-8.7,.43-1.35,.76-2.41,2.8-1.71v23.81Z"/><path class="cls-1" d="M820,235.33h-54.78c.77-.9,1.12-1.62,1.67-1.87,.76-.35,1.68-.35,2.53-.5,2.01-.35,3.28-1.47,3.54-3.54,.19-1.56,.4-3.13,.4-4.69,.03-13.54,.02-27.08,.01-40.62,0-1.02,0-2.05-.09-3.07-.36-4.17-1.23-5.08-5.37-5.78q-2.09-.35-1.99-2.17h30.6l.53,.45c-.52,.51-.97,1.19-1.59,1.49-.68,.33-1.53,.29-2.31,.42-2.22,.39-3.49,1.69-3.71,3.94-.16,1.64-.34,3.29-.34,4.94-.03,13.54-.03,27.08-.01,40.62,0,7.4,.72,8.1,8.06,8.1,11.61,0,17.27-5.19,19.72-18.09,.27-1.43,.25-3.21,2.57-2.32,0,3.81-.07,7.57,.02,11.33,.09,3.69,.36,7.38,.56,11.33Z"/><path class="cls-1" d="M763.1,235.36c-8.54,0-16.72,0-24.89,0-1.18,0-2.38,.17-3.53,0-.59-.08-1.11-.72-1.66-1.11,.11-.21,.23-.41,.34-.62,1.13-.23,2.29-.41,3.4-.71,2.68-.75,3.84-2.36,2.89-4.92-1.77-4.78-3.87-9.44-5.93-14.11-.19-.44-1.11-.78-1.7-.78-6.29-.06-12.59-.06-18.88,0-.57,0-1.48,.41-1.64,.85-1.32,3.6-2.91,7.18-3.62,10.91-.93,4.88,1.14,7.26,6.13,8.21q2.43,.47,2.59,2.15h-20.34c.34-.79,.45-1.78,.9-1.98,4.03-1.78,5.86-5.41,7.51-9.05,3.97-8.72,7.74-17.53,11.58-26.32,3.36-7.7,6.7-15.42,10.07-23.12,.48-1.11,.72-2.41,2.56-2.07,1.57,.29,3.08-.4,4.1,1.93,7.48,16.96,15.19,33.83,22.85,50.71,1.49,3.29,2.82,6.72,6.64,8.17,.34,.13,.38,1.07,.62,1.84Zm-50.29-24.49h19.62c-3.29-7.5-6.46-14.75-9.81-22.38-3.35,7.63-6.51,14.86-9.81,22.38Z"/><path class="cls-1" d="M89.39,173.1h30.75c.17,.16,.33,.33,.5,.49-.54,.5-1,1.15-1.63,1.46-.6,.3-1.38,.27-2.08,.37-2.35,.32-3.66,1.69-3.94,4.01-.16,1.32-.22,2.67-.23,4-.01,13.85,0,27.7,0,41.55,0,.47,0,.94,.02,1.42,.15,5.19,.95,6.12,5.97,6.95,.46,.08,.92,.12,1.42,.18,.49,1.25,.35,1.91-1.21,1.91-9.44-.04-18.87,0-28.31-.07-.55,0-1.1-.74-1.65-1.13,.12-.21,.24-.42,.36-.62,.29-.06,.57-.14,.86-.18,5.77-.81,6.61-1.62,6.64-7.53,.07-14.48,.02-28.96,0-43.44,0-.39-.03-.79-.05-1.18-.2-4.32-1.08-5.29-5.32-6.02-1.11-.19-2.82,.1-2.11-2.15Z"/><path class="cls-1" d="M519.45,173.1h31.54c-.84,.93-1.22,1.66-1.8,1.91-.84,.36-1.84,.36-2.77,.53-2.05,.38-3.15,1.69-3.41,3.69-.2,1.56-.35,3.13-.36,4.7-.03,13.53-.02,27.06-.01,40.6,0,.71,.02,1.42,.07,2.12,.39,5.14,.99,5.76,6.01,6.74,.69,.13,1.28,.75,1.91,1.14-.12,.24-.24,.49-.36,.73h-30.78c-.15-.17-.29-.34-.44-.5,.49-.46,.92-1.09,1.5-1.33,.78-.32,1.69-.33,2.53-.5,1.89-.37,3.13-1.44,3.38-3.41,.19-1.48,.41-2.97,.41-4.45,.03-13.77,.02-27.54,.02-41.3,0-.79,0-1.57-.06-2.36-.26-4.42-1.15-5.4-5.49-6.17-1.08-.19-2.62-.02-1.93-2.14Z"/></g></g></svg>