<?xml version="1.0" encoding="UTF-8"?><svg id="Capa_1" xmlns="http://www.w3.org/2000/svg" viewBox="0 0 1229 400"><defs><style>.cls-1{fill:#fff;}</style></defs><g id="_16Luf9.tif"><g><path class="cls-1" d="M372.25,149.34s.1-.04,.16-.03c.01,.63,.03,1.27,.03,1.9,0,34.73,0,69.46,0,104.19,0,.63-.02,1.27-.03,1.9-.06,0-.11,0-.16-.03v-107.93Z"/><path class="cls-1" d="M724.37,73.57c.04-.06,.04-.12,.01-.18h10.28c-.03,.06-.02,.12,.01,.18-3.44,0-6.87,0-10.31,0Z"/><path class="cls-1" d="M856.38,189.68c-.62-8.85-2.29-17.52-4.87-26-6.87-22.55-19.07-41.74-36.55-57.55-13.77-12.46-29.57-21.41-47.3-26.94-10.74-3.35-21.74-5.23-32.98-5.62-3.44,0-6.87,0-10.31,0-3.52,.07-7.03,.39-10.52,.83-8.41,1.06-16.67,2.87-24.7,5.61-26.37,9-47.65,24.83-63.86,47.49-1.84,2.58-3.48,5.29-5.23,7.93-.35,0-.7-.02-1.05-.02-76.97,0-153.93,0-230.9,0-.48,0-.95,0-1.43,.01-7.39,.22-13.84,6.49-14.28,13.89,.01,.63,.03,1.27,.03,1.9,0,34.73,0,69.46,0,104.19,0,.63-.02,1.27-.03,1.9,.03,.38,.04,.76,.11,1.13,1.4,7.7,7.47,12.76,15.31,12.76,78.44,0,156.87,0,235.31,0,.38,0,.76-.01,1.14-.02,.27,.35,.55,.69,.8,1.05,7.79,11.14,17.1,20.82,28.01,28.94,21.52,16.01,45.76,24.34,72.53,25.36,10.35,.39,20.61-.45,30.72-2.68,29.47-6.49,53.9-21.35,72.73-44.91,20.84-26.07,29.65-56,27.31-89.24Zm-372.14,41.7c0,.79-.19,.99-.98,.99-8.76-.03-17.52-.02-26.28-.02h0c-8.22,0-16.44,0-24.66-.02-3.12,0-6.21-.31-9.21-1.24-6.17-1.91-9.7-6.18-11.03-12.39-.5-2.33-.78-4.69-.78-7.08-.01-15.42,0-30.84-.03-46.25,0-.67,.18-.84,.84-.84,5.59,.03,11.17,.03,16.76,0,.83,0,.97,.25,.97,1.02-.02,14.12-.02,28.23-.02,42.35,0,1.14,.04,2.28,.3,3.4,.54,2.4,1.5,3.28,3.94,3.52,.85,.08,1.71,.13,2.57,.13,15.49,0,30.98,.01,46.47-.02,.89,0,1.17,.18,1.16,1.12-.05,5.11-.04,10.22,0,15.32Zm101.32,.97c-.09-.01-.19,0-.29,0-6.76,0-13.52,0-20.28,.01-.63,0-.87-.17-1.12-.79-.96-2.34-2.03-4.64-3.07-6.94-.48-1.07-.72-2.48-1.55-3.09-.88-.65-2.33-.18-3.53-.19-12.85-.01-25.7,0-38.56-.03-.74,0-1.11,.2-1.42,.9-1,2.33-2.09,4.62-3.15,6.92-.39,.84-.59,1.74-.84,2.62-.1,.36-.21,.6-.68,.59-7.33-.02-14.66-.01-22.05-.01,.3-1.55,1.07-2.77,1.66-4.06,8.5-18.4,17.01-36.79,25.5-55.19,1.97-4.27,4.65-7.91,8.72-10.41,3.02-1.85,6.33-2.72,9.82-2.98,4.25-.32,8.45-.07,12.44,1.54,5.03,2.03,8.6,5.68,10.9,10.51,4.89,10.26,9.68,20.57,14.51,30.86,4.22,9,8.42,18.01,12.65,27.02,.32,.69,.68,1.35,.81,2.12,.08,.49-.03,.64-.5,.59Zm53.88-39.58c.25-.02,.51,0,.76,0,17.2,0,34.4,0,51.6-.02,.91,0,1.16,.2,1.15,1.13-.05,4.92-.05,9.83,0,14.75,0,.84-.2,1.05-1.05,1.05-17.29-.03-34.59-.01-51.88-.04-.88,0-1.16,.16-1.16,1.11,.05,6.88,.01,13.77,.05,20.65,0,.8-.2,.98-.99,.98-5.65-.04-11.3-.03-16.95,0-.6,0-.8-.14-.8-.77,.02-18.56,0-37.11,.05-55.67,0-2.7,.64-5.29,2.37-7.47,1.85-2.33,4.41-3.3,7.26-3.7,1.23-.17,2.46-.19,3.7-.19,9.46,0,18.91,0,28.37,0,10.06,0,20.12,.01,30.18-.02,.87,0,1.03,.24,1.03,1.05-.04,5.3-.04,10.59,0,15.89,0,.88-.26,1.02-1.06,1.02-16.53-.02-33.07-.02-49.6-.02-.32,0-.64,0-.95,0-1.66,.08-2.56,.87-2.61,2.53-.07,2.41-.02,4.82-.04,7.23,0,.44,.18,.55,.57,.52Zm174.29,38.11c-5.62-.04-11.24-.04-16.85,0-.79,0-.91-.25-.91-.96,.02-15.45,.01-30.9,.02-46.35,0-.61-.02-1.19-.45-1.7-.74-.88-1.79-.9-2.5,0-.21,.27-.36,.59-.52,.9-7.05,14.13-14.15,28.23-21.12,42.4-2.04,4.15-5.31,6.28-9.74,6.95-2.81,.43-5.55,.15-8.27-.61-3.22-.9-5.48-2.9-6.96-5.87-3.46-6.97-6.95-13.93-10.42-20.89-3.67-7.35-7.35-14.71-11.02-22.06-.63-1.26-1.2-1.66-2.04-1.44-.91,.23-1.4,1.02-1.4,2.31,0,15.39,0,30.77,.02,46.16,0,.91-.19,1.15-1.12,1.14-5.55-.05-11.11-.04-16.66,0-.72,0-.95-.15-.95-.92,.03-17.03,.02-34.07,.03-51.1,0-4.68,1.3-8.92,4.24-12.61,.86-1.07,1.86-2.01,3-2.75,6.07-3.96,12.53-5.14,19.44-2.54,3.98,1.5,6.63,4.59,8.88,8.03,2.38,3.64,3.99,7.69,5.89,11.58,4.22,8.64,8.37,17.31,12.53,25.97,.43,.9,.87,1.68,2.06,1.65,1.12-.03,1.43-.83,1.83-1.65,5.06-10.52,10.15-21.02,15.19-31.54,1.62-3.38,3.36-6.65,5.86-9.5,4.22-4.82,9.62-6.39,15.76-5.75,4.73,.49,8.95,2.32,12.27,5.82,2.72,2.86,4.19,6.36,4.68,10.28,.21,1.68,.2,3.35,.2,5.03,0,7.61,0,15.23,0,22.84,0,8.72,0,17.45,.02,26.17,0,.76-.14,1.02-.96,1.01Zm13.13,1.44c-4.07,0-7.28-3.21-7.27-7.3,0-3.97,3.27-7.2,7.28-7.2,4.01,0,7.2,3.26,7.21,7.37,0,3.97-3.19,7.13-7.22,7.13Z"/><path class="cls-1" d="M537.72,205.6c-4.48,0-8.95-.02-13.43,.01-.76,0-.93-.12-.6-.87,3.53-8.1,7.03-16.21,10.55-24.32,.97-2.24,2.94-3.05,5.03-2.16,1.03,.44,1.48,1.34,1.89,2.28,1.75,3.97,3.5,7.94,5.24,11.91,1.8,4.09,3.59,8.18,5.41,12.26,.31,.7,.25,.9-.58,.9-4.51-.03-9.01-.02-13.52-.02Z"/></g></g></svg>