<svg width="17" height="16" viewBox="0 0 17 16" fill="none" xmlns="http://www.w3.org/2000/svg">
<g clip-path="url(#clip0_1065_626)">
<path d="M17.0002 9.81049V16H13.3592V10.2283C13.3592 8.7789 12.8353 7.78857 11.5152 7.78857C10.6717 7.78857 9.92255 8.31984 9.64489 9.09869C9.55059 9.38238 9.50868 9.67639 9.5244 9.97555V16H5.87817C5.87817 16 5.92532 6.22055 5.87817 5.20959H9.5244V6.73635C9.5244 6.73635 9.50868 6.75698 9.50344 6.77245H9.5244V6.73635C10.195 5.58612 11.4628 4.90011 12.8091 4.95169C15.2085 4.95169 17.0054 6.49392 17.0054 9.80533" fill="white"/>
<path d="M3.8612 5.20947H0.220215V15.9999H3.8612V5.20947Z" fill="white"/>
<path d="M4.10182 1.87246C4.10182 2.90405 3.25313 3.7448 2.20013 3.7448C2.14774 3.7448 2.09535 3.7448 2.03772 3.73964H2.01153C0.969001 3.80153 0.067923 3.01752 -0.000181798 1.98593C-0.0630477 0.954339 0.733254 0.0671695 1.78102 0.000115956C1.87532 -0.00504201 1.96962 0.000115956 2.06392 0.000115956C3.10644 -0.0772535 4.018 0.691283 4.09658 1.71772C4.09658 1.7693 4.10182 1.81572 4.10182 1.8673" fill="white"/>
</g>
<defs>
<clipPath id="clip0_1065_626">
<rect width="17" height="16" fill="white"/>
</clipPath>
</defs>
</svg>
