<svg width="102" height="17" viewBox="0 0 102 17" fill="none" xmlns="http://www.w3.org/2000/svg">
<path d="M12.8396 14.0894C12.8396 15.0777 12.0721 16.0189 10.9892 16.0189C10.3794 16.0189 9.88315 15.7429 9.5678 15.375L5.65608 10.6807C5.3987 10.3717 4.93031 10.367 4.66598 10.6737L4.35758 11.0322C4.17904 11.2398 4.07933 11.5087 4.07933 11.7847V14.0186C4.07933 15.099 3.2214 16.0166 2.13854 16.0166C1.05569 16.0166 0.197754 15.099 0.197754 14.0186V2.28308C0.197754 1.20271 1.05569 0.285095 2.13854 0.285095C3.2214 0.285095 4.07933 1.20271 4.07933 2.28308V5.70348C4.07933 6.0809 4.53844 6.26018 4.78655 5.97711L9.22695 0.905485C9.58867 0.492678 10.0617 0.285095 10.5811 0.285095C11.6431 0.285095 12.3874 1.22629 12.3874 2.14626C12.3874 2.62748 12.2297 3.06387 11.9584 3.36345L8.39916 7.20845C8.13946 7.48916 8.1325 7.92792 8.38293 8.21806L12.4083 12.8509C12.6796 13.1717 12.8372 13.6081 12.8372 14.0917L12.8396 14.0894Z" fill="#FFF5F0"/>
<path d="M21.9779 0.240234C26.583 0.240234 30.0147 3.50259 30.0147 8.16376C30.0147 12.8249 26.583 16.0873 21.9779 16.0873C17.3729 16.0873 13.918 12.8249 13.918 8.16376C13.918 3.50259 17.3729 0.240234 21.9779 0.240234ZM21.9779 3.7314C19.4714 3.7314 17.8691 5.66098 17.8691 8.16376C17.8691 10.6666 19.4714 12.5961 21.9779 12.5961C24.4845 12.5961 26.0636 10.643 26.0636 8.16376C26.0636 5.68457 24.4613 3.7314 21.9779 3.7314Z" fill="#FFF5F0"/>
<path d="M32.6094 14.0209V2.28308C32.6094 1.20271 33.4673 0.285095 34.5502 0.285095C35.633 0.285095 36.491 1.20271 36.491 2.28308V14.0186C36.491 15.099 35.633 16.0166 34.5502 16.0166C33.4673 16.0166 32.6094 15.099 32.6094 14.0186V14.0209Z" fill="#FFF5F0"/>
<path d="M39.8296 13.7213V2.5826C39.8296 1.4291 40.7501 0.492615 41.884 0.492615H48.3626C51.3422 0.492615 52.7659 2.46701 52.7659 4.39659C52.7659 6.32616 51.6135 7.58817 50.1921 7.91134C51.7943 8.16374 53.0604 9.72533 53.0604 11.6549C53.0604 13.8817 51.5926 15.8113 48.6362 15.8113H41.8863C40.7524 15.8113 39.8319 14.8748 39.8319 13.7213H39.8296ZM47.4838 6.41816C48.2745 6.41816 48.8171 5.84495 48.8171 5.08538C48.8171 4.32582 48.2745 3.7762 47.4838 3.7762H44.1123C43.892 3.7762 43.7135 3.95783 43.7135 4.18193V5.96761C43.7135 6.2153 43.9106 6.41816 44.1564 6.41816H47.4861H47.4838ZM47.6183 12.5277C48.5434 12.5277 49.1092 11.9545 49.1092 11.1265C49.1092 10.3457 48.5666 9.68051 47.6183 9.68051H44.059C43.8665 9.68051 43.7112 9.83856 43.7112 10.0343V12.1243C43.7112 12.3484 43.8897 12.5277 44.1077 12.5277H47.6159H47.6183Z" fill="#FFF5F0"/>
<path d="M69.5143 14.0207C69.5143 15.1223 68.6332 16.0187 67.5504 16.0187C66.6924 16.0187 65.9249 15.4219 65.7 14.6175L65.271 13.3083H59.0846L58.6556 14.6175C58.4075 15.4219 57.6632 16.0187 56.8053 16.0187C55.7224 16.0187 54.8413 15.1223 54.8413 14.0207C54.8413 13.7919 54.8854 13.5395 54.9758 13.3319L58.971 2.53762C59.4672 1.22843 60.7101 0.287231 62.1778 0.287231C63.6456 0.287231 64.8861 1.22843 65.3615 2.53762L69.3799 13.3319C69.4471 13.5395 69.5143 13.7919 69.5143 14.0207ZM64.1627 9.97757L62.3749 4.54268C62.31 4.34925 62.041 4.34925 61.9761 4.54268L60.1883 9.97757H64.1627Z" fill="#FFF5F0"/>
<path d="M81.1266 14.9861L76.183 7.77732C75.9256 7.40225 75.3459 7.58625 75.3459 8.04387V14.0213C75.3459 15.1017 74.488 16.0193 73.4051 16.0193C72.3223 16.0193 71.4644 15.1017 71.4644 14.0213V2.88025C71.4644 1.47906 72.5936 0.285462 74.015 0.285462C74.8729 0.285462 75.6172 0.721858 76.0926 1.41066L80.6628 8.02028C80.9388 8.41893 81.5555 8.22079 81.5555 7.7325V2.3377C81.5555 1.33989 82.2512 0.443508 83.225 0.304334C84.4308 0.134493 85.4626 1.11343 85.4626 2.28345V13.6061C85.4626 14.9153 84.4006 16.0169 83.0697 16.0169C82.279 16.0169 81.5579 15.6041 81.1289 14.9837L81.1266 14.9861Z" fill="#FFF5F0"/>
<path d="M102 14.0655C102 15.1459 101.142 16.0187 100.103 16.0187C99.5608 16.0187 99.0206 15.7899 98.682 15.3747L95.3964 11.3976C95.1204 11.0627 94.615 11.0627 94.3367 11.3976L91.051 15.3747C90.7125 15.7875 90.1699 16.0187 89.6297 16.0187C88.5909 16.0187 87.7329 15.1459 87.7329 14.0655C87.7329 13.6976 87.8674 13.2163 88.2059 12.8248L92.0203 8.42542C92.2522 8.15887 92.2498 7.7555 92.0156 7.4913L88.4981 3.50241C88.1596 3.11083 88.0251 2.6532 88.0251 2.21681C88.0251 1.16002 88.883 0.287231 89.9218 0.287231C90.5085 0.287231 91.0279 0.539633 91.3896 1.02321L94.3344 4.64175C94.6103 4.98143 95.1228 4.98143 95.3987 4.64175L98.3435 1.02321C98.7052 0.541992 99.2246 0.287231 99.8113 0.287231C100.85 0.287231 101.708 1.16002 101.708 2.21681C101.708 2.6532 101.574 3.11319 101.369 3.31841L97.7128 7.4913C97.4809 7.75785 97.4786 8.15887 97.7105 8.42542L101.527 12.8271C101.866 13.2187 102 13.6999 102 14.0679V14.0655Z" fill="#FFF5F0"/>
</svg>
