<svg width="248" height="55" viewBox="0 0 248 55" fill="none" xmlns="http://www.w3.org/2000/svg">
<path d="M149.907 54.878C143.992 51.888 142.001 48.8277 142.559 43.5807C142.995 39.4799 145.303 36.704 149.137 35.4225C152.965 34.1422 156.682 34.233 159.87 37.3584C166.193 43.5564 164.776 50.5008 156.197 54.878H149.907ZM146.381 44.8366C146.412 47.9606 149.925 52.1671 152.515 52.1807C156.058 52.1983 159.879 48.3616 159.831 44.8379C159.782 41.2194 156.605 37.987 153.066 37.9545C149.546 37.9206 146.344 41.2181 146.381 44.8379V44.8366Z" fill="#FFF3EE"/>
<path d="M235.343 54.8781C234.01 53.5166 232.048 52.8135 231.576 50.5687C230.832 47.0246 233.301 43.2855 236.951 43.1135C238.787 43.0268 240.528 42.111 242.508 42.8602C243.725 43.3208 244.356 42.3901 244.056 41.0258C243.584 38.8826 241.807 37.5374 239.406 37.8462C238.227 37.998 237.048 38.4342 235.963 38.9382C234.766 39.4936 234.007 39.2836 233.393 38.1497C232.751 36.9657 233.488 36.3953 234.353 35.8846C239.156 33.0491 245.233 34.6043 247.923 39.3473C247.923 43.6622 247.772 47.9838 247.986 52.2865C248.097 54.4947 247.52 55.3428 245.302 54.8781C244.573 54.0273 244.285 52.9815 244.112 51.4208C243.003 53.3649 241.409 53.9609 240.06 54.8781H235.343ZM241.509 45.0427C240.056 45.0183 238.347 45.2675 236.844 46.2457C234.665 47.6641 234.847 50.2313 237.183 51.3978C239.669 52.6374 242.717 50.9629 243.763 47.782C244.613 45.1998 244.462 44.9871 241.509 45.0427Z" fill="#FFF3EE"/>
<path d="M120.139 35.7476C123.023 34.5622 123.534 34.886 123.835 38.3568C125.88 35.7896 128.408 34.5554 131.562 34.695C134.715 34.8345 137.287 36.7339 137.529 39.8254C137.894 44.4911 138.054 49.1935 137.421 53.8687C136.344 53.8606 135.269 53.8511 134.192 53.8429C133.668 49.6608 134.396 45.4354 133.711 41.2533C133.374 39.2022 132.199 38.2607 130.161 38.2566C126.769 38.2512 123.93 41.1354 123.801 44.8163C123.701 47.6518 123.716 50.4913 123.679 53.3281C123.607 53.3674 123.467 53.423 123.473 53.4447C123.503 53.5747 123.567 53.6966 123.619 53.8213C123.585 54.8116 122.273 54.038 122.128 54.8766H120.556C120.402 54.5257 120.247 54.1749 120.092 53.824C120.158 53.7725 120.287 53.6885 120.278 53.6736C120.215 53.5503 120.127 53.4406 120.046 53.3268C120.044 47.6301 120.043 41.9334 120.042 36.2353C120.116 36.2001 120.258 36.1554 120.254 36.131C120.236 36.0009 120.181 35.8749 120.14 35.7476H120.139Z" fill="#FFF3EE"/>
<path d="M174.018 54.878C171.498 50.5442 170.363 45.6508 168.337 41.1165C167.952 40.2562 167.502 39.3756 167.381 38.4666C167.262 37.5806 165.605 36.3017 167.474 35.8154C168.764 35.4794 170.452 35.0757 171.159 37.4153C172.415 41.573 174.122 45.598 175.736 49.94C177.397 45.4368 179.052 41.3089 180.413 37.0888C181.032 35.1705 182.257 35.073 183.794 35.2179C184.791 35.3114 185.108 35.8343 184.732 36.8179C182.628 42.3249 180.516 47.8293 178.504 53.3675C178.141 54.3646 177.022 54.1031 176.639 54.878H174.018Z" fill="#FFF3EE"/>
<path d="M202.847 54.8781C201.803 54.3159 200.734 53.7943 199.725 53.1765C198.965 52.7105 198.341 52.1672 198.898 51.0767C199.454 49.9847 200.263 49.814 201.275 50.1988C202.08 50.505 202.972 50.7813 203.59 51.3286C204.946 52.529 206.252 51.7066 207.541 51.3977C208.528 51.1607 209.199 50.4155 209.268 49.3507C209.334 48.3414 208.623 47.7535 207.822 47.385C206.249 46.6588 204.612 46.0682 203.029 45.361C200.173 44.0835 198.928 42.1692 199.184 39.5573C199.418 37.1797 201.356 35.325 204.303 34.7764C206.598 34.3483 208.842 34.6449 210.95 35.6366C211.947 36.1054 212.597 36.9643 212.148 38.0765C211.686 39.2226 210.672 39.0953 209.702 38.7051C208.411 38.1835 207.126 37.6701 205.679 37.811C204.327 37.9424 203.289 38.5859 202.985 39.8783C202.703 41.0827 203.765 41.6124 204.609 42.2505C206.449 43.6418 208.928 43.505 210.75 45.1117C214.049 48.0217 213.712 52.1212 209.799 54.1276C209.397 54.3335 208.691 54.1574 208.612 54.8794H202.846L202.847 54.8781Z" fill="#FFF3EE"/>
<path d="M219.127 48.672C219.086 45.8393 219.03 43.0065 219.014 40.1737C219.008 39.197 219.156 38.2297 217.628 38.3624C216.539 38.4573 216.368 37.616 216.353 36.8099C216.34 36.1095 216.472 35.2397 217.364 35.2939C219.378 35.4172 218.947 34.0868 219.055 32.9312C219.173 31.6795 218.22 29.7937 220.87 29.8668C223.241 29.9318 222.814 31.5494 222.852 32.957C222.874 33.7265 222.857 34.4973 222.857 35.1964C223.926 35.1964 224.906 35.2343 225.881 35.1869C227.084 35.1273 227.449 36.0241 227.387 36.814C227.333 37.5184 227.071 38.6252 225.825 38.3462C222.673 37.639 222.736 39.5966 222.863 41.7141C222.94 42.9997 222.981 44.3016 222.857 45.5805C222.583 48.3984 223.5 50.2977 226.365 51.3626C228.714 52.2337 228.649 53.3541 226.43 54.8795H225.382C222.565 53.7673 219.543 52.8718 219.185 49.1611C219.242 49.1069 219.356 49.027 219.346 49.0053C219.29 48.8875 219.201 48.7831 219.125 48.6748L219.127 48.672Z" fill="#FFF3EE"/>
<path d="M85.9612 54.878C85.3237 54.1641 84.9325 53.4312 84.9461 52.3812C85.0173 47.4012 85.0009 42.4184 84.9626 37.437C84.9516 36.0687 85.1007 35.1299 86.8846 35.1435C88.5056 35.157 89.0515 35.8696 89.0487 37.3151C89.0405 42.3819 89.0036 47.45 89.0733 52.5167C89.0911 53.7563 88.3401 54.282 87.5316 54.878H85.9598H85.9612Z" fill="#FFF3EE"/>
<path d="M0 11.3893C2.63336 8.81802 4.48972 8.54436 6.81392 10.3855C8.65385 11.8418 8.9425 14.2289 7.48833 15.9575C6.02459 17.697 3.45552 17.9626 1.69356 16.5347C1.10533 16.0564 0.563608 15.5227 0 15.0133C0 13.8048 0 12.5978 0 11.3893ZM5.83034 13.2575C5.72227 12.2523 5.12172 11.5844 4.18329 11.5763C3.07933 11.5654 2.48289 12.3051 2.57181 13.4309C2.65115 14.4416 3.31188 15.0079 4.27768 14.9645C5.27494 14.9212 5.74689 14.1991 5.83171 13.2575H5.83034Z" fill="#FFF3EE"/>
<path d="M34.5935 -0.000110097C37.8985 2.85163 38.0353 5.98922 34.93 7.68672C32.9273 8.78136 30.4047 8.18933 29.2187 6.34552C28.023 4.48816 28.4075 2.42895 30.2994 0.972598C30.666 0.689456 30.9847 0.497082 30.9245 -0.00146484H34.5935V-0.000110097ZM34.5469 4.11155C34.4539 3.11852 33.9122 2.57391 32.9013 2.50617C31.7002 2.42624 31.0791 3.16051 31.1215 4.17657C31.1598 5.0829 31.9067 5.68576 32.8903 5.68847C33.9026 5.69118 34.4553 5.11541 34.5483 4.11019L34.5469 4.11155Z" fill="#FFF3EE"/>
<path d="M134.707 54.8782C134.536 54.534 134.363 54.1886 134.192 53.8445C135.269 53.8526 136.344 53.8621 137.421 53.8702C137.406 54.6099 136.313 54.1588 136.278 54.8782H134.707Z" fill="#FFF3EE"/>
<path d="M193.48 53.8755C193.513 54.649 192.49 54.2765 192.364 54.878H190.267C190.345 54.7601 190.442 54.6504 190.49 54.5217C190.511 54.4675 190.426 54.3767 190.39 54.3022C191.37 53.7969 192.444 53.9703 193.48 53.8768V53.8755Z" fill="#FFF3EE"/>
<path d="M69.209 53.8389C69.2897 54.6233 68.0996 54.1329 68.1393 54.8766H66.5675C66.5497 54.7303 66.5346 54.5826 66.5237 54.4363C67.2473 53.4826 68.2966 53.9608 69.209 53.8389Z" fill="#FFF3EE"/>
<path d="M99.3934 54.0558C99.117 54.6289 98.1923 54.1411 98.0158 54.8768H96.9679C96.9337 54.2495 95.916 54.5557 95.9693 53.8472C97.1102 53.9163 98.2525 53.9867 99.3934 54.0558Z" fill="#FFF3EE"/>
<path d="M110.596 54.8782C110.419 54.5327 110.244 54.1872 110.068 53.8418C110.827 53.8946 111.685 53.6074 112.214 54.4501C112.199 54.5923 112.184 54.7359 112.168 54.8782H110.596Z" fill="#FFF3EE"/>
<path d="M28.7699 25.0981C25.2337 21.8332 22.6975 18.8012 20.6687 15.3642C20.0983 14.397 19.6045 13.4175 20.8138 12.7238C22.0696 12.0031 22.4512 13.2143 22.8698 14C24.8849 17.777 27.9067 20.7168 31.4471 24.1091C31.4471 20.5258 31.4471 17.4045 31.4471 14.2845C31.4471 13.5949 31.484 12.9027 31.4416 12.2145C31.3814 11.2404 31.7508 10.8272 32.7904 10.8353C33.9012 10.8435 34.0572 11.4287 34.0531 12.3161C34.0339 16.0226 34.0449 19.7306 34.0449 23.7C36.3718 22.7828 37.7247 21.0027 39.1529 19.3892C40.6987 17.6429 42.0968 15.7598 43.1679 13.6749C43.6385 12.7577 44.0517 12.037 45.3389 12.755C46.9094 13.6315 45.6741 14.359 45.291 15.0256C43.287 18.5181 40.9231 21.7505 37.328 24.8515C41.25 24.6659 44.2062 23.3992 47.0585 21.9673C48.9873 20.9986 50.8751 19.8891 52.4757 18.3907C52.8478 18.0426 53.2883 17.7323 53.7534 17.521C54.4661 17.1986 55.2103 16.9087 55.8204 17.7879C56.4647 18.7172 55.5427 19.0505 55.1282 19.4366C50.4907 23.7582 44.9121 26.2632 38.7001 27.3795C34.0613 28.2127 34.1352 28.1273 34.012 32.6684C33.9382 35.3969 34.023 37.8137 36.8533 39.3974C38.0613 40.0735 37.997 41.6558 37.7357 42.9455C37.0859 46.1509 36.2665 49.321 35.1023 52.3854C34.7124 53.4123 34.2159 54.4026 32.7289 54.3945C31.313 54.3877 30.9108 53.4001 30.6153 52.468C29.6263 49.3521 28.6879 46.2145 27.8931 43.0458C27.4102 41.1193 28.0709 39.2796 29.7959 38.3177C31.3144 37.471 31.5333 36.4184 31.4662 34.9457C31.3691 32.7931 32.1119 30.2637 31.1995 28.5798C30.1995 26.7333 27.2638 27.5488 25.2077 27.0611C19.8329 25.7877 15.0751 23.4345 10.9821 19.8092C10.4745 19.3594 8.8617 19.1494 9.93556 17.7581C10.9698 16.4182 11.7782 17.1295 12.6647 17.9423C16.3049 21.2804 20.6646 23.2692 25.4211 24.4857C26.2528 24.6984 27.1147 24.7987 28.7686 25.0967L28.7699 25.0981ZM32.6878 50.1921C34.0175 47.4866 34.2979 44.9221 35.0093 42.489C35.2952 41.5108 34.6071 40.912 33.8903 40.3715C33.0503 39.7388 32.2378 39.9583 31.5004 40.4867C30.7439 41.0272 30.458 41.775 30.7193 42.7274C31.3664 45.0833 31.9696 47.4514 32.6892 50.1921H32.6878Z" fill="#FFF3EE"/>
<path d="M112.214 54.4501C111.685 53.6074 110.826 53.8946 110.068 53.8418C109.46 49.8317 110.315 45.7675 109.592 41.7588C108.995 38.4586 106.857 37.322 103.768 38.7553C101.188 39.9516 99.7314 41.9485 99.6685 44.8097C99.6055 47.6492 99.5973 50.4901 99.5659 53.3297C99.2581 53.5017 99.2116 53.7429 99.3771 54.0382L99.3935 54.0558C98.2526 53.9867 97.1103 53.9163 95.9694 53.8472C95.6548 47.9798 95.7615 42.1097 95.9147 36.2409C95.9886 36.203 96.1295 36.1583 96.1254 36.1285C96.1104 35.9971 96.0543 35.8697 96.0132 35.741C98.8655 34.5949 99.3128 34.8713 99.7642 38.1877C102.469 35.214 105.678 33.8335 109.6 35.1422C112.592 36.1407 113.584 38.5399 113.623 41.4553C113.563 41.5095 113.443 41.5989 113.452 41.6138C113.518 41.7236 113.608 41.8198 113.692 41.9187C113.692 45.5534 113.692 49.1882 113.692 52.823C113.25 52.9504 113.339 53.117 113.656 53.2985C113.608 54.2103 113.035 54.4785 112.216 54.4487L112.214 54.4501Z" fill="#FFF3EE"/>
<path d="M69.209 53.839C68.2966 53.9609 67.2459 53.4827 66.5237 54.4364C66.3499 54.3118 66.1762 54.1871 66.0025 54.0625C65.8588 53.8214 65.7152 53.5802 65.5715 53.3391C65.5715 45.2174 65.5715 37.0957 65.5715 28.974C65.6468 28.9455 65.722 28.9171 65.7973 28.8872C65.7453 28.7599 65.6933 28.6339 65.6413 28.5066C66.0257 27.4742 66.9204 27.5135 67.7931 27.5135C71.4361 27.5135 75.0776 27.5257 78.7206 27.5068C79.8683 27.5013 80.8875 27.6165 80.7424 29.1121C80.6289 30.2935 80.2377 31.1456 78.7096 31.0941C75.6782 30.9925 72.6399 31.0481 69.6057 31.0372C69.3362 31.2283 68.8369 31.4125 68.8328 31.6089C68.7699 34.145 68.7466 36.6852 68.7959 39.2213C68.8041 39.667 69.406 39.7401 69.8246 39.8322C72.5838 39.8417 75.343 39.8499 78.1009 39.8593C78.3758 40.0138 78.6522 40.1682 78.9271 40.3227C79.5126 41.1369 78.9545 41.7817 78.6002 42.4564C78.4347 42.6203 78.2705 42.7842 78.105 42.9482C76.1187 42.9942 74.1201 43.1988 72.1515 43.0444C70.0489 42.8777 69.261 43.4481 69.3677 45.6671C69.4976 48.378 69.681 51.1227 69.2117 53.8376L69.209 53.839Z" fill="#FFF3EE"/>
<path d="M193.48 53.8754C192.443 53.9703 191.368 53.7955 190.39 54.3008C189.312 53.7725 189.77 52.7889 189.762 52.0045C189.717 47.8658 189.853 43.723 189.699 39.5896C189.61 37.185 189.562 35.1298 192.862 35.3168C192.932 35.7367 193.156 36.0361 193.558 36.1987C193.82 42.0919 193.997 47.985 193.48 53.8741V53.8754Z" fill="#FFF3EE"/>
<path d="M17.2597 11.2349C14.8822 11.197 12.978 9.0822 13.0915 6.60573C13.1886 4.47878 15.2871 2.80973 17.7331 2.9154C19.9205 3.01023 21.5388 4.74973 21.5415 7.00809C21.5443 9.43444 19.6811 11.2728 17.2597 11.2335V11.2349ZM17.231 8.70694C18.324 8.69068 18.8958 8.10543 18.993 7.15169C19.0956 6.13699 18.3938 5.47722 17.5169 5.35394C16.6045 5.22524 15.7796 5.82539 15.6565 6.74933C15.5128 7.82094 16.2447 8.44818 17.2324 8.70829L17.231 8.70694Z" fill="#FFF3EE"/>
<path d="M52.5496 6.94033C52.5729 9.46422 50.9122 11.0953 48.2993 11.1102C45.9737 11.1238 44.0764 9.35584 44.0531 7.15574C44.0257 4.51263 45.5483 3.38277 49.4279 3.17143C50.9819 3.08743 52.5318 4.95834 52.551 6.94033H52.5496ZM48.313 5.29296C47.3062 5.57746 46.5716 6.10581 46.67 7.24515C46.7603 8.28695 47.5373 8.7164 48.4594 8.67983C49.4853 8.63918 49.9409 7.91575 49.9067 6.93762C49.8711 5.94595 49.3212 5.39457 48.3144 5.29431L48.313 5.29296Z" fill="#FFF3EE"/>
<path d="M57.6521 13.0868C57.6904 10.4112 59.239 8.9941 62.0036 9.10519C64.0023 9.18512 65.6507 11.0018 65.6083 13.08C65.5481 16.0632 64.2581 17.2147 61.0214 17.1741C58.5919 17.1443 57.6111 15.9534 57.6535 13.0854L57.6521 13.0868ZM61.3963 15.5727C62.2075 14.7992 63.2868 14.2817 63.2143 13.141C63.1569 12.2523 62.4537 11.453 61.5194 11.5166C60.5467 11.583 59.6822 12.2604 59.8231 13.3767C59.938 14.2952 60.6822 14.9333 61.3963 15.5727Z" fill="#FFF3EE"/>
<path d="M89.0407 29.608C89.1487 30.9926 88.503 31.5209 87.053 31.5047C85.581 31.4884 84.7958 31.1199 84.8587 29.482C84.9121 28.0988 85.4306 27.4377 86.8587 27.496C88.2308 27.5515 89.1692 28.004 89.0407 29.6067V29.608Z" fill="#FFF3EE"/>
<path d="M191.885 31.5939C190.575 31.6698 189.691 31.4178 189.691 29.8016C189.691 28.3412 190.055 27.4769 191.688 27.4972C193.051 27.5134 193.72 28.2057 193.764 29.4981C193.807 30.7675 193.459 31.7497 191.884 31.5953L191.885 31.5939Z" fill="#FFF3EE"/>
<path d="M69.8204 39.8351C69.4018 39.7429 68.8013 39.6698 68.7917 39.2241C68.7424 36.6866 68.7657 34.1478 68.8286 31.6117C68.8341 31.4153 69.332 31.2297 69.6015 31.04C69.3772 33.9785 69.0201 36.921 69.819 39.8351H69.8204Z" fill="#FFF3EE"/>
<path d="M193.558 36.1988C193.156 36.0349 192.932 35.7355 192.862 35.3169C193.404 35.3724 193.561 35.7247 193.558 36.1988Z" fill="#FFF3EE"/>
<path d="M96.013 35.741C96.0541 35.8697 96.1102 35.997 96.1252 36.1284C96.128 36.1582 95.9884 36.2029 95.9146 36.2409C95.9474 36.0742 95.9802 35.9076 96.0144 35.741H96.013Z" fill="#FFF3EE"/>
<path d="M120.139 35.7477C120.18 35.875 120.235 36.001 120.252 36.1311C120.255 36.1568 120.114 36.2002 120.04 36.2354C120.073 36.0728 120.106 35.9089 120.139 35.7463V35.7477Z" fill="#FFF3EE"/>
<path d="M78.9244 40.3253C78.6494 40.1709 78.3731 40.0165 78.0981 39.862C78.5017 39.7943 78.7753 39.9514 78.9244 40.3253Z" fill="#FFF3EE"/>
<path d="M113.69 41.9199C113.607 41.8196 113.517 41.7248 113.451 41.615C113.443 41.6001 113.562 41.5107 113.622 41.4565C113.753 41.5961 113.775 41.7505 113.689 41.9212L113.69 41.9199Z" fill="#FFF3EE"/>
<path d="M78.1035 42.9508C78.269 42.7868 78.4332 42.6229 78.5987 42.459C78.7519 42.9359 78.44 42.9548 78.1035 42.9508Z" fill="#FFF3EE"/>
<path d="M65.64 28.5078C65.6919 28.6352 65.7439 28.7612 65.7959 28.8885C65.7207 28.9169 65.6454 28.9454 65.5702 28.9752C65.4854 28.8045 65.5086 28.6487 65.64 28.5078Z" fill="#FFF3EE"/>
<path d="M219.127 48.6719C219.204 48.7803 219.293 48.8846 219.349 49.0024C219.36 49.0241 219.245 49.1054 219.187 49.1582C219.058 49.0092 219.037 48.8466 219.127 48.6719Z" fill="#FFF3EE"/>
<path d="M113.655 53.2997C113.336 53.1168 113.247 52.9516 113.69 52.8242C113.768 52.9895 113.757 53.148 113.655 53.2997Z" fill="#FFF3EE"/>
<path d="M65.5701 53.3391C65.7138 53.5803 65.8574 53.8214 66.001 54.0625C65.6563 53.9379 65.5113 53.6968 65.5701 53.3391Z" fill="#FFF3EE"/>
<path d="M120.044 53.3281C120.125 53.4419 120.214 53.5517 120.277 53.6749C120.285 53.6898 120.157 53.7738 120.091 53.8253C120.076 53.66 120.059 53.4934 120.044 53.3281Z" fill="#FFF3EE"/>
<path d="M123.678 53.3296C123.657 53.4935 123.638 53.6588 123.618 53.8227C123.566 53.6981 123.501 53.5762 123.471 53.4461C123.466 53.4244 123.605 53.3689 123.678 53.3296Z" fill="#FFF3EE"/>
<path d="M99.377 54.0381C99.2101 53.7428 99.258 53.503 99.5658 53.3296C99.5028 53.5653 99.4399 53.8024 99.377 54.0381Z" fill="#FFF3EE"/>
</svg>
